ISO-10303-21;
HEADER;
FILE_DESCRIPTION (( 'STEP AP203' ),
    '1' );
FILE_NAME ('Block.STEP',
    '2026-07-27T14:16:56',
    ( '' ),
    ( '' ),
    'SwSTEP 2.0',
    'SolidWorks 2026',
    '' );
FILE_SCHEMA (( 'CONFIG_CONTROL_DESIGN' ));
ENDSEC;

DATA;
#1 = DIRECTION ( 'NONE',  ( 0.000000000000000000, -0.000000000000000000, 1.000000000000000000 ) ) ;
#2 = ORIENTED_EDGE ( 'NONE', *, *, #182, .F. ) ;
#3 = VERTEX_POINT ( 'NONE', #216 ) ;
#4 = APPROVAL ( #225, 'UNSPECIFIED' ) ;
#5 = DIRECTION ( 'NONE',  ( -6.938893903907228378E-17, 0.000000000000000000, -1.000000000000000000 ) ) ;
#6 = ORIENTED_EDGE ( 'NONE', *, *, #46, .F. ) ;
#7 = CARTESIAN_POINT ( 'NONE',  ( 25.00000000000000000, 25.00000000000000000, -25.00000000000000000 ) ) ;
#8 = LOCAL_TIME ( 7, 16, 56.00000000000000000, #104 ) ;
#9 = DIRECTION ( 'NONE',  ( -0.000000000000000000, -1.000000000000000000, -0.000000000000000000 ) ) ;
#10 = DATE_AND_TIME ( #18, #8 ) ;
#11 = PERSON_AND_ORGANIZATION_ROLE ( 'design_owner' ) ;
#12 = DIRECTION ( 'NONE',  ( -1.000000000000000000, 0.000000000000000000, -0.000000000000000000 ) ) ;
#13 = APPROVAL_ROLE ( '' ) ;
#14 = APPROVAL_PERSON_ORGANIZATION ( #175, #4, #69 ) ;
#15 = EDGE_LOOP ( 'NONE', ( #99, #180, #48, #28 ) ) ;
#16 = CC_DESIGN_PERSON_AND_ORGANIZATION_ASSIGNMENT ( #230, #39, ( #195 ) ) ;
#17 = DIRECTION ( 'NONE',  ( 0.000000000000000000, 1.000000000000000000, 0.000000000000000000 ) ) ;
#18 = CALENDAR_DATE ( 2026, 27, 7 ) ;
#19 = ORIENTED_EDGE ( 'NONE', *, *, #202, .F. ) ;
#20 = CC_DESIGN_APPROVAL ( #4, ( #65 ) ) ;
#21 = VECTOR ( 'NONE', #190, 1000.000000000000000 ) ;
#22 = LOCAL_TIME ( 7, 16, 56.00000000000000000, #88 ) ;
#23 = LINE ( 'NONE', #101, #68 ) ;
#24 = CARTESIAN_POINT ( 'NONE',  ( -1.734723475976807094E-15, 25.00000000000000000, -25.00000000000000000 ) ) ;
#25 = FACE_OUTER_BOUND ( 'NONE', #81, .T. ) ;
#26 = EDGE_CURVE ( 'NONE', #91, #36, #223, .T. ) ;
#27 = EDGE_LOOP ( 'NONE', ( #78, #19, #231, #118 ) ) ;
#28 = ORIENTED_EDGE ( 'NONE', *, *, #102, .T. ) ;
#29 = DIRECTION ( 'NONE',  ( 0.000000000000000000, 0.000000000000000000, 1.000000000000000000 ) ) ;
#30 = CARTESIAN_POINT ( 'NONE',  ( 25.00000000000000000, 25.00000000000000000, 0.000000000000000000 ) ) ;
#31 = AXIS2_PLACEMENT_3D ( 'NONE', #51, #122, #193 ) ;
#32 = FACE_OUTER_BOUND ( 'NONE', #15, .T. ) ;
#33 = CALENDAR_DATE ( 2026, 27, 7 ) ;
#34 = ADVANCED_FACE ( 'NONE', ( #25 ), #154, .F. ) ;
#35 = DIRECTION ( 'NONE',  ( 0.000000000000000000, -0.000000000000000000, 1.000000000000000000 ) ) ;
#36 = VERTEX_POINT ( 'NONE', #77 ) ;
#37 = PRODUCT ( 'Block', 'Block', '', ( #52 ) ) ;
#38 = DATE_AND_TIME ( #127, #234 ) ;
#39 = PERSON_AND_ORGANIZATION_ROLE ( 'creator' ) ;
#40 = SHAPE_DEFINITION_REPRESENTATION ( #233, #189 ) ;
#41 = AXIS2_PLACEMENT_3D ( 'NONE', #7, #103, #140 ) ;
#42 = EDGE_CURVE ( 'NONE', #134, #54, #208, .T. ) ;
#43 = CC_DESIGN_SECURITY_CLASSIFICATION ( #92, ( #195 ) ) ;
#44 = CARTESIAN_POINT ( 'NONE',  ( 0.000000000000000000, 0.000000000000000000, 0.000000000000000000 ) ) ;
#45 = FACE_OUTER_BOUND ( 'NONE', #50, .T. ) ;
#46 = EDGE_CURVE ( 'NONE', #116, #91, #60, .T. ) ;
#47 = DIRECTION ( 'NONE',  ( 6.938893903907228378E-17, 0.000000000000000000, 1.000000000000000000 ) ) ;
#48 = ORIENTED_EDGE ( 'NONE', *, *, #83, .F. ) ;
#49 = APPROVAL_PERSON_ORGANIZATION ( #106, #150, #13 ) ;
#50 = EDGE_LOOP ( 'NONE', ( #165, #63, #157, #220 ) ) ;
#51 = CARTESIAN_POINT ( 'NONE',  ( 0.000000000000000000, 0.000000000000000000, 0.000000000000000000 ) ) ;
#52 = MECHANICAL_CONTEXT ( 'NONE', #194, 'mechanical' ) ;
#53 =( LENGTH_UNIT ( ) NAMED_UNIT ( * ) SI_UNIT ( .MILLI., .METRE. ) );
#54 = VERTEX_POINT ( 'NONE', #207 ) ;
#55 = PERSON_AND_ORGANIZATION_ROLE ( 'classification_officer' ) ;
#56 = DATE_AND_TIME ( #112, #115 ) ;
#57 = PERSON_AND_ORGANIZATION ( #126, #94 ) ;
#58 = CC_DESIGN_APPROVAL ( #150, ( #195 ) ) ;
#59 = PRODUCT_RELATED_PRODUCT_CATEGORY ( 'detail', '', ( #37 ) ) ;
#60 = LINE ( 'NONE', #44, #183 ) ;
#61 = CARTESIAN_POINT ( 'NONE',  ( -1.734723475976807094E-15, 25.00000000000000000, -25.00000000000000000 ) ) ;
#62 = LINE ( 'NONE', #191, #113 ) ;
#63 = ORIENTED_EDGE ( 'NONE', *, *, #70, .F. ) ;
#64 = CARTESIAN_POINT ( 'NONE',  ( 25.00000000000000000, 0.000000000000000000, -25.00000000000000000 ) ) ;
#65 = PRODUCT_DEFINITION ( 'UNKNOWN', '', #195, #147 ) ;
#66 = DIRECTION ( 'NONE',  ( -1.000000000000000000, -0.000000000000000000, -0.000000000000000000 ) ) ;
#67 = PERSON_AND_ORGANIZATION ( #126, #94 ) ;
#68 = VECTOR ( 'NONE', #129, 1000.000000000000000 ) ;
#69 = APPROVAL_ROLE ( '' ) ;
#70 = EDGE_CURVE ( 'NONE', #152, #116, #62, .T. ) ;
#71 = LINE ( 'NONE', #105, #167 ) ;
#72 = AXIS2_PLACEMENT_3D ( 'NONE', #212, #173, #12 ) ;
#73 = APPROVAL_DATE_TIME ( #142, #150 ) ;
#74 = ORIENTED_EDGE ( 'NONE', *, *, #111, .T. ) ;
#75 = VECTOR ( 'NONE', #168, 1000.000000000000000 ) ;
#76 = EDGE_CURVE ( 'NONE', #54, #116, #156, .T. ) ;
#77 = CARTESIAN_POINT ( 'NONE',  ( 25.00000000000000000, 0.000000000000000000, -25.00000000000000000 ) ) ;
#78 = ORIENTED_EDGE ( 'NONE', *, *, #46, .T. ) ;
#79 = ORIENTED_EDGE ( 'NONE', *, *, #76, .F. ) ;
#80 = AXIS2_PLACEMENT_3D ( 'NONE', #188, #97, #5 ) ;
#81 = EDGE_LOOP ( 'NONE', ( #79, #132, #109, #6 ) ) ;
#82 = EDGE_LOOP ( 'NONE', ( #74, #144, #95, #204 ) ) ;
#83 = EDGE_CURVE ( 'NONE', #3, #134, #23, .T. ) ;
#84 = CARTESIAN_POINT ( 'NONE',  ( 0.000000000000000000, 25.00000000000000000, 0.000000000000000000 ) ) ;
#85 = APPLICATION_PROTOCOL_DEFINITION ( 'international standard', 'config_control_design', 1994, #130 ) ;
#86 = CARTESIAN_POINT ( 'NONE',  ( 0.000000000000000000, 25.00000000000000000, 0.000000000000000000 ) ) ;
#87 = AXIS2_PLACEMENT_3D ( 'NONE', #121, #29, #199 ) ;
#88 = COORDINATED_UNIVERSAL_TIME_OFFSET ( 8, 0, .BEHIND. ) ;
#89 = CARTESIAN_POINT ( 'NONE',  ( 0.000000000000000000, 25.00000000000000000, 0.000000000000000000 ) ) ;
#90 = DATE_TIME_ROLE ( 'creation_date' ) ;
#91 = VERTEX_POINT ( 'NONE', #151 ) ;
#92 = SECURITY_CLASSIFICATION ( '', '', #214 ) ;
#93 = VECTOR ( 'NONE', #172, 1000.000000000000000 ) ;
#94 = ORGANIZATION ( 'UNSPECIFIED', 'UNSPECIFIED', '' ) ;
#95 = ORIENTED_EDGE ( 'NONE', *, *, #182, .T. ) ;
#96 = CARTESIAN_POINT ( 'NONE',  ( 25.00000000000000000, 25.00000000000000000, -25.00000000000000000 ) ) ;
#97 = DIRECTION ( 'NONE',  ( 1.000000000000000000, 0.000000000000000000, -6.938893903907228378E-17 ) ) ;
#98 = AXIS2_PLACEMENT_3D ( 'NONE', #218, #186, #1 ) ;
#99 = ORIENTED_EDGE ( 'NONE', *, *, #215, .T. ) ;
#100 = APPROVAL ( #236, 'UNSPECIFIED' ) ;
#101 = CARTESIAN_POINT ( 'NONE',  ( -1.734723475976807094E-15, 25.00000000000000000, -25.00000000000000000 ) ) ;
#102 = EDGE_CURVE ( 'NONE', #3, #36, #171, .T. ) ;
#103 = DIRECTION ( 'NONE',  ( -1.000000000000000000, 0.000000000000000000, 0.000000000000000000 ) ) ;
#104 = COORDINATED_UNIVERSAL_TIME_OFFSET ( 8, 0, .BEHIND. ) ;
#105 = CARTESIAN_POINT ( 'NONE',  ( -1.734723475976807094E-15, 0.000000000000000000, -25.00000000000000000 ) ) ;
#106 = PERSON_AND_ORGANIZATION ( #126, #94 ) ;
#107 = DIRECTION ( 'NONE',  ( -0.000000000000000000, -0.000000000000000000, -1.000000000000000000 ) ) ;
#108 = PERSON_AND_ORGANIZATION_ROLE ( 'creator' ) ;
#109 = ORIENTED_EDGE ( 'NONE', *, *, #26, .F. ) ;
#110 = COORDINATED_UNIVERSAL_TIME_OFFSET ( 8, 0, .BEHIND. ) ;
#111 = EDGE_CURVE ( 'NONE', #134, #152, #217, .T. ) ;
#112 = CALENDAR_DATE ( 2026, 27, 7 ) ;
#113 = VECTOR ( 'NONE', #184, 1000.000000000000000 ) ;
#114 = APPROVAL_DATE_TIME ( #38, #100 ) ;
#115 = LOCAL_TIME ( 7, 16, 56.00000000000000000, #203 ) ;
#116 = VERTEX_POINT ( 'NONE', #131 ) ;
#117 = PLANE ( 'NONE',  #80 ) ;
#118 = ORIENTED_EDGE ( 'NONE', *, *, #70, .T. ) ;
#119 = ADVANCED_FACE ( 'NONE', ( #45 ), #117, .F. ) ;
#120 = ORIENTED_EDGE ( 'NONE', *, *, #202, .T. ) ;
#121 = CARTESIAN_POINT ( 'NONE',  ( -1.734723475976807094E-15, 25.00000000000000000, -25.00000000000000000 ) ) ;
#122 = DIRECTION ( 'NONE',  ( 0.000000000000000000, 0.000000000000000000, 1.000000000000000000 ) ) ;
#123 = CARTESIAN_POINT ( 'NONE',  ( -1.734723475976807094E-15, 25.00000000000000000, -25.00000000000000000 ) ) ;
#124 = LOCAL_TIME ( 7, 16, 56.00000000000000000, #197 ) ;
#125 = FACE_OUTER_BOUND ( 'NONE', #82, .T. ) ;
#126 = PERSON ( 'UNSPECIFIED', 'UNSPECIFIED', 'UNSPECIFIED', ('UNSPECIFIED'), ('UNSPECIFIED'), ('UNSPECIFIED') ) ;
#127 = CALENDAR_DATE ( 2026, 27, 7 ) ;
#128 = UNCERTAINTY_MEASURE_WITH_UNIT (LENGTH_MEASURE( 1.000000000000000082E-05 ), #53, 'distance_accuracy_value', 'NONE');
#129 = DIRECTION ( 'NONE',  ( -1.000000000000000000, -0.000000000000000000, -0.000000000000000000 ) ) ;
#130 = APPLICATION_CONTEXT ( 'configuration controlled 3d designs of mechanical parts and assemblies' ) ;
#131 = CARTESIAN_POINT ( 'NONE',  ( 0.000000000000000000, 0.000000000000000000, 0.000000000000000000 ) ) ;
#132 = ORIENTED_EDGE ( 'NONE', *, *, #215, .F. ) ;
#133 = ADVANCED_FACE ( 'NONE', ( #125 ), #209, .T. ) ;
#134 = VERTEX_POINT ( 'NONE', #123 ) ;
#135 = DIRECTION ( 'NONE',  ( 1.000000000000000000, 0.000000000000000000, 0.000000000000000000 ) ) ;
#136 = PLANE ( 'NONE',  #87 ) ;
#137 = VECTOR ( 'NONE', #47, 1000.000000000000000 ) ;
#138 = LINE ( 'NONE', #89, #219 ) ;
#139 = AXIS2_PLACEMENT_3D ( 'NONE', #86, #17, #35 ) ;
#140 = DIRECTION ( 'NONE',  ( 0.000000000000000000, 0.000000000000000000, 1.000000000000000000 ) ) ;
#141 = CC_DESIGN_DATE_AND_TIME_ASSIGNMENT ( #56, #235, ( #92 ) ) ;
#142 = DATE_AND_TIME ( #227, #22 ) ;
#143 = APPLICATION_PROTOCOL_DEFINITION ( 'international standard', 'config_control_design', 1994, #194 ) ;
#144 = ORIENTED_EDGE ( 'NONE', *, *, #198, .T. ) ;
#145 = PERSON_AND_ORGANIZATION_ROLE ( 'design_supplier' ) ;
#146 =( GEOMETRIC_REPRESENTATION_CONTEXT ( 3 ) GLOBAL_UNCERTAINTY_ASSIGNED_CONTEXT ( ( #128 ) ) GLOBAL_UNIT_ASSIGNED_CONTEXT ( ( #53, #158, #224 ) ) REPRESENTATION_CONTEXT ( 'NONE', 'WORKASPACE' ) );
#147 = DESIGN_CONTEXT ( 'detailed design', #130, 'design' ) ;
#148 = PERSON_AND_ORGANIZATION ( #126, #94 ) ;
#149 = APPROVAL_ROLE ( '' ) ;
#150 = APPROVAL ( #177, 'UNSPECIFIED' ) ;
#151 = CARTESIAN_POINT ( 'NONE',  ( 25.00000000000000000, 0.000000000000000000, 0.000000000000000000 ) ) ;
#152 = VERTEX_POINT ( 'NONE', #84 ) ;
#153 = CC_DESIGN_APPROVAL ( #100, ( #92 ) ) ;
#154 = PLANE ( 'NONE',  #98 ) ;
#155 = ADVANCED_FACE ( 'NONE', ( #161 ), #179, .F. ) ;
#156 = LINE ( 'NONE', #206, #137 ) ;
#157 = ORIENTED_EDGE ( 'NONE', *, *, #111, .F. ) ;
#158 =( NAMED_UNIT ( * ) PLANE_ANGLE_UNIT ( ) SI_UNIT ( $, .RADIAN. ) );
#159 = CARTESIAN_POINT ( 'NONE',  ( 25.00000000000000000, 25.00000000000000000, -25.00000000000000000 ) ) ;
#160 = CC_DESIGN_PERSON_AND_ORGANIZATION_ASSIGNMENT ( #232, #145, ( #195 ) ) ;
#161 = FACE_OUTER_BOUND ( 'NONE', #213, .T. ) ;
#162 = DATE_AND_TIME ( #33, #124 ) ;
#163 = ADVANCED_FACE ( 'NONE', ( #164 ), #196, .F. ) ;
#164 = FACE_OUTER_BOUND ( 'NONE', #27, .T. ) ;
#165 = ORIENTED_EDGE ( 'NONE', *, *, #76, .T. ) ;
#166 = CC_DESIGN_DATE_AND_TIME_ASSIGNMENT ( #162, #90, ( #65 ) ) ;
#167 = VECTOR ( 'NONE', #66, 1000.000000000000000 ) ;
#168 = DIRECTION ( 'NONE',  ( -0.000000000000000000, -0.000000000000000000, -1.000000000000000000 ) ) ;
#169 = DIRECTION ( 'NONE',  ( -0.000000000000000000, -1.000000000000000000, -0.000000000000000000 ) ) ;
#170 = ORIENTED_EDGE ( 'NONE', *, *, #102, .F. ) ;
#171 = LINE ( 'NONE', #96, #201 ) ;
#172 = DIRECTION ( 'NONE',  ( 6.938893903907228378E-17, 0.000000000000000000, 1.000000000000000000 ) ) ;
#173 = DIRECTION ( 'NONE',  ( 0.000000000000000000, 0.000000000000000000, -1.000000000000000000 ) ) ;
#174 = PERSON_AND_ORGANIZATION ( #126, #94 ) ;
#175 = PERSON_AND_ORGANIZATION ( #126, #94 ) ;
#176 = CLOSED_SHELL ( 'NONE', ( #119, #163, #155, #222, #133, #34 ) ) ;
#177 = APPROVAL_STATUS ( 'not_yet_approved' ) ;
#178 = APPROVAL_PERSON_ORGANIZATION ( #148, #100, #149 ) ;
#179 = PLANE ( 'NONE',  #41 ) ;
#180 = ORIENTED_EDGE ( 'NONE', *, *, #42, .F. ) ;
#181 = CC_DESIGN_PERSON_AND_ORGANIZATION_ASSIGNMENT ( #57, #55, ( #92 ) ) ;
#182 = EDGE_CURVE ( 'NONE', #200, #3, #226, .T. ) ;
#183 = VECTOR ( 'NONE', #135, 1000.000000000000000 ) ;
#184 = DIRECTION ( 'NONE',  ( -0.000000000000000000, -1.000000000000000000, -0.000000000000000000 ) ) ;
#185 = MANIFOLD_SOLID_BREP ( 'Boss-Extrude1', #176 ) ;
#186 = DIRECTION ( 'NONE',  ( 0.000000000000000000, 1.000000000000000000, 0.000000000000000000 ) ) ;
#187 = VECTOR ( 'NONE', #107, 1000.000000000000000 ) ;
#188 = CARTESIAN_POINT ( 'NONE',  ( -1.734723475976807094E-15, 25.00000000000000000, -25.00000000000000000 ) ) ;
#189 = ADVANCED_BREP_SHAPE_REPRESENTATION ( 'Block', ( #185, #31 ), #146 ) ;
#190 = DIRECTION ( 'NONE',  ( -0.000000000000000000, -1.000000000000000000, -0.000000000000000000 ) ) ;
#191 = CARTESIAN_POINT ( 'NONE',  ( 0.000000000000000000, 25.00000000000000000, 0.000000000000000000 ) ) ;
#192 = DIRECTION ( 'NONE',  ( 1.000000000000000000, 0.000000000000000000, 0.000000000000000000 ) ) ;
#193 = DIRECTION ( 'NONE',  ( 1.000000000000000000, 0.000000000000000000, 0.000000000000000000 ) ) ;
#194 = APPLICATION_CONTEXT ( 'configuration controlled 3d designs of mechanical parts and assemblies' ) ;
#195 = PRODUCT_DEFINITION_FORMATION_WITH_SPECIFIED_SOURCE ( 'ANY', '', #37, .NOT_KNOWN. ) ;
#196 = PLANE ( 'NONE',  #72 ) ;
#197 = COORDINATED_UNIVERSAL_TIME_OFFSET ( 8, 0, .BEHIND. ) ;
#198 = EDGE_CURVE ( 'NONE', #152, #200, #138, .T. ) ;
#199 = DIRECTION ( 'NONE',  ( 1.000000000000000000, 0.000000000000000000, -0.000000000000000000 ) ) ;
#200 = VERTEX_POINT ( 'NONE', #30 ) ;
#201 = VECTOR ( 'NONE', #169, 1000.000000000000000 ) ;
#202 = EDGE_CURVE ( 'NONE', #200, #91, #211, .T. ) ;
#203 = COORDINATED_UNIVERSAL_TIME_OFFSET ( 8, 0, .BEHIND. ) ;
#204 = ORIENTED_EDGE ( 'NONE', *, *, #83, .T. ) ;
#205 = ORIENTED_EDGE ( 'NONE', *, *, #26, .T. ) ;
#206 = CARTESIAN_POINT ( 'NONE',  ( -1.734723475976807094E-15, 0.000000000000000000, -25.00000000000000000 ) ) ;
#207 = CARTESIAN_POINT ( 'NONE',  ( -1.734723475976807094E-15, 0.000000000000000000, -25.00000000000000000 ) ) ;
#208 = LINE ( 'NONE', #24, #21 ) ;
#209 = PLANE ( 'NONE',  #139 ) ;
#210 = APPROVAL_DATE_TIME ( #10, #4 ) ;
#211 = LINE ( 'NONE', #228, #237 ) ;
#212 = CARTESIAN_POINT ( 'NONE',  ( 0.000000000000000000, 25.00000000000000000, 0.000000000000000000 ) ) ;
#213 = EDGE_LOOP ( 'NONE', ( #205, #170, #2, #120 ) ) ;
#214 = SECURITY_CLASSIFICATION_LEVEL ( 'unclassified' ) ;
#215 = EDGE_CURVE ( 'NONE', #36, #54, #71, .T. ) ;
#216 = CARTESIAN_POINT ( 'NONE',  ( 25.00000000000000000, 25.00000000000000000, -25.00000000000000000 ) ) ;
#217 = LINE ( 'NONE', #61, #93 ) ;
#218 = CARTESIAN_POINT ( 'NONE',  ( 0.000000000000000000, 0.000000000000000000, 0.000000000000000000 ) ) ;
#219 = VECTOR ( 'NONE', #192, 1000.000000000000000 ) ;
#220 = ORIENTED_EDGE ( 'NONE', *, *, #42, .T. ) ;
#221 = CC_DESIGN_PERSON_AND_ORGANIZATION_ASSIGNMENT ( #174, #11, ( #37 ) ) ;
#222 = ADVANCED_FACE ( 'NONE', ( #32 ), #136, .F. ) ;
#223 = LINE ( 'NONE', #64, #75 ) ;
#224 =( NAMED_UNIT ( * ) SI_UNIT ( $, .STERADIAN. ) SOLID_ANGLE_UNIT ( ) );
#225 = APPROVAL_STATUS ( 'not_yet_approved' ) ;
#226 = LINE ( 'NONE', #159, #187 ) ;
#227 = CALENDAR_DATE ( 2026, 27, 7 ) ;
#228 = CARTESIAN_POINT ( 'NONE',  ( 25.00000000000000000, 25.00000000000000000, 0.000000000000000000 ) ) ;
#229 = CC_DESIGN_PERSON_AND_ORGANIZATION_ASSIGNMENT ( #67, #108, ( #65 ) ) ;
#230 = PERSON_AND_ORGANIZATION ( #126, #94 ) ;
#231 = ORIENTED_EDGE ( 'NONE', *, *, #198, .F. ) ;
#232 = PERSON_AND_ORGANIZATION ( #126, #94 ) ;
#233 = PRODUCT_DEFINITION_SHAPE ( 'NONE', 'NONE',  #65 ) ;
#234 = LOCAL_TIME ( 7, 16, 56.00000000000000000, #110 ) ;
#235 = DATE_TIME_ROLE ( 'classification_date' ) ;
#236 = APPROVAL_STATUS ( 'not_yet_approved' ) ;
#237 = VECTOR ( 'NONE', #9, 1000.000000000000000 ) ;
ENDSEC;
END-ISO-10303-21;
