ISO-10303-21;
HEADER;
FILE_DESCRIPTION (( 'STEP AP203' ),
    '1' );
FILE_NAME ('Box.STEP',
    '2026-07-27T14:16:54',
    ( '' ),
    ( '' ),
    'SwSTEP 2.0',
    'SolidWorks 2026',
    '' );
FILE_SCHEMA (( 'CONFIG_CONTROL_DESIGN' ));
ENDSEC;

DATA;
#1 = DIRECTION ( 'NONE',  ( -0.000000000000000000, -1.000000000000000000, -0.000000000000000000 ) ) ;
#2 = ORIENTED_EDGE ( 'NONE', *, *, #45, .F. ) ;
#3 = ORIENTED_EDGE ( 'NONE', *, *, #46, .F. ) ;
#4 = ORIENTED_EDGE ( 'NONE', *, *, #19, .F. ) ;
#5 = CARTESIAN_POINT ( 'NONE',  ( 273.5000000000000000, 10.00000000000000888, -244.0000000000000000 ) ) ;
#6 = ADVANCED_BREP_SHAPE_REPRESENTATION ( 'Box', ( #478, #428 ), #581 ) ;
#7 = CARTESIAN_POINT ( 'NONE',  ( 10.00000000000003020, 85.00000000000000000, -10.00000000000000178 ) ) ;
#8 = CC_DESIGN_APPROVAL ( #357, ( #287 ) ) ;
#9 = DIRECTION ( 'NONE',  ( -0.000000000000000000, -0.000000000000000000, -1.000000000000000000 ) ) ;
#10 = PERSON_AND_ORGANIZATION_ROLE ( 'design_supplier' ) ;
#11 = VECTOR ( 'NONE', #398, 1000.000000000000000 ) ;
#12 = LINE ( 'NONE', #385, #479 ) ;
#13 = APPROVAL_ROLE ( '' ) ;
#14 = CARTESIAN_POINT ( 'NONE',  ( 10.00000000000000888, 10.00000000000000888, -244.0000000000000000 ) ) ;
#15 = FACE_OUTER_BOUND ( 'NONE', #97, .T. ) ;
#16 = DATE_AND_TIME ( #205, #379 ) ;
#17 = DIRECTION ( 'NONE',  ( -1.000000000000000000, 0.000000000000000000, 0.000000000000000000 ) ) ;
#18 = CARTESIAN_POINT ( 'NONE',  ( 10.00000000000000888, 10.00000000000000888, -244.0000000000000000 ) ) ;
#19 = EDGE_CURVE ( 'NONE', #71, #465, #333, .T. ) ;
#20 = DIRECTION ( 'NONE',  ( 2.372271420139223824E-16, 0.000000000000000000, 1.000000000000000000 ) ) ;
#21 = PLANE ( 'NONE',  #316 ) ;
#22 = ORIENTED_EDGE ( 'NONE', *, *, #257, .F. ) ;
#23 = EDGE_CURVE ( 'NONE', #598, #432, #284, .T. ) ;
#24 = PERSON_AND_ORGANIZATION ( #401, #40 ) ;
#25 = PLANE ( 'NONE',  #529 ) ;
#26 = DIRECTION ( 'NONE',  ( -1.000000000000000000, -0.000000000000000000, -0.000000000000000000 ) ) ;
#27 = EDGE_CURVE ( 'NONE', #314, #536, #152, .T. ) ;
#28 = DIRECTION ( 'NONE',  ( 2.372271420139223824E-16, 0.000000000000000000, 1.000000000000000000 ) ) ;
#29 = ORIENTED_EDGE ( 'NONE', *, *, #514, .F. ) ;
#30 = LINE ( 'NONE', #448, #75 ) ;
#31 = ORIENTED_EDGE ( 'NONE', *, *, #156, .T. ) ;
#32 = CARTESIAN_POINT ( 'NONE',  ( 527.0000000000000000, 10.00000000000000888, -244.0000000000000000 ) ) ;
#33 = VECTOR ( 'NONE', #66, 1000.000000000000000 ) ;
#34 = ORIENTED_EDGE ( 'NONE', *, *, #371, .F. ) ;
#35 = CARTESIAN_POINT ( 'NONE',  ( 0.000000000000000000, 85.00000000000000000, 0.000000000000000000 ) ) ;
#36 = ORIENTED_EDGE ( 'NONE', *, *, #322, .T. ) ;
#37 = CARTESIAN_POINT ( 'NONE',  ( 537.0000000000000000, 0.000000000000000000, 0.000000000000000000 ) ) ;
#38 = ORIENTED_EDGE ( 'NONE', *, *, #469, .F. ) ;
#39 = FACE_OUTER_BOUND ( 'NONE', #94, .T. ) ;
#40 = ORGANIZATION ( 'UNSPECIFIED', 'UNSPECIFIED', '' ) ;
#41 = ORIENTED_EDGE ( 'NONE', *, *, #346, .F. ) ;
#42 = EDGE_CURVE ( 'NONE', #567, #264, #420, .T. ) ;
#43 = VECTOR ( 'NONE', #403, 1000.000000000000000 ) ;
#44 = VERTEX_POINT ( 'NONE', #281 ) ;
#45 = EDGE_CURVE ( 'NONE', #44, #87, #336, .T. ) ;
#46 = EDGE_CURVE ( 'NONE', #54, #230, #146, .T. ) ;
#47 = EDGE_LOOP ( 'NONE', ( #222, #173, #362, #36 ) ) ;
#48 = VECTOR ( 'NONE', #26, 1000.000000000000000 ) ;
#49 = ORIENTED_EDGE ( 'NONE', *, *, #156, .F. ) ;
#50 = AXIS2_PLACEMENT_3D ( 'NONE', #525, #566, #151 ) ;
#51 = ORIENTED_EDGE ( 'NONE', *, *, #514, .T. ) ;
#52 = ORIENTED_EDGE ( 'NONE', *, *, #135, .T. ) ;
#53 = UNCERTAINTY_MEASURE_WITH_UNIT (LENGTH_MEASURE( 1.000000000000000082E-05 ), #399, 'distance_accuracy_value', 'NONE');
#54 = VERTEX_POINT ( 'NONE', #476 ) ;
#55 = CARTESIAN_POINT ( 'NONE',  ( 263.5000000000000000, 10.00000000000000888, -244.0000000000000000 ) ) ;
#56 = CC_DESIGN_PERSON_AND_ORGANIZATION_ASSIGNMENT ( #289, #58, ( #516 ) ) ;
#57 = ORIENTED_EDGE ( 'NONE', *, *, #352, .F. ) ;
#58 = PERSON_AND_ORGANIZATION_ROLE ( 'design_owner' ) ;
#59 = LINE ( 'NONE', #14, #142 ) ;
#60 = CARTESIAN_POINT ( 'NONE',  ( 0.000000000000000000, 85.00000000000000000, 0.000000000000000000 ) ) ;
#61 = CALENDAR_DATE ( 2026, 27, 7 ) ;
#62 = PRODUCT_DEFINITION_SHAPE ( 'NONE', 'NONE',  #287 ) ;
#63 = PLANE ( 'NONE',  #134 ) ;
#64 = CARTESIAN_POINT ( 'NONE',  ( 263.5000000000000000, 162.0000000000000000, -244.0000000000000000 ) ) ;
#65 = CARTESIAN_POINT ( 'NONE',  ( 0.000000000000000000, 0.000000000000000000, 0.000000000000000000 ) ) ;
#66 = DIRECTION ( 'NONE',  ( -1.000000000000000000, -0.000000000000000000, -0.000000000000000000 ) ) ;
#67 = DIRECTION ( 'NONE',  ( 1.000000000000000000, 0.000000000000000000, 0.000000000000000000 ) ) ;
#68 = ADVANCED_FACE ( 'NONE', ( #227 ), #380, .F. ) ;
#69 = DIRECTION ( 'NONE',  ( -1.000000000000000000, 0.000000000000000000, -0.000000000000000000 ) ) ;
#70 = CARTESIAN_POINT ( 'NONE',  ( 0.000000000000000000, 85.00000000000000000, 0.000000000000000000 ) ) ;
#71 = VERTEX_POINT ( 'NONE', #241 ) ;
#72 = DATE_AND_TIME ( #537, #192 ) ;
#73 = PLANE ( 'NONE',  #421 ) ;
#74 = LINE ( 'NONE', #535, #544 ) ;
#75 = VECTOR ( 'NONE', #504, 1000.000000000000000 ) ;
#76 = EDGE_CURVE ( 'NONE', #275, #54, #472, .T. ) ;
#77 = CARTESIAN_POINT ( 'NONE',  ( 537.0000000000000000, 0.000000000000000000, 0.000000000000000000 ) ) ;
#78 = CC_DESIGN_PERSON_AND_ORGANIZATION_ASSIGNMENT ( #293, #347, ( #287 ) ) ;
#79 = ORIENTED_EDGE ( 'NONE', *, *, #257, .T. ) ;
#80 = FACE_BOUND ( 'NONE', #410, .T. ) ;
#81 = DIRECTION ( 'NONE',  ( -0.000000000000000000, -1.000000000000000000, -0.000000000000000000 ) ) ;
#82 = ORIENTED_EDGE ( 'NONE', *, *, #191, .T. ) ;
#83 = CARTESIAN_POINT ( 'NONE',  ( 273.5000000000000000, 162.0000000000000000, -10.00000000000000178 ) ) ;
#84 = VERTEX_POINT ( 'NONE', #330 ) ;
#85 = DIRECTION ( 'NONE',  ( 0.000000000000000000, 0.000000000000000000, 1.000000000000000000 ) ) ;
#86 = FACE_OUTER_BOUND ( 'NONE', #459, .T. ) ;
#87 = VERTEX_POINT ( 'NONE', #101 ) ;
#88 = EDGE_CURVE ( 'NONE', #501, #447, #562, .T. ) ;
#89 = CARTESIAN_POINT ( 'NONE',  ( 263.5000000000000568, 85.00000000000000000, -10.00000000000000178 ) ) ;
#90 = ORIENTED_EDGE ( 'NONE', *, *, #19, .T. ) ;
#91 = EDGE_CURVE ( 'NONE', #137, #71, #468, .T. ) ;
#92 = DIRECTION ( 'NONE',  ( -0.000000000000000000, -0.000000000000000000, 1.000000000000000000 ) ) ;
#93 = PRODUCT_DEFINITION_FORMATION_WITH_SPECIFIED_SOURCE ( 'ANY', '', #516, .NOT_KNOWN. ) ;
#94 = EDGE_LOOP ( 'NONE', ( #51, #3, #554, #561 ) ) ;
#95 = EDGE_CURVE ( 'NONE', #465, #598, #190, .T. ) ;
#96 = VECTOR ( 'NONE', #427, 1000.000000000000000 ) ;
#97 = EDGE_LOOP ( 'NONE', ( #507, #143, #38, #189 ) ) ;
#98 = CARTESIAN_POINT ( 'NONE',  ( 263.5000000000000568, 162.0000000000000000, -10.00000000000000178 ) ) ;
#99 = APPROVAL_PERSON_ORGANIZATION ( #343, #357, #483 ) ;
#100 = ORIENTED_EDGE ( 'NONE', *, *, #179, .T. ) ;
#101 = CARTESIAN_POINT ( 'NONE',  ( 0.000000000000000000, 85.00000000000000000, 0.000000000000000000 ) ) ;
#102 = VECTOR ( 'NONE', #286, 1000.000000000000000 ) ;
#103 = CARTESIAN_POINT ( 'NONE',  ( 10.00000000000000888, 10.00000000000000888, -244.0000000000000000 ) ) ;
#104 = DESIGN_CONTEXT ( 'detailed design', #531, 'design' ) ;
#105 = CARTESIAN_POINT ( 'NONE',  ( 527.0000000000000000, 85.00000000000000000, -244.0000000000000000 ) ) ;
#106 = PERSON_AND_ORGANIZATION ( #401, #40 ) ;
#107 = LINE ( 'NONE', #534, #178 ) ;
#108 = ORIENTED_EDGE ( 'NONE', *, *, #76, .F. ) ;
#109 = APPLICATION_PROTOCOL_DEFINITION ( 'international standard', 'config_control_design', 1994, #531 ) ;
#110 = FACE_OUTER_BOUND ( 'NONE', #187, .T. ) ;
#111 = DIRECTION ( 'NONE',  ( 0.000000000000000000, -0.000000000000000000, 1.000000000000000000 ) ) ;
#112 = PERSON_AND_ORGANIZATION ( #401, #40 ) ;
#113 = VECTOR ( 'NONE', #28, 1000.000000000000000 ) ;
#114 = ADVANCED_FACE ( 'NONE', ( #387 ), #21, .T. ) ;
#115 = CARTESIAN_POINT ( 'NONE',  ( 263.5000000000000000, 162.0000000000000000, -244.0000000000000000 ) ) ;
#116 = LINE ( 'NONE', #70, #441 ) ;
#117 = CARTESIAN_POINT ( 'NONE',  ( 0.000000000000000000, 85.00000000000000000, -10.00000000000000178 ) ) ;
#118 = DIRECTION ( 'NONE',  ( -0.000000000000000000, -1.000000000000000000, -0.000000000000000000 ) ) ;
#119 = ORIENTED_EDGE ( 'NONE', *, *, #135, .F. ) ;
#120 = APPROVAL_STATUS ( 'not_yet_approved' ) ;
#121 = CARTESIAN_POINT ( 'NONE',  ( 537.0000000000000000, 85.00000000000000000, 0.000000000000000000 ) ) ;
#122 = LINE ( 'NONE', #593, #229 ) ;
#123 = DIRECTION ( 'NONE',  ( -0.000000000000000000, -1.000000000000000000, -0.000000000000000000 ) ) ;
#124 = VECTOR ( 'NONE', #92, 1000.000000000000000 ) ;
#125 = VERTEX_POINT ( 'NONE', #167 ) ;
#126 = DIRECTION ( 'NONE',  ( -0.000000000000000000, -1.000000000000000000, -0.000000000000000000 ) ) ;
#127 = EDGE_LOOP ( 'NONE', ( #328, #510, #600, #467 ) ) ;
#128 = CARTESIAN_POINT ( 'NONE',  ( 263.5000000000000568, 162.0000000000000000, -10.00000000000000178 ) ) ;
#129 = EDGE_LOOP ( 'NONE', ( #326, #131, #133, #596 ) ) ;
#130 = DIRECTION ( 'NONE',  ( 0.000000000000000000, 1.000000000000000000, 0.000000000000000000 ) ) ;
#131 = ORIENTED_EDGE ( 'NONE', *, *, #411, .F. ) ;
#132 = CARTESIAN_POINT ( 'NONE',  ( 10.00000000000000888, 85.00000000000000000, -244.0000000000000000 ) ) ;
#133 = ORIENTED_EDGE ( 'NONE', *, *, #300, .F. ) ;
#134 = AXIS2_PLACEMENT_3D ( 'NONE', #519, #242, #571 ) ;
#135 = EDGE_CURVE ( 'NONE', #383, #370, #355, .T. ) ;
#136 = DIRECTION ( 'NONE',  ( -3.355364557015100528E-18, 0.000000000000000000, 1.000000000000000000 ) ) ;
#137 = VERTEX_POINT ( 'NONE', #342 ) ;
#138 = EDGE_CURVE ( 'NONE', #54, #137, #298, .T. ) ;
#139 = LINE ( 'NONE', #458, #225 ) ;
#140 = ORIENTED_EDGE ( 'NONE', *, *, #27, .F. ) ;
#141 = ADVANCED_FACE ( 'NONE', ( #15 ), #165, .F. ) ;
#142 = VECTOR ( 'NONE', #480, 1000.000000000000000 ) ;
#143 = ORIENTED_EDGE ( 'NONE', *, *, #23, .T. ) ;
#144 = CARTESIAN_POINT ( 'NONE',  ( 263.5000000000000000, 162.0000000000000000, -244.0000000000000000 ) ) ;
#145 = VERTEX_POINT ( 'NONE', #532 ) ;
#146 = LINE ( 'NONE', #5, #340 ) ;
#147 = LINE ( 'NONE', #115, #213 ) ;
#148 = EDGE_CURVE ( 'NONE', #181, #603, #538, .T. ) ;
#149 = ORIENTED_EDGE ( 'NONE', *, *, #42, .F. ) ;
#150 = VECTOR ( 'NONE', #395, 1000.000000000000000 ) ;
#151 = DIRECTION ( 'NONE',  ( 1.000000000000000000, 0.000000000000000000, 3.355364557015100528E-18 ) ) ;
#152 = LINE ( 'NONE', #235, #527 ) ;
#153 = CARTESIAN_POINT ( 'NONE',  ( 263.5000000000000000, 162.0000000000000000, -244.0000000000000000 ) ) ;
#154 = CARTESIAN_POINT ( 'NONE',  ( 0.000000000000000000, 0.000000000000000000, 0.000000000000000000 ) ) ;
#155 = EDGE_CURVE ( 'NONE', #567, #280, #578, .T. ) ;
#156 = EDGE_CURVE ( 'NONE', #432, #383, #437, .T. ) ;
#157 = DIRECTION ( 'NONE',  ( 1.000000000000000000, 0.000000000000000000, 0.000000000000000000 ) ) ;
#158 = CC_DESIGN_DATE_AND_TIME_ASSIGNMENT ( #430, #208, ( #287 ) ) ;
#159 = LINE ( 'NONE', #484, #33 ) ;
#160 = VECTOR ( 'NONE', #327, 1000.000000000000000 ) ;
#161 = DIRECTION ( 'NONE',  ( 0.000000000000000000, 0.000000000000000000, 1.000000000000000000 ) ) ;
#162 = VECTOR ( 'NONE', #353, 1000.000000000000000 ) ;
#163 = DIRECTION ( 'NONE',  ( -1.000000000000000000, 0.000000000000000000, 8.896017825522089339E-17 ) ) ;
#164 = DIRECTION ( 'NONE',  ( -0.000000000000000000, 0.000000000000000000, -1.000000000000000000 ) ) ;
#165 = PLANE ( 'NONE',  #546 ) ;
#166 = CARTESIAN_POINT ( 'NONE',  ( 273.5000000000000000, 162.0000000000000000, -244.0000000000000000 ) ) ;
#167 = CARTESIAN_POINT ( 'NONE',  ( 537.0000000000000000, 85.00000000000000000, -254.0000000000000000 ) ) ;
#168 = CARTESIAN_POINT ( 'NONE',  ( 263.5000000000000568, 162.0000000000000000, -10.00000000000000178 ) ) ;
#169 = ORIENTED_EDGE ( 'NONE', *, *, #325, .F. ) ;
#170 = CARTESIAN_POINT ( 'NONE',  ( 0.000000000000000000, 85.00000000000000000, 0.000000000000000000 ) ) ;
#171 = VERTEX_POINT ( 'NONE', #204 ) ;
#172 = CARTESIAN_POINT ( 'NONE',  ( 537.0000000000000000, 85.00000000000000000, 0.000000000000000000 ) ) ;
#173 = ORIENTED_EDGE ( 'NONE', *, *, #148, .F. ) ;
#174 = DIRECTION ( 'NONE',  ( -0.000000000000000000, -0.000000000000000000, -1.000000000000000000 ) ) ;
#175 = ORIENTED_EDGE ( 'NONE', *, *, #373, .T. ) ;
#176 = CARTESIAN_POINT ( 'NONE',  ( 10.00000000000003020, 10.00000000000000888, -10.00000000000000178 ) ) ;
#177 = ORIENTED_EDGE ( 'NONE', *, *, #508, .T. ) ;
#178 = VECTOR ( 'NONE', #20, 1000.000000000000000 ) ;
#179 = EDGE_CURVE ( 'NONE', #87, #181, #116, .T. ) ;
#180 = DIRECTION ( 'NONE',  ( 1.000000000000000000, -0.000000000000000000, 0.000000000000000000 ) ) ;
#181 = VERTEX_POINT ( 'NONE', #295 ) ;
#182 = APPROVAL ( #120, 'UNSPECIFIED' ) ;
#183 = VECTOR ( 'NONE', #377, 1000.000000000000000 ) ;
#184 = VECTOR ( 'NONE', #126, 1000.000000000000000 ) ;
#185 = DIRECTION ( 'NONE',  ( -0.000000000000000000, -0.000000000000000000, -1.000000000000000000 ) ) ;
#186 = ORIENTED_EDGE ( 'NONE', *, *, #283, .F. ) ;
#187 = EDGE_LOOP ( 'NONE', ( #49, #82, #233, #119 ) ) ;
#188 = EDGE_CURVE ( 'NONE', #224, #603, #526, .T. ) ;
#189 = ORIENTED_EDGE ( 'NONE', *, *, #88, .F. ) ;
#190 = LINE ( 'NONE', #350, #228 ) ;
#191 = EDGE_CURVE ( 'NONE', #432, #314, #74, .T. ) ;
#192 = LOCAL_TIME ( 7, 16, 54.00000000000000000, #296 ) ;
#193 = CARTESIAN_POINT ( 'NONE',  ( 537.0000000000000000, 85.00000000000000000, 0.000000000000000000 ) ) ;
#194 = CARTESIAN_POINT ( 'NONE',  ( 0.000000000000000000, 85.00000000000000000, -244.0000000000000000 ) ) ;
#195 = APPROVAL_DATE_TIME ( #573, #463 ) ;
#196 = AXIS2_PLACEMENT_3D ( 'NONE', #170, #359, #549 ) ;
#197 = EDGE_CURVE ( 'NONE', #137, #539, #481, .T. ) ;
#198 = CARTESIAN_POINT ( 'NONE',  ( 263.5000000000000568, 162.0000000000000000, -10.00000000000000178 ) ) ;
#199 = VECTOR ( 'NONE', #338, 1000.000000000000000 ) ;
#200 = CARTESIAN_POINT ( 'NONE',  ( 0.000000000000000000, 0.000000000000000000, -254.0000000000000000 ) ) ;
#201 = CARTESIAN_POINT ( 'NONE',  ( 0.000000000000000000, 0.000000000000000000, 0.000000000000000000 ) ) ;
#202 = SECURITY_CLASSIFICATION_LEVEL ( 'unclassified' ) ;
#203 = DIRECTION ( 'NONE',  ( 0.000000000000000000, 0.000000000000000000, 1.000000000000000000 ) ) ;
#204 = CARTESIAN_POINT ( 'NONE',  ( 0.000000000000000000, 0.000000000000000000, -254.0000000000000000 ) ) ;
#205 = CALENDAR_DATE ( 2026, 27, 7 ) ;
#206 = PLANE ( 'NONE',  #50 ) ;
#207 = DIRECTION ( 'NONE',  ( 1.000000000000000000, 0.000000000000000000, -0.000000000000000000 ) ) ;
#208 = DATE_TIME_ROLE ( 'creation_date' ) ;
#209 = FACE_OUTER_BOUND ( 'NONE', #464, .T. ) ;
#210 = DIRECTION ( 'NONE',  ( 0.000000000000000000, 1.000000000000000000, 0.000000000000000000 ) ) ;
#211 = EDGE_CURVE ( 'NONE', #44, #171, #255, .T. ) ;
#212 = ORIENTED_EDGE ( 'NONE', *, *, #76, .T. ) ;
#213 = VECTOR ( 'NONE', #331, 1000.000000000000000 ) ;
#214 = DIRECTION ( 'NONE',  ( -0.000000000000000000, -1.000000000000000000, -0.000000000000000000 ) ) ;
#215 = ORIENTED_EDGE ( 'NONE', *, *, #300, .T. ) ;
#216 = DIRECTION ( 'NONE',  ( 0.000000000000000000, 0.000000000000000000, -1.000000000000000000 ) ) ;
#217 = ADVANCED_FACE ( 'NONE', ( #440 ), #585, .F. ) ;
#218 = EDGE_LOOP ( 'NONE', ( #90, #489, #552, #449 ) ) ;
#219 = PLANE ( 'NONE',  #306 ) ;
#220 = ORIENTED_EDGE ( 'NONE', *, *, #188, .F. ) ;
#221 = PLANE ( 'NONE',  #332 ) ;
#222 = ORIENTED_EDGE ( 'NONE', *, *, #188, .T. ) ;
#223 = CARTESIAN_POINT ( 'NONE',  ( 263.5000000000000000, 162.0000000000000000, -244.0000000000000000 ) ) ;
#224 = VERTEX_POINT ( 'NONE', #154 ) ;
#225 = VECTOR ( 'NONE', #174, 1000.000000000000000 ) ;
#226 = EDGE_LOOP ( 'NONE', ( #175, #186, #418, #452, #351, #31 ) ) ;
#227 = FACE_OUTER_BOUND ( 'NONE', #47, .T. ) ;
#228 = VECTOR ( 'NONE', #491, 1000.000000000000000 ) ;
#229 = VECTOR ( 'NONE', #81, 1000.000000000000000 ) ;
#230 = VERTEX_POINT ( 'NONE', #291 ) ;
#231 = DIRECTION ( 'NONE',  ( -1.000000000000000000, 0.000000000000000000, -0.000000000000000000 ) ) ;
#232 = EDGE_CURVE ( 'NONE', #536, #280, #243, .T. ) ;
#233 = ORIENTED_EDGE ( 'NONE', *, *, #455, .F. ) ;
#234 = ADVANCED_FACE ( 'NONE', ( #369 ), #259, .F. ) ;
#235 = CARTESIAN_POINT ( 'NONE',  ( 10.00000000000000888, 85.00000000000000000, -244.0000000000000000 ) ) ;
#236 = LINE ( 'NONE', #7, #560 ) ;
#237 = EDGE_CURVE ( 'NONE', #408, #84, #266, .T. ) ;
#238 = ORIENTED_EDGE ( 'NONE', *, *, #413, .T. ) ;
#239 = PERSON_AND_ORGANIZATION ( #401, #40 ) ;
#240 = DIRECTION ( 'NONE',  ( -0.000000000000000000, 1.000000000000000000, -0.000000000000000000 ) ) ;
#241 = CARTESIAN_POINT ( 'NONE',  ( 527.0000000000000000, 85.00000000000000000, -10.00000000000000000 ) ) ;
#242 = DIRECTION ( 'NONE',  ( 0.000000000000000000, 0.000000000000000000, -1.000000000000000000 ) ) ;
#243 = LINE ( 'NONE', #434, #253 ) ;
#244 = MECHANICAL_CONTEXT ( 'NONE', #576, 'mechanical' ) ;
#245 = FACE_OUTER_BOUND ( 'NONE', #513, .T. ) ;
#246 = CARTESIAN_POINT ( 'NONE',  ( 0.000000000000000000, 162.0000000000000000, 0.000000000000000000 ) ) ;
#247 = COORDINATED_UNIVERSAL_TIME_OFFSET ( 8, 0, .BEHIND. ) ;
#248 = CARTESIAN_POINT ( 'NONE',  ( 273.5000000000000000, 162.0000000000000000, -244.0000000000000000 ) ) ;
#249 = LOCAL_TIME ( 7, 16, 54.00000000000000000, #334 ) ;
#250 = DIRECTION ( 'NONE',  ( -1.000000000000000000, -0.000000000000000000, -0.000000000000000000 ) ) ;
#251 = APPROVAL_ROLE ( '' ) ;
#252 = ADVANCED_FACE ( 'NONE', ( #601 ), #506, .F. ) ;
#253 = VECTOR ( 'NONE', #288, 1000.000000000000000 ) ;
#254 = LINE ( 'NONE', #446, #184 ) ;
#255 = LINE ( 'NONE', #583, #11 ) ;
#256 = PLANE ( 'NONE',  #451 ) ;
#257 = EDGE_CURVE ( 'NONE', #125, #44, #30, .T. ) ;
#258 = EDGE_LOOP ( 'NONE', ( #556, #238, #270, #149 ) ) ;
#259 = PLANE ( 'NONE',  #356 ) ;
#260 = DIRECTION ( 'NONE',  ( 0.000000000000000000, -0.000000000000000000, 1.000000000000000000 ) ) ;
#261 = ADVANCED_FACE ( 'NONE', ( #365 ), #221, .F. ) ;
#262 = VECTOR ( 'NONE', #279, 1000.000000000000000 ) ;
#263 = PRODUCT_RELATED_PRODUCT_CATEGORY ( 'detail', '', ( #516 ) ) ;
#264 = VERTEX_POINT ( 'NONE', #83 ) ;
#265 = AXIS2_PLACEMENT_3D ( 'NONE', #394, #405, #497 ) ;
#266 = LINE ( 'NONE', #176, #416 ) ;
#267 = ORIENTED_EDGE ( 'NONE', *, *, #191, .F. ) ;
#268 = CARTESIAN_POINT ( 'NONE',  ( 10.00000000000000888, 10.00000000000000888, -244.0000000000000000 ) ) ;
#269 = LINE ( 'NONE', #37, #96 ) ;
#270 = ORIENTED_EDGE ( 'NONE', *, *, #563, .F. ) ;
#271 = CARTESIAN_POINT ( 'NONE',  ( 10.00000000000000888, 10.00000000000000888, -244.0000000000000000 ) ) ;
#272 = EDGE_LOOP ( 'NONE', ( #108, #177, #520, #606 ) ) ;
#273 = APPROVAL_PERSON_ORGANIZATION ( #24, #182, #251 ) ;
#274 = LINE ( 'NONE', #310, #462 ) ;
#275 = VERTEX_POINT ( 'NONE', #453 ) ;
#276 = AXIS2_PLACEMENT_3D ( 'NONE', #543, #444, #164 ) ;
#277 = VECTOR ( 'NONE', #123, 1000.000000000000000 ) ;
#278 = ORIENTED_EDGE ( 'NONE', *, *, #592, .T. ) ;
#279 = DIRECTION ( 'NONE',  ( 1.000000000000000000, 0.000000000000000000, 0.000000000000000000 ) ) ;
#280 = VERTEX_POINT ( 'NONE', #89 ) ;
#281 = CARTESIAN_POINT ( 'NONE',  ( 0.000000000000000000, 85.00000000000000000, -254.0000000000000000 ) ) ;
#282 = CARTESIAN_POINT ( 'NONE',  ( 10.00000000000003020, 10.00000000000000888, -10.00000000000000178 ) ) ;
#283 = EDGE_CURVE ( 'NONE', #280, #84, #409, .T. ) ;
#284 = LINE ( 'NONE', #194, #183 ) ;
#285 = APPROVAL_DATE_TIME ( #72, #182 ) ;
#286 = DIRECTION ( 'NONE',  ( 0.000000000000000000, 0.000000000000000000, -1.000000000000000000 ) ) ;
#287 = PRODUCT_DEFINITION ( 'UNKNOWN', '', #93, #104 ) ;
#288 = DIRECTION ( 'NONE',  ( 1.000000000000000000, 0.000000000000000000, 3.355364557015100528E-18 ) ) ;
#289 = PERSON_AND_ORGANIZATION ( #401, #40 ) ;
#290 = CARTESIAN_POINT ( 'NONE',  ( 10.00000000000000888, 10.00000000000000888, -244.0000000000000000 ) ) ;
#291 = CARTESIAN_POINT ( 'NONE',  ( 273.5000000000000000, 10.00000000000000888, -244.0000000000000000 ) ) ;
#292 = VECTOR ( 'NONE', #337, 1000.000000000000000 ) ;
#293 = PERSON_AND_ORGANIZATION ( #401, #40 ) ;
#294 = LINE ( 'NONE', #431, #292 ) ;
#295 = CARTESIAN_POINT ( 'NONE',  ( 537.0000000000000000, 85.00000000000000000, 0.000000000000000000 ) ) ;
#296 = COORDINATED_UNIVERSAL_TIME_OFFSET ( 8, 0, .BEHIND. ) ;
#297 = FACE_OUTER_BOUND ( 'NONE', #258, .T. ) ;
#298 = LINE ( 'NONE', #345, #199 ) ;
#299 = ORIENTED_EDGE ( 'NONE', *, *, #95, .F. ) ;
#300 = EDGE_CURVE ( 'NONE', #370, #408, #363, .T. ) ;
#301 = DATE_TIME_ROLE ( 'classification_date' ) ;
#302 = DIRECTION ( 'NONE',  ( -1.000000000000000000, 0.000000000000000000, 0.000000000000000000 ) ) ;
#303 = APPROVAL_PERSON_ORGANIZATION ( #239, #463, #13 ) ;
#304 = CARTESIAN_POINT ( 'NONE',  ( 263.5000000000000568, 162.0000000000000000, -10.00000000000000178 ) ) ;
#305 = EDGE_CURVE ( 'NONE', #264, #501, #139, .T. ) ;
#306 = AXIS2_PLACEMENT_3D ( 'NONE', #558, #407, #323 ) ;
#307 = FACE_OUTER_BOUND ( 'NONE', #415, .T. ) ;
#308 = ADVANCED_FACE ( 'NONE', ( #39 ), #219, .T. ) ;
#309 = ORIENTED_EDGE ( 'NONE', *, *, #325, .T. ) ;
#310 = CARTESIAN_POINT ( 'NONE',  ( 273.5000000000000000, 162.0000000000000000, -244.0000000000000000 ) ) ;
#311 = CARTESIAN_POINT ( 'NONE',  ( 10.00000000000003020, 85.00000000000000000, -10.00000000000000178 ) ) ;
#312 = EDGE_LOOP ( 'NONE', ( #429, #366, #406, #321 ) ) ;
#313 = DIRECTION ( 'NONE',  ( 1.000000000000000000, 0.000000000000000000, 3.355364557015100528E-18 ) ) ;
#314 = VERTEX_POINT ( 'NONE', #132 ) ;
#315 = LINE ( 'NONE', #502, #113 ) ;
#316 = AXIS2_PLACEMENT_3D ( 'NONE', #246, #210, #111 ) ;
#317 = AXIS2_PLACEMENT_3D ( 'NONE', #198, #487, #69 ) ;
#318 = CARTESIAN_POINT ( 'NONE',  ( 0.000000000000000000, 0.000000000000000000, 0.000000000000000000 ) ) ;
#319 = ORIENTED_EDGE ( 'NONE', *, *, #322, .F. ) ;
#320 = DIRECTION ( 'NONE',  ( -2.372271420139223824E-16, 0.000000000000000000, -1.000000000000000000 ) ) ;
#321 = ORIENTED_EDGE ( 'NONE', *, *, #88, .T. ) ;
#322 = EDGE_CURVE ( 'NONE', #87, #224, #509, .T. ) ;
#323 = DIRECTION ( 'NONE',  ( 0.000000000000000000, -0.000000000000000000, 1.000000000000000000 ) ) ;
#324 = ORIENTED_EDGE ( 'NONE', *, *, #371, .T. ) ;
#325 = EDGE_CURVE ( 'NONE', #171, #224, #553, .T. ) ;
#326 = ORIENTED_EDGE ( 'NONE', *, *, #27, .T. ) ;
#327 = DIRECTION ( 'NONE',  ( -1.000000000000000000, -0.000000000000000000, -0.000000000000000000 ) ) ;
#328 = ORIENTED_EDGE ( 'NONE', *, *, #283, .T. ) ;
#329 = CC_DESIGN_APPROVAL ( #463, ( #602 ) ) ;
#330 = CARTESIAN_POINT ( 'NONE',  ( 263.5000000000000568, 10.00000000000000888, -10.00000000000000178 ) ) ;
#331 = DIRECTION ( 'NONE',  ( -0.000000000000000000, -1.000000000000000000, -0.000000000000000000 ) ) ;
#332 = AXIS2_PLACEMENT_3D ( 'NONE', #555, #136, #499 ) ;
#333 = LINE ( 'NONE', #105, #389 ) ;
#334 = COORDINATED_UNIVERSAL_TIME_OFFSET ( 8, 0, .BEHIND. ) ;
#335 = FACE_OUTER_BOUND ( 'NONE', #129, .T. ) ;
#336 = LINE ( 'NONE', #524, #607 ) ;
#337 = DIRECTION ( 'NONE',  ( -0.000000000000000000, 1.000000000000000000, -0.000000000000000000 ) ) ;
#338 = DIRECTION ( 'NONE',  ( 1.000000000000000000, 0.000000000000000000, 3.355364557015100528E-18 ) ) ;
#339 = APPROVAL_DATE_TIME ( #16, #357 ) ;
#340 = VECTOR ( 'NONE', #185, 1000.000000000000000 ) ;
#341 = PLANE ( 'NONE',  #400 ) ;
#342 = CARTESIAN_POINT ( 'NONE',  ( 527.0000000000000000, 10.00000000000000888, -10.00000000000000000 ) ) ;
#343 = PERSON_AND_ORGANIZATION ( #401, #40 ) ;
#344 = LINE ( 'NONE', #193, #102 ) ;
#345 = CARTESIAN_POINT ( 'NONE',  ( 10.00000000000003020, 10.00000000000000888, -10.00000000000000178 ) ) ;
#346 = EDGE_CURVE ( 'NONE', #501, #598, #274, .T. ) ;
#347 = PERSON_AND_ORGANIZATION_ROLE ( 'creator' ) ;
#348 = ADVANCED_FACE ( 'NONE', ( #80, #86 ), #456, .F. ) ;
#349 = DIRECTION ( 'NONE',  ( 0.000000000000000000, -0.000000000000000000, -1.000000000000000000 ) ) ;
#350 = CARTESIAN_POINT ( 'NONE',  ( 10.00000000000000888, 85.00000000000000000, -244.0000000000000000 ) ) ;
#351 = ORIENTED_EDGE ( 'NONE', *, *, #469, .T. ) ;
#352 = EDGE_CURVE ( 'NONE', #603, #145, #269, .T. ) ;
#353 = DIRECTION ( 'NONE',  ( -0.000000000000000000, -1.000000000000000000, -0.000000000000000000 ) ) ;
#354 = CC_DESIGN_APPROVAL ( #182, ( #93 ) ) ;
#355 = LINE ( 'NONE', #18, #48 ) ;
#356 = AXIS2_PLACEMENT_3D ( 'NONE', #35, #180, #605 ) ;
#357 = APPROVAL ( #477, 'UNSPECIFIED' ) ;
#358 = EDGE_LOOP ( 'NONE', ( #278, #29, #461, #498 ) ) ;
#359 = DIRECTION ( 'NONE',  ( 0.000000000000000000, -1.000000000000000000, 0.000000000000000000 ) ) ;
#360 = ORIENTED_EDGE ( 'NONE', *, *, #508, .F. ) ;
#361 = PLANE ( 'NONE',  #374 ) ;
#362 = ORIENTED_EDGE ( 'NONE', *, *, #179, .F. ) ;
#363 = LINE ( 'NONE', #271, #43 ) ;
#364 = ORIENTED_EDGE ( 'NONE', *, *, #569, .F. ) ;
#365 = FACE_OUTER_BOUND ( 'NONE', #272, .T. ) ;
#366 = ORIENTED_EDGE ( 'NONE', *, *, #42, .T. ) ;
#367 = AXIS2_PLACEMENT_3D ( 'NONE', #248, #17, #203 ) ;
#368 = ADVANCED_FACE ( 'NONE', ( #522 ), #530, .F. ) ;
#369 = FACE_OUTER_BOUND ( 'NONE', #515, .T. ) ;
#370 = VERTEX_POINT ( 'NONE', #103 ) ;
#371 = EDGE_CURVE ( 'NONE', #181, #125, #344, .T. ) ;
#372 = CLOSED_SHELL ( 'NONE', ( #471, #587, #460, #261, #518, #308, #234, #68, #548, #589, #348, #523, #396, #217, #426, #141, #252, #368, #114 ) ) ;
#373 = EDGE_CURVE ( 'NONE', #383, #84, #107, .T. ) ;
#374 = AXIS2_PLACEMENT_3D ( 'NONE', #551, #130, #260 ) ;
#375 = ORIENTED_EDGE ( 'NONE', *, *, #475, .F. ) ;
#376 = ORIENTED_EDGE ( 'NONE', *, *, #352, .T. ) ;
#377 = DIRECTION ( 'NONE',  ( -1.000000000000000000, 0.000000000000000000, 0.000000000000000000 ) ) ;
#378 = ORIENTED_EDGE ( 'NONE', *, *, #148, .T. ) ;
#379 = LOCAL_TIME ( 7, 16, 54.00000000000000000, #247 ) ;
#380 = PLANE ( 'NONE',  #579 ) ;
#381 = DIRECTION ( 'NONE',  ( 1.000000000000000000, 0.000000000000000000, 3.355364557015100528E-18 ) ) ;
#382 = VECTOR ( 'NONE', #595, 1000.000000000000000 ) ;
#383 = VERTEX_POINT ( 'NONE', #55 ) ;
#384 = DATE_AND_TIME ( #580, #412 ) ;
#385 = CARTESIAN_POINT ( 'NONE',  ( 10.00000000000003020, 10.00000000000000888, -10.00000000000000178 ) ) ;
#386 = CARTESIAN_POINT ( 'NONE',  ( 273.5000000000000000, 162.0000000000000000, -244.0000000000000000 ) ) ;
#387 = FACE_OUTER_BOUND ( 'NONE', #312, .T. ) ;
#388 = APPLICATION_PROTOCOL_DEFINITION ( 'international standard', 'config_control_design', 1994, #576 ) ;
#389 = VECTOR ( 'NONE', #9, 1000.000000000000000 ) ;
#390 = DIRECTION ( 'NONE',  ( 1.000000000000000000, 0.000000000000000000, 0.000000000000000000 ) ) ;
#391 = CARTESIAN_POINT ( 'NONE',  ( 527.0000000000000000, 10.00000000000000888, -244.0000000000000000 ) ) ;
#392 = VECTOR ( 'NONE', #390, 1000.000000000000000 ) ;
#393 = COORDINATED_UNIVERSAL_TIME_OFFSET ( 8, 0, .BEHIND. ) ;
#394 = CARTESIAN_POINT ( 'NONE',  ( 0.000000000000000000, 85.00000000000000000, -254.0000000000000000 ) ) ;
#395 = DIRECTION ( 'NONE',  ( -0.000000000000000000, -0.000000000000000000, -1.000000000000000000 ) ) ;
#396 = ADVANCED_FACE ( 'NONE', ( #335 ), #341, .F. ) ;
#397 = FACE_OUTER_BOUND ( 'NONE', #495, .T. ) ;
#398 = DIRECTION ( 'NONE',  ( -0.000000000000000000, -1.000000000000000000, -0.000000000000000000 ) ) ;
#399 =( LENGTH_UNIT ( ) NAMED_UNIT ( * ) SI_UNIT ( .MILLI., .METRE. ) );
#400 = AXIS2_PLACEMENT_3D ( 'NONE', #290, #163, #474 ) ;
#401 = PERSON ( 'UNSPECIFIED', 'UNSPECIFIED', 'UNSPECIFIED', ('UNSPECIFIED'), ('UNSPECIFIED'), ('UNSPECIFIED') ) ;
#402 = ORIENTED_EDGE ( 'NONE', *, *, #592, .F. ) ;
#403 = DIRECTION ( 'NONE',  ( 8.896017825522090571E-17, 0.000000000000000000, 1.000000000000000000 ) ) ;
#404 = ORIENTED_EDGE ( 'NONE', *, *, #211, .F. ) ;
#405 = DIRECTION ( 'NONE',  ( 0.000000000000000000, 0.000000000000000000, 1.000000000000000000 ) ) ;
#406 = ORIENTED_EDGE ( 'NONE', *, *, #305, .T. ) ;
#407 = DIRECTION ( 'NONE',  ( 0.000000000000000000, 1.000000000000000000, 0.000000000000000000 ) ) ;
#408 = VERTEX_POINT ( 'NONE', #282 ) ;
#409 = LINE ( 'NONE', #128, #604 ) ;
#410 = EDGE_LOOP ( 'NONE', ( #457, #140, #267, #505, #299, #4, #360, #564 ) ) ;
#411 = EDGE_CURVE ( 'NONE', #408, #536, #12, .T. ) ;
#412 = LOCAL_TIME ( 7, 16, 54.00000000000000000, #442 ) ;
#413 = EDGE_CURVE ( 'NONE', #280, #275, #439, .T. ) ;
#414 = DIRECTION ( 'NONE',  ( 1.000000000000000000, 0.000000000000000000, -2.372271420139223824E-16 ) ) ;
#415 = EDGE_LOOP ( 'NONE', ( #511, #404, #22, #547 ) ) ;
#416 = VECTOR ( 'NONE', #313, 1000.000000000000000 ) ;
#417 = EDGE_CURVE ( 'NONE', #539, #465, #294, .T. ) ;
#418 = ORIENTED_EDGE ( 'NONE', *, *, #155, .F. ) ;
#419 = VECTOR ( 'NONE', #1, 1000.000000000000000 ) ;
#420 = LINE ( 'NONE', #98, #262 ) ;
#421 = AXIS2_PLACEMENT_3D ( 'NONE', #450, #490, #349 ) ;
#422 = ORIENTED_EDGE ( 'NONE', *, *, #46, .T. ) ;
#423 = ORIENTED_EDGE ( 'NONE', *, *, #373, .F. ) ;
#424 = ORIENTED_EDGE ( 'NONE', *, *, #563, .T. ) ;
#425 = CARTESIAN_POINT ( 'NONE',  ( 527.0000000000000000, 10.00000000000000888, -10.00000000000000000 ) ) ;
#426 = ADVANCED_FACE ( 'NONE', ( #297 ), #470, .F. ) ;
#427 = DIRECTION ( 'NONE',  ( 0.000000000000000000, 0.000000000000000000, -1.000000000000000000 ) ) ;
#428 = AXIS2_PLACEMENT_3D ( 'NONE', #65, #528, #157 ) ;
#429 = ORIENTED_EDGE ( 'NONE', *, *, #540, .T. ) ;
#430 = DATE_AND_TIME ( #61, #541 ) ;
#431 = CARTESIAN_POINT ( 'NONE',  ( 527.0000000000000000, 10.00000000000000888, -244.0000000000000000 ) ) ;
#432 = VERTEX_POINT ( 'NONE', #436 ) ;
#433 = DIRECTION ( 'NONE',  ( -1.000000000000000000, -0.000000000000000000, -0.000000000000000000 ) ) ;
#434 = CARTESIAN_POINT ( 'NONE',  ( 10.00000000000003020, 85.00000000000000000, -10.00000000000000178 ) ) ;
#435 = SHAPE_DEFINITION_REPRESENTATION ( #62, #6 ) ;
#436 = CARTESIAN_POINT ( 'NONE',  ( 263.5000000000000000, 85.00000000000000000, -244.0000000000000000 ) ) ;
#437 = LINE ( 'NONE', #488, #517 ) ;
#438 = CC_DESIGN_SECURITY_CLASSIFICATION ( #602, ( #93 ) ) ;
#439 = LINE ( 'NONE', #117, #392 ) ;
#440 = FACE_OUTER_BOUND ( 'NONE', #218, .T. ) ;
#441 = VECTOR ( 'NONE', #485, 1000.000000000000000 ) ;
#442 = COORDINATED_UNIVERSAL_TIME_OFFSET ( 8, 0, .BEHIND. ) ;
#443 = FACE_OUTER_BOUND ( 'NONE', #358, .T. ) ;
#444 = DIRECTION ( 'NONE',  ( 1.000000000000000000, 0.000000000000000000, -0.000000000000000000 ) ) ;
#445 = CC_DESIGN_PERSON_AND_ORGANIZATION_ASSIGNMENT ( #588, #584, ( #602 ) ) ;
#446 = CARTESIAN_POINT ( 'NONE',  ( 537.0000000000000000, 85.00000000000000000, -254.0000000000000000 ) ) ;
#447 = VERTEX_POINT ( 'NONE', #153 ) ;
#448 = CARTESIAN_POINT ( 'NONE',  ( 0.000000000000000000, 85.00000000000000000, -254.0000000000000000 ) ) ;
#449 = ORIENTED_EDGE ( 'NONE', *, *, #91, .T. ) ;
#450 = CARTESIAN_POINT ( 'NONE',  ( 0.000000000000000000, 0.000000000000000000, 0.000000000000000000 ) ) ;
#451 = AXIS2_PLACEMENT_3D ( 'NONE', #172, #302, #85 ) ;
#452 = ORIENTED_EDGE ( 'NONE', *, *, #540, .F. ) ;
#453 = CARTESIAN_POINT ( 'NONE',  ( 273.5000000000000000, 85.00000000000000000, -10.00000000000000178 ) ) ;
#454 = ORIENTED_EDGE ( 'NONE', *, *, #305, .F. ) ;
#455 = EDGE_CURVE ( 'NONE', #370, #314, #59, .T. ) ;
#456 = PLANE ( 'NONE',  #196 ) ;
#457 = ORIENTED_EDGE ( 'NONE', *, *, #232, .F. ) ;
#458 = CARTESIAN_POINT ( 'NONE',  ( 273.5000000000000000, 162.0000000000000000, -244.0000000000000000 ) ) ;
#459 = EDGE_LOOP ( 'NONE', ( #594, #100, #324, #79 ) ) ;
#460 = ADVANCED_FACE ( 'NONE', ( #575 ), #206, .F. ) ;
#461 = ORIENTED_EDGE ( 'NONE', *, *, #417, .T. ) ;
#462 = VECTOR ( 'NONE', #496, 1000.000000000000000 ) ;
#463 = APPROVAL ( #473, 'UNSPECIFIED' ) ;
#464 = EDGE_LOOP ( 'NONE', ( #169, #375, #57, #220 ) ) ;
#465 = VERTEX_POINT ( 'NONE', #577 ) ;
#466 = DIRECTION ( 'NONE',  ( -0.000000000000000000, 1.000000000000000000, -0.000000000000000000 ) ) ;
#467 = ORIENTED_EDGE ( 'NONE', *, *, #232, .T. ) ;
#468 = LINE ( 'NONE', #425, #500 ) ;
#469 = EDGE_CURVE ( 'NONE', #447, #432, #147, .T. ) ;
#470 = PLANE ( 'NONE',  #317 ) ;
#471 = ADVANCED_FACE ( 'NONE', ( #110 ), #63, .F. ) ;
#472 = LINE ( 'NONE', #512, #419 ) ;
#473 = APPROVAL_STATUS ( 'not_yet_approved' ) ;
#474 = DIRECTION ( 'NONE',  ( 8.896017825522089339E-17, 0.000000000000000000, 1.000000000000000000 ) ) ;
#475 = EDGE_CURVE ( 'NONE', #145, #171, #582, .T. ) ;
#476 = CARTESIAN_POINT ( 'NONE',  ( 273.5000000000000000, 10.00000000000000888, -10.00000000000000000 ) ) ;
#477 = APPROVAL_STATUS ( 'not_yet_approved' ) ;
#478 = MANIFOLD_SOLID_BREP ( 'Boss-Extrude2', #372 ) ;
#479 = VECTOR ( 'NONE', #240, 1000.000000000000000 ) ;
#480 = DIRECTION ( 'NONE',  ( -0.000000000000000000, 1.000000000000000000, -0.000000000000000000 ) ) ;
#481 = LINE ( 'NONE', #391, #150 ) ;
#482 = CC_DESIGN_PERSON_AND_ORGANIZATION_ASSIGNMENT ( #106, #486, ( #93 ) ) ;
#483 = APPROVAL_ROLE ( '' ) ;
#484 = CARTESIAN_POINT ( 'NONE',  ( 10.00000000000000888, 10.00000000000000888, -244.0000000000000000 ) ) ;
#485 = DIRECTION ( 'NONE',  ( 1.000000000000000000, 0.000000000000000000, 0.000000000000000000 ) ) ;
#486 = PERSON_AND_ORGANIZATION_ROLE ( 'creator' ) ;
#487 = DIRECTION ( 'NONE',  ( 0.000000000000000000, 0.000000000000000000, -1.000000000000000000 ) ) ;
#488 = CARTESIAN_POINT ( 'NONE',  ( 263.5000000000000000, 162.0000000000000000, -244.0000000000000000 ) ) ;
#489 = ORIENTED_EDGE ( 'NONE', *, *, #417, .F. ) ;
#490 = DIRECTION ( 'NONE',  ( 0.000000000000000000, -1.000000000000000000, 0.000000000000000000 ) ) ;
#491 = DIRECTION ( 'NONE',  ( -1.000000000000000000, -0.000000000000000000, -0.000000000000000000 ) ) ;
#492 = AXIS2_PLACEMENT_3D ( 'NONE', #223, #414, #320 ) ;
#493 = LINE ( 'NONE', #166, #162 ) ;
#494 = VECTOR ( 'NONE', #118, 1000.000000000000000 ) ;
#495 = EDGE_LOOP ( 'NONE', ( #376, #364, #34, #378 ) ) ;
#496 = DIRECTION ( 'NONE',  ( -0.000000000000000000, -1.000000000000000000, -0.000000000000000000 ) ) ;
#497 = DIRECTION ( 'NONE',  ( 1.000000000000000000, 0.000000000000000000, -0.000000000000000000 ) ) ;
#498 = ORIENTED_EDGE ( 'NONE', *, *, #95, .T. ) ;
#499 = DIRECTION ( 'NONE',  ( 1.000000000000000000, 0.000000000000000000, 3.355364557015100528E-18 ) ) ;
#500 = VECTOR ( 'NONE', #466, 1000.000000000000000 ) ;
#501 = VERTEX_POINT ( 'NONE', #386 ) ;
#502 = CARTESIAN_POINT ( 'NONE',  ( 263.5000000000000000, 162.0000000000000000, -244.0000000000000000 ) ) ;
#503 = VECTOR ( 'NONE', #433, 1000.000000000000000 ) ;
#504 = DIRECTION ( 'NONE',  ( -1.000000000000000000, -0.000000000000000000, -0.000000000000000000 ) ) ;
#505 = ORIENTED_EDGE ( 'NONE', *, *, #23, .F. ) ;
#506 = PLANE ( 'NONE',  #492 ) ;
#507 = ORIENTED_EDGE ( 'NONE', *, *, #346, .T. ) ;
#508 = EDGE_CURVE ( 'NONE', #275, #71, #236, .T. ) ;
#509 = LINE ( 'NONE', #599, #382 ) ;
#510 = ORIENTED_EDGE ( 'NONE', *, *, #237, .F. ) ;
#511 = ORIENTED_EDGE ( 'NONE', *, *, #475, .T. ) ;
#512 = CARTESIAN_POINT ( 'NONE',  ( 273.5000000000000000, 162.0000000000000000, -10.00000000000000178 ) ) ;
#513 = EDGE_LOOP ( 'NONE', ( #559, #423, #52, #215 ) ) ;
#514 = EDGE_CURVE ( 'NONE', #539, #230, #159, .T. ) ;
#515 = EDGE_LOOP ( 'NONE', ( #309, #319, #2, #586 ) ) ;
#516 = PRODUCT ( 'Box', 'Box', '', ( #244 ) ) ;
#517 = VECTOR ( 'NONE', #591, 1000.000000000000000 ) ;
#518 = ADVANCED_FACE ( 'NONE', ( #245 ), #361, .T. ) ;
#519 = CARTESIAN_POINT ( 'NONE',  ( 10.00000000000000888, 10.00000000000000888, -244.0000000000000000 ) ) ;
#520 = ORIENTED_EDGE ( 'NONE', *, *, #91, .F. ) ;
#521 = CALENDAR_DATE ( 2026, 27, 7 ) ;
#522 = FACE_OUTER_BOUND ( 'NONE', #550, .T. ) ;
#523 = ADVANCED_FACE ( 'NONE', ( #209 ), #73, .T. ) ;
#524 = CARTESIAN_POINT ( 'NONE',  ( 0.000000000000000000, 85.00000000000000000, 0.000000000000000000 ) ) ;
#525 = CARTESIAN_POINT ( 'NONE',  ( 10.00000000000003020, 10.00000000000000888, -10.00000000000000178 ) ) ;
#526 = LINE ( 'NONE', #201, #570 ) ;
#527 = VECTOR ( 'NONE', #572, 1000.000000000000000 ) ;
#528 = DIRECTION ( 'NONE',  ( 0.000000000000000000, 0.000000000000000000, 1.000000000000000000 ) ) ;
#529 = AXIS2_PLACEMENT_3D ( 'NONE', #268, #216, #542 ) ;
#530 = PLANE ( 'NONE',  #367 ) ;
#531 = APPLICATION_CONTEXT ( 'configuration controlled 3d designs of mechanical parts and assemblies' ) ;
#532 = CARTESIAN_POINT ( 'NONE',  ( 537.0000000000000000, 0.000000000000000000, -254.0000000000000000 ) ) ;
#533 =( NAMED_UNIT ( * ) SI_UNIT ( $, .STERADIAN. ) SOLID_ANGLE_UNIT ( ) );
#534 = CARTESIAN_POINT ( 'NONE',  ( 263.5000000000000000, 10.00000000000000888, -244.0000000000000000 ) ) ;
#535 = CARTESIAN_POINT ( 'NONE',  ( 10.00000000000000888, 85.00000000000000000, -244.0000000000000000 ) ) ;
#536 = VERTEX_POINT ( 'NONE', #311 ) ;
#537 = CALENDAR_DATE ( 2026, 27, 7 ) ;
#538 = LINE ( 'NONE', #121, #277 ) ;
#539 = VERTEX_POINT ( 'NONE', #32 ) ;
#540 = EDGE_CURVE ( 'NONE', #447, #567, #315, .T. ) ;
#541 = LOCAL_TIME ( 7, 16, 54.00000000000000000, #393 ) ;
#542 = DIRECTION ( 'NONE',  ( -1.000000000000000000, 0.000000000000000000, -0.000000000000000000 ) ) ;
#543 = CARTESIAN_POINT ( 'NONE',  ( 527.0000000000000000, 10.00000000000000888, -244.0000000000000000 ) ) ;
#544 = VECTOR ( 'NONE', #250, 1000.000000000000000 ) ;
#545 =( NAMED_UNIT ( * ) PLANE_ANGLE_UNIT ( ) SI_UNIT ( $, .RADIAN. ) );
#546 = AXIS2_PLACEMENT_3D ( 'NONE', #64, #161, #207 ) ;
#547 = ORIENTED_EDGE ( 'NONE', *, *, #569, .T. ) ;
#548 = ADVANCED_FACE ( 'NONE', ( #397 ), #256, .F. ) ;
#549 = DIRECTION ( 'NONE',  ( 0.000000000000000000, -0.000000000000000000, -1.000000000000000000 ) ) ;
#550 = EDGE_LOOP ( 'NONE', ( #422, #402, #41, #454, #424, #212 ) ) ;
#551 = CARTESIAN_POINT ( 'NONE',  ( 0.000000000000000000, 10.00000000000000888, 0.000000000000000000 ) ) ;
#552 = ORIENTED_EDGE ( 'NONE', *, *, #197, .F. ) ;
#553 = LINE ( 'NONE', #318, #124 ) ;
#554 = ORIENTED_EDGE ( 'NONE', *, *, #138, .T. ) ;
#555 = CARTESIAN_POINT ( 'NONE',  ( 10.00000000000003020, 10.00000000000000888, -10.00000000000000178 ) ) ;
#556 = ORIENTED_EDGE ( 'NONE', *, *, #155, .T. ) ;
#557 = CC_DESIGN_PERSON_AND_ORGANIZATION_ASSIGNMENT ( #112, #10, ( #93 ) ) ;
#558 = CARTESIAN_POINT ( 'NONE',  ( 0.000000000000000000, 10.00000000000000888, 0.000000000000000000 ) ) ;
#559 = ORIENTED_EDGE ( 'NONE', *, *, #237, .T. ) ;
#560 = VECTOR ( 'NONE', #381, 1000.000000000000000 ) ;
#561 = ORIENTED_EDGE ( 'NONE', *, *, #197, .T. ) ;
#562 = LINE ( 'NONE', #144, #160 ) ;
#563 = EDGE_CURVE ( 'NONE', #264, #275, #122, .T. ) ;
#564 = ORIENTED_EDGE ( 'NONE', *, *, #413, .F. ) ;
#565 = DIRECTION ( 'NONE',  ( -0.000000000000000000, -0.000000000000000000, 1.000000000000000000 ) ) ;
#566 = DIRECTION ( 'NONE',  ( -3.355364557015100528E-18, 0.000000000000000000, 1.000000000000000000 ) ) ;
#567 = VERTEX_POINT ( 'NONE', #168 ) ;
#568 = DIRECTION ( 'NONE',  ( 0.000000000000000000, 0.000000000000000000, -1.000000000000000000 ) ) ;
#569 = EDGE_CURVE ( 'NONE', #125, #145, #254, .T. ) ;
#570 = VECTOR ( 'NONE', #67, 1000.000000000000000 ) ;
#571 = DIRECTION ( 'NONE',  ( -1.000000000000000000, 0.000000000000000000, -0.000000000000000000 ) ) ;
#572 = DIRECTION ( 'NONE',  ( 8.896017825522090571E-17, 0.000000000000000000, 1.000000000000000000 ) ) ;
#573 = DATE_AND_TIME ( #521, #249 ) ;
#574 = CC_DESIGN_DATE_AND_TIME_ASSIGNMENT ( #384, #301, ( #602 ) ) ;
#575 = FACE_OUTER_BOUND ( 'NONE', #127, .T. ) ;
#576 = APPLICATION_CONTEXT ( 'configuration controlled 3d designs of mechanical parts and assemblies' ) ;
#577 = CARTESIAN_POINT ( 'NONE',  ( 527.0000000000000000, 85.00000000000000000, -244.0000000000000000 ) ) ;
#578 = LINE ( 'NONE', #304, #494 ) ;
#579 = AXIS2_PLACEMENT_3D ( 'NONE', #60, #568, #231 ) ;
#580 = CALENDAR_DATE ( 2026, 27, 7 ) ;
#581 =( GEOMETRIC_REPRESENTATION_CONTEXT ( 3 ) GLOBAL_UNCERTAINTY_ASSIGNED_CONTEXT ( ( #53 ) ) GLOBAL_UNIT_ASSIGNED_CONTEXT ( ( #399, #545, #533 ) ) REPRESENTATION_CONTEXT ( 'NONE', 'WORKASPACE' ) );
#582 = LINE ( 'NONE', #200, #503 ) ;
#583 = CARTESIAN_POINT ( 'NONE',  ( 0.000000000000000000, 85.00000000000000000, -254.0000000000000000 ) ) ;
#584 = PERSON_AND_ORGANIZATION_ROLE ( 'classification_officer' ) ;
#585 = PLANE ( 'NONE',  #276 ) ;
#586 = ORIENTED_EDGE ( 'NONE', *, *, #211, .T. ) ;
#587 = ADVANCED_FACE ( 'NONE', ( #443 ), #25, .F. ) ;
#588 = PERSON_AND_ORGANIZATION ( #401, #40 ) ;
#589 = ADVANCED_FACE ( 'NONE', ( #307 ), #590, .F. ) ;
#590 = PLANE ( 'NONE',  #265 ) ;
#591 = DIRECTION ( 'NONE',  ( -0.000000000000000000, -1.000000000000000000, -0.000000000000000000 ) ) ;
#592 = EDGE_CURVE ( 'NONE', #598, #230, #493, .T. ) ;
#593 = CARTESIAN_POINT ( 'NONE',  ( 273.5000000000000000, 162.0000000000000000, -10.00000000000000178 ) ) ;
#594 = ORIENTED_EDGE ( 'NONE', *, *, #45, .T. ) ;
#595 = DIRECTION ( 'NONE',  ( -0.000000000000000000, -1.000000000000000000, -0.000000000000000000 ) ) ;
#596 = ORIENTED_EDGE ( 'NONE', *, *, #455, .T. ) ;
#597 = CARTESIAN_POINT ( 'NONE',  ( 273.5000000000000000, 85.00000000000000000, -244.0000000000000000 ) ) ;
#598 = VERTEX_POINT ( 'NONE', #597 ) ;
#599 = CARTESIAN_POINT ( 'NONE',  ( 0.000000000000000000, 85.00000000000000000, 0.000000000000000000 ) ) ;
#600 = ORIENTED_EDGE ( 'NONE', *, *, #411, .T. ) ;
#601 = FACE_OUTER_BOUND ( 'NONE', #226, .T. ) ;
#602 = SECURITY_CLASSIFICATION ( '', '', #202 ) ;
#603 = VERTEX_POINT ( 'NONE', #77 ) ;
#604 = VECTOR ( 'NONE', #214, 1000.000000000000000 ) ;
#605 = DIRECTION ( 'NONE',  ( 0.000000000000000000, 0.000000000000000000, -1.000000000000000000 ) ) ;
#606 = ORIENTED_EDGE ( 'NONE', *, *, #138, .F. ) ;
#607 = VECTOR ( 'NONE', #565, 1000.000000000000000 ) ;
ENDSEC;
END-ISO-10303-21;
