ISO-10303-21;
HEADER;
/* Generated by software containing ST-Developer
 * from STEP Tools, Inc. (www.steptools.com) 
 */
/* OPTION: using custom renumber hook */

FILE_DESCRIPTION(
/* description */ (
'CAx-IF Rec.Pracs.---Representation and Presentation of Product Manufa
cturing Information (PMI)---4.0---2014-10-13',
'CAx-IF Rec.Pracs.---3D Tessellated Geometry---0.4---2014-09-14','2;1'),

/* implementation_level */ '2;1');

FILE_NAME(
/* name */ 'openarm_right_ee_base_link_collision',
/* time_stamp */ '2026-07-31T22:02:42-07:00',
/* author */ (''),
/* organization */ (''),
/* preprocessor_version */ 'ST-DEVELOPER v20',
/* originating_system */ 'SIEMENS PLM Software NX2412.8300',
/* authorisation */ $);

FILE_SCHEMA (('AP242_MANAGED_MODEL_BASED_3D_ENGINEERING_MIM_LF { 1 0 10303 442 1 1 4 }'));
ENDSEC;

DATA;
#10=MECHANICAL_DESIGN_AND_DRAUGHTING_RELATIONSHIP('','',#26,#27);
#11=MECHANICAL_DESIGN_AND_DRAUGHTING_RELATIONSHIP('','',#28,#27);
#12=MECHANICAL_DESIGN_AND_DRAUGHTING_RELATIONSHIP('','',#29,#27);
#13=MECHANICAL_DESIGN_AND_DRAUGHTING_RELATIONSHIP('','',#30,#27);
#14=MECHANICAL_DESIGN_AND_DRAUGHTING_RELATIONSHIP('','',#31,#27);
#15=MECHANICAL_DESIGN_AND_DRAUGHTING_RELATIONSHIP('','',#32,#27);
#16=MECHANICAL_DESIGN_AND_DRAUGHTING_RELATIONSHIP('','',#33,#27);
#17=MECHANICAL_DESIGN_AND_DRAUGHTING_RELATIONSHIP('','',#34,#27);
#18=MODEL_GEOMETRIC_VIEW('Top','',#53,#26);
#19=MODEL_GEOMETRIC_VIEW('Front','',#54,#28);
#20=MODEL_GEOMETRIC_VIEW('Right','',#55,#29);
#21=MODEL_GEOMETRIC_VIEW('Back','',#56,#30);
#22=MODEL_GEOMETRIC_VIEW('Bottom','',#57,#31);
#23=MODEL_GEOMETRIC_VIEW('Left','',#58,#32);
#24=MODEL_GEOMETRIC_VIEW('Isometric','',#59,#33);
#25=MODEL_GEOMETRIC_VIEW('Trimetric','',#60,#34);
#26=DRAUGHTING_MODEL('Top',(#53,#44),#530);
#27=DRAUGHTING_MODEL('',(#45),#530);
#28=DRAUGHTING_MODEL('Front',(#54,#46),#530);
#29=DRAUGHTING_MODEL('Right',(#55,#47),#530);
#30=DRAUGHTING_MODEL('Back',(#56,#48),#530);
#31=DRAUGHTING_MODEL('Bottom',(#57,#49),#530);
#32=DRAUGHTING_MODEL('Left',(#58,#50),#530);
#33=DRAUGHTING_MODEL('Isometric',(#59,#51),#530);
#34=DRAUGHTING_MODEL('Trimetric',(#60,#52),#530);
#35=REPRESENTATION_MAP(#293,#78);
#36=REPRESENTATION_MAP(#293,#78);
#37=REPRESENTATION_MAP(#293,#78);
#38=REPRESENTATION_MAP(#293,#78);
#39=REPRESENTATION_MAP(#293,#78);
#40=REPRESENTATION_MAP(#293,#78);
#41=REPRESENTATION_MAP(#293,#78);
#42=REPRESENTATION_MAP(#293,#78);
#43=REPRESENTATION_MAP(#293,#78);
#44=MAPPED_ITEM('',#35,#293);
#45=MAPPED_ITEM('',#36,#293);
#46=MAPPED_ITEM('',#37,#293);
#47=MAPPED_ITEM('',#38,#293);
#48=MAPPED_ITEM('',#39,#293);
#49=MAPPED_ITEM('',#40,#293);
#50=MAPPED_ITEM('',#41,#293);
#51=MAPPED_ITEM('',#42,#293);
#52=MAPPED_ITEM('',#43,#293);
#53=CAMERA_MODEL_D3('Top',#322,#61);
#54=CAMERA_MODEL_D3('Front',#324,#62);
#55=CAMERA_MODEL_D3('Right',#326,#63);
#56=CAMERA_MODEL_D3('Back',#328,#64);
#57=CAMERA_MODEL_D3('Bottom',#330,#65);
#58=CAMERA_MODEL_D3('Left',#332,#66);
#59=CAMERA_MODEL_D3('Isometric',#334,#67);
#60=CAMERA_MODEL_D3('Trimetric',#336,#68);
#61=VIEW_VOLUME(.PARALLEL.,#506,59.8404855728149,0.,.F.,0.,.F.,.F.,#69);
#62=VIEW_VOLUME(.PARALLEL.,#509,33.2006225585938,0.,.F.,0.,.F.,.F.,#70);
#63=VIEW_VOLUME(.PARALLEL.,#512,35.3349533081055,0.,.F.,0.,.F.,.F.,#71);
#64=VIEW_VOLUME(.PARALLEL.,#515,33.2006225585938,0.,.F.,0.,.F.,.F.,#72);
#65=VIEW_VOLUME(.PARALLEL.,#518,59.8404846191406,0.,.F.,0.,.F.,.F.,#73);
#66=VIEW_VOLUME(.PARALLEL.,#521,35.3349456787109,0.,.F.,0.,.F.,.F.,#74);
#67=VIEW_VOLUME(.PARALLEL.,#524,59.8512936886007,0.,.F.,0.,.F.,.F.,#75);
#68=VIEW_VOLUME(.PARALLEL.,#527,48.3628218249009,0.,.F.,0.,.F.,.F.,#76);
#69=PLANAR_BOX('',29.83981745309,29.83981745309,#323);
#70=PLANAR_BOX('',16.5556897975348,16.5556897975348,#325);
#71=PLANAR_BOX('',17.6199866417248,17.6199866417248,#327);
#72=PLANAR_BOX('',16.5556897975348,16.5556897975348,#329);
#73=PLANAR_BOX('',29.8398169775346,29.8398169775346,#331);
#74=PLANAR_BOX('',17.6199828372814,17.6199828372814,#333);
#75=PLANAR_BOX('',29.8452069849257,29.8452069849257,#335);
#76=PLANAR_BOX('',24.1164115056407,24.1164115056407,#337);
#77=SHAPE_REPRESENTATION_RELATIONSHIP('','',#292,#78);
#78=ADVANCED_BREP_SHAPE_REPRESENTATION('',(#290),#530);
#79=PLANE('',#297);
#80=PLANE('',#307);
#81=PLANE('',#312);
#82=PLANE('',#321);
#83=LINE('',#447,#97);
#84=LINE('',#451,#98);
#85=LINE('',#459,#99);
#86=LINE('',#467,#100);
#87=LINE('',#471,#101);
#88=LINE('',#475,#102);
#89=LINE('',#477,#103);
#90=LINE('',#479,#104);
#91=LINE('',#481,#105);
#92=LINE('',#487,#106);
#93=LINE('',#496,#107);
#94=LINE('',#498,#108);
#95=LINE('',#499,#109);
#96=LINE('',#501,#110);
#97=VECTOR('',#344,1000.);
#98=VECTOR('',#347,1000.);
#99=VECTOR('',#356,1000.);
#100=VECTOR('',#363,1000.);
#101=VECTOR('',#368,1000.);
#102=VECTOR('',#371,1000.);
#103=VECTOR('',#374,1000.);
#104=VECTOR('',#375,1000.);
#105=VECTOR('',#376,1000.);
#106=VECTOR('',#385,1000.);
#107=VECTOR('',#396,1000.);
#108=VECTOR('',#399,1000.);
#109=VECTOR('',#400,1000.);
#110=VECTOR('',#403,1000.);
#111=ORIENTED_EDGE('',*,*,#171,.F.);
#112=ORIENTED_EDGE('',*,*,#172,.T.);
#113=ORIENTED_EDGE('',*,*,#173,.T.);
#114=ORIENTED_EDGE('',*,*,#174,.T.);
#115=ORIENTED_EDGE('',*,*,#175,.F.);
#116=ORIENTED_EDGE('',*,*,#171,.T.);
#117=ORIENTED_EDGE('',*,*,#176,.F.);
#118=ORIENTED_EDGE('',*,*,#177,.F.);
#119=ORIENTED_EDGE('',*,*,#178,.F.);
#120=ORIENTED_EDGE('',*,*,#179,.F.);
#121=ORIENTED_EDGE('',*,*,#180,.F.);
#122=ORIENTED_EDGE('',*,*,#181,.F.);
#123=ORIENTED_EDGE('',*,*,#182,.F.);
#124=ORIENTED_EDGE('',*,*,#183,.F.);
#125=ORIENTED_EDGE('',*,*,#184,.T.);
#126=ORIENTED_EDGE('',*,*,#185,.T.);
#127=ORIENTED_EDGE('',*,*,#186,.T.);
#128=ORIENTED_EDGE('',*,*,#180,.T.);
#129=ORIENTED_EDGE('',*,*,#178,.T.);
#130=ORIENTED_EDGE('',*,*,#187,.F.);
#131=ORIENTED_EDGE('',*,*,#188,.F.);
#132=ORIENTED_EDGE('',*,*,#189,.T.);
#133=ORIENTED_EDGE('',*,*,#189,.F.);
#134=ORIENTED_EDGE('',*,*,#190,.T.);
#135=ORIENTED_EDGE('',*,*,#184,.F.);
#136=ORIENTED_EDGE('',*,*,#179,.T.);
#137=ORIENTED_EDGE('',*,*,#186,.F.);
#138=ORIENTED_EDGE('',*,*,#191,.F.);
#139=ORIENTED_EDGE('',*,*,#192,.F.);
#140=ORIENTED_EDGE('',*,*,#181,.T.);
#141=ORIENTED_EDGE('',*,*,#190,.F.);
#142=ORIENTED_EDGE('',*,*,#188,.T.);
#143=ORIENTED_EDGE('',*,*,#193,.T.);
#144=ORIENTED_EDGE('',*,*,#194,.T.);
#145=ORIENTED_EDGE('',*,*,#173,.F.);
#146=ORIENTED_EDGE('',*,*,#195,.T.);
#147=ORIENTED_EDGE('',*,*,#196,.F.);
#148=ORIENTED_EDGE('',*,*,#197,.T.);
#149=ORIENTED_EDGE('',*,*,#191,.T.);
#150=ORIENTED_EDGE('',*,*,#185,.F.);
#151=ORIENTED_EDGE('',*,*,#196,.T.);
#152=ORIENTED_EDGE('',*,*,#198,.T.);
#153=ORIENTED_EDGE('',*,*,#183,.T.);
#154=ORIENTED_EDGE('',*,*,#199,.F.);
#155=ORIENTED_EDGE('',*,*,#187,.T.);
#156=ORIENTED_EDGE('',*,*,#177,.T.);
#157=ORIENTED_EDGE('',*,*,#200,.T.);
#158=ORIENTED_EDGE('',*,*,#193,.F.);
#159=ORIENTED_EDGE('',*,*,#194,.F.);
#160=ORIENTED_EDGE('',*,*,#200,.F.);
#161=ORIENTED_EDGE('',*,*,#176,.T.);
#162=ORIENTED_EDGE('',*,*,#174,.F.);
#163=ORIENTED_EDGE('',*,*,#195,.F.);
#164=ORIENTED_EDGE('',*,*,#172,.F.);
#165=ORIENTED_EDGE('',*,*,#175,.T.);
#166=ORIENTED_EDGE('',*,*,#198,.F.);
#167=ORIENTED_EDGE('',*,*,#199,.T.);
#168=ORIENTED_EDGE('',*,*,#182,.T.);
#169=ORIENTED_EDGE('',*,*,#192,.T.);
#170=ORIENTED_EDGE('',*,*,#197,.F.);
#171=EDGE_CURVE('NONE',#201,#202,#221,.T.);
#172=EDGE_CURVE('NONE',#201,#203,#83,.T.);
#173=EDGE_CURVE('NONE',#203,#204,#222,.T.);
#174=EDGE_CURVE('NONE',#204,#202,#84,.T.);
#175=EDGE_CURVE('NONE',#201,#205,#223,.T.);
#176=EDGE_CURVE('NONE',#206,#202,#224,.T.);
#177=EDGE_CURVE('NONE',#207,#206,#225,.T.);
#178=EDGE_CURVE('NONE',#208,#207,#85,.T.);
#179=EDGE_CURVE('NONE',#209,#208,#226,.T.);
#180=EDGE_CURVE('NONE',#210,#209,#227,.T.);
#181=EDGE_CURVE('NONE',#211,#210,#228,.T.);
#182=EDGE_CURVE('NONE',#212,#211,#86,.T.);
#183=EDGE_CURVE('NONE',#205,#212,#229,.T.);
#184=EDGE_CURVE('NONE',#209,#213,#87,.T.);
#185=EDGE_CURVE('NONE',#213,#214,#230,.T.);
#186=EDGE_CURVE('NONE',#214,#210,#88,.T.);
#187=EDGE_CURVE('NONE',#215,#207,#89,.T.);
#188=EDGE_CURVE('NONE',#216,#215,#90,.T.);
#189=EDGE_CURVE('NONE',#216,#208,#91,.T.);
#190=EDGE_CURVE('NONE',#216,#213,#231,.T.);
#191=EDGE_CURVE('NONE',#217,#214,#232,.T.);
#192=EDGE_CURVE('NONE',#211,#217,#92,.T.);
#193=EDGE_CURVE('NONE',#215,#218,#233,.T.);
#194=EDGE_CURVE('NONE',#218,#204,#234,.T.);
#195=EDGE_CURVE('NONE',#203,#219,#235,.T.);
#196=EDGE_CURVE('NONE',#220,#219,#236,.T.);
#197=EDGE_CURVE('NONE',#220,#217,#93,.T.);
#198=EDGE_CURVE('NONE',#219,#205,#94,.T.);
#199=EDGE_CURVE('NONE',#220,#212,#95,.T.);
#200=EDGE_CURVE('NONE',#206,#218,#96,.T.);
#201=VERTEX_POINT('',#445);
#202=VERTEX_POINT('',#446);
#203=VERTEX_POINT('',#448);
#204=VERTEX_POINT('',#450);
#205=VERTEX_POINT('',#454);
#206=VERTEX_POINT('',#456);
#207=VERTEX_POINT('',#458);
#208=VERTEX_POINT('',#460);
#209=VERTEX_POINT('',#462);
#210=VERTEX_POINT('',#464);
#211=VERTEX_POINT('',#466);
#212=VERTEX_POINT('',#468);
#213=VERTEX_POINT('',#472);
#214=VERTEX_POINT('',#474);
#215=VERTEX_POINT('',#478);
#216=VERTEX_POINT('',#480);
#217=VERTEX_POINT('',#486);
#218=VERTEX_POINT('',#490);
#219=VERTEX_POINT('',#493);
#220=VERTEX_POINT('',#495);
#221=CIRCLE('',#295,17.5);
#222=CIRCLE('',#296,17.5);
#223=CIRCLE('',#298,0.500000000000011);
#224=CIRCLE('',#299,0.500000000000002);
#225=CIRCLE('',#300,2.25);
#226=CIRCLE('',#301,0.499999999999998);
#227=CIRCLE('',#302,19.7500000000001);
#228=CIRCLE('',#303,0.5);
#229=CIRCLE('',#304,2.24999999999999);
#230=CIRCLE('',#306,19.75);
#231=CIRCLE('',#309,0.5);
#232=CIRCLE('',#311,0.5);
#233=CIRCLE('',#313,2.25);
#234=CIRCLE('',#314,0.5);
#235=CIRCLE('',#315,0.5);
#236=CIRCLE('',#316,2.25);
#237=EDGE_LOOP('',(#111,#112,#113,#114));
#238=EDGE_LOOP('',(#115,#116,#117,#118,#119,#120,#121,#122,#123,#124));
#239=EDGE_LOOP('',(#125,#126,#127,#128));
#240=EDGE_LOOP('',(#129,#130,#131,#132));
#241=EDGE_LOOP('',(#133,#134,#135,#136));
#242=EDGE_LOOP('',(#137,#138,#139,#140));
#243=EDGE_LOOP('',(#141,#142,#143,#144,#145,#146,#147,#148,#149,#150));
#244=EDGE_LOOP('',(#151,#152,#153,#154));
#245=EDGE_LOOP('',(#155,#156,#157,#158));
#246=EDGE_LOOP('',(#159,#160,#161,#162));
#247=EDGE_LOOP('',(#163,#164,#165,#166));
#248=EDGE_LOOP('',(#167,#168,#169,#170));
#249=FACE_BOUND('',#237,.T.);
#250=FACE_BOUND('',#238,.T.);
#251=FACE_BOUND('',#239,.T.);
#252=FACE_BOUND('',#240,.T.);
#253=FACE_BOUND('',#241,.T.);
#254=FACE_BOUND('',#242,.T.);
#255=FACE_BOUND('',#243,.T.);
#256=FACE_BOUND('',#244,.T.);
#257=FACE_BOUND('',#245,.T.);
#258=FACE_BOUND('',#246,.T.);
#259=FACE_BOUND('',#247,.T.);
#260=FACE_BOUND('',#248,.T.);
#261=CYLINDRICAL_SURFACE('',#294,17.5);
#262=CYLINDRICAL_SURFACE('',#305,19.75);
#263=CYLINDRICAL_SURFACE('',#308,0.5);
#264=CYLINDRICAL_SURFACE('',#310,0.5);
#265=CYLINDRICAL_SURFACE('',#317,2.25);
#266=CYLINDRICAL_SURFACE('',#318,2.25);
#267=CYLINDRICAL_SURFACE('',#319,0.5);
#268=CYLINDRICAL_SURFACE('',#320,0.5);
#269=ADVANCED_FACE('NONE',(#249),#261,.T.);
#270=ADVANCED_FACE('NONE',(#250),#79,.T.);
#271=ADVANCED_FACE('NONE',(#251),#262,.T.);
#272=ADVANCED_FACE('NONE',(#252),#80,.T.);
#273=ADVANCED_FACE('NONE',(#253),#263,.T.);
#274=ADVANCED_FACE('NONE',(#254),#264,.T.);
#275=ADVANCED_FACE('NONE',(#255),#81,.F.);
#276=ADVANCED_FACE('NONE',(#256),#265,.F.);
#277=ADVANCED_FACE('NONE',(#257),#266,.F.);
#278=ADVANCED_FACE('NONE',(#258),#267,.T.);
#279=ADVANCED_FACE('NONE',(#259),#268,.T.);
#280=ADVANCED_FACE('NONE',(#260),#82,.T.);
#281=CLOSED_SHELL('',(#269,#270,#271,#272,#273,#274,#275,#276,#277,#278,
#279,#280));
#282=STYLED_ITEM('',(#283),#290);
#283=PRESENTATION_STYLE_ASSIGNMENT((#284));
#284=SURFACE_STYLE_USAGE(.BOTH.,#285);
#285=SURFACE_SIDE_STYLE('',(#286));
#286=SURFACE_STYLE_FILL_AREA(#287);
#287=FILL_AREA_STYLE('',(#288));
#288=FILL_AREA_STYLE_COLOUR('',#289);
#289=COLOUR_RGB('',0.811764705882353,0.843137254901961,0.909803921568627);
#290=MANIFOLD_SOLID_BREP('\X2\FF8CFF68FF9AFF6FFF84\X0\5[1]',#281);
#291=SHAPE_DEFINITION_REPRESENTATION(#535,#292);
#292=SHAPE_REPRESENTATION('openarm_right_ee_base_link_collision',(#293),
#530);
#293=AXIS2_PLACEMENT_3D('',#442,#338,#339);
#294=AXIS2_PLACEMENT_3D('',#443,#340,#341);
#295=AXIS2_PLACEMENT_3D('',#444,#342,#343);
#296=AXIS2_PLACEMENT_3D('',#449,#345,#346);
#297=AXIS2_PLACEMENT_3D('',#452,#348,#349);
#298=AXIS2_PLACEMENT_3D('',#453,#350,#351);
#299=AXIS2_PLACEMENT_3D('',#455,#352,#353);
#300=AXIS2_PLACEMENT_3D('',#457,#354,#355);
#301=AXIS2_PLACEMENT_3D('',#461,#357,#358);
#302=AXIS2_PLACEMENT_3D('',#463,#359,#360);
#303=AXIS2_PLACEMENT_3D('',#465,#361,#362);
#304=AXIS2_PLACEMENT_3D('',#469,#364,#365);
#305=AXIS2_PLACEMENT_3D('',#470,#366,#367);
#306=AXIS2_PLACEMENT_3D('',#473,#369,#370);
#307=AXIS2_PLACEMENT_3D('',#476,#372,#373);
#308=AXIS2_PLACEMENT_3D('',#482,#377,#378);
#309=AXIS2_PLACEMENT_3D('',#483,#379,#380);
#310=AXIS2_PLACEMENT_3D('',#484,#381,#382);
#311=AXIS2_PLACEMENT_3D('',#485,#383,#384);
#312=AXIS2_PLACEMENT_3D('',#488,#386,#387);
#313=AXIS2_PLACEMENT_3D('',#489,#388,#389);
#314=AXIS2_PLACEMENT_3D('',#491,#390,#391);
#315=AXIS2_PLACEMENT_3D('',#492,#392,#393);
#316=AXIS2_PLACEMENT_3D('',#494,#394,#395);
#317=AXIS2_PLACEMENT_3D('',#497,#397,#398);
#318=AXIS2_PLACEMENT_3D('',#500,#401,#402);
#319=AXIS2_PLACEMENT_3D('',#502,#404,#405);
#320=AXIS2_PLACEMENT_3D('',#503,#406,#407);
#321=AXIS2_PLACEMENT_3D('',#504,#408,#409);
#322=AXIS2_PLACEMENT_3D('',#505,#410,#411);
#323=AXIS2_PLACEMENT_3D('',#507,#412,#413);
#324=AXIS2_PLACEMENT_3D('',#508,#414,#415);
#325=AXIS2_PLACEMENT_3D('',#510,#416,#417);
#326=AXIS2_PLACEMENT_3D('',#511,#418,#419);
#327=AXIS2_PLACEMENT_3D('',#513,#420,#421);
#328=AXIS2_PLACEMENT_3D('',#514,#422,#423);
#329=AXIS2_PLACEMENT_3D('',#516,#424,#425);
#330=AXIS2_PLACEMENT_3D('',#517,#426,#427);
#331=AXIS2_PLACEMENT_3D('',#519,#428,#429);
#332=AXIS2_PLACEMENT_3D('',#520,#430,#431);
#333=AXIS2_PLACEMENT_3D('',#522,#432,#433);
#334=AXIS2_PLACEMENT_3D('',#523,#434,#435);
#335=AXIS2_PLACEMENT_3D('',#525,#436,#437);
#336=AXIS2_PLACEMENT_3D('',#526,#438,#439);
#337=AXIS2_PLACEMENT_3D('',#528,#440,#441);
#338=DIRECTION('',(0.,0.,1.));
#339=DIRECTION('',(1.,0.,0.));
#340=DIRECTION('',(-1.,0.,-7.3E-14));
#341=DIRECTION('',(8.468E-27,1.,0.));
#342=DIRECTION('',(1.,0.,7.3E-14));
#343=DIRECTION('',(-8.468E-27,-1.,0.));
#344=DIRECTION('',(-1.,0.,-7.3E-14));
#345=DIRECTION('',(1.,0.,7.3E-14));
#346=DIRECTION('',(-8.468E-27,-1.,0.));
#347=DIRECTION('',(1.,0.,7.3E-14));
#348=DIRECTION('',(1.,0.,7.3E-14));
#349=DIRECTION('',(-8.468E-27,-1.,0.));
#350=DIRECTION('',(-1.,0.,-7.3E-14));
#351=DIRECTION('',(-8.72126962749261E-27,-1.,3.46944695195354E-15));
#352=DIRECTION('',(-1.,0.,-7.3E-14));
#353=DIRECTION('',(-9.22780888247784E-27,-1.,1.04083408558608E-14));
#354=DIRECTION('',(1.,0.,7.3E-14));
#355=DIRECTION('',(-8.468E-27,-1.,0.));
#356=DIRECTION('',(-7.3E-14,-8.17966561569395E-16,1.));
#357=DIRECTION('',(-1.,0.,-7.3E-14));
#358=DIRECTION('',(2.14178160441286E-26,-1.,-4.09394740330528E-13));
#359=DIRECTION('',(-1.,0.,-7.3E-14));
#360=DIRECTION('',(-8.468E-27,-1.,0.));
#361=DIRECTION('',(-1.,0.,-7.3E-14));
#362=DIRECTION('',(-8.468E-27,-1.,0.));
#363=DIRECTION('',(7.3E-14,-3.27186624627748E-15,-1.));
#364=DIRECTION('',(1.,0.,7.3E-14));
#365=DIRECTION('',(-8.468E-27,-1.,0.));
#366=DIRECTION('',(1.,0.,7.3E-14));
#367=DIRECTION('',(-8.468E-27,-1.,0.));
#368=DIRECTION('',(-1.,0.,-7.3E-14));
#369=DIRECTION('',(1.,0.,7.3E-14));
#370=DIRECTION('',(-8.468E-27,-1.,0.));
#371=DIRECTION('',(1.,0.,7.3E-14));
#372=DIRECTION('',(-9.62664649272898E-27,-1.,1.58718697634107E-14));
#373=DIRECTION('',(-7.3E-14,1.58718697634107E-14,1.));
#374=DIRECTION('',(1.,0.,7.3E-14));
#375=DIRECTION('',(-7.3E-14,1.58718697634107E-14,1.));
#376=DIRECTION('',(1.,0.,7.3E-14));
#377=DIRECTION('',(1.,0.,7.3E-14));
#378=DIRECTION('',(-8.468E-27,-1.,0.));
#379=DIRECTION('',(1.,0.,7.3E-14));
#380=DIRECTION('',(-8.468E-27,-1.,0.));
#381=DIRECTION('',(1.,0.,7.3E-14));
#382=DIRECTION('',(-8.468E-27,-1.,0.));
#383=DIRECTION('',(-1.,0.,-7.3E-14));
#384=DIRECTION('',(-8.468E-27,-1.,0.));
#385=DIRECTION('',(-1.,0.,-7.3E-14));
#386=DIRECTION('',(1.,0.,7.3E-14));
#387=DIRECTION('',(-8.468E-27,-1.,0.));
#388=DIRECTION('',(1.,0.,7.3E-14));
#389=DIRECTION('',(-8.468E-27,-1.,0.));
#390=DIRECTION('',(-1.,0.,-7.3E-14));
#391=DIRECTION('',(-9.22780888247784E-27,-1.,1.04083408558608E-14));
#392=DIRECTION('',(-1.,0.,-7.3E-14));
#393=DIRECTION('',(-8.72126962749262E-27,-1.,3.46944695195361E-15));
#394=DIRECTION('',(-1.,0.,-7.3E-14));
#395=DIRECTION('',(-8.468E-27,-1.,0.));
#396=DIRECTION('',(7.3E-14,-1.58718697634105E-14,-1.));
#397=DIRECTION('',(1.,0.,7.3E-14));
#398=DIRECTION('',(-8.468E-27,-1.,0.));
#399=DIRECTION('',(1.,0.,7.3E-14));
#400=DIRECTION('',(1.,0.,7.3E-14));
#401=DIRECTION('',(1.,0.,7.3E-14));
#402=DIRECTION('',(-8.468E-27,-1.,0.));
#403=DIRECTION('',(-1.,0.,-7.3E-14));
#404=DIRECTION('',(-1.,0.,-7.3E-14));
#405=DIRECTION('',(8.468E-27,1.,0.));
#406=DIRECTION('',(-1.,0.,-7.3E-14));
#407=DIRECTION('',(8.468E-27,1.,0.));
#408=DIRECTION('',(9.62664649272897E-27,1.,-1.58718697634105E-14));
#409=DIRECTION('',(1.,0.,7.3E-14));
#410=DIRECTION('',(0.,0.,-1.));
#411=DIRECTION('',(-1.,0.,0.));
#412=DIRECTION('',(0.,0.,1.));
#413=DIRECTION('',(1.,0.,0.));
#414=DIRECTION('',(0.,1.,0.));
#415=DIRECTION('',(-1.,0.,0.));
#416=DIRECTION('',(0.,0.,1.));
#417=DIRECTION('',(1.,0.,0.));
#418=DIRECTION('',(-1.,0.,0.));
#419=DIRECTION('',(0.,-1.,0.));
#420=DIRECTION('',(0.,0.,1.));
#421=DIRECTION('',(1.,0.,0.));
#422=DIRECTION('',(0.,-1.,0.));
#423=DIRECTION('',(1.,0.,0.));
#424=DIRECTION('',(0.,0.,1.));
#425=DIRECTION('',(1.,0.,0.));
#426=DIRECTION('',(0.,0.,1.));
#427=DIRECTION('',(-1.,0.,0.));
#428=DIRECTION('',(0.,0.,1.));
#429=DIRECTION('',(1.,0.,0.));
#430=DIRECTION('',(1.,0.,0.));
#431=DIRECTION('',(0.,1.,0.));
#432=DIRECTION('',(0.,0.,1.));
#433=DIRECTION('',(1.,0.,0.));
#434=DIRECTION('',(-0.577350269189626,0.577350269189626,-0.577350269189626));
#435=DIRECTION('',(-0.707106781186548,-0.707106781186547,1.11022302462516E-16));
#436=DIRECTION('',(0.,0.,1.));
#437=DIRECTION('',(1.,0.,0.));
#438=DIRECTION('',(-0.718873086818576,0.585048618558824,-0.375419230954334));
#439=DIRECTION('',(-0.631219060630798,-0.775604601260444,-1.58247274173462E-8));
#440=DIRECTION('',(0.,0.,1.));
#441=DIRECTION('',(1.,0.,0.));
#442=CARTESIAN_POINT('',(0.,0.,0.));
#443=CARTESIAN_POINT('',(30.0000000000031,-9.60692636553517E-9,3.69997366078678E-8));
#444=CARTESIAN_POINT('',(30.0000000000031,-9.60692636553517E-9,3.69997366078678E-8));
#445=CARTESIAN_POINT('',(30.0000000000041,10.9967465861366,-13.6132862785452));
#446=CARTESIAN_POINT('',(30.0000000000041,-10.9967466053505,-13.6132862785452));
#447=CARTESIAN_POINT('',(30.0000000000041,10.9967465861366,-13.6132862785452));
#448=CARTESIAN_POINT('',(20.500000000004,10.9967465861366,-13.6132862785459));
#449=CARTESIAN_POINT('',(20.500000000003,-9.60692636553517E-9,3.69990149629018E-8));
#450=CARTESIAN_POINT('',(20.500000000004,-10.9967466053505,-13.6132862785459));
#451=CARTESIAN_POINT('',(30.0000000000041,-10.9967466053505,-13.6132862785452));
#452=CARTESIAN_POINT('',(30.0000000000031,-9.60692636553517E-9,3.69997366078678E-8));
#453=CARTESIAN_POINT('',(30.000000000004,10.6825538262582,-13.2243352409582));
#454=CARTESIAN_POINT('',(30.0000000000041,10.5129985833737,-13.6947085178462));
#455=CARTESIAN_POINT('',(30.000000000004,-10.6825538454721,-13.2243352409582));
#456=CARTESIAN_POINT('',(30.0000000000041,-10.5129986025875,-13.6947085178462));
#457=CARTESIAN_POINT('',(30.0000000000042,-9.75000000960691,-15.8113882638422));
#458=CARTESIAN_POINT('',(30.0000000000042,-7.50000000960693,-15.8113882638422));
#459=CARTESIAN_POINT('',(30.0000000000044,-7.50000000960691,-17.9321638034296));
#460=CARTESIAN_POINT('',(30.0000000000044,-7.50000000960691,-17.9321638034296));
#461=CARTESIAN_POINT('',(30.0000000000044,-7.00000000960693,-17.9321638034297));
#462=CARTESIAN_POINT('',(30.0000000000044,-7.18181819142513,-18.3979342927915));
#463=CARTESIAN_POINT('',(30.0000000000031,-9.60692636553517E-9,3.69997366078678E-8));
#464=CARTESIAN_POINT('',(30.0000000000044,7.18181817221128,-18.3979342927915));
#465=CARTESIAN_POINT('',(30.0000000000044,6.99999999039308,-17.9321638034297));
#466=CARTESIAN_POINT('',(30.0000000000044,7.49999999039308,-17.9321638034297));
#467=CARTESIAN_POINT('',(30.0000000000042,7.49999999039311,-15.8113882638422));
#468=CARTESIAN_POINT('',(30.0000000000042,7.49999999039311,-15.8113882638422));
#469=CARTESIAN_POINT('',(30.0000000000042,9.74999999039308,-15.8113882638422));
#470=CARTESIAN_POINT('',(4.99152934307665,-9.60692636553517E-9,3.69979047398772E-8));
#471=CARTESIAN_POINT('',(4.99152934307799,-7.18181819142513,-18.3979342927933));
#472=CARTESIAN_POINT('',(20.5000000000044,-7.18181819142513,-18.3979342927922));
#473=CARTESIAN_POINT('',(20.500000000003,-9.60692636553517E-9,3.69990149629018E-8));
#474=CARTESIAN_POINT('',(20.5000000000044,7.18181817221128,-18.3979342927922));
#475=CARTESIAN_POINT('',(4.99152934307799,7.18181817221122,-18.3979342927933));
#476=CARTESIAN_POINT('',(4.99152934307798,-7.50000000960693,-18.2705363535957));
#477=CARTESIAN_POINT('',(4.9915293430778,-7.50000000960693,-15.811388263844));
#478=CARTESIAN_POINT('',(20.5000000000042,-7.50000000960693,-15.8113882638429));
#479=CARTESIAN_POINT('',(20.5000000000044,-7.50000000960693,-18.2705363535945));
#480=CARTESIAN_POINT('',(20.5000000000044,-7.50000000960691,-17.9321638034303));
#481=CARTESIAN_POINT('',(4.99152934307795,-7.50000000960693,-17.9321638034314));
#482=CARTESIAN_POINT('',(4.99152934307795,-7.00000000960693,-17.9321638034315));
#483=CARTESIAN_POINT('',(20.5000000000044,-7.00000000960693,-17.9321638034304));
#484=CARTESIAN_POINT('',(4.99152934307795,6.99999999039308,-17.9321638034315));
#485=CARTESIAN_POINT('',(20.5000000000044,6.99999999039308,-17.9321638034304));
#486=CARTESIAN_POINT('',(20.5000000000044,7.49999999039308,-17.9321638034304));
#487=CARTESIAN_POINT('',(4.99152934307795,7.49999999039308,-17.9321638034315));
#488=CARTESIAN_POINT('',(20.500000000003,-9.60692636553517E-9,3.69990149629018E-8));
#489=CARTESIAN_POINT('',(20.5000000000042,-9.75000000960691,-15.8113882638429));
#490=CARTESIAN_POINT('',(20.500000000004,-10.5129986025875,-13.6947085178469));
#491=CARTESIAN_POINT('',(20.500000000004,-10.6825538454721,-13.2243352409589));
#492=CARTESIAN_POINT('',(20.500000000004,10.6825538262582,-13.2243352409589));
#493=CARTESIAN_POINT('',(20.500000000004,10.5129985833737,-13.6947085178469));
#494=CARTESIAN_POINT('',(20.5000000000042,9.74999999039308,-15.8113882638429));
#495=CARTESIAN_POINT('',(20.5000000000042,7.49999999039308,-15.8113882638429));
#496=CARTESIAN_POINT('',(20.5000000000044,7.49999999039308,-18.2705363535945));
#497=CARTESIAN_POINT('',(20.4990000000042,9.74999999039308,-15.8113882638429));
#498=CARTESIAN_POINT('',(20.499000000004,10.5129985833737,-13.6947085178469));
#499=CARTESIAN_POINT('',(4.9915293430778,7.49999999039308,-15.811388263844));
#500=CARTESIAN_POINT('',(20.4990000000042,-9.75000000960691,-15.8113882638429));
#501=CARTESIAN_POINT('',(20.499000000004,-10.5129986025875,-13.6947085178469));
#502=CARTESIAN_POINT('',(20.499000000004,-10.6825538454721,-13.2243352409589));
#503=CARTESIAN_POINT('',(30.000000000004,10.6825538262582,-13.2243352409582));
#504=CARTESIAN_POINT('',(4.99152934307798,7.49999999039308,-18.2705363535957));
#505=CARTESIAN_POINT('',(-152.5,259.875,-9.90951442718507));
#506=CARTESIAN_POINT('',(0.,0.,0.));
#507=CARTESIAN_POINT('',(-14.919908726545,-14.919908726545,59.8404855728149));
#508=CARTESIAN_POINT('',(-152.5,226.674377441406,-69.75));
#509=CARTESIAN_POINT('',(0.,0.,0.));
#510=CARTESIAN_POINT('',(-8.2778448987674,-8.2778448987674,33.2006225585938));
#511=CARTESIAN_POINT('',(-117.165046691895,259.875,-69.75));
#512=CARTESIAN_POINT('',(0.,0.,0.));
#513=CARTESIAN_POINT('',(-8.80999332086242,-8.80999332086242,35.3349533081055));
#514=CARTESIAN_POINT('',(-152.5,293.075622558594,-69.75));
#515=CARTESIAN_POINT('',(0.,0.,0.));
#516=CARTESIAN_POINT('',(-8.2778448987674,-8.2778448987674,33.2006225585938));
#517=CARTESIAN_POINT('',(-152.5,259.875,-129.590484619141));
#518=CARTESIAN_POINT('',(0.,0.,0.));
#519=CARTESIAN_POINT('',(-14.9199084887673,-14.9199084887673,59.8404846191406));
#520=CARTESIAN_POINT('',(-187.834945678711,259.875,-69.75));
#521=CARTESIAN_POINT('',(0.,0.,0.));
#522=CARTESIAN_POINT('',(-8.80999141864072,-8.80999141864072,35.3349456787109));
#523=CARTESIAN_POINT('',(-117.944839477539,225.319839477539,-35.1948394775391));
#524=CARTESIAN_POINT('',(0.,0.,0.));
#525=CARTESIAN_POINT('',(-14.9226034924629,-14.9226034924629,59.8512936886007));
#526=CARTESIAN_POINT('',(-117.733268987477,231.580397901735,-51.5936666237142));
#527=CARTESIAN_POINT('',(0.,0.,0.));
#528=CARTESIAN_POINT('',(-12.0582057528204,-12.0582057528204,48.3628218249009));
#529=MECHANICAL_DESIGN_GEOMETRIC_PRESENTATION_REPRESENTATION('',(#282),
#530);
#530=(
GEOMETRIC_REPRESENTATION_CONTEXT(3)
GLOBAL_UNCERTAINTY_ASSIGNED_CONTEXT((#531))
GLOBAL_UNIT_ASSIGNED_CONTEXT((#534,#533,#532))
REPRESENTATION_CONTEXT('openarm_right_ee_base_link_collision',
'TOP_LEVEL_ASSEMBLY_PART')
);
#531=UNCERTAINTY_MEASURE_WITH_UNIT(LENGTH_MEASURE(1.E-5),#534,
'DISTANCE_ACCURACY_VALUE','Maximum Tolerance applied to model');
#532=(
NAMED_UNIT(*)
SI_UNIT($,.STERADIAN.)
SOLID_ANGLE_UNIT()
);
#533=(
NAMED_UNIT(*)
PLANE_ANGLE_UNIT()
SI_UNIT($,.RADIAN.)
);
#534=(
LENGTH_UNIT()
NAMED_UNIT(*)
SI_UNIT(.MILLI.,.METRE.)
);
#535=PRODUCT_DEFINITION_SHAPE('','',#536);
#536=PRODUCT_DEFINITION('','',#538,#537);
#537=PRODUCT_DEFINITION_CONTEXT('',#544,'design');
#538=PRODUCT_DEFINITION_FORMATION_WITH_SPECIFIED_SOURCE('','',#540,
 .NOT_KNOWN.);
#539=PRODUCT_RELATED_PRODUCT_CATEGORY('','',(#540));
#540=PRODUCT('openarm_right_ee_base_link_collision',
'openarm_right_ee_base_link_collision',
'openarm_right_ee_base_link_collision',(#542));
#541=PRODUCT_CATEGORY('','');
#542=PRODUCT_CONTEXT('',#544,'mechanical');
#543=APPLICATION_PROTOCOL_DEFINITION('international standard',
'ap242_managed_model_based_3d_engineering',2011,#544);
#544=APPLICATION_CONTEXT('managed model based 3d engineering');
ENDSEC;
END-ISO-10303-21;
