ISO-10303-21;
HEADER;
/* Generated by software containing ST-Developer
 * from STEP Tools, Inc. (www.steptools.com) 
 */
/* OPTION: using custom renumber hook */

FILE_DESCRIPTION(
/* description */ (
'CAx-IF Rec.Pracs.---Representation and Presentation of Product Manufa
cturing Information (PMI)---4.0---2014-10-13',
'CAx-IF Rec.Pracs.---3D Tessellated Geometry---0.4---2014-09-14','2;1'),

/* implementation_level */ '2;1');

FILE_NAME(
/* name */ 'openarm_right_link6_collision',
/* time_stamp */ '2026-07-31T22:02:35-07:00',
/* author */ (''),
/* organization */ (''),
/* preprocessor_version */ 'ST-DEVELOPER v20',
/* originating_system */ 'SIEMENS PLM Software NX2412.8300',
/* authorisation */ $);

FILE_SCHEMA (('AP242_MANAGED_MODEL_BASED_3D_ENGINEERING_MIM_LF { 1 0 10303 442 1 1 4 }'));
ENDSEC;

DATA;
#10=MECHANICAL_DESIGN_AND_DRAUGHTING_RELATIONSHIP('','',#26,#27);
#11=MECHANICAL_DESIGN_AND_DRAUGHTING_RELATIONSHIP('','',#28,#27);
#12=MECHANICAL_DESIGN_AND_DRAUGHTING_RELATIONSHIP('','',#29,#27);
#13=MECHANICAL_DESIGN_AND_DRAUGHTING_RELATIONSHIP('','',#30,#27);
#14=MECHANICAL_DESIGN_AND_DRAUGHTING_RELATIONSHIP('','',#31,#27);
#15=MECHANICAL_DESIGN_AND_DRAUGHTING_RELATIONSHIP('','',#32,#27);
#16=MECHANICAL_DESIGN_AND_DRAUGHTING_RELATIONSHIP('','',#33,#27);
#17=MECHANICAL_DESIGN_AND_DRAUGHTING_RELATIONSHIP('','',#34,#27);
#18=MODEL_GEOMETRIC_VIEW('Top','',#53,#26);
#19=MODEL_GEOMETRIC_VIEW('Front','',#54,#28);
#20=MODEL_GEOMETRIC_VIEW('Right','',#55,#29);
#21=MODEL_GEOMETRIC_VIEW('Back','',#56,#30);
#22=MODEL_GEOMETRIC_VIEW('Bottom','',#57,#31);
#23=MODEL_GEOMETRIC_VIEW('Left','',#58,#32);
#24=MODEL_GEOMETRIC_VIEW('Isometric','',#59,#33);
#25=MODEL_GEOMETRIC_VIEW('Trimetric','',#60,#34);
#26=DRAUGHTING_MODEL('Top',(#53,#44),#1365);
#27=DRAUGHTING_MODEL('',(#45),#1365);
#28=DRAUGHTING_MODEL('Front',(#54,#46),#1365);
#29=DRAUGHTING_MODEL('Right',(#55,#47),#1365);
#30=DRAUGHTING_MODEL('Back',(#56,#48),#1365);
#31=DRAUGHTING_MODEL('Bottom',(#57,#49),#1365);
#32=DRAUGHTING_MODEL('Left',(#58,#50),#1365);
#33=DRAUGHTING_MODEL('Isometric',(#59,#51),#1365);
#34=DRAUGHTING_MODEL('Trimetric',(#60,#52),#1365);
#35=REPRESENTATION_MAP(#788,#78);
#36=REPRESENTATION_MAP(#788,#78);
#37=REPRESENTATION_MAP(#788,#78);
#38=REPRESENTATION_MAP(#788,#78);
#39=REPRESENTATION_MAP(#788,#78);
#40=REPRESENTATION_MAP(#788,#78);
#41=REPRESENTATION_MAP(#788,#78);
#42=REPRESENTATION_MAP(#788,#78);
#43=REPRESENTATION_MAP(#788,#78);
#44=MAPPED_ITEM('',#35,#788);
#45=MAPPED_ITEM('',#36,#788);
#46=MAPPED_ITEM('',#37,#788);
#47=MAPPED_ITEM('',#38,#788);
#48=MAPPED_ITEM('',#39,#788);
#49=MAPPED_ITEM('',#40,#788);
#50=MAPPED_ITEM('',#41,#788);
#51=MAPPED_ITEM('',#42,#788);
#52=MAPPED_ITEM('',#43,#788);
#53=CAMERA_MODEL_D3('Top',#872,#61);
#54=CAMERA_MODEL_D3('Front',#874,#62);
#55=CAMERA_MODEL_D3('Right',#876,#63);
#56=CAMERA_MODEL_D3('Back',#878,#64);
#57=CAMERA_MODEL_D3('Bottom',#880,#65);
#58=CAMERA_MODEL_D3('Left',#882,#66);
#59=CAMERA_MODEL_D3('Isometric',#884,#67);
#60=CAMERA_MODEL_D3('Trimetric',#886,#68);
#61=VIEW_VOLUME(.PARALLEL.,#1341,91.5679483413696,0.,.F.,0.,.F.,.F.,#69);
#62=VIEW_VOLUME(.PARALLEL.,#1344,85.9493103027344,0.,.F.,0.,.F.,.F.,#70);
#63=VIEW_VOLUME(.PARALLEL.,#1347,85.9493026733398,0.,.F.,0.,.F.,.F.,#71);
#64=VIEW_VOLUME(.PARALLEL.,#1350,85.9493103027344,0.,.F.,0.,.F.,.F.,#72);
#65=VIEW_VOLUME(.PARALLEL.,#1353,91.5679550170898,0.,.F.,0.,.F.,.F.,#73);
#66=VIEW_VOLUME(.PARALLEL.,#1356,85.9493103027344,0.,.F.,0.,.F.,.F.,#74);
#67=VIEW_VOLUME(.PARALLEL.,#1359,144.287978788854,0.,.F.,0.,.F.,.F.,#75);
#68=VIEW_VOLUME(.PARALLEL.,#1362,127.557409115285,0.,.F.,0.,.F.,.F.,#76);
#69=PLANAR_BOX('',45.6609072754875,45.6609072754875,#873);
#70=PLANAR_BOX('',42.85913967947,42.85913967947,#875);
#71=PLANAR_BOX('',42.8591358750266,42.8591358750266,#877);
#72=PLANAR_BOX('',42.85913967947,42.85913967947,#879);
#73=PLANAR_BOX('',45.6609106043754,45.6609106043754,#881);
#74=PLANAR_BOX('',42.85913967947,42.85913967947,#883);
#75=PLANAR_BOX('',71.9500670243675,71.9500670243675,#885);
#76=PLANAR_BOX('',63.6072679951382,63.6072679951382,#887);
#77=SHAPE_REPRESENTATION_RELATIONSHIP('','',#787,#78);
#78=ADVANCED_BREP_SHAPE_REPRESENTATION('',(#782,#783,#784,#785),#1365);
#79=LINE('',#1148,#131);
#80=LINE('',#1153,#132);
#81=LINE('',#1157,#133);
#82=LINE('',#1161,#134);
#83=LINE('',#1165,#135);
#84=LINE('',#1167,#136);
#85=LINE('',#1169,#137);
#86=LINE('',#1171,#138);
#87=LINE('',#1174,#139);
#88=LINE('',#1175,#140);
#89=LINE('',#1177,#141);
#90=LINE('',#1179,#142);
#91=LINE('',#1181,#143);
#92=LINE('',#1183,#144);
#93=LINE('',#1185,#145);
#94=LINE('',#1187,#146);
#95=LINE('',#1189,#147);
#96=LINE('',#1191,#148);
#97=LINE('',#1193,#149);
#98=LINE('',#1195,#150);
#99=LINE('',#1213,#151);
#100=LINE('',#1217,#152);
#101=LINE('',#1224,#153);
#102=LINE('',#1229,#154);
#103=LINE('',#1233,#155);
#104=LINE('',#1239,#156);
#105=LINE('',#1247,#157);
#106=LINE('',#1248,#158);
#107=LINE('',#1250,#159);
#108=LINE('',#1252,#160);
#109=LINE('',#1253,#161);
#110=LINE('',#1255,#162);
#111=LINE('',#1266,#163);
#112=LINE('',#1271,#164);
#113=LINE('',#1275,#165);
#114=LINE('',#1279,#166);
#115=LINE('',#1283,#167);
#116=LINE('',#1285,#168);
#117=LINE('',#1287,#169);
#118=LINE('',#1289,#170);
#119=LINE('',#1292,#171);
#120=LINE('',#1293,#172);
#121=LINE('',#1295,#173);
#122=LINE('',#1297,#174);
#123=LINE('',#1299,#175);
#124=LINE('',#1301,#176);
#125=LINE('',#1303,#177);
#126=LINE('',#1305,#178);
#127=LINE('',#1307,#179);
#128=LINE('',#1309,#180);
#129=LINE('',#1311,#181);
#130=LINE('',#1313,#182);
#131=VECTOR('',#900,1000.);
#132=VECTOR('',#903,1000.);
#133=VECTOR('',#906,1000.);
#134=VECTOR('',#909,1000.);
#135=VECTOR('',#914,1000.);
#136=VECTOR('',#915,1000.);
#137=VECTOR('',#916,1000.);
#138=VECTOR('',#919,1000.);
#139=VECTOR('',#920,1000.);
#140=VECTOR('',#921,1000.);
#141=VECTOR('',#922,1000.);
#142=VECTOR('',#923,1000.);
#143=VECTOR('',#926,1000.);
#144=VECTOR('',#927,1000.);
#145=VECTOR('',#928,1000.);
#146=VECTOR('',#931,1000.);
#147=VECTOR('',#932,1000.);
#148=VECTOR('',#933,1000.);
#149=VECTOR('',#934,1000.);
#150=VECTOR('',#935,1000.);
#151=VECTOR('',#966,1000.);
#152=VECTOR('',#969,1000.);
#153=VECTOR('',#976,1000.);
#154=VECTOR('',#981,1000.);
#155=VECTOR('',#986,1000.);
#156=VECTOR('',#991,1000.);
#157=VECTOR('',#1000,1000.);
#158=VECTOR('',#1001,1000.);
#159=VECTOR('',#1004,1000.);
#160=VECTOR('',#1007,1000.);
#161=VECTOR('',#1008,1000.);
#162=VECTOR('',#1011,1000.);
#163=VECTOR('',#1028,1000.);
#164=VECTOR('',#1031,1000.);
#165=VECTOR('',#1034,1000.);
#166=VECTOR('',#1037,1000.);
#167=VECTOR('',#1042,1000.);
#168=VECTOR('',#1043,1000.);
#169=VECTOR('',#1044,1000.);
#170=VECTOR('',#1047,1000.);
#171=VECTOR('',#1048,1000.);
#172=VECTOR('',#1049,1000.);
#173=VECTOR('',#1050,1000.);
#174=VECTOR('',#1051,1000.);
#175=VECTOR('',#1054,1000.);
#176=VECTOR('',#1055,1000.);
#177=VECTOR('',#1056,1000.);
#178=VECTOR('',#1059,1000.);
#179=VECTOR('',#1060,1000.);
#180=VECTOR('',#1061,1000.);
#181=VECTOR('',#1062,1000.);
#182=VECTOR('',#1063,1000.);
#183=PLANE('',#792);
#184=PLANE('',#793);
#185=PLANE('',#798);
#186=PLANE('',#799);
#187=PLANE('',#800);
#188=PLANE('',#801);
#189=PLANE('',#802);
#190=PLANE('',#806);
#191=PLANE('',#818);
#192=PLANE('',#824);
#193=PLANE('',#832);
#194=PLANE('',#833);
#195=PLANE('',#840);
#196=PLANE('',#841);
#197=PLANE('',#846);
#198=PLANE('',#847);
#199=PLANE('',#848);
#200=PLANE('',#849);
#201=PLANE('',#850);
#202=PLANE('',#854);
#203=PLANE('',#869);
#204=PLANE('',#870);
#205=PLANE('',#871);
#206=ORIENTED_EDGE('',*,*,#390,.T.);
#207=ORIENTED_EDGE('',*,*,#391,.F.);
#208=ORIENTED_EDGE('',*,*,#391,.T.);
#209=ORIENTED_EDGE('',*,*,#392,.F.);
#210=ORIENTED_EDGE('',*,*,#393,.T.);
#211=ORIENTED_EDGE('',*,*,#394,.F.);
#212=ORIENTED_EDGE('',*,*,#395,.T.);
#213=ORIENTED_EDGE('',*,*,#396,.F.);
#214=ORIENTED_EDGE('',*,*,#397,.T.);
#215=ORIENTED_EDGE('',*,*,#398,.F.);
#216=ORIENTED_EDGE('',*,*,#399,.T.);
#217=ORIENTED_EDGE('',*,*,#400,.T.);
#218=ORIENTED_EDGE('',*,*,#401,.F.);
#219=ORIENTED_EDGE('',*,*,#402,.T.);
#220=ORIENTED_EDGE('',*,*,#394,.T.);
#221=ORIENTED_EDGE('',*,*,#403,.F.);
#222=ORIENTED_EDGE('',*,*,#404,.T.);
#223=ORIENTED_EDGE('',*,*,#392,.T.);
#224=ORIENTED_EDGE('',*,*,#405,.T.);
#225=ORIENTED_EDGE('',*,*,#406,.T.);
#226=ORIENTED_EDGE('',*,*,#407,.F.);
#227=ORIENTED_EDGE('',*,*,#398,.T.);
#228=ORIENTED_EDGE('',*,*,#408,.T.);
#229=ORIENTED_EDGE('',*,*,#409,.F.);
#230=ORIENTED_EDGE('',*,*,#410,.T.);
#231=ORIENTED_EDGE('',*,*,#411,.T.);
#232=ORIENTED_EDGE('',*,*,#412,.F.);
#233=ORIENTED_EDGE('',*,*,#413,.T.);
#234=ORIENTED_EDGE('',*,*,#414,.T.);
#235=ORIENTED_EDGE('',*,*,#415,.T.);
#236=ORIENTED_EDGE('',*,*,#396,.T.);
#237=ORIENTED_EDGE('',*,*,#406,.F.);
#238=ORIENTED_EDGE('',*,*,#416,.T.);
#239=ORIENTED_EDGE('',*,*,#409,.T.);
#240=ORIENTED_EDGE('',*,*,#417,.T.);
#241=ORIENTED_EDGE('',*,*,#414,.F.);
#242=ORIENTED_EDGE('',*,*,#418,.F.);
#243=ORIENTED_EDGE('',*,*,#419,.T.);
#244=ORIENTED_EDGE('',*,*,#403,.T.);
#245=ORIENTED_EDGE('',*,*,#420,.T.);
#246=ORIENTED_EDGE('',*,*,#412,.T.);
#247=ORIENTED_EDGE('',*,*,#421,.T.);
#248=ORIENTED_EDGE('',*,*,#401,.T.);
#249=ORIENTED_EDGE('',*,*,#390,.F.);
#250=ORIENTED_EDGE('',*,*,#418,.T.);
#251=ORIENTED_EDGE('',*,*,#413,.F.);
#252=ORIENTED_EDGE('',*,*,#420,.F.);
#253=ORIENTED_EDGE('',*,*,#407,.T.);
#254=ORIENTED_EDGE('',*,*,#417,.F.);
#255=ORIENTED_EDGE('',*,*,#408,.F.);
#256=ORIENTED_EDGE('',*,*,#397,.F.);
#257=ORIENTED_EDGE('',*,*,#415,.F.);
#258=ORIENTED_EDGE('',*,*,#416,.F.);
#259=ORIENTED_EDGE('',*,*,#405,.F.);
#260=ORIENTED_EDGE('',*,*,#399,.F.);
#261=ORIENTED_EDGE('',*,*,#410,.F.);
#262=ORIENTED_EDGE('',*,*,#404,.F.);
#263=ORIENTED_EDGE('',*,*,#419,.F.);
#264=ORIENTED_EDGE('',*,*,#400,.F.);
#265=ORIENTED_EDGE('',*,*,#393,.F.);
#266=ORIENTED_EDGE('',*,*,#402,.F.);
#267=ORIENTED_EDGE('',*,*,#421,.F.);
#268=ORIENTED_EDGE('',*,*,#411,.F.);
#269=ORIENTED_EDGE('',*,*,#395,.F.);
#270=ORIENTED_EDGE('',*,*,#422,.F.);
#271=ORIENTED_EDGE('',*,*,#423,.F.);
#272=ORIENTED_EDGE('',*,*,#424,.F.);
#273=ORIENTED_EDGE('',*,*,#425,.F.);
#274=ORIENTED_EDGE('',*,*,#426,.T.);
#275=ORIENTED_EDGE('',*,*,#427,.T.);
#276=ORIENTED_EDGE('',*,*,#428,.T.);
#277=ORIENTED_EDGE('',*,*,#429,.T.);
#278=ORIENTED_EDGE('',*,*,#430,.T.);
#279=ORIENTED_EDGE('',*,*,#422,.T.);
#280=ORIENTED_EDGE('',*,*,#431,.F.);
#281=ORIENTED_EDGE('',*,*,#432,.T.);
#282=ORIENTED_EDGE('',*,*,#433,.F.);
#283=ORIENTED_EDGE('',*,*,#424,.T.);
#284=ORIENTED_EDGE('',*,*,#434,.F.);
#285=ORIENTED_EDGE('',*,*,#435,.T.);
#286=ORIENTED_EDGE('',*,*,#436,.T.);
#287=ORIENTED_EDGE('',*,*,#437,.T.);
#288=ORIENTED_EDGE('',*,*,#438,.F.);
#289=ORIENTED_EDGE('',*,*,#439,.T.);
#290=ORIENTED_EDGE('',*,*,#440,.T.);
#291=ORIENTED_EDGE('',*,*,#426,.F.);
#292=ORIENTED_EDGE('',*,*,#441,.T.);
#293=ORIENTED_EDGE('',*,*,#438,.T.);
#294=ORIENTED_EDGE('',*,*,#423,.T.);
#295=ORIENTED_EDGE('',*,*,#430,.F.);
#296=ORIENTED_EDGE('',*,*,#442,.T.);
#297=ORIENTED_EDGE('',*,*,#434,.T.);
#298=ORIENTED_EDGE('',*,*,#436,.F.);
#299=ORIENTED_EDGE('',*,*,#443,.T.);
#300=ORIENTED_EDGE('',*,*,#428,.F.);
#301=ORIENTED_EDGE('',*,*,#444,.T.);
#302=ORIENTED_EDGE('',*,*,#431,.T.);
#303=ORIENTED_EDGE('',*,*,#425,.T.);
#304=ORIENTED_EDGE('',*,*,#433,.T.);
#305=ORIENTED_EDGE('',*,*,#445,.T.);
#306=ORIENTED_EDGE('',*,*,#439,.F.);
#307=ORIENTED_EDGE('',*,*,#441,.F.);
#308=ORIENTED_EDGE('',*,*,#432,.F.);
#309=ORIENTED_EDGE('',*,*,#445,.F.);
#310=ORIENTED_EDGE('',*,*,#435,.F.);
#311=ORIENTED_EDGE('',*,*,#442,.F.);
#312=ORIENTED_EDGE('',*,*,#429,.F.);
#313=ORIENTED_EDGE('',*,*,#443,.F.);
#314=ORIENTED_EDGE('',*,*,#437,.F.);
#315=ORIENTED_EDGE('',*,*,#444,.F.);
#316=ORIENTED_EDGE('',*,*,#427,.F.);
#317=ORIENTED_EDGE('',*,*,#440,.F.);
#318=ORIENTED_EDGE('',*,*,#446,.T.);
#319=ORIENTED_EDGE('',*,*,#447,.F.);
#320=ORIENTED_EDGE('',*,*,#447,.T.);
#321=ORIENTED_EDGE('',*,*,#448,.F.);
#322=ORIENTED_EDGE('',*,*,#449,.T.);
#323=ORIENTED_EDGE('',*,*,#450,.F.);
#324=ORIENTED_EDGE('',*,*,#451,.T.);
#325=ORIENTED_EDGE('',*,*,#452,.F.);
#326=ORIENTED_EDGE('',*,*,#453,.T.);
#327=ORIENTED_EDGE('',*,*,#454,.F.);
#328=ORIENTED_EDGE('',*,*,#455,.T.);
#329=ORIENTED_EDGE('',*,*,#456,.T.);
#330=ORIENTED_EDGE('',*,*,#457,.F.);
#331=ORIENTED_EDGE('',*,*,#458,.T.);
#332=ORIENTED_EDGE('',*,*,#450,.T.);
#333=ORIENTED_EDGE('',*,*,#459,.F.);
#334=ORIENTED_EDGE('',*,*,#460,.T.);
#335=ORIENTED_EDGE('',*,*,#448,.T.);
#336=ORIENTED_EDGE('',*,*,#461,.T.);
#337=ORIENTED_EDGE('',*,*,#462,.T.);
#338=ORIENTED_EDGE('',*,*,#463,.F.);
#339=ORIENTED_EDGE('',*,*,#454,.T.);
#340=ORIENTED_EDGE('',*,*,#464,.T.);
#341=ORIENTED_EDGE('',*,*,#465,.F.);
#342=ORIENTED_EDGE('',*,*,#466,.T.);
#343=ORIENTED_EDGE('',*,*,#467,.T.);
#344=ORIENTED_EDGE('',*,*,#468,.F.);
#345=ORIENTED_EDGE('',*,*,#469,.T.);
#346=ORIENTED_EDGE('',*,*,#470,.T.);
#347=ORIENTED_EDGE('',*,*,#471,.T.);
#348=ORIENTED_EDGE('',*,*,#452,.T.);
#349=ORIENTED_EDGE('',*,*,#462,.F.);
#350=ORIENTED_EDGE('',*,*,#472,.T.);
#351=ORIENTED_EDGE('',*,*,#465,.T.);
#352=ORIENTED_EDGE('',*,*,#473,.T.);
#353=ORIENTED_EDGE('',*,*,#470,.F.);
#354=ORIENTED_EDGE('',*,*,#474,.F.);
#355=ORIENTED_EDGE('',*,*,#475,.T.);
#356=ORIENTED_EDGE('',*,*,#459,.T.);
#357=ORIENTED_EDGE('',*,*,#476,.T.);
#358=ORIENTED_EDGE('',*,*,#468,.T.);
#359=ORIENTED_EDGE('',*,*,#477,.T.);
#360=ORIENTED_EDGE('',*,*,#457,.T.);
#361=ORIENTED_EDGE('',*,*,#446,.F.);
#362=ORIENTED_EDGE('',*,*,#474,.T.);
#363=ORIENTED_EDGE('',*,*,#469,.F.);
#364=ORIENTED_EDGE('',*,*,#476,.F.);
#365=ORIENTED_EDGE('',*,*,#463,.T.);
#366=ORIENTED_EDGE('',*,*,#473,.F.);
#367=ORIENTED_EDGE('',*,*,#464,.F.);
#368=ORIENTED_EDGE('',*,*,#453,.F.);
#369=ORIENTED_EDGE('',*,*,#471,.F.);
#370=ORIENTED_EDGE('',*,*,#472,.F.);
#371=ORIENTED_EDGE('',*,*,#461,.F.);
#372=ORIENTED_EDGE('',*,*,#455,.F.);
#373=ORIENTED_EDGE('',*,*,#466,.F.);
#374=ORIENTED_EDGE('',*,*,#460,.F.);
#375=ORIENTED_EDGE('',*,*,#475,.F.);
#376=ORIENTED_EDGE('',*,*,#456,.F.);
#377=ORIENTED_EDGE('',*,*,#449,.F.);
#378=ORIENTED_EDGE('',*,*,#458,.F.);
#379=ORIENTED_EDGE('',*,*,#477,.F.);
#380=ORIENTED_EDGE('',*,*,#467,.F.);
#381=ORIENTED_EDGE('',*,*,#451,.F.);
#382=ORIENTED_EDGE('',*,*,#478,.F.);
#383=ORIENTED_EDGE('',*,*,#479,.T.);
#384=ORIENTED_EDGE('',*,*,#480,.T.);
#385=ORIENTED_EDGE('',*,*,#481,.F.);
#386=ORIENTED_EDGE('',*,*,#480,.F.);
#387=ORIENTED_EDGE('',*,*,#481,.T.);
#388=ORIENTED_EDGE('',*,*,#479,.F.);
#389=ORIENTED_EDGE('',*,*,#478,.T.);
#390=EDGE_CURVE('NONE',#482,#482,#546,.T.);
#391=EDGE_CURVE('NONE',#483,#483,#547,.T.);
#392=EDGE_CURVE('NONE',#484,#485,#79,.T.);
#393=EDGE_CURVE('NONE',#484,#486,#548,.T.);
#394=EDGE_CURVE('NONE',#487,#486,#80,.T.);
#395=EDGE_CURVE('NONE',#487,#488,#549,.T.);
#396=EDGE_CURVE('NONE',#489,#488,#81,.T.);
#397=EDGE_CURVE('NONE',#489,#490,#550,.T.);
#398=EDGE_CURVE('NONE',#491,#490,#82,.T.);
#399=EDGE_CURVE('NONE',#491,#485,#551,.T.);
#400=EDGE_CURVE('NONE',#486,#492,#83,.T.);
#401=EDGE_CURVE('NONE',#493,#492,#84,.T.);
#402=EDGE_CURVE('NONE',#493,#487,#85,.T.);
#403=EDGE_CURVE('NONE',#494,#495,#86,.T.);
#404=EDGE_CURVE('NONE',#494,#484,#87,.T.);
#405=EDGE_CURVE('NONE',#485,#496,#88,.T.);
#406=EDGE_CURVE('NONE',#496,#497,#89,.T.);
#407=EDGE_CURVE('NONE',#495,#497,#90,.T.);
#408=EDGE_CURVE('NONE',#490,#498,#91,.T.);
#409=EDGE_CURVE('NONE',#499,#498,#92,.T.);
#410=EDGE_CURVE('NONE',#499,#491,#93,.T.);
#411=EDGE_CURVE('NONE',#488,#500,#94,.T.);
#412=EDGE_CURVE('NONE',#501,#500,#95,.T.);
#413=EDGE_CURVE('NONE',#501,#502,#96,.T.);
#414=EDGE_CURVE('NONE',#502,#503,#97,.T.);
#415=EDGE_CURVE('NONE',#503,#489,#98,.T.);
#416=EDGE_CURVE('NONE',#496,#499,#552,.T.);
#417=EDGE_CURVE('NONE',#498,#503,#553,.T.);
#418=EDGE_CURVE('NONE',#497,#502,#554,.T.);
#419=EDGE_CURVE('NONE',#492,#494,#555,.T.);
#420=EDGE_CURVE('NONE',#495,#501,#556,.T.);
#421=EDGE_CURVE('NONE',#500,#493,#557,.T.);
#422=EDGE_CURVE('NONE',#504,#505,#558,.T.);
#423=EDGE_CURVE('NONE',#506,#504,#99,.T.);
#424=EDGE_CURVE('NONE',#507,#506,#559,.T.);
#425=EDGE_CURVE('NONE',#505,#507,#100,.T.);
#426=EDGE_CURVE('NONE',#508,#509,#560,.T.);
#427=EDGE_CURVE('NONE',#509,#510,#561,.T.);
#428=EDGE_CURVE('NONE',#510,#511,#101,.T.);
#429=EDGE_CURVE('NONE',#511,#512,#562,.T.);
#430=EDGE_CURVE('NONE',#512,#504,#563,.T.);
#431=EDGE_CURVE('NONE',#513,#505,#102,.T.);
#432=EDGE_CURVE('NONE',#513,#508,#564,.T.);
#433=EDGE_CURVE('NONE',#507,#514,#103,.T.);
#434=EDGE_CURVE('NONE',#515,#506,#565,.T.);
#435=EDGE_CURVE('NONE',#515,#516,#566,.T.);
#436=EDGE_CURVE('NONE',#516,#517,#104,.T.);
#437=EDGE_CURVE('NONE',#517,#518,#567,.T.);
#438=EDGE_CURVE('NONE',#519,#518,#568,.T.);
#439=EDGE_CURVE('NONE',#519,#514,#569,.T.);
#440=EDGE_CURVE('NONE',#518,#509,#105,.T.);
#441=EDGE_CURVE('NONE',#508,#519,#106,.T.);
#442=EDGE_CURVE('NONE',#512,#515,#107,.T.);
#443=EDGE_CURVE('NONE',#516,#511,#108,.T.);
#444=EDGE_CURVE('NONE',#510,#517,#109,.T.);
#445=EDGE_CURVE('NONE',#514,#513,#110,.T.);
#446=EDGE_CURVE('NONE',#520,#520,#570,.T.);
#447=EDGE_CURVE('NONE',#521,#521,#571,.T.);
#448=EDGE_CURVE('NONE',#522,#523,#111,.T.);
#449=EDGE_CURVE('NONE',#522,#524,#572,.T.);
#450=EDGE_CURVE('NONE',#525,#524,#112,.T.);
#451=EDGE_CURVE('NONE',#525,#526,#573,.T.);
#452=EDGE_CURVE('NONE',#527,#526,#113,.T.);
#453=EDGE_CURVE('NONE',#527,#528,#574,.T.);
#454=EDGE_CURVE('NONE',#529,#528,#114,.T.);
#455=EDGE_CURVE('NONE',#529,#523,#575,.T.);
#456=EDGE_CURVE('NONE',#524,#530,#115,.T.);
#457=EDGE_CURVE('NONE',#531,#530,#116,.T.);
#458=EDGE_CURVE('NONE',#531,#525,#117,.T.);
#459=EDGE_CURVE('NONE',#532,#533,#118,.T.);
#460=EDGE_CURVE('NONE',#532,#522,#119,.T.);
#461=EDGE_CURVE('NONE',#523,#534,#120,.T.);
#462=EDGE_CURVE('NONE',#534,#535,#121,.T.);
#463=EDGE_CURVE('NONE',#533,#535,#122,.T.);
#464=EDGE_CURVE('NONE',#528,#536,#123,.T.);
#465=EDGE_CURVE('NONE',#537,#536,#124,.T.);
#466=EDGE_CURVE('NONE',#537,#529,#125,.T.);
#467=EDGE_CURVE('NONE',#526,#538,#126,.T.);
#468=EDGE_CURVE('NONE',#539,#538,#127,.T.);
#469=EDGE_CURVE('NONE',#539,#540,#128,.T.);
#470=EDGE_CURVE('NONE',#540,#541,#129,.T.);
#471=EDGE_CURVE('NONE',#541,#527,#130,.T.);
#472=EDGE_CURVE('NONE',#534,#537,#576,.T.);
#473=EDGE_CURVE('NONE',#536,#541,#577,.T.);
#474=EDGE_CURVE('NONE',#535,#540,#578,.T.);
#475=EDGE_CURVE('NONE',#530,#532,#579,.T.);
#476=EDGE_CURVE('NONE',#533,#539,#580,.T.);
#477=EDGE_CURVE('NONE',#538,#531,#581,.T.);
#478=EDGE_CURVE('NONE',#542,#542,#582,.T.);
#479=EDGE_CURVE('NONE',#543,#543,#583,.T.);
#480=EDGE_CURVE('NONE',#544,#544,#584,.T.);
#481=EDGE_CURVE('NONE',#545,#545,#585,.T.);
#482=VERTEX_POINT('',#1143);
#483=VERTEX_POINT('',#1145);
#484=VERTEX_POINT('',#1149);
#485=VERTEX_POINT('',#1150);
#486=VERTEX_POINT('',#1152);
#487=VERTEX_POINT('',#1154);
#488=VERTEX_POINT('',#1156);
#489=VERTEX_POINT('',#1158);
#490=VERTEX_POINT('',#1160);
#491=VERTEX_POINT('',#1162);
#492=VERTEX_POINT('',#1166);
#493=VERTEX_POINT('',#1168);
#494=VERTEX_POINT('',#1172);
#495=VERTEX_POINT('',#1173);
#496=VERTEX_POINT('',#1176);
#497=VERTEX_POINT('',#1178);
#498=VERTEX_POINT('',#1182);
#499=VERTEX_POINT('',#1184);
#500=VERTEX_POINT('',#1188);
#501=VERTEX_POINT('',#1190);
#502=VERTEX_POINT('',#1192);
#503=VERTEX_POINT('',#1194);
#504=VERTEX_POINT('',#1211);
#505=VERTEX_POINT('',#1212);
#506=VERTEX_POINT('',#1214);
#507=VERTEX_POINT('',#1216);
#508=VERTEX_POINT('',#1220);
#509=VERTEX_POINT('',#1221);
#510=VERTEX_POINT('',#1223);
#511=VERTEX_POINT('',#1225);
#512=VERTEX_POINT('',#1227);
#513=VERTEX_POINT('',#1230);
#514=VERTEX_POINT('',#1234);
#515=VERTEX_POINT('',#1236);
#516=VERTEX_POINT('',#1238);
#517=VERTEX_POINT('',#1240);
#518=VERTEX_POINT('',#1242);
#519=VERTEX_POINT('',#1244);
#520=VERTEX_POINT('',#1261);
#521=VERTEX_POINT('',#1263);
#522=VERTEX_POINT('',#1267);
#523=VERTEX_POINT('',#1268);
#524=VERTEX_POINT('',#1270);
#525=VERTEX_POINT('',#1272);
#526=VERTEX_POINT('',#1274);
#527=VERTEX_POINT('',#1276);
#528=VERTEX_POINT('',#1278);
#529=VERTEX_POINT('',#1280);
#530=VERTEX_POINT('',#1284);
#531=VERTEX_POINT('',#1286);
#532=VERTEX_POINT('',#1290);
#533=VERTEX_POINT('',#1291);
#534=VERTEX_POINT('',#1294);
#535=VERTEX_POINT('',#1296);
#536=VERTEX_POINT('',#1300);
#537=VERTEX_POINT('',#1302);
#538=VERTEX_POINT('',#1306);
#539=VERTEX_POINT('',#1308);
#540=VERTEX_POINT('',#1310);
#541=VERTEX_POINT('',#1312);
#542=VERTEX_POINT('',#1329);
#543=VERTEX_POINT('',#1331);
#544=VERTEX_POINT('',#1334);
#545=VERTEX_POINT('',#1336);
#546=CIRCLE('',#790,4.99);
#547=CIRCLE('',#791,4.99);
#548=CIRCLE('',#794,1.);
#549=CIRCLE('',#795,1.);
#550=CIRCLE('',#796,0.5);
#551=CIRCLE('',#797,0.5);
#552=CIRCLE('',#803,0.5);
#553=CIRCLE('',#804,0.5);
#554=CIRCLE('',#805,7.5);
#555=CIRCLE('',#807,1.);
#556=CIRCLE('',#808,7.5);
#557=CIRCLE('',#809,1.);
#558=CIRCLE('',#816,1.);
#559=CIRCLE('',#817,1.);
#560=CIRCLE('',#819,28.5);
#561=CIRCLE('',#820,1.);
#562=CIRCLE('',#821,1.);
#563=CIRCLE('',#822,28.5);
#564=CIRCLE('',#823,1.);
#565=CIRCLE('',#825,28.5);
#566=CIRCLE('',#826,1.);
#567=CIRCLE('',#827,1.);
#568=CIRCLE('',#828,28.5);
#569=CIRCLE('',#829,1.);
#570=CIRCLE('',#838,4.99);
#571=CIRCLE('',#839,4.99);
#572=CIRCLE('',#842,1.);
#573=CIRCLE('',#843,1.);
#574=CIRCLE('',#844,0.5);
#575=CIRCLE('',#845,0.5);
#576=CIRCLE('',#851,0.5);
#577=CIRCLE('',#852,0.5);
#578=CIRCLE('',#853,7.5);
#579=CIRCLE('',#855,1.);
#580=CIRCLE('',#856,7.5);
#581=CIRCLE('',#857,1.);
#582=CIRCLE('',#864,17.5);
#583=CIRCLE('',#865,17.5);
#584=CIRCLE('',#867,28.5);
#585=CIRCLE('',#868,28.5);
#586=EDGE_LOOP('',(#206));
#587=EDGE_LOOP('',(#207));
#588=EDGE_LOOP('',(#208));
#589=EDGE_LOOP('',(#209,#210,#211,#212,#213,#214,#215,#216));
#590=EDGE_LOOP('',(#217,#218,#219,#220));
#591=EDGE_LOOP('',(#221,#222,#223,#224,#225,#226));
#592=EDGE_LOOP('',(#227,#228,#229,#230));
#593=EDGE_LOOP('',(#231,#232,#233,#234,#235,#236));
#594=EDGE_LOOP('',(#237,#238,#239,#240,#241,#242));
#595=EDGE_LOOP('',(#243,#244,#245,#246,#247,#248));
#596=EDGE_LOOP('',(#249));
#597=EDGE_LOOP('',(#250,#251,#252,#253));
#598=EDGE_LOOP('',(#254,#255,#256,#257));
#599=EDGE_LOOP('',(#258,#259,#260,#261));
#600=EDGE_LOOP('',(#262,#263,#264,#265));
#601=EDGE_LOOP('',(#266,#267,#268,#269));
#602=EDGE_LOOP('',(#270,#271,#272,#273));
#603=EDGE_LOOP('',(#274,#275,#276,#277,#278,#279,#280,#281));
#604=EDGE_LOOP('',(#282,#283,#284,#285,#286,#287,#288,#289));
#605=EDGE_LOOP('',(#290,#291,#292,#293));
#606=EDGE_LOOP('',(#294,#295,#296,#297));
#607=EDGE_LOOP('',(#298,#299,#300,#301));
#608=EDGE_LOOP('',(#302,#303,#304,#305));
#609=EDGE_LOOP('',(#306,#307,#308,#309));
#610=EDGE_LOOP('',(#310,#311,#312,#313));
#611=EDGE_LOOP('',(#314,#315,#316,#317));
#612=EDGE_LOOP('',(#318));
#613=EDGE_LOOP('',(#319));
#614=EDGE_LOOP('',(#320));
#615=EDGE_LOOP('',(#321,#322,#323,#324,#325,#326,#327,#328));
#616=EDGE_LOOP('',(#329,#330,#331,#332));
#617=EDGE_LOOP('',(#333,#334,#335,#336,#337,#338));
#618=EDGE_LOOP('',(#339,#340,#341,#342));
#619=EDGE_LOOP('',(#343,#344,#345,#346,#347,#348));
#620=EDGE_LOOP('',(#349,#350,#351,#352,#353,#354));
#621=EDGE_LOOP('',(#355,#356,#357,#358,#359,#360));
#622=EDGE_LOOP('',(#361));
#623=EDGE_LOOP('',(#362,#363,#364,#365));
#624=EDGE_LOOP('',(#366,#367,#368,#369));
#625=EDGE_LOOP('',(#370,#371,#372,#373));
#626=EDGE_LOOP('',(#374,#375,#376,#377));
#627=EDGE_LOOP('',(#378,#379,#380,#381));
#628=EDGE_LOOP('',(#382));
#629=EDGE_LOOP('',(#383));
#630=EDGE_LOOP('',(#384));
#631=EDGE_LOOP('',(#385));
#632=EDGE_LOOP('',(#386));
#633=EDGE_LOOP('',(#387));
#634=EDGE_LOOP('',(#388));
#635=EDGE_LOOP('',(#389));
#636=FACE_BOUND('',#586,.T.);
#637=FACE_BOUND('',#587,.T.);
#638=FACE_BOUND('',#588,.T.);
#639=FACE_BOUND('',#589,.T.);
#640=FACE_BOUND('',#590,.T.);
#641=FACE_BOUND('',#591,.T.);
#642=FACE_BOUND('',#592,.T.);
#643=FACE_BOUND('',#593,.T.);
#644=FACE_BOUND('',#594,.T.);
#645=FACE_BOUND('',#595,.T.);
#646=FACE_BOUND('',#596,.T.);
#647=FACE_BOUND('',#597,.T.);
#648=FACE_BOUND('',#598,.T.);
#649=FACE_BOUND('',#599,.T.);
#650=FACE_BOUND('',#600,.T.);
#651=FACE_BOUND('',#601,.T.);
#652=FACE_BOUND('',#602,.T.);
#653=FACE_BOUND('',#603,.T.);
#654=FACE_BOUND('',#604,.T.);
#655=FACE_BOUND('',#605,.T.);
#656=FACE_BOUND('',#606,.T.);
#657=FACE_BOUND('',#607,.T.);
#658=FACE_BOUND('',#608,.T.);
#659=FACE_BOUND('',#609,.T.);
#660=FACE_BOUND('',#610,.T.);
#661=FACE_BOUND('',#611,.T.);
#662=FACE_BOUND('',#612,.T.);
#663=FACE_BOUND('',#613,.T.);
#664=FACE_BOUND('',#614,.T.);
#665=FACE_BOUND('',#615,.T.);
#666=FACE_BOUND('',#616,.T.);
#667=FACE_BOUND('',#617,.T.);
#668=FACE_BOUND('',#618,.T.);
#669=FACE_BOUND('',#619,.T.);
#670=FACE_BOUND('',#620,.T.);
#671=FACE_BOUND('',#621,.T.);
#672=FACE_BOUND('',#622,.T.);
#673=FACE_BOUND('',#623,.T.);
#674=FACE_BOUND('',#624,.T.);
#675=FACE_BOUND('',#625,.T.);
#676=FACE_BOUND('',#626,.T.);
#677=FACE_BOUND('',#627,.T.);
#678=FACE_BOUND('',#628,.T.);
#679=FACE_BOUND('',#629,.T.);
#680=FACE_BOUND('',#630,.T.);
#681=FACE_BOUND('',#631,.T.);
#682=FACE_BOUND('',#632,.T.);
#683=FACE_BOUND('',#633,.T.);
#684=FACE_BOUND('',#634,.T.);
#685=FACE_BOUND('',#635,.T.);
#686=CYLINDRICAL_SURFACE('',#789,4.99);
#687=CYLINDRICAL_SURFACE('',#810,7.5);
#688=CYLINDRICAL_SURFACE('',#811,0.5);
#689=CYLINDRICAL_SURFACE('',#812,0.5);
#690=CYLINDRICAL_SURFACE('',#813,1.);
#691=CYLINDRICAL_SURFACE('',#814,1.);
#692=CYLINDRICAL_SURFACE('',#815,1.);
#693=CYLINDRICAL_SURFACE('',#830,28.5);
#694=CYLINDRICAL_SURFACE('',#831,28.5);
#695=CYLINDRICAL_SURFACE('',#834,1.);
#696=CYLINDRICAL_SURFACE('',#835,1.);
#697=CYLINDRICAL_SURFACE('',#836,1.);
#698=CYLINDRICAL_SURFACE('',#837,4.99);
#699=CYLINDRICAL_SURFACE('',#858,7.5);
#700=CYLINDRICAL_SURFACE('',#859,0.5);
#701=CYLINDRICAL_SURFACE('',#860,0.5);
#702=CYLINDRICAL_SURFACE('',#861,1.);
#703=CYLINDRICAL_SURFACE('',#862,1.);
#704=CYLINDRICAL_SURFACE('',#863,17.5);
#705=CYLINDRICAL_SURFACE('',#866,28.5);
#706=ADVANCED_FACE('NONE',(#636,#637),#686,.T.);
#707=ADVANCED_FACE('NONE',(#638),#183,.T.);
#708=ADVANCED_FACE('NONE',(#639),#184,.T.);
#709=ADVANCED_FACE('NONE',(#640),#185,.F.);
#710=ADVANCED_FACE('NONE',(#641),#186,.F.);
#711=ADVANCED_FACE('NONE',(#642),#187,.F.);
#712=ADVANCED_FACE('NONE',(#643),#188,.F.);
#713=ADVANCED_FACE('NONE',(#644),#189,.F.);
#714=ADVANCED_FACE('NONE',(#645,#646),#190,.T.);
#715=ADVANCED_FACE('NONE',(#647),#687,.T.);
#716=ADVANCED_FACE('NONE',(#648),#688,.T.);
#717=ADVANCED_FACE('NONE',(#649),#689,.T.);
#718=ADVANCED_FACE('NONE',(#650),#690,.T.);
#719=ADVANCED_FACE('NONE',(#651),#691,.T.);
#720=ADVANCED_FACE('NONE',(#652),#692,.T.);
#721=ADVANCED_FACE('NONE',(#653),#191,.T.);
#722=ADVANCED_FACE('NONE',(#654),#192,.F.);
#723=ADVANCED_FACE('NONE',(#655),#693,.T.);
#724=ADVANCED_FACE('NONE',(#656),#694,.T.);
#725=ADVANCED_FACE('NONE',(#657),#193,.T.);
#726=ADVANCED_FACE('NONE',(#658),#194,.F.);
#727=ADVANCED_FACE('NONE',(#659),#695,.T.);
#728=ADVANCED_FACE('NONE',(#660),#696,.T.);
#729=ADVANCED_FACE('NONE',(#661),#697,.T.);
#730=ADVANCED_FACE('NONE',(#662,#663),#698,.T.);
#731=ADVANCED_FACE('NONE',(#664),#195,.T.);
#732=ADVANCED_FACE('NONE',(#665),#196,.T.);
#733=ADVANCED_FACE('NONE',(#666),#197,.F.);
#734=ADVANCED_FACE('NONE',(#667),#198,.F.);
#735=ADVANCED_FACE('NONE',(#668),#199,.F.);
#736=ADVANCED_FACE('NONE',(#669),#200,.F.);
#737=ADVANCED_FACE('NONE',(#670),#201,.F.);
#738=ADVANCED_FACE('NONE',(#671,#672),#202,.T.);
#739=ADVANCED_FACE('NONE',(#673),#699,.T.);
#740=ADVANCED_FACE('NONE',(#674),#700,.T.);
#741=ADVANCED_FACE('NONE',(#675),#701,.T.);
#742=ADVANCED_FACE('NONE',(#676),#702,.T.);
#743=ADVANCED_FACE('NONE',(#677),#703,.T.);
#744=ADVANCED_FACE('NONE',(#678,#679),#704,.T.);
#745=ADVANCED_FACE('NONE',(#680,#681),#705,.T.);
#746=ADVANCED_FACE('NONE',(#682),#203,.T.);
#747=ADVANCED_FACE('NONE',(#683,#684),#204,.T.);
#748=ADVANCED_FACE('NONE',(#685),#205,.T.);
#749=CLOSED_SHELL('',(#706,#707,#708,#709,#710,#711,#712,#713,#714,#715,
#716,#717,#718,#719));
#750=CLOSED_SHELL('',(#720,#721,#722,#723,#724,#725,#726,#727,#728,#729));
#751=CLOSED_SHELL('',(#730,#731,#732,#733,#734,#735,#736,#737,#738,#739,
#740,#741,#742,#743));
#752=CLOSED_SHELL('',(#744,#745,#746,#747,#748));
#753=STYLED_ITEM('',(#757),#782);
#754=STYLED_ITEM('',(#758),#783);
#755=STYLED_ITEM('',(#759),#784);
#756=STYLED_ITEM('',(#760),#785);
#757=PRESENTATION_STYLE_ASSIGNMENT((#761));
#758=PRESENTATION_STYLE_ASSIGNMENT((#762));
#759=PRESENTATION_STYLE_ASSIGNMENT((#763));
#760=PRESENTATION_STYLE_ASSIGNMENT((#764));
#761=SURFACE_STYLE_USAGE(.BOTH.,#765);
#762=SURFACE_STYLE_USAGE(.BOTH.,#766);
#763=SURFACE_STYLE_USAGE(.BOTH.,#767);
#764=SURFACE_STYLE_USAGE(.BOTH.,#768);
#765=SURFACE_SIDE_STYLE('',(#769));
#766=SURFACE_SIDE_STYLE('',(#770));
#767=SURFACE_SIDE_STYLE('',(#771));
#768=SURFACE_SIDE_STYLE('',(#772));
#769=SURFACE_STYLE_FILL_AREA(#773);
#770=SURFACE_STYLE_FILL_AREA(#774);
#771=SURFACE_STYLE_FILL_AREA(#775);
#772=SURFACE_STYLE_FILL_AREA(#776);
#773=FILL_AREA_STYLE('',(#777));
#774=FILL_AREA_STYLE('',(#778));
#775=FILL_AREA_STYLE('',(#779));
#776=FILL_AREA_STYLE('',(#780));
#777=FILL_AREA_STYLE_COLOUR('',#781);
#778=FILL_AREA_STYLE_COLOUR('',#781);
#779=FILL_AREA_STYLE_COLOUR('',#781);
#780=FILL_AREA_STYLE_COLOUR('',#781);
#781=COLOUR_RGB('',0.811764705882353,0.843137254901961,0.909803921568627);
#782=MANIFOLD_SOLID_BREP('Body (2)',#749);
#783=MANIFOLD_SOLID_BREP('Body (3)',#750);
#784=MANIFOLD_SOLID_BREP('Body (1)',#751);
#785=MANIFOLD_SOLID_BREP('Body (0)',#752);
#786=SHAPE_DEFINITION_REPRESENTATION(#1370,#787);
#787=SHAPE_REPRESENTATION('openarm_right_link6_collision',(#788),#1365);
#788=AXIS2_PLACEMENT_3D('',#1140,#888,#889);
#789=AXIS2_PLACEMENT_3D('',#1141,#890,#891);
#790=AXIS2_PLACEMENT_3D('',#1142,#892,#893);
#791=AXIS2_PLACEMENT_3D('',#1144,#894,#895);
#792=AXIS2_PLACEMENT_3D('',#1146,#896,#897);
#793=AXIS2_PLACEMENT_3D('',#1147,#898,#899);
#794=AXIS2_PLACEMENT_3D('',#1151,#901,#902);
#795=AXIS2_PLACEMENT_3D('',#1155,#904,#905);
#796=AXIS2_PLACEMENT_3D('',#1159,#907,#908);
#797=AXIS2_PLACEMENT_3D('',#1163,#910,#911);
#798=AXIS2_PLACEMENT_3D('',#1164,#912,#913);
#799=AXIS2_PLACEMENT_3D('',#1170,#917,#918);
#800=AXIS2_PLACEMENT_3D('',#1180,#924,#925);
#801=AXIS2_PLACEMENT_3D('',#1186,#929,#930);
#802=AXIS2_PLACEMENT_3D('',#1196,#936,#937);
#803=AXIS2_PLACEMENT_3D('',#1197,#938,#939);
#804=AXIS2_PLACEMENT_3D('',#1198,#940,#941);
#805=AXIS2_PLACEMENT_3D('',#1199,#942,#943);
#806=AXIS2_PLACEMENT_3D('',#1200,#944,#945);
#807=AXIS2_PLACEMENT_3D('',#1201,#946,#947);
#808=AXIS2_PLACEMENT_3D('',#1202,#948,#949);
#809=AXIS2_PLACEMENT_3D('',#1203,#950,#951);
#810=AXIS2_PLACEMENT_3D('',#1204,#952,#953);
#811=AXIS2_PLACEMENT_3D('',#1205,#954,#955);
#812=AXIS2_PLACEMENT_3D('',#1206,#956,#957);
#813=AXIS2_PLACEMENT_3D('',#1207,#958,#959);
#814=AXIS2_PLACEMENT_3D('',#1208,#960,#961);
#815=AXIS2_PLACEMENT_3D('',#1209,#962,#963);
#816=AXIS2_PLACEMENT_3D('',#1210,#964,#965);
#817=AXIS2_PLACEMENT_3D('',#1215,#967,#968);
#818=AXIS2_PLACEMENT_3D('',#1218,#970,#971);
#819=AXIS2_PLACEMENT_3D('',#1219,#972,#973);
#820=AXIS2_PLACEMENT_3D('',#1222,#974,#975);
#821=AXIS2_PLACEMENT_3D('',#1226,#977,#978);
#822=AXIS2_PLACEMENT_3D('',#1228,#979,#980);
#823=AXIS2_PLACEMENT_3D('',#1231,#982,#983);
#824=AXIS2_PLACEMENT_3D('',#1232,#984,#985);
#825=AXIS2_PLACEMENT_3D('',#1235,#987,#988);
#826=AXIS2_PLACEMENT_3D('',#1237,#989,#990);
#827=AXIS2_PLACEMENT_3D('',#1241,#992,#993);
#828=AXIS2_PLACEMENT_3D('',#1243,#994,#995);
#829=AXIS2_PLACEMENT_3D('',#1245,#996,#997);
#830=AXIS2_PLACEMENT_3D('',#1246,#998,#999);
#831=AXIS2_PLACEMENT_3D('',#1249,#1002,#1003);
#832=AXIS2_PLACEMENT_3D('',#1251,#1005,#1006);
#833=AXIS2_PLACEMENT_3D('',#1254,#1009,#1010);
#834=AXIS2_PLACEMENT_3D('',#1256,#1012,#1013);
#835=AXIS2_PLACEMENT_3D('',#1257,#1014,#1015);
#836=AXIS2_PLACEMENT_3D('',#1258,#1016,#1017);
#837=AXIS2_PLACEMENT_3D('',#1259,#1018,#1019);
#838=AXIS2_PLACEMENT_3D('',#1260,#1020,#1021);
#839=AXIS2_PLACEMENT_3D('',#1262,#1022,#1023);
#840=AXIS2_PLACEMENT_3D('',#1264,#1024,#1025);
#841=AXIS2_PLACEMENT_3D('',#1265,#1026,#1027);
#842=AXIS2_PLACEMENT_3D('',#1269,#1029,#1030);
#843=AXIS2_PLACEMENT_3D('',#1273,#1032,#1033);
#844=AXIS2_PLACEMENT_3D('',#1277,#1035,#1036);
#845=AXIS2_PLACEMENT_3D('',#1281,#1038,#1039);
#846=AXIS2_PLACEMENT_3D('',#1282,#1040,#1041);
#847=AXIS2_PLACEMENT_3D('',#1288,#1045,#1046);
#848=AXIS2_PLACEMENT_3D('',#1298,#1052,#1053);
#849=AXIS2_PLACEMENT_3D('',#1304,#1057,#1058);
#850=AXIS2_PLACEMENT_3D('',#1314,#1064,#1065);
#851=AXIS2_PLACEMENT_3D('',#1315,#1066,#1067);
#852=AXIS2_PLACEMENT_3D('',#1316,#1068,#1069);
#853=AXIS2_PLACEMENT_3D('',#1317,#1070,#1071);
#854=AXIS2_PLACEMENT_3D('',#1318,#1072,#1073);
#855=AXIS2_PLACEMENT_3D('',#1319,#1074,#1075);
#856=AXIS2_PLACEMENT_3D('',#1320,#1076,#1077);
#857=AXIS2_PLACEMENT_3D('',#1321,#1078,#1079);
#858=AXIS2_PLACEMENT_3D('',#1322,#1080,#1081);
#859=AXIS2_PLACEMENT_3D('',#1323,#1082,#1083);
#860=AXIS2_PLACEMENT_3D('',#1324,#1084,#1085);
#861=AXIS2_PLACEMENT_3D('',#1325,#1086,#1087);
#862=AXIS2_PLACEMENT_3D('',#1326,#1088,#1089);
#863=AXIS2_PLACEMENT_3D('',#1327,#1090,#1091);
#864=AXIS2_PLACEMENT_3D('',#1328,#1092,#1093);
#865=AXIS2_PLACEMENT_3D('',#1330,#1094,#1095);
#866=AXIS2_PLACEMENT_3D('',#1332,#1096,#1097);
#867=AXIS2_PLACEMENT_3D('',#1333,#1098,#1099);
#868=AXIS2_PLACEMENT_3D('',#1335,#1100,#1101);
#869=AXIS2_PLACEMENT_3D('',#1337,#1102,#1103);
#870=AXIS2_PLACEMENT_3D('',#1338,#1104,#1105);
#871=AXIS2_PLACEMENT_3D('',#1339,#1106,#1107);
#872=AXIS2_PLACEMENT_3D('',#1340,#1108,#1109);
#873=AXIS2_PLACEMENT_3D('',#1342,#1110,#1111);
#874=AXIS2_PLACEMENT_3D('',#1343,#1112,#1113);
#875=AXIS2_PLACEMENT_3D('',#1345,#1114,#1115);
#876=AXIS2_PLACEMENT_3D('',#1346,#1116,#1117);
#877=AXIS2_PLACEMENT_3D('',#1348,#1118,#1119);
#878=AXIS2_PLACEMENT_3D('',#1349,#1120,#1121);
#879=AXIS2_PLACEMENT_3D('',#1351,#1122,#1123);
#880=AXIS2_PLACEMENT_3D('',#1352,#1124,#1125);
#881=AXIS2_PLACEMENT_3D('',#1354,#1126,#1127);
#882=AXIS2_PLACEMENT_3D('',#1355,#1128,#1129);
#883=AXIS2_PLACEMENT_3D('',#1357,#1130,#1131);
#884=AXIS2_PLACEMENT_3D('',#1358,#1132,#1133);
#885=AXIS2_PLACEMENT_3D('',#1360,#1134,#1135);
#886=AXIS2_PLACEMENT_3D('',#1361,#1136,#1137);
#887=AXIS2_PLACEMENT_3D('',#1363,#1138,#1139);
#888=DIRECTION('',(0.,0.,1.));
#889=DIRECTION('',(1.,0.,0.));
#890=DIRECTION('',(0.,1.,0.));
#891=DIRECTION('',(-1.,0.,-7.3E-14));
#892=DIRECTION('',(0.,1.,0.));
#893=DIRECTION('',(-1.,0.,-7.3E-14));
#894=DIRECTION('',(0.,1.,0.));
#895=DIRECTION('',(-1.,0.,-7.3E-14));
#896=DIRECTION('',(0.,1.,0.));
#897=DIRECTION('',(-1.,0.,-7.3E-14));
#898=DIRECTION('',(0.,-1.,0.));
#899=DIRECTION('',(7.3E-14,0.,-1.));
#900=DIRECTION('',(-1.,0.,-7.3E-14));
#901=DIRECTION('',(0.,-1.,0.));
#902=DIRECTION('',(1.,0.,7.3E-14));
#903=DIRECTION('',(7.28843517682682E-14,0.,-1.));
#904=DIRECTION('',(0.,-1.,0.));
#905=DIRECTION('',(1.,0.,7.3E-14));
#906=DIRECTION('',(1.,0.,7.27959148851792E-14));
#907=DIRECTION('',(0.,-1.,0.));
#908=DIRECTION('',(1.,0.,7.3E-14));
#909=DIRECTION('',(-7.28775353200853E-14,0.,1.));
#910=DIRECTION('',(0.,-1.,0.));
#911=DIRECTION('',(1.,0.,7.3E-14));
#912=DIRECTION('',(-1.,0.,-7.28843517682682E-14));
#913=DIRECTION('',(-7.28843517682682E-14,0.,1.));
#914=DIRECTION('',(0.,1.,0.));
#915=DIRECTION('',(7.28843517682682E-14,0.,-1.));
#916=DIRECTION('',(0.,-1.,0.));
#917=DIRECTION('',(-7.3E-14,0.,1.));
#918=DIRECTION('',(-1.,0.,-7.3E-14));
#919=DIRECTION('',(-1.,0.,-7.3E-14));
#920=DIRECTION('',(0.,-1.,0.));
#921=DIRECTION('',(0.,1.,0.));
#922=DIRECTION('',(-1.,0.,-7.3E-14));
#923=DIRECTION('',(0.,-1.,0.));
#924=DIRECTION('',(1.,0.,7.28775353200853E-14));
#925=DIRECTION('',(-7.28775353200853E-14,0.,1.));
#926=DIRECTION('',(0.,1.,0.));
#927=DIRECTION('',(-7.28775353200853E-14,0.,1.));
#928=DIRECTION('',(0.,-1.,0.));
#929=DIRECTION('',(7.27959148851792E-14,0.,-1.));
#930=DIRECTION('',(0.,-1.,0.));
#931=DIRECTION('',(0.,1.,0.));
#932=DIRECTION('',(1.,0.,7.27959148851792E-14));
#933=DIRECTION('',(0.,-1.,0.));
#934=DIRECTION('',(1.,0.,7.26441592869791E-14));
#935=DIRECTION('',(0.,-1.,0.));
#936=DIRECTION('',(0.,1.,0.));
#937=DIRECTION('',(-1.,0.,-7.3E-14));
#938=DIRECTION('',(0.,1.,0.));
#939=DIRECTION('',(-1.,0.,-7.3E-14));
#940=DIRECTION('',(0.,1.,0.));
#941=DIRECTION('',(-1.,0.,-7.3E-14));
#942=DIRECTION('',(0.,1.,0.));
#943=DIRECTION('',(-1.,0.,-7.3E-14));
#944=DIRECTION('',(0.,1.,0.));
#945=DIRECTION('',(-1.,0.,-7.3E-14));
#946=DIRECTION('',(0.,1.,0.));
#947=DIRECTION('',(-1.,0.,-7.3E-14));
#948=DIRECTION('',(0.,1.,0.));
#949=DIRECTION('',(-1.,0.,-7.3E-14));
#950=DIRECTION('',(0.,1.,0.));
#951=DIRECTION('',(-1.,0.,-7.3E-14));
#952=DIRECTION('',(0.,-1.,0.));
#953=DIRECTION('',(1.,0.,7.3E-14));
#954=DIRECTION('',(0.,-1.,0.));
#955=DIRECTION('',(1.,0.,7.3E-14));
#956=DIRECTION('',(0.,-1.,0.));
#957=DIRECTION('',(1.,0.,7.3E-14));
#958=DIRECTION('',(0.,-1.,0.));
#959=DIRECTION('',(1.,0.,7.3E-14));
#960=DIRECTION('',(0.,-1.,0.));
#961=DIRECTION('',(1.,0.,7.3E-14));
#962=DIRECTION('',(-1.,0.,-7.3E-14));
#963=DIRECTION('',(-6.34270420996417E-15,-0.996218229411943,0.086886359040605));
#964=DIRECTION('',(1.,0.,7.3E-14));
#965=DIRECTION('',(6.34270420996417E-15,0.996218229411943,-0.086886359040605));
#966=DIRECTION('',(1.,0.,7.3E-14));
#967=DIRECTION('',(-1.,0.,-7.3E-14));
#968=DIRECTION('',(6.34270420996417E-15,0.996218229411943,-0.086886359040605));
#969=DIRECTION('',(-1.,0.,-7.3E-14));
#970=DIRECTION('',(1.,0.,7.3E-14));
#971=DIRECTION('',(6.34270420996417E-15,0.996218229411943,-0.086886359040605));
#972=DIRECTION('',(1.,0.,7.3E-14));
#973=DIRECTION('',(6.34270420996417E-15,0.996218229411943,-0.086886359040605));
#974=DIRECTION('',(1.,0.,7.3E-14));
#975=DIRECTION('',(6.34270420996417E-15,0.996218229411943,-0.086886359040605));
#976=DIRECTION('',(-7.3E-14,-2.19269047363468E-15,1.));
#977=DIRECTION('',(1.,0.,7.3E-14));
#978=DIRECTION('',(6.34270420996417E-15,0.996218229411943,-0.086886359040605));
#979=DIRECTION('',(1.,0.,7.3E-14));
#980=DIRECTION('',(6.34270420996417E-15,0.996218229411943,-0.086886359040605));
#981=DIRECTION('',(-7.3E-14,-2.28983498828939E-15,1.));
#982=DIRECTION('',(1.,0.,7.3E-14));
#983=DIRECTION('',(6.34270420996417E-15,0.996218229411943,-0.086886359040605));
#984=DIRECTION('',(1.,0.,7.3E-14));
#985=DIRECTION('',(6.34270420996417E-15,0.996218229411943,-0.086886359040605));
#986=DIRECTION('',(7.3E-14,2.28983498828939E-15,-1.));
#987=DIRECTION('',(1.,0.,7.3E-14));
#988=DIRECTION('',(6.34270420996417E-15,0.996218229411943,-0.086886359040605));
#989=DIRECTION('',(-1.,0.,-7.3E-14));
#990=DIRECTION('',(6.34270420996581E-15,0.996218229411941,-0.0868863590406275));
#991=DIRECTION('',(7.3E-14,2.19269047363468E-15,-1.));
#992=DIRECTION('',(-1.,0.,-7.3E-14));
#993=DIRECTION('',(6.34270420996417E-15,0.996218229411943,-0.086886359040605));
#994=DIRECTION('',(1.,0.,7.3E-14));
#995=DIRECTION('',(6.34270420996417E-15,0.996218229411943,-0.086886359040605));
#996=DIRECTION('',(-1.,0.,-7.3E-14));
#997=DIRECTION('',(6.34270420996417E-15,0.996218229411943,-0.086886359040605));
#998=DIRECTION('',(-1.,0.,-7.3E-14));
#999=DIRECTION('',(-6.34270420996417E-15,-0.996218229411943,0.086886359040605));
#1000=DIRECTION('',(1.,0.,7.3E-14));
#1001=DIRECTION('',(-1.,0.,-7.3E-14));
#1002=DIRECTION('',(-1.,0.,-7.3E-14));
#1003=DIRECTION('',(-6.34270420996417E-15,-0.996218229411943,0.086886359040605));
#1004=DIRECTION('',(-1.,0.,-7.3E-14));
#1005=DIRECTION('',(-1.60066404575332E-28,1.,2.19269047363468E-15));
#1006=DIRECTION('',(-1.,0.,-7.3E-14));
#1007=DIRECTION('',(1.,0.,7.3E-14));
#1008=DIRECTION('',(-1.,0.,-7.3E-14));
#1009=DIRECTION('',(-1.67157954145125E-28,1.,2.28983498828939E-15));
#1010=DIRECTION('',(-1.,0.,-7.3E-14));
#1011=DIRECTION('',(1.,0.,7.3E-14));
#1012=DIRECTION('',(-1.,0.,-7.3E-14));
#1013=DIRECTION('',(-6.34270420996417E-15,-0.996218229411943,0.086886359040605));
#1014=DIRECTION('',(-1.,0.,-7.3E-14));
#1015=DIRECTION('',(-6.34270420996417E-15,-0.996218229411943,0.086886359040605));
#1016=DIRECTION('',(-1.,0.,-7.3E-14));
#1017=DIRECTION('',(-6.34270420996417E-15,-0.996218229411943,0.086886359040605));
#1018=DIRECTION('',(0.,-1.,0.));
#1019=DIRECTION('',(-1.,0.,-7.3E-14));
#1020=DIRECTION('',(0.,-1.,0.));
#1021=DIRECTION('',(-1.,0.,-7.3E-14));
#1022=DIRECTION('',(0.,-1.,0.));
#1023=DIRECTION('',(-1.,0.,-7.3E-14));
#1024=DIRECTION('',(0.,-1.,0.));
#1025=DIRECTION('',(-1.,0.,-7.3E-14));
#1026=DIRECTION('',(0.,1.,0.));
#1027=DIRECTION('',(-7.3E-14,0.,1.));
#1028=DIRECTION('',(-1.,0.,-7.3E-14));
#1029=DIRECTION('',(0.,1.,0.));
#1030=DIRECTION('',(1.,0.,7.3E-14));
#1031=DIRECTION('',(-7.31156482317318E-14,0.,1.));
#1032=DIRECTION('',(0.,1.,0.));
#1033=DIRECTION('',(1.,0.,7.3E-14));
#1034=DIRECTION('',(1.,0.,7.32040851148208E-14));
#1035=DIRECTION('',(0.,1.,0.));
#1036=DIRECTION('',(1.,0.,7.3E-14));
#1037=DIRECTION('',(7.31224646799147E-14,0.,-1.));
#1038=DIRECTION('',(0.,1.,0.));
#1039=DIRECTION('',(1.,0.,7.3E-14));
#1040=DIRECTION('',(-1.,0.,-7.31156482317318E-14));
#1041=DIRECTION('',(7.31156482317318E-14,0.,-1.));
#1042=DIRECTION('',(0.,-1.,0.));
#1043=DIRECTION('',(-7.31156482317318E-14,0.,1.));
#1044=DIRECTION('',(0.,1.,0.));
#1045=DIRECTION('',(7.3E-14,0.,-1.));
#1046=DIRECTION('',(-1.,0.,-7.3E-14));
#1047=DIRECTION('',(-1.,0.,-7.3E-14));
#1048=DIRECTION('',(0.,1.,0.));
#1049=DIRECTION('',(0.,-1.,0.));
#1050=DIRECTION('',(-1.,0.,-7.3E-14));
#1051=DIRECTION('',(0.,1.,0.));
#1052=DIRECTION('',(1.,0.,7.31224646799147E-14));
#1053=DIRECTION('',(7.31224646799147E-14,0.,-1.));
#1054=DIRECTION('',(0.,-1.,0.));
#1055=DIRECTION('',(7.31224646799147E-14,0.,-1.));
#1056=DIRECTION('',(0.,1.,0.));
#1057=DIRECTION('',(-7.32040851148208E-14,0.,1.));
#1058=DIRECTION('',(0.,1.,0.));
#1059=DIRECTION('',(0.,-1.,0.));
#1060=DIRECTION('',(1.,0.,7.32040851148208E-14));
#1061=DIRECTION('',(0.,1.,0.));
#1062=DIRECTION('',(1.,0.,7.33558407130209E-14));
#1063=DIRECTION('',(0.,1.,0.));
#1064=DIRECTION('',(0.,-1.,0.));
#1065=DIRECTION('',(-1.,0.,-7.3E-14));
#1066=DIRECTION('',(0.,-1.,0.));
#1067=DIRECTION('',(-1.,0.,-7.3E-14));
#1068=DIRECTION('',(0.,-1.,0.));
#1069=DIRECTION('',(-1.,0.,-7.3E-14));
#1070=DIRECTION('',(0.,-1.,0.));
#1071=DIRECTION('',(-1.,0.,-7.3E-14));
#1072=DIRECTION('',(0.,-1.,0.));
#1073=DIRECTION('',(-1.,0.,-7.3E-14));
#1074=DIRECTION('',(0.,-1.,0.));
#1075=DIRECTION('',(-1.,0.,-7.3E-14));
#1076=DIRECTION('',(0.,-1.,0.));
#1077=DIRECTION('',(-1.,0.,-7.3E-14));
#1078=DIRECTION('',(0.,-1.,0.));
#1079=DIRECTION('',(-1.,0.,-7.3E-14));
#1080=DIRECTION('',(0.,1.,0.));
#1081=DIRECTION('',(1.,0.,7.3E-14));
#1082=DIRECTION('',(0.,1.,0.));
#1083=DIRECTION('',(1.,0.,7.3E-14));
#1084=DIRECTION('',(0.,1.,0.));
#1085=DIRECTION('',(1.,0.,7.3E-14));
#1086=DIRECTION('',(0.,1.,0.));
#1087=DIRECTION('',(1.,0.,7.3E-14));
#1088=DIRECTION('',(0.,1.,0.));
#1089=DIRECTION('',(1.,0.,7.3E-14));
#1090=DIRECTION('',(-1.,0.,-7.3E-14));
#1091=DIRECTION('',(7.3E-14,0.,-1.));
#1092=DIRECTION('',(1.,0.,7.3E-14));
#1093=DIRECTION('',(-7.3E-14,0.,1.));
#1094=DIRECTION('',(1.,0.,7.3E-14));
#1095=DIRECTION('',(-7.3E-14,0.,1.));
#1096=DIRECTION('',(1.,0.,7.3E-14));
#1097=DIRECTION('',(-7.3E-14,0.,1.));
#1098=DIRECTION('',(1.,0.,7.3E-14));
#1099=DIRECTION('',(7.3E-14,0.,-1.));
#1100=DIRECTION('',(1.,0.,7.3E-14));
#1101=DIRECTION('',(-7.3E-14,0.,1.));
#1102=DIRECTION('',(-1.,0.,-7.3E-14));
#1103=DIRECTION('',(0.,-1.,0.));
#1104=DIRECTION('',(1.,0.,7.3E-14));
#1105=DIRECTION('',(-7.3E-14,0.,1.));
#1106=DIRECTION('',(1.,0.,7.3E-14));
#1107=DIRECTION('',(-7.3E-14,0.,1.));
#1108=DIRECTION('',(0.,0.,-1.));
#1109=DIRECTION('',(-1.,0.,0.));
#1110=DIRECTION('',(0.,0.,1.));
#1111=DIRECTION('',(1.,0.,0.));
#1112=DIRECTION('',(0.,1.,0.));
#1113=DIRECTION('',(-1.,0.,0.));
#1114=DIRECTION('',(0.,0.,1.));
#1115=DIRECTION('',(1.,0.,0.));
#1116=DIRECTION('',(-1.,0.,0.));
#1117=DIRECTION('',(0.,-1.,0.));
#1118=DIRECTION('',(0.,0.,1.));
#1119=DIRECTION('',(1.,0.,0.));
#1120=DIRECTION('',(0.,-1.,0.));
#1121=DIRECTION('',(1.,0.,0.));
#1122=DIRECTION('',(0.,0.,1.));
#1123=DIRECTION('',(1.,0.,0.));
#1124=DIRECTION('',(0.,0.,1.));
#1125=DIRECTION('',(-1.,0.,0.));
#1126=DIRECTION('',(0.,0.,1.));
#1127=DIRECTION('',(1.,0.,0.));
#1128=DIRECTION('',(1.,0.,0.));
#1129=DIRECTION('',(0.,1.,0.));
#1130=DIRECTION('',(0.,0.,1.));
#1131=DIRECTION('',(1.,0.,0.));
#1132=DIRECTION('',(-0.577350269189626,0.577350269189626,-0.577350269189626));
#1133=DIRECTION('',(-0.707106781186548,-0.707106781186547,2.22044604925031E-16));
#1134=DIRECTION('',(0.,0.,1.));
#1135=DIRECTION('',(1.,0.,0.));
#1136=DIRECTION('',(-0.718873086818576,0.585048618558824,-0.375419230954334));
#1137=DIRECTION('',(-0.631219051646111,-0.775604608572552,-4.44241888553076E-8));
#1138=DIRECTION('',(0.,0.,1.));
#1139=DIRECTION('',(1.,0.,0.));
#1140=CARTESIAN_POINT('',(0.,0.,0.));
#1141=CARTESIAN_POINT('',(4.58285000226599E-6,19.3578520819241,7.69583452520095E-6));
#1142=CARTESIAN_POINT('',(4.58285000226599E-6,32.999987705655,7.69583452520095E-6));
#1143=CARTESIAN_POINT('',(-4.98999541715,32.999987705655,7.69583416093095E-6));
#1144=CARTESIAN_POINT('',(4.58285000226599E-6,37.499987705655,7.69583452520095E-6));
#1145=CARTESIAN_POINT('',(-4.98999541715,37.499987705655,7.69583416093095E-6));
#1146=CARTESIAN_POINT('',(4.58285000226599E-6,37.499987705655,7.69583452520095E-6));
#1147=CARTESIAN_POINT('',(19.5000045828499,27.499987705655,1.83388041777294));
#1148=CARTESIAN_POINT('',(28.0000045828506,27.499987705655,-7.49999230416343));
#1149=CARTESIAN_POINT('',(27.0000045828506,27.499987705655,-7.49999230416348));
#1150=CARTESIAN_POINT('',(20.0000045828506,27.499987705655,-7.49999230416398));
#1151=CARTESIAN_POINT('',(27.0000045828505,27.499987705655,-6.49999230416348));
#1152=CARTESIAN_POINT('',(28.0000045828505,27.499987705655,-6.49999230416343));
#1153=CARTESIAN_POINT('',(28.0000045828506,27.499987705655,-7.49999230416343));
#1154=CARTESIAN_POINT('',(28.0000045828495,27.499987705655,6.50000769583658));
#1155=CARTESIAN_POINT('',(27.0000045828495,27.499987705655,6.50000769583653));
#1156=CARTESIAN_POINT('',(27.0000045828495,27.499987705655,7.50000769583653));
#1157=CARTESIAN_POINT('',(28.0000045828495,27.499987705655,7.50000769583659));
#1158=CARTESIAN_POINT('',(20.0000045828494,27.499987705655,7.50000769583598));
#1159=CARTESIAN_POINT('',(20.0000045828495,27.499987705655,7.00000769583597));
#1160=CARTESIAN_POINT('',(19.5000045828495,27.499987705655,7.00000769583597));
#1161=CARTESIAN_POINT('',(19.5000045828506,27.499987705655,-7.49999230416404));
#1162=CARTESIAN_POINT('',(19.5000045828505,27.499987705655,-6.99999230416404));
#1163=CARTESIAN_POINT('',(20.0000045828505,27.499987705655,-6.99999230416398));
#1164=CARTESIAN_POINT('',(28.0000045828506,28.999987705655,-7.49999230416343));
#1165=CARTESIAN_POINT('',(28.0000045828505,28.999987705655,-6.49999230416343));
#1166=CARTESIAN_POINT('',(28.0000045828505,32.999987705655,-6.49999230416343));
#1167=CARTESIAN_POINT('',(28.0000045828495,32.999987705655,7.50000769583659));
#1168=CARTESIAN_POINT('',(28.0000045828495,32.999987705655,6.50000769583658));
#1169=CARTESIAN_POINT('',(28.0000045828495,28.999987705655,6.50000769583658));
#1170=CARTESIAN_POINT('',(28.0000045828506,28.999987705655,-7.49999230416343));
#1171=CARTESIAN_POINT('',(28.0000045828506,32.999987705655,-7.49999230416343));
#1172=CARTESIAN_POINT('',(27.0000045828506,32.999987705655,-7.49999230416348));
#1173=CARTESIAN_POINT('',(4.5828505573775E-6,32.999987705655,-7.49999230416548));
#1174=CARTESIAN_POINT('',(27.0000045828506,28.999987705655,-7.49999230416348));
#1175=CARTESIAN_POINT('',(20.0000045828506,28.999987705655,-7.49999230416398));
#1176=CARTESIAN_POINT('',(20.0000045828506,28.999987705655,-7.49999230416398));
#1177=CARTESIAN_POINT('',(19.5000045828506,28.999987705655,-7.49999230416404));
#1178=CARTESIAN_POINT('',(4.5828505573775E-6,28.999987705655,-7.49999230416548));
#1179=CARTESIAN_POINT('',(4.5828505573775E-6,32.999987705655,-7.49999230416548));
#1180=CARTESIAN_POINT('',(19.5000045828506,28.999987705655,-7.49999230416404));
#1181=CARTESIAN_POINT('',(19.5000045828495,28.999987705655,7.00000769583597));
#1182=CARTESIAN_POINT('',(19.5000045828495,28.999987705655,7.00000769583597));
#1183=CARTESIAN_POINT('',(19.5000045828506,28.999987705655,-7.49999230416404));
#1184=CARTESIAN_POINT('',(19.5000045828505,28.999987705655,-6.99999230416404));
#1185=CARTESIAN_POINT('',(19.5000045828505,28.999987705655,-6.99999230416404));
#1186=CARTESIAN_POINT('',(28.0000045828495,28.999987705655,7.50000769583659));
#1187=CARTESIAN_POINT('',(27.0000045828495,28.999987705655,7.50000769583653));
#1188=CARTESIAN_POINT('',(27.0000045828495,32.999987705655,7.50000769583653));
#1189=CARTESIAN_POINT('',(19.5000045828494,32.999987705655,7.50000769583598));
#1190=CARTESIAN_POINT('',(4.58284946103227E-6,32.999987705655,7.50000769583453));
#1191=CARTESIAN_POINT('',(4.58284946103227E-6,32.999987705655,7.50000769583453));
#1192=CARTESIAN_POINT('',(4.58284946103227E-6,28.999987705655,7.50000769583453));
#1193=CARTESIAN_POINT('',(4.58284946103227E-6,28.999987705655,7.50000769583453));
#1194=CARTESIAN_POINT('',(20.0000045828494,28.999987705655,7.50000769583598));
#1195=CARTESIAN_POINT('',(20.0000045828494,28.999987705655,7.50000769583598));
#1196=CARTESIAN_POINT('',(4.58285000226599E-6,28.999987705655,7.69583452520095E-6));
#1197=CARTESIAN_POINT('',(20.0000045828505,28.999987705655,-6.99999230416398));
#1198=CARTESIAN_POINT('',(20.0000045828495,28.999987705655,7.00000769583597));
#1199=CARTESIAN_POINT('',(4.58285000226599E-6,28.999987705655,7.69583452520095E-6));
#1200=CARTESIAN_POINT('',(4.58285000226599E-6,32.999987705655,7.69583452520095E-6));
#1201=CARTESIAN_POINT('',(27.0000045828505,32.999987705655,-6.49999230416348));
#1202=CARTESIAN_POINT('',(4.58285000226599E-6,32.999987705655,7.69583452520095E-6));
#1203=CARTESIAN_POINT('',(27.0000045828495,32.999987705655,6.50000769583653));
#1204=CARTESIAN_POINT('',(4.58285000226599E-6,32.999987705655,7.69583452520095E-6));
#1205=CARTESIAN_POINT('',(20.0000045828495,28.999987705655,7.00000769583597));
#1206=CARTESIAN_POINT('',(20.0000045828505,28.999987705655,-6.99999230416398));
#1207=CARTESIAN_POINT('',(27.0000045828505,28.999987705655,-6.49999230416348));
#1208=CARTESIAN_POINT('',(27.0000045828495,28.999987705655,6.50000769583653));
#1209=CARTESIAN_POINT('',(28.0000042298775,-26.5000123827753,7.34847736558908));
#1210=CARTESIAN_POINT('',(28.0000042298775,-26.5000123827753,7.34847736558908));
#1211=CARTESIAN_POINT('',(28.0000042298774,-27.4636487464116,7.61569442843818));
#1212=CARTESIAN_POINT('',(28.0000042298775,-27.5000123827752,7.34847736558908));
#1213=CARTESIAN_POINT('',(28.0000042298774,-27.4636487464116,7.61569442843818));
#1214=CARTESIAN_POINT('',(19.5000042298775,-27.4636487464116,7.61569442843757));
#1215=CARTESIAN_POINT('',(19.5000042298775,-26.5000123827753,7.34847736558847));
#1216=CARTESIAN_POINT('',(19.5000042298775,-27.5000123827752,7.34847736558847));
#1217=CARTESIAN_POINT('',(19.4990042298775,-27.5000123827752,7.34847736558847));
#1218=CARTESIAN_POINT('',(28.000004229878,-1.23827752218642E-5,8.13723965986668E-6));
#1219=CARTESIAN_POINT('',(28.000004229878,-1.23827752218642E-5,8.13723965986668E-6));
#1220=CARTESIAN_POINT('',(28.0000042298786,-27.4636487464116,-7.61567815395903));
#1221=CARTESIAN_POINT('',(28.0000042298786,27.4636239808612,-7.61567815395892));
#1222=CARTESIAN_POINT('',(28.0000042298785,26.4999876172248,-7.34846109110982));
#1223=CARTESIAN_POINT('',(28.0000042298785,27.4999876172248,-7.34846109110982));
#1224=CARTESIAN_POINT('',(28.0000042298779,27.4999876172248,1.83388085917663));
#1225=CARTESIAN_POINT('',(28.0000042298775,27.4999876172247,7.34847736558925));
#1226=CARTESIAN_POINT('',(28.0000042298775,26.4999876172247,7.34847736558925));
#1227=CARTESIAN_POINT('',(28.0000042298774,27.4636239808611,7.61569442843835));
#1228=CARTESIAN_POINT('',(28.000004229878,-1.23827752218642E-5,8.13723965986668E-6));
#1229=CARTESIAN_POINT('',(28.0000042298779,-27.5000123827753,1.83388085917652));
#1230=CARTESIAN_POINT('',(28.0000042298785,-27.5000123827752,-7.34846109110993));
#1231=CARTESIAN_POINT('',(28.0000042298785,-26.5000123827752,-7.34846109110993));
#1232=CARTESIAN_POINT('',(19.500004229878,-1.23827752218642E-5,8.13723904924402E-6));
#1233=CARTESIAN_POINT('',(19.5000042298779,-27.5000123827753,1.83388085917591));
#1234=CARTESIAN_POINT('',(19.5000042298785,-27.5000123827752,-7.34846109111054));
#1235=CARTESIAN_POINT('',(19.500004229878,-1.23827752218642E-5,8.13723904924402E-6));
#1236=CARTESIAN_POINT('',(19.5000042298775,27.4636239808611,7.61569442843768));
#1237=CARTESIAN_POINT('',(19.5000042298775,26.4999876172247,7.34847736558863));
#1238=CARTESIAN_POINT('',(19.5000042298775,27.4999876172247,7.34847736558863));
#1239=CARTESIAN_POINT('',(19.5000042298779,27.4999876172248,1.83388085917602));
#1240=CARTESIAN_POINT('',(19.5000042298785,27.4999876172248,-7.34846109111048));
#1241=CARTESIAN_POINT('',(19.5000042298785,26.4999876172248,-7.34846109111043));
#1242=CARTESIAN_POINT('',(19.5000042298786,27.4636239808612,-7.61567815395953));
#1243=CARTESIAN_POINT('',(19.500004229878,-1.23827752218642E-5,8.13723904924402E-6));
#1244=CARTESIAN_POINT('',(19.5000042298786,-27.4636487464116,-7.61567815395964));
#1245=CARTESIAN_POINT('',(19.5000042298785,-26.5000123827752,-7.34846109111054));
#1246=CARTESIAN_POINT('',(28.000004229878,-1.23827752218642E-5,8.13723965986668E-6));
#1247=CARTESIAN_POINT('',(28.0000042298786,27.4636239808612,-7.61567815395892));
#1248=CARTESIAN_POINT('',(28.0000042298786,-27.4636487464116,-7.61567815395903));
#1249=CARTESIAN_POINT('',(28.000004229878,-1.23827752218642E-5,8.13723965986668E-6));
#1250=CARTESIAN_POINT('',(28.0000042298774,27.4636239808611,7.61569442843835));
#1251=CARTESIAN_POINT('',(19.4990042298779,27.4999876172248,1.83388085917602));
#1252=CARTESIAN_POINT('',(28.0000042298775,27.4999876172247,7.34847736558925));
#1253=CARTESIAN_POINT('',(19.5000042298785,27.4999876172248,-7.34846109111048));
#1254=CARTESIAN_POINT('',(19.4990042298779,-27.5000123827753,1.83388085917591));
#1255=CARTESIAN_POINT('',(19.4990042298785,-27.5000123827752,-7.34846109111054));
#1256=CARTESIAN_POINT('',(28.0000042298785,-26.5000123827752,-7.34846109110993));
#1257=CARTESIAN_POINT('',(28.0000042298775,26.4999876172247,7.34847736558925));
#1258=CARTESIAN_POINT('',(28.0000042298785,26.4999876172248,-7.34846109110982));
#1259=CARTESIAN_POINT('',(9.03975799770862E-6,-19.3578826926121,9.26092447173232E-6));
#1260=CARTESIAN_POINT('',(9.03975799770862E-6,-33.000018316343,9.26092447173232E-6));
#1261=CARTESIAN_POINT('',(-4.989990960242,-33.000018316343,9.26092410746232E-6));
#1262=CARTESIAN_POINT('',(9.03975799770862E-6,-37.500018316343,9.26092447173232E-6));
#1263=CARTESIAN_POINT('',(-4.989990960242,-37.500018316343,9.26092410746232E-6));
#1264=CARTESIAN_POINT('',(9.03975799770862E-6,-37.500018316343,9.26092447173232E-6));
#1265=CARTESIAN_POINT('',(19.5000090397581,-27.500018316343,-1.83386346101105));
#1266=CARTESIAN_POINT('',(28.0000090397575,-27.500018316343,7.50000926092653));
#1267=CARTESIAN_POINT('',(27.0000090397575,-27.500018316343,7.50000926092642));
#1268=CARTESIAN_POINT('',(20.0000090397575,-27.500018316343,7.50000926092592));
#1269=CARTESIAN_POINT('',(27.0000090397575,-27.500018316343,6.50000926092642));
#1270=CARTESIAN_POINT('',(28.0000090397575,-27.500018316343,6.50000926092653));
#1271=CARTESIAN_POINT('',(28.0000090397575,-27.500018316343,7.50000926092653));
#1272=CARTESIAN_POINT('',(28.0000090397585,-27.500018316343,-6.49999073907348));
#1273=CARTESIAN_POINT('',(27.0000090397585,-27.500018316343,-6.49999073907359));
#1274=CARTESIAN_POINT('',(27.0000090397585,-27.500018316343,-7.49999073907354));
#1275=CARTESIAN_POINT('',(28.0000090397585,-27.500018316343,-7.49999073907348));
#1276=CARTESIAN_POINT('',(20.0000090397585,-27.500018316343,-7.49999073907409));
#1277=CARTESIAN_POINT('',(20.0000090397585,-27.500018316343,-6.99999073907409));
#1278=CARTESIAN_POINT('',(19.5000090397585,-27.500018316343,-6.99999073907409));
#1279=CARTESIAN_POINT('',(19.5000090397575,-27.500018316343,7.50000926092587));
#1280=CARTESIAN_POINT('',(19.5000090397575,-27.500018316343,7.00000926092587));
#1281=CARTESIAN_POINT('',(20.0000090397575,-27.500018316343,7.00000926092592));
#1282=CARTESIAN_POINT('',(28.0000090397575,-29.000018316343,7.50000926092653));
#1283=CARTESIAN_POINT('',(28.0000090397575,-29.000018316343,6.50000926092653));
#1284=CARTESIAN_POINT('',(28.0000090397575,-33.000018316343,6.50000926092653));
#1285=CARTESIAN_POINT('',(28.0000090397585,-33.000018316343,-7.49999073907348));
#1286=CARTESIAN_POINT('',(28.0000090397585,-33.000018316343,-6.49999073907348));
#1287=CARTESIAN_POINT('',(28.0000090397585,-29.000018316343,-6.49999073907348));
#1288=CARTESIAN_POINT('',(28.0000090397575,-29.000018316343,7.50000926092653));
#1289=CARTESIAN_POINT('',(28.0000090397575,-33.000018316343,7.50000926092653));
#1290=CARTESIAN_POINT('',(27.0000090397575,-33.000018316343,7.50000926092642));
#1291=CARTESIAN_POINT('',(9.0397574564749E-6,-33.000018316343,7.50000926092448));
#1292=CARTESIAN_POINT('',(27.0000090397575,-29.000018316343,7.50000926092642));
#1293=CARTESIAN_POINT('',(20.0000090397575,-29.000018316343,7.50000926092592));
#1294=CARTESIAN_POINT('',(20.0000090397575,-29.000018316343,7.50000926092592));
#1295=CARTESIAN_POINT('',(19.5000090397575,-29.000018316343,7.50000926092587));
#1296=CARTESIAN_POINT('',(9.0397574564749E-6,-29.000018316343,7.50000926092448));
#1297=CARTESIAN_POINT('',(9.0397574564749E-6,-33.000018316343,7.50000926092448));
#1298=CARTESIAN_POINT('',(19.5000090397575,-29.000018316343,7.50000926092587));
#1299=CARTESIAN_POINT('',(19.5000090397585,-29.000018316343,-6.99999073907409));
#1300=CARTESIAN_POINT('',(19.5000090397585,-29.000018316343,-6.99999073907409));
#1301=CARTESIAN_POINT('',(19.5000090397575,-29.000018316343,7.50000926092587));
#1302=CARTESIAN_POINT('',(19.5000090397575,-29.000018316343,7.00000926092587));
#1303=CARTESIAN_POINT('',(19.5000090397575,-29.000018316343,7.00000926092587));
#1304=CARTESIAN_POINT('',(28.0000090397585,-29.000018316343,-7.49999073907348));
#1305=CARTESIAN_POINT('',(27.0000090397585,-29.000018316343,-7.49999073907354));
#1306=CARTESIAN_POINT('',(27.0000090397585,-33.000018316343,-7.49999073907354));
#1307=CARTESIAN_POINT('',(19.5000090397585,-33.000018316343,-7.49999073907409));
#1308=CARTESIAN_POINT('',(9.03975855282013E-6,-33.000018316343,-7.49999073907554));
#1309=CARTESIAN_POINT('',(9.03975855282013E-6,-33.000018316343,-7.49999073907554));
#1310=CARTESIAN_POINT('',(9.03975855282013E-6,-29.000018316343,-7.49999073907554));
#1311=CARTESIAN_POINT('',(9.03975855282013E-6,-29.000018316343,-7.49999073907554));
#1312=CARTESIAN_POINT('',(20.0000090397585,-29.000018316343,-7.49999073907409));
#1313=CARTESIAN_POINT('',(20.0000090397585,-29.000018316343,-7.49999073907409));
#1314=CARTESIAN_POINT('',(9.03975799770862E-6,-29.000018316343,9.26092447173232E-6));
#1315=CARTESIAN_POINT('',(20.0000090397575,-29.000018316343,7.00000926092592));
#1316=CARTESIAN_POINT('',(20.0000090397585,-29.000018316343,-6.99999073907409));
#1317=CARTESIAN_POINT('',(9.03975799770862E-6,-29.000018316343,9.26092447173232E-6));
#1318=CARTESIAN_POINT('',(9.03975799770862E-6,-33.000018316343,9.26092447173232E-6));
#1319=CARTESIAN_POINT('',(27.0000090397575,-33.000018316343,6.50000926092642));
#1320=CARTESIAN_POINT('',(9.03975799770862E-6,-33.000018316343,9.26092447173232E-6));
#1321=CARTESIAN_POINT('',(27.0000090397585,-33.000018316343,-6.49999073907359));
#1322=CARTESIAN_POINT('',(9.03975799770862E-6,-33.000018316343,9.26092447173232E-6));
#1323=CARTESIAN_POINT('',(20.0000090397585,-29.000018316343,-6.99999073907409));
#1324=CARTESIAN_POINT('',(20.0000090397575,-29.000018316343,7.00000926092592));
#1325=CARTESIAN_POINT('',(27.0000090397575,-29.000018316343,6.50000926092642));
#1326=CARTESIAN_POINT('',(27.0000090397585,-29.000018316343,-6.49999073907359));
#1327=CARTESIAN_POINT('',(69.9974788955523,-1.26501069896978E-5,8.421958630489E-6));
#1328=CARTESIAN_POINT('',(20.500004212494,-1.26501069896978E-5,8.42195502226417E-6));
#1329=CARTESIAN_POINT('',(20.5000042124927,-1.26501069896978E-5,17.500008421955));
#1330=CARTESIAN_POINT('',(19.500004212494,-1.26501069896978E-5,8.42195496675302E-6));
#1331=CARTESIAN_POINT('',(19.5000042124927,-1.26501069896978E-5,17.500008421955));
#1332=CARTESIAN_POINT('',(-106.110168842772,-1.26501069896978E-5,8.42194580741307E-6));
#1333=CARTESIAN_POINT('',(-25.499995787506,-1.26501069896978E-5,8.4219516915951E-6));
#1334=CARTESIAN_POINT('',(-25.4999957875039,-1.26501069896978E-5,-28.4999915780483));
#1335=CARTESIAN_POINT('',(19.500004212494,-1.26501069896978E-5,8.42195496675302E-6));
#1336=CARTESIAN_POINT('',(19.5000042124919,-1.26501069896978E-5,28.500008421955));
#1337=CARTESIAN_POINT('',(-25.499995787506,-1.26501079888985E-5,8.4219516915951E-6));
#1338=CARTESIAN_POINT('',(19.500004212494,-1.26501069896978E-5,8.42195496675302E-6));
#1339=CARTESIAN_POINT('',(20.500004212494,-1.26501069896978E-5,8.42195502226417E-6));
#1340=CARTESIAN_POINT('',(-152.500015258789,261.,-2.18079280853273));
#1341=CARTESIAN_POINT('',(0.,0.,0.));
#1342=CARTESIAN_POINT('',(-22.8304536377437,-22.8304536377437,91.5679483413696));
#1343=CARTESIAN_POINT('',(-152.500015258789,175.050689697266,-93.7487411499024));
#1344=CARTESIAN_POINT('',(0.,0.,0.));
#1345=CARTESIAN_POINT('',(-21.429569839735,-21.429569839735,85.9493103027344));
#1346=CARTESIAN_POINT('',(-66.5507125854492,261.,-93.7487411499024));
#1347=CARTESIAN_POINT('',(0.,0.,0.));
#1348=CARTESIAN_POINT('',(-21.4295679375133,-21.4295679375133,85.9493026733398));
#1349=CARTESIAN_POINT('',(-152.500015258789,346.949310302734,-93.7487411499024));
#1350=CARTESIAN_POINT('',(0.,0.,0.));
#1351=CARTESIAN_POINT('',(-21.429569839735,-21.429569839735,85.9493103027344));
#1352=CARTESIAN_POINT('',(-152.500015258789,261.,-185.316696166992));
#1353=CARTESIAN_POINT('',(0.,0.,0.));
#1354=CARTESIAN_POINT('',(-22.8304553021877,-22.8304553021877,91.5679550170898));
#1355=CARTESIAN_POINT('',(-238.449325561523,261.,-93.7487411499024));
#1356=CARTESIAN_POINT('',(0.,0.,0.));
#1357=CARTESIAN_POINT('',(-21.429569839735,-21.429569839735,85.9493103027344));
#1358=CARTESIAN_POINT('',(-69.1121819814046,177.612197240194,-10.6102898915609));
#1359=CARTESIAN_POINT('',(0.,0.,0.));
#1360=CARTESIAN_POINT('',(-35.9750335121838,-35.9750335121838,144.287978788854));
#1361=CARTESIAN_POINT('',(-60.7601447170116,186.338320699613,-45.9958421250294));
#1362=CARTESIAN_POINT('',(0.,0.,0.));
#1363=CARTESIAN_POINT('',(-31.8036339975691,-31.8036339975691,127.557409115285));
#1364=MECHANICAL_DESIGN_GEOMETRIC_PRESENTATION_REPRESENTATION('',(#753,
#754,#755,#756),#1365);
#1365=(
GEOMETRIC_REPRESENTATION_CONTEXT(3)
GLOBAL_UNCERTAINTY_ASSIGNED_CONTEXT((#1366))
GLOBAL_UNIT_ASSIGNED_CONTEXT((#1369,#1368,#1367))
REPRESENTATION_CONTEXT('openarm_right_link6_collision',
'TOP_LEVEL_ASSEMBLY_PART')
);
#1366=UNCERTAINTY_MEASURE_WITH_UNIT(LENGTH_MEASURE(1.E-5),#1369,
'DISTANCE_ACCURACY_VALUE','Maximum Tolerance applied to model');
#1367=(
NAMED_UNIT(*)
SI_UNIT($,.STERADIAN.)
SOLID_ANGLE_UNIT()
);
#1368=(
NAMED_UNIT(*)
PLANE_ANGLE_UNIT()
SI_UNIT($,.RADIAN.)
);
#1369=(
LENGTH_UNIT()
NAMED_UNIT(*)
SI_UNIT(.MILLI.,.METRE.)
);
#1370=PRODUCT_DEFINITION_SHAPE('','',#1371);
#1371=PRODUCT_DEFINITION('','',#1373,#1372);
#1372=PRODUCT_DEFINITION_CONTEXT('',#1379,'design');
#1373=PRODUCT_DEFINITION_FORMATION_WITH_SPECIFIED_SOURCE('','',#1375,
 .NOT_KNOWN.);
#1374=PRODUCT_RELATED_PRODUCT_CATEGORY('','',(#1375));
#1375=PRODUCT('openarm_right_link6_collision',
'openarm_right_link6_collision','openarm_right_link6_collision',(#1377));
#1376=PRODUCT_CATEGORY('','');
#1377=PRODUCT_CONTEXT('',#1379,'mechanical');
#1378=APPLICATION_PROTOCOL_DEFINITION('international standard',
'ap242_managed_model_based_3d_engineering',2011,#1379);
#1379=APPLICATION_CONTEXT('managed model based 3d engineering');
ENDSEC;
END-ISO-10303-21;
