ISO-10303-21;
HEADER;
/* Generated by software containing ST-Developer
 * from STEP Tools, Inc. (www.steptools.com) 
 */
/* OPTION: using custom renumber hook */

FILE_DESCRIPTION(
/* description */ (
'CAx-IF Rec.Pracs.---Representation and Presentation of Product Manufa
cturing Information (PMI)---4.0---2014-10-13',
'CAx-IF Rec.Pracs.---3D Tessellated Geometry---0.4---2014-09-14','2;1'),

/* implementation_level */ '2;1');

FILE_NAME(
/* name */ 'openarm_right_base_link_collision',
/* time_stamp */ '2026-07-31T22:01:52-07:00',
/* author */ (''),
/* organization */ (''),
/* preprocessor_version */ 'ST-DEVELOPER v20',
/* originating_system */ 'SIEMENS PLM Software NX2412.8300',
/* authorisation */ $);

FILE_SCHEMA (('AP242_MANAGED_MODEL_BASED_3D_ENGINEERING_MIM_LF { 1 0 10303 442 1 1 4 }'));
ENDSEC;

DATA;
#10=MECHANICAL_DESIGN_AND_DRAUGHTING_RELATIONSHIP('','',#26,#27);
#11=MECHANICAL_DESIGN_AND_DRAUGHTING_RELATIONSHIP('','',#28,#27);
#12=MECHANICAL_DESIGN_AND_DRAUGHTING_RELATIONSHIP('','',#29,#27);
#13=MECHANICAL_DESIGN_AND_DRAUGHTING_RELATIONSHIP('','',#30,#27);
#14=MECHANICAL_DESIGN_AND_DRAUGHTING_RELATIONSHIP('','',#31,#27);
#15=MECHANICAL_DESIGN_AND_DRAUGHTING_RELATIONSHIP('','',#32,#27);
#16=MECHANICAL_DESIGN_AND_DRAUGHTING_RELATIONSHIP('','',#33,#27);
#17=MECHANICAL_DESIGN_AND_DRAUGHTING_RELATIONSHIP('','',#34,#27);
#18=MODEL_GEOMETRIC_VIEW('Top','',#53,#26);
#19=MODEL_GEOMETRIC_VIEW('Front','',#54,#28);
#20=MODEL_GEOMETRIC_VIEW('Right','',#55,#29);
#21=MODEL_GEOMETRIC_VIEW('Back','',#56,#30);
#22=MODEL_GEOMETRIC_VIEW('Bottom','',#57,#31);
#23=MODEL_GEOMETRIC_VIEW('Left','',#58,#32);
#24=MODEL_GEOMETRIC_VIEW('Isometric','',#59,#33);
#25=MODEL_GEOMETRIC_VIEW('Trimetric','',#60,#34);
#26=DRAUGHTING_MODEL('Top',(#53,#44),#552);
#27=DRAUGHTING_MODEL('',(#45),#552);
#28=DRAUGHTING_MODEL('Front',(#54,#46),#552);
#29=DRAUGHTING_MODEL('Right',(#55,#47),#552);
#30=DRAUGHTING_MODEL('Back',(#56,#48),#552);
#31=DRAUGHTING_MODEL('Bottom',(#57,#49),#552);
#32=DRAUGHTING_MODEL('Left',(#58,#50),#552);
#33=DRAUGHTING_MODEL('Isometric',(#59,#51),#552);
#34=DRAUGHTING_MODEL('Trimetric',(#60,#52),#552);
#35=REPRESENTATION_MAP(#304,#78);
#36=REPRESENTATION_MAP(#304,#78);
#37=REPRESENTATION_MAP(#304,#78);
#38=REPRESENTATION_MAP(#304,#78);
#39=REPRESENTATION_MAP(#304,#78);
#40=REPRESENTATION_MAP(#304,#78);
#41=REPRESENTATION_MAP(#304,#78);
#42=REPRESENTATION_MAP(#304,#78);
#43=REPRESENTATION_MAP(#304,#78);
#44=MAPPED_ITEM('',#35,#304);
#45=MAPPED_ITEM('',#36,#304);
#46=MAPPED_ITEM('',#37,#304);
#47=MAPPED_ITEM('',#38,#304);
#48=MAPPED_ITEM('',#39,#304);
#49=MAPPED_ITEM('',#40,#304);
#50=MAPPED_ITEM('',#41,#304);
#51=MAPPED_ITEM('',#42,#304);
#52=MAPPED_ITEM('',#43,#304);
#53=CAMERA_MODEL_D3('Top',#341,#61);
#54=CAMERA_MODEL_D3('Front',#343,#62);
#55=CAMERA_MODEL_D3('Right',#345,#63);
#56=CAMERA_MODEL_D3('Back',#347,#64);
#57=CAMERA_MODEL_D3('Bottom',#349,#65);
#58=CAMERA_MODEL_D3('Left',#351,#66);
#59=CAMERA_MODEL_D3('Isometric',#353,#67);
#60=CAMERA_MODEL_D3('Trimetric',#355,#68);
#61=VIEW_VOLUME(.PARALLEL.,#528,157.432476043701,0.,.F.,0.,.F.,.F.,#69);
#62=VIEW_VOLUME(.PARALLEL.,#531,157.432495117188,0.,.F.,0.,.F.,.F.,#70);
#63=VIEW_VOLUME(.PARALLEL.,#534,157.432472229004,0.,.F.,0.,.F.,.F.,#71);
#64=VIEW_VOLUME(.PARALLEL.,#537,157.432495117188,0.,.F.,0.,.F.,.F.,#72);
#65=VIEW_VOLUME(.PARALLEL.,#540,157.432479858398,0.,.F.,0.,.F.,.F.,#73);
#66=VIEW_VOLUME(.PARALLEL.,#543,157.432472229004,0.,.F.,0.,.F.,.F.,#74);
#67=VIEW_VOLUME(.PARALLEL.,#546,233.281075988207,0.,.F.,0.,.F.,.F.,#75);
#68=VIEW_VOLUME(.PARALLEL.,#549,212.08623827379,0.,.F.,0.,.F.,.F.,#76);
#69=PLANAR_BOX('',78.5046495088296,78.5046495088296,#342);
#70=PLANAR_BOX('',78.5046590199381,78.5046590199381,#344);
#71=PLANAR_BOX('',78.5046476066079,78.5046476066079,#346);
#72=PLANAR_BOX('',78.5046590199381,78.5046590199381,#348);
#73=PLANAR_BOX('',78.5046514110513,78.5046514110513,#350);
#74=PLANAR_BOX('',78.5046476066079,78.5046476066079,#352);
#75=PLANAR_BOX('',116.327009316764,116.327009316764,#354);
#76=PLANAR_BOX('',105.758076222521,105.758076222521,#356);
#77=SHAPE_REPRESENTATION_RELATIONSHIP('','',#303,#78);
#78=ADVANCED_BREP_SHAPE_REPRESENTATION('',(#301),#552);
#79=PLANE('',#331);
#80=PLANE('',#332);
#81=PLANE('',#333);
#82=PLANE('',#334);
#83=PLANE('',#335);
#84=PLANE('',#336);
#85=PLANE('',#337);
#86=PLANE('',#338);
#87=PLANE('',#339);
#88=PLANE('',#340);
#89=LINE('',#503,#93);
#90=LINE('',#507,#94);
#91=LINE('',#518,#95);
#92=LINE('',#520,#96);
#93=VECTOR('',#401,1000.);
#94=VECTOR('',#404,1000.);
#95=VECTOR('',#419,1000.);
#96=VECTOR('',#422,1000.);
#97=CONICAL_SURFACE('',#308,33.,0.78539816339745);
#98=CONICAL_SURFACE('',#311,39.,0.785398163397443);
#99=ORIENTED_EDGE('',*,*,#141,.F.);
#100=ORIENTED_EDGE('',*,*,#142,.T.);
#101=ORIENTED_EDGE('',*,*,#143,.F.);
#102=ORIENTED_EDGE('',*,*,#144,.F.);
#103=ORIENTED_EDGE('',*,*,#145,.F.);
#104=ORIENTED_EDGE('',*,*,#146,.F.);
#105=ORIENTED_EDGE('',*,*,#147,.F.);
#106=ORIENTED_EDGE('',*,*,#148,.T.);
#107=ORIENTED_EDGE('',*,*,#149,.F.);
#108=ORIENTED_EDGE('',*,*,#150,.T.);
#109=ORIENTED_EDGE('',*,*,#144,.T.);
#110=ORIENTED_EDGE('',*,*,#151,.T.);
#111=ORIENTED_EDGE('',*,*,#146,.T.);
#112=ORIENTED_EDGE('',*,*,#152,.T.);
#113=ORIENTED_EDGE('',*,*,#153,.F.);
#114=ORIENTED_EDGE('',*,*,#154,.F.);
#115=ORIENTED_EDGE('',*,*,#155,.F.);
#116=ORIENTED_EDGE('',*,*,#156,.T.);
#117=ORIENTED_EDGE('',*,*,#157,.T.);
#118=ORIENTED_EDGE('',*,*,#158,.T.);
#119=ORIENTED_EDGE('',*,*,#159,.F.);
#120=ORIENTED_EDGE('',*,*,#158,.F.);
#121=ORIENTED_EDGE('',*,*,#157,.F.);
#122=ORIENTED_EDGE('',*,*,#159,.T.);
#123=ORIENTED_EDGE('',*,*,#152,.F.);
#124=ORIENTED_EDGE('',*,*,#160,.F.);
#125=ORIENTED_EDGE('',*,*,#153,.T.);
#126=ORIENTED_EDGE('',*,*,#160,.T.);
#127=ORIENTED_EDGE('',*,*,#156,.F.);
#128=ORIENTED_EDGE('',*,*,#161,.F.);
#129=ORIENTED_EDGE('',*,*,#154,.T.);
#130=ORIENTED_EDGE('',*,*,#155,.T.);
#131=ORIENTED_EDGE('',*,*,#161,.T.);
#132=ORIENTED_EDGE('',*,*,#145,.T.);
#133=ORIENTED_EDGE('',*,*,#151,.F.);
#134=ORIENTED_EDGE('',*,*,#143,.T.);
#135=ORIENTED_EDGE('',*,*,#150,.F.);
#136=ORIENTED_EDGE('',*,*,#149,.T.);
#137=ORIENTED_EDGE('',*,*,#148,.F.);
#138=ORIENTED_EDGE('',*,*,#147,.T.);
#139=ORIENTED_EDGE('',*,*,#142,.F.);
#140=ORIENTED_EDGE('',*,*,#141,.T.);
#141=EDGE_CURVE('NONE',#162,#162,#181,.T.);
#142=EDGE_CURVE('NONE',#163,#163,#182,.T.);
#143=EDGE_CURVE('NONE',#164,#164,#183,.T.);
#144=EDGE_CURVE('NONE',#165,#165,#184,.T.);
#145=EDGE_CURVE('NONE',#166,#166,#185,.T.);
#146=EDGE_CURVE('NONE',#167,#167,#186,.T.);
#147=EDGE_CURVE('NONE',#168,#168,#187,.T.);
#148=EDGE_CURVE('NONE',#169,#169,#188,.T.);
#149=EDGE_CURVE('NONE',#170,#170,#189,.T.);
#150=EDGE_CURVE('NONE',#171,#171,#190,.T.);
#151=EDGE_CURVE('NONE',#172,#172,#191,.T.);
#152=EDGE_CURVE('NONE',#173,#173,#192,.T.);
#153=EDGE_CURVE('NONE',#174,#175,#193,.T.);
#154=EDGE_CURVE('NONE',#176,#174,#89,.T.);
#155=EDGE_CURVE('NONE',#177,#176,#194,.T.);
#156=EDGE_CURVE('NONE',#177,#175,#90,.T.);
#157=EDGE_CURVE('NONE',#178,#178,#195,.T.);
#158=EDGE_CURVE('NONE',#179,#179,#196,.T.);
#159=EDGE_CURVE('NONE',#180,#180,#197,.T.);
#160=EDGE_CURVE('NONE',#174,#175,#91,.T.);
#161=EDGE_CURVE('NONE',#176,#177,#92,.T.);
#162=VERTEX_POINT('',#470);
#163=VERTEX_POINT('',#472);
#164=VERTEX_POINT('',#475);
#165=VERTEX_POINT('',#477);
#166=VERTEX_POINT('',#480);
#167=VERTEX_POINT('',#482);
#168=VERTEX_POINT('',#485);
#169=VERTEX_POINT('',#487);
#170=VERTEX_POINT('',#490);
#171=VERTEX_POINT('',#492);
#172=VERTEX_POINT('',#495);
#173=VERTEX_POINT('',#498);
#174=VERTEX_POINT('',#501);
#175=VERTEX_POINT('',#502);
#176=VERTEX_POINT('',#504);
#177=VERTEX_POINT('',#506);
#178=VERTEX_POINT('',#509);
#179=VERTEX_POINT('',#512);
#180=VERTEX_POINT('',#514);
#181=CIRCLE('',#306,12.);
#182=CIRCLE('',#307,12.);
#183=CIRCLE('',#309,33.);
#184=CIRCLE('',#310,35.);
#185=CIRCLE('',#312,39.);
#186=CIRCLE('',#313,41.);
#187=CIRCLE('',#315,20.);
#188=CIRCLE('',#316,20.);
#189=CIRCLE('',#318,26.25);
#190=CIRCLE('',#319,26.25);
#191=CIRCLE('',#321,35.);
#192=CIRCLE('',#323,41.);
#193=CIRCLE('',#325,35.5);
#194=CIRCLE('',#326,35.5);
#195=CIRCLE('',#327,35.5);
#196=CIRCLE('',#329,49.);
#197=CIRCLE('',#330,49.);
#198=EDGE_LOOP('',(#99));
#199=EDGE_LOOP('',(#100));
#200=EDGE_LOOP('',(#101));
#201=EDGE_LOOP('',(#102));
#202=EDGE_LOOP('',(#103));
#203=EDGE_LOOP('',(#104));
#204=EDGE_LOOP('',(#105));
#205=EDGE_LOOP('',(#106));
#206=EDGE_LOOP('',(#107));
#207=EDGE_LOOP('',(#108));
#208=EDGE_LOOP('',(#109));
#209=EDGE_LOOP('',(#110));
#210=EDGE_LOOP('',(#111));
#211=EDGE_LOOP('',(#112));
#212=EDGE_LOOP('',(#113,#114,#115,#116));
#213=EDGE_LOOP('',(#117));
#214=EDGE_LOOP('',(#118));
#215=EDGE_LOOP('',(#119));
#216=EDGE_LOOP('',(#120));
#217=EDGE_LOOP('',(#121));
#218=EDGE_LOOP('',(#122));
#219=EDGE_LOOP('',(#123));
#220=EDGE_LOOP('',(#124,#125));
#221=EDGE_LOOP('',(#126,#127,#128,#129));
#222=EDGE_LOOP('',(#130,#131));
#223=EDGE_LOOP('',(#132));
#224=EDGE_LOOP('',(#133));
#225=EDGE_LOOP('',(#134));
#226=EDGE_LOOP('',(#135));
#227=EDGE_LOOP('',(#136));
#228=EDGE_LOOP('',(#137));
#229=EDGE_LOOP('',(#138));
#230=EDGE_LOOP('',(#139));
#231=EDGE_LOOP('',(#140));
#232=FACE_BOUND('',#198,.T.);
#233=FACE_BOUND('',#199,.T.);
#234=FACE_BOUND('',#200,.T.);
#235=FACE_BOUND('',#201,.T.);
#236=FACE_BOUND('',#202,.T.);
#237=FACE_BOUND('',#203,.T.);
#238=FACE_BOUND('',#204,.T.);
#239=FACE_BOUND('',#205,.T.);
#240=FACE_BOUND('',#206,.T.);
#241=FACE_BOUND('',#207,.T.);
#242=FACE_BOUND('',#208,.T.);
#243=FACE_BOUND('',#209,.T.);
#244=FACE_BOUND('',#210,.T.);
#245=FACE_BOUND('',#211,.T.);
#246=FACE_BOUND('',#212,.T.);
#247=FACE_BOUND('',#213,.T.);
#248=FACE_BOUND('',#214,.T.);
#249=FACE_BOUND('',#215,.T.);
#250=FACE_BOUND('',#216,.T.);
#251=FACE_BOUND('',#217,.T.);
#252=FACE_BOUND('',#218,.T.);
#253=FACE_BOUND('',#219,.T.);
#254=FACE_BOUND('',#220,.T.);
#255=FACE_BOUND('',#221,.T.);
#256=FACE_BOUND('',#222,.T.);
#257=FACE_BOUND('',#223,.T.);
#258=FACE_BOUND('',#224,.T.);
#259=FACE_BOUND('',#225,.T.);
#260=FACE_BOUND('',#226,.T.);
#261=FACE_BOUND('',#227,.T.);
#262=FACE_BOUND('',#228,.T.);
#263=FACE_BOUND('',#229,.T.);
#264=FACE_BOUND('',#230,.T.);
#265=FACE_BOUND('',#231,.T.);
#266=CYLINDRICAL_SURFACE('',#305,12.);
#267=CYLINDRICAL_SURFACE('',#314,20.);
#268=CYLINDRICAL_SURFACE('',#317,26.25);
#269=CYLINDRICAL_SURFACE('',#320,35.);
#270=CYLINDRICAL_SURFACE('',#322,41.);
#271=CYLINDRICAL_SURFACE('',#324,35.5);
#272=CYLINDRICAL_SURFACE('',#328,49.);
#273=ADVANCED_FACE('NONE',(#232,#233),#266,.F.);
#274=ADVANCED_FACE('NONE',(#234,#235),#97,.T.);
#275=ADVANCED_FACE('NONE',(#236,#237),#98,.T.);
#276=ADVANCED_FACE('NONE',(#238,#239),#267,.T.);
#277=ADVANCED_FACE('NONE',(#240,#241),#268,.T.);
#278=ADVANCED_FACE('NONE',(#242,#243),#269,.T.);
#279=ADVANCED_FACE('NONE',(#244,#245),#270,.T.);
#280=ADVANCED_FACE('NONE',(#246,#247),#271,.T.);
#281=ADVANCED_FACE('NONE',(#248,#249),#272,.T.);
#282=ADVANCED_FACE('NONE',(#250,#251),#79,.F.);
#283=ADVANCED_FACE('NONE',(#252,#253),#80,.T.);
#284=ADVANCED_FACE('NONE',(#254),#81,.T.);
#285=ADVANCED_FACE('NONE',(#255),#82,.F.);
#286=ADVANCED_FACE('NONE',(#256),#83,.T.);
#287=ADVANCED_FACE('NONE',(#257,#258),#84,.T.);
#288=ADVANCED_FACE('NONE',(#259,#260),#85,.T.);
#289=ADVANCED_FACE('NONE',(#261,#262),#86,.T.);
#290=ADVANCED_FACE('NONE',(#263,#264),#87,.T.);
#291=ADVANCED_FACE('NONE',(#265),#88,.T.);
#292=CLOSED_SHELL('',(#273,#274,#275,#276,#277,#278,#279,#280,#281,#282,
#283,#284,#285,#286,#287,#288,#289,#290,#291));
#293=STYLED_ITEM('',(#294),#301);
#294=PRESENTATION_STYLE_ASSIGNMENT((#295));
#295=SURFACE_STYLE_USAGE(.BOTH.,#296);
#296=SURFACE_SIDE_STYLE('',(#297));
#297=SURFACE_STYLE_FILL_AREA(#298);
#298=FILL_AREA_STYLE('',(#299));
#299=FILL_AREA_STYLE_COLOUR('',#300);
#300=COLOUR_RGB('',0.811764705882353,0.843137254901961,0.909803921568627);
#301=MANIFOLD_SOLID_BREP('Body (0)',#292);
#302=SHAPE_DEFINITION_REPRESENTATION(#557,#303);
#303=SHAPE_REPRESENTATION('openarm_right_base_link_collision',(#304),#552);
#304=AXIS2_PLACEMENT_3D('',#467,#357,#358);
#305=AXIS2_PLACEMENT_3D('',#468,#359,#360);
#306=AXIS2_PLACEMENT_3D('',#469,#361,#362);
#307=AXIS2_PLACEMENT_3D('',#471,#363,#364);
#308=AXIS2_PLACEMENT_3D('',#473,#365,#366);
#309=AXIS2_PLACEMENT_3D('',#474,#367,#368);
#310=AXIS2_PLACEMENT_3D('',#476,#369,#370);
#311=AXIS2_PLACEMENT_3D('',#478,#371,#372);
#312=AXIS2_PLACEMENT_3D('',#479,#373,#374);
#313=AXIS2_PLACEMENT_3D('',#481,#375,#376);
#314=AXIS2_PLACEMENT_3D('',#483,#377,#378);
#315=AXIS2_PLACEMENT_3D('',#484,#379,#380);
#316=AXIS2_PLACEMENT_3D('',#486,#381,#382);
#317=AXIS2_PLACEMENT_3D('',#488,#383,#384);
#318=AXIS2_PLACEMENT_3D('',#489,#385,#386);
#319=AXIS2_PLACEMENT_3D('',#491,#387,#388);
#320=AXIS2_PLACEMENT_3D('',#493,#389,#390);
#321=AXIS2_PLACEMENT_3D('',#494,#391,#392);
#322=AXIS2_PLACEMENT_3D('',#496,#393,#394);
#323=AXIS2_PLACEMENT_3D('',#497,#395,#396);
#324=AXIS2_PLACEMENT_3D('',#499,#397,#398);
#325=AXIS2_PLACEMENT_3D('',#500,#399,#400);
#326=AXIS2_PLACEMENT_3D('',#505,#402,#403);
#327=AXIS2_PLACEMENT_3D('',#508,#405,#406);
#328=AXIS2_PLACEMENT_3D('',#510,#407,#408);
#329=AXIS2_PLACEMENT_3D('',#511,#409,#410);
#330=AXIS2_PLACEMENT_3D('',#513,#411,#412);
#331=AXIS2_PLACEMENT_3D('',#515,#413,#414);
#332=AXIS2_PLACEMENT_3D('',#516,#415,#416);
#333=AXIS2_PLACEMENT_3D('',#517,#417,#418);
#334=AXIS2_PLACEMENT_3D('',#519,#420,#421);
#335=AXIS2_PLACEMENT_3D('',#521,#423,#424);
#336=AXIS2_PLACEMENT_3D('',#522,#425,#426);
#337=AXIS2_PLACEMENT_3D('',#523,#427,#428);
#338=AXIS2_PLACEMENT_3D('',#524,#429,#430);
#339=AXIS2_PLACEMENT_3D('',#525,#431,#432);
#340=AXIS2_PLACEMENT_3D('',#526,#433,#434);
#341=AXIS2_PLACEMENT_3D('',#527,#435,#436);
#342=AXIS2_PLACEMENT_3D('',#529,#437,#438);
#343=AXIS2_PLACEMENT_3D('',#530,#439,#440);
#344=AXIS2_PLACEMENT_3D('',#532,#441,#442);
#345=AXIS2_PLACEMENT_3D('',#533,#443,#444);
#346=AXIS2_PLACEMENT_3D('',#535,#445,#446);
#347=AXIS2_PLACEMENT_3D('',#536,#447,#448);
#348=AXIS2_PLACEMENT_3D('',#538,#449,#450);
#349=AXIS2_PLACEMENT_3D('',#539,#451,#452);
#350=AXIS2_PLACEMENT_3D('',#541,#453,#454);
#351=AXIS2_PLACEMENT_3D('',#542,#455,#456);
#352=AXIS2_PLACEMENT_3D('',#544,#457,#458);
#353=AXIS2_PLACEMENT_3D('',#545,#459,#460);
#354=AXIS2_PLACEMENT_3D('',#547,#461,#462);
#355=AXIS2_PLACEMENT_3D('',#548,#463,#464);
#356=AXIS2_PLACEMENT_3D('',#550,#465,#466);
#357=DIRECTION('',(0.,0.,1.));
#358=DIRECTION('',(1.,0.,0.));
#359=DIRECTION('',(0.,-1.,0.));
#360=DIRECTION('',(1.,0.,-1.5E-14));
#361=DIRECTION('',(0.,-1.,0.));
#362=DIRECTION('',(1.,0.,-1.5E-14));
#363=DIRECTION('',(0.,-1.,0.));
#364=DIRECTION('',(1.,0.,-1.5E-14));
#365=DIRECTION('',(0.,1.,0.));
#366=DIRECTION('',(-1.,0.,1.5E-14));
#367=DIRECTION('',(0.,-1.,0.));
#368=DIRECTION('',(1.,0.,-1.5E-14));
#369=DIRECTION('',(0.,1.,0.));
#370=DIRECTION('',(1.,0.,-1.5E-14));
#371=DIRECTION('',(0.,1.,0.));
#372=DIRECTION('',(-1.,0.,1.5E-14));
#373=DIRECTION('',(0.,-1.,0.));
#374=DIRECTION('',(1.,0.,-1.5E-14));
#375=DIRECTION('',(0.,1.,0.));
#376=DIRECTION('',(1.,0.,-1.5E-14));
#377=DIRECTION('',(0.,1.,0.));
#378=DIRECTION('',(-1.,0.,1.5E-14));
#379=DIRECTION('',(0.,-1.,0.));
#380=DIRECTION('',(1.,0.,-1.5E-14));
#381=DIRECTION('',(0.,-1.,0.));
#382=DIRECTION('',(1.,0.,-1.5E-14));
#383=DIRECTION('',(0.,1.,0.));
#384=DIRECTION('',(-1.,0.,1.5E-14));
#385=DIRECTION('',(0.,-1.,0.));
#386=DIRECTION('',(1.,0.,-1.5E-14));
#387=DIRECTION('',(0.,-1.,0.));
#388=DIRECTION('',(1.,0.,-1.5E-14));
#389=DIRECTION('',(0.,1.,0.));
#390=DIRECTION('',(-1.,0.,1.5E-14));
#391=DIRECTION('',(0.,-1.,0.));
#392=DIRECTION('',(1.,0.,-1.5E-14));
#393=DIRECTION('',(0.,1.,0.));
#394=DIRECTION('',(-1.,0.,1.5E-14));
#395=DIRECTION('',(0.,-1.,0.));
#396=DIRECTION('',(1.,0.,-1.5E-14));
#397=DIRECTION('',(0.,-1.,0.));
#398=DIRECTION('',(1.,0.,-1.5E-14));
#399=DIRECTION('',(0.,1.,0.));
#400=DIRECTION('',(-1.,0.,1.5E-14));
#401=DIRECTION('',(0.,1.,0.));
#402=DIRECTION('',(0.,1.,0.));
#403=DIRECTION('',(-1.,0.,1.5E-14));
#404=DIRECTION('',(0.,1.,0.));
#405=DIRECTION('',(0.,1.,0.));
#406=DIRECTION('',(-1.,0.,1.5E-14));
#407=DIRECTION('',(0.,-1.,0.));
#408=DIRECTION('',(1.,0.,-1.5E-14));
#409=DIRECTION('',(0.,-1.,0.));
#410=DIRECTION('',(1.,0.,-1.5E-14));
#411=DIRECTION('',(0.,-1.,0.));
#412=DIRECTION('',(1.,0.,-1.5E-14));
#413=DIRECTION('',(0.,-1.,0.));
#414=DIRECTION('',(1.,0.,-1.5E-14));
#415=DIRECTION('',(0.,-1.,0.));
#416=DIRECTION('',(1.,0.,-1.5E-14));
#417=DIRECTION('',(0.,1.,0.));
#418=DIRECTION('',(1.5E-14,0.,1.));
#419=DIRECTION('',(1.5E-14,0.,1.));
#420=DIRECTION('',(-1.,0.,1.5E-14));
#421=DIRECTION('',(1.5E-14,0.,1.));
#422=DIRECTION('',(1.5E-14,0.,1.));
#423=DIRECTION('',(0.,1.,0.));
#424=DIRECTION('',(1.5E-14,0.,1.));
#425=DIRECTION('',(0.,-1.,0.));
#426=DIRECTION('',(1.,0.,-1.5E-14));
#427=DIRECTION('',(0.,-1.,0.));
#428=DIRECTION('',(1.,0.,-1.5E-14));
#429=DIRECTION('',(0.,-1.,0.));
#430=DIRECTION('',(1.,0.,-1.5E-14));
#431=DIRECTION('',(0.,-1.,0.));
#432=DIRECTION('',(1.,0.,-1.5E-14));
#433=DIRECTION('',(0.,-1.,0.));
#434=DIRECTION('',(1.,0.,-1.5E-14));
#435=DIRECTION('',(0.,0.,-1.));
#436=DIRECTION('',(-1.,0.,0.));
#437=DIRECTION('',(0.,0.,1.));
#438=DIRECTION('',(1.,0.,0.));
#439=DIRECTION('',(0.,1.,0.));
#440=DIRECTION('',(-1.,0.,0.));
#441=DIRECTION('',(0.,0.,1.));
#442=DIRECTION('',(1.,0.,0.));
#443=DIRECTION('',(-1.,0.,0.));
#444=DIRECTION('',(0.,-1.,0.));
#445=DIRECTION('',(0.,0.,1.));
#446=DIRECTION('',(1.,0.,0.));
#447=DIRECTION('',(0.,-1.,0.));
#448=DIRECTION('',(1.,0.,0.));
#449=DIRECTION('',(0.,0.,1.));
#450=DIRECTION('',(1.,0.,0.));
#451=DIRECTION('',(0.,0.,1.));
#452=DIRECTION('',(-1.,0.,0.));
#453=DIRECTION('',(0.,0.,1.));
#454=DIRECTION('',(1.,0.,0.));
#455=DIRECTION('',(1.,0.,0.));
#456=DIRECTION('',(0.,1.,0.));
#457=DIRECTION('',(0.,0.,1.));
#458=DIRECTION('',(1.,0.,0.));
#459=DIRECTION('',(-0.577350269189626,0.577350269189626,-0.577350269189626));
#460=DIRECTION('',(-0.707106801214018,-0.707106761159073,4.00549455825683E-8));
#461=DIRECTION('',(0.,0.,1.));
#462=DIRECTION('',(1.,0.,0.));
#463=DIRECTION('',(-0.718873086818576,0.585048618558824,-0.375419230954334));
#464=DIRECTION('',(-0.631219071238832,-0.775604592627188,1.79420713286582E-8));
#465=DIRECTION('',(0.,0.,1.));
#466=DIRECTION('',(1.,0.,0.));
#467=CARTESIAN_POINT('',(0.,0.,0.));
#468=CARTESIAN_POINT('',(0.,-57.5,1.11022302462516E-13));
#469=CARTESIAN_POINT('',(0.,-57.5,1.11022302462516E-13));
#470=CARTESIAN_POINT('',(12.,-57.5,-6.89776975374843E-14));
#471=CARTESIAN_POINT('',(0.,-62.5,1.11022302462516E-13));
#472=CARTESIAN_POINT('',(12.,-62.5,-6.89776975374843E-14));
#473=CARTESIAN_POINT('',(0.,-60.5,1.11022302462516E-13));
#474=CARTESIAN_POINT('',(0.,-60.5,1.11022302462516E-13));
#475=CARTESIAN_POINT('',(33.,-60.5,-3.83977697537484E-13));
#476=CARTESIAN_POINT('',(0.,-58.5,1.11022302462516E-13));
#477=CARTESIAN_POINT('',(35.,-58.5,-4.13977697537484E-13));
#478=CARTESIAN_POINT('',(0.,-57.8,1.11022302462516E-13));
#479=CARTESIAN_POINT('',(0.,-57.8,1.11022302462516E-13));
#480=CARTESIAN_POINT('',(39.,-57.8,-4.73977697537484E-13));
#481=CARTESIAN_POINT('',(0.,-55.8,1.11022302462516E-13));
#482=CARTESIAN_POINT('',(41.,-55.8,-5.03977697537484E-13));
#483=CARTESIAN_POINT('',(0.,-62.5,1.11022302462516E-13));
#484=CARTESIAN_POINT('',(0.,-62.5,1.11022302462516E-13));
#485=CARTESIAN_POINT('',(20.,-62.5,-1.88977697537484E-13));
#486=CARTESIAN_POINT('',(0.,-61.5,1.11022302462516E-13));
#487=CARTESIAN_POINT('',(20.,-61.5,-1.88977697537484E-13));
#488=CARTESIAN_POINT('',(0.,-61.5,1.11022302462516E-13));
#489=CARTESIAN_POINT('',(0.,-61.5,1.11022302462516E-13));
#490=CARTESIAN_POINT('',(26.25,-61.5,-2.82727697537484E-13));
#491=CARTESIAN_POINT('',(0.,-60.5,1.11022302462516E-13));
#492=CARTESIAN_POINT('',(26.25,-60.5,-2.82727697537484E-13));
#493=CARTESIAN_POINT('',(0.,-60.5,1.11022302462516E-13));
#494=CARTESIAN_POINT('',(0.,-57.8,1.11022302462516E-13));
#495=CARTESIAN_POINT('',(35.,-57.8,-4.13977697537484E-13));
#496=CARTESIAN_POINT('',(0.,-57.8,1.11022302462516E-13));
#497=CARTESIAN_POINT('',(0.,-52.8,1.11022302462516E-13));
#498=CARTESIAN_POINT('',(41.,-52.8,-5.03977697537484E-13));
#499=CARTESIAN_POINT('',(0.,-0.800000000000002,1.11022302462516E-13));
#500=CARTESIAN_POINT('',(0.,-0.800000000000002,1.11022302462516E-13));
#501=CARTESIAN_POINT('',(32.2499999999998,-0.800000000000002,-14.838716251752));
#502=CARTESIAN_POINT('',(32.2500000000002,-0.800000000000002,14.8387162517514));
#503=CARTESIAN_POINT('',(32.2499999999998,-7.3,-14.8387162517521));
#504=CARTESIAN_POINT('',(32.2499999999998,-7.3,-14.8387162517521));
#505=CARTESIAN_POINT('',(0.,-7.3,1.11022302462516E-13));
#506=CARTESIAN_POINT('',(32.2500000000002,-7.3,14.8387162517514));
#507=CARTESIAN_POINT('',(32.2500000000002,-7.3,14.8387162517514));
#508=CARTESIAN_POINT('',(0.,-12.,1.11022302462516E-13));
#509=CARTESIAN_POINT('',(-35.5,-12.,6.43522302462516E-13));
#510=CARTESIAN_POINT('',(0.,-12.,1.11022302462516E-13));
#511=CARTESIAN_POINT('',(0.,-12.,1.11022302462516E-13));
#512=CARTESIAN_POINT('',(49.,-12.,-6.23977697537484E-13));
#513=CARTESIAN_POINT('',(0.,-52.8,1.11022302462516E-13));
#514=CARTESIAN_POINT('',(49.,-52.8,-6.23977697537484E-13));
#515=CARTESIAN_POINT('',(0.,-12.,1.11022302462516E-13));
#516=CARTESIAN_POINT('',(0.,-52.8,1.11022302462516E-13));
#517=CARTESIAN_POINT('',(0.,-0.800000000000002,1.11022302462516E-13));
#518=CARTESIAN_POINT('',(32.2499999999998,-0.800000000000002,-14.8387162517521));
#519=CARTESIAN_POINT('',(32.2499999999998,-7.3,-14.8387162517521));
#520=CARTESIAN_POINT('',(32.2499999999998,-7.3,-14.8387162517521));
#521=CARTESIAN_POINT('',(0.,-7.3,1.11022302462516E-13));
#522=CARTESIAN_POINT('',(0.,-57.8,1.11022302462516E-13));
#523=CARTESIAN_POINT('',(0.,-60.5,1.11022302462516E-13));
#524=CARTESIAN_POINT('',(0.,-61.5,1.11022302462516E-13));
#525=CARTESIAN_POINT('',(0.,-62.5,1.11022302462516E-13));
#526=CARTESIAN_POINT('',(0.,-57.5,1.11022302462516E-13));
#527=CARTESIAN_POINT('',(-61.6487503051758,697.,62.4324760437012));
#528=CARTESIAN_POINT('',(0.,0.,0.));
#529=CARTESIAN_POINT('',(-39.2523247544148,-39.2523247544148,157.432476043701));
#530=CARTESIAN_POINT('',(-61.6487503051758,539.567504882813,-95.));
#531=CARTESIAN_POINT('',(0.,0.,0.));
#532=CARTESIAN_POINT('',(-39.2523295099691,-39.2523295099691,157.432495117188));
#533=CARTESIAN_POINT('',(95.7837219238281,697.,-95.));
#534=CARTESIAN_POINT('',(0.,0.,0.));
#535=CARTESIAN_POINT('',(-39.252323803304,-39.252323803304,157.432472229004));
#536=CARTESIAN_POINT('',(-61.6487503051758,854.432495117188,-95.));
#537=CARTESIAN_POINT('',(0.,0.,0.));
#538=CARTESIAN_POINT('',(-39.2523295099691,-39.2523295099691,157.432495117188));
#539=CARTESIAN_POINT('',(-61.6487503051758,697.,-252.432479858398));
#540=CARTESIAN_POINT('',(0.,0.,0.));
#541=CARTESIAN_POINT('',(-39.2523257055257,-39.2523257055257,157.432479858398));
#542=CARTESIAN_POINT('',(-219.08122253418,697.,-95.));
#543=CARTESIAN_POINT('',(0.,0.,0.));
#544=CARTESIAN_POINT('',(-39.252323803304,-39.252323803304,157.432472229004));
#545=CARTESIAN_POINT('',(73.0361417134608,562.315107981364,39.6848920186366));
#546=CARTESIAN_POINT('',(0.,0.,0.));
#547=CARTESIAN_POINT('',(-58.1635046583819,-58.1635046583819,233.281075988207));
#548=CARTESIAN_POINT('',(90.8143384744437,572.919239282582,-15.3787475312562));
#549=CARTESIAN_POINT('',(0.,0.,0.));
#550=CARTESIAN_POINT('',(-52.8790381112607,-52.8790381112607,212.08623827379));
#551=MECHANICAL_DESIGN_GEOMETRIC_PRESENTATION_REPRESENTATION('',(#293),
#552);
#552=(
GEOMETRIC_REPRESENTATION_CONTEXT(3)
GLOBAL_UNCERTAINTY_ASSIGNED_CONTEXT((#553))
GLOBAL_UNIT_ASSIGNED_CONTEXT((#556,#555,#554))
REPRESENTATION_CONTEXT('openarm_right_base_link_collision',
'TOP_LEVEL_ASSEMBLY_PART')
);
#553=UNCERTAINTY_MEASURE_WITH_UNIT(LENGTH_MEASURE(1.E-5),#556,
'DISTANCE_ACCURACY_VALUE','Maximum Tolerance applied to model');
#554=(
NAMED_UNIT(*)
SI_UNIT($,.STERADIAN.)
SOLID_ANGLE_UNIT()
);
#555=(
NAMED_UNIT(*)
PLANE_ANGLE_UNIT()
SI_UNIT($,.RADIAN.)
);
#556=(
LENGTH_UNIT()
NAMED_UNIT(*)
SI_UNIT(.MILLI.,.METRE.)
);
#557=PRODUCT_DEFINITION_SHAPE('','',#558);
#558=PRODUCT_DEFINITION('','',#560,#559);
#559=PRODUCT_DEFINITION_CONTEXT('',#566,'design');
#560=PRODUCT_DEFINITION_FORMATION_WITH_SPECIFIED_SOURCE('','',#562,
 .NOT_KNOWN.);
#561=PRODUCT_RELATED_PRODUCT_CATEGORY('','',(#562));
#562=PRODUCT('openarm_right_base_link_collision',
'openarm_right_base_link_collision','openarm_right_base_link_collision',
(#564));
#563=PRODUCT_CATEGORY('','');
#564=PRODUCT_CONTEXT('',#566,'mechanical');
#565=APPLICATION_PROTOCOL_DEFINITION('international standard',
'ap242_managed_model_based_3d_engineering',2011,#566);
#566=APPLICATION_CONTEXT('managed model based 3d engineering');
ENDSEC;
END-ISO-10303-21;
