# Generated by benchmark/pick_up_apple/mujoco_src/export.py
v 0.027039458975195885 -0.022614834830164909 -0.059995248913764954
v 0.030600929632782936 -0.017472581937909126 -0.059996660798788071
v 0.028969103470444679 -0.019333519041538239 -0.055283188819885254
v 0.022483428940176964 -0.027083678171038628 -0.060111898928880692
v 0.025204090401530266 -0.024034079164266586 -0.055140260607004166
v -0.048385400325059891 -0.028236284852027893 0.010701399296522141
v -0.048402853310108185 -0.021297546103596687 -0.0068944185040891171
v -0.00037099467590451241 -0.03483298048377037 -0.055973228067159653
v -0.0018245691899210215 -0.035182621330022812 -0.060255926102399826
v 0.0047530606389045715 -0.035214893519878387 -0.059164613485336304
v 0.017152713611721992 -0.030772512778639793 -0.06002943217754364
v 0.014798123389482498 -0.031521279364824295 -0.055534139275550842
v 0.011382510885596275 -0.033465571701526642 -0.059709873050451279
v 0.020384181290864944 -0.028241528198122978 -0.055309493094682693
v 0.0091241728514432907 -0.033603355288505554 -0.055309835821390152
v 0.0066327238455414772 -0.034179754555225372 -0.051381364464759827
v 0.0043181967921555042 -0.034547336399555206 -0.054656170308589935
v 0.0010206297738477588 -0.034758776426315308 -0.051473256200551987
v 0.017774773761630058 -0.030004862695932388 -0.051605105400085449
v 0.012150432914495468 -0.032665178179740906 -0.05164644867181778
v -0.04838155210018158 -0.028040170669555664 0.0046683633700013161
v 0.031879760324954987 -0.014014673419296741 -0.055426057428121567
v 0.033189680427312851 -0.011898218654096127 -0.059979431331157684
v 0.033228043466806412 -0.010407452471554279 -0.051241610199213028
v -0.048359014093875885 -0.02652738057076931 -0.0071516484022140503
v 0.034810852259397507 -0.0060104052536189556 -0.059751551598310471
v 0.033772259950637817 -0.0083969775587320328 -0.055417176336050034
v 0.034728582948446274 -0.0028064390644431114 -0.054760638624429703
v 0.035312581807374954 4.9533027777215466e-05 -0.059812266379594803
v 0.034705702215433121 0.0029945708811283112 -0.054787091910839081
v 0.034419629722833633 0.0052643837407231331 -0.051291227340698242
v 0.034820001572370529 -2.6922908347160046e-15 -0.051298514008522034
v 0.03466043621301651 0.0062796417623758316 -0.060061141848564148
v 0.033716771751642227 0.0086790556088089943 -0.055459566414356232
v 0.032953109592199326 0.012300202623009682 -0.060183566063642502
v 0.033228069543838501 0.010407459922134876 -0.051241613924503326
v 0.031787816435098648 0.014297087676823139 -0.055418659001588821
v 0.030361834913492203 0.017864806577563286 -0.060002036392688751
v 0.028875790536403656 0.019558550789952278 -0.055208321660757065
v 0.026800703257322311 0.022828990593552589 -0.060097381472587585
v 0.025052443146705627 0.024200340732932091 -0.055142674595117569
v 0.020163489505648613 0.028387071564793587 -0.055379156023263931
v 0.022194482386112213 0.02721780352294445 -0.060266874730587006
v 0.016774391755461693 0.030914569273591042 -0.060151007026433945
v 0.0087897777557373047 0.033681541681289673 -0.05529354140162468
v 0.014498881995677948 0.03165610134601593 -0.05555526539683342
v 0.010987019166350365 0.033548098057508469 -0.059795122593641281
v 0.0039967829361557961 0.034576095640659332 -0.054604001343250275
v 0.0063873305916786194 0.034236535429954529 -0.051281437277793884
v 0.00079717009793967009 0.034795388579368591 -0.051314551383256912
v 0.0043403035961091518 0.035240329802036285 -0.059190098196268082
v -0.0022451365366578102 0.035247262567281723 -0.060098711401224136
v -0.00065795582486316562 0.034838493913412094 -0.055890712887048721
v 0.01760086789727211 0.030099468305706978 -0.051669206470251083
v -0.048358626663684845 -0.023321814835071564 -0.012504089623689651
v -0.048412568867206573 -0.0220839474350214 0.021188048645853996
v 0.011931280605494976 0.032744262367486954 -0.051642116159200668
v -0.048399999737739563 -0.016690855845808983 -0.0025584909599274397
v -0.048399999737739563 -0.016853170469403267 0.0031540277414023876
v 0.034419599920511246 -0.0052643846720457077 -0.051291920244693756
v 0.034376759082078934 0.0031359121203422546 -0.051004648208618164
v 0.030824793502688408 -0.0029494799673557281 -0.050741959363222122
v 0.034383978694677353 -0.0031380068976432085 -0.050995595753192902
v 0.028400756418704987 -0.0095132356509566307 -0.050308175384998322
v -0.048399999737739563 -0.022215118631720543 -0.0022186469286680222
v -0.048374038189649582 -0.027773415669798851 -0.0013567665591835976
v -0.048399999737739563 -0.011006926186382771 0.008999999612569809
v -0.048401106148958206 -0.0233896654099226 0.01657114177942276
v 0.028179824352264404 0.0099768517538905144 -0.050272181630134583
v 0.029818836599588394 0.0046183299273252487 -0.050683602690696716
v -0.04840092733502388 -0.010419076308608055 -0.014744951389729977
v -0.01263517327606678 0.034768171608448029 -0.049554165452718735
v -0.048416655510663986 -0.021929780021309853 -0.019069546833634377
v -0.048400212079286575 -0.0053010284900665283 0.021017232909798622
v -0.048399999737739563 -0.0050449562259018421 0.015017488971352577
v -0.048381827771663666 -0.0058609475381672382 0.026886066421866417
v -0.0061399280093610287 0.034854352474212646 -0.052489437162876129
v -0.048399906605482101 -0.017213007435202599 0.015491810627281666
v -0.048399999737739563 -0.011100836098194122 0.015117640607059002
v 0.023901168256998062 0.025302082300186157 -0.050121858716011047
v -0.048399999737739563 -0.0043487930670380592 -0.020000474527478218
v -0.048372656106948853 0.00011564465239644051 0.026699619367718697
v -0.048399999737739563 0.00088245415827259421 0.014884404838085175
v -0.048399887979030609 -0.011395378038287163 0.021241698414087296
v 0.02772887796163559 -0.021055120974779129 -0.050607282668352127
v -0.0021829630713909864 -0.034922581166028976 -0.046860493719577789
v -0.0078813591971993446 -0.034959565848112106 -0.046138070523738861
v -0.0060205496847629547 -0.034799356013536453 -0.0526125468313694
v -0.013580000028014183 -0.035001840442419052 -0.045417852699756622
v -0.012591290287673473 -0.03485976904630661 -0.04965740442276001
v -0.048399999737739563 0.0014011870371177793 -0.020310910418629646
v 0.0035081387031823397 -0.034673955291509628 -0.047569286078214645
v -0.004865473136305809 -0.034813147038221359 -0.057384993880987167
v -0.0072797075845301151 -0.035026475787162781 -0.060406722128391266
v -0.008561321534216404 -0.034790363162755966 -0.057158447802066803
v -0.012300283648073673 -0.034815028309822083 -0.055287823081016541
v -0.011628413572907448 -0.035457950085401535 -0.059327874332666397
v 0.00069681461900472641 0.032577700912952423 -0.063083700835704803
v 0.016356797888875008 0.026436977088451385 -0.063663668930530548
v 0.011077904142439365 0.029707221314311028 -0.063469074666500092
v 0.0065748016349971294 0.032419353723526001 -0.062874473631381989
v 0.02112816646695137 0.022122744470834732 -0.063890419900417328
v 0.026233302429318428 0.019124608486890793 -0.063172675669193268
v 0.028061686083674431 0.014326085336506367 -0.063562996685504913
v 0.031621448695659637 0.0024530671071261168 -0.063453748822212219
v 0.030100630596280098 0.0084610441699624062 -0.06363263726234436
v 0.032031707465648651 -0.0035197264514863491 -0.06325877457857132
v 0.028469491750001907 -0.013791489414870739 -0.06352485716342926
v 0.031802844256162643 -0.0086185485124588013 -0.062951087951660156
v 0.026668250560760498 -0.019118662923574448 -0.062977015972137451
v 0.021919969469308853 -0.022602280601859093 -0.063580840826034546
v 0.017281351611018181 -0.026786712929606438 -0.06339138001203537
v 0.01198278646916151 -0.029972216114401817 -0.063230395317077637
v 0.0073142163455486298 -0.032615628093481064 -0.062668211758136749
v 0.0018988973461091518 -0.032715421169996262 -0.062979333102703094
v -0.012296088971197605 0.034806579351425171 -0.055367272347211838
v -0.0083651021122932434 0.034802477806806564 -0.057163622230291367
v -0.0067324531264603138 0.035236552357673645 -0.059831645339727402
v -0.011152097955346107 0.035273291170597076 -0.060072511434555054
v -0.0048886756412684917 0.034806255251169205 -0.057238750159740448
v -0.0065639871172606945 0.032992694526910782 -0.06295902281999588
v -0.014424564316868782 0.032070968300104141 -0.063300184905529022
v -0.0043883845210075378 -0.032591208815574646 -0.063094601035118103
v -0.011430670507252216 -0.032954949885606766 -0.062997490167617798
v -0.048403430730104446 -0.017764389514923096 0.022129107266664505
v -0.048395060002803802 -0.011679872870445251 0.027253629639744759
v 0.0089754126965999603 -0.033323675394058228 -0.047960344702005386
v -0.048399999737739563 0.0070707830600440502 -0.014894369058310986
v -0.048399992287158966 0.0020728739909827709 -0.025295458734035492
v 0.014304515905678272 -0.031397603452205658 -0.048636745661497116
v 0.019260961562395096 -0.02864048071205616 -0.049265842884778976
v 0.023707276210188866 -0.02510874904692173 -0.04983019083738327
v -0.048399996012449265 -0.0038135887589305639 -0.024919372051954269
v 0.030579060316085815 -0.016089135780930519 -0.050702393054962158
v 0.030579034239053726 0.016089122742414474 -0.05070238932967186
v -0.0022458485327661037 0.0346241295337677 -0.04653608426451683
v -0.048399999737739563 0.012310398742556572 0.014389753341674805
v 0.027516663074493408 0.020888036116957664 -0.050313699990510941
v 0.019261008128523827 0.028640555217862129 -0.049265846610069275
v 0.0089753950014710426 0.033323641866445541 -0.047960344702005386
v 0.014304528944194317 0.031397629529237747 -0.048636745661497116
v 0.0034130350686609745 0.034387145191431046 -0.04725433886051178
v -0.0079129422083497047 0.034661464393138885 -0.045816786587238312
v -0.013580000028014183 0.034704040735960007 -0.04509749636054039
v -0.022025199607014656 -0.033741619437932968 -0.054340366274118423
v -0.016763390973210335 -0.034610703587532043 -0.053053334355354309
v -0.019648615270853043 -0.034294385462999344 -0.049734789878129959
v -0.033646143972873688 -0.028479559347033501 -0.050284717231988907
v -0.048399999737739563 0.011245939880609512 0.019034383818507195
v -0.032001402229070663 -0.030378034338355064 -0.046046052128076553
v -0.029485462233424187 -0.031071048229932785 -0.04923393577337265
v -0.048399999737739563 0.0066259917803108692 0.014600632712244987
v -0.028496095910668373 -0.031450580805540085 -0.054223518818616867
v -0.025074122473597527 -0.032914876937866211 -0.049845173954963684
v -0.027910703793168068 -0.03224746510386467 -0.045067179948091507
v -0.022485325112938881 -0.033941857516765594 -0.045996919274330139
v -0.048399999737739563 0.013191433623433113 -0.014960877597332001
v -0.016103506088256836 -0.034754369407892227 -0.049525555223226547
v -0.021759601309895515 0.034064028412103653 -0.046500738710165024
v -0.048365015536546707 0.018026292324066162 0.020145764574408531
v -0.01949676126241684 0.034319411963224411 -0.049803588539361954
v -0.032585315406322479 0.029200281947851181 -0.051038872450590134
v -0.0329909548163414 0.029502134770154953 -0.046804863959550858
v -0.029419384896755219 0.031080393120646477 -0.049372017383575439
v -0.048399999737739563 0.012629617936909199 0.0086526386439800262
v -0.027469797059893608 0.032500810921192169 -0.044371902942657471
v -0.028532322496175766 0.031428605318069458 -0.054187294095754623
v -0.024880062788724899 0.032980009913444519 -0.049857214093208313
v -0.022069226950407028 0.033728122711181641 -0.054332278668880463
v -0.016113121062517166 0.034758575260639191 -0.049526233226060867
v -0.016828574240207672 0.03461054340004921 -0.05307186022400856
v -0.028699999675154686 -0.048825852572917938 0.0041274838149547577
v -0.028699999675154686 -0.048961706459522247 -0.0019368348876014352
v -0.048404809087514877 -0.009060378186404705 -0.01919938437640667
v -0.048399999737739563 0.012995492666959763 -0.0090375663712620735
v -0.027813732624053955 -0.038434680551290512 -0.027239644899964333
v -0.028400000184774399 -0.041894465684890747 -0.024830300360918045
v -0.028400000184774399 -0.044641371816396713 -0.019463760778307915
v -0.048403892666101456 0.014465568587183952 -0.026054898276925087
v -0.048403982073068619 0.019561227411031723 -0.021205954253673553
v -0.028699999675154686 -0.048347238451242447 -0.0079714721068739891
v -0.028400000184774399 -0.046704165637493134 -0.013798945583403111
v -0.048403222113847733 0.0081820860505104065 -0.025824006646871567
v -0.028400000184774399 -0.046039368957281113 0.015876598656177521
v -0.028699999675154686 -0.043994318693876266 0.021575449034571648
v -0.048399865627288818 0.013530018739402294 -0.02071104384958744
v -0.028400000184774399 -0.047648239880800247 0.01006653904914856
v -0.048399891704320908 0.0074361418373882771 -0.020480729639530182
v -0.048404019325971603 0.023092897608876228 0.0011308440007269382
v -0.028699999675154686 -0.037360422313213348 0.031704872846603394
v -0.048345495015382767 0.028655495494604111 0.0022267366293817759
v -0.048393987119197845 0.024804724380373955 -0.016642551869153976
v -0.048399999737739563 0.019282761961221695 -0.015289338305592537
v -0.028400000184774399 -0.040740489959716797 0.026681499555706978
v -0.048399869352579117 0.017209906131029129 0.013301888480782509
v -0.048402566462755203 0.023709231987595558 0.013765070587396622
v -0.028699999675154686 -0.023297561332583427 0.043107118457555771
v -0.048329878598451614 0.024128574877977371 0.0065296324901282787
v -0.048399899154901505 0.018415374681353569 0.0082099922001361847
v -0.028400000184774399 -0.032953847199678421 0.035857133567333221
v -0.028400000184774399 -0.028271006420254707 0.039654005318880081
v -0.028400000184774399 -0.0060171429067850113 0.048326846212148666
v -0.028699999675154686 -1.9510512861342297e-14 0.048999998718500137
v -0.048401057720184326 0.018565177917480469 0.0022979956120252609
v -0.028400000184774399 -0.011942074634134769 0.047213099896907806
v -0.048399999737739563 0.00095974060241132975 0.0089666666463017464
v -0.028400000184774399 -0.017683999612927437 0.045375831425189972
v -0.028699999675154686 0.012015639804303646 0.047503940761089325
v -0.048396039754152298 0.029117416590452194 -0.0037409423384815454
v -0.048379790037870407 0.025716584175825119 -0.0096987569704651833
v -0.048367537558078766 0.012007627636194229 0.024339765310287476
v -0.048399999737739563 0.012931662611663342 -0.0031123810913413763
v -0.028699999675154686 0.0060542095452547073 0.048624545335769653
v -0.048399999737739563 0.012884174473583698 0.002801782451570034
v -0.048400860279798508 0.0064474134705960751 0.020252339541912079
v -0.028400000184774399 0.028271006420254707 0.039654005318880081
v -0.028699999675154686 0.023297561332583427 0.043107118457555771
v -0.028400000184774399 0.017683999612927437 0.045375831425189972
v -0.048364758491516113 0.0061504160985350609 0.026105692610144615
v -0.028400000184774399 0.043724965304136276 0.021443353965878487
v -0.048400804400444031 0.00066769291879609227 0.020810242742300034
v -0.048399999737739563 0.006993073970079422 -0.0030000000260770321
v -0.048399679362773895 0.024271115660667419 -0.0035044657997786999
v -0.028699999675154686 0.037360422313213348 0.031704872846603394
v -0.028400000184774399 0.032953847199678421 0.035857133567333221
v -0.028699999675154686 0.047941762953996658 0.010128550231456757
v -0.048399999737739563 0.018674101680517197 -0.0033766708802431822
v -0.028699999675154686 0.048825852572917938 0.0041274838149547577
v -0.028400000184774399 0.040740489959716797 0.026681499555706978
v -0.048399999737739563 0.019048826768994331 -0.0092040188610553741
v -0.028400000184774399 0.046039368957281113 0.015876598656177521
v -0.048399999737739563 0.0011192563688382506 -0.014794444665312767
v -0.028699999675154686 0.048961706459522247 -0.0019368348876014352
v -0.028699999675154686 0.048347238451242447 -0.0079714721068739891
v -0.048399999737739563 0.006993073970079422 -0.008999999612569809
v -0.048399999737739563 0.0069597405381500721 0.0029666665941476822
v -0.048399999737739563 0.0068479175679385662 0.0088727064430713654
v -0.028400000184774399 0.046704165637493134 -0.013798945583403111
v -0.048399999737739563 -0.004622332751750946 -0.014659449458122253
v -0.028699999675154686 0.042152542620897293 -0.024983260780572891
v -0.028400000184774399 0.044641371816396713 -0.019463760778307915
v -0.048399999737739563 0.0010264072334393859 -0.0089666666463017464
v -0.028243722394108772 0.039441667497158051 -0.02784574031829834
v -0.030438635498285294 0.040137715637683868 -0.029150016605854034
v -0.029908815398812294 -0.039949830621480942 -0.02918352372944355
v -0.037940289825201035 -0.027582913637161255 0.034896988421678543
v -0.034144893288612366 -0.031730677932500839 0.03697696328163147
v -0.03387896716594696 -0.026714155450463295 0.040931176394224167
v -0.037925548851490021 -0.015616406686604023 0.041641518473625183
v -0.041859500110149384 -0.018743187189102173 0.035949055105447769
v -0.037301935255527496 -0.021882042288780212 0.039435792714357376
v -0.041911300271749496 -0.023860130459070206 0.032713379710912704
v -0.033831540495157242 -0.017402283847332001 0.045629832893610001
v -0.041964102536439896 -0.028388407081365585 0.028801053762435913
v -0.045641403645277023 -0.024998042732477188 0.026935933157801628
v -0.038053702563047409 -0.032071076333522797 0.030646122992038727
v -0.041859503835439682 -0.032143905758857727 0.024708950892090797
v -0.038051385432481766 -0.035853929817676544 0.026111645624041557
v -0.034258414059877396 -0.040117502212524414 0.027583286166191101
v -0.034221287816762924 -0.036163534969091415 0.032502412796020508
v -0.038069747388362885 -0.038966204971075058 0.021134888753294945
v -0.041837077587842941 -0.035135716199874878 0.020267937332391739
v -0.044758953154087067 -0.032008480280637741 0.019858844578266144
v -0.034245308488607407 -0.043261758983135223 0.022221226245164871
v -0.038079794496297836 -0.041435733437538147 0.0157124362885952
v -0.045464109629392624 -0.03547152504324913 0.010329031385481358
v -0.045296132564544678 -0.033772572875022888 0.015439659357070923
v -0.048202149569988251 -0.032428953796625137 0.01172288041561842
v -0.037948139011859894 -0.043326929211616516 0.0099223321303725243
v -0.037301719188690186 -0.044973570853471756 0.0034812199883162975
v -0.033836960792541504 -0.047675032168626785 0.010574036277830601
v -0.034192536026239395 -0.04583870992064476 0.016436301171779633
v -0.04186471551656723 -0.040336575359106064 0.0040560541674494743
v -0.041986513882875443 -0.039205417037010193 0.0098217353224754333
v -0.041720077395439148 -0.040636729449033737 -0.0017776442691683769
v -0.037928864359855652 -0.044348407536745071 -0.0036817544605582952
v -0.034251824021339417 -0.048268705606460571 -0.0061407196335494518
v -0.033935800194740295 -0.048814389854669571 0.00024086971825454384
v -0.041818764060735703 -0.039903156459331512 -0.0073903501033782959
v -0.038062170147895813 -0.043276142328977585 -0.0097193429246544838
v -0.044802017509937286 -0.037238121032714844 -0.0053942194208502769
v -0.038064245134592056 -0.041544672101736069 -0.015505224466323853
v -0.041986815631389618 -0.038323324173688889 -0.012833478860557079
v -0.045470036566257477 -0.030797917395830154 -0.020383751019835472
v -0.045671533793210983 -0.033351149410009384 -0.015375081449747086
v -0.048804596066474915 -0.028040101751685143 -0.017403459176421165
v -0.038028087466955185 -0.038976985961198807 -0.021210476756095886
v -0.034111101180315018 -0.045072015374898911 -0.018527358770370483
v -0.034445453435182571 -0.037296175956726074 -0.031136566773056984
v -0.033663786947727203 -0.041952405124902725 -0.025141941383481026
v -0.038202904164791107 -0.035240553319454193 -0.026668652892112732
v -0.041992601007223129 -0.036086101084947586 -0.018190003931522369
v -0.041916079819202423 -0.033253546804189682 -0.023096483200788498
v -0.041775718331336975 -0.03065033070743084 -0.026679355651140213
v -0.039952591061592102 -0.030824493616819382 -0.029127132147550583
v -0.037432491779327393 -0.033089056611061096 -0.030431864783167839
v -0.045836426317691803 -0.024116076529026031 -0.027492307126522064
v -0.04515601322054863 -0.027521884068846703 -0.025107322260737419
v -0.048636652529239655 -0.021943420171737671 -0.025217942893505096
v -0.045866910368204117 -0.021027324721217155 -0.0297548808157444
v -0.049050472676753998 -0.015227158553898335 -0.02844606526196003
v -0.045368712395429611 -0.015701126307249069 0.03360150009393692
v -0.044657189399003983 -0.01150271762162447 0.035951320081949234
v -0.048057291656732559 -0.011841503903269768 0.03268234059214592
v -0.041840966790914536 -0.008327387273311615 0.039697360247373581
v -0.042014975100755692 -0.0029122845735400915 0.040282644331455231
v -0.045408014208078384 -0.0073122582398355007 0.036276556551456451
v -0.034158725291490555 -0.011472510173916817 0.047325916588306427
v -0.038045313209295273 -0.0098353233188390732 0.043244652450084686
v -0.045785821974277496 -0.0019265509909018874 0.036540687084197998
v -0.048828437924385071 -0.0066515584476292133 0.032354217022657394
v -0.038088127970695496 -0.0040123164653778076 0.044123589992523193
v -0.034270286560058594 -0.0053139841184020042 0.048374146223068237
v -0.034327380359172821 0.0009792897617444396 0.048588670790195465
v -0.038110699504613876 0.0019145999103784561 0.044244755059480667
v -0.034324593842029572 0.0072165215387940407 0.048066534101963043
v -0.038098514080047607 0.0078265340998768806 0.04360835999250412
v -0.042014732956886292 0.0084622222930192947 0.039489980787038803
v -0.041828706860542297 0.013928113505244255 0.038105204701423645
v -0.045638192445039749 0.0095207151025533676 0.035570532083511353
v -0.038055580109357834 0.013619179837405682 0.042215954512357712
v -0.044856492429971695 0.014369726181030273 0.034726843237876892
v -0.04868408665060997 0.011985987424850464 0.030993176624178886
v -0.037907179445028305 0.019356423988938332 0.040094204246997833
v -0.037284981459379196 0.025850607082247734 0.036987438797950745
v -0.041725181043148041 0.019138598814606667 0.03588838130235672
v -0.034192152321338654 0.019262837246060371 0.044771987944841385
v -0.033790759742259979 0.025005223229527473 0.041915543377399445
v -0.032775722444057465 0.029886394739151001 0.039126526564359665
v -0.033857192844152451 0.033346608281135559 0.035674218088388443
v -0.041858240962028503 0.024018969386816025 0.03266679123044014
v -0.037950534373521805 0.030558153986930847 0.032274074852466583
v -0.041946094483137131 0.028411479666829109 0.028800433501601219
v -0.041848067194223404 0.032178156077861786 0.024669790640473366
v -0.045393582433462143 0.027062756940722466 0.025291468948125839
v -0.034185774624347687 0.037481166422367096 0.031051388010382652
v -0.038059409707784653 0.034589577466249466 0.027733907103538513
v -0.044781524688005447 0.0305499117821455 0.021991411224007607
v -0.048555530607700348 0.026621203869581223 0.020581783726811409
v -0.038045231252908707 0.037979289889335632 0.02290729433298111
v -0.034211676567792892 0.041171059012413025 0.025968434289097786
v -0.034206632524728775 0.044165689498186111 0.020480431616306305
v -0.038066308945417404 0.040649276226758957 0.01770012266933918
v -0.041985649615526199 0.037429776042699814 0.015254504047334194
v -0.042025152593851089 0.039160005748271942 0.009827885776758194
v -0.045686244964599609 0.03438800573348999 0.01286693848669529
v -0.034264355897903442 0.046422980725765228 0.01468379981815815
v -0.038095969706773758 0.042619705200195312 0.012121706269681454
v -0.038093917071819305 0.043876092880964279 0.0062654814682900906
v -0.045624837279319763 0.036047767847776413 0.0074288593605160713
v -0.049206025898456573 0.030614828690886497 0.0094871800392866135
v -0.037947703152894974 0.044481411576271057 0.00011290591646684334
v -0.041917331516742706 0.040270734578371048 0.0041574346832931042
v -0.034266255795955658 0.048597618937492371 0.0022879405878484249
v -0.033937633037567139 0.048641473054885864 -0.0041079707443714142
v -0.04167972132563591 0.040685452520847321 -0.0016562144737690687
v -0.037283871322870255 0.044567808508872986 -0.0070766075514256954
v -0.032862961292266846 0.048211447894573212 -0.0096996091306209564
v -0.03383839875459671 0.046687621623277664 -0.014315411448478699
v -0.041713897138834 0.040028505027294159 -0.0073044812306761742
v -0.037949617952108383 0.042401399463415146 -0.0133287338539958
v -0.04203154519200325 0.038307614624500275 -0.012740627862513065
v -0.042311675846576691 0.035910923033952713 -0.017827343195676804
v -0.04572722315788269 0.034454941749572754 -0.012562730349600315
v -0.045723460614681244 0.032264009118080139 -0.017452547326683998
v -0.04881170392036438 0.030162349343299866 -0.013628548011183739
v -0.038257025182247162 0.039891462773084641 -0.01886567659676075
v -0.034253582358360291 0.044375039637088776 -0.019989101216197014
v -0.034684360027313232 0.041325531899929047 -0.025212045758962631
v -0.038899406790733337 0.036091901361942291 -0.024215865880250931
v -0.034828867763280869 0.03771807998418808 -0.030111921951174736
v -0.038223683834075928 0.032490517944097519 -0.029914038255810738
v -0.04298357293009758 0.033137723803520203 -0.021371396258473396
v -0.042330190539360046 0.030645772814750671 -0.025868222117424011
v -0.041224174201488495 0.028133748099207878 -0.030049489811062813
v -0.044142395257949829 0.025803694501519203 -0.028228331357240677
v -0.045625340193510056 0.029692592099308968 -0.021754113957285881
v -0.048506896942853928 0.025276077911257744 -0.022396331652998924
v -0.048327840864658356 0.028877360746264458 -0.018335049971938133
v -0.046677917242050171 0.024045253172516823 -0.026402933523058891
v -0.045475367456674576 0.027157580479979515 -0.025033086538314819
v -0.048729140311479568 0.020259140059351921 -0.02627844363451004
v -0.046067096292972565 0.021352155134081841 -0.029332179576158524
v -0.048163719475269318 0.016508257016539574 -0.030360082164406776
v -0.045450817793607712 0.036258164793252945 -0.0072155697271227837
v -0.04877738282084465 0.032129760831594467 -0.0078344475477933884
v -0.048387210816144943 0.034109644591808319 -0.0014765647938475013
v -0.044668816030025482 0.037641312927007675 -0.0028718963731080294
v -0.048385124653577805 0.033790424466133118 0.0043277875520288944
v -0.045275520533323288 0.037088494747877121 0.0019479457987472415
v -0.034319177269935608 0.047859456390142441 0.0085524842143058777
v -0.048516407608985901 0.029917890205979347 0.015403082594275475
v -0.045431036502122879 0.032321125268936157 0.01798967644572258
v -0.041850175708532333 0.035147272050380707 0.020227182656526566
v -0.045557793229818344 0.022852106019854546 0.028909491375088692
v -0.048493213951587677 0.022597482427954674 0.025101814419031143
v -0.048879761248826981 0.017726307734847069 0.027586949989199638
v -0.049037624150514603 0.0051643624901771545 0.031897559762001038
v -0.045506991446018219 0.01820484921336174 0.032099802047014236
v -0.034239571541547775 0.013336112722754478 0.046746030449867249
v -0.049077179282903671 -0.00085946486797183752 0.032276779413223267
v -0.045853991061449051 0.0038012010045349598 0.036345433443784714
v -0.042078476399183273 0.0027819909155368805 0.040226586163043976
v -0.041802249848842621 -0.013502821326255798 0.038279309868812561
v -0.048731233924627304 -0.016819346696138382 0.028731364756822586
v -0.032853491604328156 -0.021952070295810699 0.044004347175359726
v -0.048717651516199112 -0.021585410460829735 0.025274565443396568
v -0.045632835477590561 -0.020533598959445953 0.030519392341375351
v -0.045454703271389008 -0.028917299583554268 0.02301875501871109
v -0.04865419864654541 -0.025420531630516052 0.021679893136024475
v -0.048399314284324646 -0.02965443953871727 0.016846636310219765
v -0.041945897042751312 -0.037466369569301605 0.015259269624948502
v -0.048631530255079269 -0.0327475406229496 0.006854331586509943
v -0.045603334903717041 -0.036482200026512146 0.0048892251215875149
v -0.048777993768453598 -0.032995052635669708 0.0010560648515820503
v -0.045541465282440186 -0.035511776804924011 -0.010027782060205936
v -0.048588793724775314 -0.033065628260374069 -0.0055098938755691051
v -0.048913411796092987 -0.030418258160352707 -0.011834222823381424
v -0.045472927391529083 -0.036934763193130493 -0.00078475725604221225
v -0.032863263040781021 -0.048827733844518661 0.0058529442176222801
v -0.034251011908054352 -0.047102782875299454 -0.012407870963215828
v -0.048261970281600952 -0.026344412937760353 -0.021925924345850945
v -0.043037056922912598 -0.026440603658556938 -0.029185045510530472
v -0.01548382081091404 0.027158988639712334 -0.062974892556667328
v -0.020216180011630058 0.028322797268629074 -0.06301572173833847
v -0.042446080595254898 0.014668714255094528 -0.06321290135383606
v -0.040769539773464203 0.019041122868657112 -0.062815427780151367
v -0.03799690306186676 0.017232103273272514 -0.062996812164783478
v 0.0093645025044679642 0.023473601788282394 -0.062947914004325867
v 0.0029990966431796551 0.021992847323417664 -0.063000001013278961
v 0.0038785617798566818 0.02750391885638237 -0.062989994883537292
v -0.0072712413966655731 0.0058200000785291195 -0.063000001013278961
v -0.013271241448819637 -0.00017999994452111423 -0.063000001013278961
v -0.013271241448819637 0.0058200000785291195 -0.063000001013278961
v 0.010695424862205982 -0.0062133334577083588 -0.063000001013278961
v 0.0047287587076425552 -0.0061800000257790089 -0.063000001013278961
v 0.010699748061597347 -0.00029440084472298622 -0.063000001013278961
v -0.007304574828594923 0.011786666698753834 -0.063000001013278961
v -0.013271241448819637 0.011819999665021896 -0.063000001013278961
v -0.0074966750107705593 0.017623273655772209 -0.063000001013278961
v 0.0053552049212157726 -0.023727165535092354 -0.063000001013278961
v 0.0048451931215822697 -0.018111957237124443 -0.063000001013278961
v 0.011174209415912628 -0.018325502052903175 -0.063000001013278961
v -0.0013550667790696025 0.011772651225328445 -0.063000001013278961
v -0.0016431756084784865 0.017465256154537201 -0.063000001013278961
v -0.0012712413445115089 -0.00017999994452111423 -0.063000001013278961
v -0.0072712413966655731 -0.00017999994452111423 -0.063000001013278961
v -0.0012712413445115089 0.0058200000785291195 -0.063000001013278961
v -0.013463246636092663 0.017686666920781136 -0.063000001013278961
v -0.019461058080196381 0.017729016020894051 -0.063000001013278961
v -0.014140200801193714 0.02307448536157608 -0.063000090420246124
v -0.013271241448819637 -0.0061800000257790089 -0.063000001013278961
v -0.019267681986093521 -0.0061767981387674809 -0.063000001013278961
v -0.0081470059230923653 0.023144405335187912 -0.063000001013278961
v -0.025365181267261505 0.011881523765623569 -0.063000001013278961
v -0.025237908586859703 0.0058533335104584694 -0.063000001013278961
v -0.031133435666561127 0.0059915324673056602 -0.063000001013278961
v 0.016913501545786858 -0.01250328216701746 -0.063000001013278961
v 0.010804946534335613 -0.012256009504199028 -0.063000001013278961
v 0.016578538343310356 -0.0064092339016497135 -0.063000001013278961
v -0.0020141357090324163 0.022921100258827209 -0.063000082969665527
v -0.019271241500973701 -0.00017999994452111423 -0.063000001013278961
v -0.025276191532611847 -0.0059859729371964931 -0.063000001013278961
v 0.004230857826769352 0.017504381015896797 -0.063000001013278961
v -0.019271241500973701 0.0058200000785291195 -0.063000001013278961
v 0.010174495168030262 0.01736719161272049 -0.06300199031829834
v -0.025236060842871666 -5.9107220295118168e-05 -0.063000001013278961
v -0.030913412570953369 0.00030498608248308301 -0.063000001013278961
v -0.0034823690075427294 0.028058359399437904 -0.063003979623317719
v -0.031141394749283791 -0.011210925877094269 -0.06299997866153717
v -0.036388173699378967 -0.015745313838124275 -0.063000522553920746
v -0.037483341991901398 -0.0093320347368717194 -0.062957823276519775
v -0.032511629164218903 0.018454013392329216 -0.063016757369041443
v -0.038209736347198486 0.011871132999658585 -0.062992334365844727
v -0.035840988159179688 -0.021836766973137856 -0.063685782253742218
v -0.030788188800215721 -0.017074123024940491 -0.062951043248176575
v -0.031603727489709854 0.011985731311142445 -0.06300005316734314
v -0.03679874911904335 0.00617601303383708 -0.063000157475471497
v -0.040267247706651688 -0.0040569663979113102 -0.062959484755992889
v -0.041266795247793198 0.0013615848729386926 -0.062982954084873199
v -0.036270219832658768 0.00067809701431542635 -0.063000209629535675
v -0.045620784163475037 0.0031840687151998281 -0.0632781982421875
v -0.045477245002985001 -0.0026362831704318523 -0.063350431621074677
v -0.044337503612041473 0.009044046513736248 -0.063335135579109192
v -0.041405320167541504 0.0061593502759933472 -0.062991335988044739
v -0.024994255974888802 -0.017669716849923134 -0.063000842928886414
v -0.030201481655240059 -0.022174594923853874 -0.062970049679279327
v -0.033950056880712509 0.025202866643667221 -0.06325724720954895
v -0.031995516270399094 0.023468427360057831 -0.063007012009620667
v -0.036522276699542999 0.022134678438305855 -0.063427522778511047
v -0.019996160641312599 0.023243941366672516 -0.063000321388244629
v -0.026548873633146286 0.024189764633774757 -0.062986508011817932
v -0.030986582860350609 0.027103232219815254 -0.063230134546756744
v -0.035436984151601791 -0.0038964834529906511 -0.063003495335578918
v -0.044058248400688171 -0.0085105625912547112 -0.063492164015769958
v -0.042074915021657944 -0.014268228784203529 -0.063415989279747009
v -0.031061317771673203 -0.0053450432606041431 -0.063000507652759552
v -0.040327996015548706 -0.018982410430908203 -0.063033491373062134
v -0.025766618549823761 0.030020216479897499 -0.063160747289657593
v -0.020616937428712845 0.032582510262727737 -0.062731429934501648
v -0.025738779455423355 0.017944809049367905 -0.063000060617923737
v -0.030321693047881126 -0.026760457083582878 -0.063493400812149048
v -0.024764420464634895 -0.023262953385710716 -0.062961071729660034
v -0.02519899420440197 -0.011887951754033566 -0.063000164926052094
v -0.033333290368318558 -0.024970194324851036 -0.063478700816631317
v -0.010087474249303341 0.02798164077103138 -0.06298905611038208
v -0.019271241500973701 0.011819999665021896 -0.063000001013278961
v -0.0071815447881817818 -0.012147468514740467 -0.063000001013278961
v -0.01282449159771204 -0.017996881157159805 -0.063000001013278961
v -0.01318848505616188 -0.01220750343054533 -0.063000001013278961
v -0.017959754914045334 -0.024433806538581848 -0.062940672039985657
v -0.011643256060779095 -0.022354103624820709 -0.0630030557513237
v -0.012446037493646145 -0.027263473719358444 -0.062959276139736176
v -0.018985208123922348 -0.018066797405481339 -0.063002057373523712
v -0.024855203926563263 -0.028987167403101921 -0.063690915703773499
v -0.019218811765313148 -0.012153814546763897 -0.063000001013278961
v 0.014864739030599594 0.021562747657299042 -0.062939122319221497
v -0.0012379080289974809 -0.012146666646003723 -0.063000001013278961
v -0.0012712413445115089 -0.0061800000257790089 -0.063000001013278961
v -0.006343470886349678 -0.028191003948450089 -0.063001357018947601
v -0.018457833677530289 -0.031201250851154327 -0.063493967056274414
v 0.010753420181572437 0.0056637497618794441 -0.063000001013278961
v 0.0047258976846933365 0.0058220112696290016 -0.063000001013278961
v 0.010622904635965824 0.011619033291935921 -0.063000403344631195
v -0.0011973738437518477 -0.017958614975214005 -0.063000001013278961
v 0.0047287587076425552 -0.012179999612271786 -0.063000001013278961
v -0.0068341996520757675 -0.023162197321653366 -0.062999963760375977
v -0.0069586313329637051 -0.017822273075580597 -0.063000001013278961
v -0.0072712413966655731 -0.0061800000257790089 -0.063000001013278961
v 0.016150027513504028 0.016917005181312561 -0.062932372093200684
v 0.016591422259807587 0.0050620036199688911 -0.063000001013278961
v 0.016668844968080521 0.01099772471934557 -0.063000001013278961
v -2.1181795091251843e-06 -0.028413822874426842 -0.062999814748764038
v -0.00092436099657788873 -0.023486409336328506 -0.063000008463859558
v 0.01641179621219635 -0.00063513574423268437 -0.063000001013278961
v 0.021035930141806602 0.0036323622334748507 -0.063000001013278961
v 0.0046216687187552452 0.011787761002779007 -0.063000001013278961
v 0.0047287587076425552 -0.00017999994452111423 -0.063000001013278961
v 0.0062358211725950241 -0.028714366257190704 -0.063033081591129303
v 0.026076985523104668 0.0038442402146756649 -0.062948077917098999
v 0.023218370974063873 0.0092099020257592201 -0.062948346138000488
v 0.017162961885333061 -0.023266874253749847 -0.063012920320034027
v 0.017834775149822235 -0.018833698704838753 -0.06300625205039978
v 0.012259856797754765 -0.024337684735655785 -0.062983885407447815
v 0.022265395149588585 -0.0068441876210272312 -0.063000001013278961
v 0.021859893575310707 -0.0010646121809259057 -0.063000001013278961
v 0.027139218524098396 -0.0018700858345255256 -0.062971293926239014
v 0.022045008838176727 0.015773026272654533 -0.062986806035041809
v 0.027539707720279694 -0.0077827414497733116 -0.062998116016387939
v 0.02276751771569252 -0.012806886807084084 -0.063002191483974457
v 0.023478768765926361 -0.017503494396805763 -0.062996558845043182
v -0.048399999737739563 -0.0049045947380363941 -0.0089679313823580742
v -0.048333927989006042 -0.0096022430807352066 -0.024053692817687988
v -0.015335777774453163 0.034999728202819824 -0.045198868960142136
v -0.03008156456053257 0.033031914383172989 -0.039133377373218536
v -0.029619365930557251 0.035155177116394043 -0.036014176905155182
v -0.03884405642747879 0.023919014260172844 -0.054917220026254654
v -0.041254006326198578 0.021175364032387733 -0.049304045736789703
v -0.036826588213443756 0.026003552600741386 -0.049336876720190048
v -0.034189309924840927 0.028045456856489182 -0.055049557238817215
v -0.044287599623203278 0.017472540959715843 -0.059733513742685318
v -0.042604677379131317 0.019166633486747742 -0.054814420640468597
v -0.040906354784965515 0.02230772003531456 -0.059919845312833786
v -0.03620283305644989 0.026720019057393074 -0.060534428805112839
v -0.030789865180850029 0.030823381617665291 -0.059787344187498093
v -0.017726939171552658 0.035395171493291855 -0.058877300471067429
v -0.024761617183685303 0.033626969903707504 -0.059331487864255905
v -0.046736791729927063 0.012068664655089378 -0.059885013848543167
v -0.045398492366075516 0.014040670357644558 -0.054822016507387161
v -0.04438742995262146 0.016298433765769005 -0.049466542899608612
v -0.047293301671743393 0.0085855787619948387 -0.055028442293405533
v -0.048318225890398026 0.0061077983118593693 -0.059910569339990616
v -0.048247545957565308 0.0029772529378533363 -0.055109031498432159
v -0.048871181905269623 -5.8522895415080711e-05 -0.059863798320293427
v -0.048375003039836884 0.001052170293405652 -0.049827240407466888
v -0.04790785163640976 0.0058007156476378441 -0.050841357558965683
v -0.048253986984491348 -0.0028241330292075872 -0.05488533154129982
v -0.047242145985364914 -0.0087879635393619537 -0.054783981293439865
v -0.048294253647327423 -0.0062874313443899155 -0.059900667518377304
v -0.04806271567940712 -0.0047927205450832844 -0.049339137971401215
v -0.046624533832073212 -0.012318277731537819 -0.059943079948425293
v -0.045231174677610397 -0.014488767832517624 -0.054991275072097778
v -0.046564936637878418 -0.011254830285906792 -0.04883125051856041
v -0.044242385774850845 -0.016535859555006027 -0.050816245377063751
v -0.042333375662565231 -0.019615340977907181 -0.054866157472133636
v -0.044072158634662628 -0.017792083323001862 -0.059807535260915756
v -0.040536046028137207 -0.022768529132008553 -0.059888679534196854
v -0.041601914912462234 -0.020803047344088554 -0.048771459609270096
v -0.038015130907297134 -0.024784844368696213 -0.054150402545928955
v -0.035719454288482666 -0.027057494968175888 -0.060660138726234436
v -0.033385176211595535 -0.028639532625675201 -0.055884890258312225
v -0.03794383630156517 -0.025138407945632935 -0.048157095909118652
v -0.024341480806469917 -0.033639203757047653 -0.059744317084550858
v -0.017117420211434364 -0.035457327961921692 -0.058878161013126373
v -0.030399670824408531 -0.030894052237272263 -0.06014411523938179
v -0.046694315969944 0.010819558054208755 -0.049126885831356049
v -0.033420927822589874 0.030875479802489281 -0.04183577373623848
v -0.034516844898462296 0.03362094983458519 -0.035742077976465225
v -0.030584106221795082 0.037482235580682755 -0.032789014279842377
v -0.048341929912567139 -0.015135481022298336 -0.021101457998156548
v -0.044525809586048126 0.018564362078905106 -0.036735128611326218
v -0.043531525880098343 0.018656911328434944 -0.043188475072383881
v -0.046193681657314301 0.014404375106096268 -0.040288865566253662
v -0.04571712389588356 0.014150308445096016 -0.045198056846857071
v -0.045613743364810944 0.018530756235122681 -0.032516017556190491
v -0.047198206186294556 0.014568404294550419 -0.035047903656959534
v -0.04122726246714592 0.023031944409012794 -0.038031831383705139
v -0.039674796164035797 0.023751953616738319 -0.043876130133867264
v -0.036181289702653885 0.027278466150164604 -0.044180538505315781
v -0.037324920296669006 0.027510222047567368 -0.039428874850273132
v -0.039012067019939423 0.02793857641518116 -0.034060429781675339
v -0.0429379902780056 0.023171808570623398 -0.032451272010803223
v 0.0090697351843118668 -0.026128994300961494 -0.04796624556183815
v 0.0034451805986464024 -0.02392079122364521 -0.04726739227771759
v 0.0039644595235586166 -0.028940668329596519 -0.047201097011566162
v -0.0013557710917666554 -0.030083222314715385 -0.046575967222452164
v -0.00017381603538524359 0.016152272000908852 -0.046799078583717346
v 0.0055441362783312798 0.010297325439751148 -0.047524832189083099
v 0.0056906077079474926 0.016300290822982788 -0.047543421387672424
v -0.0068095270544290543 -0.030740898102521896 -0.045910518616437912
v -0.011884310282766819 -0.031907595694065094 -0.045321494340896606
v -0.016391843557357788 -0.028953775763511658 -0.044628947973251343
v -0.011508902534842491 -0.026926882565021515 -0.045358899980783463
v -0.016553198918700218 -0.02338174544274807 -0.04457203671336174
v -0.048399999737739563 -0.01097444910556078 -0.0028865057975053787
v -0.0010041133500635624 -0.024859214201569557 -0.046699848026037216
v 0.0048046503216028214 -0.019514868035912514 -0.047430973500013351
v -0.011297473683953285 -0.015490352176129818 -0.045387528836727142
v -0.00607704883441329 -0.020083364099264145 -0.046049803495407104
v -0.0059736059047281742 -0.01428134273737669 -0.046062938868999481
v -0.011297473683953285 -0.0095385080203413963 -0.045387528836727142
v -0.005940539762377739 -0.0083387540653347969 -0.046067148447036743
v 0.023572405800223351 0.018506778404116631 -0.049805749207735062
v 0.023554529994726181 0.013056918047368526 -0.049829345196485519
v -0.00029788297251798213 0.004126155748963356 -0.046783331781625748
v 0.0055441362783312798 0.004297325387597084 -0.047524832189083099
v -0.00029788297251798213 0.010118129663169384 -0.046783331781625748
v -0.015168001875281334 0.017300881445407867 -0.044912435114383698
v -0.011006544344127178 0.014099771156907082 -0.045425344258546829
v -0.010941845364868641 0.02000981941819191 -0.045442011207342148
v -0.01638152077794075 0.022436860948801041 -0.044609140604734421
v -0.010959452949464321 0.027450704947113991 -0.045428972691297531
v -0.017701935023069382 0.029400644823908806 -0.044478293508291245
v -0.048399999737739563 0.00099307391792535782 -0.0030000000260770321
v -0.0042721079662442207 0.028256291523575783 -0.046278901398181915
v 0.019011072814464569 0.0229837317019701 -0.049291595816612244
v 0.023439591750502586 0.02180173248052597 -0.0497603639960289
v -0.011214911937713623 0.0082987789064645767 -0.045398645102977753
v -0.0059405378997325897 0.0036130899097770452 -0.046067137271165848
v -0.0059110643342137337 0.0095647946000099182 -0.046070877462625504
v -0.011297473683953285 0.0023651805240660906 -0.045387528836727142
v -0.005940539762377739 -0.0023628321941941977 -0.046067148447036743
v 0.0055455546826124191 -0.0076999249868094921 -0.047525011003017426
v 0.011541665531694889 -0.0075373449362814426 -0.048286069184541702
v 0.0055441362783312798 -0.0017026745481416583 -0.047524832189083099
v 0.017566382884979248 -0.0069556771777570248 -0.049050755798816681
v 0.011556809768080711 -0.0015353427734225988 -0.048287991434335709
v 0.017565116286277771 0.011249071918427944 -0.049050595611333847
v 0.023513754829764366 0.0071102473884820938 -0.049792177975177765
v 0.017840217798948288 0.017163382843136787 -0.049085512757301331
v -0.011297473683953285 -0.003586663631722331 -0.045387528836727142
v -0.00029788297251798213 -0.0078577920794487 -0.046783331781625748
v -0.00029788297251798213 -0.0018658183980733156 -0.046783331781625748
v -0.00041011953726410866 -0.013812131248414516 -0.046769086271524429
v 0.015834111720323563 -0.025051575154066086 -0.04883088544011116
v 0.010805534198880196 -0.019613027572631836 -0.048192635178565979
v 0.017214080318808556 -0.019157048314809799 -0.049006041139364243
v 0.023413002490997314 -0.017789803445339203 -0.049738053232431412
v 0.023582428693771362 -0.011685533449053764 -0.049808967858552933
v 0.017490385100245476 -0.012974997982382774 -0.049041111022233963
v -0.0062977294437587261 -0.02564619854092598 -0.046021793037652969
v -0.016580915078520775 -0.0056991688907146454 -0.044564306735992432
v -0.016580915078520775 -0.011642986908555031 -0.044564306735992432
v -0.011356434784829617 -0.021343119442462921 -0.045379228889942169
v -0.016580628231167793 -0.017587816342711449 -0.044564362615346909
v -0.00072714523412287235 -0.019476268440485001 -0.046728845685720444
v 0.011410136707127094 -0.013553179800510406 -0.048269372433423996
v 0.0053894002921879292 -0.013703566044569016 -0.047505192458629608
v -0.016180925071239471 0.012214603833854198 -0.044662442058324814
v -0.016504669561982155 0.0062225093133747578 -0.044584371149539948
v 0.023701641708612442 -0.0054628779180347919 -0.04983808845281601
v -0.016580915078520775 0.00024464938906021416 -0.044564306735992432
v 0.017661465331912041 -0.00087583559798076749 -0.049062825739383698
v 0.023879995569586754 0.00090004113735631108 -0.049851987510919571
v 0.017633885145187378 0.005212914664298296 -0.049059323966503143
v 0.0115589564666152 0.004471498541533947 -0.048288263380527496
v 0.00036795070627704263 0.022253416478633881 -0.046867839992046356
v 0.0062929699197411537 0.022267008200287819 -0.047619879245758057
v 0.011556809768080711 0.010478340089321136 -0.048287991434335709
v -0.0058251884765923023 0.015531828626990318 -0.046081777662038803
v 0.013436947017908096 0.027743592858314514 -0.048526626080274582
v 0.012395276688039303 0.022358492016792297 -0.04839441180229187
v 0.011743211187422276 0.01649169996380806 -0.04831165075302124
v -0.005530419759452343 0.021779045462608337 -0.046119190752506256
v 0.0016457355814054608 0.028336912393569946 -0.047030024230480194
v 0.0075105517171323299 0.028062500059604645 -0.047774419188499451
v -0.028507381677627563 -0.034291565418243408 -0.024384556338191032
v -0.027862023562192917 -0.036707691848278046 -0.029615504667162895
v -0.0284571573138237 -0.031606245785951614 -0.029543137177824974
v -0.028399825096130371 0.025762477889657021 0.021117134019732475
v -0.028365110978484154 0.031903259456157684 0.027009164914488792
v -0.028399994596838951 0.024716092273592949 0.025958534330129623
v -0.028400154784321785 0.025355761870741844 0.032392021268606186
v -0.028400000184774399 0.019732223823666573 0.02696756087243557
v -0.028400000184774399 0.0083380592986941338 0.015699999406933784
v -0.028400000184774399 0.014191030524671078 0.021551234647631645
v -0.028400000184774399 0.0083047263324260712 0.021666666492819786
v -0.028400000184774399 0.013984025456011295 0.02731773816049099
v -0.028400005772709846 0.038703452795743942 0.014247196726500988
v -0.028400009498000145 0.036830626428127289 0.0077759344130754471
v -0.028357692062854767 0.042879141867160797 0.0081864157691597939
v -0.028400000184774399 0.014338059350848198 0.0037000000011175871
v -0.028400000184774399 0.014338059350848198 0.0097000002861022949
v -0.028400000184774399 0.0083380592986941338 0.0037000000011175871
v -0.028400000184774399 0.020338058471679688 -0.0023000000510364771
v -0.028400000184774399 0.020338058471679688 0.0037000000011175871
v -0.028400000184774399 0.014338059350848198 -0.0023000000510364771
v -0.028400000184774399 0.026338059455156326 -0.0082999998703598976
v -0.028400000184774399 0.026304725557565689 -0.0023333332501351833
v -0.028400000184774399 0.020338058471679688 -0.0082999998703598976
v -0.028400953859090805 0.039435315877199173 -0.015552629716694355
v -0.028399985283613205 0.032196979969739914 -0.0025425644125789404
v -0.028430670499801636 0.038036435842514038 -0.022113695740699768
v -0.028398294001817703 0.03263469785451889 -0.025681015104055405
v -0.028355887159705162 0.037124060094356537 -0.026760684326291084
v -0.028213841840624809 0.037536926567554474 -0.030084356665611267
v -0.028400000184774399 0.032118994742631912 0.0091553190723061562
v -0.028400002047419548 0.03184150904417038 0.015107430517673492
v -0.028400000184774399 -0.0096565252169966698 0.027740238234400749
v -0.028400000184774399 -0.0037745009176433086 0.033566232770681381
v -0.028400000184774399 -0.0096635259687900543 0.033943239599466324
v -0.028400000184774399 0.0023380592465400696 0.021700000390410423
v -0.028400000184774399 0.0081598805263638496 0.027623929083347321
v -0.028400000184774399 0.0022278365213423967 0.027663027867674828
v -0.028400000184774399 -0.0036952740047127008 0.027666667476296425
v -0.028400000184774399 0.0019074487499892712 0.033337961882352829
v -0.028326490893959999 0.020060176029801369 0.038067236542701721
v -0.028411246836185455 0.012193868868052959 0.039991173893213272
v -0.028400000184774399 0.013697650283575058 0.03323967382311821
v -0.028400000184774399 -0.015808012336492538 0.034018825739622116
v -0.028400000184774399 -0.0095761567354202271 0.041097428649663925
v -0.028400000184774399 -0.016549291089177132 0.040096167474985123
v -0.028399994596838951 0.018740611150860786 0.031820476055145264
v -0.028328143060207367 0.0012804559664800763 0.044018592685461044
v -0.028417693451046944 0.0016506856773048639 0.038758352398872375
v -0.028230182826519012 0.0067775310017168522 0.042949754744768143
v -0.02840464748442173 0.0062836366705596447 0.03791423887014389
v -0.028343256562948227 -0.0035560883115977049 0.04442070797085762
v -0.028400000184774399 0.019990252330899239 0.021326230838894844
v -0.028400002047419548 -0.021997414529323578 0.033834237605333328
v -0.028407761827111244 -0.022580666467547417 0.039334584027528763
v -0.028446638956665993 -0.034084826707839966 0.028822042047977448
v -0.028400000184774399 -0.021731387823820114 0.027777556329965591
v -0.028400000184774399 -0.021661940962076187 0.021700000390410423
v -0.028400000184774399 -0.015671027824282646 0.027785981073975563
v -0.028399992734193802 -0.027903765439987183 0.034170918166637421
v -0.028454048559069633 -0.039420697838068008 0.018354972824454308
v -0.028394268825650215 -0.033523917198181152 0.02260698564350605
v -0.028353864327073097 -0.038346946239471436 0.023444566875696182
v -0.028400000184774399 -0.033146567642688751 -0.013583737425506115
v -0.028399702161550522 -0.033334646373987198 -0.0077381208539009094
v -0.028408177196979523 -0.039644718170166016 -0.012720005586743355
v -0.028400646522641182 -0.033809710294008255 0.016425011679530144
v -0.028400013223290443 -0.033858597278594971 0.010024387389421463
v -0.028401663526892662 -0.040786836296319962 0.011141208931803703
v -0.028400000184774399 -0.027628606185317039 0.003733333433046937
v -0.028400000184774399 -0.027695128694176674 0.0097259646281599998
v -0.028399989008903503 -0.033524468541145325 0.0038341365288943052
v -0.028400000184774399 -0.033275596797466278 -0.0019575795158743858
v -0.028414912521839142 -0.038687482476234436 -0.0018755916971713305
v -0.028400000184774399 -0.027619168162345886 -0.0022042170166969299
v -0.028400000184774399 -0.027379408478736877 -0.01389409601688385
v -0.028400000184774399 -0.02162860706448555 -0.008266666904091835
v -0.028400000184774399 -0.027559787034988403 -0.008131091482937336
v -0.028401186689734459 -0.0038289912045001984 0.039397109299898148
v -0.02839994803071022 0.0076584895141422749 0.033456794917583466
v -0.028401089832186699 -0.02777322381734848 0.028024155646562576
v -0.028400000184774399 -0.021661940962076187 0.015699999406933784
v -0.028400000184774399 -0.015661939978599548 0.021700000390410423
v -0.028400000184774399 0.014304725453257561 0.015666667371988297
v -0.028400002047419548 0.020211841911077499 0.015563718974590302
v -0.028400000184774399 -0.021661940962076187 0.0097000002861022949
v -0.028400000184774399 -0.015661939978599548 0.015699999406933784
v -0.028400000184774399 -0.027678530663251877 0.021915128454566002
v -0.028400000184774399 -0.0036619405727833509 0.021700000390410423
v -0.028400000184774399 -0.0036619405727833509 0.0097000002861022949
v -0.028400000184774399 0.0023380592465400696 0.015699999406933784
v -0.028400000184774399 -0.0036619405727833509 0.015699999406933784
v -0.028400000184774399 -0.0096619408577680588 0.021700000390410423
v -0.028399752452969551 0.036354675889015198 0.020934641361236572
v -0.028399946168065071 0.030562164261937141 0.020085204392671585
v -0.028400080278515816 -0.037701118737459183 -0.019119460135698318
v -0.028400000184774399 0.0023380592465400696 0.0037000000011175871
v -0.028400000184774399 0.0083380592986941338 0.0097000002861022949
v -0.028400000184774399 0.0023380592465400696 0.0097000002861022949
v -0.028400011360645294 -0.027722354978322983 0.015807729214429855
v -0.028400000184774399 -0.0036619405727833509 0.0037000000011175871
v -0.028400000184774399 -0.0096619408577680588 0.015699999406933784
v -0.028400000184774399 0.02597784623503685 0.015356400981545448
v -0.028360573574900627 -0.044996779412031174 0.0041618659161031246
v -0.028321126475930214 -0.044002015143632889 -0.0019603266846388578
v -0.028400000184774399 -0.015661939978599548 0.0097000002861022949
v -0.028400000184774399 -0.0096619408577680588 0.0097000002861022949
v -0.028400000184774399 -0.0096619408577680588 -0.0023000000510364771
v -0.028400000184774399 -0.0096619408577680588 0.0037000000011175871
v -0.028400000184774399 -0.015661939978599548 -0.0023000000510364771
v -0.028400000184774399 0.0083380592986941338 -0.0023000000510364771
v -0.028400000184774399 0.0023380592465400696 -0.0023000000510364771
v -0.028400000184774399 0.0203047264367342 0.0096666663885116577
v -0.028399994596838951 0.032048691064119339 0.0032849004492163658
v -0.028400642797350883 0.037732761353254318 0.0027139971498399973
v -0.028400000184774399 0.026247043162584305 0.0095458421856164932
v -0.028400897979736328 -0.039408117532730103 0.0040638744831085205
v -0.028400000184774399 -0.015661939978599548 0.0037000000011175871
v -0.028400000184774399 -0.021661940962076187 0.0037000000011175871
v -0.028400000184774399 -0.0096619408577680588 -0.0082999998703598976
v -0.028400000184774399 -0.015661939978599548 -0.0082999998703598976
v -0.028400000184774399 0.0083380592986941338 -0.0082999998703598976
v -0.028400000184774399 0.0023380592465400696 -0.0082999998703598976
v -0.028400000184774399 0.026386084035038948 -0.014233318157494068
v -0.028400000184774399 0.020355312153697014 -0.014214814640581608
v -0.028400000184774399 0.014338059350848198 -0.0082999998703598976
v -0.028400000184774399 0.026299519464373589 0.0036092062946408987
v -0.028400000184774399 -0.021661940962076187 -0.0023000000510364771
v -0.028400000184774399 -0.0096265301108360291 -0.014214814640581608
v -0.028400000184774399 -0.015622898004949093 -0.014214814640581608
v -0.028400000184774399 -0.0036619405727833509 -0.0023000000510364771
v -0.028400000184774399 0.0083625754341483116 -0.014214814640581608
v -0.028400000184774399 0.0023662070743739605 -0.014214814640581608
v -0.028368072584271431 0.043447740375995636 -0.0050287996418774128
v -0.028371315449476242 0.043404243886470795 0.0010155816562473774
v -0.028400318697094917 0.037981890141963959 -0.003282665042206645
v -0.0282608512789011 -0.042678497731685638 -0.0076357340440154076
v -0.028400000184774399 -0.032131213694810867 -0.018373049795627594
v -0.028410408645868301 -0.037758544087409973 -0.0065709548071026802
v -0.028400035575032234 -0.01543823815882206 -0.019848033785820007
v -0.028400000184774399 -0.0036301612854003906 -0.014214814640581608
v -0.028400035575032234 -0.0094491327181458473 -0.019848033785820007
v -0.028400000184774399 -0.0036619405727833509 -0.0082999998703598976
v -0.028400000184774399 0.01435894425958395 -0.014214814640581608
v -0.028400005772709846 0.0085181836038827896 -0.019848030060529709
v -0.028341243043541908 0.04324374720454216 -0.010136289522051811
v -0.028399990871548653 0.038214400410652161 -0.0092494171112775803
v -0.028399994596838951 0.032331541180610657 -0.0085222823545336723
v -0.028400039300322533 -0.021488165482878685 -0.019797591492533684
v -0.028399109840393066 -0.020817680284380913 -0.025009255856275558
v -0.028400000184774399 -0.021600896492600441 -0.014139745384454727
v -0.028400035575032234 0.020496394485235214 -0.019848033785820007
v -0.028400026261806488 0.014507289044559002 -0.019848030060529709
v -0.028399111703038216 0.015111892484128475 -0.024999417364597321
v -0.028400437906384468 0.032584168016910553 -0.020454565063118935
v -0.028400013223290443 0.032533854246139526 -0.014553133398294449
v -0.028398960828781128 -0.027436330914497375 -0.019524728879332542
v -0.028398485854268074 -0.014779162593185902 -0.024999435991048813
v -0.028411783277988434 -0.019200632348656654 -0.029763659462332726
v -0.028399111703038216 -0.0028227404691278934 -0.02499941922724247
v -0.028399111703038216 -0.0088009517639875412 -0.024999421089887619
v -0.028414409607648849 -0.0072208568453788757 -0.029726004227995872
v -0.028399569913744926 0.0031554708257317543 -0.02499941922724247
v -0.028414411470293999 -0.001246277242898941 -0.029726007953286171
v -0.028400000184774399 0.002529078396037221 -0.019848031923174858
v -0.028400035575032234 -0.003460027277469635 -0.019848033785820007
v -0.028398485854268074 0.021090103313326836 -0.024999435991048813
v -0.028414409607648849 0.016677461564540863 -0.029726004227995872
v -0.02840002067387104 0.02654561772942543 -0.0199306420981884
v -0.028415145352482796 0.033637635409832001 -0.029826605692505836
v -0.028405338525772095 -0.025347528979182243 -0.029848987236618996
v -0.028414409607648849 -0.01319543644785881 -0.029726004227995872
v -0.0283999964594841 -0.027000812813639641 -0.024900749325752258
v -0.028414413332939148 0.010702881962060928 -0.029726013541221619
v -0.028416596353054047 0.022609477862715721 -0.029694277793169022
v -0.028400013223290443 0.0091336816549301147 -0.02499941922724247
v -0.028398923575878143 0.027052488178014755 -0.025146091356873512
v -0.028414413332939148 0.0047283023595809937 -0.029726006090641022
v -0.028412977233529091 0.02834542840719223 -0.029744191095232964
v -0.021920669823884964 0.023050032556056976 -0.042350366711616516
v -0.023587608709931374 0.028732504695653915 -0.041206225752830505
v -0.025355877354741096 0.011500691063702106 -0.039044149219989777
v -0.027716726064682007 0.0075211729854345322 -0.034405846148729324
v -0.025454949587583542 0.0052707926370203495 -0.038922388106584549
v -0.02124951034784317 0.034231856465339661 -0.042782112956047058
v -0.027837876230478287 0.025242945179343224 -0.034000571817159653
v -0.027751162648200989 0.019525665789842606 -0.034298144280910492
v -0.027709977701306343 0.013575618155300617 -0.034427758306264877
v -0.021579500287771225 -0.0029353706631809473 -0.04257342591881752
v -0.025485556572675705 -0.00075275386916473508 -0.038881175220012665
v -0.025485556572675705 -0.0067177815362811089 -0.038881175220012665
v -0.027724508196115494 -0.010420093312859535 -0.034382715821266174
v -0.027724508196115494 -0.004449908621609211 -0.034382715821266174
v -0.027661431580781937 -0.022441437467932701 -0.034556034952402115
v -0.02753414586186409 -0.02915983647108078 -0.03505316749215126
v -0.024739570915699005 -0.028983203694224358 -0.039913378655910492
v -0.025259831920266151 -0.024405170232057571 -0.0391722172498703
v -0.027718935161828995 -0.016406448557972908 -0.034401003271341324
v -0.025443777441978455 -0.018626471981406212 -0.038937024772167206
v -0.021293476223945618 -0.026207605376839638 -0.042753495275974274
v -0.021204065531492233 -0.031207362189888954 -0.042875152081251144
v -0.048399999737739563 0.00099307391792535782 0.0030000000260770321
v -0.028113769367337227 -0.036110613495111465 -0.03291633352637291
v -0.021579500287771225 -0.014831796288490295 -0.04257342591881752
v -0.025485556572675705 -0.012682809494435787 -0.038881175220012665
v -0.021579500287771225 -0.0088835833594202995 -0.04257342591881752
v -0.027724508196115494 0.0015202765353024006 -0.034382715821266174
v -0.021373957395553589 0.0091990008950233459 -0.042701117694377899
v -0.025819579139351845 0.034048087894916534 -0.038409415632486343
v -0.027877913787961006 0.03077334351837635 -0.033851444721221924
v -0.026516523212194443 0.028308490291237831 -0.037379242479801178
v -0.028110777959227562 0.036100178956985474 -0.032931387424468994
v -0.025883514434099197 0.023584596812725067 -0.038328122347593307
v -0.025453437119722366 0.017744474112987518 -0.038918823003768921
v -0.021556291729211807 0.0030400145333260298 -0.042587220668792725
v -0.025827312842011452 -0.034042570739984512 -0.038397975265979767
v -0.020684361457824707 0.016305940225720406 -0.043141290545463562
v -0.021511681377887726 -0.020674508064985275 -0.042617548257112503
v -0.021317636594176292 -0.034533858299255371 -0.043170895427465439
v -0.025272179394960403 -0.033653430640697479 -0.042571809142827988
v -0.015335793606936932 -0.03499816358089447 -0.045198611915111542
v -0.048399999737739563 -0.0050069261342287064 -0.0030000000260770321
v -0.029007598757743835 -0.034998342394828796 -0.036078974604606628
v -0.0287762600928545 -0.033086013048887253 -0.039785329252481461
v -0.047972250729799271 -0.0058767497539520264 -0.043361101299524307
v -0.048399452120065689 -0.00014389814168680459 -0.043928660452365875
v -0.046922940760850906 -0.011177721433341503 -0.042036771774291992
v -0.044811639934778214 -0.015936342999339104 -0.045879457145929337
v -0.046574123203754425 -0.017209840938448906 -0.034345801919698715
v -0.048220749944448471 -0.01188991591334343 -0.032317079603672028
v -0.047527655959129333 -0.011549237184226513 -0.03658091276884079
v -0.04559030756354332 -0.016044627875089645 -0.040188491344451904
v -0.048235278576612473 -0.0071624843403697014 -0.032950609922409058
v -0.048411071300506592 -0.0085087167099118233 -0.028837494552135468
v -0.048403237015008926 -0.0027903302107006311 -0.029313070699572563
v -0.048341482877731323 -0.0018911875085905194 -0.033539082854986191
v -0.047917298972606659 0.0060724057257175446 -0.044895827770233154
v -0.046881258487701416 0.011033128015697002 -0.043551340699195862
v -0.048180915415287018 0.0044614048674702644 -0.038421314209699631
v -0.048362314701080322 -0.0011519488180056214 -0.03826141357421875
v -0.048365183174610138 0.0027433144859969616 -0.034230384975671768
v -0.048283383250236511 0.0091583169996738434 -0.032196082174777985
v -0.048090744763612747 -0.0064599956385791302 -0.037657316774129868
v -0.048399943858385086 0.0029176825191825628 -0.029940521344542503
v -0.048400767147541046 -0.022601721808314323 0.0035641640424728394
v -0.047525204718112946 0.0098963864147663116 -0.038907319307327271
v -0.03577066957950592 -0.032829057425260544 -0.033467903733253479
v -0.039031028747558594 -0.028745114803314209 -0.032922271639108658
v -0.035847727209329605 -0.030186410993337631 -0.037534695118665695
v -0.032522823661565781 -0.034436527639627457 -0.036292284727096558
v -0.039312046021223068 -0.025492150336503983 -0.038132511079311371
v -0.040113966912031174 -0.023195493966341019 -0.043530348688364029
v -0.035931855440139771 -0.027790796011686325 -0.043668154627084732
v -0.043051283806562424 -0.019328223541378975 -0.043378382921218872
v -0.042539291083812714 -0.022877871990203857 -0.033597923815250397
v -0.032341532409191132 -0.031673192977905273 -0.041630759835243225
v -0.042802218347787857 -0.020506344735622406 -0.038794249296188354
v -0.03000919334590435 -0.037320025265216827 -0.032905206084251404
v -0.048399999737739563 -0.017007360234856606 0.0091855106875300407
v -0.048399999737739563 -0.016783732920885086 -0.0082969618961215019
v -0.048399999737739563 -0.010911289602518082 -0.0088723460212349892
v -0.048400659114122391 -0.01657940074801445 -0.014380966313183308
v -0.048399999737739563 -0.010973592288792133 0.0030333332251757383
v -0.048399999737739563 -0.0050069261342287064 0.008999999612569809
v -0.048399999737739563 -0.0050069261342287064 0.0030000000260770321
v -0.048399835824966431 -0.022838501259684563 0.009723098948597908
f 1 2 3
f 4 1 5
f 5 1 3
f 134 85 3
f 8 9 10
f 11 12 13
f 14 11 4
f 15 16 17
f 15 10 13
f 17 10 15
f 8 17 18
f 12 19 20
f 14 132 19
f 134 3 22
f 2 23 22
f 134 22 24
f 26 27 23
f 27 24 22
f 28 26 29
f 28 29 30
f 61 32 30
f 33 34 30
f 34 31 30
f 34 33 35
f 36 34 37
f 37 38 39
f 39 40 41
f 42 43 44
f 45 46 47
f 48 49 45
f 50 49 48
f 51 52 53
f 48 45 51
f 45 47 51
f 46 54 42
f 46 42 44
f 42 41 43
f 41 40 43
f 39 38 40
f 899 919 912
f 53 48 51
f 53 50 48
f 57 45 49
f 57 46 45
f 47 46 44
f 57 54 46
f 80 42 54
f 80 41 42
f 80 138 41
f 138 39 41
f 138 135 39
f 135 37 39
f 135 36 37
f 35 38 37
f 37 34 35
f 36 31 34
f 28 30 32
f 29 33 30
f 63 60 28
f 60 27 28
f 28 27 26
f 60 24 27
f 954 899 698
f 23 27 22
f 5 3 85
f 2 22 3
f 85 132 5
f 132 14 5
f 12 14 19
f 4 5 14
f 15 12 20
f 11 14 12
f 12 15 13
f 20 16 15
f 18 17 16
f 8 10 17
f 32 61 62
f 64 134 24
f 64 24 62
f 36 135 69
f 60 63 62
f 70 62 61
f 31 36 70
f 36 69 70
f 49 140 57
f 72 144 143
f 57 141 54
f 136 50 77
f 50 142 49
f 139 80 54
f 954 698 245
f 726 908 599
f 726 599 244
f 905 556 908
f 141 139 54
f 142 140 49
f 140 141 57
f 136 142 50
f 143 77 72
f 143 136 77
f 587 498 475
f 132 131 19
f 131 130 19
f 586 581 496
f 587 586 498
f 86 87 88
f 496 581 495
f 87 89 90
f 130 20 19
f 130 127 20
f 16 20 127
f 127 92 16
f 16 92 18
f 92 86 18
f 86 88 18
f 87 90 88
f 8 18 88
f 93 94 9
f 95 94 93
f 88 96 95
f 88 90 96
f 95 96 97
f 88 93 8
f 93 9 8
f 88 95 93
f 95 97 94
f 98 52 51
f 44 43 99
f 47 100 101
f 102 40 103
f 104 38 35
f 105 106 33
f 26 107 29
f 23 108 109
f 2 1 110
f 1 4 111
f 4 112 111
f 11 112 4
f 113 112 11
f 113 11 13
f 113 13 114
f 13 10 114
f 10 115 114
f 9 115 10
f 1 111 110
f 23 109 26
f 44 99 100
f 2 110 108
f 105 33 29
f 2 108 23
f 106 35 33
f 109 107 26
f 107 105 29
f 103 38 104
f 104 35 106
f 40 38 103
f 101 98 51
f 43 40 102
f 44 100 47
f 43 102 99
f 47 101 51
f 116 72 77
f 117 118 119
f 120 118 117
f 53 52 120
f 77 50 53
f 77 53 120
f 77 117 116
f 117 119 116
f 77 120 117
f 120 52 118
f 121 119 118
f 121 122 119
f 52 98 121
f 52 121 118
f 123 9 94
f 123 115 9
f 97 124 94
f 124 123 94
f 495 579 483
f 483 579 574
f 482 574 572
f 484 482 572
f 426 484 568
f 563 427 561
f 561 426 568
f 563 490 427
f 564 488 490
f 564 493 488
f 566 119 122
f 500 566 122
f 500 567 566
f 500 499 567
f 567 499 565
f 565 499 493
f 564 565 493
f 563 564 490
f 561 427 426
f 568 484 572
f 482 483 574
f 495 581 579
f 62 24 60
f 30 31 61
f 498 586 496
f 590 587 475
f 70 61 31
f 62 63 32
f 505 590 475
f 28 32 63
f 505 502 590
f 590 502 595
f 595 502 515
f 124 97 594
f 515 593 595
f 594 521 124
f 593 521 594
f 515 521 593
f 268 411 6
f 413 6 21
f 941 66 21
f 268 6 413
f 65 25 66
f 413 21 415
f 418 417 25
f 55 25 7
f 125 68 56
f 407 56 410
f 962 6 68
f 962 68 78
f 6 411 68
f 145 146 147
f 21 962 941
f 151 155 150
f 148 153 151
f 155 151 154
f 155 154 156
f 151 153 154
f 917 156 147
f 158 917 147
f 158 147 146
f 147 154 145
f 156 154 147
f 154 153 145
f 148 151 150
f 59 65 941
f 159 554 161
f 162 163 164
f 6 962 21
f 167 162 164
f 168 164 166
f 161 169 168
f 554 170 161
f 161 170 171
f 159 161 168
f 161 171 169
f 159 168 166
f 168 169 167
f 167 164 168
f 166 164 163
f 7 25 65
f 7 65 58
f 55 418 25
f 55 7 956
f 286 418 55
f 73 55 958
f 958 600 73
f 286 73 422
f 84 78 125
f 405 125 407
f 79 955 78
f 407 125 56
f 59 941 955
f 67 955 79
f 68 411 410
f 65 59 58
f 956 7 58
f 625 58 959
f 21 66 415
f 55 956 958
f 957 71 958
f 25 417 66
f 71 174 600
f 286 55 73
f 76 84 126
f 311 126 304
f 74 79 84
f 304 126 405
f 67 59 955
f 75 79 74
f 959 58 59
f 960 67 75
f 56 68 410
f 240 243 244
f 956 58 625
f 961 918 625
f 59 67 959
f 941 65 66
f 600 958 71
f 552 239 71
f 66 417 415
f 239 81 174
f 422 73 299
f 301 299 600
f 301 553 930
f 74 84 76
f 74 76 82
f 75 67 79
f 75 74 221
f 960 959 67
f 83 75 221
f 961 625 959
f 206 960 83
f 125 78 68
f 957 625 918
f 78 955 962
f 71 957 552
f 239 174 71
f 242 552 644
f 81 553 174
f 232 239 242
f 73 600 299
f 930 553 133
f 91 129 133
f 553 81 133
f 401 398 82
f 74 82 221
f 76 401 82
f 960 75 83
f 76 311 401
f 176 177 245
f 961 960 206
f 246 247 248
f 249 250 251
f 252 246 251
f 253 249 251
f 254 252 255
f 256 246 254
f 256 257 258
f 258 259 260
f 261 259 258
f 262 257 263
f 264 261 265
f 266 267 268
f 269 270 271
f 269 271 272
f 273 269 274
f 270 269 273
f 270 275 276
f 276 277 278
f 279 280 276
f 279 275 281
f 282 280 283
f 284 285 286
f 282 287 288
f 289 290 291
f 287 282 292
f 291 293 294
f 291 295 296
f 294 295 291
f 297 298 299
f 297 299 300
f 299 301 300
f 302 303 304
f 305 306 307
f 308 309 249
f 307 310 311
f 312 309 313
f 312 314 315
f 315 316 317
f 318 319 320
f 317 321 318
f 320 322 323
f 324 319 321
f 325 326 324
f 324 327 328
f 325 329 330
f 331 332 333
f 333 334 335
f 336 337 332
f 335 338 339
f 340 337 341
f 340 341 342
f 340 342 343
f 344 345 346
f 347 348 343
f 348 349 345
f 346 350 351
f 352 353 349
f 352 354 355
f 356 352 357
f 357 358 359
f 360 361 362
f 362 363 364
f 359 361 357
f 364 365 366
f 367 361 368
f 367 369 370
f 370 371 372
f 373 370 374
f 374 375 376
f 377 378 379
f 376 380 381
f 380 378 381
f 382 383 384
f 382 380 383
f 383 380 376
f 382 378 380
f 377 374 381
f 374 376 381
f 378 377 381
f 372 375 374
f 366 365 379
f 373 374 377
f 365 373 377
f 370 372 374
f 363 370 373
f 369 371 370
f 379 365 377
f 385 386 387
f 367 363 362
f 373 365 363
f 369 367 368
f 370 363 367
f 365 364 363
f 366 386 364
f 386 385 364
f 361 367 362
f 385 360 362
f 359 368 361
f 388 360 385
f 362 364 385
f 387 388 385
f 355 358 357
f 360 357 361
f 360 356 357
f 389 390 387
f 349 391 354
f 388 356 360
f 388 387 390
f 357 352 355
f 356 353 352
f 388 390 356
f 389 351 350
f 390 353 356
f 346 351 392
f 352 349 354
f 353 345 349
f 390 350 353
f 390 389 350
f 348 345 344
f 353 350 345
f 391 348 347
f 391 349 348
f 393 344 346
f 345 350 346
f 392 393 346
f 343 348 344
f 394 343 344
f 342 347 343
f 339 393 392
f 395 396 397
f 393 394 344
f 393 339 338
f 394 340 343
f 394 334 340
f 393 338 394
f 339 396 335
f 337 334 333
f 394 338 334
f 341 337 336
f 340 334 337
f 330 332 325
f 334 338 335
f 395 333 335
f 332 337 333
f 395 331 333
f 330 336 332
f 396 395 335
f 320 323 398
f 397 399 395
f 328 329 325
f 331 325 332
f 331 326 325
f 395 399 331
f 397 323 399
f 399 326 331
f 399 323 322
f 325 324 328
f 326 319 324
f 320 319 322
f 326 399 322
f 321 319 318
f 326 322 319
f 327 321 400
f 327 324 321
f 401 402 398
f 315 314 316
f 398 402 320
f 317 400 321
f 403 317 318
f 316 400 317
f 320 402 318
f 401 311 310
f 402 403 318
f 307 311 304
f 403 315 317
f 403 306 315
f 402 310 403
f 402 401 310
f 312 306 305
f 403 310 306
f 314 312 313
f 315 306 312
f 303 305 307
f 306 310 307
f 304 303 307
f 309 312 305
f 303 404 305
f 308 313 309
f 405 302 304
f 251 248 406
f 249 404 250
f 309 305 404
f 308 249 253
f 309 404 249
f 303 302 404
f 405 407 408
f 302 250 404
f 302 405 408
f 253 251 406
f 250 252 251
f 302 408 250
f 409 410 411
f 408 252 250
f 408 407 255
f 251 246 248
f 252 254 246
f 408 255 252
f 407 410 255
f 410 409 255
f 256 247 246
f 257 256 254
f 260 247 256
f 263 257 409
f 254 255 409
f 409 257 254
f 409 411 263
f 256 258 260
f 257 262 258
f 268 267 411
f 265 269 272
f 411 267 263
f 261 258 262
f 412 261 262
f 264 259 261
f 263 267 262
f 268 413 266
f 265 412 274
f 262 267 412
f 264 265 272
f 261 412 265
f 414 274 266
f 412 267 266
f 266 274 412
f 266 413 414
f 274 269 265
f 274 414 273
f 415 414 413
f 416 417 418
f 415 419 414
f 278 420 270
f 275 270 273
f 420 271 270
f 414 419 273
f 415 417 419
f 419 275 273
f 419 417 281
f 270 276 278
f 275 279 276
f 416 279 281
f 275 419 281
f 417 416 281
f 280 277 276
f 283 280 279
f 421 277 280
f 286 285 418
f 283 279 416
f 285 283 416
f 282 421 280
f 292 282 283
f 288 421 282
f 418 285 416
f 298 422 299
f 290 287 291
f 283 285 292
f 293 287 292
f 290 288 287
f 285 284 292
f 286 422 284
f 284 293 292
f 284 422 298
f 289 291 296
f 287 293 291
f 295 294 423
f 293 284 298
f 298 294 293
f 298 423 294
f 423 297 300
f 423 298 297
f 314 213 316
f 316 208 400
f 213 208 316
f 208 218 400
f 218 327 400
f 218 217 327
f 328 327 217
f 217 216 328
f 328 216 329
f 216 225 329
f 225 330 329
f 225 224 330
f 336 330 224
f 224 229 336
f 336 229 341
f 229 220 341
f 220 342 341
f 220 231 342
f 347 342 231
f 231 226 347
f 347 226 391
f 226 228 391
f 228 354 391
f 228 233 354
f 355 354 233
f 233 234 355
f 234 238 358
f 358 238 359
f 238 241 359
f 241 368 359
f 241 240 368
f 369 368 240
f 240 244 369
f 244 371 369
f 355 234 358
f 203 213 314
f 313 203 314
f 202 203 313
f 202 313 308
f 205 202 308
f 308 253 205
f 207 205 253
f 406 207 253
f 197 207 406
f 197 406 248
f 201 197 248
f 248 247 201
f 200 201 247
f 260 200 247
f 190 200 260
f 190 260 259
f 194 190 259
f 259 264 194
f 185 194 264
f 272 185 264
f 184 185 272
f 184 272 271
f 187 184 271
f 271 420 187
f 172 187 420
f 278 172 420
f 173 172 278
f 173 278 277
f 181 173 277
f 277 421 181
f 182 181 421
f 288 182 421
f 178 182 288
f 178 288 290
f 177 178 290
f 290 245 177
f 289 245 290
f 424 425 122
f 426 427 428
f 429 430 431
f 432 433 434
f 435 436 437
f 438 439 440
f 441 442 443
f 444 438 445
f 446 447 448
f 449 450 451
f 433 452 453
f 440 449 454
f 455 456 457
f 458 459 460
f 445 440 461
f 462 453 463
f 464 445 430
f 434 462 465
f 466 464 429
f 456 467 468
f 461 454 469
f 465 467 456
f 462 463 467
f 470 471 472
f 473 474 428
f 475 471 476
f 477 478 474
f 479 480 481
f 456 468 457
f 482 480 483
f 480 479 483
f 484 485 482
f 485 480 482
f 426 474 484
f 486 487 476
f 488 489 490
f 491 492 425
f 489 488 493
f 490 428 427
f 481 494 479
f 484 474 485
f 479 495 483
f 485 478 480
f 472 495 479
f 490 473 428
f 474 426 428
f 485 474 478
f 473 490 489
f 476 471 470
f 481 480 478
f 457 481 478
f 494 472 479
f 468 494 481
f 472 496 495
f 470 472 497
f 471 496 472
f 498 471 475
f 498 496 471
f 499 492 493
f 499 500 425
f 474 473 477
f 489 493 492
f 478 477 457
f 473 492 501
f 481 457 468
f 477 473 501
f 494 468 497
f 457 477 455
f 502 487 503
f 472 494 497
f 468 467 497
f 476 487 475
f 463 504 470
f 487 505 475
f 504 486 476
f 502 505 487
f 489 492 473
f 506 122 121
f 450 507 455
f 455 477 501
f 491 450 501
f 508 509 510
f 501 450 455
f 467 463 497
f 455 507 456
f 511 512 513
f 511 503 514
f 470 497 463
f 515 503 511
f 476 470 504
f 453 516 504
f 503 487 486
f 516 514 486
f 515 502 503
f 499 425 492
f 500 122 425
f 451 450 491
f 501 492 491
f 424 451 491
f 517 429 99
f 436 518 519
f 465 456 507
f 467 465 462
f 507 450 449
f 507 439 465
f 513 520 124
f 512 511 509
f 504 463 453
f 504 516 486
f 453 462 433
f 486 514 503
f 516 452 510
f 515 511 521
f 514 510 509
f 506 424 122
f 491 425 424
f 506 451 424
f 431 469 98
f 507 449 439
f 451 506 454
f 522 523 524
f 434 465 439
f 447 452 433
f 433 462 434
f 439 438 434
f 442 525 526
f 527 512 528
f 516 453 452
f 516 510 514
f 452 447 529
f 514 509 511
f 510 529 508
f 521 511 513
f 509 508 528
f 521 513 124
f 512 527 513
f 98 469 121
f 431 101 100
f 451 454 449
f 506 121 469
f 530 466 517
f 439 449 440
f 531 522 532
f 432 434 438
f 446 529 447
f 447 433 432
f 444 448 432
f 459 526 435
f 525 527 528
f 510 452 529
f 446 519 529
f 528 512 509
f 519 518 508
f 533 123 520
f 518 525 528
f 520 513 527
f 534 520 527
f 123 124 520
f 506 469 454
f 98 101 431
f 530 517 102
f 440 454 461
f 440 445 438
f 461 431 430
f 535 531 536
f 432 438 444
f 432 448 447
f 444 464 537
f 537 523 448
f 443 459 458
f 529 519 508
f 446 523 538
f 508 518 528
f 519 538 436
f 436 526 518
f 539 115 533
f 533 534 441
f 527 525 534
f 123 533 115
f 520 534 533
f 429 431 100
f 461 469 431
f 99 429 100
f 445 461 430
f 540 541 106
f 444 445 464
f 522 538 523
f 448 444 537
f 448 523 446
f 537 466 524
f 435 526 436
f 519 446 538
f 522 437 538
f 542 543 111
f 544 441 443
f 525 518 526
f 114 539 113
f 534 525 442
f 539 441 544
f 534 442 441
f 115 539 114
f 533 441 539
f 102 517 99
f 464 430 429
f 532 522 524
f 537 464 466
f 531 437 522
f 523 537 524
f 530 532 524
f 545 546 547
f 460 459 435
f 436 538 437
f 531 535 437
f 542 111 112
f 526 459 442
f 435 535 460
f 113 544 112
f 442 459 443
f 543 544 443
f 113 539 544
f 103 548 102
f 466 429 517
f 104 541 548
f 524 466 530
f 548 532 530
f 540 106 105
f 541 531 532
f 549 547 107
f 550 458 545
f 435 437 535
f 546 460 535
f 551 110 111
f 545 458 460
f 551 111 543
f 458 543 443
f 458 550 543
f 544 542 112
f 544 543 542
f 102 548 530
f 103 104 548
f 548 541 532
f 104 106 541
f 547 546 540
f 531 541 536
f 536 546 535
f 536 540 546
f 108 550 549
f 460 546 545
f 549 550 545
f 108 110 551
f 550 551 543
f 550 108 551
f 547 540 105
f 536 541 540
f 107 547 105
f 107 109 549
f 108 549 109
f 545 547 549
f 554 72 170
f 905 881 166
f 554 144 72
f 881 554 159
f 76 126 311
f 918 961 898
f 881 159 166
f 905 555 556
f 166 555 905
f 557 558 559
f 560 559 162
f 561 562 563
f 557 564 563
f 560 564 557
f 565 564 560
f 565 560 167
f 169 566 567
f 169 567 167
f 171 566 169
f 565 167 567
f 568 569 561
f 562 570 558
f 171 116 566
f 72 116 171
f 72 171 170
f 566 116 119
f 571 568 572
f 571 572 573
f 572 574 573
f 573 575 576
f 577 575 573
f 578 577 579
f 580 577 578
f 578 581 582
f 578 582 583
f 582 584 583
f 585 584 582
f 585 586 587
f 588 585 589
f 589 590 591
f 589 591 148
f 148 592 589
f 593 145 153
f 158 146 90
f 97 96 594
f 146 96 90
f 153 148 591
f 594 146 145
f 594 96 146
f 594 145 593
f 593 153 595
f 595 591 590
f 595 153 591
f 588 589 592
f 587 590 589
f 589 585 587
f 588 584 585
f 586 582 581
f 586 585 582
f 580 578 583
f 579 581 578
f 579 577 574
f 580 575 577
f 571 573 576
f 574 577 573
f 596 571 576
f 596 569 571
f 571 569 568
f 596 570 569
f 569 562 561
f 569 570 562
f 562 557 563
f 562 558 557
f 559 560 557
f 162 167 560
f 163 597 166
f 84 79 78
f 597 555 166
f 556 555 598
f 598 555 597
f 599 598 371
f 552 918 644
f 599 371 244
f 556 598 599
f 163 162 559
f 601 602 603
f 602 570 604
f 602 558 570
f 605 601 606
f 605 606 384
f 605 384 383
f 607 608 602
f 609 559 608
f 610 607 611
f 611 372 598
f 607 602 601
f 372 371 598
f 559 609 163
f 376 612 383
f 383 612 605
f 606 601 603
f 611 375 372
f 603 602 604
f 601 612 607
f 605 612 601
f 376 375 612
f 375 611 612
f 608 558 602
f 610 608 607
f 559 558 608
f 597 610 598
f 607 612 611
f 598 610 611
f 597 163 609
f 610 609 608
f 610 597 609
f 613 614 615
f 86 92 616
f 617 618 619
f 86 616 620
f 92 615 616
f 621 87 620
f 622 621 623
f 624 622 623
f 621 622 917
f 614 626 615
f 615 626 616
f 613 615 127
f 614 613 627
f 628 629 630
f 631 630 632
f 135 633 634
f 635 636 637
f 638 639 640
f 641 640 642
f 143 144 642
f 643 144 554
f 645 143 642
f 637 618 617
f 80 646 647
f 648 649 650
f 651 652 649
f 653 654 655
f 654 656 657
f 658 659 634
f 660 658 634
f 661 632 652
f 652 662 663
f 632 664 662
f 613 665 666
f 667 665 132
f 85 134 668
f 668 669 670
f 89 87 621
f 917 89 621
f 621 620 623
f 87 86 620
f 620 671 623
f 672 673 631
f 92 127 615
f 626 671 616
f 624 674 675
f 623 674 624
f 616 671 620
f 628 675 674
f 671 629 674
f 127 130 613
f 626 676 629
f 130 665 613
f 614 676 626
f 130 131 665
f 613 666 627
f 131 132 665
f 671 674 623
f 628 673 675
f 629 676 630
f 629 671 626
f 667 668 670
f 676 614 627
f 676 664 630
f 665 667 666
f 627 664 676
f 134 669 668
f 668 667 132
f 677 678 666
f 132 85 668
f 670 677 667
f 673 628 631
f 628 674 629
f 628 630 631
f 679 680 648
f 670 669 656
f 664 627 678
f 664 678 662
f 678 627 666
f 656 669 681
f 677 666 667
f 677 654 653
f 236 222 644
f 670 656 654
f 669 134 64
f 672 661 682
f 631 661 672
f 664 632 630
f 651 682 661
f 656 681 683
f 662 678 653
f 663 653 655
f 653 678 677
f 683 681 684
f 654 677 670
f 654 657 655
f 669 64 681
f 656 683 657
f 681 64 62
f 632 661 631
f 651 680 682
f 652 663 649
f 652 632 662
f 655 657 636
f 663 662 653
f 663 635 649
f 70 69 659
f 655 636 635
f 684 659 685
f 657 686 636
f 681 62 684
f 683 685 686
f 684 62 70
f 680 651 648
f 651 661 652
f 651 649 648
f 687 619 688
f 636 686 618
f 635 663 655
f 635 637 650
f 961 206 898
f 683 686 657
f 618 637 636
f 684 685 683
f 689 618 686
f 70 659 684
f 658 689 685
f 679 639 638
f 643 641 642
f 635 650 649
f 639 679 648
f 650 690 639
f 691 692 646
f 637 617 690
f 138 647 633
f 660 634 633
f 689 686 685
f 659 658 685
f 693 619 689
f 135 634 69
f 634 659 69
f 650 639 648
f 640 641 638
f 694 617 687
f 690 650 637
f 690 617 694
f 139 691 646
f 689 619 618
f 619 687 617
f 658 693 689
f 693 688 619
f 658 660 693
f 660 692 693
f 660 633 646
f 633 135 138
f 642 694 645
f 640 639 690
f 645 687 695
f 694 640 690
f 694 687 645
f 141 140 691
f 687 688 695
f 139 141 691
f 693 692 688
f 692 696 688
f 139 646 80
f 646 692 660
f 138 80 647
f 647 646 633
f 694 642 640
f 642 144 643
f 143 645 136
f 645 695 136
f 136 695 142
f 140 142 696
f 688 696 695
f 696 142 695
f 692 691 696
f 691 140 696
f 697 698 699
f 700 701 702
f 702 703 704
f 705 706 707
f 707 706 708
f 709 710 711
f 712 713 714
f 715 716 717
f 718 719 720
f 241 238 721
f 718 722 719
f 723 724 725
f 726 243 725
f 727 709 728
f 729 730 731
f 732 733 734
f 735 736 730
f 737 738 739
f 740 741 742
f 737 743 703
f 744 745 746
f 745 747 746
f 744 746 213
f 213 203 744
f 744 203 748
f 706 749 704
f 750 742 751
f 742 207 751
f 207 197 751
f 197 201 751
f 200 190 752
f 753 740 750
f 754 755 753
f 756 750 751
f 757 758 759
f 757 759 185
f 750 740 742
f 753 755 740
f 760 761 762
f 759 752 194
f 763 758 757
f 764 763 765
f 766 767 768
f 769 768 770
f 771 766 769
f 768 767 764
f 761 771 769
f 772 773 774
f 697 176 698
f 203 202 748
f 202 205 741
f 202 741 748
f 208 213 746
f 748 775 744
f 747 738 746
f 205 207 742
f 201 200 756
f 205 742 741
f 751 201 756
f 730 736 745
f 775 748 741
f 731 775 741
f 745 744 775
f 730 745 775
f 746 738 208
f 736 747 745
f 218 208 738
f 776 738 747
f 737 218 738
f 216 217 737
f 217 218 737
f 190 194 752
f 194 185 759
f 752 777 756
f 778 779 754
f 741 740 731
f 750 756 777
f 735 734 736
f 730 775 731
f 740 755 731
f 780 781 749
f 704 703 743
f 776 747 736
f 734 776 736
f 739 738 776
f 733 739 776
f 743 737 739
f 708 743 739
f 703 216 737
f 701 703 702
f 225 216 703
f 200 752 756
f 185 184 757
f 754 779 755
f 753 750 777
f 752 758 777
f 782 783 778
f 731 755 729
f 753 777 784
f 785 732 734
f 735 730 729
f 755 779 729
f 786 787 788
f 776 734 733
f 735 729 789
f 739 733 708
f 734 735 785
f 790 701 791
f 704 743 708
f 733 707 708
f 703 701 225
f 708 706 704
f 224 225 701
f 749 700 702
f 229 224 701
f 184 187 765
f 758 752 759
f 792 762 178
f 784 777 758
f 778 783 779
f 754 753 784
f 758 763 784
f 793 794 795
f 729 779 789
f 754 784 796
f 788 787 732
f 785 735 789
f 779 783 789
f 793 795 797
f 733 732 707
f 785 789 798
f 785 788 732
f 709 727 710
f 732 787 707
f 791 728 790
f 220 790 709
f 702 704 749
f 706 780 749
f 791 701 700
f 781 799 700
f 790 229 701
f 799 728 791
f 220 229 790
f 187 172 800
f 801 800 173
f 784 763 796
f 757 184 765
f 802 803 798
f 778 754 796
f 763 764 796
f 804 805 806
f 789 783 798
f 778 796 767
f 786 795 787
f 788 785 798
f 783 802 798
f 807 714 808
f 707 787 705
f 788 798 803
f 713 809 781
f 780 706 705
f 787 795 705
f 710 810 811
f 749 781 700
f 780 705 794
f 700 799 791
f 781 780 713
f 790 728 709
f 799 809 812
f 231 220 709
f 728 812 727
f 757 765 763
f 173 181 801
f 796 764 767
f 765 800 813
f 778 767 782
f 764 813 768
f 814 803 802
f 802 783 782
f 766 815 782
f 816 804 817
f 788 803 786
f 802 815 814
f 814 805 803
f 818 807 819
f 705 795 794
f 786 805 797
f 820 718 821
f 713 780 794
f 793 714 794
f 720 715 822
f 810 710 727
f 799 781 809
f 799 812 728
f 809 712 716
f 716 823 812
f 709 711 231
f 823 810 727
f 226 231 711
f 811 711 710
f 228 226 711
f 187 800 765
f 172 173 800
f 770 768 813
f 764 765 813
f 801 770 813
f 772 774 760
f 824 814 815
f 782 767 766
f 806 805 814
f 802 782 815
f 771 824 815
f 825 816 826
f 803 805 786
f 814 824 806
f 808 714 793
f 795 786 797
f 804 827 797
f 828 818 829
f 794 714 713
f 793 827 808
f 715 823 716
f 809 713 712
f 809 716 812
f 712 807 717
f 830 831 832
f 727 812 823
f 715 719 823
f 811 831 711
f 719 722 810
f 831 228 711
f 832 831 811
f 233 228 831
f 833 770 801
f 813 800 801
f 181 833 801
f 834 760 792
f 768 769 766
f 770 833 835
f 766 771 815
f 769 835 761
f 761 774 771
f 825 826 836
f 774 773 824
f 837 825 838
f 805 804 797
f 806 773 817
f 819 807 808
f 793 797 827
f 816 839 827
f 840 828 841
f 714 807 712
f 808 839 819
f 720 719 715
f 716 712 717
f 818 822 717
f 241 721 723
f 842 830 843
f 810 823 719
f 844 722 718
f 811 810 722
f 830 832 843
f 811 722 832
f 234 233 830
f 233 831 830
f 181 182 833
f 182 762 833
f 770 835 769
f 182 178 762
f 762 761 835
f 836 845 846
f 847 817 773
f 824 771 774
f 826 816 817
f 806 824 773
f 806 817 804
f 773 772 847
f 804 816 827
f 817 847 826
f 829 818 819
f 808 827 839
f 825 837 839
f 848 849 850
f 807 818 717
f 819 837 829
f 821 718 720
f 715 717 822
f 828 840 822
f 723 851 724
f 840 821 720
f 721 238 842
f 852 844 820
f 832 722 844
f 842 843 721
f 832 844 843
f 238 234 842
f 234 830 842
f 833 762 835
f 178 177 792
f 853 772 834
f 774 761 760
f 834 772 760
f 854 846 855
f 853 847 772
f 856 857 858
f 845 826 847
f 859 856 860
f 861 829 862
f 839 816 825
f 841 828 861
f 819 839 837
f 862 829 837
f 863 850 864
f 818 828 822
f 829 861 828
f 865 820 848
f 720 822 840
f 849 821 840
f 725 724 866
f 718 820 844
f 821 848 820
f 844 852 843
f 820 865 852
f 852 721 843
f 852 851 721
f 177 176 697
f 760 762 792
f 177 697 792
f 846 867 855
f 697 853 834
f 854 855 868
f 853 845 847
f 853 869 845
f 857 838 854
f 826 845 836
f 836 838 825
f 836 854 838
f 838 862 837
f 838 857 862
f 856 861 862
f 850 870 864
f 859 841 861
f 863 864 871
f 841 849 840
f 841 872 849
f 873 865 863
f 821 849 848
f 863 865 848
f 725 866 726
f 865 851 852
f 865 873 851
f 240 241 723
f 721 851 723
f 867 869 699
f 834 792 697
f 697 869 853
f 697 699 869
f 869 846 845
f 869 867 846
f 858 857 868
f 836 846 854
f 868 857 854
f 858 860 856
f 874 859 860
f 862 857 856
f 870 872 874
f 861 856 859
f 859 872 841
f 859 874 872
f 872 850 849
f 872 870 850
f 875 873 871
f 848 850 863
f 871 873 863
f 875 866 724
f 873 724 851
f 873 875 724
f 240 725 243
f 240 723 725
f 641 643 876
f 643 877 876
f 878 879 880
f 554 881 643
f 882 871 883
f 870 879 884
f 885 886 887
f 888 889 858
f 855 867 890
f 891 892 893
f 867 891 890
f 855 890 894
f 895 890 893
f 622 896 897
f 915 917 897
f 891 699 899
f 894 888 868
f 900 901 895
f 699 698 899
f 902 887 901
f 860 889 903
f 874 903 879
f 904 878 880
f 864 884 883
f 864 870 884
f 871 864 883
f 905 906 907
f 882 906 875
f 881 905 877
f 726 866 908
f 906 905 908
f 875 906 866
f 906 908 866
f 882 883 909
f 882 875 871
f 882 909 907
f 680 679 904
f 883 910 909
f 682 680 911
f 874 879 870
f 878 910 884
f 903 889 886
f 903 874 860
f 858 889 860
f 886 880 903
f 868 888 858
f 887 886 889
f 855 894 868
f 901 887 888
f 894 895 901
f 867 699 891
f 890 891 893
f 891 899 912
f 876 910 913
f 907 906 882
f 907 909 877
f 904 679 913
f 884 910 883
f 910 876 909
f 879 878 884
f 878 913 910
f 911 886 885
f 880 879 903
f 880 886 911
f 900 673 902
f 902 901 900
f 887 889 888
f 900 895 914
f 901 888 894
f 914 893 896
f 895 894 890
f 895 893 914
f 891 912 892
f 893 892 896
f 892 912 897
f 907 877 905
f 877 643 881
f 641 913 638
f 876 877 909
f 876 913 641
f 913 679 638
f 680 904 911
f 904 913 878
f 682 911 885
f 911 904 880
f 682 885 672
f 885 902 672
f 887 902 885
f 902 673 672
f 673 900 675
f 900 914 675
f 675 914 624
f 914 896 624
f 624 896 622
f 897 917 622
f 912 915 897
f 897 896 892
f 156 915 916
f 232 81 239
f 912 919 920
f 90 917 158
f 89 917 90
f 235 242 222
f 915 912 916
f 917 915 156
f 155 916 920
f 920 916 912
f 155 156 916
f 580 921 922
f 923 583 924
f 925 926 927
f 927 923 928
f 584 924 583
f 929 930 931
f 929 926 930
f 932 929 931
f 922 933 575
f 922 575 580
f 934 603 604
f 935 936 937
f 938 384 606
f 576 933 596
f 933 922 935
f 604 570 596
f 933 934 596
f 301 926 925
f 301 930 926
f 583 923 921
f 928 925 927
f 928 923 924
f 927 939 923
f 932 939 929
f 927 926 929
f 921 939 936
f 927 929 939
f 583 921 580
f 923 939 921
f 940 932 931
f 91 133 81
f 932 936 939
f 932 940 937
f 936 922 921
f 936 935 922
f 932 937 936
f 938 937 940
f 938 935 937
f 934 604 596
f 942 933 935
f 576 575 933
f 942 938 606
f 128 232 235
f 938 942 935
f 606 603 942
f 942 934 933
f 942 603 934
f 300 301 925
f 943 296 944
f 289 296 943
f 945 946 943
f 947 948 949
f 950 588 948
f 951 300 925
f 947 949 945
f 588 950 924
f 950 928 924
f 924 584 588
f 944 295 423
f 952 949 150
f 148 150 949
f 128 188 91
f 289 943 946
f 296 295 944
f 947 945 944
f 952 946 945
f 148 949 592
f 952 945 949
f 951 947 944
f 945 943 944
f 423 951 944
f 948 592 949
f 953 948 947
f 588 592 948
f 300 951 423
f 925 953 951
f 951 953 947
f 925 928 953
f 953 950 948
f 953 928 950
f 954 289 946
f 245 289 954
f 81 232 91
f 954 946 919
f 946 920 919
f 155 920 952
f 952 920 946
f 155 952 150
f 940 931 129
f 956 957 958
f 959 960 961
f 962 955 941
f 918 898 644
f 956 625 957
f 600 553 301
f 552 242 239
f 898 237 236
f 242 235 232
f 230 227 223
f 644 222 242
f 221 219 215
f 898 236 644
f 222 214 212
f 323 211 219
f 210 223 209
f 206 237 898
f 204 199 198
f 199 196 198
f 195 196 199
f 193 210 192
f 191 209 223
f 191 223 189
f 191 189 198
f 387 191 389
f 209 191 387
f 366 210 386
f 379 192 366
f 378 192 379
f 188 186 183
f 180 378 382
f 179 382 384
f 179 384 938
f 386 209 387
f 175 212 227
f 389 191 351
f 209 386 210
f 600 174 553
f 210 366 192
f 180 193 192
f 237 165 236
f 230 223 210
f 191 198 351
f 227 189 223
f 198 196 351
f 204 198 189
f 196 392 351
f 160 196 195
f 339 392 196
f 186 193 180
f 192 378 180
f 210 193 230
f 180 179 186
f 186 157 193
f 206 152 237
f 189 227 204
f 230 193 157
f 230 175 227
f 149 211 160
f 227 212 204
f 196 160 339
f 204 214 199
f 160 396 339
f 165 137 195
f 397 396 160
f 183 186 179
f 180 382 179
f 938 183 179
f 133 129 931
f 957 918 552
f 175 230 157
f 188 128 157
f 126 125 405
f 204 212 214
f 175 157 128
f 199 214 165
f 212 175 235
f 215 211 149
f 195 199 165
f 152 137 237
f 160 195 137
f 215 149 152
f 160 137 149
f 397 211 323
f 397 160 211
f 940 183 938
f 133 931 930
f 186 188 157
f 183 940 129
f 175 128 235
f 188 129 91
f 212 235 222
f 128 91 232
f 126 84 125
f 236 214 222
f 83 215 152
f 165 214 236
f 82 219 221
f 137 165 237
f 398 219 82
f 149 137 152
f 206 83 152
f 219 211 215
f 83 221 215
f 398 323 219
f 183 129 188
f 954 919 899
f 176 245 698
f 556 599 908
f 243 726 244
