# Generated by benchmark/pick_up_apple/mujoco_src/export.py
v -0.00037949418765492737 -0.035261347889900208 -0.059779245406389236
v 0.0046921935863792896 -0.035218168050050735 -0.059154212474822998
v -0.00039913979708217084 -0.034815944731235504 -0.056669425219297409
v 0.01715422235429287 -0.030767206102609634 -0.060042709112167358
v 0.01480040792375803 -0.031521592289209366 -0.055553626269102097
v 0.01134120486676693 -0.033477768301963806 -0.059723418205976486
v 0.025203626602888107 -0.024040143936872482 -0.055139828473329544
v 0.022479493170976639 -0.027083810418844223 -0.060119748115539551
v 0.027040295302867889 -0.022619331255555153 -0.059986110776662827
v 0.020379785448312759 -0.028221765533089638 -0.0553760826587677
v 0.0090681817382574081 -0.03362312912940979 -0.055363412946462631
v 0.0064376452937722206 -0.034233342856168747 -0.051375068724155426
v 0.0040886783972382545 -0.034583322703838348 -0.054828699678182602
v 0.00014472939074039459 -0.034825526177883148 -0.051677510142326355
v 0.017773859202861786 -0.030002564191818237 -0.051671102643013
v 0.012129258364439011 -0.032673563808202744 -0.051655296236276627
v -0.048395123332738876 0.02803647518157959 -0.0063793282024562359
v -0.04834936186671257 0.026565339416265488 0.005381106398999691
v 0.03060513362288475 -0.017470741644501686 -0.059985853731632233
v 0.028996327891945839 -0.01934749074280262 -0.055219504982233047
v -0.048399988561868668 0.0228736512362957 -0.011327817104756832
v 0.03187987208366394 -0.014013329520821571 -0.055415194481611252
v 0.033190753310918808 -0.01189805194735527 -0.059976637363433838
v 0.033228069543838501 -0.010407459922134876 -0.051241613924503326
v -0.048399999737739563 0.021357007324695587 0.0050049470737576485
v 0.034810800105333328 -0.0060105426236987114 -0.0597517229616642
v 0.033772211521863937 -0.0083968695253133774 -0.055415797978639603
v 0.034731324762105942 -0.0028063959907740355 -0.054761454463005066
v 0.035312633961439133 4.9904843763215467e-05 -0.059812303632497787
v 0.034704931080341339 0.0029974225908517838 -0.054771553725004196
v 0.034669201821088791 0.0062873954884707928 -0.060032684355974197
v 0.033706691116094589 0.0087051447480916977 -0.055343829095363617
v 0.031670283526182175 0.01443097647279501 -0.054751284420490265
v 0.03298439085483551 0.012347446754574776 -0.060057785362005234
v 0.030381549149751663 0.017917484045028687 -0.059881962835788727
v 0.025077952072024345 0.024231251329183578 -0.055059894919395447
v 0.028833091259002686 0.019561640918254852 -0.055146645754575729
v 0.026807703077793121 0.022834261879324913 -0.060067057609558105
v 0.020167315378785133 0.028410045430064201 -0.055301565676927567
v -0.048383265733718872 0.019284719601273537 -0.022422123700380325
v 0.010999329388141632 0.033532798290252686 -0.059826560318470001
v 0.0087882187217473984 0.033687122166156769 -0.055404797196388245
v 0.014497027732431889 0.031655479222536087 -0.055534515529870987
v 0.0044714915566146374 0.035155013203620911 -0.059448961168527603
v 0.0038623209111392498 0.034606732428073883 -0.054903842508792877
v 0.0062849763780832291 0.034244593232870102 -0.051468860357999802
v 8.5251114796847105e-05 0.034811470657587051 -0.051789812743663788
v -0.0015674332389608026 0.035035762935876846 -0.060679364949464798
v -0.00072405696846544743 0.034846313297748566 -0.056768037378787994
v 0.011920381337404251 0.032749027013778687 -0.051656514406204224
v 0.01760517805814743 0.030105464160442352 -0.051602356135845184
v 0.016771716997027397 0.030921922996640205 -0.060134939849376678
v 0.022196263074874878 0.027225054800510406 -0.060247097164392471
v -0.048401806503534317 0.027935883030295372 -0.012146881781518459
v 0.030806658789515495 0.016228994354605675 -0.050999999046325684
v -0.048403073102235794 0.023542707785964012 -0.017112696543335915
v 0.033228043466806412 0.010407452471554279 -0.051241610199213028
v 0.034419599920511246 0.0052643846720457077 -0.051291920244693756
v 0.034820001572370529 2.6922908347160046e-15 -0.051298514008522034
v 0.034419629722833633 -0.0052643837407231331 -0.051291227340698242
v 0.031010333448648453 -0.0036826494615525007 -0.050811797380447388
v -0.048399999737739563 0.010673313401639462 0.012591555714607239
v 0.034376759082078934 -0.0031359121203422546 -0.051004648208618164
v 0.029459515586495399 -0.0087293656542897224 -0.050496555864810944
v -0.04837089404463768 0.027807656675577164 -0.0003588510153349489
v 0.031839195638895035 0.0036834902130067348 -0.050856586545705795
v -0.048399999737739563 0.022245613858103752 0.00033146762871183455
v 0.031042614951729774 0.015176634304225445 -0.050761230289936066
v 0.030085412785410881 0.010518909431993961 -0.050602849572896957
v 0.034383978694677353 0.0031380068976432085 -0.050995595753192902
v -0.048399999737739563 0.022597044706344604 -0.0054142116568982601
v -0.048399385064840317 0.015233465470373631 0.016984067857265472
v -0.048361167311668396 0.016093956306576729 0.022070189937949181
v -0.048399999737739563 0.0051514394581317902 -0.011042515747249126
v -0.048399999737739563 0.0050069261342287064 -0.004999999888241291
v 0.023901168256998062 -0.025302082300186157 -0.050121858716011047
v -0.048399999737739563 0.010979089885950089 0.00089257123181596398
v -0.0059765609912574291 -0.034799888730049133 -0.050633065402507782
v -0.00788117665797472 -0.034960560500621796 -0.046138200908899307
v -0.01243208721280098 -0.034790642559528351 -0.050474170595407486
v -0.048399999737739563 0.0048635192215442657 0.01288212276995182
v -0.048399999737739563 -0.00087013171287253499 -0.011053473688662052
v 0.0035081387031823397 0.034673955291509628 -0.047569286078214645
v -0.048399999737739563 -0.00099307391792535782 -0.004999999888241291
v -0.0021829630713909864 0.034922581166028976 -0.046860493719577789
v -0.0058532166294753551 0.03482581302523613 -0.05062485858798027
v -0.0078813591971993446 0.034959565848112106 -0.046138070523738861
v -0.012099950574338436 0.034717101603746414 -0.050093144178390503
v -0.048399999737739563 0.016709480434656143 0.00059160945238545537
v -0.048399999737739563 0.010973592288792133 -0.0050333333201706409
v -0.048399999737739563 0.016857605427503586 -0.0051299971528351307
v -0.048399969935417175 -0.0063818986527621746 -0.017049539834260941
v -0.0044924137182533741 0.03481375053524971 -0.054530192166566849
v -0.0074788942001760006 0.035661939531564713 -0.058887869119644165
v -0.008530864492058754 0.034787118434906006 -0.054190114140510559
v -0.012615167535841465 0.034792147576808929 -0.056052293628454208
v -0.012899577617645264 0.035358171910047531 -0.059641454368829727
v 0.03162146732211113 0.0024531884118914604 -0.063453748822212219
v 0.030110502615571022 0.0084730805829167366 -0.063629820942878723
v 0.028079882264137268 0.014342901296913624 -0.063554950058460236
v 0.026241807267069817 0.019134484231472015 -0.063167057931423187
v 0.0211293064057827 0.022123251110315323 -0.063890166580677032
v 0.016357386484742165 0.026440296322107315 -0.063662827014923096
v 0.011077491566538811 0.029708361253142357 -0.063468717038631439
v 0.0066594118252396584 0.032353527843952179 -0.062899336218833923
v 0.0010310469660907984 0.032429225742816925 -0.063142053782939911
v 0.03203171119093895 -0.0035196826793253422 -0.06325877457857132
v 0.03180282935500145 -0.0086185960099101067 -0.062951087951660156
v 0.028470313176512718 -0.013791091740131378 -0.063524626195430756
v 0.02667028084397316 -0.019119657576084137 -0.062975883483886719
v 0.021919678896665573 -0.022603683173656464 -0.063580572605133057
v 0.017280599102377892 -0.026785209774971008 -0.063391923904418945
v 0.011905918829143047 -0.029997594654560089 -0.063231997191905975
v 0.0070389248430728912 -0.032727636396884918 -0.062643364071846008
v 0.00072086142608895898 -0.033275585621595383 -0.062745094299316406
v -0.012306539341807365 -0.035336710512638092 -0.059754732996225357
v -0.0063480469398200512 -0.035505030304193497 -0.059358183294534683
v -0.012509380467236042 -0.034804124385118484 -0.056224577128887177
v -0.0043405736796557903 -0.03481694683432579 -0.054588843137025833
v -0.0085036586970090866 -0.034805260598659515 -0.054348014295101166
v -0.011570675298571587 -0.032918978482484818 -0.06300780177116394
v -0.0050737815909087658 -0.032166451215744019 -0.06325298547744751
v -0.005523360799998045 0.032615400850772858 -0.063096977770328522
v -0.013545580208301544 0.032711256295442581 -0.063046537339687347
v 0.0089754126965999603 0.033323675394058228 -0.047960344702005386
v -0.048399999737739563 0.0057432586327195168 -0.01699240505695343
v -0.048400670289993286 0.016816679388284683 0.0063327946700155735
v -0.048400264233350754 -0.0076276804320514202 0.024433093145489693
v -0.013580000028014183 0.034702666103839874 -0.04509749636054039
v 0.014304515905678272 0.031397603452205658 -0.048636745661497116
v 0.019260961562395096 0.02864048071205616 -0.049265842884778976
v 0.023707276210188866 0.02510874904692173 -0.04983019083738327
v 0.027516651898622513 0.020888017490506172 -0.050313696265220642
v -0.048387333750724792 -0.0029652395751327276 0.0290644820779562
v 0.030579034239053726 -0.016089122742414474 -0.05070238932967186
v -0.0022458485327661037 -0.0346241295337677 -0.04653608426451683
v 0.027516663074493408 -0.020888036116957664 -0.050313699990510941
v -0.048400022089481354 -0.012341900728642941 -0.016543248668313026
v 0.019261008128523827 -0.028640555217862129 -0.049265846610069275
v 0.014304528944194317 -0.031397629529237747 -0.048636745661497116
v 0.0089753950014710426 -0.033323641866445541 -0.047960344702005386
v 0.0034130350686609745 -0.034387145191431046 -0.04725433886051178
v -0.013580000028014183 -0.034704040735960007 -0.04509749636054039
v -0.048385273665189743 -0.011432796716690063 -0.02306586317718029
v -0.019629171118140221 0.034296363592147827 -0.049783386290073395
v -0.0167801883071661 0.034622251987457275 -0.053275112062692642
v -0.022131232544779778 0.03371192142367363 -0.054317731410264969
v -0.031842008233070374 0.030513174831867218 -0.045895267277956009
v -0.048431053757667542 0.021421408280730247 0.018029298633337021
v -0.032938830554485321 0.029036276042461395 -0.049582291394472122
v -0.048399489372968674 0.016584819182753563 0.012224616482853889
v -0.029357552528381348 0.031156780198216438 -0.049029607325792313
v -0.028581282123923302 0.031390048563480377 -0.053892441093921661
v -0.027888793498277664 0.032265461981296539 -0.045008458197116852
v -0.025082238018512726 0.032915692776441574 -0.049776319414377213
v -0.022493943572044373 0.033947642892599106 -0.045916613191366196
v -0.048346240073442459 0.02341662161052227 0.010724763385951519
v -0.015958385542035103 0.034764263778924942 -0.049682080745697021
v -0.01989486999809742 -0.034218188375234604 -0.050471324473619461
v -0.017319072037935257 -0.034782461822032928 -0.047377288341522217
v -0.022150684148073196 -0.033929526805877686 -0.047135781496763229
v -0.029602471739053726 -0.030979679897427559 -0.04956362396478653
v -0.033213194459676743 -0.029364947229623795 -0.04675283282995224
v -0.03346194326877594 -0.02856077067553997 -0.051674719899892807
v -0.027540888637304306 -0.032457064837217331 -0.044509008526802063
v -0.048397205770015717 -0.0080756079405546188 0.028953161090612411
v -0.02846512570977211 -0.031473983079195023 -0.054538924247026443
v -0.02499091625213623 -0.032930657267570496 -0.050103183835744858
v -0.022038873285055161 -0.033748473972082138 -0.054604429751634598
v -0.016559632495045662 -0.034696612507104874 -0.050470028072595596
v -0.016919573768973351 -0.034622613340616226 -0.053577873855829239
v -0.028699999675154686 1.6594622269210102e-14 0.048999998718500137
v -0.048399999737739563 -0.018223240971565247 -0.010409452021121979
v -0.028400000184774399 -0.0060171429067850113 0.048326846212148666
v -0.048363812267780304 -0.022146375849843025 -0.016010478138923645
v -0.028400000184774399 -0.011942074634134769 0.047213099896907806
v -0.048399999737739563 -0.016998380422592163 -0.015218810178339481
v -0.028400000184774399 -0.017683999612927437 0.045375831425189972
v -0.048399951308965683 0.0072467750869691372 -0.022670654579997063
v -0.048399999737739563 -0.006993073970079422 0.0070000002160668373
v -0.028699999675154686 -0.023297561332583427 0.043107118457555771
v -0.028400000184774399 -0.028271006420254707 0.039654005318880081
v -0.048399999737739563 -0.00099307391792535782 0.0070000002160668373
v -0.028400000184774399 -0.032953847199678421 0.035857133567333221
v -0.048400592058897018 -0.018612941727042198 -0.0045339125208556652
v -0.048399999737739563 -0.012866908684372902 -0.0048716473393142223
v -0.028699999675154686 -0.037360422313213348 0.031704872846603394
v -0.028400000184774399 -0.040740489959716797 0.026681499555706978
v -0.048400048166513443 0.0012697449419647455 -0.022825120016932487
v -0.048399999737739563 -0.00029497791547328234 -0.017079347744584084
v -0.028699999675154686 -0.043994318693876266 0.021575449034571648
v -0.028400000184774399 -0.046039368957281113 0.015876598656177521
v -0.048399031162261963 -0.0048886439763009548 -0.02330368384718895
v -0.028400000184774399 -0.047648239880800247 0.01006653904914856
v -0.048399999737739563 -0.012944834306836128 0.001081748167052865
v -0.048399992287158966 0.017786514014005661 -0.016950951889157295
v -0.028699999675154686 -0.048825852572917938 0.0041274838149547577
v -0.048385739326477051 0.013353612273931503 -0.022694546729326248
v -0.028699999675154686 -0.048961706459522247 -0.0019368348876014352
v -0.048399999737739563 -0.006993073970079422 0.0010000000474974513
v -0.028699999675154686 -0.048347238451242447 -0.0079714721068739891
v -0.028400000184774399 -0.046704165637493134 -0.013798945583403111
v -0.048399999737739563 -0.00099307391792535782 0.0010000000474974513
v -0.048399999737739563 -0.0070264074020087719 0.012966666370630264
v -0.028400000184774399 -0.044641371816396713 -0.019463760778307915
v -0.048399999737739563 -0.0010797574650496244 0.012954074889421463
v -0.028400000184774399 -0.041894465684890747 -0.024830300360918045
v -0.048399999737739563 0.011169632896780968 -0.011037036776542664
v -0.028699999675154686 -0.038742739707231522 -0.029999999329447746
v -0.028699999675154686 0.0060542095452547073 0.048624545335769653
v -0.048399981111288071 0.011812984012067318 -0.01695939339697361
v -0.028699999675154686 0.012015639804303646 0.047503940761089325
v -0.048399999737739563 0.01715155690908432 -0.011088063009083271
v -0.048399999737739563 -0.0072221173904836178 0.018847409635782242
v -0.028400000184774399 0.017683999612927437 0.045375831425189972
v -0.028699999675154686 0.023297561332583427 0.043107118457555771
v -0.048399999737739563 -0.0013785870978608727 0.018647177144885063
v -0.048399999737739563 -0.0069597405381500721 -0.0049666664563119411
v -0.028400000184774399 0.028271006420254707 0.039654005318880081
v -0.048399999737739563 -0.01257515512406826 -0.010669955052435398
v -0.028400000184774399 0.032953847199678421 0.035857133567333221
v -0.028699999675154686 0.037360422313213348 0.031704872846603394
v -0.048399999737739563 -0.0068419370800256729 -0.010947085916996002
v -0.048399999737739563 0.0049735927022993565 0.0069666667841374874
v -0.028400000184774399 0.040740489959716797 0.026681499555706978
v -0.048399999737739563 0.0050069261342287064 0.0010000000474974513
v -0.028400000184774399 0.043724965304136276 0.021443353965878487
v -0.048399999737739563 0.010948978364467621 0.006822491530328989
v -0.028400000184774399 0.046039368957281113 0.015876598656177521
v -0.028699999675154686 0.047941762953996658 0.010128550231456757
v -0.048355270177125931 0.0095723401755094528 0.024735923856496811
v -0.028699999675154686 0.048825852572917938 0.0041274838149547577
v -0.048400629311800003 0.0044857398606836796 0.018651748076081276
v -0.028699999675154686 0.048961706459522247 -0.0019368348876014352
v -0.048401385545730591 0.010355493985116482 0.018277168273925781
v -0.028699999675154686 0.048347238451242447 -0.0079714721068739891
v -0.048399999737739563 -0.018632594496011734 0.0013506221584975719
v -0.048399999737739563 -0.012959740124642849 0.0070333336479961872
v -0.028400000184774399 0.046704165637493134 -0.013798945583403111
v -0.048399999737739563 -0.013052539899945259 0.013081951066851616
v -0.028400000184774399 0.044641371816396713 -0.019463760778307915
v -0.028699999675154686 0.042152542620897293 -0.024983260780572891
v -0.048400003463029861 -0.013253333047032356 0.019206058233976364
v -0.02826579287648201 0.039449635893106461 -0.02791052870452404
v -0.030456328764557838 0.040059935301542282 -0.029266377910971642
v -0.037940289825201035 -0.027582913637161255 0.034896988421678543
v -0.034144893288612366 -0.031730677932500839 0.03697696328163147
v -0.03387896716594696 -0.026714155450463295 0.040931176394224167
v -0.037925548851490021 -0.015616406686604023 0.041641518473625183
v -0.041856206953525543 -0.018769402056932449 0.035938896238803864
v -0.037301935255527496 -0.021882042288780212 0.039435792714357376
v -0.041890658438205719 -0.023903517052531242 0.032707124948501587
v -0.033831540495157242 -0.017402283847332001 0.045629832893610001
v -0.041919566690921783 -0.02841184101998806 0.028844764456152916
v -0.045479465276002884 -0.025152580812573433 0.027009971439838409
v -0.038053702563047409 -0.032071076333522797 0.030646122992038727
v -0.041821114718914032 -0.032132226973772049 0.024787545204162598
v -0.038051385432481766 -0.035853929817676544 0.026111645624041557
v -0.034258414059877396 -0.040117502212524414 0.027583286166191101
v -0.034221287816762924 -0.036163534969091415 0.032502412796020508
v -0.038069747388362885 -0.038966204971075058 0.021134888753294945
v -0.041839167475700378 -0.035092767328023911 0.020338669419288635
v -0.044679254293441772 -0.03190058097243309 0.020156672224402428
v -0.034245308488607407 -0.043261758983135223 0.022221226245164871
v -0.038079794496297836 -0.041435733437538147 0.0157124362885952
v -0.045544665306806564 -0.035419493913650513 0.010214628651738167
v -0.045374676585197449 -0.033607631921768188 0.015660379081964493
v -0.048601511865854263 -0.031444501131772995 0.011699212715029716
v -0.037948139011859894 -0.043326929211616516 0.0099223321303725243
v -0.037301719188690186 -0.044973570853471756 0.0034812199883162975
v -0.033836960792541504 -0.047675032168626785 0.010574036277830601
v -0.034192536026239395 -0.04583870992064476 0.016436301171779633
v -0.041816085577011108 -0.04039108008146286 0.0040030889213085175
v -0.04197610542178154 -0.039229061454534531 0.0097693605348467827
v -0.041668344289064407 -0.04068605974316597 -0.0017877817153930664
v -0.037928864359855652 -0.044348407536745071 -0.0036817544605582952
v -0.034251824021339417 -0.048268705606460571 -0.0061407196335494518
v -0.033935800194740295 -0.048814389854669571 0.00024086971825454384
v -0.041774917393922806 -0.039956778287887573 -0.0073431255295872688
v -0.038062170147895813 -0.043276142328977585 -0.0097193429246544838
v -0.044542077928781509 -0.037466075271368027 -0.0053427843376994133
v -0.038064245134592056 -0.041544672101736069 -0.015505225397646427
v -0.041960723698139191 -0.038390550762414932 -0.012716049328446388
v -0.045660577714443207 -0.030776889994740486 -0.020072871819138527
v -0.045670468360185623 -0.033588044345378876 -0.01487283781170845
v -0.048956338316202164 -0.02837555855512619 -0.015968877822160721
v -0.037979051470756531 -0.039001207798719406 -0.021272230893373489
v -0.034068729728460312 -0.045079056173563004 -0.01855836994946003
v -0.033506706357002258 -0.03812510147690773 -0.030882786959409714
v -0.033333465456962585 -0.041949331760406494 -0.025391582399606705
v -0.038110781461000443 -0.035184826701879501 -0.026903731748461723
v -0.042008820921182632 -0.036127269268035889 -0.018070526421070099
v -0.041959561407566071 -0.033210158348083496 -0.023081323131918907
v -0.042016454041004181 -0.030305476859211922 -0.026705928146839142
v -0.040458764880895615 -0.029437998309731483 -0.02986329048871994
v -0.036950342357158661 -0.033065233379602432 -0.031351909041404724
v -0.045837994664907455 -0.024245498701930046 -0.027361318469047546
v -0.045306399464607239 -0.027430210262537003 -0.025008682161569595
v -0.04825238510966301 -0.022513378411531448 -0.026113934814929962
v -0.045895576477050781 -0.021774092689156532 -0.029257703572511673
v -0.048686672002077103 -0.016772864386439323 -0.0286581851541996
v -0.045423593372106552 -0.015700202435255051 0.033540386706590652
v -0.044738858938217163 -0.01138994749635458 0.035927318036556244
v -0.048361353576183319 -0.011388887651264668 0.03214331716299057
v -0.04184231162071228 -0.0082643255591392517 0.039708416908979416
v -0.041959993541240692 -0.0027858158573508263 0.040347840636968613
v -0.045356471091508865 -0.0069354469887912273 0.036392979323863983
v -0.034158725291490555 -0.011472510173916817 0.047325916588306427
v -0.038045313209295273 -0.0098353233188390732 0.043244652450084686
v -0.045479509979486465 -0.0013698979746550322 0.036892686039209366
v -0.048524271696805954 -0.0050847865641117096 0.033299461007118225
v -0.038088127970695496 -0.0040123164653778076 0.044123589992523193
v -0.034270286560058594 -0.0053139841184020042 0.048374146223068237
v -0.034327380359172821 0.0009792897617444396 0.048588670790195465
v -0.038110699504613876 0.0019145999103784561 0.044244755059480667
v -0.034324593842029572 0.0072165215387940407 0.048066534101963043
v -0.038098514080047607 0.0078265340998768806 0.04360835999250412
v -0.041919935494661331 0.0084973350167274475 0.039579614996910095
v -0.041792973875999451 0.013900203630328178 0.038153182715177536
v -0.045285992324352264 0.0094955693930387497 0.03591502457857132
v -0.038055580109357834 0.013619179837405682 0.042215954512357712
v -0.044755149632692337 0.014161821454763412 0.034915801137685776
v -0.048539221286773682 0.011159001849591732 0.031849212944507599
v -0.037907179445028305 0.019356423988938332 0.040094204246997833
v -0.037284981459379196 0.025850607082247734 0.036987438797950745
v -0.041725769639015198 0.019085856154561043 0.035915501415729523
v -0.034192152321338654 0.019262837246060371 0.044771987944841385
v -0.033790759742259979 0.025005223229527473 0.041915543377399445
v -0.032775722444057465 0.029886394739151001 0.039126526564359665
v -0.033857192844152451 0.033346608281135559 0.035674218088388443
v -0.041871346533298492 0.023967759683728218 0.032687555998563766
v -0.037950534373521805 0.030558153986930847 0.032274074852466583
v -0.041946101933717728 0.028407923877239227 0.028804106637835503
v -0.041813895106315613 0.032209049910306931 0.02468465268611908
v -0.04535163938999176 0.027101054787635803 0.025308404117822647
v -0.034185774624347687 0.037481166422367096 0.031051388010382652
v -0.038059409707784653 0.034589577466249466 0.027733907103538513
v -0.044635578989982605 0.030614059418439865 0.022105328738689423
v -0.0481267049908638 0.027374215424060822 0.021169187501072884
v -0.038045231252908707 0.037979289889335632 0.02290729433298111
v -0.034211676567792892 0.041171059012413025 0.025968434289097786
v -0.034206632524728775 0.044165689498186111 0.020480431616306305
v -0.038066308945417404 0.040649276226758957 0.01770012266933918
v -0.042004656046628952 0.037390109151601791 0.015300358645617962
v -0.042054284363985062 0.039120819419622421 0.0098657645285129547
v -0.045780882239341736 0.034220170229673386 0.013016803190112114
v -0.034264355897903442 0.046422980725765228 0.01468379981815815
v -0.038095969706773758 0.042619705200195312 0.012121706269681454
v -0.038093917071819305 0.043876092880964279 0.0062654814682900906
v -0.045770511031150818 0.035847876220941544 0.0074588493444025517
v -0.049051113426685333 0.03069782443344593 0.0098690809682011604
v -0.037947703152894974 0.044481411576271057 0.00011290591646684334
v -0.041963662952184677 0.040225036442279816 0.0041554090566933155
v -0.034266255795955658 0.048597618937492371 0.0022879405878484249
v -0.033937633037567139 0.048641473054885864 -0.0041079707443714142
v -0.041720982640981674 0.040643084794282913 -0.0016908610705286264
v -0.037283871322870255 0.044567808508872986 -0.0070766075514256954
v -0.032862961292266846 0.048211447894573212 -0.0096996091306209564
v -0.03383839875459671 0.046687621623277664 -0.014315411448478699
v -0.041723866015672684 0.040008783340454102 -0.0073572057299315929
v -0.037949617952108383 0.042401399463415146 -0.0133287338539958
v -0.041989982128143311 0.038338012993335724 -0.012782376259565353
v -0.042275164276361465 0.035961449146270752 -0.017804872244596481
v -0.045479383319616318 0.034690462052822113 -0.012658783234655857
v -0.045610338449478149 0.032469376921653748 -0.017280571162700653
v -0.04822162538766861 0.031725816428661346 -0.013475237414240837
v -0.038284379988908768 0.03985774889588356 -0.01886940561234951
v -0.03426535427570343 0.044364631175994873 -0.020000210031867027
v -0.034749779850244522 0.041232749819755554 -0.025313420221209526
v -0.038957130163908005 0.036020461469888687 -0.024207016453146935
v -0.034909453243017197 0.03732265904545784 -0.030661873519420624
v -0.03855031356215477 0.032640211284160614 -0.029251245781779289
v -0.042996197938919067 0.033154115080833435 -0.021323304623365402
v -0.042212150990962982 0.030837072059512138 -0.025819620117545128
v -0.040747262537479401 0.029607221484184265 -0.029254438355565071
v -0.043282546103000641 0.02627209760248661 -0.028978914022445679
v -0.045661374926567078 0.029700169339776039 -0.021677687764167786
v -0.048513356596231461 0.02500288188457489 -0.02272399328649044
v -0.048566848039627075 0.02877177856862545 -0.017399290576577187
v -0.04644673690199852 0.024072287604212761 -0.026719290763139725
v -0.045299675315618515 0.027160555124282837 -0.025297680869698524
v -0.04852750152349472 0.021082848310470581 -0.026329465210437775
v -0.045980136841535568 0.021009759977459908 -0.02969307079911232
v -0.048986513167619705 0.016124008223414421 -0.028298599645495415
v -0.04538315162062645 0.036257963627576828 -0.0075302901677787304
v -0.048522539436817169 0.032533690333366394 -0.008825366385281086
v -0.048534002155065536 0.033637158572673798 -0.0025166941341012716
v -0.0447583869099617 0.037545975297689438 -0.0031060806941241026
v -0.048866529017686844 0.032464727759361267 0.0040649403817951679
v -0.045511286705732346 0.03689294308423996 0.0017705177888274193
v -0.034319177269935608 0.047859456390142441 0.0085524842143058777
v -0.048941522836685181 0.02862350270152092 0.01567382737994194
v -0.045428056269884109 0.032222960144281387 0.018171101808547974
v -0.041831310838460922 0.035148598253726959 0.020262755453586578
v -0.045644469559192657 0.022682635113596916 0.028916528448462486
v -0.048767641186714172 0.022122258320450783 0.02455548569560051
v -0.048920802772045135 0.016820816323161125 0.027977133169770241
v -0.048216212540864944 0.0058428035117685795 0.033903714269399643
v -0.045493114739656448 0.017915287986397743 0.032281205058097839
v -0.034239571541547775 0.013336112722754478 0.046746030449867249
v -0.048552516847848892 0.00070960831362754107 0.03362925723195076
v -0.045392706990242004 0.0041833948343992233 0.036777511239051819
v -0.041971452534198761 0.0029027007985860109 0.04032532125711441
v -0.041817307472229004 -0.013494720682501793 0.038268782198429108
v -0.048609800636768341 -0.017137011513113976 0.028699304908514023
v -0.032853491604328156 -0.021952070295810699 0.044004347175359726
v -0.048782583326101303 -0.021874280646443367 0.024824505671858788
v -0.045615974813699722 -0.020643923431634903 0.030466679483652115
v -0.045223981142044067 -0.02893480472266674 0.023315053433179855
v -0.048091080039739609 -0.026279978454113007 0.022576486691832542
v -0.048206951469182968 -0.029307041317224503 0.018042020499706268
v -0.041967809200286865 -0.037436015903949738 0.01528072077780962
v -0.048579167574644089 -0.033036664128303528 0.0059529878199100494
v -0.045488052070140839 -0.036630157381296158 0.0046030841767787933
v -0.048517033457756042 -0.033682022243738174 0.00018061675655189902
v -0.04531676322221756 -0.03583584725856781 -0.0097134793177247047
v -0.048024624586105347 -0.034551817923784256 -0.0055179526098072529
v -0.048800632357597351 -0.03138713538646698 -0.010477324947714806
v -0.045185856521129608 -0.037175733596086502 -0.00093558442313224077
v -0.032863263040781021 -0.048827733844518661 0.0058529442176222801
v -0.034251011908054352 -0.047102782875299454 -0.012407870963215828
v -0.048757556825876236 -0.025299089029431343 -0.021299576386809349
v -0.04383392259478569 -0.025985214859247208 -0.028487725183367729
v -0.031603686511516571 0.011985801160335541 -0.063000001013278961
v -0.036798730492591858 0.0061761103570461273 -0.063000157475471497
v -0.038209673017263412 0.011871284805238247 -0.062992334365844727
v -0.036388281732797623 -0.01574515737593174 -0.063000522553920746
v -0.031141437590122223 -0.011210857890546322 -0.06299997866153717
v -0.030788283795118332 -0.017074024304747581 -0.062951043248176575
v -0.035833146423101425 -0.021833615377545357 -0.063688285648822784
v -0.030201626941561699 -0.022174479439854622 -0.062970049679279327
v -0.030309192836284637 -0.026752876117825508 -0.063497141003608704
v -0.03332529217004776 -0.024964680895209312 -0.063481360673904419
v -0.036270223557949066 0.00067817681701853871 -0.063000209629535675
v -0.040267277508974075 -0.0040568215772509575 -0.062959484755992889
v -0.041266791522502899 0.0013617420336231589 -0.062982954084873199
v -0.045477259904146194 -0.0026361080817878246 -0.063350431621074677
v -0.045620769262313843 0.0031842484604567289 -0.0632781982421875
v -0.041405286639928818 0.0061595235019922256 -0.062991335988044739
v -0.044337451457977295 0.009044228121638298 -0.063335128128528595
v -0.04244600236415863 0.014668887481093407 -0.063212908804416656
v -0.037996776401996613 0.01723228394985199 -0.062996804714202881
v -0.040769416838884354 0.019041301682591438 -0.06281542032957077
v -0.036524590104818344 0.022135132923722267 -0.063426829874515533
v -0.031995352357625961 0.023468561470508575 -0.063007019460201263
v -0.032511536031961441 0.018454119563102722 -0.063016757369041443
v 0.0029990975745022297 0.021992851048707962 -0.063000142574310303
v -0.0019793624524027109 0.022911315783858299 -0.06300017237663269
v 0.0039497050456702709 0.027478570118546486 -0.062995344400405884
v -0.026526773348450661 0.024198919534683228 -0.062986679375171661
v -0.030994722619652748 0.027108859270811081 -0.063226945698261261
v -0.025713246315717697 0.030052095651626587 -0.063156679272651672
v -0.033954571932554245 0.02520444430410862 -0.063255771994590759
v -0.031061340123414993 -0.0053449939005076885 -0.063000507652759552
v -0.037483394145965576 -0.0093319062143564224 -0.062957823276519775
v -0.035437002778053284 -0.0038964096456766129 -0.063003495335578918
v -0.019271241500973701 0.0058200000785291195 -0.063000001013278961
v -0.025236062705516815 -5.910227628191933e-05 -0.063000001013278961
v -0.025237908586859703 0.0058533335104584694 -0.063000001013278961
v 0.016668932512402534 0.010997687466442585 -0.063000179827213287
v 0.010622905567288399 0.01161903515458107 -0.063000403344631195
v 0.016150029376149178 0.016917010769248009 -0.062932372093200684
v 0.012231732718646526 -0.024346534162759781 -0.062983967363834381
v 0.011174208484590054 -0.018325498327612877 -0.063000001013278961
v 0.017834773287177086 -0.018833694979548454 -0.06300625205039978
v -0.0012712413445115089 0.0058200000785291195 -0.063000001013278961
v -0.0072712413966655731 0.0058200000785291195 -0.063000001013278961
v -0.0013550666626542807 0.011772651225328445 -0.063000001013278961
v 0.0047258976846933365 0.0058220112696290016 -0.063000001013278961
v 0.0046216687187552452 0.011787761934101582 -0.063000001013278961
v 0.0047287587076425552 -0.0061800000257790089 -0.063000001013278961
v -0.0012712413445115089 -0.0061800000257790089 -0.063000001013278961
v 0.0047287587076425552 -0.00017999994452111423 -0.063000001013278961
v 0.010699748992919922 -0.00029440075741149485 -0.063000001013278961
v 0.010753420181572437 0.0056637502275407314 -0.063000001013278961
v -0.0072712413966655731 -0.0061800000257790089 -0.063000001013278961
v -0.013188492506742477 -0.012207500636577606 -0.063000001013278961
v -0.013271241448819637 -0.0061800000257790089 -0.063000001013278961
v -0.0072712413966655731 -0.00017999994452111423 -0.063000001013278961
v -0.0010105704423040152 -0.023470617830753326 -0.063000001013278961
v -0.0068609421141445637 -0.023149145767092705 -0.063000194728374481
v -0.0011973746586591005 -0.017958614975214005 -0.063000001013278961
v 0.016913499683141708 -0.012503280304372311 -0.063000008463859558
v 0.016578538343310356 -0.0064092334359884262 -0.063000001013278961
v 0.022265393286943436 -0.006844185758382082 -0.063000001013278961
v -0.013463246636092663 0.017686666920781136 -0.063000001013278961
v -0.019271241500973701 0.011819999665021896 -0.063000001013278961
v -0.019461046904325485 0.017729019746184349 -0.063000001013278961
v -0.007304574828594923 0.011786666698753834 -0.063000001013278961
v -0.013271241448819637 0.0058200000785291195 -0.063000001013278961
v -0.013271241448819637 -0.00017999994452111423 -0.063000001013278961
v -0.019271241500973701 -0.00017999994452111423 -0.063000001013278961
v -0.01926768571138382 -0.0061767962761223316 -0.063000001013278961
v -0.025276204571127892 -0.0059859510511159897 -0.063000001013278961
v -0.025199014693498611 -0.011887909844517708 -0.063000001013278961
v -0.025365173816680908 0.011881533078849316 -0.063000001013278961
v -0.025738732889294624 0.017944850027561188 -0.063000060617923737
v -0.013271241448819637 0.011819999665021896 -0.063000001013278961
v -0.044058296829462051 -0.0085103921592235565 -0.063492164015769958
v -0.024764521047472954 -0.023262899369001389 -0.062961071729660034
v -0.024845227599143982 -0.028980839997529984 -0.063693694770336151
v -0.031133430078625679 0.0059915697202086449 -0.063000001013278961
v -0.030913418158888817 0.00030501635046675801 -0.063000001013278961
v -0.042074989527463913 -0.014268066734075546 -0.063415981829166412
v -0.040324259549379349 -0.018981808796525002 -0.063035130500793457
v -0.020432082936167717 0.032701388001441956 -0.062683038413524628
v -0.020015202462673187 0.028447313234210014 -0.063020944595336914
v -0.024994317442178726 -0.017669672146439552 -0.063000842928886414
v -0.0032020059879869223 0.027997730299830437 -0.062990747392177582
v -0.01993972435593605 0.023267008364200592 -0.063000187277793884
v 0.010174496099352837 0.017367195338010788 -0.06300199031829834
v 0.0042308792471885681 0.017504386603832245 -0.063000723719596863
v -0.01921883225440979 -0.012153800576925278 -0.063000001013278961
v -0.017959807068109512 -0.024433787912130356 -0.06294066458940506
v -0.018985247239470482 -0.018066776916384697 -0.063002057373523712
v -0.01521641481667757 0.027286829426884651 -0.062993168830871582
v -0.0097139487043023109 0.028038142248988152 -0.062998831272125244
v -0.014049037359654903 0.023087706416845322 -0.063000038266181946
v -0.0065384549088776112 -0.02814050018787384 -0.062986902892589569
v -0.00035585716250352561 -0.028442498296499252 -0.062985934317111969
v -0.012495654635131359 -0.027250258252024651 -0.062959715723991394
v -0.012824542820453644 -0.017996884882450104 -0.063000567257404327
v -0.011643273755908012 -0.022354099899530411 -0.0630030557513237
v -0.018505431711673737 -0.031164657324552536 -0.063506007194519043
v -0.0080518107861280441 0.023135356605052948 -0.063000001013278961
v 0.016591446474194527 0.0050620040856301785 -0.063000492751598358
v 0.023218374699354172 0.009209904819726944 -0.062948346138000488
v -0.0074966750107705593 0.017623273655772209 -0.063000001013278961
v -0.0069586378522217274 -0.017822271212935448 -0.063000001013278961
v -0.0071815471164882183 -0.012147467583417892 -0.063000001013278961
v 0.014864741824567318 0.021562755107879639 -0.062939122319221497
v -0.0016431756084784865 0.017465256154537201 -0.063000001013278961
v -0.0012712413445115089 -0.00017999994452111423 -0.063000001013278961
v 0.0059524970129132271 -0.028806859627366066 -0.063030943274497986
v -0.0012379080289974809 -0.012146666646003723 -0.063000001013278961
v 0.0093645034357905388 0.023473607376217842 -0.06294790655374527
v 0.01641179621219635 -0.00063513545319437981 -0.063000001013278961
v 0.010695424862205982 -0.0062133334577083588 -0.063000001013278961
v 0.005262929480522871 -0.023734785616397858 -0.063000001013278961
v 0.0048451931215822697 -0.018111955374479294 -0.063000001013278961
v 0.0047287587076425552 -0.012179999612271786 -0.063000001013278961
v 0.021035987883806229 0.0036324677057564259 -0.063004054129123688
v 0.010804946534335613 -0.012256008572876453 -0.063000001013278961
v 0.022045014426112175 0.015773031860589981 -0.062986806035041809
v 0.022767513990402222 -0.012806883081793785 -0.063002191483974457
v 0.027539703994989395 -0.0077827381901443005 -0.062998116016387939
v 0.023478763177990913 -0.017503488808870316 -0.062996558845043182
v 0.017162958160042763 -0.023266864940524101 -0.063012920320034027
v 0.021859917789697647 -0.0010646021692082286 -0.063001178205013275
v 0.026076987385749817 0.0038442423101514578 -0.062948077917098999
v 0.027139218524098396 -0.0018700840882956982 -0.062971293926239014
v -0.048412278294563293 0.0038125468418002129 0.028824916109442711
v -0.021315734833478928 -0.034537848085165024 -0.043172992765903473
v -0.04839986190199852 -0.0018050572834908962 0.024093035608530045
v -0.030033363029360771 -0.033026482909917831 -0.039172675460577011
v -0.02958126924932003 -0.035128273069858551 -0.036052610725164413
v -0.017727140337228775 0.035383384674787521 -0.058820497244596481
v -0.024752641096711159 0.033641807734966278 -0.059293478727340698
v -0.030816439539194107 0.030836597084999084 -0.059712212532758713
v -0.034276407212018967 0.027986545115709305 -0.054757259786128998
v -0.036206610500812531 0.026739131659269333 -0.060489747673273087
v -0.038949929177761078 0.023805616423487663 -0.054881598800420761
v -0.040893673896789551 0.022321116179227829 -0.059922937303781509
v -0.042627282440662384 0.019151873886585236 -0.055037315934896469
v -0.045378517359495163 0.014111771248281002 -0.055018261075019836
v -0.044268276542425156 0.017475033178925514 -0.059786222875118256
v -0.046730909496545792 0.012081007473170757 -0.059889007359743118
v -0.047321710735559464 0.0084211546927690506 -0.054786864668130875
v -0.046643659472465515 0.010978413745760918 -0.048831842839717865
v -0.048217467963695526 -0.0033689511474221945 -0.055108517408370972
v -0.048372328281402588 -0.0013809974770992994 -0.049827009439468384
v -0.048277866095304489 0.0024416828528046608 -0.054886490106582642
v -0.047209620475769043 -0.0089613869786262512 -0.055025998502969742
v -0.046623479574918747 -0.011102994903922081 -0.049126792699098587
v -0.047849591821432114 -0.0061496407724916935 -0.050840865820646286
v -0.045254789292812347 -0.01441366970539093 -0.054799243807792664
v -0.042307280004024506 -0.019636373966932297 -0.054675232619047165
v -0.044248256832361221 -0.016599288210272789 -0.049410775303840637
v -0.037892699241638184 -0.024910971522331238 -0.054415687918663025
v -0.03569638729095459 -0.027037197723984718 -0.060739248991012573
v -0.033380232751369476 -0.028663508594036102 -0.056263986974954605
v -0.030363107100129128 -0.030878199264407158 -0.060231640934944153
v -0.024346765130758286 -0.033607296645641327 -0.059827107936143875
v -0.017253167927265167 -0.035362955182790756 -0.059110637754201889
v -0.046630296856164932 -0.012305726297199726 -0.059939134865999222
v -0.044090218842029572 -0.0177887212485075 -0.059762362390756607
v -0.041072007268667221 -0.021468963474035263 -0.049024723470211029
v -0.048265408724546432 -0.0063428711146116257 -0.059954002499580383
v -0.04810778796672821 0.0044901305809617043 -0.049339510500431061
v -0.048345517367124557 0.0060576610267162323 -0.05985720083117485
v -0.048870757222175598 -0.00017585365276318043 -0.059864040464162827
v -0.037400461733341217 0.025527860969305038 -0.049339476972818375
v -0.037211395800113678 -0.025740955024957657 -0.048314571380615234
v -0.040531475096940994 -0.022758172824978828 -0.059918928891420364
v -0.044412117451429367 0.016199907287955284 -0.050890948623418808
v -0.041742701083421707 0.02053973451256752 -0.049061484634876251
v -0.033429089933633804 -0.030866678804159164 -0.041841849684715271
v -0.034182175993919373 -0.033657822757959366 -0.036018908023834229
v -0.030463799834251404 -0.037229981273412704 -0.033074036240577698
v -0.030031051486730576 -0.038544245064258575 -0.031140146777033806
v -0.046185057610273361 -0.014472860842943192 -0.040196847170591354
v -0.043476618826389313 -0.018757091835141182 -0.043136343359947205
v -0.044518299400806427 -0.018620049580931664 -0.036611888557672501
v -0.045658096671104431 -0.014295562170445919 -0.045197729021310806
v -0.047334544360637665 -0.014559656381607056 -0.034566581249237061
v -0.045691795647144318 -0.018709002062678337 -0.032118983566761017
v -0.039698895066976547 -0.023768004029989243 -0.043647594749927521
v -0.041166447103023529 -0.023122569546103477 -0.038004636764526367
v -0.036297235637903214 -0.027227617800235748 -0.043954767286777496
v -0.038722530007362366 -0.028252556920051575 -0.034235693514347076
v -0.037279333919286728 -0.02757556177675724 -0.039411149919033051
v -0.042796958237886429 -0.023428047075867653 -0.032405901700258255
v 0.027242548763751984 0.014996377751231194 -0.050436347723007202
v 0.021138902753591537 -0.0038051819428801537 -0.049504201859235764
v 0.015955934301018715 0.0018105390481650829 -0.048846349120140076
v 0.015813026577234268 -0.0039385538548231125 -0.048828210681676865
v 0.0041949339210987091 0.0016275342786684632 -0.047353584319353104
v -0.0018351272447034717 0.001227634260430932 -0.046588215976953506
v 0.0041949339210987091 -0.0043644397519528866 -0.047353584319353104
v 0.025250114500522614 -0.0094289295375347137 -0.050026018172502518
v 0.022479930892586708 -0.014741361141204834 -0.049674410372972488
v 0.010176685638725758 0.0017359975026920438 -0.048112817108631134
v 0.020362876355648041 -0.0084959184750914574 -0.049405705183744431
v 0.015935041010379791 -0.0097769638523459435 -0.048843696713447571
v -0.0018681952496990561 -0.01069087628275156 -0.04658401757478714
v -0.0078275119885802269 -0.0059207426384091377 -0.045822963118553162
v -0.0077627710998058319 -0.01184674259275198 -0.045836038887500763
v -0.0019162410171702504 -0.016557324677705765 -0.046577919274568558
v -0.0076075145043432713 -0.017610169947147369 -0.045849032700061798
v -0.0023057349026203156 -0.028647506609559059 -0.046528484672307968
v -0.0020239523146301508 -0.022486809641122818 -0.046564247459173203
v -0.0078716184943914413 -0.023380005732178688 -0.045821923762559891
v 0.015622162260115147 -0.016042385250329971 -0.048803985118865967
v 0.010087032802402973 -0.010226454585790634 -0.048101440072059631
v 0.0095403427258133888 -0.016183719038963318 -0.048032049089670181
v -0.013577357865869999 -0.024176847189664841 -0.045183438807725906
v -0.0089605655521154404 -0.029888072982430458 -0.045760177075862885
v 0.0041949339210987091 0.0076195085421204567 -0.047353584319353104
v -0.0018351272447034717 0.0072035565972328186 -0.046588215976953506
v -0.014887843281030655 -0.02977818064391613 -0.044953256845474243
v 0.026678700000047684 0.0023803780786693096 -0.050207413733005524
v 0.021646672859787941 0.0080013759434223175 -0.049568649381399155
v 0.021501876413822174 0.0019316483521834016 -0.049550272524356842
v -0.01528872549533844 -0.034700583666563034 -0.044880613684654236
v 0.0082265287637710571 -0.020802758634090424 -0.047865293920040131
v 0.0037961851339787245 -0.016059510409832001 -0.0473029725253582
v 0.010175026953220367 -0.0042004408314824104 -0.04811260849237442
v 0.010472019203007221 0.019800825044512749 -0.048150304704904556
v 0.010221105068922043 0.013731695711612701 -0.048118457198143005
v 0.016137637197971344 0.013811103999614716 -0.048869412392377853
v 0.0041949339210987091 0.013611482456326485 -0.047353584319353104
v -0.0018352046608924866 0.013179478235542774 -0.046588242053985596
v 0.022442225366830826 0.019966986030340195 -0.049669750034809113
v 0.021848516538739204 0.014105014503002167 -0.049591012299060822
v 0.016051772981882095 0.0077507137320935726 -0.048858512192964554
v 0.0043695452623069286 0.019573062658309937 -0.047375746071338654
v 0.017860285937786102 0.025203242897987366 -0.049088060855865479
v 0.00059671216877177358 0.030226031318306923 -0.046832650899887085
v 0.0057174596004188061 0.030060408636927605 -0.047464568167924881
v -0.0065904427319765091 0.030511248856782913 -0.045953992754220963
v -0.013694869354367256 0.028606325387954712 -0.045037329196929932
v -0.048399787396192551 0.0031370045617222786 0.023230317980051041
v 0.004981516394764185 0.025316869840025902 -0.047453422099351883
v -0.013560502789914608 0.01539066806435585 -0.045187760144472122
v -0.0078278733417391777 0.011934789828956127 -0.045822124928236008
v -0.0077958414331078529 0.017944697290658951 -0.045827008783817291
v 0.011148645542562008 0.026475392282009125 -0.048236183822154999
v -0.013563639484345913 0.021532882004976273 -0.04518701508641243
v -0.0075728180818259716 0.024099173024296761 -0.045859843492507935
v -0.0011614427203312516 0.025036679580807686 -0.046673722565174103
v 0.016573114320635796 0.019842071458697319 -0.048924684524536133
v -0.0017242415342479944 0.019166579470038414 -0.046602290123701096
v 0.026682427152991295 0.0087956245988607407 -0.050220411270856857
v 0.026130994781851768 -0.0036813733167946339 -0.050133191049098969
v -0.013561186380684376 0.0094207609072327614 -0.045187704265117645
v -0.013561186380684376 0.0034769426565617323 -0.045187704265117645
v -0.0078282123431563377 0.0059829363599419594 -0.04582773894071579
v 0.010209754109382629 0.0077026640065014362 -0.048117015510797501
v -0.0078278733417391777 3.1101681088330224e-05 -0.045822124928236008
v -0.0018351987237110734 -0.0047482876107096672 -0.046588204801082611
v -0.013561192899942398 -0.0024668753612786531 -0.045187633484601974
v 0.020582295954227448 -0.021521920338273048 -0.049356464296579361
v 0.013971839100122452 -0.023135144263505936 -0.04859451949596405
v -0.012236394919455051 -0.019299866631627083 -0.045409809798002243
v -0.013505976647138596 -0.0084308004006743431 -0.045198392122983932
v 0.0040864842012524605 -0.01032722182571888 -0.047339819371700287
v 0.0089682601392269135 -0.026431476697325706 -0.04795943945646286
v 0.0035318222362548113 -0.027861358597874641 -0.047269418835639954
v 0.0036300092469900846 -0.021752435714006424 -0.047281879931688309
v -0.013177130371332169 -0.014334328472614288 -0.045259341597557068
v -0.028399994596838951 0.024716092273592949 0.025958534330129623
v -0.028400154784321785 0.025355761870741844 0.032392021268606186
v -0.028400000184774399 0.019732223823666573 0.02696756087243557
v -0.028326490893959999 0.020060176029801369 0.038067236542701721
v -0.028399994596838951 0.018740611150860786 0.031820476055145264
v -0.02839994803071022 0.0076584895141422749 0.033456794917583466
v -0.028400000184774399 0.013697650283575058 0.03323967382311821
v -0.028411246836185455 0.012193868868052959 0.039991173893213272
v -0.028328143060207367 0.0012804559664800763 0.044018592685461044
v -0.028417693451046944 0.0016506856773048639 0.038758352398872375
v -0.028230182826519012 0.0067775310017168522 0.042949754744768143
v -0.02840464748442173 0.0062836366705596447 0.03791423887014389
v -0.028343256562948227 -0.0035560883115977049 0.04442070797085762
v -0.028399994596838951 -0.0095761576667428017 0.041097428649663925
v -0.028399992734193802 -0.027903765439987183 0.034170918166637421
v -0.028407761827111244 -0.022580666467547417 0.039334584027528763
v -0.028446638956665993 -0.034084826707839966 0.028822042047977448
v -0.028400000184774399 -0.016549291089177132 0.040096167474985123
v -0.028400000184774399 0.0023380592465400696 0.015699999406933784
v -0.028400000184774399 0.0083047263324260712 0.021666666492819786
v -0.028400000184774399 0.0023380592465400696 0.021700000390410423
v -0.028400000184774399 -0.015808012336492538 0.034018825739622116
v -0.028400000184774399 -0.0096635259687900543 0.033943239599466324
v -0.028394268825650215 -0.033523917198181152 0.02260698564350605
v -0.028400000184774399 -0.027678530663251877 0.021915128454566002
v -0.028401089832186699 -0.02777322381734848 0.028024155646562576
v -0.028454048559069633 -0.039420697838068008 0.018354972824454308
v -0.028353864327073097 -0.038346946239471436 0.023444566875696182
v -0.028400000184774399 -0.027619168162345886 -0.0022042170166969299
v -0.028400000184774399 -0.027628606185317039 0.003733333433046937
v -0.028400000184774399 -0.033275596797466278 -0.0019575795158743858
v -0.028400646522641182 -0.033809710294008255 0.016425011679530144
v -0.028400011360645294 -0.027722354978322983 0.015807729214429855
v -0.028400000184774399 -0.021661940962076187 0.0037000000011175871
v -0.028400000184774399 -0.021661940962076187 0.0097000002861022949
v -0.028399989008903503 -0.033524468541145325 0.0038341365288943052
v -0.028414912521839142 -0.038687482476234436 -0.0018755916971713305
v -0.028400000184774399 -0.021661940962076187 -0.0023000000510364771
v -0.028400897979736328 -0.039408117532730103 0.0040638744831085205
v -0.028321126475930214 -0.044002015143632889 -0.0019603266846388578
v -0.028400575742125511 -0.027370402589440346 -0.013910373672842979
v -0.028399892151355743 -0.033136017620563507 -0.013600310310721397
v -0.028370440006256104 -0.03214607760310173 -0.018479771912097931
v -0.028400007635354996 -0.015391028486192226 -0.019980765879154205
v -0.028400000184774399 -0.015622898004949093 -0.014214814640581608
v -0.028400015085935593 -0.02143951877951622 -0.019927013665437698
v -0.029042907059192657 -0.034345194697380066 -0.024994742125272751
v -0.028367482125759125 -0.037714365869760513 -0.019202806055545807
v -0.028400000184774399 0.013984025456011295 0.02731773816049099
v -0.028400000184774399 -0.038362674415111542 -0.029999999329447746
v -0.028386019170284271 -0.031727250665426254 -0.030143208801746368
v -0.028347447514533997 0.037168979644775391 -0.026892427355051041
v -0.028220618143677711 0.037526119500398636 -0.03018246591091156
v -0.028400000184774399 -0.0096565252169966698 0.027740238234400749
v -0.028400000184774399 -0.0037745009176433086 0.033566232770681381
v -0.028400000184774399 0.014304725453257561 0.015666667371988297
v -0.028400000184774399 0.019990252330899239 0.021326230838894844
v -0.028400000184774399 0.014191030524671078 0.021551234647631645
v -0.028400000184774399 0.0081598805263638496 0.027623929083347321
v -0.028400000184774399 -0.0036619405727833509 0.015699999406933784
v -0.028400000184774399 -0.0036619405727833509 0.021700000390410423
v -0.028400000184774399 0.02597784623503685 0.015356400981545448
v -0.028399946168065071 0.030562164261937141 0.020085204392671585
v -0.028399825096130371 0.025762477889657021 0.021117134019732475
v -0.028400000184774399 0.026299519464373589 0.0036092062946408987
v -0.028400000184774399 0.026247043162584305 0.0095458421856164932
v -0.028400000184774399 0.020338058471679688 0.0037000000011175871
v -0.028400000184774399 0.0203047264367342 0.0096666663885116577
v -0.028400002047419548 0.020211841911077499 0.015563718974590302
v -0.028400000184774399 0.032118994742631912 0.0091553190723061562
v -0.028400000184774399 0.014338059350848198 -0.0023000000510364771
v -0.028400000184774399 0.014338059350848198 0.0037000000011175871
v -0.028400000184774399 0.0083380592986941338 -0.0023000000510364771
v -0.028400013223290443 0.032533854246139526 -0.014553133398294449
v -0.028400000184774399 0.026386084035038948 -0.014233318157494068
v -0.02839999832212925 0.026592826470732689 -0.020063376054167747
v -0.028341243043541908 0.04324374720454216 -0.010136289522051811
v -0.028400953859090805 0.039435315877199173 -0.015552629716694355
v -0.028432216495275497 0.038059968501329422 -0.022180018946528435
v -0.0283986646682024 0.032739058136940002 -0.025985609740018845
v -0.028400000184774399 -0.015671027824282646 0.027785981073975563
v -0.028401186689734459 -0.0038289912045001984 0.039397109299898148
v -0.028400002047419548 -0.021997414529323578 0.033834237605333328
v -0.028400000184774399 0.0019074487499892712 0.033337961882352829
v -0.028400000184774399 -0.015661939978599548 0.015699999406933784
v -0.028400000184774399 -0.0096619408577680588 0.021700000390410423
v -0.028400000184774399 -0.015661939978599548 0.021700000390410423
v -0.028400000184774399 -0.021731387823820114 0.027777556329965591
v -0.028400000184774399 -0.0096619408577680588 0.015699999406933784
v -0.028400000184774399 0.0022278365213423967 0.027663027867674828
v -0.028400000184774399 -0.0036952740047127008 0.027666667476296425
v -0.028365110978484154 0.031903259456157684 0.027009164914488792
v -0.028401663526892662 -0.040786836296319962 0.011141208931803703
v -0.028400000184774399 -0.015661939978599548 0.0097000002861022949
v -0.028400000184774399 -0.021661940962076187 0.021700000390410423
v -0.028400000184774399 0.0023380592465400696 0.0097000002861022949
v -0.028400000184774399 0.0083380592986941338 0.015699999406933784
v -0.028399752452969551 0.036354675889015198 0.020934641361236572
v -0.028400005772709846 0.038703452795743942 0.014247196726500988
v -0.028400000184774399 -0.027559787034988403 -0.008131091482937336
v -0.028399702161550522 -0.033334646373987198 -0.0077381208539009094
v -0.028400000184774399 -0.021661940962076187 0.015699999406933784
v -0.028400000184774399 -0.0096619408577680588 0.0037000000011175871
v -0.028400000184774399 -0.0096619408577680588 0.0097000002861022949
v -0.028400000184774399 -0.015661939978599548 0.0037000000011175871
v -0.028400000184774399 0.03184150904417038 0.015107430517673492
v -0.028360573574900627 -0.044996779412031174 0.0041618659161031246
v -0.028400013223290443 -0.033858597278594971 0.010024387389421463
v -0.028400000184774399 -0.0096619408577680588 -0.0023000000510364771
v -0.028400000184774399 -0.015661939978599548 -0.0023000000510364771
v -0.028400000184774399 -0.027695128694176674 0.0097259646281599998
v -0.028400000184774399 -0.0036619405727833509 -0.0023000000510364771
v -0.028400000184774399 -0.0036619405727833509 0.0037000000011175871
v -0.028400000184774399 0.0083380592986941338 0.0097000002861022949
v -0.028400000184774399 -0.0036619405727833509 0.0097000002861022949
v -0.028400000184774399 0.026304725557565689 -0.0023333332501351833
v -0.028399994596838951 0.032048691064119339 0.0032849004492163658
v -0.028400009498000145 0.036830626428127289 0.0077759344130754471
v -0.028400000184774399 0.014338059350848198 0.0097000002861022949
v -0.028357692062854767 0.042879141867160797 0.0081864157691597939
v -0.028400000184774399 0.0083380592986941338 0.0037000000011175871
v -0.028400000184774399 0.014338059350848198 -0.0082999998703598976
v -0.028400000184774399 0.0083380592986941338 -0.0082999998703598976
v -0.028400000184774399 0.0023380592465400696 0.0037000000011175871
v -0.028371315449476242 0.043404243886470795 0.0010155816562473774
v -0.028400642797350883 0.037732761353254318 0.0027139971498399973
v -0.028400000184774399 -0.0036301612854003906 -0.014214814640581608
v -0.028400000184774399 -0.0036619405727833509 -0.0082999998703598976
v -0.028400000184774399 -0.0096265301108360291 -0.014214814640581608
v -0.028400000184774399 0.0023380592465400696 -0.0023000000510364771
v -0.028400000184774399 0.01435894425958395 -0.014214814640581608
v -0.028400000184774399 0.0083625754341483116 -0.014214814640581608
v -0.028399985283613205 0.032196979969739914 -0.0025425644125789404
v -0.028400000184774399 0.020338058471679688 -0.0023000000510364771
v -0.028400318697094917 0.037981890141963959 -0.003282665042206645
v -0.028368072584271431 0.043447740375995636 -0.0050287996418774128
v -0.0282608512789011 -0.042678497731685638 -0.0076357340440154076
v -0.028410408645868301 -0.037758544087409973 -0.0065709548071026802
v -0.028400115668773651 -0.021597364917397499 -0.014147021807730198
v -0.028366206213831902 -0.027436185628175735 -0.019662899896502495
v -0.028400000184774399 -0.02162860706448555 -0.008266666904091835
v -0.028400007635354996 -0.0094019230455160141 -0.019980765879154205
v -0.028400000184774399 -0.015661939978599548 -0.0082999998703598976
v -0.028400000184774399 0.0023662070743739605 -0.014214814640581608
v -0.028400007635354996 -0.0034128178376704454 -0.019980765879154205
v -0.028400000184774399 -0.0096619408577680588 -0.0082999998703598976
v -0.028400007635354996 0.0085653932765126228 -0.019980765879154205
v -0.028400000184774399 0.0023380592465400696 -0.0082999998703598976
v -0.028400000184774399 0.020355312153697014 -0.014214814640581608
v -0.028400007635354996 0.014554498717188835 -0.019980765879154205
v -0.028400000184774399 0.020338058471679688 -0.0082999998703598976
v -0.028399990871548653 0.038214400410652161 -0.0092494171112775803
v -0.028400000184774399 0.026338059455156326 -0.0082999998703598976
v -0.028399994596838951 0.032331541180610657 -0.0085222823545336723
v -0.028408266603946686 -0.039640430361032486 -0.012726494111120701
v -0.028401331976056099 -0.020644053816795349 -0.025495512410998344
v -0.028395902365446091 -0.026965722441673279 -0.025272242724895477
v -0.028299160301685333 -0.025054726749658585 -0.030881999060511589
v -0.028400007635354996 0.0025762876030057669 -0.019980765879154205
v -0.028400253504514694 0.027216300368309021 -0.025618052110075951
v -0.028399981558322906 0.021278940141201019 -0.025536326691508293
v -0.028295274823904037 0.023062542080879211 -0.030953638255596161
v -0.028400007635354996 0.020543603226542473 -0.019980765879154205
v -0.028400449082255363 0.032625436782836914 -0.020570771768689156
v -0.028282409533858299 -0.01874944195151329 -0.031037874519824982
v -0.028399981558322906 -0.0086121140047907829 -0.025536326691508293
v -0.028279049322009087 -0.012723343446850777 -0.031064903363585472
v -0.028279049322009087 -0.006748763844370842 -0.031064903363585472
v -0.028399981558322906 -0.0026339031755924225 -0.025536326691508293
v -0.028279049322009087 -0.00077418424189090729 -0.031064903363585472
v -0.028399981558322906 -0.014590324833989143 -0.025536326691508293
v -0.028399981558322906 0.0033443078864365816 -0.025536326691508293
v -0.028279049322009087 0.0052003953605890274 -0.031064903363585472
v -0.028399981558322906 0.0093225184828042984 -0.025536326691508293
v -0.028279049322009087 0.011174974963068962 -0.031064903363585472
v -0.028399981558322906 0.015300730243325233 -0.025536326691508293
v -0.028279049322009087 0.017149554565548897 -0.031064903363585472
v -0.028326947242021561 0.028714895248413086 -0.030721144750714302
v -0.028388740494847298 0.0338120236992836 -0.030281262472271919
v -0.01902182400226593 0.017496032640337944 -0.043889183551073074
v -0.019200544804334641 0.023537451401352882 -0.043812833726406097
v -0.01900864765048027 -0.00039070117054507136 -0.043894730508327484
v -0.019893400371074677 0.02933415025472641 -0.043473038822412491
v -0.027194155380129814 0.026026505976915359 -0.035925474017858505
v -0.024699181318283081 0.029828688129782677 -0.039890870451927185
v -0.027610365301370621 0.031242296099662781 -0.034945119172334671
v -0.02364688366651535 -0.0050522680394351482 -0.040951661765575409
v -0.02364688366651535 0.00091275962768122554 -0.040951661765575409
v -0.018820310011506081 -0.012447185814380646 -0.043980039656162262
v -0.018994024023413658 -0.0063601941801607609 -0.0439014732837677
v -0.018036497756838799 -0.019220082089304924 -0.044284611940383911
v -0.026948101818561554 -0.021712366491556168 -0.036436591297388077
v -0.023419711738824844 -0.023642100393772125 -0.041160512715578079
v -0.023505175486207008 -0.017261890694499016 -0.041084602475166321
v -0.018868112936615944 -0.025933839380741119 -0.043953906744718552
v -0.02701779268682003 -0.028899133205413818 -0.036253228783607483
v -0.022918457165360451 -0.029476061463356018 -0.041607536375522614
v -0.018810627982020378 -0.030715247616171837 -0.044037926942110062
v -0.048406332731246948 -0.018000071868300438 0.02469290979206562
v -0.028110777959227562 -0.036100178956985474 -0.032931387424468994
v -0.023623649030923843 -0.011061146855354309 -0.040973156690597534
v -0.01900864765048027 0.0055575114674866199 -0.043894730508327484
v -0.02364688366651535 0.0068777874112129211 -0.040951661765575409
v -0.01900864765048027 0.011505723930895329 -0.043894730508327484
v -0.02396593801677227 0.024560054764151573 -0.040646739304065704
v -0.021255383267998695 0.034227214753627777 -0.042778510600328445
v -0.025827312842011452 0.034042570739984512 -0.038397975265979767
v -0.028113769367337227 0.036110613495111465 -0.03291633352637291
v -0.025819579139351845 -0.034048087894916534 -0.038409415632486343
v -0.026947377249598503 -0.0094506070017814636 -0.036438465118408203
v -0.026947377249598503 -0.0034804220777004957 -0.036438465118408203
v -0.026947377249598503 0.0024897630792111158 -0.036438465118408203
v -0.026947377249598503 0.0084599480032920837 -0.036438465118408203
v -0.026947377249598503 0.014430133625864983 -0.036438465118408203
v -0.02364688366651535 0.012842814438045025 -0.040951661765575409
v -0.023692337796092033 0.018783494830131531 -0.040909752249717712
v -0.02694365568459034 -0.015468661673367023 -0.036447841674089432
v -0.026996619999408722 0.020316276699304581 -0.036338519304990768
v -0.025270929560065269 0.033659867942333221 -0.042476590722799301
v -0.048401083797216415 -0.019430240616202354 0.020020881667733192
v -0.015335793606936932 0.03499816358089447 -0.045198611915111542
v -0.028777362778782845 0.033092860132455826 -0.039766263216733932
v -0.029029965400695801 0.035008609294891357 -0.036067917943000793
v -0.048393469303846359 -0.01355899590998888 0.025476653128862381
v -0.047548808157444 0.011539215222001076 -0.036448933184146881
v -0.04829217866063118 0.012138768099248409 -0.03200075775384903
v -0.046575937420129776 0.017280871048569679 -0.034260857850313187
v -0.048413883894681931 -0.0084718745201826096 -0.030999604612588882
v -0.047991614788770676 0.0057453806512057781 -0.043360762298107147
v -0.048399657011032104 -1.7437017959309742e-05 -0.043900471180677414
v -0.048341527581214905 0.0021133071277290583 -0.032952964305877686
v -0.048100415617227554 0.0064247832633554935 -0.037509974092245102
v -0.048364751040935516 0.001102581387385726 -0.038082119077444077
v -0.048407848924398422 0.003901422256603837 -0.027926905080676079
v -0.048497766256332397 0.0096663916483521461 -0.027755407616496086
v -0.048269055783748627 0.0073845707811415195 -0.03244047611951828
v -0.047891158610582352 -0.0062403022311627865 -0.044848024845123291
v -0.048381168395280838 -0.0025122517254203558 -0.033651158213615417
v -0.048195663839578629 -0.0044383564963936806 -0.038147620856761932
v -0.047557618468999863 -0.0098722986876964569 -0.038646109402179718
v -0.046848129481077194 -0.011157659813761711 -0.043517876416444778
v -0.045616768300533295 0.015991313382983208 -0.040180027484893799
v -0.044887647032737732 0.01577901653945446 -0.045919068157672882
v -0.046950727701187134 0.01107428502291441 -0.042036492377519608
v -0.048400435596704483 -0.0018268144922330976 -0.028520572930574417
v -0.048411004245281219 -0.024482984095811844 0.019593382254242897
v -0.039266578853130341 0.028522323817014694 -0.032744064927101135
v -0.036030903458595276 0.032711196690797806 -0.033198650926351547
v -0.032609090209007263 0.034437917172908783 -0.036222811788320541
v -0.035885415971279144 0.03015468455851078 -0.037513464689254761
v -0.035776209086179733 0.02793017216026783 -0.043744422495365143
v -0.040058508515357971 0.023219473659992218 -0.043770071119070053
v -0.039317458868026733 0.025476908311247826 -0.038153771311044693
v -0.043101828545331955 0.019241122528910637 -0.043457090854644775
v -0.042599141597747803 0.022830285131931305 -0.033541198819875717
v -0.032302811741828918 0.03170420229434967 -0.041610818356275558
v -0.042803704738616943 0.020501604303717613 -0.038802012801170349
v -0.030294701457023621 0.037357505410909653 -0.032842829823493958
v -0.048392817378044128 -0.025432262569665909 0.013767390511929989
v -0.048388384282588959 -0.029033135622739792 0.0029501025564968586
v -0.048400454223155975 -0.024072086438536644 0.00169984414242208
v -0.048397257924079895 -0.028783295303583145 -0.0038407384417951107
v -0.048402328044176102 -0.023175187408924103 -0.003257248317822814
v -0.048355679959058762 -0.0246436707675457 -0.0095779914408922195
v -0.048399999737739563 -0.018831931054592133 0.0072057731449604034
v -0.048399947583675385 -0.02441728301346302 0.0075554456561803818
v -0.048422951251268387 -0.018363235518336296 -0.021233566105365753
v -0.048396918922662735 -0.028841948136687279 0.008047853596508503
v -0.048399988561868668 -0.019105998799204826 0.013339337892830372
f 1 2 3
f 4 5 6
f 7 8 9
f 10 4 8
f 11 12 13
f 11 2 6
f 13 2 11
f 3 13 14
f 5 15 16
f 10 76 15
f 137 76 7
f 19 20 9
f 20 137 7
f 135 20 22
f 19 23 22
f 135 22 24
f 26 27 23
f 27 24 22
f 28 26 29
f 28 29 30
f 30 31 32
f 33 34 35
f 36 37 38
f 39 132 36
f 41 42 43
f 44 45 42
f 45 46 42
f 47 46 45
f 44 48 49
f 42 50 43
f 43 51 39
f 52 43 39
f 53 39 36
f 36 133 37
f 37 55 33
f 55 68 33
f 33 57 32
f 32 31 34
f 58 30 32
f 30 29 31
f 49 45 44
f 49 47 45
f 44 42 41
f 46 50 42
f 41 43 52
f 50 51 43
f 52 39 53
f 51 132 39
f 53 36 38
f 132 133 36
f 38 37 35
f 133 55 37
f 37 33 35
f 68 57 33
f 33 32 34
f 57 58 32
f 70 59 30
f 59 28 30
f 63 60 28
f 60 27 28
f 28 27 26
f 60 24 27
f 897 913 898
f 23 27 22
f 22 20 19
f 135 137 20
f 10 7 76
f 9 20 7
f 5 10 15
f 8 7 10
f 11 5 16
f 4 10 5
f 5 11 6
f 16 12 11
f 14 13 12
f 3 2 13
f 60 63 61
f 135 24 64
f 61 63 66
f 57 68 69
f 61 64 24
f 59 70 66
f 58 57 66
f 57 69 66
f 141 142 12
f 139 140 15
f 140 141 16
f 142 136 14
f 76 139 15
f 743 898 948
f 245 743 948
f 599 890 740
f 600 599 740
f 15 140 16
f 16 141 12
f 12 142 14
f 14 136 78
f 136 79 78
f 80 78 79
f 79 143 80
f 125 50 46
f 83 46 47
f 125 46 83
f 125 130 50
f 85 83 47
f 86 85 47
f 87 85 86
f 86 88 87
f 129 87 88
f 50 130 51
f 131 51 130
f 131 132 51
f 890 556 899
f 566 563 443
f 567 566 441
f 438 590 440
f 93 86 47
f 48 94 49
f 49 94 93
f 95 96 88
f 93 94 95
f 96 94 97
f 49 93 47
f 93 95 86
f 86 95 88
f 95 94 96
f 98 31 29
f 99 34 31
f 99 31 98
f 99 100 34
f 34 100 35
f 35 100 101
f 38 35 101
f 102 38 101
f 102 53 38
f 102 103 53
f 53 103 52
f 52 103 104
f 41 52 104
f 105 41 104
f 105 44 41
f 105 106 44
f 98 29 107
f 44 106 48
f 107 29 26
f 108 107 26
f 23 108 26
f 23 109 108
f 23 19 109
f 109 19 110
f 110 19 9
f 111 110 9
f 8 111 9
f 8 112 111
f 8 4 112
f 112 4 113
f 113 4 6
f 114 113 6
f 2 114 6
f 2 115 114
f 2 1 115
f 116 117 118
f 119 78 120
f 78 80 120
f 117 3 119
f 117 1 3
f 119 3 14
f 117 120 118
f 120 80 118
f 117 119 120
f 119 14 78
f 117 121 122
f 117 116 121
f 115 1 117
f 115 117 122
f 48 106 123
f 94 48 123
f 124 97 94
f 124 94 123
f 437 588 591
f 499 588 437
f 444 561 453
f 443 563 444
f 586 505 594
f 585 504 586
f 505 430 594
f 430 433 580
f 433 432 580
f 121 116 584
f 121 584 524
f 584 583 524
f 583 501 524
f 582 501 583
f 432 501 582
f 432 582 580
f 430 580 594
f 504 505 586
f 588 499 585
f 591 438 437
f 61 24 60
f 66 63 59
f 28 59 63
f 590 567 440
f 441 566 443
f 444 563 561
f 30 58 70
f 66 70 58
f 453 561 451
f 561 559 451
f 559 452 451
f 558 452 559
f 557 97 124
f 440 567 441
f 438 591 590
f 504 585 499
f 557 124 506
f 558 557 506
f 506 452 558
f 366 379 54
f 386 54 17
f 65 387 17
f 65 17 71
f 18 389 65
f 18 65 67
f 351 389 18
f 157 18 25
f 21 54 56
f 21 56 196
f 71 17 21
f 71 21 213
f 145 146 147
f 91 67 71
f 154 152 148
f 152 153 150
f 154 155 152
f 156 155 154
f 155 153 152
f 145 156 911
f 145 911 158
f 146 145 158
f 147 155 145
f 145 155 156
f 147 153 155
f 150 148 152
f 54 21 17
f 159 160 161
f 162 163 164
f 54 386 366
f 162 164 167
f 165 162 168
f 168 169 159
f 159 170 160
f 171 170 159
f 168 159 161
f 169 171 159
f 165 168 161
f 167 169 168
f 168 162 167
f 165 163 162
f 18 67 25
f 17 387 386
f 351 18 157
f 65 389 387
f 351 157 392
f 151 72 149
f 392 149 339
f 382 384 40
f 56 40 196
f 378 382 40
f 21 196 213
f 56 378 40
f 71 213 91
f 56 379 378
f 67 91 89
f 127 25 89
f 77 89 90
f 77 228 127
f 67 89 25
f 228 62 151
f 25 127 157
f 235 73 72
f 235 72 62
f 231 397 73
f 231 73 235
f 925 179 198
f 925 198 384
f 179 126 211
f 384 198 40
f 126 74 208
f 40 198 196
f 74 75 90
f 196 211 213
f 75 226 77
f 91 208 90
f 379 56 54
f 72 151 62
f 157 149 392
f 81 62 224
f 149 396 339
f 233 235 81
f 397 396 73
f 552 231 662
f 925 924 179
f 208 211 126
f 179 924 189
f 90 208 74
f 75 77 90
f 82 74 190
f 226 228 77
f 84 75 82
f 224 62 228
f 203 226 84
f 81 235 62
f 183 224 203
f 183 206 81
f 71 67 65
f 149 72 73
f 231 233 662
f 149 73 396
f 397 231 323
f 554 134 552
f 231 552 323
f 924 935 189
f 74 126 190
f 189 935 193
f 75 74 82
f 92 223 82
f 179 189 126
f 223 218 84
f 75 84 226
f 242 244 245
f 246 247 248
f 249 250 251
f 252 246 251
f 253 249 251
f 254 252 255
f 256 246 254
f 256 257 258
f 258 259 260
f 261 259 258
f 262 257 263
f 264 261 265
f 266 267 268
f 269 270 271
f 269 271 272
f 273 269 274
f 270 269 273
f 270 275 276
f 276 277 278
f 279 280 276
f 279 275 281
f 282 280 283
f 284 285 286
f 282 287 288
f 289 290 291
f 287 282 292
f 291 293 294
f 291 295 296
f 294 295 291
f 297 298 299
f 297 299 300
f 299 301 300
f 302 303 304
f 305 306 307
f 308 309 249
f 307 310 311
f 312 309 313
f 312 314 315
f 315 316 317
f 318 319 320
f 317 321 318
f 320 322 323
f 324 319 321
f 325 326 324
f 324 327 328
f 325 329 330
f 331 332 333
f 333 334 335
f 336 337 332
f 335 338 339
f 340 337 341
f 340 341 342
f 340 342 343
f 344 345 346
f 347 348 343
f 348 349 345
f 346 350 351
f 352 353 349
f 352 354 355
f 356 352 357
f 357 358 359
f 360 361 362
f 362 363 364
f 359 361 357
f 364 365 366
f 367 361 368
f 367 369 370
f 370 371 372
f 373 370 374
f 374 375 376
f 377 378 379
f 376 380 381
f 380 378 381
f 382 383 384
f 382 380 383
f 383 380 376
f 382 378 380
f 377 374 381
f 374 376 381
f 378 377 381
f 372 375 374
f 366 365 379
f 373 374 377
f 365 373 377
f 370 372 374
f 363 370 373
f 369 371 370
f 379 365 377
f 385 386 387
f 367 363 362
f 373 365 363
f 369 367 368
f 370 363 367
f 365 364 363
f 366 386 364
f 386 385 364
f 361 367 362
f 385 360 362
f 359 368 361
f 388 360 385
f 362 364 385
f 387 388 385
f 355 358 357
f 360 357 361
f 360 356 357
f 389 390 387
f 349 391 354
f 388 356 360
f 388 387 390
f 357 352 355
f 356 353 352
f 388 390 356
f 389 351 350
f 390 353 356
f 346 351 392
f 352 349 354
f 353 345 349
f 390 350 353
f 390 389 350
f 348 345 344
f 353 350 345
f 391 348 347
f 391 349 348
f 393 344 346
f 345 350 346
f 392 393 346
f 343 348 344
f 394 343 344
f 342 347 343
f 339 393 392
f 395 396 397
f 393 394 344
f 393 339 338
f 394 340 343
f 394 334 340
f 393 338 394
f 339 396 335
f 337 334 333
f 394 338 334
f 341 337 336
f 340 334 337
f 330 332 325
f 334 338 335
f 395 333 335
f 332 337 333
f 395 331 333
f 330 336 332
f 396 395 335
f 320 323 398
f 397 399 395
f 328 329 325
f 331 325 332
f 331 326 325
f 395 399 331
f 397 323 399
f 399 326 331
f 399 323 322
f 325 324 328
f 326 319 324
f 320 319 322
f 326 399 322
f 321 319 318
f 326 322 319
f 327 321 400
f 327 324 321
f 401 402 398
f 315 314 316
f 398 402 320
f 317 400 321
f 403 317 318
f 316 400 317
f 320 402 318
f 401 311 310
f 402 403 318
f 307 311 304
f 403 315 317
f 403 306 315
f 402 310 403
f 402 401 310
f 312 306 305
f 403 310 306
f 314 312 313
f 315 306 312
f 303 305 307
f 306 310 307
f 304 303 307
f 309 312 305
f 303 404 305
f 308 313 309
f 405 302 304
f 251 248 406
f 249 404 250
f 309 305 404
f 308 249 253
f 309 404 249
f 303 302 404
f 405 407 408
f 302 250 404
f 302 405 408
f 253 251 406
f 250 252 251
f 302 408 250
f 409 410 411
f 408 252 250
f 408 407 255
f 251 246 248
f 252 254 246
f 408 255 252
f 407 410 255
f 410 409 255
f 256 247 246
f 257 256 254
f 260 247 256
f 263 257 409
f 254 255 409
f 409 257 254
f 409 411 263
f 256 258 260
f 257 262 258
f 268 267 411
f 265 269 272
f 411 267 263
f 261 258 262
f 412 261 262
f 264 259 261
f 263 267 262
f 268 413 266
f 265 412 274
f 262 267 412
f 264 265 272
f 261 412 265
f 414 274 266
f 412 267 266
f 266 274 412
f 266 413 414
f 274 269 265
f 274 414 273
f 415 414 413
f 416 417 418
f 415 419 414
f 278 420 270
f 275 270 273
f 420 271 270
f 414 419 273
f 415 417 419
f 419 275 273
f 419 417 281
f 270 276 278
f 275 279 276
f 416 279 281
f 275 419 281
f 417 416 281
f 280 277 276
f 283 280 279
f 421 277 280
f 286 285 418
f 283 279 416
f 285 283 416
f 282 421 280
f 292 282 283
f 288 421 282
f 418 285 416
f 298 422 299
f 290 287 291
f 283 285 292
f 293 287 292
f 290 288 287
f 285 284 292
f 286 422 284
f 284 293 292
f 284 422 298
f 289 291 296
f 287 293 291
f 295 294 423
f 293 284 298
f 298 294 293
f 298 423 294
f 423 297 300
f 423 298 297
f 245 371 369
f 359 358 239
f 241 242 368
f 234 236 355
f 232 354 391
f 229 230 347
f 341 227 342
f 222 225 336
f 330 329 221
f 216 219 328
f 215 327 400
f 210 212 316
f 313 172 314
f 176 174 308
f 253 406 178
f 182 181 248
f 184 247 260
f 188 187 259
f 272 191 264
f 192 191 272
f 192 272 271
f 194 192 271
f 271 420 194
f 197 194 420
f 278 197 420
f 199 197 278
f 199 278 277
f 201 199 277
f 277 421 201
f 202 201 421
f 288 202 421
f 205 202 288
f 205 288 290
f 207 205 290
f 209 207 290
f 289 209 290
f 242 245 369
f 191 188 264
f 188 259 264
f 187 260 259
f 187 184 260
f 184 182 247
f 248 247 182
f 406 248 181
f 181 178 406
f 178 176 253
f 253 176 308
f 308 174 313
f 174 172 313
f 172 210 314
f 210 316 314
f 212 400 316
f 212 215 400
f 215 216 327
f 328 327 216
f 329 328 219
f 219 221 329
f 221 222 330
f 330 222 336
f 336 225 341
f 225 227 341
f 227 229 342
f 229 347 342
f 230 391 347
f 230 232 391
f 232 234 354
f 355 354 234
f 358 355 236
f 236 239 358
f 239 241 359
f 359 241 368
f 368 242 369
f 424 425 426
f 427 428 429
f 430 427 429
f 431 432 433
f 434 435 436
f 436 435 437
f 436 437 438
f 436 438 439
f 426 440 441
f 442 441 443
f 442 443 444
f 445 446 444
f 447 448 449
f 450 451 452
f 450 446 445
f 450 445 451
f 444 453 445
f 454 455 456
f 457 458 459
f 460 461 462
f 463 464 465
f 466 467 468
f 469 466 470
f 471 472 473
f 474 473 475
f 476 477 478
f 466 479 467
f 480 481 482
f 483 484 485
f 486 487 488
f 489 467 490
f 467 491 490
f 468 467 489
f 492 493 494
f 493 495 494
f 488 496 497
f 492 494 458
f 486 498 487
f 456 435 434
f 438 440 439
f 440 426 439
f 435 499 437
f 439 425 436
f 455 499 435
f 441 442 426
f 453 451 445
f 500 501 432
f 425 439 426
f 436 425 434
f 426 442 446
f 502 434 425
f 456 455 435
f 503 456 434
f 455 504 499
f 428 455 454
f 427 504 455
f 505 427 430
f 505 504 427
f 506 507 452
f 446 442 444
f 497 496 424
f 424 426 446
f 425 424 502
f 446 450 497
f 434 502 503
f 424 446 497
f 456 503 454
f 502 424 496
f 502 459 503
f 500 432 431
f 455 428 427
f 454 503 458
f 430 429 431
f 428 494 495
f 430 431 433
f 429 495 508
f 507 450 452
f 509 123 106
f 507 510 450
f 511 470 512
f 502 496 459
f 497 510 488
f 487 459 496
f 458 503 459
f 513 508 495
f 494 454 458
f 514 500 515
f 428 454 494
f 501 500 514
f 429 428 495
f 429 508 431
f 495 493 513
f 508 500 431
f 508 513 515
f 124 507 506
f 516 124 517
f 450 510 497
f 507 124 516
f 496 488 487
f 510 516 518
f 459 487 457
f 488 518 486
f 519 520 122
f 492 458 457
f 487 498 457
f 521 519 121
f 457 490 492
f 522 523 514
f 492 491 493
f 515 500 508
f 478 477 513
f 514 524 501
f 477 522 515
f 523 521 514
f 507 516 510
f 124 123 517
f 525 486 518
f 488 510 518
f 517 525 518
f 526 460 527
f 457 498 490
f 486 525 528
f 492 490 491
f 498 528 489
f 493 491 478
f 490 498 489
f 481 523 529
f 513 493 478
f 513 477 515
f 478 479 476
f 515 522 514
f 477 476 530
f 524 514 521
f 522 530 529
f 524 521 121
f 523 481 521
f 509 525 517
f 518 516 517
f 123 509 517
f 531 102 462
f 486 528 498
f 525 509 448
f 448 532 528
f 461 470 511
f 491 467 479
f 489 532 468
f 472 530 476
f 478 491 479
f 466 533 479
f 520 534 115
f 477 530 522
f 476 533 472
f 522 529 523
f 530 472 535
f 535 482 529
f 519 521 481
f 480 519 481
f 122 121 519
f 105 449 106
f 536 104 103
f 525 448 528
f 509 106 449
f 512 468 532
f 489 528 532
f 447 512 532
f 537 538 474
f 512 470 468
f 537 474 526
f 463 112 113
f 476 479 533
f 469 473 533
f 534 113 114
f 539 480 540
f 529 530 535
f 529 482 481
f 535 471 541
f 541 540 482
f 520 519 480
f 539 520 480
f 115 122 520
f 509 449 448
f 105 104 449
f 448 447 532
f 449 104 536
f 536 512 447
f 542 526 527
f 468 470 466
f 512 536 511
f 474 471 473
f 533 466 469
f 533 473 472
f 469 461 475
f 543 540 541
f 535 472 471
f 535 541 482
f 471 474 538
f 482 540 480
f 541 538 543
f 464 539 540
f 534 520 539
f 463 534 539
f 114 115 534
f 449 536 447
f 103 102 531
f 531 511 536
f 527 100 99
f 470 461 469
f 527 544 100
f 545 546 109
f 473 469 475
f 460 526 475
f 547 545 109
f 465 464 483
f 541 471 538
f 537 484 538
f 548 112 463
f 543 464 540
f 543 483 464
f 534 463 113
f 539 464 463
f 103 531 536
f 102 101 544
f 511 462 461
f 511 531 462
f 461 460 475
f 544 101 100
f 549 537 542
f 474 475 526
f 542 537 526
f 547 109 110
f 538 484 543
f 537 549 484
f 111 465 547
f 543 484 483
f 545 465 483
f 111 112 548
f 465 548 463
f 465 111 548
f 462 544 460
f 462 102 544
f 550 542 527
f 460 544 527
f 99 550 527
f 546 107 108
f 550 549 542
f 546 108 109
f 549 485 484
f 549 551 485
f 485 545 483
f 485 546 545
f 111 547 110
f 465 545 547
f 98 550 99
f 98 551 550
f 550 551 549
f 98 107 551
f 551 546 485
f 551 107 546
f 80 143 160
f 143 644 160
f 80 160 170
f 644 553 160
f 160 553 161
f 899 555 165
f 553 899 165
f 899 556 555
f 161 553 165
f 96 97 557
f 146 96 557
f 557 558 147
f 158 88 146
f 88 96 146
f 147 146 557
f 153 147 558
f 153 558 559
f 153 559 560
f 559 561 560
f 562 563 564
f 565 566 567
f 568 569 565
f 570 571 572
f 573 574 575
f 576 577 578
f 579 580 581
f 581 582 167
f 167 583 169
f 583 584 169
f 584 171 169
f 80 170 171
f 584 116 118
f 582 583 167
f 579 581 164
f 118 171 584
f 118 80 171
f 164 581 167
f 576 585 586
f 577 587 578
f 577 579 587
f 576 574 573
f 573 575 570
f 573 570 588
f 572 589 568
f 572 590 591
f 568 567 590
f 565 567 568
f 564 566 565
f 563 566 564
f 560 562 592
f 561 563 562
f 593 579 164
f 580 582 581
f 587 579 593
f 594 580 579
f 594 577 586
f 594 579 577
f 577 576 586
f 578 574 576
f 585 573 588
f 585 576 573
f 588 570 591
f 575 571 570
f 570 572 591
f 571 589 572
f 572 568 590
f 589 569 568
f 595 565 569
f 595 596 564
f 595 564 565
f 596 592 562
f 596 562 564
f 592 150 560
f 153 560 150
f 561 562 560
f 165 597 163
f 213 208 91
f 165 555 597
f 598 555 556
f 597 555 598
f 289 598 599
f 209 289 600
f 600 289 599
f 599 598 556
f 593 164 163
f 601 602 603
f 604 578 602
f 578 587 602
f 605 603 606
f 301 605 606
f 300 301 606
f 602 607 608
f 607 593 609
f 610 608 611
f 598 296 610
f 603 602 608
f 598 289 296
f 163 609 593
f 300 612 423
f 606 612 300
f 601 603 605
f 296 295 610
f 604 602 601
f 608 612 603
f 603 612 606
f 612 295 423
f 612 610 295
f 602 587 607
f 608 607 611
f 607 587 593
f 598 611 597
f 610 612 608
f 610 611 598
f 609 163 597
f 607 609 611
f 609 597 611
f 69 68 613
f 614 615 616
f 617 618 619
f 135 620 621
f 81 224 183
f 615 622 616
f 623 616 624
f 625 626 627
f 628 627 629
f 630 631 632
f 633 634 635
f 632 636 637
f 638 639 617
f 640 143 637
f 641 642 643
f 644 143 640
f 645 635 646
f 647 619 634
f 648 649 650
f 651 652 638
f 613 653 654
f 650 649 655
f 649 656 651
f 131 130 657
f 83 658 659
f 85 660 658
f 87 129 660
f 661 129 911
f 85 87 660
f 83 85 658
f 125 83 659
f 659 658 663
f 132 131 657
f 664 665 666
f 620 623 621
f 55 133 613
f 68 55 613
f 667 657 130
f 661 668 669
f 659 663 667
f 660 661 669
f 658 670 663
f 660 129 661
f 130 125 667
f 653 133 132
f 659 667 125
f 671 653 657
f 667 671 657
f 669 668 666
f 660 670 658
f 656 648 663
f 660 669 670
f 672 656 670
f 653 671 654
f 653 132 657
f 654 671 650
f 671 667 648
f 672 666 652
f 648 667 663
f 670 656 663
f 650 671 648
f 651 672 652
f 672 670 669
f 664 666 668
f 666 672 669
f 613 654 673
f 613 133 653
f 613 673 69
f 61 641 674
f 654 642 673
f 648 656 649
f 650 655 642
f 675 676 677
f 677 665 675
f 651 656 672
f 651 638 678
f 652 666 665
f 652 639 638
f 665 664 675
f 69 673 66
f 64 61 674
f 650 642 654
f 641 66 673
f 643 655 615
f 655 649 678
f 639 677 618
f 678 649 651
f 678 622 615
f 677 676 679
f 665 639 652
f 617 622 638
f 665 677 639
f 618 617 639
f 642 641 673
f 641 61 66
f 643 615 614
f 643 642 655
f 678 615 655
f 614 674 643
f 618 679 680
f 622 678 638
f 622 647 616
f 679 681 626
f 617 619 647
f 618 677 679
f 618 680 619
f 679 676 681
f 674 614 620
f 674 641 643
f 674 620 64
f 137 621 682
f 614 623 620
f 683 633 635
f 684 632 629
f 647 622 617
f 647 634 624
f 626 685 627
f 619 686 634
f 680 679 626
f 680 625 686
f 626 681 685
f 64 620 135
f 137 135 621
f 76 137 682
f 623 614 616
f 141 687 688
f 624 616 647
f 624 633 621
f 688 689 631
f 635 686 646
f 686 619 680
f 629 627 690
f 625 680 626
f 625 628 646
f 627 685 690
f 682 683 139
f 621 623 624
f 682 633 683
f 633 624 634
f 645 646 689
f 635 634 686
f 636 640 637
f 646 686 625
f 627 628 625
f 628 689 646
f 628 631 689
f 629 690 684
f 139 76 682
f 682 621 633
f 140 139 683
f 142 141 688
f 635 645 683
f 687 140 683
f 645 689 687
f 79 136 637
f 630 632 637
f 631 628 629
f 636 632 684
f 632 631 629
f 645 687 683
f 141 140 687
f 136 142 630
f 688 687 689
f 631 630 688
f 630 142 688
f 630 637 136
f 143 79 637
f 691 692 693
f 694 695 692
f 696 697 698
f 699 700 701
f 219 216 694
f 702 701 700
f 210 172 699
f 699 172 703
f 704 703 174
f 705 706 182
f 172 174 703
f 178 181 706
f 184 187 707
f 181 182 706
f 708 178 706
f 709 710 711
f 712 713 704
f 707 705 184
f 714 715 716
f 717 714 718
f 187 188 707
f 719 720 721
f 722 723 715
f 722 714 717
f 722 715 714
f 724 725 720
f 721 726 727
f 728 724 719
f 714 716 707
f 727 729 730
f 697 694 698
f 731 732 733
f 734 735 736
f 737 733 738
f 739 693 695
f 737 740 741
f 742 743 244
f 744 745 713
f 746 747 748
f 749 739 697
f 750 711 751
f 752 753 754
f 755 756 757
f 758 752 759
f 755 760 756
f 761 762 763
f 764 765 766
f 767 768 239
f 742 769 770
f 174 176 704
f 771 713 712
f 772 699 703
f 701 210 699
f 698 701 702
f 212 210 701
f 176 178 708
f 182 184 705
f 713 745 772
f 704 176 708
f 703 704 772
f 708 706 773
f 699 772 700
f 704 708 712
f 698 212 701
f 772 704 713
f 215 212 698
f 700 772 745
f 215 698 694
f 702 700 774
f 216 215 694
f 698 702 696
f 188 191 718
f 773 706 705
f 771 744 713
f 712 708 773
f 705 716 773
f 775 776 777
f 773 778 712
f 779 751 776
f 780 749 696
f 774 700 745
f 693 692 695
f 696 702 774
f 745 781 774
f 697 695 694
f 774 780 696
f 694 692 219
f 696 749 697
f 221 219 692
f 697 739 695
f 691 782 692
f 191 192 717
f 716 705 707
f 773 716 778
f 192 194 783
f 777 776 744
f 771 712 778
f 716 715 778
f 784 779 775
f 745 744 781
f 771 778 785
f 774 781 780
f 744 771 777
f 744 776 781
f 786 787 709
f 781 751 780
f 788 789 227
f 780 711 749
f 753 788 782
f 749 710 739
f 692 782 221
f 739 748 693
f 222 221 782
f 747 754 691
f 225 222 782
f 707 718 714
f 707 188 718
f 191 717 718
f 732 790 791
f 792 775 777
f 785 778 715
f 775 779 776
f 777 771 785
f 715 723 785
f 793 794 795
f 781 776 751
f 777 785 792
f 709 787 710
f 711 780 751
f 787 746 748
f 710 749 711
f 759 754 747
f 748 739 710
f 796 788 753
f 747 693 748
f 693 747 691
f 748 710 787
f 752 754 759
f 782 691 754
f 796 753 752
f 782 754 753
f 227 225 788
f 225 782 788
f 194 197 797
f 730 797 199
f 192 783 717
f 721 720 726
f 785 723 792
f 722 783 798
f 722 798 723
f 799 793 800
f 723 801 792
f 802 803 799
f 751 779 750
f 775 792 725
f 786 804 787
f 709 711 750
f 779 794 750
f 239 236 767
f 750 805 709
f 806 807 755
f 756 796 752
f 759 747 746
f 787 804 746
f 760 808 789
f 746 809 759
f 796 789 788
f 758 756 752
f 229 227 789
f 756 760 796
f 808 810 789
f 717 783 722
f 199 201 730
f 723 798 801
f 783 797 729
f 792 801 725
f 798 729 726
f 775 725 784
f 801 726 720
f 793 805 794
f 794 779 784
f 750 794 805
f 784 724 795
f 811 809 804
f 786 709 805
f 793 803 805
f 812 761 813
f 746 804 809
f 786 803 814
f 759 809 758
f 804 814 811
f 811 762 809
f 234 232 815
f 762 757 758
f 807 816 808
f 807 760 755
f 789 796 760
f 810 808 816
f 810 229 789
f 232 230 810
f 230 229 810
f 194 797 783
f 197 199 797
f 727 726 729
f 798 783 729
f 719 724 720
f 801 798 726
f 728 795 724
f 725 801 720
f 800 793 795
f 784 725 724
f 799 803 793
f 794 784 795
f 728 800 795
f 817 818 819
f 820 811 814
f 786 805 803
f 763 762 811
f 804 786 814
f 802 820 814
f 821 812 822
f 809 762 758
f 811 820 763
f 823 816 807
f 756 758 757
f 761 824 757
f 825 826 815
f 760 807 808
f 755 824 806
f 810 816 815
f 807 806 823
f 810 815 232
f 816 825 815
f 827 727 730
f 729 797 730
f 201 827 730
f 733 732 738
f 827 828 727
f 829 731 830
f 828 791 721
f 735 829 736
f 791 790 719
f 819 735 734
f 790 831 728
f 817 819 832
f 831 833 800
f 834 817 835
f 803 802 814
f 799 833 836
f 836 818 802
f 821 822 837
f 818 838 820
f 839 821 840
f 762 761 757
f 763 838 813
f 768 769 241
f 755 757 824
f 812 841 824
f 842 767 826
f 841 843 806
f 825 816 823
f 843 844 823
f 826 234 815
f 842 826 825
f 236 234 826
f 201 202 827
f 202 845 827
f 727 828 721
f 202 205 845
f 721 791 719
f 738 205 207
f 719 790 728
f 791 845 732
f 728 831 800
f 790 732 731
f 800 833 799
f 831 731 829
f 799 836 802
f 833 829 735
f 802 818 820
f 836 735 819
f 822 812 813
f 763 820 838
f 763 813 761
f 838 817 834
f 761 812 824
f 813 834 822
f 765 844 843
f 806 824 841
f 806 843 823
f 841 821 839
f 823 844 825
f 843 839 765
f 844 842 825
f 844 765 764
f 826 767 236
f 842 768 767
f 828 845 791
f 828 827 845
f 738 732 845
f 846 847 848
f 736 829 830
f 831 790 731
f 832 819 734
f 833 831 829
f 835 817 832
f 836 833 735
f 849 834 835
f 818 836 819
f 837 822 849
f 838 818 817
f 840 821 837
f 813 838 834
f 849 822 834
f 850 851 852
f 766 765 853
f 841 812 821
f 854 764 766
f 843 841 839
f 853 765 839
f 242 241 769
f 768 764 854
f 842 844 764
f 241 239 768
f 842 764 768
f 205 738 845
f 207 209 737
f 207 737 738
f 846 848 855
f 733 830 731
f 733 737 830
f 847 736 830
f 856 857 858
f 846 734 736
f 859 858 860
f 861 832 734
f 862 860 863
f 856 835 832
f 864 863 865
f 859 849 835
f 866 865 867
f 862 837 849
f 851 867 852
f 864 840 837
f 850 852 868
f 840 853 839
f 840 866 853
f 851 766 853
f 742 869 743
f 850 854 766
f 742 244 242
f 854 769 768
f 854 770 769
f 740 737 209
f 741 848 847
f 737 847 830
f 737 741 847
f 857 861 855
f 736 847 846
f 846 861 734
f 846 855 861
f 861 856 832
f 861 857 856
f 856 859 835
f 856 858 859
f 859 862 849
f 859 860 862
f 862 864 837
f 862 863 864
f 864 866 840
f 864 865 866
f 866 851 853
f 866 867 851
f 869 770 868
f 766 851 850
f 850 770 854
f 850 868 770
f 769 742 242
f 770 869 742
f 870 668 871
f 668 661 871
f 681 676 872
f 873 661 911
f 874 875 876
f 877 872 878
f 879 685 880
f 881 690 879
f 882 883 884
f 636 881 885
f 848 741 886
f 886 887 883
f 848 886 882
f 644 640 888
f 553 644 888
f 886 741 890
f 636 684 881
f 740 890 741
f 881 684 690
f 879 690 685
f 884 879 891
f 891 880 877
f 872 676 892
f 878 892 893
f 894 892 675
f 870 894 664
f 875 895 873
f 896 897 875
f 875 897 876
f 743 869 898
f 876 897 898
f 899 553 887
f 888 640 885
f 636 885 640
f 887 553 888
f 885 883 887
f 858 900 901
f 881 884 883
f 860 901 902
f 872 892 878
f 880 685 681
f 681 872 880
f 865 903 904
f 894 870 905
f 892 676 675
f 870 871 906
f 894 675 664
f 668 870 664
f 905 893 894
f 870 906 905
f 871 661 873
f 871 873 895
f 911 896 873
f 885 887 888
f 855 848 882
f 882 884 907
f 883 885 881
f 907 891 900
f 884 881 879
f 880 891 879
f 891 907 884
f 872 877 880
f 877 900 891
f 877 878 901
f 867 865 904
f 894 893 892
f 893 902 878
f 893 905 903
f 868 852 874
f 905 906 904
f 869 868 876
f 871 895 906
f 895 908 906
f 896 875 873
f 875 874 895
f 887 886 899
f 886 890 899
f 855 907 857
f 882 886 883
f 882 907 855
f 900 858 857
f 907 900 857
f 901 860 858
f 860 902 863
f 901 900 877
f 863 903 865
f 902 901 878
f 893 903 902
f 903 863 902
f 867 908 852
f 904 903 905
f 906 908 904
f 908 867 904
f 895 874 908
f 874 852 908
f 874 876 868
f 876 898 869
f 909 896 156
f 89 77 127
f 912 913 897
f 158 911 88
f 911 129 88
f 233 81 206
f 897 896 909
f 896 911 156
f 154 912 909
f 897 909 912
f 909 156 154
f 915 916 917
f 605 301 918
f 919 589 920
f 921 922 923
f 924 925 926
f 571 575 927
f 928 923 929
f 918 929 930
f 927 574 931
f 927 575 574
f 578 604 574
f 571 927 920
f 569 589 919
f 917 932 915
f 932 933 934
f 595 569 933
f 915 932 934
f 917 916 384
f 916 925 384
f 916 926 925
f 934 569 919
f 915 934 922
f 934 933 569
f 926 922 921
f 926 916 915
f 915 922 926
f 921 924 926
f 934 919 922
f 919 923 922
f 924 921 935
f 217 662 233
f 921 928 935
f 923 919 920
f 923 920 929
f 920 589 571
f 923 928 921
f 928 918 935
f 918 928 929
f 574 604 931
f 920 927 929
f 927 930 929
f 605 918 930
f 204 206 180
f 605 930 601
f 931 604 601
f 927 931 930
f 931 601 930
f 917 384 383
f 937 372 938
f 938 372 371
f 938 939 940
f 941 942 943
f 942 596 944
f 917 383 945
f 940 941 943
f 933 944 596
f 933 932 944
f 596 595 933
f 376 375 937
f 148 941 946
f 148 150 941
f 204 214 217
f 939 938 371
f 937 375 372
f 937 940 943
f 940 939 946
f 150 592 941
f 941 940 946
f 937 943 945
f 937 938 940
f 937 945 376
f 941 592 942
f 943 942 947
f 942 592 596
f 376 945 383
f 945 947 917
f 943 947 945
f 947 932 917
f 942 944 947
f 944 932 947
f 939 371 948
f 371 245 948
f 233 206 217
f 913 939 948
f 913 912 939
f 946 912 154
f 939 912 946
f 148 946 154
f 214 128 554
f 950 951 952
f 952 951 953
f 952 953 954
f 952 415 950
f 955 951 956
f 957 301 299
f 415 413 950
f 413 958 950
f 959 956 949
f 411 410 936
f 410 407 936
f 914 405 304
f 914 910 889
f 914 889 405
f 662 554 552
f 243 240 959
f 238 237 955
f 235 233 231
f 228 226 224
f 223 220 218
f 217 214 554
f 213 211 208
f 959 955 956
f 206 204 217
f 203 218 200
f 198 211 196
f 955 237 951
f 238 195 237
f 193 190 189
f 195 186 185
f 183 180 206
f 226 203 224
f 179 211 198
f 268 958 413
f 268 411 949
f 417 415 952
f 958 268 949
f 417 952 418
f 950 958 956
f 411 936 949
f 407 405 889
f 958 949 956
f 910 407 889
f 950 956 951
f 949 936 910
f 177 175 173
f 952 954 418
f 237 953 951
f 954 286 418
f 173 954 185
f 175 286 954
f 957 175 177
f 422 286 175
f 311 166 304
f 910 936 407
f 157 151 149
f 959 949 910
f 914 243 910
f 183 200 180
f 910 243 959
f 144 193 918
f 953 237 185
f 955 959 240
f 195 185 237
f 954 953 185
f 301 957 144
f 175 954 173
f 422 175 957
f 173 186 220
f 422 957 299
f 177 220 138
f 166 914 304
f 552 134 401
f 166 128 914
f 127 151 157
f 955 240 238
f 243 128 214
f 214 204 240
f 126 189 190
f 240 204 238
f 193 935 918
f 185 186 173
f 195 238 180
f 173 220 177
f 186 195 200
f 92 138 223
f 957 177 138
f 918 301 144
f 957 138 144
f 401 134 311
f 552 398 323
f 914 128 243
f 166 311 134
f 243 214 240
f 128 134 554
f 127 228 151
f 180 238 204
f 91 90 89
f 200 195 180
f 190 193 92
f 218 186 200
f 186 218 220
f 200 183 203
f 220 223 138
f 218 203 84
f 138 92 144
f 223 84 82
f 92 193 144
f 92 82 190
f 166 134 128
f 401 398 552
f 662 217 554
f 948 898 913
f 244 743 245
f 556 890 599
f 209 600 740
