# Generated by benchmark/pick_up_apple/mujoco_src/export.py
v 0.0058024181053042412 -0.0057074991054832935 -0.0055152671411633492
v 0.0062891896814107895 -0.0063945143483579159 -0.0050729541108012199
v 0.0022268502507358789 0.0033491812646389008 -0.01968536339700222
v 0.0047115110792219639 -0.0068316115066409111 -0.011125538498163223
v 0.0070319809019565582 0.0004112015594728291 -0.018230121582746506
v 0.0073476065881550312 -0.00118985865265131 -0.014864376746118069
v -0.0053483620285987854 0.00029703177278861403 -0.022055089473724365
v -0.0050886846147477627 -0.0056579038500785828 -0.005556066520512104
v -0.0059356368146836758 -0.006570709403604269 -0.0050632590427994728
v -0.0063438471406698227 -0.0058138901367783546 -0.0053891311399638653
v -0.0033643112983554602 0.005168622825294733 -0.021760227158665657
v -0.0012541443575173616 0.0051767230033874512 -0.021763527765870094
v -0.0020249863155186176 0.005747214425355196 -0.021757423877716064
v -0.00075473537435755134 0.0060116718523204327 -0.021755190566182137
v -0.00022790345246903598 0.0051188734360039234 -0.02176310122013092
v -0.0022670093458145857 0.0033389010932296515 -0.021754730492830276
v -0.00067498697899281979 0.0033397420775145292 -0.021754510700702667
v -0.001063512871041894 0.0043154209852218628 -0.021759310737252235
v -0.0042905057780444622 0.0042353169992566109 -0.021758712828159332
v -0.0038590319454669952 0.0033380601089447737 -0.021754950284957886
v -0.0054510543122887611 0.0033372191246598959 -0.021755170077085495
v 0.00091703550424426794 0.0033405832946300507 -0.021754289045929909
v 0.00024095734988804907 0.0042359293438494205 -0.021758738905191422
v 0.0016239642864093184 0.0042771846055984497 -0.021758746355772018
v 0.00060032721376046538 0.00592755526304245 -0.021760059520602226
v 0.0037063353229314089 0.0052158883772790432 -0.021762846037745476
v -0.0076194331049919128 -0.00023427243286278099 -0.008749714121222496
v 0.0031017966102808714 0.0043070167303085327 -0.021758681163191795
v 0.0045498404651880264 0.0042478400282561779 -0.02174975723028183
v 0.0041010803543031216 0.0033422652631998062 -0.02175384946167469
v -0.0070111122913658619 0.0015707414131611586 -0.013076081871986389
v 0.0025090579874813557 0.0033414242789149284 -0.021754069253802299
v 0.0068040606565773487 -0.0045246328227221966 -0.011231532320380211
v -0.003128372598439455 0.0033423639833927155 -0.020874422043561935
v 0.00030191917903721333 0.0053640222176909447 -0.025724096223711967
v 0.0033999369479715824 0.0033452522475272417 -0.021015074104070663
v -0.0036362095270305872 -0.00011173388338647783 -0.023478254675865173
v -0.00090093072503805161 0.00566438352689147 -0.025584882125258446
v 0.00071394105907529593 -0.0078814374282956123 -0.013215035200119019
v 0.0022598057985305786 0.0033558388240635395 -0.018369827419519424
v 0.0020970955956727266 0.0028354646638035774 -0.025331692770123482
v 0.0043015191331505775 0.0033706114627420902 -0.015656512230634689
v 0.0057264645583927631 -0.00079057802213355899 -0.020988937467336655
v 0.0063052359037101269 -0.0010613178601488471 -0.019617747515439987
v 0.005192865151911974 -0.0015841915737837553 -0.021040346473455429
v 0.0060708601959049702 -0.0020048737060278654 -0.018945600837469101
v 0.0053356648422777653 -0.0028135441243648529 -0.019299311563372612
v 0.0056214528158307076 -0.0017890534363687038 -0.020115766674280167
v 0.0045422213152050972 -0.0017769639380276203 -0.021571768447756767
v 0.0050152214244008064 -0.001114515820518136 -0.021712299436330795
v 0.004378593061119318 -0.0010923732770606875 -0.022393977269530296
v 0.0050880089402198792 -0.00025926085072569549 -0.022342834621667862
v 0.0041718194261193275 -0.00041037698974832892 -0.023112200200557709
v 0.0039510601200163364 0.0013531801523640752 -0.024196969345211983
v 0.0044931657612323761 0.00047767077921889722 -0.023405993357300758
v -0.0072213700041174889 -0.0039660814218223095 -0.0069885966368019581
v 0.002631898270919919 0.0014025558484718204 -0.024781063199043274
v 0.004346099216490984 0.0042939488776028156 -0.023730536922812462
v 0.0032380458433181047 0.0033687427639961243 -0.015915572643280029
v 0.0031803089659661055 1.0913125152001157e-05 -0.023945175111293793
v 0.0048707937821745872 -0.002333357697352767 -0.020596127957105637
v 0.0054754633456468582 -0.0035141215194016695 -0.017974758520722389
v 0.0059471898712217808 -0.0027368066366761923 -0.018270697444677353
v 0.0062397336587309837 -0.0029765877407044172 -0.017077513039112091
v 0.005621069110929966 -0.0040459409356117249 -0.016640644520521164
v 0.0068755680695176125 -0.0018227448454126716 -0.01691136509180069
v 0.0071319197304546833 -0.0019550295546650887 -0.015428979881107807
v 0.0063284290954470634 -0.0035860540810972452 -0.015703160315752029
v 0.0057194274850189686 -0.0045456616207957268 -0.015255448408424854
v 0.0058299899101257324 -0.0049649304710328579 -0.013853123411536217
v 0.0064267292618751526 -0.0040143602527678013 -0.014363160356879234
v 0.0067545939236879349 -0.004207187332212925 -0.012368088588118553
v 0.0061326143331825733 -0.0051860669627785683 -0.01232855673879385
v 0.0074476185254752636 -0.0023927120491862297 -0.012419199571013451
v 0.0075957952067255974 -0.0024236808530986309 -0.010938216932117939
v 0.0068782186135649681 -0.0048334812745451927 -0.0098338723182678223
v 0.0061748772859573364 -0.0055944905616343021 -0.01075977087020874
v 0.0062277740798890591 -0.0059059220366179943 -0.0093193063512444496
v 0.006933688186109066 -0.0051169386133551598 -0.0084728533402085304
v 0.0063172066584229469 -0.0061370851472020149 -0.0079466607421636581
v 0.0073771877214312553 -0.0042375456541776657 -0.007651312742382288
v 0.0078009795397520065 -0.0031243634875863791 -0.0077285170555114746
v 0.0077148843556642532 -0.0026255801785737276 -0.0092025147750973701
v 0.0073298304341733456 -0.0020152952056378126 -0.013929767534136772
v 0.0066757621243596077 -0.0013371460372582078 -0.018319334834814072
v 0.0035243665333837271 -0.0010529657592996955 -0.023040635511279106
v 0.0068230945616960526 -0.00028925293008796871 -0.018881408497691154
v 0.0059978221543133259 0.00041006942046806216 -0.021544221788644791
v 0.0064857238903641701 1.4202367310645059e-05 -0.020210076123476028
v 0.0071004768833518028 -0.0004622336127795279 -0.017443213611841202
v 0.0054011060856282711 0.00091280147898942232 -0.022707369178533554
v 0.0048210034146904945 0.001432416494935751 -0.023500226438045502
v 0.0069565651938319206 -0.0053256936371326447 -0.0060108518227934837
v 0.0072457934729754925 -0.00091983954189345241 -0.016002442687749863
v 0.0074793286621570587 -0.00078485370613634586 -0.013900349847972393
v 0.0075622228905558586 -0.0013178945519030094 -0.012778552249073982
v 0.0077412994578480721 -0.0013060952769592404 -0.010965614579617977
v 0.0078389085829257965 -0.0015938937431201339 -0.0093455659225583076
v -0.0029432992450892925 0.0033620246686041355 -0.016600487753748894
v 0.0078964829444885254 -0.0026623778976500034 -0.0077307373285293579
v 0.0078130196779966354 -0.003141490975394845 -0.0075634741224348545
v 0.0040040644817054272 0.0033852015621960163 -0.012734874151647091
v 0.0034967444371432066 0.0033745593391358852 -0.014790287241339684
v 0.0040598539635539055 -0.0067179929465055466 -0.013143593445420265
v 0.0045553413219749928 0.0033767682034522295 -0.014463299885392189
v -0.0032387811224907637 0.0033728342968970537 -0.014428059570491314
v -0.0045434841886162758 0.003361742477864027 -0.016489142552018166
v 0.0037091216072440147 -0.0082632414996623993 -0.0082129156216979027
v 0.00061566755175590515 0.0033850288018584251 -0.012414970435202122
v 0.00061624252703040838 0.0028007449582219124 -0.025476051494479179
v -0.0067182658240199089 -0.0053020715713500977 -0.0060267802327871323
v 0.0011507991002872586 0.0015297882491722703 -0.025077816098928452
v 0.0037340861745178699 0.0033894113730639219 -0.011872627772390842
v 0.0026896251365542412 0.0033902639988809824 -0.011594567447900772
v -0.0033615294378250837 -0.0023488700389862061 -0.021783363074064255
v -0.0046710148453712463 0.0033894183579832315 -0.011032629758119583
v 0.0061862478032708168 0.00340630067512393 -0.008741334080696106
v 6.2976840126793832e-05 -0.0066402805969119072 -0.016738582402467728
v 0.00021203325013630092 -0.0060169203206896782 -0.018113395199179649
v 0.0011615122202783823 -0.006343817338347435 -0.017168644815683365
v 0.0037141791544854641 -0.007968144491314888 -0.0094590885564684868
v 0.00031654679332859814 -0.0089089870452880859 -0.0095822596922516823
v 0.0013041194761171937 -0.0085096117109060287 -0.010653811506927013
v 0.001271530520170927 -0.0090164719149470329 -0.008625498041510582
v 0.0010351608507335186 -0.0082088746130466461 -0.012049176730215549
v -0.00019599638471845537 -0.0080782240256667137 -0.012528404593467712
v 0.00093588902382180095 -0.0074839782901108265 -0.014382613822817802
v -0.00022956955945119262 -0.0076413466595113277 -0.013913702219724655
v -8.2516147813294083e-05 -0.0071757007390260696 -0.015325009822845459
v 0.0010657417587935925 -0.0069497460499405861 -0.015790479257702827
v 0.00041765542118810117 -0.0052356375381350517 -0.019514577463269234
v 0.0012070127995684743 -0.0045795491896569729 -0.020320296287536621
v 0.0014268287923187017 -0.0050967521965503693 -0.01939966157078743
v 0.0012640570057556033 -0.0056881299242377281 -0.018448919057846069
v 0.0017582839354872704 0.00033207642263732851 -0.024534070864319801
v 0.0037419863510876894 -0.0018083587056025863 -0.022208653390407562
v 0.000325393135426566 -0.0027752758469432592 -0.022688491269946098
v -0.0067326766438782215 0.001719449064694345 -0.01816345751285553
v 0.0002478690876159817 -0.0035303677432239056 -0.021919418126344681
v 0.0015308046713471413 -0.0013064134400337934 -0.023673323914408684
v 0.0063711567781865597 -0.0021838711109012365 -0.017915336415171623
v 0.0003677625791169703 -0.0011916335206478834 -0.023958463221788406
v 0.00031059744651429355 0.00017809332348406315 -0.024657929316163063
v 0.00089299108367413282 -0.0021362775005400181 -0.023191291838884354
v 0.0020726332440972328 -0.0022086738608777523 -0.022802982479333878
v 0.00024339734227396548 -0.0043829684145748615 -0.020841857418417931
v 0.0011631812667474151 -0.0038464444223791361 -0.021345267072319984
v 0.003143723588436842 -0.006464820820838213 -0.015261568129062653
v 0.00315056461840868 -0.0069656088016927242 -0.01382669061422348
v 3.0864768632454798e-05 -0.0085134189575910568 -0.011129195801913738
v 0.0033831873442977667 -0.0073665096424520016 -0.012289195321500301
v 0.00341037567704916 -0.0077534429728984833 -0.01085648313164711
v 0.00012578941823448986 -0.0093120364472270012 -0.007897435687482357
v 0.0031300722621381283 -0.0059129996225237846 -0.016657967120409012
v 0.0030864872969686985 -0.0053207599557936192 -0.017984772101044655
v 0.0029918609652668238 -0.0046808430925011635 -0.019224653020501137
v 0.0028312832582741976 -0.0039465376175940037 -0.020459229126572609
v 0.002197429072111845 -0.0032910106237977743 -0.021620027720928192
v -0.00013476517051458359 -0.0021312341559678316 -0.023246778175234795
v -0.0044641639105975628 0.003368929261341691 -0.015073663555085659
v 0.00045481239794753492 0.0033955902326852083 -0.01030577439814806
v 0.003796691307798028 0.003357630455866456 -0.018175581470131874
v 0.0042518032714724541 0.0033517784904688597 -0.019520331174135208
v -0.0014794105663895607 -0.0049784029833972454 -0.019473692402243614
v -0.0017419535433873534 -0.0055012810043990612 -0.018430516123771667
v -0.0025024465285241604 -0.0047028874978423119 -0.019376998767256737
v -0.0025543796364217997 -0.0030279401689767838 -0.021608540788292885
v -0.0024236568715423346 -0.0020421440713107586 -0.022664498537778854
v -0.0015966193750500679 -0.0030059502460062504 -0.022163216024637222
v -0.0025964223314076662 -0.0038289956282824278 -0.020606838166713715
v -0.0018737880745902658 -0.0036474866792559624 -0.021281784400343895
v -0.0016857451992109418 -0.0043403645977377892 -0.020419107750058174
v -0.00058162701316177845 -0.00065919512417167425 -0.024204611778259277
v -0.005237021017819643 -0.005147887859493494 -0.014418670907616615
v -0.0016981420340016484 -0.0010168998269364238 -0.02378157339990139
v -0.0012033532839268446 0.00026718160370364785 -0.024580188095569611
v -0.0011864503612741828 -0.0021316700149327517 -0.023073958232998848
v -0.00065055961022153497 -0.0014371925499290228 -0.023700131103396416
v -0.0005016110953874886 0.0017109953332692385 -0.025168832391500473
v -0.0027886880561709404 -0.005369954276829958 -0.017945593222975731
v -0.0019710699561983347 -0.0060862083919346333 -0.017106924206018448
v -0.0021919454447925091 -0.0066128624603152275 -0.015714580193161964
v -0.0030283478554338217 -0.0058887111954391003 -0.016573179513216019
v -0.0024108861107379198 -0.007051913533359766 -0.0143044488504529
v -0.0034358184784650803 -0.0067276027984917164 -0.013729524798691273
v -0.0032696584239602089 -0.0063224071636795998 -0.015147215686738491
v -0.0024285323452204466 -0.0077772135846316814 -0.012033446691930294
v -0.0034382238518446684 -0.0071605276316404343 -0.012396345846354961
v -0.0022293140646070242 -0.0081893298774957657 -0.01068567018955946
v -0.003341480391100049 -0.0076214754953980446 -0.011063570156693459
v -0.0032055357005447149 -0.0080818608403205872 -0.0095620220527052879
v -0.0024050606880337 -0.0086805541068315506 -0.0084342984482645988
v -0.0035848242696374655 -0.0082014342769980431 -0.0080975089222192764
v 0.00066672818502411246 0.0033553296234458685 -0.018304206430912018
v 0.0030985560733824968 0.0033847771119326353 -0.012724353931844234
v -0.0012558554299175739 0.0033899128902703524 -0.011251773685216904
v 0.0021580106113106012 0.003367727855220437 -0.016003778204321861
v -0.0045709153637290001 -0.0076340069063007832 -0.0074844858609139919
v -0.0062352423556149006 -0.006201550830155611 -0.0063775992020964622
v -0.0061145192012190819 -0.0061333328485488892 -0.0077941082417964935
v -0.0057009276933968067 -0.0069777253083884716 -0.0060910359025001526
v -0.0050970693118870258 -0.0027878182008862495 -0.019286345690488815
v -0.004196773748844862 -0.0030880756676197052 -0.020147841423749924
v -0.0043067433871328831 -0.0037614086177200079 -0.018981209024786949
v -0.0047332323156297207 -0.0022126862313598394 -0.02056434378027916
v -0.0042787566781044006 -0.0016557667404413223 -0.021714501082897186
v -0.0040126466192305088 -0.0025152820162475109 -0.021065391600131989
v -0.0042721685022115707 -0.0043608024716377258 -0.017951430752873421
v -0.0051171812228858471 -0.0036960137076675892 -0.01785537414252758
v -0.0070863743312656879 0.0028130898717790842 -0.0084171639755368233
v -0.003439818974584341 -0.0015906059416010976 -0.022500144317746162
v -0.0026597878895699978 -0.0073283659294247627 -0.013139368966221809
v -0.0030032489448785782 -0.00093343609478324652 -0.023298496380448341
v -0.0020058979280292988 0.0013847706140950322 -0.024868860840797424
v 0.00041928343125618994 0.0033625951036810875 -0.016838924959301949
v -0.0039828331209719181 0.0033480299171060324 -0.019264450296759605
v 0.0010360584128648043 0.0033486669417470694 -0.019662812352180481
v -0.002660037949681282 0.00019843973859678954 -0.024177191779017448
v -0.0054687242954969406 -0.0040941918268799782 -0.016348415985703468
v -0.0046182330697774887 -0.0046523637138307095 -0.016869552433490753
v -0.00493980897590518 -0.0049865571781992912 -0.015541688539087772
v -0.0056984229013323784 -0.0044027660042047501 -0.014994870871305466
v -0.0051978714764118195 -0.005601224023848772 -0.013309570960700512
v -0.0058430745266377926 -0.0047326800413429737 -0.013709922321140766
v -0.0059347609058022499 -0.0051001720130443573 -0.012349092401564121
v -0.0051870751194655895 -0.0060431654565036297 -0.011926024220883846
v -0.0051266010850667953 -0.0064656408503651619 -0.010545664466917515
v -0.005969746969640255 -0.005525155458599329 -0.010889461264014244
v -0.0052887201309204102 -0.0069006877020001411 -0.0083430912345647812
v -0.0058834776282310486 -0.0060320626944303513 -0.0093297362327575684
v -0.0039985631592571735 -0.00078909919830039144 -0.022710230201482773
v -0.00063496927032247186 0.0033061194699257612 -0.025585444644093513
v -0.0049842731095850468 -0.0068441098555922508 -0.0094421207904815674
v -0.0016918769106268883 0.0026258877478539944 -0.025309335440397263
v -0.0050623766146600246 -0.0074065504595637321 -0.0064790216274559498
v -0.00051286123925819993 0.0069377790205180645 -0.023057926446199417
v -0.0024739126674830914 0.0036402291152626276 -0.02518562413752079
v -0.00098480051383376122 0.0033538995776325464 -0.018414922058582306
v -0.0020032154861837626 -0.0085143651813268661 -0.0095546096563339233
v -0.0014559938572347164 0.0033437751699239016 -0.020836858078837395
v -0.0025088535621762276 0.0033506038598716259 -0.018908560276031494
v -0.0012427762849256396 0.0033602232579141855 -0.017135133966803551
v -0.006312408484518528 -0.0020945377182215452 -0.017673537135124207
v -0.0064805475994944572 -0.0010621180990710855 -0.018404899165034294
v -0.0059043653309345245 -0.0019309784984216094 -0.018953779712319374
v -0.0060660829767584801 -0.00087012327276170254 -0.019880827516317368
v -0.0054161814041435719 -0.0018210223643109202 -0.019958959892392159
v -0.0052346647717058659 -0.0012646100949496031 -0.020941494032740593
v -0.004926733672618866 -0.00060517556266859174 -0.022008610889315605
v 0.0046824989840388298 -0.0073081674054265022 -0.0094446903094649315
v -0.004623709712177515 0.00027652899734675884 -0.022982565686106682
v -0.0038091347087174654 0.0008100569830276072 -0.023938070982694626
v -0.0014824751997366548 0.0033658421598374844 -0.015996899455785751
v -0.002787610050290823 0.0033573259133845568 -0.0175477284938097
v -0.0030530067160725594 0.0013121024239808321 -0.024519946426153183
v -0.0066329082474112511 -0.0022834264673292637 -0.01614508219063282
v -0.0067489678040146828 -0.001226964988745749 -0.017041990533471107
v -0.0067383390851318836 -0.0028183695394545794 -0.014676702208817005
v -0.0070770313031971455 -0.0022133055608719587 -0.01369816530495882
v -0.0069884802214801311 -0.00177328463178128 -0.014883214607834816
v -0.006840861402451992 -0.0031903807539492846 -0.013364595361053944
v -0.0069230133667588234 -0.0034549590200185776 -0.012194695882499218
v -0.0071811387315392494 -0.0025384123437106609 -0.012429084628820419
v -0.0070744329132139683 -0.0038522160612046719 -0.010010823607444763
v -0.0074525470845401287 -0.0029497041832655668 -0.0091700702905654907
v -0.0072345291264355183 -0.0029890136793255806 -0.01095821987837553
v -0.0071126967668533325 -0.0042243958450853825 -0.0075762392953038216
v -0.0075559779070317745 -0.0031324787996709347 -0.0077306483872234821
v -0.0057061603292822838 -0.00021025494788773358 -0.021158056333661079
v -0.0076519954018294811 -0.0026704554911702871 -0.0077328798361122608
v -0.0075680487789213657 -0.0031496135052293539 -0.0075655942782759666
v -0.0070926840417087078 -0.0047902525402605534 -0.0066644293256103992
v 0.0016437114682048559 0.003373029874637723 -0.014899640344083309
v 0.0011627698550000787 0.0033789575099945068 -0.01367497630417347
v 0.00012405584857333452 0.0033674081787467003 -0.015854550525546074
v -0.0073500555008649826 -0.0031419105362147093 -0.0073127639479935169
v -0.0063047907315194607 -0.0042302533984184265 -0.0068333898670971394
v -0.0044303210452198982 -0.0048658382147550583 -0.0062494417652487755
v -0.00066780060296878219 0.0033747917041182518 -0.014308995567262173
v -0.0040570157580077648 -0.0031401712913066149 -0.0073123080655932426
v -0.0034173920284956694 -0.004179738461971283 -0.0067571322433650494
v -0.0058667287230491638 -0.0049339169636368752 -0.006216131616383791
v -0.0062914863228797913 -0.0033843833953142166 -0.0071907169185578823
v 0.0037757260724902153 -0.0067644543014466763 -0.0066482597030699253
v 0.005486826878041029 -0.0073092388920485973 -0.0054150326177477837
v 0.0044131223112344742 -0.0080518294125795364 -0.0062908036634325981
v 0.0027362138498574495 -0.0048432759940624237 -0.0071614915505051613
v 0.0025840036105364561 -0.0068725906312465668 -0.0071936715394258499
v 0.0037803181912750006 -0.0054951803758740425 -0.0066524534486234188
v 0.0015944518381729722 -0.0050896983593702316 -0.0074777817353606224
v 0.0012914143735542893 -0.0069935270585119724 -0.0074956677854061127
v 0.00072367524262517691 -0.0081085348501801491 -0.007553580217063427
v 0.00010743098391685635 -0.0048351171426475048 -0.0076383724808692932
v -0.00035141530679538846 -0.0071371281519532204 -0.0075791273266077042
v -0.00062252423958852887 0.0033847556915134192 -0.012339717708528042
v -0.0020274042617529631 -0.0067031173966825008 -0.0073043815791606903
v -0.0024903086014091969 -0.0048461300320923328 -0.0071619413793087006
v -0.0034590493887662888 -0.0051124123856425285 -0.0067157787270843983
v -0.0046585411764681339 -0.0067051318474113941 -0.0059091192670166492
v -0.0034730348270386457 -0.006792719941586256 -0.0066969585604965687
v 0.0016813025576993823 -0.0090280631557106972 -0.0074414811097085476
v 0.0047855302691459656 -0.0049709202721714973 -0.0061795124784111977
v 0.003662685165181756 -0.0041755628772079945 -0.0067564519122242928
v 0.003133874386548996 -0.0086419666185975075 -0.0069865728728473186
v -0.0017429671715945005 0.003372623585164547 -0.014626140706241131
v -0.0028832538519054651 -0.0086451452225446701 -0.0069874059408903122
v -0.0014301490737125278 -0.0090297069400548935 -0.0074419118463993073
v -0.00052628433331847191 -0.0082983942702412605 -0.0075750574469566345
v -0.0041633173823356628 -0.0080563593655824661 -0.0062919906340539455
v -0.0052380478009581566 -0.0073149041272699833 -0.0054165171459317207
v 0.0071569737046957016 -0.0045858989469707012 -0.0064769098535180092
v -0.0017653027316555381 0.0033843535929918289 -0.012299894355237484
v 0.005080066155642271 -0.0039708283729851246 -0.0068665291182696819
v 0.0075949504971504211 -0.0031340161804109812 -0.0073106954805552959
v 0.0054178694263100624 -0.0030529054347425699 -0.0073382388800382614
v 0.0062912371940910816 -0.0036506387405097485 -0.0070511400699615479
v 0.0043009859509766102 -0.003135754493996501 -0.0073111499659717083
v -0.0023839604109525681 0.0033888751640915871 -0.011339456774294376
v 0.006756157148629427 -0.0060654878616333008 -0.005544793326407671
v -0.0034899979364126921 0.0033806071151047945 -0.012861885130405426
v 0.0063149859197437763 -0.0064388210885226727 -0.0064557772129774094
v 0.005433838814496994 0.003469670657068491 -0.022619158029556274
v -0.0045765223912894726 0.00335492636077106 -0.017957104369997978
v -0.0048907888121902943 0.0033999420702457428 -0.0088912779465317726
v -0.0040532490238547325 0.0033944142051041126 -0.010067603550851345
v -0.0035542047116905451 0.0033876488450914621 -0.011460109613835812
v 0.0049953581765294075 0.0033983259927481413 -0.010255941189825535
v 0.0051156245172023773 -0.0073988428339362144 -0.0078022237867116928
v 0.0038964678533375263 -0.0046059060841798782 -0.018411651253700256
v 0.0037412687670439482 -0.0039708553813397884 -0.019622469320893288
v 0.0036101760342717171 -0.0033991567324846983 -0.02054513618350029
v 0.0031354683451354504 -0.0031843476463109255 -0.021223206073045731
v 0.0030386911239475012 -0.0025216683279722929 -0.022042872384190559
v 0.0030002126004546881 -0.0017611522926017642 -0.022759398445487022
v 0.0025756610557436943 -0.0011686923680827022 -0.023456031456589699
v 0.0020563961006700993 -0.00054673949489369988 -0.024048140272498131
v -0.0015635081799700856 0.0034678953234106302 -0.025489665567874908
v 0.0040094987489283085 -0.0052129938267171383 -0.017101164907217026
v 0.0040831291116774082 -0.0057741990312933922 -0.015724493190646172
v 0.0041144099086523056 -0.006287955678999424 -0.01431965921074152
v 0.0044672787189483643 -0.0067658298648893833 -0.012114814482629299
v 0.0043581784702837467 -0.0073410873301327229 -0.010409286245703697
v 0.0045475810766220093 -0.0076779942028224468 -0.0085102831944823265
v 0.0015877088299021125 -0.0086976364254951477 -0.0095154894515872002
v 0.00036937053664587438 0.0037739765830338001 -0.025676095858216286
v 0.0012351969489827752 0.003677793312817812 -0.025609401986002922
v -0.00023538124514743686 0.004503957461565733 -0.025737188756465912
v -0.0013735692482441664 0.0042911157943308353 -0.025543823838233948
v 0.0055907308124005795 0.0033635105937719345 -0.017459521070122719
v 0.00087525078561156988 0.0045603923499584198 -0.025690674781799316
v 0.0012947762152180076 0.0024975801352411509 -0.0077567854896187782
v 0.0039112432859838009 -0.0026103665586560965 -0.021207833662629128
v 0.001201229402795434 -0.00050728960195556283 -0.024220196530222893
v -0.0029269668739289045 0.0033974840771406889 -0.009577128104865551
v 0.0021658563055098057 0.0044114873744547367 -0.025380684062838554
v -0.0017747419187799096 0.0034010126255452633 -0.008998507633805275
v 0.0013565163826569915 0.0055681038647890091 -0.025545530021190643
v 0.0022955096792429686 0.0062970276921987534 -0.024079181253910065
v 0.0026196851395070553 0.0064707337878644466 -0.023198679089546204
v 0.0035244259051978588 0.005932230968028307 -0.022969720885157585
v -0.0067601706832647324 0.0025815714616328478 -0.012903416529297829
v 0.0015499703586101532 0.0067949416115880013 -0.023654870688915253
v 0.0015123835764825344 0.0064476556144654751 -0.024733243510127068
v 0.0005303717334754765 0.00684372428804636 -0.02425871230661869
v -0.0033273051958531141 0.0058332644402980804 -0.023075724020600319
v -0.00082327157724648714 -0.0059246686287224293 -0.0076474971137940884
v -0.0023948638699948788 0.006424101535230875 -0.023388264700770378
v -0.00026481261011213064 0.0069459220394492149 -0.023777719587087631
v -0.0012239096686244011 0.0068194097839295864 -0.023665871471166611
v -0.0018620259361341596 0.0062743043527007103 -0.024560032412409782
v -0.00058227498084306717 0.006703084334731102 -0.024637818336486816
v 0.0040879924781620502 -0.0072415294125676155 -0.01135545689612627
v 0.0076097561977803707 -0.0016709469491615891 -0.011794637888669968
v -0.0061956965364515781 0.0033775244373828173 -0.0087615968659520149
v 0.0025752699002623558 0.0033970016520470381 -0.010247783735394478
v -0.0034418297000229359 0.0044639818370342255 -0.024440726265311241
v -0.0036535747349262238 0.0031584710814058781 -0.024467302486300468
v -0.0040922220796346664 0.0050516244955360889 -0.023268075659871101
v -0.0043551125563681126 0.0038206605240702629 -0.023651549592614174
v -0.0046310038305819035 0.0050957100465893745 -0.022107701748609543
v -0.0064930408261716366 0.0023962357081472874 -0.019645450636744499
v -0.0064012436196208 0.0032503337133675814 -0.015038419514894485
v 0.0039652963168919086 0.0033985059708356857 -0.010095042176544666
v 0.00034857261925935745 0.0034015821292996407 -0.0091075729578733444
v -0.006463285069912672 0.0032565244473516941 -0.013530703261494637
v -0.0064094755798578262 0.0032349086832255125 -0.016547370702028275
v -0.00642418023198843 0.0032219684217125177 -0.018056325614452362
v 0.0018624678486958146 0.0034030841197818518 -0.0089682340621948242
v -0.0037007203791290522 -0.001649370533414185 -0.0077375415712594986
v -0.0039772666059434414 -0.00033898654510267079 -0.0077437791042029858
v -0.0065776496194303036 0.0032628565095365047 -0.012025963515043259
v -0.0044066323898732662 0.0015108382795006037 -0.0077527891844511032
v -0.0067195557057857513 0.00326504185795784 -0.010523541830480099
v -0.0062656290829181671 0.0032254511024802923 -0.019149783998727798
v -0.0057644187472760677 0.0031814051326364279 -0.021794110536575317
v 0.0042816810309886932 0.0034104548394680023 -0.0077608050778508186
v 0.0035234701354056597 0.0021898492705076933 -0.0077549740672111511
v 0.0026164436712861061 0.003409575205296278 -0.007761035580188036
v 0.0049264761619269848 0.002210013335570693 -0.0077548744156956673
v -0.0040445053018629551 0.0034060566686093807 -0.0077619575895369053
v -0.00039534282404929399 -0.00044847495155408978 -0.0077426922507584095
v 0.00095120642799884081 0.0034086955711245537 -0.0077612660825252533
v -0.0068549034185707569 0.0031564226374030113 -0.0095441862940788269
v 0.0066900863312184811 -0.0026674710679799318 -0.015985116362571716
v 0.006468628067523241 -0.0043813684023916721 -0.013240535743534565
v -0.0068037486635148525 0.0034044727217406034 -0.0077838567085564137
v -0.006620258092880249 0.0024073724634945393 -0.018655501306056976
v -0.0066748750396072865 0.0023995761293917894 -0.017556784674525261
v -0.0066421935334801674 0.001381615293212235 -0.019214045256376266
v -0.0060622869059443474 0.0031288943719118834 -0.020526658743619919
v -0.0068408288061618805 0.0008614248363301158 -0.018041126430034637
v -0.0052925404161214828 0.0023186495527625084 -0.022727660834789276
v -0.0059164632111787796 0.0020805187523365021 -0.021635975688695908
v -0.0045402934774756432 0.0026753537822514772 -0.023670436814427376
v -0.0050568445585668087 0.0032509265001863241 -0.022970827296376228
v 0.00034236419014632702 0.0033454338554292917 -0.02066514827311039
v 0.0020935260690748692 0.0054272147826850414 -0.021761773154139519
v -0.0063459239900112152 0.001731007476337254 -0.020507907494902611
v -0.0069743888452649117 0.00063124980079010129 -0.016825418919324875
v -0.0067514567635953426 0.0022037881426513195 -0.016601160168647766
v -0.0067236828617751598 0.0023419419303536415 -0.015527278184890747
v -0.0067451102659106255 0.0024162251502275467 -0.014136237092316151
v -0.0072859753854572773 0.00039037677925080061 -0.012506099417805672
v -0.0069205062463879585 0.0023779016919434071 -0.011746336705982685
v -0.0071746297180652618 0.00045535588287748396 -0.014010307379066944
v -0.007075547706335783 0.0022128275595605373 -0.010444874875247478
v -0.0072317421436309814 0.0019968019332736731 -0.0092023583129048347
v 0.0073705860413610935 -0.00024660932831466198 -0.015027373097836971
v -0.0049052927643060684 0.0023998734541237354 -0.0077573498710989952
v -0.0075525427237153053 1.4061520232644398e-05 -0.0098106879740953445
v -0.0055952593684196472 0.0013510312419384718 -0.0077523053623735905
v -0.0074237552471458912 0.00022057123715057969 -0.011096175760030746
v -0.0070784571580588818 0.00049785658484324813 -0.015486114658415318
v -0.006856339517980814 -0.00019347674970049411 -0.017638342455029488
v -0.0070260921493172646 -0.00037490465911105275 -0.016315994784235954
v -0.0074161938391625881 -0.00068071822170168161 -0.011985043995082378
v -0.0075291688553988934 -0.00085417804075405002 -0.010631567798554897
v -0.0071592736057937145 -0.0006318743689917028 -0.014856784604489803
v -0.0063373181037604809 0.0004771165840793401 -0.020259026437997818
v -0.0059578530490398407 0.00090226600877940655 -0.021430596709251404
v -0.0038411864079535007 0.0019486341625452042 -0.02429305762052536
v -0.0046929134987294674 0.0015131763648241758 -0.023472651839256287
v -0.0054185250774025917 0.0012026476906612515 -0.022482987493276596
v -0.0028305468149483204 0.0023310359101742506 -0.024895710870623589
v -0.0066331676207482815 8.0621088272891939e-05 -0.018960921093821526
v -0.0073019349947571754 -0.0005598753341473639 -0.013360276818275452
v -0.0077741406857967377 -0.0011484352871775627 -0.0079588498920202255
v -0.006266317330300808 0.0025326283648610115 -0.0077913044951856136
v -0.0075148125179111958 0.00013285658496897668 -0.0077465237118303776
v -0.0053557632490992546 1.1394528883101884e-05 -0.0077453772537410259
v 0.0021735802292823792 0.0018765445565804839 -0.0077536404132843018
v -0.0065499581396579742 -0.0021868543699383736 -0.0076017524115741253
v -0.0050981608219444752 -0.0014611032092943788 -0.0077097099274396896
v 0.0045905513688921928 -0.0070864106528460979 -0.0061012399382889271
v -0.0052476460114121437 -0.0027934426907449961 -0.0074322824366390705
v -0.0024954054970294237 -0.0048022200353443623 -0.0077218087390065193
v -0.0034089048858731985 -0.0039920983836054802 -0.0077258781529963017
v -0.0013099054340273142 -0.0050923996604979038 -0.0077202212996780872
v 0.0035506356507539749 0.0003893279645126313 -0.0077462112531065941
v -0.00071403087349608541 0.0034078159369528294 -0.0077614965848624706
v 0.0054249349050223827 -0.0011694914428517222 -0.0077345916070044041
v 0.00073861953569576144 0.0013664833968505263 -0.0077513614669442177
v 0.0078179687261581421 -0.0011350963031873107 -0.0077381939627230167
v 0.0064783887937664986 -0.0022582984529435635 -0.0075867893174290657
v 0.0049287471920251846 -0.0021443925797939301 -0.0076309703290462494
v 0.00069931440521031618 -0.0011231387034058571 -0.0077392556704580784
v 0.0079544177278876305 0.00016068665718194097 -0.0079633034765720367
v 0.00078327162191271782 8.8727982074487954e-05 -0.0077451393008232117
v 0.007176591083407402 0.00058720528613775969 -0.017352133989334106
v 0.0068612075410783291 0.00078269134974107146 -0.019289549440145493
v -0.0026202097069472075 6.9523201091215014e-05 -0.0077455253340303898
v 0.0054203658364713192 0.0019678189419209957 -0.022972386330366135
v 0.0065422039479017258 0.0011910180328413844 -0.020619764924049377
v 0.0060400199145078659 0.0015824857400730252 -0.021912381052970886
v -0.00054809852736070752 -0.001625670469366014 -0.0077369869686663151
v 0.0011585195316001773 -0.0030016989912837744 -0.022324861958622932
v 0.0072645219042897224 0.00021652042050845921 -0.016262775287032127
v 0.0074531286954879761 0.00019209862512070686 -0.014041491784155369
v 0.0075569353066384792 -0.00011121318675577641 -0.012731133028864861
v 0.0076863300055265427 -0.00012332071491982788 -0.011084712110459805
v 0.0078046191483736038 0.00013385131023824215 -0.0095796603709459305
v 0.00063794513698667288 -0.005992385558784008 -0.007582745049148798
v -0.0021591295953840017 -0.0031884387135505676 -0.0077296118251979351
v 0.0035215204115957022 0.0047497507184743881 -0.024526543915271759
v 0.0040786722674965858 0.0035575421061366796 -0.02432405948638916
v 0.0041884784586727619 0.0051999753341078758 -0.02325030043721199
v 0.0048609031364321709 0.0035196810495108366 -0.023493129760026932
v 0.0048712925054132938 0.0051007294096052647 -0.022106386721134186
v -0.0068226796574890614 0.0015442741569131613 -0.017231661826372147
v -0.0069404528476297855 -0.0012689732247963548 -0.015872567892074585
v 0.0042963107116520405 0.0056105926632881165 -0.022264862433075905
v -0.001521200523711741 0.0067720608785748482 -0.022426307201385498
v -1.6751755538280122e-05 0.0069140228442847729 -0.02219846285879612
v -0.0029580383561551571 0.0062638632953166962 -0.02230953611433506
v -0.0040565156377851963 0.0056061809882521629 -0.022266017273068428
v 0.00048494859947822988 0.006964606698602438 -0.023209869861602783
v 0.0015951615059748292 0.0068335589021444321 -0.022293437272310257
v 0.0031023451592773199 0.0062149139121174812 -0.022178201004862785
v -0.0030508495401591063 0.0056794732809066772 -0.024097425863146782
v -0.002555373590439558 -0.0019150689477100968 -0.0077358619309961796
v 0.0060066431760787964 0.0031876212451606989 -0.02179248072206974
v -0.00076312728924676776 -0.0028069976251572371 -0.0077312705107033253
v 0.006586254108697176 0.0032149071339517832 -0.019560914486646652
v 0.0029106400907039642 -0.0012841812567785382 -0.0077381604351103306
v 0.0027504041790962219 0.00024193624267354608 -0.0077456068247556686
v 0.0033488648477941751 0.0033487265463918447 -0.020142976194620132
v 0.0067113414406776428 0.0031555895693600178 -0.01344566885381937
v 0.0041371136903762817 -0.0014057330554351211 -0.0077263107523322105
v 0.0031019069720059633 0.0036294411402195692 -0.024933073669672012
v 0.0069585773162543774 0.0032722640316933393 -0.010521587915718555
v 0.0068653891794383526 0.0031524582300335169 -0.012025532312691212
v 0.0014539192197844386 -0.0041687008924782276 -0.0077262385748326778
v 0.0015162552008405328 -0.0030560153536498547 -0.0077297375537455082
v 0.0024824398569762707 -0.0027511885855346918 -0.0077310847118496895
v 0.0065768067725002766 0.0032301321625709534 -0.014891870319843292
v -0.00053707970073446631 -0.0029196967370808125 -0.022451383993029594
v -0.0022032598499208689 0.0013857082230970263 -0.0077518695034086704
v -0.0023792681749910116 0.003406936302781105 -0.007761727087199688
v 0.0063610230572521687 0.0033689946867525578 -0.016490751877427101
v 0.0064782244153320789 0.003361609997227788 -0.018035102635622025
v -0.0067002121359109879 -0.0053252112120389938 -0.0071483580395579338
v 0.0070179919712245464 0.0033209619577974081 -0.0092695429921150208
v 0.0070418603718280792 0.0034117863979190588 -0.0077819414436817169
v 0.0049581900238990784 0.0034042603801935911 -0.009058736264705658
v 0.0058148591779172421 0.0025855172425508499 -0.022258242592215538
v 0.0052796569652855396 0.0028140060603618622 -0.023087108507752419
v 0.0068183327093720436 0.001939076348207891 -0.019531784579157829
v 0.0063989772461354733 0.0024300382938235998 -0.02094678021967411
v 0.0046361084096133709 0.0024611072149127722 -0.023863816633820534
v 0.0034773913212120533 0.0025328714400529861 -0.024708721786737442
v -0.00073696515755727887 0.0014140185667201877 -0.0077518005855381489
v 0.0076497010886669159 0.0013525104150176048 -0.0090723065659403801
v 0.0070611168630421162 0.0014335793675854802 -0.018133014440536499
v 0.0071654198691248894 0.0013301022117957473 -0.016646232455968857
v 0.0072923186235129833 0.0010097482008859515 -0.015068271197378635
v 0.0073732146993279457 0.0010837460868060589 -0.013464180752635002
v 0.0074761491268873215 0.0010652872733771801 -0.011963238008320332
v 0.0075750560499727726 0.0011617570417001843 -0.010480642318725586
v 0.0077622397802770138 -0.0017762710340321064 -0.010089472867548466
v 0.00746498117223382 0.0018049658974632621 -0.0077525461092591286
v 0.0066665420308709145 0.00077980116475373507 -0.0077475439757108688
v 0.005420515313744545 0.0033743097446858883 -0.015350463800132275
v 0.0056296782568097115 0.0033817703370004892 -0.014023615047335625
v 0.0050747818313539028 0.0033668461255729198 -0.016560686752200127
v 0.0059469183906912804 0.0034113235305994749 -0.0077605745755136013
v 0.0059654861688613892 0.0033990864176303148 -0.0098423846065998077
v 0.005475594662129879 0.0032927037682384253 -0.020160647109150887
v 0.0052788080647587776 0.0033598358277231455 -0.018646761775016785
v 0.0057301712222397327 0.0033874684013426304 -0.012691671028733253
v -0.00066226586932316422 0.0033454445656388998 -0.020524481311440468
v 0.0016065493691712618 0.0033459719270467758 -0.020701680332422256
v 0.0056701493449509144 0.0033941820729523897 -0.011221461929380894
v -0.005605457816272974 0.0033533787354826927 -0.018312588334083557
v -0.0052300933748483658 0.0033485942985862494 -0.019222278147935867
v -0.0023181503638625145 0.003345185425132513 -0.020358603447675705
v 0.0026171477511525154 0.0033466191962361336 -0.020665727555751801
v 0.0047305221669375896 0.0033830937463790178 -0.013285897672176361
v 0.0044318567961454391 0.0033447230234742165 -0.020739901810884476
v -0.0040063760243356228 0.0033427374437451363 -0.020511267706751823
v -0.0050159548409283161 0.003339977003633976 -0.021067477762699127
v -0.004863071721047163 0.0033439446706324816 -0.020118003711104393
v -0.0054713510908186436 0.0033658812753856182 -0.015768913552165031
v -0.0055088303051888943 0.0033527049235999584 -0.01718498207628727
v -0.0054712267592549324 0.0033739728387445211 -0.014306546188890934
v -0.0055290600284934044 0.0033808355219662189 -0.012847072444856167
v -0.0056089782156050205 0.0033874406944960356 -0.01143923494964838
v -0.0055759977549314499 0.0033924379386007786 -0.010034444741904736
v -0.0057097426615655422 0.0034051660913974047 -0.0077621880918741226
v 0.0054125655442476273 0.0010047511896118522 -0.0077489428222179413
v -0.0022822741884738207 0.0050789676606655121 -0.025085024535655975
v -0.0072251935489475727 0.0017972136847674847 -0.0077545796521008015
v -0.0043839574791491032 -0.0025670924223959446 -0.0077329468913376331
v 0.0027415617369115353 -0.0047991471365094185 -0.0077210837043821812
v 0.0036538881249725819 -0.0039883661083877087 -0.0077249002642929554
v 0.0046274471096694469 -0.0025623147375881672 -0.0077317003160715103
v 0.0019489708356559277 -0.0075792903080582619 -0.013141212053596973
v -0.004276603925973177 -0.006825973279774189 -0.011489632539451122
v -0.0012436803663149476 -0.0071431063115596771 -0.014771832153201103
v -0.0014868656871840358 -0.0076216822490096092 -0.013184460811316967
v 0.0022654850035905838 -0.0079576252028346062 -0.011503198184072971
v -0.0010542706586420536 -0.0066380170173943043 -0.016207087785005569
v -0.0042159948498010635 -0.0072312150150537491 -0.010152087546885014
v 0.0020709491800516844 -0.0069993888027966022 -0.014760571531951427
v -0.0012237828923389316 -0.0081335492432117462 -0.011622406542301178
v 0.0073009957559406757 0.0022927271202206612 -0.0098943430930376053
v 0.0024730516597628593 -0.0082609858363866806 -0.01009365264326334
v -0.0043153534643352032 -0.0063696932047605515 -0.012879346497356892
v 0.0049484153278172016 -0.0054237511940300465 -0.014738798141479492
v -0.0010335034457966685 -0.0085377395153045654 -0.010231144726276398
v 0.0025153716560453176 -0.008569786325097084 -0.008615836501121521
v 0.0049917013384401798 -0.0059428834356367588 -0.013149214908480644
v 0.0019805124029517174 -0.005964142270386219 -0.0073615587316453457
v -0.0010759059805423021 -0.0088503286242485046 -0.0088545139878988266
v 0.007216332945972681 0.0021801763214170933 -0.011269069276750088
v 0.0021262692753225565 -0.0064358515664935112 -0.016194757074117661
v -0.00087458133930340409 -0.0060724420472979546 -0.017586948350071907
v 0.0069733085110783577 -0.00026427966076880693 -0.0078586535528302193
v 0.0052981739863753319 -0.0061554997228085995 -0.011600947938859463
v 0.0054140454158186913 -0.0068423529155552387 -0.0086725363507866859
v 0.0071181226521730423 0.0021335873752832413 -0.012732882983982563
v -0.0023511666804552078 0.0023479452356696129 -0.007756571751087904
v 0.00037615594919770956 0.0061830435879528522 -0.02515588141977787
v 0.0048655867576599121 -0.0049125743098556995 -0.016162237152457237
v -0.0043483446352183819 -0.0058174319565296173 -0.014437522739171982
v 0.0052729374729096889 -0.0065753576345741749 -0.010182778351008892
v -0.00070441613206639886 -0.0054475674405694008 -0.018889177590608597
v -0.0064020552672445774 -0.0040949969552457333 -0.012857425026595592
v -0.0043124998919665813 -0.0074851005338132381 -0.0088412370532751083
v 0.0021567489020526409 -0.0058396495878696442 -0.017540322616696358
v 0.0060126176103949547 -0.0047177970409393311 -0.0063697556033730507
v 0.0070224450901150703 0.0021530936937779188 -0.014229044318199158
v -0.006428147666156292 0.00051962898578494787 -0.0077481684274971485
v -0.0019255919614806771 -0.005685906857252121 -0.0073979683220386505
v -0.0031895909924060106 0.0033458289690315723 -0.019985279068350792
v -0.0071285087615251541 -0.0040457802824676037 -0.0087881879881024361
v -0.00516487006098032 0.0042410651221871376 -0.021961819380521774
v 0.0054060230031609535 0.0042466437444090843 -0.021960355341434479
v 0.0047537633217871189 -0.0043626041151583195 -0.01752438023686409
v -0.0066149560734629631 -0.004281394649296999 -0.011297857388854027
v -0.0028654695488512516 -0.0076211602427065372 -0.0069696763530373573
v -0.00084949890151619911 -0.003820471465587616 -0.021351408213376999
v 0.0068344115279614925 -0.0029489290900528431 -0.014783576130867004
v 0.0021650735288858414 -0.0052202441729605198 -0.018750881776213646
v -0.0039914357475936413 -0.0054618874564766884 -0.015992192551493645
v 0.0045941122807562351 -0.0037489533424377441 -0.018819855526089668
v -0.0068945791572332382 0.0014456716598942876 -0.016080038622021675
v -0.0065621300600469112 -0.0048187072388827801 -0.0097889518365263939
v -0.00716007174924016 -0.0013452828861773014 -0.013931972905993462
v 0.002081957645714283 -0.0046082884073257446 -0.019834209233522415
v 0.0073490464128553867 -0.0039378819055855274 -0.0088661331683397293
v 0.0043588867411017418 -0.0078917136415839195 -0.0074331802316009998
v -0.0037880931049585342 -0.0081100873649120331 -0.0072107105515897274
v 1.7163834854727611e-05 0.0024174666032195091 -0.0077565754763782024
v -0.0064475345425307751 -0.00068929611006751657 -0.0078226858749985695
v 0.0024195993319153786 0.0056310095824301243 -0.024792462587356567
v 0.0069326218217611313 0.0022681416012346745 -0.015766847878694534
v -0.0040177716873586178 -0.0058307182043790817 -0.0063726115040481091
v -0.0074367229826748371 0.0008073003264144063 -0.0088992724195122719
v -0.0055157081224024296 -0.0068937097676098347 -0.0070975376293063164
v 0.0057044816203415394 -0.0068564773537218571 -0.0075395992025732994
v 0.0021203916985541582 -0.0078814607113599777 -0.0073203779757022858
v -0.0021954115945845842 0.0046537816524505615 -0.021761117503046989
v -0.0062779807485640049 -0.003784621600061655 -0.014207647182047367
v 0.0077834022231400013 -0.0017728166421875358 -0.0085751116275787354
v 0.0047161523252725601 0.0033887000754475594 -0.01214617770165205
v -0.0031954960431903601 0.0041488688439130783 -0.021758802235126495
v -0.0048454101197421551 0.0041109872981905937 -0.022630587220191956
v -0.0050835907459259033 -0.0039545493200421333 -0.0068922587670385838
v 0.004865728784352541 0.0043159103952348232 -0.022871311753988266
v -0.0073250164277851582 0.0010985248954966664 -0.010153886862099171
v -0.0037100422196090221 -0.005051726009696722 -0.017331806942820549
v 0.0032208980992436409 -0.0076424391008913517 -0.0069223819300532341
v -0.00068751233629882336 -0.0047268187627196312 -0.020108949393033981
v -0.0013507497496902943 0.0033478846307843924 -0.019773507490754128
v 0.0076515316031873226 -0.00090627034660428762 -0.011872109025716782
v -0.0010590968886390328 -0.0040458296425640583 -0.0077250469475984573
v 0.0052690701559185982 -0.0073717455379664898 -0.0068244794383645058
v 0.0059284279122948647 -0.00012032690574415028 -0.0077429637312889099
v -0.0066377050243318081 -0.0051255645230412483 -0.0084115378558635712
v -0.0016964360838755965 -0.0079068504273891449 -0.0073709432035684586
v 0.0062430533580482006 0.0021042597945779562 -0.0077541670762002468
v -0.0071721132844686508 0.0013126339763402939 -0.011499626561999321
v -0.0076407436281442642 -0.001011598389595747 -0.0093465754762291908
v 0.003374945605173707 0.0034038280136883259 -0.0089789396151900291
v -0.0032447127159684896 -0.0026621539145708084 -0.00773232476785779
v 0.0062964484095573425 0.003201264189556241 -0.020676698535680771
v -0.00071294937515631318 0.0034017020370811224 -0.0089728757739067078
v 0.006948273628950119 -0.0033591096289455891 -0.013267708010971546
v 0.00086844293400645256 0.005001426674425602 -0.02176237478852272
v -0.0075941123068332672 -0.0019381804158911109 -0.0088534606620669365
v -0.0045569352805614471 0.0033835407812148333 -0.012199750170111656
v -0.0035128239542245865 -0.0045282142236828804 -0.018582047894597054
v -0.0069470019079744816 0.001453945180401206 -0.014725944958627224
v 0.0032963224221020937 -0.0030180837493389845 -0.0077296714298427105
v 0.0067195571027696133 0.0024594680871814489 -0.018505038693547249
v -0.0074714319780468941 -0.0019161547534167767 -0.010070859454572201
v 0.0072844312526285648 -0.0036442042328417301 -0.010305611416697502
v -0.0061384472064673901 -0.0034242682158946991 -0.015582439489662647
v 0.0068128551356494427 -0.0052936701104044914 -0.0071653928607702255
v -0.0072579849511384964 -0.0015196625608950853 -0.012817763723433018
v -0.0056812604889273643 -0.0027261280920356512 -0.018182886764407158
v 0.0078095556236803532 -0.00092018133727833629 -0.0099896341562271118
v -0.0013994226465001702 0.0023982443381100893 -0.0077566821128129959
v 0.0046753408387303352 -0.0062188464216887951 -0.0060396748594939709
v -0.0044641406275331974 0.0033766611013561487 -0.013610211201012135
v -0.0034221399109810591 -0.0038471787702292204 -0.019783256575465202
v 0.006861464586108923 0.0023987079039216042 -0.017265763133764267
v -0.0059129972942173481 -0.0030697055626660585 -0.016993703320622444
v 0.0040038013830780983 0.0033645385410636663 -0.016828583553433418
v 0.0028391147498041391 0.0033626984804868698 -0.017071321606636047
v -0.00016101732035167515 0.00334889255464077 -0.019564907997846603
v 0.0025226010475307703 0.003378439461812377 -0.01391972228884697
v -0.0035670474171638489 0.0033652747515588999 -0.015891401097178459
v -0.0012110336683690548 0.003379184752702713 -0.013381884433329105
v 0.0047518941573798656 0.0033620740287005901 -0.017542371526360512
v 0.0034757861867547035 0.0033938114065676928 -0.010973901487886906
v 0.0013587821740657091 0.0033915981184691191 -0.011191169731318951
v 0.0044249468483030796 0.0033938139677047729 -0.011088579893112183
v -0.002368187764659524 0.003379008499905467 -0.013295841403305531
v -0.002006548224017024 0.0033943974412977695 -0.01028485968708992
v -0.00066082511330023408 0.0033696622122079134 -0.015325913205742836
v 0.00036575554986484349 0.0033729847054928541 -0.014775007963180542
v -0.00071172107709571719 0.0033963988535106182 -0.010023648850619793
v -0.0025276006199419498 0.0033667250536382198 -0.015712723135948181
v -0.0029849451966583729 0.003392594400793314 -0.010539780370891094
v -0.003776337718591094 0.0034000540617853403 -0.0089791929349303246
v 0.0025195840280503035 -0.0036313824821263552 -0.0077267964370548725
v 0.0018983263289555907 -0.0018913955427706242 -0.0077353492379188538
v 0.00028666295111179352 -0.0035440188366919756 -0.0077278111129999161
v -0.0029785714577883482 0.0034023174084722996 -0.0086141722276806831
v 0.0020261646714061499 -0.00052959664026275277 -0.007741956040263176
v 0.0041587022133171558 0.0011346354149281979 -0.0077497512102127075
v -0.0035365379881113768 0.00091930071357637644 -0.0077497889287769794
v 0.0019025109941139817 0.00069197430275380611 -0.0077479160390794277
v 0.00050470489077270031 -0.0023414883762598038 -0.0077333562076091766
v -0.0045769917778670788 0.00069010542938485742 -0.0077488203532993793
v -0.0017123818397521973 -0.00094506435561925173 -0.0077404617331922054
v -0.0013218598905950785 0.00034157163463532925 -0.0077466657385230064
v -0.00019833371334243566 0.00055614352459087968 -0.0077475514262914658
v 0.0071633858606219292 -0.0034366748295724392 -0.011754853650927544
v 0.0018946188502013683 -0.0040662288665771484 -0.02074248343706131
v 0.004557950422167778 -8.5996965935919434e-05 -0.007743756752461195
v 0.0078939469531178474 -0.00085679395124316216 -0.0088664945214986801
v -0.0015560452593490481 -0.0020955109503120184 -0.0077348435297608376
v -0.0033644586801528931 -0.0031186051201075315 -0.020861243829131126
v 0.0032191015779972076 -0.002152689266949892 -0.0077338917180895805
v -0.0034066759981215 0.0021968416403979063 -0.0077559850178658962
v 0.0030030063353478909 0.0010897987522184849 -0.0077496962621808052
v 0.0031867544166743755 0.0058265030384063721 -0.023874670267105103
v 0.0033147609792649746 -0.00044416068703867495 -0.0077421898022294044
v -0.0029203591402620077 -0.00095472839893773198 -0.007740585133433342
v -0.0036562646273523569 0.0033591268584132195 -0.017100108787417412
v 0.0031771620269864798 0.0033521861769258976 -0.019189359620213509
v -0.0019393173279240727 0.0033567091450095177 -0.017758559435606003
v 0.0015464340103790164 0.0033522145822644234 -0.019013287499547005
v 0.0026130254846066236 0.0033724827226251364 -0.015109308063983917
v 0.0010446371743455529 0.0033676058519631624 -0.015911595895886421
v 0.00131767219863832 0.003397779306396842 -0.0099622607231140137
v -2.9427366825984791e-05 0.003390562254935503 -0.011251273564994335
v -0.00053358607692644 0.0033641639165580273 -0.016428558155894279
v -6.3738167227711529e-05 0.0033793149050325155 -0.01347598060965538
v -0.00033780891681089997 0.0033592234831303358 -0.017427759245038033
v 0.0015646495157852769 0.0033619378227740526 -0.017088882625102997
v -0.0021578860469162464 0.0033614968415349722 -0.016787173226475716
v 0.0019062071805819869 0.0033848588354885578 -0.012583518400788307
v 0.0043511553667485714 -0.0031594710890203714 -0.020035335794091225
v -0.007358781062066555 -0.0017526246374472976 -0.011481223627924919
v -0.0035038408823311329 0.0033538930583745241 -0.018152950331568718
v 0.0065242736600339413 -0.00099135295022279024 -0.0077634924091398716
v 0.0037362563889473677 0.0033804206177592278 -0.013654077425599098
v -0.0027182137127965689 0.0033841454423964024 -0.012241572141647339
v 0.007366634439677 0.0024585581850260496 -0.0087548289448022842
v 0.002979248994961381 -0.0059885121881961823 -0.0070218965411186218
v -0.0028986935503780842 -0.0058296243660151958 -0.0069424863904714584
f 2 319 1
f 283 276 56
f 4 598 605
f 4 342 372
f 5 469 90
f 9 8 10
f 5 87 470
f 12 15 14
f 16 17 18
f 642 12 13
f 19 20 646
f 646 20 16
f 20 19 21
f 17 22 23
f 104 341 151
f 23 22 24
f 6 95 84
f 29 26 28
f 30 29 28
f 501 29 30
f 14 15 25
f 417 497 25
f 13 12 14
f 6 67 94
f 30 28 32
f 24 22 32
f 64 63 141
f 24 32 28
f 15 12 18
f 23 24 669
f 16 18 642
f 18 17 23
f 184 186 182
f 212 184 579
f 13 11 642
f 115 167 725
f 249 269 7
f 440 413 443
f 48 45 43
f 48 46 47
f 45 49 50
f 27 430 663
f 50 49 51
f 52 51 53
f 54 55 60
f 733 163 506
f 506 3 733
f 60 55 53
f 27 449 638
f 40 162 733
f 48 61 45
f 47 46 63
f 64 62 63
f 64 65 62
f 66 67 404
f 65 68 69
f 64 404 68
f 70 69 71
f 668 72 405
f 73 591 70
f 720 74 75
f 73 72 33
f 33 72 720
f 720 677 33
f 80 78 79
f 679 80 79
f 630 82 81
f 33 76 77
f 76 78 77
f 630 76 677
f 266 262 619
f 405 71 668
f 33 77 73
f 668 84 74
f 71 68 622
f 69 68 71
f 67 6 84
f 687 519 636
f 64 68 65
f 141 66 64
f 46 85 141
f 63 62 47
f 44 85 46
f 61 48 47
f 34 20 559
f 43 45 50
f 45 61 49
f 43 50 52
f 136 86 51
f 50 51 52
f 53 55 52
f 60 53 86
f 53 51 86
f 60 57 54
f 34 555 16
f 57 41 530
f 506 558 36
f 44 87 85
f 88 43 52
f 89 43 88
f 85 87 90
f 89 87 44
f 88 52 91
f 89 44 43
f 91 55 92
f 54 92 55
f 36 30 32
f 226 223 587
f 36 556 506
f 91 52 55
f 90 66 85
f 90 94 66
f 66 94 67
f 428 95 6
f 84 622 67
f 37 231 251
f 96 74 84
f 655 97 373
f 75 74 373
f 682 98 539
f 83 75 539
f 644 98 723
f 100 82 83
f 100 83 644
f 100 101 82
f 217 735 3
f 314 101 100
f 37 252 218
f 489 419 626
f 194 735 217
f 444 234 214
f 395 616 647
f 162 40 690
f 179 232 110
f 523 522 117
f 322 487 649
f 110 112 179
f 118 119 120
f 590 108 304
f 122 123 344
f 128 127 39
f 129 130 127
f 131 132 133
f 119 131 134
f 39 127 576
f 39 125 126
f 140 142 353
f 48 44 46
f 43 44 48
f 723 463 644
f 548 162 695
f 144 140 145
f 476 137 144
f 146 147 132
f 139 147 146
f 134 131 133
f 120 119 134
f 130 118 120
f 130 129 118
f 76 79 78
f 583 130 595
f 576 127 583
f 150 126 125
f 688 219 678
f 151 152 580
f 153 122 124
f 301 153 124
f 56 272 277
f 586 152 121
f 150 123 122
f 344 123 586
f 123 150 125
f 210 427 571
f 56 276 267
f 39 126 128
f 503 528 666
f 595 120 609
f 503 675 527
f 609 134 623
f 658 569 722
f 379 378 376
f 629 156 623
f 131 146 132
f 629 132 721
f 158 157 721
f 147 721 132
f 649 487 58
f 58 485 484
f 476 158 147
f 516 159 137
f 144 145 476
f 159 178 142
f 144 137 159
f 115 206 211
f 142 140 144
f 104 340 591
f 143 135 353
f 40 194 743
f 3 551 217
f 737 197 743
f 64 66 404
f 606 165 164
f 165 166 164
f 167 168 169
f 170 171 172
f 178 175 173
f 516 139 621
f 621 139 146
f 142 144 159
f 176 173 175
f 111 10 282
f 189 187 584
f 740 215 742
f 482 291 592
f 117 546 524
f 180 166 165
f 596 165 606
f 182 183 181
f 182 181 581
f 118 129 581
f 116 325 326
f 185 604 186
f 579 187 212
f 212 187 188
f 116 566 567
f 190 188 187
f 584 126 150
f 191 189 239
f 193 191 192
f 306 192 307
f 153 307 593
f 593 307 192
f 191 190 189
f 239 189 589
f 589 150 122
f 579 128 126
f 189 190 187
f 185 184 212
f 127 128 129
f 183 182 186
f 184 182 578
f 352 333 136
f 181 183 180
f 180 165 181
f 131 119 606
f 146 131 653
f 164 166 172
f 170 172 166
f 653 164 172
f 167 171 170
f 621 172 171
f 167 169 171
f 137 139 516
f 177 516 169
f 169 168 177
f 177 168 175
f 136 334 86
f 639 200 229
f 177 175 178
f 143 142 173
f 143 173 176
f 640 328 599
f 138 407 409
f 241 216 748
f 744 242 734
f 241 555 614
f 559 216 614
f 42 542 544
f 632 193 306
f 489 408 138
f 9 201 310
f 9 199 201
f 309 198 632
f 198 309 235
f 310 201 235
f 639 201 199
f 202 203 204
f 206 207 205
f 725 203 207
f 209 202 204
f 167 170 725
f 198 608 193
f 176 175 218
f 218 175 213
f 59 42 689
f 214 234 179
f 115 168 167
f 631 108 343
f 168 211 213
f 42 105 542
f 424 393 391
f 219 209 220
f 221 219 220
f 221 222 219
f 424 662 426
f 224 643 222
f 604 221 624
f 225 224 223
f 587 223 604
f 226 228 225
f 226 577 227
f 188 190 577
f 608 229 233
f 229 198 639
f 200 230 229
f 239 192 191
f 198 229 608
f 582 190 191
f 228 227 230
f 230 227 233
f 46 141 63
f 141 85 66
f 226 225 223
f 147 139 476
f 624 220 651
f 604 223 174
f 226 227 228
f 174 222 221
f 209 208 220
f 672 180 651
f 204 208 209
f 686 166 672
f 202 205 203
f 686 203 725
f 205 207 203
f 115 207 206
f 211 168 115
f 174 223 224
f 168 213 175
f 211 206 231
f 37 218 213
f 213 211 231
f 218 214 176
f 111 199 10
f 197 59 690
f 179 176 214
f 692 103 736
f 689 544 695
f 111 272 521
f 232 179 234
f 159 516 177
f 702 273 737
f 173 142 178
f 194 40 735
f 143 112 135
f 123 125 580
f 234 237 337
f 374 403 210
f 555 241 654
f 701 275 740
f 243 244 245
f 245 246 247
f 628 259 680
f 205 247 248
f 231 206 249
f 251 231 249
f 366 294 482
f 248 247 246
f 188 587 185
f 214 255 444
f 732 254 748
f 213 231 37
f 704 253 744
f 554 216 561
f 256 257 243
f 681 209 688
f 95 96 84
f 678 256 688
f 259 260 258
f 643 258 678
f 262 263 261
f 607 261 643
f 639 198 235
f 619 264 266
f 266 264 265
f 627 228 230
f 268 265 615
f 257 434 244
f 521 267 659
f 615 265 264
f 225 228 619
f 263 262 266
f 257 490 435
f 233 229 230
f 261 263 259
f 259 258 261
f 233 227 582
f 490 257 256
f 256 258 260
f 688 243 681
f 235 309 310
f 202 681 245
f 245 244 246
f 247 205 202
f 248 206 205
f 206 248 249
f 248 246 269
f 7 251 249
f 249 248 269
f 235 201 639
f 251 252 37
f 252 255 218
f 750 102 557
f 218 255 214
f 542 105 543
f 270 268 271
f 659 200 521
f 521 199 111
f 344 124 122
f 9 10 199
f 267 276 268
f 267 272 56
f 736 273 692
f 236 493 496
f 103 750 105
f 369 492 236
f 742 242 740
f 741 274 702
f 648 278 281
f 4 372 341
f 59 197 736
f 282 272 111
f 10 8 282
f 605 599 250
f 56 277 283
f 283 277 648
f 282 278 648
f 272 282 277
f 282 8 278
f 285 1 684
f 2 1 285
f 286 285 454
f 753 287 592
f 592 287 290
f 291 292 641
f 294 291 482
f 416 550 691
f 297 281 298
f 8 299 637
f 299 8 9
f 637 299 300
f 300 296 754
f 458 297 613
f 281 278 298
f 366 293 458
f 291 288 592
f 641 292 301
f 563 553 387
f 289 302 303
f 286 284 652
f 289 284 684
f 284 289 753
f 289 303 287
f 652 288 641
f 477 90 469
f 153 301 292
f 306 307 660
f 292 308 153
f 482 290 293
f 352 61 746
f 308 307 153
f 294 308 292
f 135 57 60
f 294 296 660
f 309 306 620
f 239 589 593
f 310 309 299
f 297 298 754
f 298 278 637
f 300 299 309
f 9 310 299
f 610 1 93
f 303 302 313
f 464 315 316
f 352 332 333
f 356 518 460
f 317 303 313
f 558 163 547
f 316 311 314
f 313 302 610
f 317 313 315
f 316 315 313
f 748 323 732
f 323 563 107
f 106 305 704
f 160 106 693
f 693 99 732
f 102 113 645
f 81 82 314
f 321 80 679
f 2 321 319
f 93 319 321
f 81 311 679
f 314 311 81
f 729 358 359
f 195 102 750
f 692 274 745
f 549 543 557
f 740 253 701
f 697 114 745
f 744 99 704
f 295 109 741
f 732 107 693
f 312 295 694
f 751 312 699
f 305 279 701
f 107 563 562
f 685 160 564
f 240 16 555
f 113 114 696
f 645 552 549
f 702 279 741
f 738 375 697
f 113 102 195
f 305 106 699
f 703 161 739
f 105 42 103
f 106 160 685
f 240 550 17
f 107 562 160
f 404 67 622
f 631 328 657
f 640 80 321
f 3 556 551
f 286 304 631
f 321 285 657
f 2 285 321
f 329 156 330
f 331 157 332
f 330 157 331
f 136 49 352
f 51 49 136
f 60 86 335
f 145 335 334
f 335 336 60
f 335 140 336
f 551 32 22
f 250 342 605
f 250 343 121
f 41 57 112
f 625 329 330
f 338 155 329
f 618 329 625
f 525 526 322
f 603 338 618
f 148 154 339
f 588 339 603
f 104 149 340
f 591 341 104
f 151 149 104
f 70 405 73
f 372 342 152
f 342 250 121
f 121 152 342
f 599 328 343
f 343 328 631
f 599 80 640
f 374 567 403
f 343 108 121
f 605 77 78
f 598 73 77
f 151 341 372
f 341 598 4
f 633 460 683
f 340 149 148
f 148 339 340
f 337 237 348
f 155 338 154
f 338 339 154
f 47 62 625
f 329 155 156
f 61 47 746
f 330 156 157
f 746 330 331
f 157 158 332
f 352 331 332
f 352 49 61
f 145 333 158
f 333 332 158
f 145 334 333
f 333 334 136
f 140 335 145
f 335 86 334
f 60 336 135
f 353 135 336
f 356 354 710
f 135 112 57
f 455 283 648
f 112 110 41
f 676 670 663
f 344 586 590
f 421 382 386
f 110 345 346
f 421 420 626
f 455 280 572
f 232 345 110
f 519 520 349
f 349 548 695
f 553 563 323
f 637 278 8
f 232 348 347
f 232 347 345
f 348 38 347
f 350 345 347
f 38 35 347
f 678 222 643
f 347 35 350
f 147 158 721
f 35 357 350
f 351 451 398
f 633 462 351
f 350 346 345
f 127 130 583
f 128 578 129
f 326 318 751
f 355 346 350
f 142 143 353
f 357 355 350
f 336 140 353
f 383 327 698
f 359 498 360
f 31 422 673
f 362 359 358
f 357 35 602
f 362 358 363
f 364 362 363
f 602 364 363
f 361 391 385
f 31 424 361
f 363 358 635
f 524 545 117
f 236 368 369
f 417 28 26
f 38 370 371
f 367 369 370
f 648 280 455
f 370 369 371
f 371 364 602
f 38 371 602
f 364 371 368
f 371 369 368
f 372 152 151
f 725 170 686
f 570 38 348
f 636 515 611
f 524 327 383
f 237 570 348
f 348 232 337
f 745 109 697
f 664 396 524
f 237 376 570
f 377 376 237
f 412 443 413
f 379 647 378
f 376 377 379
f 647 415 395
f 109 295 739
f 697 161 738
f 698 552 645
f 509 485 530
f 703 356 667
f 375 383 696
f 671 320 685
f 354 356 700
f 160 562 564
f 410 394 554
f 546 327 524
f 739 196 703
f 402 398 388
f 312 318 196
f 546 552 327
f 318 326 705
f 373 97 75
f 384 388 738
f 706 400 710
f 325 354 705
f 324 567 374
f 400 324 568
f 547 163 548
f 548 163 162
f 194 238 742
f 373 74 96
f 422 385 382
f 626 433 673
f 407 408 387
f 394 410 381
f 408 407 138
f 412 413 395
f 414 442 412
f 395 415 412
f 93 321 679
f 414 415 379
f 452 283 455
f 377 414 379
f 418 413 440
f 452 453 634
f 489 420 408
f 408 420 386
f 411 419 489
f 659 615 627
f 382 421 422
f 366 458 613
f 381 407 394
f 361 422 31
f 424 391 361
f 425 423 31
f 424 426 393
f 426 427 403
f 366 296 294
f 448 406 210
f 449 571 638
f 405 72 73
f 638 427 650
f 650 432 430
f 403 427 210
f 316 314 464
f 423 432 662
f 405 70 71
f 547 503 666
f 433 425 673
f 385 422 361
f 422 421 673
f 419 433 626
f 386 420 421
f 551 22 416
f 409 411 138
f 386 387 408
f 410 413 418
f 387 394 407
f 410 395 413
f 667 356 460
f 416 17 550
f 179 143 176
f 414 377 441
f 417 24 28
f 530 54 57
f 418 409 381
f 435 434 257
f 265 268 270
f 437 436 747
f 425 433 438
f 418 440 439
f 442 414 441
f 443 7 440
f 251 443 442
f 428 478 95
f 255 252 441
f 745 195 692
f 444 255 441
f 377 237 444
f 443 251 7
f 269 246 439
f 409 445 411
f 439 246 445
f 419 411 434
f 433 419 435
f 438 435 490
f 628 446 438
f 436 423 446
f 436 446 680
f 259 263 680
f 747 263 266
f 676 266 265
f 447 449 27
f 270 447 670
f 428 94 477
f 432 437 430
f 663 430 437
f 423 436 432
f 436 437 432
f 260 259 628
f 446 423 425
f 425 438 446
f 256 260 490
f 433 435 438
f 257 244 243
f 419 434 435
f 445 246 244
f 411 445 434
f 445 244 434
f 269 439 440
f 439 445 409
f 269 440 7
f 439 409 418
f 251 442 252
f 454 284 286
f 412 415 414
f 442 443 412
f 441 252 442
f 454 285 684
f 441 377 444
f 444 237 234
f 318 700 196
f 743 215 737
f 559 561 216
f 554 323 216
f 691 550 654
f 271 276 270
f 238 241 734
f 734 254 744
f 381 409 407
f 276 283 452
f 684 302 289
f 641 304 652
f 276 452 270
f 737 275 702
f 447 270 452
f 452 455 453
f 381 410 418
f 572 389 453
f 458 456 297
f 279 305 694
f 457 281 297
f 699 320 751
f 456 457 297
f 567 325 116
f 671 566 116
f 324 325 567
f 554 553 323
f 325 324 706
f 314 100 464
f 100 463 464
f 116 326 671
f 746 47 625
f 465 464 461
f 465 317 315
f 315 464 465
f 464 463 749
f 337 232 234
f 654 238 691
f 710 518 356
f 664 388 398
f 460 384 667
f 402 384 460
f 533 469 5
f 89 470 87
f 529 526 472
f 473 470 89
f 473 89 88
f 91 474 88
f 91 472 474
f 91 92 472
f 139 137 476
f 529 92 54
f 88 474 473
f 530 529 54
f 476 145 158
f 90 87 5
f 477 469 534
f 477 94 90
f 535 478 428
f 6 94 428
f 95 478 479
f 482 293 366
f 479 480 655
f 373 96 655
f 480 481 682
f 539 97 682
f 481 467 723
f 138 411 489
f 375 388 664
f 260 628 438
f 41 110 346
f 506 163 558
f 506 556 3
f 41 346 355
f 402 388 384
f 643 224 607
f 509 41 355
f 293 512 709
f 484 485 509
f 484 486 58
f 487 485 58
f 486 488 649
f 501 322 617
f 668 71 622
f 355 357 635
f 355 484 509
f 293 290 512
f 729 360 486
f 360 491 486
f 486 491 488
f 635 358 729
f 729 486 484
f 492 493 236
f 621 169 516
f 367 494 492
f 495 11 494
f 369 367 492
f 496 364 368
f 496 362 364
f 497 362 496
f 498 359 497
f 359 362 497
f 498 26 491
f 360 729 359
f 368 236 496
f 493 497 496
f 374 568 324
f 370 38 570
f 177 178 159
f 570 376 499
f 367 370 499
f 365 494 367
f 365 378 495
f 380 495 378
f 499 376 378
f 378 365 499
f 457 483 665
f 395 21 616
f 19 380 616
f 19 11 380
f 11 495 380
f 13 494 11
f 14 493 492
f 25 669 417
f 491 360 498
f 26 29 488
f 592 288 753
f 501 617 29
f 641 288 291
f 26 488 491
f 417 26 498
f 494 365 495
f 417 498 497
f 25 497 493
f 25 493 14
f 14 492 13
f 492 494 13
f 456 458 656
f 715 502 709
f 656 458 293
f 521 200 199
f 711 466 708
f 512 290 573
f 521 272 267
f 500 389 665
f 389 500 731
f 717 500 724
f 665 389 572
f 466 475 715
f 524 396 545
f 675 520 687
f 721 157 629
f 709 513 715
f 575 508 726
f 539 98 83
f 539 75 97
f 621 171 169
f 620 300 309
f 714 468 711
f 730 508 722
f 459 505 730
f 747 436 680
f 612 450 431
f 645 549 557
f 210 406 374
f 525 472 526
f 527 473 528
f 526 487 322
f 525 501 528
f 557 543 105
f 529 530 485
f 528 474 525
f 390 450 453
f 449 447 634
f 540 467 532
f 471 390 731
f 530 41 509
f 533 470 527
f 675 533 527
f 533 534 469
f 503 520 675
f 477 534 535
f 602 35 38
f 536 478 535
f 536 535 611
f 536 537 479
f 515 507 611
f 480 537 538
f 480 479 537
f 532 481 538
f 540 532 752
f 645 113 698
f 585 538 594
f 570 499 370
f 585 522 752
f 532 467 481
f 594 511 510
f 538 481 480
f 594 538 537
f 600 507 511
f 478 536 479
f 537 536 600
f 519 515 636
f 428 477 535
f 636 535 534
f 520 519 687
f 5 470 533
f 687 534 533
f 527 528 503
f 527 470 473
f 528 501 666
f 528 473 474
f 322 501 525
f 525 474 472
f 487 526 529
f 472 92 529
f 717 401 718
f 529 485 487
f 143 179 112
f 389 390 453
f 531 517 718
f 621 146 653
f 401 475 466
f 462 531 719
f 648 277 282
f 457 456 483
f 515 519 542
f 542 543 515
f 542 519 544
f 522 546 117
f 547 501 558
f 520 548 349
f 592 290 482
f 511 507 549
f 574 575 674
f 217 551 416
f 510 511 552
f 510 552 546
f 522 510 546
f 553 554 394
f 117 545 523
f 16 20 34
f 17 16 240
f 549 552 511
f 549 507 543
f 518 400 727
f 507 515 543
f 32 556 36
f 349 544 519
f 601 517 683
f 523 540 752
f 547 548 503
f 558 30 36
f 558 501 30
f 556 32 551
f 22 17 416
f 654 550 240
f 614 555 34
f 559 20 560
f 410 554 561
f 563 386 562
f 564 562 382
f 565 391 566
f 393 403 567
f 566 393 567
f 602 363 357
f 451 462 714
f 406 568 374
f 391 393 566
f 565 564 385
f 565 385 391
f 382 385 564
f 382 562 386
f 387 386 563
f 612 431 571
f 685 565 671
f 561 560 410
f 395 410 560
f 387 553 394
f 613 297 754
f 560 21 395
f 613 296 366
f 21 560 20
f 560 561 559
f 707 573 574
f 548 520 503
f 674 514 707
f 600 536 611
f 722 461 658
f 96 95 479
f 399 397 712
f 465 461 508
f 281 457 280
f 34 559 614
f 453 455 572
f 572 280 457
f 597 541 658
f 661 541 540
f 303 574 287
f 290 287 573
f 287 574 573
f 574 303 317
f 465 575 317
f 508 575 465
f 317 575 574
f 523 545 661
f 463 467 597
f 614 216 241
f 540 541 467
f 517 531 683
f 513 512 707
f 504 508 730
f 708 514 726
f 483 502 724
f 724 475 717
f 708 504 711
f 711 505 714
f 633 531 462
f 505 459 728
f 612 449 634
f 448 571 431
f 568 406 448
f 429 568 448
f 462 451 351
f 718 471 717
f 656 483 456
f 707 514 513
f 661 545 399
f 398 451 397
f 399 396 397
f 431 392 429
f 429 400 568
f 673 425 31
f 210 571 448
f 569 541 661
f 399 545 396
f 397 451 728
f 397 396 398
f 398 402 351
f 722 569 712
f 390 471 713
f 402 460 633
f 401 468 719
f 460 518 683
f 727 392 713
f 727 601 518
f 450 390 716
f 713 517 727
f 392 431 716
f 571 449 612
f 314 82 101
f 276 271 268
f 21 19 616
f 616 380 647
f 576 125 39
f 576 149 151
f 577 190 582
f 226 587 577
f 578 128 579
f 617 488 29
f 579 126 584
f 322 649 617
f 580 125 576
f 580 152 586
f 581 129 578
f 581 181 596
f 582 191 608
f 620 296 300
f 620 306 660
f 583 148 149
f 584 150 589
f 306 193 192
f 585 532 538
f 522 585 510
f 304 301 590
f 586 121 590
f 622 68 404
f 185 212 188
f 588 340 339
f 588 69 70
f 589 122 593
f 622 84 668
f 590 121 108
f 590 301 124
f 591 73 598
f 591 340 588
f 626 420 489
f 590 124 344
f 27 663 447
f 593 192 239
f 438 490 260
f 625 62 618
f 595 154 148
f 595 130 120
f 596 181 165
f 596 119 118
f 597 467 541
f 658 461 749
f 607 225 619
f 598 77 605
f 351 402 633
f 599 343 250
f 754 298 637
f 600 511 594
f 189 584 589
f 400 429 727
f 672 204 686
f 123 580 586
f 603 339 338
f 603 65 69
f 174 221 604
f 184 185 186
f 605 78 599
f 639 199 200
f 640 321 657
f 606 164 653
f 607 262 261
f 607 224 225
f 233 582 608
f 608 191 193
f 609 155 154
f 609 120 134
f 610 302 1
f 610 311 316
f 611 507 600
f 611 535 636
f 584 187 579
f 647 379 415
f 647 380 378
f 576 151 580
f 649 488 617
f 605 342 4
f 615 264 627
f 58 486 649
f 582 227 577
f 652 284 288
f 593 122 153
f 652 304 286
f 618 338 329
f 618 62 65
f 619 228 627
f 619 262 607
f 583 149 576
f 655 480 97
f 579 184 578
f 655 96 479
f 403 393 426
f 599 78 80
f 623 156 155
f 623 134 133
f 624 183 186
f 624 221 220
f 720 72 668
f 625 330 746
f 587 188 577
f 653 131 606
f 656 502 483
f 627 230 659
f 595 148 583
f 659 230 200
f 629 157 156
f 629 133 132
f 630 83 82
f 76 630 79
f 304 108 631
f 657 286 631
f 659 267 615
f 632 306 309
f 604 185 587
f 663 437 676
f 452 634 447
f 634 453 450
f 635 729 484
f 594 537 600
f 636 534 687
f 623 133 629
f 578 182 581
f 316 313 610
f 638 430 27
f 638 571 427
f 650 430 638
f 650 427 426
f 598 341 591
f 656 293 709
f 668 74 720
f 641 301 304
f 642 18 12
f 642 11 646
f 643 261 258
f 222 174 224
f 644 83 98
f 644 463 100
f 557 102 645
f 671 565 566
f 671 326 320
f 646 16 642
f 615 267 268
f 673 421 626
f 707 574 674
f 648 281 280
f 674 575 726
f 624 186 604
f 79 81 679
f 93 679 311
f 651 180 183
f 651 220 208
f 609 154 595
f 680 446 628
f 653 172 621
f 680 263 747
f 240 555 654
f 654 241 238
f 596 118 581
f 681 202 209
f 651 183 624
f 681 243 245
f 657 285 286
f 657 328 640
f 749 597 658
f 658 541 569
f 588 70 591
f 676 437 747
f 660 296 620
f 660 307 308
f 723 98 682
f 682 97 480
f 662 424 31
f 662 432 650
f 93 311 610
f 93 1 319
f 664 398 396
f 524 383 664
f 665 572 457
f 684 1 302
f 684 284 454
f 501 547 666
f 667 384 703
f 618 65 603
f 81 79 630
f 31 423 662
f 669 25 15
f 417 669 24
f 670 265 270
f 670 447 663
f 688 209 219
f 650 426 662
f 672 208 204
f 672 166 180
f 688 256 243
f 634 450 612
f 635 357 363
f 695 162 689
f 695 544 349
f 646 11 19
f 627 264 619
f 676 265 670
f 677 76 33
f 677 75 83
f 678 258 256
f 678 219 222
f 518 710 400
f 710 354 706
f 720 75 677
f 635 484 355
f 623 155 609
f 723 467 463
f 603 69 588
f 682 481 723
f 683 518 601
f 683 531 633
f 365 367 499
f 193 632 198
f 202 245 247
f 685 564 565
f 686 170 166
f 686 204 203
f 687 533 675
f 725 207 115
f 677 83 630
f 594 510 585
f 690 59 689
f 689 42 544
f 689 162 690
f 743 197 690
f 691 238 194
f 416 691 217
f 750 103 692
f 273 702 274
f 693 107 160
f 704 99 693
f 312 694 699
f 741 279 694
f 746 331 352
f 685 320 106
f 113 696 698
f 114 697 375
f 739 161 697
f 375 696 114
f 696 383 698
f 698 327 552
f 699 106 320
f 694 305 699
f 705 354 700
f 703 196 700
f 702 275 701
f 253 704 305
f 701 279 702
f 274 692 273
f 700 356 703
f 384 738 161
f 693 106 704
f 305 701 253
f 700 318 705
f 705 326 325
f 706 324 400
f 706 354 325
f 573 707 512
f 514 708 513
f 726 504 708
f 715 513 708
f 709 502 656
f 709 512 513
f 18 23 15
f 747 266 676
f 730 505 711
f 711 468 466
f 712 569 399
f 728 459 712
f 716 390 713
f 713 471 517
f 728 451 714
f 714 462 468
f 708 466 715
f 715 475 502
f 716 431 450
f 713 392 716
f 731 500 717
f 717 475 401
f 718 517 471
f 719 531 718
f 719 468 462
f 718 401 719
f 665 483 500
f 661 540 523
f 429 448 431
f 749 463 597
f 712 459 722
f 722 508 461
f 749 461 464
f 661 399 569
f 724 502 475
f 724 500 483
f 401 466 468
f 752 532 585
f 726 514 674
f 726 508 504
f 727 517 601
f 429 392 727
f 714 505 728
f 712 397 728
f 522 523 752
f 669 15 23
f 722 459 730
f 711 504 730
f 731 390 389
f 717 471 731
f 732 99 254
f 732 323 107
f 733 162 163
f 733 3 40
f 734 241 254
f 734 242 238
f 3 735 40
f 217 691 194
f 736 197 273
f 736 103 59
f 737 215 275
f 737 273 197
f 738 388 375
f 161 703 384
f 739 295 196
f 697 109 739
f 740 242 253
f 740 275 215
f 694 295 741
f 741 109 274
f 742 238 242
f 742 215 194
f 690 40 743
f 743 194 215
f 744 254 99
f 744 253 242
f 745 114 195
f 745 274 109
f 312 196 295
f 292 291 294
f 606 119 596
f 664 383 375
f 748 254 241
f 748 216 323
f 42 59 103
f 660 308 294
f 692 195 750
f 557 105 750
f 751 320 326
f 751 318 312
f 113 195 114
f 651 208 672
f 753 289 287
f 753 288 284
f 637 300 754
f 754 296 613
