# Generated by benchmark/pick_up_apple/mujoco_src/export.py
v 0.002085857791826129 -0.01077194232493639 -0.011002340354025364
v 0.0066292062401771545 0.0041775968857109547 -0.013054004870355129
v 0.0060246195644140244 0.0041347350925207138 -0.011749214492738247
v 0.0043297624215483665 0.0039558280259370804 -0.0070077609270811081
v 0.0063072950579226017 0.0038697943091392517 -0.0070092133246362209
v 0.0049081835895776749 0.0040744305588304996 -0.0097056133672595024
v 0.0062212538905441761 0.0039662187919020653 -0.0087481467053294182
v -0.006069255992770195 0.0047906856052577496 -0.014075337909162045
v -0.0035710358060896397 0.0046325176954269409 -0.01324912253767252
v -0.0033976268023252487 0.0047174324281513691 -0.0149840097874403
v -0.0070385709404945374 0.0045454474166035652 -0.0087829707190394402
v -0.0075354701839387417 0.0044711972586810589 -0.0069990889169275761
v -0.0053458618931472301 0.0045099272392690182 -0.0094989622011780739
v 0.0047126072458922863 0.0046550137922167778 -0.020439023151993752
v 0.004729896318167448 0.0045588989742100239 -0.018649786710739136
v 0.0059341816231608391 0.0045616468414664268 -0.019689949229359627
v 0.0049375682137906551 0.0042639258317649364 -0.013285025954246521
v 0.0050401166081428528 0.0041282917372882366 -0.010823971591889858
v 0.0060501242987811565 0.0047240201383829117 -0.022826574742794037
v 0.0045051733031868935 0.0047876746393740177 -0.022758617997169495
v 0.0082847913727164268 0.0037829261273145676 -0.0070107108913362026
v 0.0063668978400528431 0.0046208440326154232 -0.021151663735508919
v 0.0031210819724947214 0.0043219462968409061 -0.012889545410871506
v 0.0037674831692129374 0.0041727363131940365 -0.010618112981319427
v 0.0075449403375387192 0.0040192394517362118 -0.010824349708855152
v 0.0028307584580034018 0.0044432808645069599 -0.014928890392184258
v 0.0012901426525786519 0.0046150269918143749 -0.016892578452825546
v 0.0013022664934396744 0.0045070825144648552 -0.014877179637551308
v 0.0014255319256335497 0.004389849491417408 -0.012778302654623985
v -0.00024959986330941319 0.0045744418166577816 -0.01487310416996479
v -0.00023553230857942253 0.0044631985947489738 -0.012797410599887371
v -0.0054229311645030975 0.0045917821116745472 -0.010971798561513424
v -0.0041064810939133167 0.0045154113322496414 -0.010614443570375443
v -0.0067257853224873543 0.0046238526701927185 -0.010509073734283447
v -0.0062586544081568718 0.0047011515125632286 -0.01229030080139637
v 0.0041406541131436825 0.0049380240961909294 -0.025281708687543869
v 0.0030651057604700327 0.0049848165363073349 -0.025280917063355446
v 0.0025362262967973948 0.0049642249941825867 -0.024462467059493065
v -0.0052817640826106071 0.0048413560725748539 -0.015769766643643379
v -0.0035175869707018137 0.0048244073987007141 -0.016893120482563972
v -0.0052229473367333412 0.0049431980587542057 -0.017728634178638458
v -0.0039146915078163147 0.0049390066415071487 -0.018718844279646873
v 0.006358765996992588 0.0042608780786395073 -0.014400094747543335
v -0.00024085098993964493 0.0047962148673832417 -0.019041277468204498
v -0.0018701083026826382 0.0049647833220660686 -0.020872924476861954
v -0.001504694577306509 0.004848935641348362 -0.018997877836227417
v 0.0031622888054698706 0.004731504712253809 -0.020607555285096169
v 0.0030151205137372017 0.0046414434909820557 -0.018797541037201881
v 0.0014387944247573614 0.0047286353074014187 -0.019145606085658073
v -0.00070778117515146732 0.0049286140128970146 -0.021143939346075058
v -0.0041436306200921535 0.005035880021750927 -0.020349390804767609
v -0.0043026055209338665 0.0051273922435939312 -0.021936496719717979
v -0.0020444875117391348 0.0051184836775064468 -0.023614253848791122
v -0.0032312674447894096 0.0052066156640648842 -0.024298438802361488
v -0.0017557664541527629 0.0050281072035431862 -0.022154461592435837
v -0.0054776524193584919 0.0053007886745035648 -0.024230245500802994
v -0.0021899314597249031 0.0052134403958916664 -0.025277057662606239
v -0.00084095832426100969 0.005090788472443819 -0.024077920243144035
v -0.0004382523475214839 0.0051372325979173183 -0.025278344750404358
v 0.00080468988744542003 0.0050161206163465977 -0.02402147650718689
v 0.0013134266482666135 0.0050610247999429703 -0.025279631838202477
v 0.0063026878051459789 0.0047951266169548035 -0.024367425590753555
v 0.0062917512841522694 0.0048444392159581184 -0.025283288210630417
v 0.0076306802220642567 0.0039305258542299271 -0.0092299031093716621
v 0.0060564661398530006 0.0044368337839841843 -0.017443360760807991
v 0.0063339942134916782 0.0044889161363244057 -0.018652800470590591
v 0.0062348153442144394 0.0040422789752483368 -0.010186248458921909
v 0.003459378844127059 0.0041240490972995758 -0.0094528943300247192
v 0.0033175721764564514 0.0048318421468138695 -0.022617006674408913
v 0.00092728988965973258 0.0049375682137906551 -0.022647803649306297
v -0.0055269617587327957 0.0052172206342220306 -0.02262159064412117
v -0.005480598658323288 0.0051275603473186493 -0.020977320149540901
v -0.00034396746195852757 0.0049727661535143852 -0.022269571200013161
v 0.0017483911942690611 0.004785686731338501 -0.020468976348638535
v -0.0019027696689590812 0.0043536638841032982 -0.0093801086768507957
v -0.0014718321617692709 0.0043987627141177654 -0.01057836227118969
v -0.0053340001031756401 0.0050354688428342342 -0.019372517243027687
v 0.0044547799043357372 0.0044724368490278721 -0.016802778467535973
v 0.0060559995472431183 0.0043581742793321609 -0.015967134386301041
v 0.0027963290922343731 0.0045473501086235046 -0.016853358596563339
v -0.00025042839115485549 0.0046838982962071896 -0.016926111653447151
v -0.0017799348570406437 0.0047526792623102665 -0.01696699857711792
v 0.0045315721072256565 0.0043752081692218781 -0.015041260980069637
v -0.0017536162631586194 0.0046419193968176842 -0.014910369180142879
v -0.0018578318413347006 0.0045374594628810883 -0.012865293771028519
v -0.0066382288932800293 -0.0012491255765780807 -0.024213319644331932
v 0.0011935523943975568 0.0042826635763049126 -0.010577689856290817
v -0.00016290218627545983 0.0043558706529438496 -0.010843003168702126
v -0.0055579007603228092 0.0043859975412487984 -0.0070004970766603947
v -0.0035803683567792177 0.0042999638244509697 -0.0070019499398767948
v -0.003563005942851305 0.0044248816557228565 -0.0093599138781428337
v -3.3623084163991734e-05 0.0042847520671784878 -0.009614267386496067
v 0.00037469709059223533 0.004127895925194025 -0.0070048552006483078
v 0.0018695525359362364 0.0041913622990250587 -0.0094169508665800095
v -0.0016028356039896607 0.004213930107653141 -0.0070034023374319077
v 0.0023522297851741314 0.0040418622083961964 -0.0070063080638647079
v -0.0061936415731906891 0.00025812975945882499 -0.026004670187830925
v -0.0054173143580555916 0.0053538498468697071 -0.025274686515331268
v -0.0068958527408540249 -0.00014087134331930429 -0.024827174842357635
v -0.0016924734227359295 0.0027306885458528996 -0.029354361817240715
v 0.0093001788482069969 0.0027648673858493567 -0.01578131690621376
v -0.0032657256815582514 0.00526024354621768 -0.025276266038417816
v 0.0097614787518978119 0.001608300837688148 -0.014789368025958538
v 0.0084383487701416016 -0.0045924810692667961 -0.0049332347698509693
v -0.0052939825691282749 -0.0011467940639704466 -0.0072913384065032005
v 0.001222168211825192 0.0029008542187511921 -0.029552599415183067
v 0.0011264825006946921 0.0024358276277780533 -0.0070937341079115868
v 0.0086071817204356194 -0.00068399473093450069 -0.0065788873471319675
v 0.0023103964049369097 0.0016313252272084355 -0.0071346843615174294
v 0.0027198037132620811 0.002770138205960393 -0.029348155483603477
v 0.0085171237587928772 -0.0027629071846604347 -0.0060527343302965164
v -0.002383378567174077 -0.0086738597601652145 -0.0087722931057214737
v 0.0049809529446065426 -0.0031094332225620747 -0.0073828469030559063
v -0.0074099586345255375 -0.0068537271581590176 -0.0061133853159844875
v -0.00081819947808980942 0.0027131845708936453 -0.0070820450782775879
v 0.0005291096749715507 0.0053125531412661076 -0.029734775424003601
v 0.0092573044821619987 -0.0048862113617360592 -0.0094033153727650642
v 0.007245832122862339 -0.0074922796338796616 -0.0061239204369485378
v 0.0046978713944554329 -0.0064514800906181335 -0.0066384738311171532
v -0.009360089898109436 -0.0027584587223827839 -0.013882925733923912
v 0.0071562160737812519 0.0043706269934773445 -0.016684459522366524
v -0.0094892885535955429 -0.0027737289201468229 -0.0071536833420395851
v -0.003507652785629034 -0.00052304129349067807 -0.027476880699396133
v -0.0035403817892074585 -0.0055875787511467934 -0.022279752418398857
v -0.0034212640020996332 0.00047229297342710197 -0.028124516829848289
v 0.0035818417090922594 -0.0057879784144461155 -0.022375848144292831
v -0.0050908965058624744 -0.0010197365190833807 -0.026046250015497208
v -0.0045195212587714195 -0.00010926798131549731 -0.027171026915311813
v -0.0040461733005940914 -0.0012668257113546133 -0.026600576937198639
v -0.0076208128593862057 -0.0054988325573503971 -0.016814509406685829
v -0.0078690340742468834 -0.0058585316874086857 -0.015122253447771072
v -0.0081954682245850563 -0.0042510619387030602 -0.017578300088644028
v 0.0095260031521320343 -0.0018589836545288563 -0.018330292776226997
v -0.0072718565352261066 -0.0051076994277536869 -0.018470779061317444
v -0.0078091640025377274 -0.0038801671471446753 -0.019221581518650055
v -0.006856150459498167 -0.0046381745487451553 -0.020060759037733078
v -0.0046684755943715572 -0.0020644324831664562 -0.025445746257901192
v -0.0056852009147405624 -0.0016994641628116369 -0.024895919486880302
v -0.0033943455200642347 -0.0024325791746377945 -0.025886876508593559
v -0.004335018340498209 -0.0031857888679951429 -0.024546632543206215
v -0.0053012333810329437 -0.0026428578421473503 -0.024346346035599709
v -0.0081003382802009583 -0.0065557220950722694 -0.010851351544260979
v -0.0079151950776576996 -0.007005324587225914 -0.0084181763231754303
v -0.0087904911488294601 -0.0052043534815311432 -0.010635507293045521
v -0.0054605039767920971 -0.0037579243071377277 -0.023002652451395988
v -0.0067835915833711624 -0.0030062266159802675 -0.022226134315133095
v -0.0062270252965390682 -0.0023922622203826904 -0.023628341034054756
v -0.0088404910638928413 0.0035024227108806372 -0.0088891554623842239
v -0.0084663191810250282 -0.0045954491943120956 -0.015871103852987289
v -0.0063718222081661224 -0.0041311345994472504 -0.021505793556571007
v -0.0073444554582238197 -0.003462217515334487 -0.020755350589752197
v -0.0089189950376749039 -0.005016217939555645 -0.0060798013582825661
v -0.0083164786919951439 -0.0063544409349560738 -0.0057995649985969067
v -0.0080430377274751663 -0.0061344425193965435 -0.013418338261544704
v -0.0073627941310405731 -0.0073433755896985531 -0.01235094852745533
v -0.0071881040930747986 -0.0078290849924087524 -0.010472617112100124
v 0.0035504938568919897 0.0029491118621081114 -0.0070625795051455498
v -0.0071960370987653732 -0.0079452218487858772 -0.0087894229218363762
v -0.0074668284505605698 -0.0077103418298065662 -0.0069281104952096939
v -0.0081690875813364983 -0.0062162498943507671 -0.012105111964046955
v -0.0071383374743163586 -0.0070688002742826939 -0.01432312373071909
v -0.0069123315624892712 -0.0066634537652134895 -0.016049934551119804
v -0.0058475942350924015 -0.0051191607490181923 -0.020869283005595207
v -0.0061321347020566463 -0.0058557838201522827 -0.019289230927824974
v -0.0021480654831975698 0.0008655697456561029 -0.028784073889255524
v -0.0025396151468157768 -0.00037107995012775064 -0.027993006631731987
v -0.0029465428087860346 -0.0013419740134850144 -0.027109567075967789
v -0.0066343569196760654 -0.0062340134754776955 -0.017656959593296051
v -0.0086213033646345139 -0.0049030240625143051 -0.01415516622364521
v -0.0086905220523476601 -0.0051722116768360138 -0.012381023727357388
v -0.0090160546824336052 -0.0047716978006064892 -0.0087161315605044365
v -0.0049671814776957035 -0.0092037888243794441 -0.012994373217225075
v -0.0050272587686777115 -0.009671822190284729 -0.0104328952729702
v -0.0060378718189895153 -0.0087923547253012657 -0.011607031337916851
v -0.0062097492627799511 -0.0089072985574603081 -0.0096323862671852112
v -0.0061512929387390614 -0.0087282499298453331 -0.0077177584171295166
v -0.0061611919663846493 -0.0082406066358089447 -0.013557812198996544
v -0.0032443881500512362 -0.0035634723026305437 -0.024808133020997047
v 0.0099267391487956047 -0.0023042494431138039 -0.0075462781824171543
v 0.0020354008302092552 0.0063302903436124325 -0.029230058193206787
v 0.0076811588369309902 0.0013915925519540906 -0.0071389535441994667
v -0.005059732124209404 -0.0097898524254560471 -0.008771238848567009
v -0.0037888074293732643 -0.004492487758398056 -0.023486556485295296
v -0.0047864411026239395 -0.005188395269215107 -0.02189980074763298
v -0.0048506353050470352 -0.0081508951261639595 -0.016243590041995049
v -0.0049716336652636528 -0.0087004974484443665 -0.014612643048167229
v -0.0060185347683727741 -0.0077317929826676846 -0.015306108631193638
v -0.0058365450240671635 -0.0072219241410493851 -0.016930630430579185
v -0.0057207043282687664 -0.0067394492216408253 -0.018217053264379501
v -0.0046843062154948711 -0.0075258850120007992 -0.017986902967095375
v -0.004164727870374918 -0.0070177577435970306 -0.019591031596064568
v -0.0051804953254759312 -0.0066873421892523766 -0.019116157665848732
v -0.0050427350215613842 -0.0060866028070449829 -0.020350424572825432
v -0.0038744204211980104 -0.0062990188598632812 -0.02105850912630558
v -0.0021392072085291147 -0.0022110932040959597 -0.026720434427261353
v 0.0096521982923150063 0.0025149497669190168 -0.0076492857187986374
v 0.0091168442741036415 -0.0042188600637018681 -0.015579549595713615
v 0.0078789321705698967 0.0038029931019991636 -0.025036225095391273
v -0.0084493802860379219 -0.0057847714051604271 -0.011496230028569698
v -0.0077978321351110935 -0.0071093770675361156 -0.0095652882009744644
v -0.0019866612274199724 -0.0012638851767405868 -0.027612082660198212
v -0.0028761934954673052 -0.0071965078823268414 -0.020243078470230103
v -0.0063658128492534161 0.0050580571405589581 -0.018529409542679787
v 0.0047789444215595722 -0.0087161865085363388 -0.015519588254392147
v -0.0038736199494451284 -0.010134376585483551 -0.011078226380050182
v -0.0038292715325951576 -0.0094835609197616577 -0.01395075861364603
v -0.0038029178977012634 -0.0099118417128920555 -0.012453037314116955
v -0.0026158734690397978 -0.0086109954863786697 -0.017403470352292061
v -0.0037847140338271856 -0.0089533179998397827 -0.015489929355680943
v -0.0036409569438546896 -0.0084322802722454071 -0.017009451985359192
v -0.0031298755202442408 -0.0079520819708704948 -0.018564693629741669
v -0.0010588178411126137 -0.0018740391824394464 -0.027438133955001831
v -0.0022565785329788923 -0.0032932371832430363 -0.025588972494006157
v -0.0011839346261695027 -0.0040845833718776703 -0.025145480409264565
v -0.0023843974340707064 -0.0043586301617324352 -0.024359118193387985
v -0.0011647980427369475 -0.00045220719766803086 -0.02837836928665638
v -0.0050989016890525818 -0.0044008516706526279 -0.0074674859642982483
v 0.0043306569568812847 0.001037260633893311 -0.0071631115861237049
v -0.0036427066661417484 0.0017720927717164159 -0.0071366042830049992
v -0.0011197560233995318 -0.0030158741865307093 -0.026358485221862793
v -0.0025037850718945265 -0.0054074050858616829 -0.02306041494011879
v -0.0026268886867910624 -0.0063656889833509922 -0.021705182269215584
v 0.0051552248187363148 -0.0048469686880707741 -0.0074750194326043129
v -0.0047580953687429428 -0.0095910998061299324 -0.011711739003658295
v 0.0053165694698691368 -0.008093174546957016 -0.0071916487067937851
v -0.0026336314622312784 -0.010053366422653198 -0.013264275155961514
v 0.0018618273315951228 -0.00065620004897937179 -0.0072571565397083759
v -0.0012409168994054198 -0.0051549263298511505 -0.023843292146921158
v -0.0013130140723660588 -0.006208314560353756 -0.022422440350055695
v -0.00010956673213513568 0.0023838547058403492 -0.029463842511177063
v -0.0019888877868652344 0.0079329032450914383 -0.02634805254638195
v -0.00025753077352419496 -0.010316139087080956 -0.013377835974097252
v 0.0026445020921528339 -0.0034125326201319695 -0.0074026351794600487
v 0.0033574432600289583 -0.0010761134326457977 -0.0072771431878209114
v 0.003018929623067379 0.0077367871999740601 -0.02625744603574276
v -0.0003737175720743835 -0.0093482360243797302 -0.016456350684165955
v -0.0003106934018433094 -0.0098923752084374428 -0.014884832315146923
v 0.006295050960034132 0.0025934656150639057 -0.0070771705359220505
v -0.00039872669731266797 -0.00782049261033535 -0.019894696772098541
v 0.0029202343430370092 -0.0063237417489290237 -0.0075795748271048069
v 7.6656935561913997e-05 -0.0069327289238572121 -0.021509736776351929
v -0.0030027444008737803 -0.0060660587623715401 -0.0075752241536974907
v 2.5464023565291427e-05 -0.0058097615838050842 -0.023184450343251228
v -0.0083695705980062485 -0.004400279838591814 -0.005457472987473011
v -5.1403640100033954e-06 -0.0047377971932291985 -0.024581996724009514
v -0.0082854302600026131 -0.0024455171078443527 -0.0066872658208012581
v -2.9435803298838437e-05 -0.0036932721268385649 -0.025826757773756981
v 4.8264610086334869e-05 -0.0026425942778587341 -0.026974702253937721
v 0.0084986891597509384 -0.0031757215037941933 -0.0066995960660278797
v 0.00011788547999458387 -0.0014099925756454468 -0.027991367504000664
v 0.0002793842286337167 -2.5462299163336866e-05 -0.02875882014632225
v 0.0084145497530698776 -0.0051304847002029419 -0.00546980369836092
v -0.00069240055745467544 0.0011508726747706532 -0.029081216081976891
v 0.0092026283964514732 -0.0044386913068592548 -0.014185280539095402
v 0.0050493264570832253 0.0023224405013024807 -0.007093566469848156
v 0.0092376908287405968 -0.0048509831540286541 -0.010950383730232716
v -0.00064025499159470201 -0.0086183948442339897 -0.018191946670413017
v -0.0016407016664743423 -0.008991592563688755 -0.017020191997289658
v 0.0086719924584031105 0.0036725988611578941 -0.015128127299249172
v -0.0084260469302535057 -0.0016072021098807454 -0.020567243918776512
v 0.0065203295089304447 0.0016246533486992121 -0.0071283834986388683
v 0.0031211546156555414 -0.0047875894233584404 -0.0074746566824615002
v 0.0055977609008550644 0.00071543199010193348 -0.0071782390587031841
v 0.007340701762586832 -0.0011581807630136609 -0.0072654439136385918
v -0.0071243168786168098 -0.00056711316574364901 -0.0072515909560024738
v -0.0013289793860167265 -0.010686281137168407 -0.011293240822851658
v -4.5107892219675705e-05 -0.0074014742858707905 -0.0090276738628745079
v -0.0091455811634659767 0.0025850632227957249 -0.011074707843363285
v 0.0039115897379815578 -0.0037265901919454336 -0.0074173486791551113
v 0.009301450103521347 -0.0047982209362089634 -0.0079878503456711769
v -0.009593927301466465 0.00021689594723284245 -0.0098816109821200371
v 0.0074696578085422516 0.0040957201272249222 -0.01220258790999651
v 0.0048160557635128498 -0.0015893684467300773 -0.0073020723648369312
v 0.0092488760128617287 -0.0046484940685331821 -0.012553615495562553
v 0.0016226272564381361 -0.0044221593998372555 -0.0074560004286468029
v -0.009424939751625061 -0.0027237148024141788 -0.012457986362278461
v -0.0094472728669643402 -0.0030103020835667849 -0.0088143395259976387
v 0.00086541130440309644 -0.0017400498036295176 -0.0073164245113730431
v -0.0041370941326022148 -0.0035986863076686859 -0.0074232672341167927
v 0.0036289968993514776 0.004877098836004734 -0.023720735684037209
v -0.0034330841153860092 -0.0021181029733270407 -0.0073433439247310162
v 0.00024736241903156042 -0.0038825275842100382 -0.007425929419696331
v -0.0026990424375981092 -0.004553383681923151 -0.0074687809683382511
v -0.0072305197827517986 -0.0036596681457012892 -0.0061512663960456848
v -0.0044596646912395954 0.0044015361927449703 -0.0081893177703022957
v -0.0095335431396961212 0.00082057638792321086 -0.0077743153087794781
v -0.0026599012780934572 0.0043234494514763355 -0.0081946225836873055
v -0.0059944512322545052 0.0044631310738623142 -0.0080924034118652344
v -0.0019712250214070082 -0.008466462604701519 -0.018127037212252617
v -0.0028345766477286816 -0.00098507408984005451 -0.007282087579369545
v -0.0083876010030508041 -0.0061217751353979111 -0.0092848530039191246
v -0.001228289445862174 -0.0032186333555728197 -0.0073984377086162567
v -0.00079226895468309522 0.0042446539737284184 -0.0082421069964766502
v 0.0011187397176399827 0.0041622603312134743 -0.0082575073465704918
v -2.3377462639473379e-05 -0.010700373910367489 -0.011761531233787537
v -0.0006354690995067358 -0.010899032466113567 -0.010147234424948692
v -0.0071158395148813725 0.0018062524031847715 -0.0071402774192392826
v 0.0029704475309699774 0.004081428050994873 -0.0082537494599819183
v 0.0065604127012193203 -0.0052556330338120461 -0.0053291893564164639
v -0.0073954197578132153 -0.0025327515322715044 -0.0067059751600027084
v -0.0014661267632618546 -0.01002198550850153 -0.014091935008764267
v 0.00028504853253252804 -0.00039602984907105565 -0.0072458009235560894
v -0.0005960406269878149 -0.0016872870037332177 -0.0073159262537956238
v 0.0047006364911794662 0.0040120813064277172 -0.008366219699382782
v -0.0094700576737523079 -0.0027208044193685055 -0.010760911740362644
v -0.0019867205992341042 0.0014253030531108379 -0.0071524456143379211
v -0.0046703983098268509 0.0004145673883613199 -0.0072104888968169689
v -0.0015032171504572034 -0.0071501387283205986 -0.020902344956994057
v 0.00096655538072809577 -0.0062127723358571529 -0.0080637848004698753
v -0.0010475217131897807 -0.0061251488514244556 -0.0080623049288988113
v -0.0028223609551787376 0.0067179207690060139 -0.028479453176259995
v 0.0085535589605569839 0.0038289385847747326 -0.01990840770304203
v 0.0075285779312252998 0.0038673370145261288 -0.0079683037474751472
v -0.0058410312049090862 0.0014357032487168908 -0.0071579860523343086
v 0.0098674064502120018 0.0013511906145140529 -0.010205830447375774
v 0.0078805545344948769 -0.0074518457986414433 -0.0081339459866285324
v -0.0047841551713645458 0.0027788432780653238 -0.007084820419549942
v 0.0049802404828369617 0.0048349942080676556 -0.024034852162003517
v -0.0015276449266821146 -0.0095372656360268593 -0.015595637261867523
v -0.0077253337949514389 0.0045906524173915386 -0.022404447197914124
v -0.0081390552222728729 0.0041725467890501022 -0.015154989436268806
v 0.0025591044686734676 0.0025826527271419764 -0.0070836530067026615
v -0.003380239475518465 0.0060980208218097687 -0.025231700390577316
v -0.0047139297239482403 0.0047350670211017132 -0.014239447191357613
v 0.0099035594612360001 0.0013688121689483523 -0.0077434121631085873
v -0.0079529089853167534 0.004349907860159874 -0.016615984961390495
v -0.0073978444561362267 0.0045713428407907486 -0.024204766377806664
v -0.0078126657754182816 0.004595048725605011 -0.020561425015330315
v 0.009981103241443634 -0.0017117668176069856 -0.0089668622240424156
v 0.0051165246404707432 0.0047076018527150154 -0.021755710244178772
v 0.00057003973051905632 -0.0051312102004885674 -0.0074292551726102829
v -0.0076978341676294804 0.0046363631263375282 -0.018540585413575172
v -0.006766575388610363 0.0046751843765377998 -0.025735864415764809
v 5.6639957620063797e-05 -0.0097611621022224426 -0.0092543167993426323
v -0.0020222894381731749 -0.010701569728553295 -0.010325338691473007
v -0.0050680418498814106 0.0046928590163588524 -0.013158208690583706
v 0.0099195335060358047 -0.0019340644357725978 -0.013202382251620293
v 0.0084352344274520874 0.0039123920723795891 -0.016685346141457558
v -0.0043527586385607719 0.0052145449444651604 -0.023530939593911171
v 0.0070717879571020603 -0.0059604453854262829 -0.0047095715999603271
v -0.0026549024041742086 -0.0090589616447687149 -0.016231980174779892
v -0.0071028484962880611 -0.0053437678143382072 -0.0046991584822535515
v -0.002250125864520669 0.0066629168577492237 -0.025199733674526215
v -0.0013816895661875606 -0.010431581176817417 -0.012579475529491901
v 0.0033826455473899841 -0.0096198711544275284 -0.014509802684187889
v -0.0059788930229842663 0.0048221154138445854 -0.026918584480881691
v 0.0085122110322117805 0.0038313891272991896 -0.01845133863389492
v 0.0034495759755373001 -0.0085573205724358559 -0.0082692811265587807
v -0.0030006973538547754 0.005037620197981596 -0.02131582610309124
v -0.0056342785246670246 -0.004562032874673605 -0.021845703944563866
v -0.00177139847073704 -0.0079374909400939941 -0.019356332719326019
v -0.00010545819532126188 0.0050127319991588593 -0.023214297369122505
v 0.00069163052830845118 0.0048819780349731445 -0.021412260830402374
v 0.0022537645418196917 0.0049094855785369873 -0.023204652592539787
v -0.0027924340683966875 0.0044416701421141624 -0.01030446495860815
v -0.0066448571160435677 0.0051506399177014828 -0.01992538757622242
v -0.0066774715669453144 0.0053297397680580616 -0.023395499214529991
v -0.0067358450032770634 0.0052454108372330666 -0.021639678627252579
v 0.0025381089653819799 0.0042106891050934792 -0.010325786657631397
v -0.0031166714616119862 0.00024399074027314782 -0.0072171119973063469
v -0.0066849775612354279 0.0050045321695506573 -0.017100382596254349
v 0.00031055178260430694 0.0064189746044576168 -0.025208692997694016
v -0.0027147158980369568 -0.0030617446172982454 -0.0073924367316067219
v -0.0071073914878070354 0.0049319174140691757 -0.015402660705149174
v 0.0034689803142100573 0.0018377301748842001 -0.0071218656376004219
v -0.0047365035861730576 0.0016104337992146611 -0.0071469382382929325
v -0.00025830155937001109 0.0011251610703766346 -0.0071656885556876659
v 0.0045166332274675369 -0.00018218331388197839 -0.0072277272120118141
v -0.0040284991264343262 -0.00096796458819881082 -0.0072830645367503166
v 0.0036623368505388498 -0.0024909467902034521 -0.0073519712314009666
v -0.007999529130756855 0.0047426358796656132 -0.011743661947548389
v 0.0030297702178359032 0.0004875173035543412 -0.0071944305673241615
v -0.0078118117526173592 0.0046800663694739342 -0.013639061711728573
v -0.0082185594365000725 0.0046474849805235863 -0.0097861746326088905
v -0.0083735892549157143 0.0045492257922887802 -0.0078226877376437187
v 0.0022761549334973097 -0.0020580568816512823 -0.007331120315939188
v -0.0015146442456170917 -0.00029012205777689815 -0.0072430092841386795
v 0.00011020155943697318 -0.0026975336950272322 -0.0073685841634869576
v -0.0079840030521154404 0.0044882036745548248 -0.0069988928735256195
v -0.0020584308076649904 -0.0018774782074615359 -0.0073283622041344643
v 0.0033524783793836832 0.004472171887755394 -0.015897210687398911
v 0.003442033426836133 0.0045693060383200645 -0.017792858183383942
v -0.0026613879017531872 -0.0095756584778428078 -0.014786103740334511
v 0.0036667154636234045 0.0046576140448451042 -0.019633306190371513
v 0.0013874983415007591 0.00078183074947446585 -0.0071813617832958698
v -0.0026055155321955681 0.0049383342266082764 -0.019775841385126114
v -0.003136717714369297 0.0051231724210083485 -0.022809872403740883
v -0.0045667248778045177 0.00460798479616642 -0.011975325644016266
v -0.0010004353243857622 0.0046620103530585766 -0.015902677550911903
v 0.00059118418721482158 0.0043693413026630878 -0.011711842380464077
v 0.0021345601417124271 0.0044180303812026978 -0.013886324129998684
v 0.00055189116392284632 0.0047048013657331467 -0.017973806709051132
v -0.0010319895809516311 0.0050451289862394333 -0.023065159097313881
v 0.0022859354503452778 0.0048328433185815811 -0.021792927756905556
v 0.0012898172717541456 -0.0030253932345658541 -0.0073841703124344349
v 0.00261688232421875 0.0047079743817448616 -0.019720461219549179
v -0.008055306039750576 0.0028507455717772245 -0.0070861657150089741
v -0.0081266080960631371 0.0012132874689996243 -0.0071734385564923286
v 0.0020252796821296215 0.0045291250571608543 -0.015881458297371864
v -0.0010114163160324097 0.0044402009807527065 -0.011732005514204502
v -0.00096718361601233482 0.0047728116624057293 -0.0180087611079216
v 0.00051159149734303355 0.0045951050706207752 -0.015882708132266998
v 0.00028627808205783367 0.0048346039839088917 -0.02019222266972065
v -0.0081488983705639839 0.00069114885991439223 -0.0065934066660702229
v -0.0048050307668745518 -0.0022958372719585896 -0.0073549733497202396
v 0.00055261433590203524 0.0044846255332231522 -0.013843356631696224
v -0.0027969409711658955 0.0045115165412425995 -0.011611279100179672
v -0.0023514071945101023 0.004617694765329361 -0.013967449776828289
v 0.0024090507067739964 0.0042808414436876774 -0.011536582373082638
v -0.0023262661416083574 0.0047207213938236237 -0.015921028330922127
v -0.0010071588912978768 0.0045539508573710918 -0.013869720511138439
v 0.0035305500496178865 0.0043637044727802277 -0.014007579535245895
v 0.0020983340218663216 0.0046334895305335522 -0.017899284139275551
v -0.0011338144540786743 0.0048859766684472561 -0.019995871931314468
v -0.0082325227558612823 -0.0012356993975117803 -0.0063147465698421001
v -0.0083093885332345963 -0.0030158334411680698 -0.0055256946943700314
v -0.0079862633720040321 0.0044122152030467987 -0.0055762049742043018
v 0.0042267595417797565 0.0042169918306171894 -0.011823681183159351
v 0.0038646114990115166 0.0047565503045916557 -0.021651273593306541
v -0.0024189536925405264 0.0048471679911017418 -0.018217753618955612
v -0.0080647282302379608 0.0026215848047286272 -0.0063409758731722832
v -0.0084827719256281853 0.0044488096609711647 -0.0058561968617141247
v 0.0073031177744269371 0.0025626481510698795 -0.0070772171020507812
v -0.0070712300948798656 0.00055982015328481793 -0.0072065531276166439
v -0.0025927028618752956 -0.01043996773660183 -0.011645331047475338
v -0.0025470370892435312 0.0029029643628746271 -0.0070746769197285175
v 0.0091923093423247337 0.0037850101944059134 -0.0078356014564633369
v 0.0090435286983847618 0.0038964871782809496 -0.0097988760098814964
v -0.0039234473370015621 -0.010245563462376595 -0.0097598535940051079
v 0.0036668297834694386 -0.01050531305372715 -0.0095395101234316826
v -0.0077534723095595837 -0.0022807668428868055 -0.021397829055786133
v -0.0084616076201200485 -0.0060059833340346813 -0.007517445832490921
v -0.0030672962311655283 -0.010510952211916447 -0.010474243201315403
v -0.0028691478073596954 -0.010568492114543915 -0.009508104994893074
v 0.0011760805500671268 -0.010843133553862572 -0.01021161861717701
v -0.00085607531946152449 -0.0048553524538874626 -0.0074717900715768337
v -0.0064821899868547916 0.0029577084351330996 -0.0070779849775135517
v 0.0071946699172258377 0.00017373429727740586 -0.0072045479901134968
v 0.0088313324376940727 0.0040104035288095474 -0.011756130494177341
v -0.0093138301745057106 0.0022089402191340923 -0.0080015929415822029
v 0.0082605229690670967 0.0041679558344185352 -0.013609538786113262
v 0.0075717600993812084 0.00429543387144804 -0.015422040596604347
v 0.0073958593420684338 0.0044314279220998287 -0.017908308655023575
v -0.0071421233005821705 -0.0046668685972690582 -0.0052990964613854885
v 0.0093194162473082542 0.0028594001196324825 -0.014155494049191475
v 0.0011303530773147941 -0.0041403593495488167 -0.025228247046470642
v 0.0087473522871732712 0.0032328362576663494 -0.022529685869812965
v -0.0075211925432085991 -0.00059197924565523863 -0.023452254012227058
v 0.009377126581966877 0.0029000400099903345 -0.012468018569052219
v 0.0097595341503620148 0.0016906670061871409 -0.013173810206353664
v 0.0097992010414600372 0.0016194013878703117 -0.011607112362980843
v -0.0060198535211384296 -0.00069380563218146563 -0.025435477495193481
v -0.0044611427001655102 0.0012074537808075547 -0.027941608801484108
v 0.0093031339347362518 0.0018728749128058553 -0.021752525120973587
v -0.0086231855675578117 -0.0029501321259886026 -0.018350327387452126
v 0.0025588090065866709 -0.010527780279517174 -0.01193694956600666
v 0.0089168120175600052 0.0019998888019472361 -0.023217743262648582
v 0.0094920191913843155 0.0029670600779354572 -0.0089579038321971893
v 0.0022262029815465212 -0.010840003378689289 -0.010327158495783806
v 0.0025122193619608879 -0.010859571397304535 -0.0095167635008692741
v 0.0078916754573583603 0.0046797976829111576 -0.02350747212767601
v 0.0098129259422421455 0.0018647428369149566 -0.0089995376765727997
v 0.0073984395712614059 0.0045150667428970337 -0.019586319103837013
v 0.0097655374556779861 0.0015587954549118876 -0.016486270353198051
v 0.0092646963894367218 0.0027784926351159811 -0.017464343458414078
v 0.0081278812140226364 0.0045650447718799114 -0.021554125472903252
v 0.0097362259402871132 0.0015601585619151592 -0.018240431323647499
v 0.010034277103841305 0.00038494047475978732 -0.0066823535598814487
v 0.0090481890365481377 0.0030510204378515482 -0.020830841735005379
v 0.0066106063313782215 0.0047833779826760292 -0.026894273236393929
v 0.0058332085609436035 0.0046622357331216335 -0.027860350906848907
v 0.0092398999258875847 0.0028349705971777439 -0.01915508508682251
v 0.0098462421447038651 0.0018442794680595398 -0.0064467485062777996
v 0.0094443559646606445 0.0031881779432296753 -0.0059439046308398247
v 0.0085603026673197746 -0.0017633086536079645 -0.0064736111089587212
v 0.0084739448502659798 -0.0037625059485435486 -0.0056318570859730244
v 0.0086540607735514641 0.00039531916263513267 -0.0066841635853052139
v 0.010037567466497421 -0.0012007250916212797 -0.0066040572710335255
v 0.0095940409228205681 0.0016739260172471404 -0.02002379484474659
v 0.008402753621339798 -0.0054224561899900436 -0.0042346124537289143
v 0.0092258602380752563 0.0036687322426587343 -0.0056887394748628139
v 0.008798014372587204 0.0036873458884656429 -0.0056884251534938812
v 0.0088001163676381111 0.0037579992786049843 -0.0070112226530909538
v 0.0087285013869404793 0.0021013342775404453 -0.0063850232400000095
v 0.0085448091849684715 -0.0021076833363622427 -0.0071701155975461006
v 0.0063994084484875202 -0.0020143461879342794 -0.0071685397997498512
v 0.00070751720340922475 0.0013645500876009464 -0.029235314577817917
v 0.0063911397010087967 -0.0032163269352167845 -0.0067327562719583511
v 0.0086575103923678398 0.00048308301484212279 -0.0071857688017189503
v 0.0011892792535945773 -0.00087930151494219899 -0.028264230117201805
v 0.0076058567501604557 -0.0032776908483356237 -0.0066946656443178654
v 0.0087288133800029755 0.002120541175827384 -0.0070984954945743084
v 0.00094682077178731561 -0.0032168272882699966 -0.026285434141755104
v 0.0084525691345334053 -0.0042437599040567875 -0.0062290765345096588
v 0.0085862074047327042 -0.0011543751461431384 -0.0072730416432023048
v 0.0083765294402837753 -0.006017209030687809 -0.0047105303965508938
v 0.0059774937108159065 -0.00067689991556107998 -0.0072523332200944424
v -0.00038727998617105186 0.0072634504176676273 -0.02516469731926918
v -0.0088721197098493576 -0.0016657544765621424 -0.019197039306163788
v 0.0059373173862695694 -0.0040069418027997017 -0.0074290689080953598
v -0.007237045094370842 -0.0017827481497079134 -0.022833757102489471
v 0.0073605380021035671 -0.0047476538456976414 -0.0058255475014448166
v 0.0060430378653109074 -0.0043973024003207684 -0.0060580363497138023
v -0.0057981070131063461 -0.0054005319252610207 -0.0047001172788441181
v 0.0070041054859757423 0.0025863610208034515 -0.026970228180289268
v 0.0057670464739203453 -0.0059036817401647568 -0.0047086132690310478
v 0.0035551236942410469 -0.0060169408097863197 -0.0075397808104753494
v -0.0049465247429907322 -0.0051241577602922916 -0.0061828573234379292
v 0.0048480737023055553 -0.0056485678069293499 -0.0062147038988769054
v 0.0022661695256829262 -0.0098287081345915794 -0.014665791764855385
v 0.0032912788446992636 0.0035552633926272392 -0.029334412887692451
v -0.0036065739113837481 -0.0057053663767874241 -0.0075345230288803577
v -0.0043927896767854691 -0.0053056199103593826 -0.0075145293958485126
v 0.0057818973436951637 0.0023439137730747461 -0.028040569275617599
v -0.0056057386100292206 0.001932761981151998 -0.027460666373372078
v -0.0043554473668336868 0.0025600884109735489 -0.028484547510743141
v -0.0081536667421460152 4.3484094931045547e-05 -0.022757800295948982
v -0.0058050141669809818 -0.0034960836637765169 -0.0074204425327479839
v -0.0061230035498738289 -0.0024907384067773819 -0.0073674321174621582
v -0.0081979110836982727 -0.00042417072108946741 -0.0072607113979756832
v -0.0060179457068443298 -0.00012435314420145005 -0.0072400015778839588
v -0.0092457206919789314 0.00094031763728708029 -0.019390033558011055
v -0.008886067196726799 0.003501442726701498 -0.0074229626916348934
v -0.0094326334074139595 0.00090056151384487748 -0.017562024295330048
v -0.0095114707946777344 0.00095225503901019692 -0.014000279828906059
v 0.0025223542470484972 -0.0088147642090916634 -0.017300451174378395
v -0.0066232099197804928 0.0019163475371897221 -0.026348743587732315
v 0.0064170439727604389 0.003686943557113409 -0.027575833722949028
v -0.0092786122113466263 0.0021304553374648094 -0.01196716632694006
v -0.0096808616071939468 -0.00033635043655522168 -0.006705600768327713
v -0.009515649639070034 0.0011554217198863626 -0.0091000692918896675
v -0.0096400752663612366 -0.00015784427523612976 -0.0085223652422428131
v -0.0095040593296289444 0.0010677315294742584 -0.012362568639218807
v -0.0087597044184803963 0.0035708483774214983 -0.010594943538308144
v -0.009463094174861908 0.0013722641160711646 -0.010756085626780987
v -0.0096118627116084099 -4.1803010390140116e-05 -0.011249102652072906
v -0.009242720901966095 0.002421477809548378 -0.0097284615039825439
v -0.0096159372478723526 -0.00024248800764326006 -0.012927568517625332
v -0.0095042483881115913 0.00089474278502166271 -0.015748452395200729
v -0.0095971124246716499 -0.00041144937858916819 -0.014681738801300526
v -0.009520375169813633 -0.00047887180699035525 -0.016539677977561951
v -0.0093255555257201195 -0.00042783463140949607 -0.018424971029162407
v -0.008895273320376873 -0.00038416447932831943 -0.020349025726318359
v -0.0092519046738743782 0.0021932604722678661 -0.013313743285834789
v -0.0085766594856977463 0.00013743100862484425 -0.021740613505244255
v -0.0084438538178801537 0.0010338569991290569 -0.022582327947020531
v -0.0087259681895375252 0.0033414994832128286 -0.014223848469555378
v -0.0089133540168404579 0.0010332531528547406 -0.021087625995278358
v -0.0068838871084153652 0.00094789895229041576 -0.025519771501421928
v 0.0018551151733845472 -0.010344810783863068 -0.013120729476213455
v -0.0087825730443000793 0.0033566546626389027 -0.012363897636532784
v -0.0074021518230438232 0.0019455739529803395 -0.02515423484146595
v -0.0077161025255918503 0.00073185324436053634 -0.02403542771935463
v -0.006180664524435997 0.0011285088257864118 -0.026514716446399689
v -0.0089572714641690254 -0.0049614841118454933 -0.0073958104476332664
v 0.0016135221812874079 -0.0071500074118375778 -0.02106768824160099
v -0.0031969607807695866 0.0030494672246277332 -0.029048483818769455
v 0.0073197847232222557 0.0037572898436337709 -0.026327995583415031
v 0.0078588454052805901 0.0026420797221362591 -0.025658080354332924
v -0.0092078223824501038 0.0021757311187684536 -0.016722483560442924
v -0.0013694340595975518 0.0048202103935182095 -0.02958398126065731
v -0.0087185213342308998 0.0032965741120278835 -0.015887314453721046
v -0.0092362705618143082 0.0021657529287040234 -0.014982374384999275
v -0.0031118243932723999 0.0074550816789269447 -0.027064688503742218
v -0.0016088377451524138 0.0070018144324421883 -0.028868535533547401
v -0.0015835853992030025 0.0078263487666845322 -0.027843043208122253
v -0.00077143131056800485 0.0063572777435183525 -0.02936173602938652
v -0.00070103118196129799 0.0074718408286571503 -0.028854018077254295
v -7.4810392106883228e-05 0.0037218586076050997 -0.029667381197214127
v 0.0020422604866325855 -0.0093521028757095337 -0.01615666039288044
v 0.0084838811308145523 0.0029677269048988819 -0.024184158071875572
v -0.0081220865249633789 0.0034250945318490267 -0.023145893588662148
v -0.0053172232583165169 -0.006087996531277895 -0.0052805570885539055
v -0.0047833765856921673 -0.0060389917343854904 -0.0066315094009041786
v 0.001837131567299366 -0.0084794620051980019 -0.018416022881865501
v 0.0018280242802575231 -0.0078905811533331871 -0.019665464758872986
v -0.0059480117633938789 0.0039116223342716694 -0.027333745732903481
v -0.0091446647420525551 0.002230948768556118 -0.018522210419178009
v -0.008664238266646862 0.003417744766920805 -0.017629582434892654
v 0.0052274265326559544 -0.006546748336404562 -0.0052883015014231205
v -0.0086637083441019058 0.0022402254398912191 -0.022059271112084389
v -0.0051410156302154064 0.0046434733085334301 -0.027924267575144768
v -0.004004698246717453 0.0040966430678963661 -0.028784116730093956
v -0.0026326782535761595 0.0040145944803953171 -0.029288141056895256
v -0.0037610167637467384 -0.0060938829556107521 -0.0064375591464340687
v -0.0052987472154200077 0.0033454317599534988 -0.027968142181634903
v 0.0018796192016452551 -0.0063005061820149422 -0.0071667577140033245
v 0.0014083040878176689 -0.010681440122425556 -0.011803478002548218
v 0.0036748938728123903 -0.006417387630790472 -0.0064430208876729012
v -4.1516515921102837e-05 -0.0062037133611738682 -0.0074123931117355824
v -0.0086039965972304344 0.0035069959703832865 -0.019490228965878487
v -0.0089935297146439552 0.0022693250793963671 -0.020328089594841003
v -0.0019634375348687172 -0.006133311428129673 -0.007163934875279665
v -0.0012654330348595977 -0.007546507753431797 -0.0089203417301177979
v -0.0073736682534217834 -0.005998529028147459 -0.0052790446206927299
v -0.0064852111972868443 -0.0073637855239212513 -0.006434224545955658
v -0.0084648048505187035 0.0034924170468002558 -0.021345086395740509
v -0.0074875853024423122 0.003335834015160799 -0.024969190359115601
v -0.0062566357664763927 0.0029290865641087294 -0.027002807706594467
v -0.006975528784096241 0.0027674753218889236 -0.026034848764538765
v -0.0066832625307142735 0.0037562125362455845 -0.026414219290018082
v -0.0059148184955120087 -0.0059795770794153214 -0.0068212267942726612
v -0.0045153209939599037 -0.0073369699530303478 -0.0078231524676084518
v -0.0081025417894124985 0.0021104866173118353 -0.02369953878223896
v -0.0036497428081929684 -0.0083581898361444473 -0.008358614519238472
v -0.0034348741173744202 -0.0097420383244752884 -0.0084886420518159866
v -0.0046707922592759132 -0.008703635074198246 -0.007836049422621727
v -0.003040787298232317 -0.0073267244733870029 -0.008478350006043911
v -0.0041404482908546925 -0.0059945113025605679 -0.0079866945743560791
v -0.0021460745483636856 -0.0060425279662013054 -0.00871270801872015
v 0.0007764568435959518 -0.010471261106431484 -0.012828734703361988
v -0.0017108835745602846 -0.01014099083840847 -0.0090267695486545563
v -0.0010747434571385384 -0.008897930383682251 -0.0090390453115105629
v -2.5140048819594085e-05 -0.0083464030176401138 -0.0090749077498912811
v -3.9058024412952363e-05 -0.006121042650192976 -0.0089601846411824226
v 0.0010238896356895566 -0.0088742924854159355 -0.0090039195492863655
v -0.0050179390236735344 0.0058341138064861298 -0.027385691180825233
v -0.0040564103983342648 0.0056106257252395153 -0.028380291536450386
v 0.0013796372804790735 -0.0062470096163451672 -0.022500926628708839
v -0.0028381275478750467 0.0052746748551726341 -0.02909364365041256
v 0.0016381540335714817 -0.0099452566355466843 -0.0089436648413538933
v -0.0039878422394394875 0.0066219940781593323 -0.02766597643494606
v -0.005514275748282671 -0.0076509788632392883 -0.007234521210193634
v -0.0018900391878560185 0.0060678822919726372 -0.029129438102245331
v -0.00046248207218013704 0.0081984326243400574 -0.026533067226409912
v -0.0044773002155125141 0.0068381726741790771 -0.026504566892981529
v -0.0057398597709834576 0.0058100437745451927 -0.026225635781884193
v 0.0052162026986479759 0.0048912316560745239 -0.025282498449087143
v 0.0046127531677484512 0.0058768619783222675 -0.025230811908841133
v 0.0034162418451160192 0.0062164822593331337 -0.025214575231075287
v 0.0018617355963215232 0.0064488537609577179 -0.025204634293913841
v -0.0064931083470582962 0.0054006529971957207 -0.025273896753787994
v -0.0043415199033915997 0.0053070466965436935 -0.025275476276874542
v -0.004982577171176672 0.0066273552365601063 -0.025205975398421288
v -0.0010549838189035654 0.0064546740613877773 -0.025208957493305206
v 0.0011746779782697558 -0.0076018013060092926 -0.008914729580283165
v -0.0032513367477804422 0.0075169592164456844 -0.025155708193778992
v -0.0013736666878685355 0.0080312974750995636 -0.025125252082943916
v -0.0083737876266241074 -0.0045170243829488754 -0.0042848614975810051
v 0.0020671768579632044 -0.0062258280813694 -0.0087158028036355972
v 0.00126564537640661 -0.0051972204819321632 -0.023918893188238144
v 0.0029226725455373526 -0.0075192507356405258 -0.0084787774831056595
v 0.00091313046868890524 -0.0096605271100997925 -0.015613525174558163
v -0.0060919257812201977 -0.0014709023525938392 -0.0071593630127608776
v 0.00076809240272268653 -0.0076580056920647621 -0.020248252898454666
v 0.00073044374585151672 -0.0083000259473919868 -0.018980503082275391
v -0.00823931023478508 -0.0013774789404124022 -0.0071577858179807663
v -0.0083315502852201462 -0.0035135552752763033 -0.0062167462892830372
v 0.0008728615939617157 -0.010137563571333885 -0.01408848911523819
v 0.00099613401107490063 0.004097803495824337 -0.029698843136429787
v 0.0040592476725578308 -0.0063512446358799934 -0.007992718368768692
v 0.0010051645804196596 -0.0090186996385455132 -0.017326142638921738
v 0.0024293691385537386 -0.004419153556227684 -0.024537183344364166
v 0.0025625235866755247 -0.0055209747515618801 -0.023169370368123055
v -0.0036400589160621166 0.0029458762146532536 -0.0070741209201514721
v 0.0039119240827858448 -0.0065187010914087296 -0.021154841408133507
v 0.0032111257314682007 -0.0098570100963115692 -0.0084665603935718536
v 0.0014377445913851261 -0.0021449925843626261 -0.027250787243247032
v 0.005829918198287487 -0.0064905397593975067 -0.0068298550322651863
v 0.0020930266473442316 -0.0033045406453311443 -0.025904461741447449
v 0.0015570197720080614 0.00024707213742658496 -0.028798319399356842
v -0.0061874375678598881 -0.002669087378308177 -0.0067235156893730164
v 0.0072838696651160717 -0.0066362153738737106 -0.0052898125723004341
v -0.005942225456237793 -0.0038758756127208471 -0.0060492316260933876
v 0.0020178081467747688 0.0015325489221140742 -0.029187621548771858
v 0.002677803160622716 -0.0064797159284353256 -0.02182549424469471
v 0.0029041918460279703 -0.0073041720315814018 -0.020385956391692162
v 0.0030742296949028969 -0.0080935424193739891 -0.018713003024458885
v 0.0041988217271864414 -0.0072751780971884727 -0.019633164629340172
v 0.0044525819830596447 -0.0078908316791057587 -0.018078183755278587
v 0.0036401289980858564 -0.0085069891065359116 -0.017320353537797928
v 0.0034834789112210274 -0.009137813001871109 -0.015815030783414841
v 0.0032673345413058996 -0.010023714043200016 -0.013265108689665794
v 0.003626338904723525 -0.010263924486935139 -0.011807113885879517
v 0.0044948095455765724 -0.0093066981062293053 -0.014252248220145702
v 0.0046806996688246727 -0.0097442762926220894 -0.01245551835745573
v 0.0045806271955370903 -0.010087160393595695 -0.010614831931889057
v 0.0030397654045373201 -0.010602329857647419 -0.010666567832231522
v 0.0047952779568731785 -0.010166266933083534 -0.0087157273665070534
v 0.0045921686105430126 -0.0083839902654290199 -0.01666676439344883
v 0.0022545915562659502 -0.0087249716743826866 -0.0087264683097600937
v 0.0025127250701189041 -0.00084064254770055413 -0.027963818982243538
v 0.0030185643117874861 -0.0022484294604510069 -0.026629814878106117
v 0.0033119258005172014 0.0014658635482192039 -0.028901014477014542
v 0.0026165028102695942 0.00048575480468571186 -0.028707405552268028
v 0.0034999682102352381 -0.0034413852263242006 -0.025189030915498734
v 0.0047457306645810604 -0.0055594691075384617 -0.021993033587932587
v 0.0039281467907130718 -0.0047147958539426327 -0.023559872061014175
v 0.0051921489648520947 -0.0063397204503417015 -0.02043420635163784
v 0.0054527353495359421 -0.0070432703942060471 -0.018796633929014206
v 0.0064072888344526291 -0.0059875925071537495 -0.019475014880299568
v 0.0066111977212131023 -0.0066779502667486668 -0.01774553582072258
v 0.0066232322715222836 -0.0074196555651724339 -0.015892332419753075
v 0.0057388944551348686 -0.0084315408021211624 -0.01482776366174221
v 0.0054842554964125156 -0.0081472694873809814 -0.016024528071284294
v 0.006921776570379734 -0.0078018815256655216 -0.013989928178489208
v 0.0070413430221378803 -0.0081071071326732635 -0.012218606658279896
v 0.0058658267371356487 -0.0088463528081774712 -0.013218280859291553
v 0.0070867873728275299 -0.008310624398291111 -0.010452554561197758
v 0.0059409658424556255 -0.0091634830459952354 -0.011439994908869267
v 0.005988722201436758 -0.0093332855030894279 -0.009604278951883316
v 0.0072255930863320827 -0.0083495443686842918 -0.0069389035925269127
v 0.0059366128407418728 -0.0092004211619496346 -0.0076750344596803188
v 0.0071059730835258961 -0.0084126470610499382 -0.0087185585871338844
v 0.0055736987851560116 -0.0076498282141983509 -0.017215495929121971
v 0.0061162044294178486 -0.0051484801806509495 -0.021219763904809952
v 0.0044672633521258831 -0.0023352624848484993 -0.025862971320748329
v 0.0049786982126533985 -0.0034438446164131165 -0.024369975551962852
v 0.0040083141066133976 -0.0011610891669988632 -0.027189597487449646
v 0.0036762084346264601 0.00014333301805891097 -0.028193783015012741
v 0.005484298337250948 -0.0044246939942240715 -0.022837402299046516
v 0.007726004347205162 -0.0060903136618435383 -0.016556458547711372
v 0.0078305592760443687 -0.0066103413701057434 -0.014734801836311817
v 0.0082122338935732841 -0.0041764844208955765 -0.019113684073090553
v 0.0086200600489974022 -0.0045764748938381672 -0.017109077423810959
v 0.0075410944409668446 -0.005467201117426157 -0.018377089872956276
v 0.0086242770776152611 -0.0053355139680206776 -0.015313651412725449
v 0.0086818784475326538 -0.0057000890374183655 -0.013615990988910198
v 0.0079343384131789207 -0.0069301016628742218 -0.012951659969985485
v 0.0087145119905471802 -0.0059305932372808456 -0.011915904469788074
v 0.0079683829098939896 -0.0072918194346129894 -0.0095162680372595787
v 0.0082686999812722206 -0.0069678225554525852 -0.0071285143494606018
v 0.0079793687909841537 -0.0071456069126725197 -0.011210625059902668
v 0.0087212687358260155 -0.0060803089290857315 -0.010224506258964539
v 0.0081964964047074318 -0.0070752715691924095 -0.0058121345937252045
v 0.009001617319881916 -0.0055862846784293652 -0.0063845631666481495
v -0.0084075899794697762 -0.0052870041690766811 -0.0046982001513242722
v 0.0087053822353482246 -0.0061848815530538559 -0.0083915246650576591
v 0.0072139236144721508 -0.0048643290065228939 -0.020052794367074966
v 0.0069747748784720898 -0.0043162815272808075 -0.021244203671813011
v 0.0072077270597219467 -0.0034945691004395485 -0.021967768669128418
v 0.0077456631697714329 -0.0038000198546797037 -0.0206791702657938
v 0.0064650550484657288 -0.0041427453979849815 -0.0221576988697052
v 0.0043752985075116158 -0.007670670747756958 -0.0078251631930470467
v 0.0064267460256814957 -0.0031957628671079874 -0.023351613432168961
v 0.0062785083428025246 -0.0079190796241164207 -0.0064436011016368866
v 0.005856748204678297 -0.0022021811455488205 -0.024998998269438744
v 0.0053158486261963844 -0.0012079512234777212 -0.026374833658337593
v 0.0044342279434204102 -0.0090174861252307892 -0.0077851153910160065
v 0.0049261501990258694 -9.0354667918290943e-05 -0.02747197262942791
v -0.0083858827129006386 -0.0047953049652278423 -0.0042694741860032082
v -0.0093418583273887634 0.0012054856633767486 -0.0065807178616523743
v 0.0087052443996071815 -0.0060195028781890869 -0.005021111574023962
v 0.0039579770527780056 0.0042600925080478191 -0.029120530933141708
v 0.005261699203401804 0.0038314973935484886 -0.028511518612504005
v 0.0095358565449714661 0.0026867480482906103 -0.010533515363931656
v 0.0058043417520821095 0.00089007633505389094 -0.027499742805957794
v 0.0060199308209121227 -0.00016404790221713483 -0.026664111763238907
v 0.0046430053189396858 0.0012131023686379194 -0.028322188183665276
v 0.0023143973667174578 0.0043920264579355717 -0.029574362561106682
v 0.0064866924658417702 -0.00098645489197224379 -0.02557515911757946
v 0.0035693827085196972 0.005702220369130373 -0.028982121497392654
v 0.0096579082310199738 -0.00360472546890378 -0.011488436721265316
v 0.004898441955447197 0.0051605147309601307 -0.028465792536735535
v 0.0068116271868348122 -5.9205580328125507e-05 -0.025972789153456688
v 0.0074520469643175602 -0.00028093389119021595 -0.024970689788460732
v 0.0072263674810528755 -0.0016912429127842188 -0.024007929489016533
v 0.0096402959898114204 -0.0038472882006317377 -0.0070422147400677204
v 0.0074435630813241005 -0.0025968246627599001 -0.022690361365675926
v 0.0080295251682400703 -0.0027651763521134853 -0.021490840241312981
v 0.0081845913082361221 -0.001710040494799614 -0.022463340312242508
v 0.0085922162979841232 -0.0029799658805131912 -0.0200240109115839
v 0.0088042188435792923 -0.0018627974204719067 -0.020957630127668381
v 0.009243842214345932 -0.0019873166456818581 -0.01948225311934948
v 0.0091307004913687706 -0.0030433486681431532 -0.018246270716190338
v 0.0093929469585418701 -0.0032849228009581566 -0.016412951052188873
v 0.0095584848895668983 -0.0033236644230782986 -0.014853885397315025
v 0.009685552679002285 -0.0032430686987936497 -0.013186576776206493
v 0.0096087874844670296 -0.0039049116894602776 -0.010166287422180176
v 0.0045412676408886909 0.0064151380211114883 -0.027921581640839577
v -0.0092222560197114944 0.0027145794592797756 -0.0065524433739483356
v 0.0097262095659971237 -0.0034563313238322735 -0.0087589602917432785
v 0.0052478238940238953 0.0065882527269423008 -0.026549492031335831
v 0.0096613774076104164 -0.0020841052755713463 -0.01710045151412487
v 0.0097816959023475647 -0.0022105369716882706 -0.015534370206296444
v 0.0098365088924765587 -0.0023767047096043825 -0.014226288534700871
v 0.0099073136225342751 -0.0022198716178536415 -0.011845518834888935
v 0.009882061742246151 -0.0026753721758723259 -0.010285004042088985
v 0.00056987092830240726 0.0081483004614710808 -0.025115914642810822
v 0.005674285814166069 0.0056498264893889427 -0.027430100366473198
v 0.0062528462149202824 0.0056727989576756954 -0.026306647807359695
v 0.0073672998696565628 0.004797646775841713 -0.025284077972173691
v -0.0088219819590449333 -0.0047763343900442123 -0.0042691552080214024
v -0.0095766335725784302 -0.0015989000676199794 -0.013515431433916092
v 0.0043217483907938004 0.0071874870918691158 -0.025161271914839745
v -0.0094202915206551552 -0.0019962720107287169 -0.015362938866019249
v 0.009001484140753746 -0.0053694183006882668 -0.0043234736658632755
v 0.0094961272552609444 -0.004146442748606205 -0.0054120398126542568
v 0.0098639475181698799 -0.0026749968528747559 -0.0062013142742216587
v -0.0054369969293475151 0.00068418064620345831 -0.026988983154296875
v 0.0071165403351187706 0.0046469904482364655 -0.022256005555391312
v 0.0066754319705069065 0.00069777824683114886 -0.02662021666765213
v 0.0065573211759328842 0.0015893041854724288 -0.027157993987202644
v 0.0073501192964613438 0.0015217489562928677 -0.026215460151433945
v -0.0090846316888928413 -0.003587131155654788 -0.014857728034257889
v 0.0073461751453578472 0.00058204913511872292 -0.025745393708348274
v 0.0082404576241970062 0.0011734787840396166 -0.024622226133942604
v -0.0096220001578330994 -0.0014322689967229962 -0.011785822920501232
v 0.0082538528367877007 -0.00044936532503925264 -0.023495368659496307
v 0.008936835452914238 -0.0006514211418107152 -0.021845273673534393
v 0.0089959939941763878 0.00070595077704638243 -0.022710371762514114
v 0.0094818565994501114 0.00045950990170240402 -0.020978929474949837
v 0.0093955760821700096 -0.00086493015987798572 -0.020245514810085297
v 0.0097859855741262436 0.0001311293599428609 -0.019088625907897949
v 0.0095978658646345139 -0.001124296453781426 -0.018996620550751686
v 0.0098158642649650574 -0.00096244848100468516 -0.017829658463597298
v 0.0099428193643689156 -0.0009822020074352622 -0.01624971441924572
v 0.0099443886429071426 0.0002617871796246618 -0.017221586778759956
v 0.0099823158234357834 0.00029391053249128163 -0.015468623489141464
v 0.0099925464019179344 -0.001083146664313972 -0.014395293779671192
v 0.010037794709205627 -0.00070642115315422416 -0.012429099529981613
v 0.0099792052060365677 0.00041390725527890027 -0.013751930557191372
v 0.009946037083864212 0.00067468819906935096 -0.012371036224067211
v 0.010014968924224377 0.00034322415012866259 -0.011005036532878876
v 0.010026906616985798 -0.0011262012412771583 -0.010566038079559803
v 0.010068682953715324 -0.00092499959282577038 -0.0077470177784562111
v 0.0059691127389669418 0.0061508943326771259 -0.025214020162820816
v -0.0096459239721298218 -0.0012472952948883176 -0.0098347710445523262
v 0.010039849206805229 0.00020171045616734773 -0.0089763347059488297
v 0.00416995445266366 0.0027658157050609589 -0.028954166918992996
v -0.0096368752419948578 -0.0018741638632491231 -0.0062984302639961243
v -0.0096440352499485016 -0.00157001125626266 -0.0078839398920536041
v 0.0024958881549537182 0.0078629497438669205 -0.025128094479441643
v -0.0092586912214756012 -0.0040012970566749573 -0.0072757569141685963
v -0.0090051339939236641 -0.0047110104933381081 -0.0044147730804979801
v -0.0093962457031011581 -0.0034100830089300871 -0.0055088172666728497
v -0.0091486144810914993 -0.003871407825499773 -0.013226102106273174
v -0.0092185446992516518 -0.0018118979642167687 -0.017425892874598503
v -0.0089256446808576584 -0.0032287514768540859 -0.016591094434261322
v 0.0031982450745999813 0.0070801358669996262 -0.028290195390582085
v 0.0017861491069197655 0.0078012002632021904 -0.028366958722472191
v 0.00018379846005700529 0.0081390002742409706 -0.028057083487510681
v 0.0027697572950273752 0.0078621646389365196 -0.027363372966647148
v 0.00052142923232167959 0.0071171480230987072 -0.029250098392367363
v 0.0039481977000832558 0.0073535428382456303 -0.026971513405442238
v -0.0054725678637623787 -0.00019115368195343763 -0.026385361328721046
v -0.0082104383036494255 -0.0026729702949523926 -0.019942974671721458
v -0.0092135537415742874 -0.0039573046378791332 -0.011595842428505421
v -0.0092570343986153603 -0.0039448230527341366 -0.01010323129594326
v 0.0015009792987257242 0.0081313615664839745 -0.026691142469644547
v -0.0032346593216061592 0.0018057551933452487 -0.028760680928826332
v -0.0081509184092283249 -0.00095449772197753191 -0.021890731528401375
f 297 398 424
f 304 5 7
f 36 37 38
f 63 782 817
f 11 375 12
f 14 15 16
f 418 18 3
f 419 14 330
f 5 21 313
f 16 22 14
f 628 62 63
f 3 25 272
f 28 26 399
f 31 29 406
f 407 9 388
f 34 11 13
f 8 35 336
f 13 32 34
f 98 633 634
f 39 10 40
f 41 40 42
f 98 632 56
f 46 44 414
f 48 15 384
f 44 49 403
f 386 45 349
f 323 102 57
f 55 393 53
f 339 54 633
f 57 58 59
f 59 58 60
f 61 59 60
f 19 461 62
f 38 61 60
f 318 36 280
f 633 54 102
f 64 7 313
f 65 66 15
f 64 428 25
f 67 25 3
f 2 43 17
f 24 68 6
f 38 37 61
f 293 75 287
f 354 69 280
f 57 53 58
f 394 69 354
f 71 72 52
f 57 102 54
f 73 70 352
f 188 189 190
f 22 19 330
f 354 70 394
f 38 60 354
f 60 58 352
f 47 384 14
f 58 53 393
f 74 47 394
f 55 50 73
f 403 74 353
f 71 52 339
f 387 52 349
f 20 69 419
f 15 66 16
f 14 419 47
f 407 33 355
f 49 48 396
f 70 73 353
f 42 51 77
f 350 163 150
f 349 51 386
f 45 414 50
f 77 51 72
f 51 52 72
f 65 78 79
f 17 23 418
f 47 74 396
f 78 65 15
f 353 50 403
f 80 78 382
f 55 45 50
f 27 80 413
f 81 27 392
f 420 46 386
f 386 42 420
f 42 77 41
f 15 48 382
f 83 43 79
f 48 49 413
f 43 83 17
f 49 44 392
f 26 83 381
f 30 28 402
f 44 46 401
f 84 30 389
f 82 81 401
f 39 40 41
f 40 82 420
f 78 80 381
f 83 79 78
f 83 26 412
f 80 27 399
f 30 84 411
f 27 81 402
f 81 82 389
f 29 23 391
f 85 31 411
f 82 40 410
f 39 8 324
f 10 84 410
f 67 3 18
f 23 17 412
f 29 31 390
f 26 28 391
f 31 85 400
f 28 30 406
f 359 24 409
f 287 91 285
f 84 10 408
f 264 495 438
f 9 85 408
f 85 9 407
f 7 67 6
f 23 29 409
f 18 6 67
f 124 221 222
f 409 87 359
f 265 521 424
f 87 390 88
f 285 90 287
f 435 296 295
f 76 88 400
f 33 388 32
f 355 76 407
f 34 32 35
f 35 32 388
f 298 4 304
f 24 18 418
f 198 782 461
f 294 96 298
f 94 68 359
f 699 721 704
f 92 94 87
f 293 93 294
f 76 75 92
f 287 95 293
f 285 13 288
f 91 75 355
f 13 91 33
f 288 89 285
f 338 465 347
f 311 564 566
f 314 317 437
f 424 314 297
f 89 12 437
f 100 561 569
f 519 405 105
f 750 110 106
f 770 752 830
f 750 106 650
f 405 281 369
f 480 787 104
f 494 252 104
f 317 219 655
f 108 475 478
f 489 495 108
f 369 290 360
f 111 476 789
f 475 485 249
f 840 779 823
f 112 606 612
f 223 500 113
f 486 273 113
f 312 463 347
f 90 89 317
f 125 166 123
f 244 648 416
f 127 836 128
f 129 128 123
f 128 453 125
f 114 153 159
f 114 596 595
f 134 135 136
f 624 565 567
f 137 127 129
f 127 137 138
f 139 140 137
f 137 140 141
f 200 143 291
f 145 141 140
f 146 147 145
f 149 132 130
f 117 728 724
f 136 151 150
f 432 153 152
f 131 154 169
f 155 156 142
f 152 153 727
f 291 142 200
f 159 153 432
f 156 158 200
f 160 155 142
f 154 161 155
f 155 160 154
f 130 162 131
f 130 132 134
f 150 163 136
f 136 164 134
f 100 165 841
f 772 270 117
f 165 216 166
f 518 279 405
f 167 123 166
f 118 725 663
f 139 129 167
f 123 167 129
f 129 139 137
f 137 141 138
f 138 141 147
f 141 145 147
f 145 350 150
f 118 736 702
f 150 146 145
f 150 151 146
f 151 136 135
f 136 163 164
f 135 134 132
f 134 164 168
f 162 130 168
f 130 134 168
f 119 589 651
f 131 162 161
f 154 160 170
f 154 131 161
f 119 659 580
f 160 142 199
f 170 199 144
f 171 144 291
f 291 143 432
f 143 158 159
f 224 173 174
f 175 156 174
f 516 583 557
f 155 161 177
f 120 795 827
f 120 784 786
f 175 182 176
f 268 529 535
f 176 159 158
f 175 173 182
f 177 174 155
f 185 186 187
f 188 185 187
f 162 168 188
f 190 185 188
f 188 168 189
f 191 190 192
f 121 79 442
f 184 194 193
f 121 443 65
f 165 253 216
f 324 10 39
f 201 195 167
f 306 115 426
f 220 213 195
f 216 201 166
f 705 692 693
f 36 629 630
f 122 824 826
f 193 163 184
f 145 140 183
f 165 100 253
f 122 821 822
f 124 183 221
f 166 125 165
f 124 194 184
f 166 201 167
f 688 687 126
f 167 195 139
f 139 178 140
f 178 183 140
f 183 184 145
f 183 178 215
f 184 163 350
f 184 183 124
f 164 163 193
f 193 194 191
f 191 192 193
f 192 189 164
f 190 189 192
f 189 168 164
f 162 188 187
f 666 654 126
f 162 187 161
f 187 177 161
f 172 177 186
f 177 187 186
f 172 174 177
f 174 156 155
f 173 175 174
f 175 158 156
f 191 194 202
f 133 805 806
f 172 206 207
f 210 208 341
f 210 190 211
f 765 764 133
f 215 178 213
f 148 537 440
f 148 374 534
f 36 318 628
f 170 169 154
f 501 431 842
f 513 283 279
f 279 518 217
f 195 212 220
f 213 214 215
f 183 215 221
f 294 92 293
f 222 194 124
f 202 194 222
f 179 478 789
f 289 208 211
f 341 383 209
f 211 208 210
f 209 383 206
f 226 207 206
f 546 548 581
f 205 173 224
f 360 307 369
f 139 195 213
f 363 292 380
f 518 405 519
f 195 201 212
f 181 489 492
f 213 178 139
f 220 214 213
f 181 261 438
f 325 462 196
f 228 243 229
f 221 215 228
f 229 241 308
f 222 221 229
f 308 202 222
f 202 211 191
f 351 211 202
f 211 190 191
f 190 210 185
f 210 209 185
f 185 209 186
f 209 206 186
f 186 206 172
f 427 474 196
f 172 207 224
f 674 677 678
f 425 205 207
f 173 205 429
f 197 766 767
f 306 219 360
f 236 237 319
f 197 717 715
f 559 558 198
f 17 3 2
f 245 214 247
f 228 214 245
f 280 20 318
f 248 247 220
f 216 251 250
f 199 142 144
f 170 160 199
f 380 303 377
f 426 115 95
f 216 212 201
f 200 142 156
f 243 228 245
f 200 158 143
f 774 806 807
f 351 239 257
f 271 536 818
f 727 825 152
f 426 90 655
f 344 266 425
f 107 93 115
f 466 447 461
f 436 283 593
f 466 312 469
f 593 283 512
f 249 476 111
f 248 212 250
f 212 216 250
f 553 517 546
f 220 212 248
f 292 282 378
f 37 631 61
f 220 247 214
f 380 281 363
f 203 41 77
f 257 289 351
f 332 361 203
f 277 839 171
f 633 56 339
f 257 236 258
f 621 616 334
f 319 258 236
f 125 841 165
f 301 319 237
f 246 415 416
f 232 237 649
f 377 302 367
f 278 303 378
f 107 115 367
f 109 107 385
f 67 7 64
f 307 521 105
f 241 239 308
f 436 590 331
f 351 308 239
f 649 550 611
f 257 258 289
f 204 695 694
f 302 303 278
f 672 680 204
f 331 275 282
f 329 815 819
f 302 227 385
f 329 816 179
f 295 344 232
f 369 105 405
f 298 94 294
f 112 613 594
f 107 109 322
f 594 613 614
f 157 96 322
f 365 109 372
f 217 513 279
f 113 269 223
f 193 192 164
f 174 172 224
f 224 207 205
f 175 176 158
f 169 149 131
f 586 599 577
f 235 823 785
f 231 564 637
f 237 232 301
f 252 480 104
f 4 157 255
f 225 736 659
f 395 233 376
f 262 275 587
f 227 234 372
f 275 262 233
f 225 734 739
f 372 218 365
f 231 566 564
f 273 234 370
f 638 779 625
f 243 241 229
f 115 93 95
f 785 835 235
f 255 157 365
f 840 235 833
f 238 261 423
f 238 5 255
f 240 587 640
f 255 218 263
f 351 202 308
f 344 226 301
f 240 651 589
f 106 665 487
f 242 609 610
f 96 157 4
f 242 593 585
f 248 250 658
f 244 727 444
f 648 284 300
f 234 273 368
f 223 269 262
f 246 647 415
f 249 485 491
f 249 494 476
f 252 494 502
f 252 496 480
f 370 269 113
f 315 451 746
f 316 721 728
f 544 551 547
f 254 718 717
f 254 767 768
f 430 678 677
f 263 218 368
f 256 753 769
f 261 263 438
f 256 724 720
f 4 255 5
f 314 521 307
f 219 317 366
f 234 227 376
f 229 221 228
f 228 215 214
f 259 445 101
f 259 442 441
f 431 837 260
f 772 758 270
f 485 264 486
f 107 96 93
f 319 341 258
f 265 644 521
f 265 520 647
f 594 267 615
f 267 614 636
f 304 68 298
f 437 12 397
f 268 534 551
f 376 278 395
f 284 662 300
f 266 344 295
f 230 253 100
f 272 2 3
f 233 269 370
f 270 728 117
f 255 261 238
f 270 758 726
f 665 684 685
f 271 535 536
f 271 532 531
f 439 449 441
f 779 638 498
f 274 720 718
f 274 768 753
f 276 798 784
f 587 275 331
f 208 289 258
f 276 827 838
f 277 822 818
f 743 496 725
f 280 69 20
f 423 5 238
f 492 483 21
f 423 261 181
f 38 280 36
f 799 761 757
f 308 222 229
f 495 489 438
f 429 182 173
f 244 444 284
f 284 664 662
f 7 6 304
f 285 91 13
f 285 89 90
f 286 531 532
f 286 530 742
f 287 90 95
f 287 75 91
f 232 344 301
f 288 12 89
f 492 21 423
f 288 13 11
f 432 171 291
f 507 262 587
f 368 273 497
f 291 144 142
f 500 486 113
f 293 95 93
f 293 92 75
f 262 507 223
f 294 93 96
f 294 94 92
f 331 590 587
f 297 397 398
f 297 314 437
f 298 68 94
f 298 96 4
f 775 807 810
f 130 131 149
f 319 301 383
f 608 609 603
f 486 497 273
f 299 506 340
f 282 275 395
f 279 283 363
f 292 283 436
f 299 502 503
f 296 335 266
f 300 662 644
f 300 647 246
f 283 513 512
f 286 742 440
f 304 6 68
f 304 4 5
f 323 637 634
f 305 818 798
f 305 838 839
f 309 590 615
f 309 640 587
f 310 610 615
f 377 290 380
f 310 590 593
f 367 306 377
f 351 289 211
f 314 307 366
f 311 622 564
f 424 520 265
f 12 379 397
f 427 64 313
f 7 5 313
f 315 462 819
f 315 814 451
f 316 704 721
f 316 722 702
f 318 62 628
f 318 20 19
f 37 630 631
f 365 157 322
f 107 322 96
f 323 57 343
f 324 8 336
f 324 9 10
f 468 325 473
f 321 326 562
f 325 819 462
f 341 209 210
f 547 321 562
f 326 332 579
f 329 772 778
f 330 14 22
f 330 19 20
f 364 326 321
f 226 383 301
f 203 356 332
f 59 61 362
f 331 282 436
f 387 54 339
f 223 503 500
f 223 507 509
f 346 333 627
f 345 673 510
f 266 295 296
f 591 332 328
f 328 356 358
f 335 296 612
f 258 341 208
f 597 328 320
f 335 425 266
f 320 328 358
f 336 35 388
f 336 9 324
f 768 776 337
f 337 810 811
f 338 101 465
f 121 442 338
f 339 56 71
f 339 52 387
f 340 506 663
f 340 496 502
f 342 504 444
f 226 344 425
f 433 425 335
f 357 320 358
f 327 320 357
f 342 727 595
f 343 637 323
f 632 327 357
f 341 319 383
f 343 635 638
f 434 335 612
f 333 601 598
f 460 621 435
f 632 333 327
f 777 811 815
f 437 317 89
f 348 681 657
f 1 459 435
f 347 472 312
f 347 443 338
f 432 143 159
f 681 642 636
f 346 577 601
f 627 617 346
f 582 586 577
f 112 594 608
f 618 582 617
f 348 734 642
f 349 45 55
f 349 52 51
f 618 311 620
f 350 145 184
f 73 393 55
f 352 70 60
f 393 73 352
f 394 70 353
f 353 73 50
f 280 38 354
f 226 206 383
f 354 60 70
f 33 91 355
f 355 75 76
f 620 584 583
f 76 92 88
f 87 94 359
f 359 68 24
f 561 100 584
f 87 88 92
f 33 32 13
f 24 6 18
f 377 306 360
f 360 219 307
f 362 635 59
f 362 631 779
f 281 405 279
f 363 283 292
f 582 577 346
f 263 261 255
f 322 109 365
f 346 617 582
f 346 601 333
f 366 317 314
f 366 307 219
f 327 598 572
f 233 262 269
f 233 395 275
f 385 107 367
f 367 115 306
f 497 263 368
f 372 234 368
f 226 425 207
f 302 278 227
f 302 377 303
f 426 219 306
f 327 572 320
f 572 597 320
f 369 281 290
f 369 307 105
f 376 233 370
f 113 273 370
f 436 282 292
f 385 227 372
f 368 218 372
f 370 234 376
f 376 227 278
f 597 591 328
f 360 290 377
f 326 361 332
f 579 332 591
f 562 326 579
f 395 278 378
f 378 303 292
f 380 292 303
f 380 290 281
f 381 83 78
f 399 26 381
f 382 78 15
f 425 433 205
f 335 434 433
f 373 364 321
f 413 80 382
f 429 205 433
f 384 15 14
f 396 48 384
f 255 365 218
f 375 374 148
f 367 302 385
f 456 550 673
f 422 375 523
f 834 568 832
f 373 321 547
f 345 672 675
f 534 374 371
f 534 371 551
f 372 109 385
f 371 373 551
f 373 547 551
f 386 51 42
f 414 45 386
f 349 55 387
f 387 53 54
f 388 9 336
f 364 361 326
f 251 487 661
f 251 253 487
f 569 106 230
f 661 490 251
f 402 81 389
f 333 598 327
f 332 356 328
f 632 627 333
f 410 84 389
f 116 561 567
f 583 582 618
f 620 624 561
f 583 584 557
f 678 460 459
f 553 552 549
f 56 633 98
f 566 565 311
f 567 565 568
f 374 11 34
f 567 561 624
f 568 566 832
f 400 88 390
f 409 29 390
f 412 26 391
f 834 116 567
f 374 34 371
f 34 35 371
f 35 8 373
f 406 29 391
f 12 288 11
f 8 364 373
f 413 49 392
f 401 81 392
f 53 387 55
f 352 58 393
f 581 572 604
f 356 72 358
f 353 74 394
f 358 71 357
f 419 69 394
f 378 282 395
f 384 47 396
f 361 41 203
f 54 53 57
f 39 361 364
f 77 356 203
f 72 356 77
f 74 403 49
f 357 71 56
f 632 357 56
f 381 80 399
f 402 28 399
f 358 72 71
f 407 76 400
f 41 361 39
f 390 31 400
f 420 82 401
f 39 364 8
f 392 44 401
f 35 373 371
f 510 570 672
f 375 11 374
f 422 379 375
f 375 379 12
f 399 27 402
f 526 575 668
f 417 379 422
f 246 416 648
f 389 30 402
f 49 396 74
f 414 44 403
f 279 363 281
f 398 404 520
f 105 644 519
f 391 28 406
f 411 31 406
f 548 546 545
f 388 33 407
f 400 85 407
f 408 10 9
f 411 84 408
f 570 526 672
f 418 23 409
f 390 87 409
f 410 40 10
f 397 421 398
f 389 82 410
f 416 639 244
f 408 85 411
f 379 417 421
f 406 30 411
f 397 379 421
f 391 23 412
f 398 421 404
f 412 17 83
f 382 48 413
f 520 404 415
f 244 639 727
f 392 27 413
f 647 520 415
f 639 741 727
f 421 422 771
f 771 742 421
f 403 50 414
f 386 46 414
f 3 17 418
f 421 742 404
f 409 24 418
f 330 20 419
f 394 47 419
f 420 42 40
f 588 550 456
f 401 46 420
f 181 492 423
f 742 530 404
f 530 415 404
f 821 416 415
f 826 639 416
f 530 821 415
f 423 21 5
f 624 620 311
f 652 575 526
f 438 497 264
f 424 398 520
f 424 521 314
f 821 826 416
f 625 779 840
f 426 95 90
f 334 613 612
f 434 612 606
f 430 679 657
f 430 460 678
f 422 421 417
f 432 152 555
f 570 652 526
f 216 253 251
f 593 590 436
f 437 397 297
f 438 263 497
f 438 489 181
f 440 771 523
f 440 537 531
f 62 782 63
f 444 664 284
f 444 727 342
f 579 591 578
f 550 649 510
f 515 790 554
f 568 565 566
f 568 834 567
f 825 783 639
f 443 66 65
f 65 79 121
f 338 443 121
f 574 609 585
f 442 43 441
f 43 2 441
f 585 573 574
f 573 595 602
f 435 588 1
f 678 459 1
f 588 456 1
f 434 429 433
f 626 627 634
f 637 638 231
f 626 634 637
f 626 637 564
f 634 627 632
f 435 459 460
f 629 817 785
f 25 428 439
f 313 21 427
f 36 628 629
f 272 25 439
f 630 785 823
f 631 362 61
f 823 631 630
f 57 635 343
f 59 635 57
f 817 628 63
f 36 630 37
f 628 817 629
f 629 785 630
f 230 100 569
f 481 483 482
f 823 779 631
f 323 633 102
f 634 632 98
f 427 483 481
f 635 362 498
f 21 483 427
f 634 633 323
f 64 427 428
f 638 637 343
f 25 67 64
f 639 783 741
f 569 561 116
f 644 265 647
f 596 159 176
f 300 246 648
f 443 463 66
f 284 648 244
f 442 79 43
f 664 504 508
f 504 664 444
f 463 16 66
f 22 16 463
f 22 463 466
f 588 295 611
f 595 504 342
f 496 663 725
f 725 726 743
f 743 480 496
f 663 736 118
f 703 702 736
f 739 657 679
f 334 296 435
f 231 638 625
f 782 62 461
f 623 607 603
f 606 429 434
f 62 318 19
f 606 182 429
f 441 2 272
f 176 182 607
f 22 466 791
f 461 19 791
f 550 588 611
f 782 198 558
f 470 782 558
f 159 596 114
f 727 153 595
f 504 595 573
f 528 470 558
f 607 182 606
f 506 580 663
f 619 556 241
f 702 725 118
f 643 570 510
f 741 783 825
f 741 825 727
f 471 470 528
f 528 514 745
f 225 739 703
f 754 471 745
f 703 739 679
f 663 496 340
f 176 607 623
f 176 623 596
f 595 153 114
f 148 523 375
f 657 460 430
f 657 621 460
f 446 653 641
f 625 832 566
f 625 566 231
f 826 825 639
f 556 576 645
f 311 618 622
f 311 565 624
f 481 474 427
f 626 622 617
f 627 626 617
f 458 428 427
f 831 832 840
f 746 428 458
f 439 428 746
f 840 832 625
f 439 746 449
f 441 272 439
f 781 773 817
f 835 833 235
f 835 785 773
f 782 781 817
f 817 773 785
f 449 445 441
f 823 235 840
f 830 835 770
f 576 575 646
f 441 445 259
f 752 180 830
f 754 770 780
f 835 773 770
f 338 442 259
f 259 101 338
f 773 781 780
f 773 780 770
f 754 752 770
f 465 472 347
f 463 443 347
f 435 295 588
f 752 750 180
f 658 493 248
f 312 472 469
f 469 447 466
f 116 180 750
f 561 584 620
f 556 645 241
f 470 780 781
f 752 754 744
f 746 462 315
f 458 462 746
f 744 511 750
f 652 646 575
f 781 782 470
f 604 552 553
f 451 449 746
f 819 814 315
f 754 780 471
f 745 820 744
f 571 461 447
f 450 813 812
f 445 450 103
f 103 101 445
f 461 571 198
f 466 463 312
f 809 103 812
f 682 658 490
f 464 465 101
f 808 464 809
f 467 479 472
f 641 619 243
f 465 467 472
f 471 780 470
f 646 239 645
f 479 467 804
f 802 479 804
f 473 477 468
f 484 477 473
f 484 474 482
f 473 474 484
f 482 474 481
f 454 447 469
f 475 495 485
f 510 649 643
f 650 106 569
f 649 237 643
f 802 454 479
f 249 111 475
f 108 477 489
f 477 484 492
f 104 476 494
f 484 482 483
f 484 483 492
f 571 457 797
f 477 492 489
f 457 801 797
f 559 571 797
f 794 559 797
f 645 576 646
f 495 475 108
f 505 514 528
f 794 505 559
f 485 495 264
f 745 471 528
f 744 754 745
f 511 110 750
f 652 570 643
f 264 497 486
f 650 116 750
f 498 362 779
f 498 638 635
f 486 500 488
f 503 488 500
f 509 503 223
f 750 752 744
f 493 446 247
f 506 299 503
f 808 804 467
f 241 243 619
f 507 589 509
f 479 454 469
f 103 809 464
f 571 447 457
f 587 589 507
f 571 559 198
f 505 558 559
f 237 236 643
f 464 808 467
f 528 558 505
f 505 793 514
f 593 512 585
f 514 820 745
f 513 585 512
f 508 585 513
f 620 583 618
f 217 518 664
f 487 253 230
f 251 490 250
f 514 793 747
f 250 490 658
f 248 493 247
f 446 245 247
f 446 641 245
f 802 801 454
f 641 243 245
f 820 511 744
f 241 645 239
f 793 505 794
f 646 257 239
f 257 652 236
f 217 508 513
f 469 472 479
f 646 652 257
f 464 101 103
f 643 236 652
f 611 295 232
f 508 217 664
f 649 611 232
f 103 450 812
f 445 449 450
f 619 641 654
f 654 688 126
f 686 688 653
f 451 813 450
f 447 454 457
f 451 450 449
f 665 685 661
f 814 813 451
f 662 518 519
f 487 230 106
f 662 664 518
f 105 521 644
f 462 458 196
f 556 619 666
f 667 666 656
f 576 667 668
f 669 670 668
f 668 671 526
f 668 670 671
f 526 671 672
f 510 672 345
f 456 673 674
f 675 676 673
f 673 676 674
f 674 676 677
f 1 456 678
f 677 679 430
f 644 662 519
f 468 819 325
f 801 457 454
f 647 300 644
f 196 474 473
f 658 660 493
f 446 493 660
f 660 653 446
f 641 653 654
f 660 686 653
f 619 654 666
f 654 653 688
f 556 666 667
f 126 656 666
f 669 667 656
f 576 556 667
f 669 668 667
f 575 576 668
f 196 473 325
f 671 670 680
f 204 675 672
f 672 671 680
f 675 673 345
f 550 510 673
f 467 465 464
f 456 674 678
f 564 622 626
f 622 618 617
f 537 535 531
f 789 475 111
f 682 709 683
f 468 477 108
f 686 660 683
f 655 219 426
f 669 656 689
f 690 691 692
f 693 694 695
f 696 697 698
f 697 699 700
f 700 699 701
f 679 677 701
f 702 703 704
f 704 703 701
f 698 697 700
f 694 698 675
f 693 695 705
f 104 787 788
f 680 670 705
f 670 669 690
f 691 689 706
f 689 656 687
f 707 708 686
f 687 656 126
f 709 738 707
f 788 476 104
f 710 740 709
f 685 710 682
f 665 106 110
f 661 487 665
f 789 478 475
f 110 684 665
f 490 661 682
f 684 749 710
f 682 661 685
f 660 658 683
f 683 658 682
f 789 476 788
f 707 686 683
f 655 90 317
f 708 735 711
f 688 686 708
f 706 687 711
f 687 688 711
f 669 689 690
f 689 687 706
f 670 690 705
f 690 689 691
f 705 695 680
f 705 690 692
f 680 695 204
f 693 696 694
f 694 675 204
f 698 676 675
f 696 698 694
f 698 700 676
f 676 700 677
f 700 701 677
f 703 679 701
f 699 704 701
f 712 693 692
f 713 693 712
f 696 693 713
f 714 715 716
f 717 718 713
f 713 718 719
f 719 718 720
f 108 478 468
f 702 704 316
f 723 720 724
f 787 743 726
f 598 552 604
f 728 722 316
f 722 728 726
f 699 697 723
f 691 729 716
f 692 691 716
f 729 706 730
f 731 732 730
f 733 730 706
f 502 488 503
f 711 688 708
f 340 502 299
f 737 735 708
f 491 494 249
f 488 491 486
f 534 537 148
f 709 682 710
f 551 529 268
f 749 747 740
f 110 820 684
f 486 491 485
f 502 491 488
f 502 494 491
f 502 496 252
f 533 529 544
f 710 685 684
f 740 748 738
f 544 563 525
f 707 683 709
f 738 737 707
f 503 509 506
f 737 708 707
f 735 733 711
f 508 504 573
f 711 733 706
f 733 735 731
f 731 730 733
f 729 691 706
f 714 729 732
f 729 730 732
f 714 716 729
f 716 712 692
f 717 712 715
f 712 716 715
f 717 713 712
f 713 719 696
f 696 719 697
f 719 723 697
f 699 723 721
f 723 719 720
f 728 721 724
f 721 723 724
f 725 702 722
f 722 726 725
f 747 748 740
f 508 573 585
f 791 466 461
f 751 738 748
f 600 601 599
f 597 592 591
f 749 684 820
f 740 710 749
f 544 529 551
f 274 753 256
f 598 601 600
f 755 796 756
f 751 757 737
f 726 728 270
f 751 756 757
f 735 757 759
f 761 763 760
f 762 732 760
f 763 762 760
f 763 764 762
f 762 764 765
f 715 765 766
f 715 766 197
f 254 717 197
f 274 718 254
f 117 769 772
f 726 788 787
f 544 547 563
f 788 726 758
f 260 499 543
f 256 769 117
f 117 724 256
f 256 720 274
f 254 768 274
f 197 767 254
f 586 515 599
f 511 820 110
f 820 514 749
f 589 580 509
f 580 506 509
f 738 709 740
f 737 738 751
f 748 747 792
f 748 755 751
f 735 737 757
f 735 759 731
f 757 756 799
f 731 759 760
f 759 757 761
f 760 759 761
f 760 732 731
f 732 762 714
f 762 765 714
f 714 765 715
f 133 774 765
f 774 775 766
f 766 765 774
f 775 776 767
f 767 766 775
f 337 777 768
f 768 767 776
f 777 778 753
f 753 768 777
f 772 769 778
f 769 753 778
f 789 788 758
f 179 789 758
f 586 582 583
f 583 516 586
f 581 548 592
f 532 818 822
f 532 530 286
f 798 536 538
f 562 563 547
f 538 533 525
f 784 538 540
f 560 562 579
f 524 560 578
f 578 592 522
f 579 578 560
f 592 548 522
f 591 592 578
f 747 793 792
f 540 786 784
f 794 792 793
f 539 540 525
f 792 794 796
f 796 755 792
f 541 828 786
f 524 541 539
f 542 499 828
f 797 796 794
f 799 756 797
f 522 542 524
f 800 763 761
f 801 802 800
f 800 802 803
f 803 802 804
f 764 805 133
f 806 805 804
f 807 775 774
f 808 807 806
f 808 809 807
f 807 809 810
f 811 777 337
f 811 810 812
f 813 814 811
f 815 778 777
f 811 814 815
f 179 772 329
f 816 478 179
f 468 816 819
f 758 772 179
f 543 842 260
f 522 543 542
f 545 546 517
f 517 448 842
f 517 553 448
f 747 749 514
f 791 19 22
f 792 755 748
f 756 751 755
f 842 545 517
f 796 797 756
f 553 546 604
f 761 799 800
f 799 797 801
f 801 800 799
f 800 803 763
f 763 803 764
f 803 805 764
f 99 553 549
f 805 803 804
f 774 133 806
f 806 804 808
f 549 552 527
f 809 812 810
f 810 776 775
f 776 810 337
f 813 811 812
f 97 549 554
f 778 815 329
f 815 814 819
f 468 478 816
f 819 816 329
f 790 836 97
f 515 554 527
f 555 171 432
f 569 116 650
f 555 152 824
f 516 841 453
f 557 584 100
f 516 453 515
f 453 790 515
f 97 452 99
f 99 448 553
f 180 831 830
f 840 833 831
f 834 832 831
f 830 833 835
f 180 116 834
f 543 548 545
f 834 831 180
f 831 833 830
f 128 129 127
f 543 545 842
f 838 144 839
f 581 592 597
f 144 838 170
f 522 548 543
f 524 542 541
f 542 828 541
f 541 786 540
f 455 135 132
f 604 546 581
f 125 123 128
f 836 127 452
f 99 549 97
f 86 452 138
f 501 448 86
f 147 146 501
f 501 146 431
f 540 538 525
f 837 499 260
f 455 499 837
f 829 828 455
f 149 829 132
f 827 169 170
f 554 549 527
f 825 826 152
f 824 171 555
f 152 826 824
f 277 824 122
f 839 144 171
f 277 818 305
f 305 798 276
f 149 169 795
f 829 149 795
f 455 132 829
f 538 536 533
f 440 531 286
f 572 581 597
f 841 125 453
f 453 128 790
f 128 836 790
f 97 554 790
f 836 452 97
f 99 452 86
f 138 452 127
f 99 86 448
f 86 138 147
f 147 501 86
f 842 448 501
f 260 842 431
f 431 146 151
f 135 837 151
f 837 431 151
f 135 455 837
f 455 828 499
f 828 829 786
f 829 795 786
f 786 795 120
f 276 784 120
f 169 827 795
f 120 827 276
f 170 838 827
f 276 838 305
f 305 839 277
f 122 822 277
f 171 824 277
f 826 821 122
f 600 527 552
f 598 604 572
f 600 599 527
f 598 600 552
f 527 599 515
f 577 599 601
f 515 586 516
f 822 530 532
f 557 841 516
f 196 458 427
f 100 841 557
f 821 530 822
f 771 422 523
f 742 771 440
f 818 532 271
f 440 523 148
f 535 537 268
f 533 535 529
f 268 537 534
f 533 544 525
f 531 535 271
f 563 539 525
f 560 524 539
f 539 563 560
f 563 562 560
f 798 818 536
f 743 787 480
f 524 578 522
f 703 736 225
f 348 739 734
f 736 663 659
f 657 739 348
f 734 651 642
f 640 636 642
f 681 616 621
f 636 615 267
f 334 616 614
f 615 636 640
f 636 616 681
f 334 435 621
f 616 636 614
f 536 535 533
f 642 651 640
f 657 681 621
f 681 348 642
f 651 734 659
f 659 734 225
f 612 296 334
f 610 609 608
f 605 607 606
f 603 607 605
f 623 603 602
f 596 602 595
f 784 798 538
f 541 540 539
f 605 608 603
f 602 596 623
f 603 609 602
f 543 499 542
f 605 112 608
f 608 594 610
f 112 605 606
f 610 594 615
f 612 613 112
f 614 267 594
f 334 614 613
f 593 610 310
f 589 587 240
f 587 590 309
f 585 609 242
f 580 589 119
f 659 663 580
f 651 659 119
f 640 651 240
f 615 640 309
f 615 590 310
f 610 593 242
f 602 609 574
f 573 602 574
