# Generated by benchmark/pick_up_apple/mujoco_src/export.py
v 0.0069830152206122875 0.0053122029639780521 -0.014716699719429016
v 0.006630944088101387 0.0067048156633973122 -0.014856894500553608
v 0.0068684336729347706 0.0063515594229102135 -0.013172416016459465
v 0.0073297633789479733 0.0038702173624187708 -0.014769656583666801
v 0.0073460638523101807 0.0043931924737989902 -0.013169676996767521
v 0.0075910254381597042 0.003159055020660162 -0.013791480101644993
v 0.0079898517578840256 0.0020623656455427408 -0.0032706530764698982
v 0.007989116944372654 0.0011376396287232637 -0.0040522655472159386
v 0.0079895555973052979 0.0022439546883106232 -0.0048329783603549004
v -0.0010487465187907219 -0.0084258895367383957 -0.018881503492593765
v -0.0025255796499550343 -0.0085027720779180527 -0.01835852675139904
v -0.0018185510998591781 -0.0080850161612033844 -0.019840290769934654
v 0.0078197279945015907 -0.0053407303057610989 0.0042500095441937447
v 0.0079880990087985992 -0.0040542455390095711 0.0036802201066166162
v 0.0079885693266987801 -0.0037640521768480539 0.0048591070808470249
v 0.008446994237601757 -0.0004106714332010597 -0.0098829958587884903
v 0.0084949443116784096 -0.00071620370727032423 -0.011449137702584267
v 0.0082784723490476608 0.00075366441160440445 -0.011003810912370682
v -0.0044441046193242073 0.0020644001197069883 -0.020434912294149399
v -0.0044847200624644756 0.0036552778910845518 -0.020793730393052101
v -0.0029489747248589993 0.0026408212725073099 -0.021502120420336723
v -0.0057328352704644203 0.0086623011156916618 -0.0081262355670332909
v -0.005027303472161293 0.0090502612292766571 -0.0093177417293190956
v -0.0056125102564692497 0.0088168121874332428 -0.010182485915720463
v -0.0080103809013962746 0.0025942702777683735 -0.0053657945245504379
v -0.0080112684518098831 0.0011482941918075085 -0.0055647431872785091
v -0.0080106910318136215 0.0015467433258891106 -0.0042126267217099667
v -0.0080134021118283272 -0.0026853517629206181 -0.0052445996552705765
v -0.0079139592126011848 -0.0041460106149315834 -0.0055713593028485775
v -0.0080133378505706787 -0.0031975877936929464 -0.0038380806799978018
v -0.0080126188695430756 -0.002828128868713975 -0.0018707293784245849
v -0.0080116475000977516 -0.0013368752552196383 -0.0014457335928454995
v -0.0080121494829654694 -0.0015604707878082991 -0.0028952949214726686
v -0.0080116484314203262 -0.00044335564598441124 -0.0034622556995600462
v -0.0080124419182538986 -0.0013344136532396078 -0.004549508448690176
v -0.0079316766932606697 -0.0051357452757656574 -0.0045001162216067314
v -0.0080138817429542542 -0.0048023895360529423 -0.0023455370683223009
v 0.0077555063180625439 0.0073320213705301285 0.0010000807233154774
v 0.0077695599757134914 0.0069562322460114956 0.0011565670138224959
v 0.0079922536388039589 0.0064695859327912331 0.00069705623900517821
v -0.0071461922489106655 0.007533153984695673 -0.017456930130720139
v -0.0072431960143148899 0.0077089620754122734 -0.016198864206671715
v -0.0060412422753870487 0.0077473185956478119 -0.016857678070664406
v -0.0080115059390664101 0.00024480855790898204 -0.0044535165652632713
v -0.0080120693892240524 -0.00014196539996191859 -0.0057815229520201683
v -0.0079216258600354195 0.0021124116610735655 -0.0066643459722399712
v -0.0078851794824004173 0.0024664092343300581 -0.0066152215003967285
v -0.0080098956823348999 0.0038084236439317465 -0.0062090926803648472
v -0.0028187197167426348 -0.0063702380284667015 0.0027009053155779839
v -0.0024580657482147217 -0.0068119345232844353 0.0012328015873208642
v -0.0012921309098601341 -0.0065472307614982128 0.0022359713912010193
v -0.0059788618236780167 0.0058496221899986267 -0.019911190494894981
v -0.0048202374018728733 0.0052588656544685364 -0.02092893049120903
v -0.0056266742758452892 0.0044319373555481434 -0.019870713353157043
v -0.0039183543995022774 -0.0054304660297930241 -0.0085522523149847984
v -0.0039357710629701614 -0.0070767379365861416 -0.0086866822093725204
v -0.003394934581592679 -0.0057996688410639763 -0.0081262215971946716
v 0.0068884193897247314 -0.0070192199200391769 -0.015410414896905422
v 0.0073506934568285942 -0.0064001278951764107 -0.016535846516489983
v 0.0077808848582208157 -0.0059692892245948315 -0.015207963995635509
v 0.0094561902806162834 -0.0054328064434230328 -0.012587051838636398
v 0.0087064877152442932 -0.0061372970230877399 -0.011099395342171192
v 0.0080130696296691895 -0.0064912340603768826 -0.012839671224355698
v 0.0071275578811764717 -0.0067814239300787449 -0.01406962051987648
v 0.0078538572415709496 -0.006727773230522871 -0.014696726575493813
v 0.0082042263820767403 -0.0066062025725841522 -0.01401829905807972
v -0.0031745154410600662 -0.0076370956376194954 -0.019131205976009369
v -0.0053008035756647587 0.0046317209489643574 -0.0095165269449353218
v -0.0061581740155816078 0.0057771983556449413 -0.0092228995636105537
v -0.0054275146685540676 0.0058285649865865707 -0.0098360218107700348
v -0.0067022489383816719 0.0063827894628047943 -0.01890023797750473
v -0.0061335237696766853 0.0072530186735093594 -0.019593378528952599
v 0.0060959798283874989 0.0096832867711782455 -0.011844711378216743
v 0.0058291112072765827 0.0097781075164675713 -0.010466909036040306
v 0.0065824161283671856 0.0084605235606431961 -0.010634460486471653
v 0.0061897933483123779 0.0093938810750842094 -0.0092684580013155937
v 0.0031217038631439209 0.0087769310921430588 -0.016608070582151413
v 0.0011505634756758809 0.0084748491644859314 -0.017171390354633331
v 0.0020812172442674637 0.0088692568242549896 -0.015313252806663513
v 0.0028367866761982441 0.0091898711398243904 -0.013802120462059975
v 0.00087943766266107559 0.0089945094659924507 -0.013700005598366261
v -0.0071164323017001152 0.006300018634647131 -0.017781646922230721
v -0.0069366260431706905 0.0074503798969089985 -0.018145475536584854
v -0.002809522207826376 0.0094523364678025246 -0.008261815644800663
v -0.0011735138250514865 0.0095974160358309746 -0.0084846494719386101
v -0.002371323062106967 0.0093171289190649986 -0.0094385789707303047
v -0.0042707896791398525 0.0088596604764461517 -0.011033471673727036
v -0.0054266839288175106 0.0086487233638763428 -0.01089077815413475
v -0.00543255265802145 0.0087654264643788338 -0.01053124200552702
v -0.0031918887980282307 0.0088140834122896194 -0.012058921158313751
v -0.0034701833501458168 0.0085600595921278 -0.013475097715854645
v -0.005002136342227459 0.0085624512284994125 -0.012413160875439644
v -0.0055971951223909855 -0.0053662871941924095 -0.016569642350077629
v -0.0051678982563316822 -0.0048567876219749451 -0.017627649009227753
v -0.0049622138030827045 -0.0061238515190780163 -0.017534337937831879
v -0.001836588024161756 0.0093810698017477989 -0.006999181117862463
v -0.0023700702004134655 0.009152853861451149 -0.0057755662128329277
v -0.0010375808924436569 0.0092045953497290611 -0.0056531289592385292
v 0.00056105549447238445 0.0086781913414597511 -0.015482713468372822
v -0.0007181174005381763 0.0086453557014465332 -0.01481627207249403
v 0.0012393862707540393 0.0095611428841948509 -0.010362808592617512
v -7.0497830165550113e-05 0.0093161631375551224 -0.01101689413189888
v 7.8544588177464902e-05 0.0095657352358102798 -0.009540545754134655
v 0.0087304748594760895 -0.0033757144119590521 -0.010854875668883324
v 0.0088663240894675255 -0.002121160039678216 -0.011991880834102631
v 0.0085493363440036774 -0.0018023954471573234 -0.010458038188517094
v 0.0079873688519001007 -0.0048895780928432941 0.0027149920351803303
v 0.0079868743196129799 -0.0046164188534021378 0.00017189675418194383
v 0.0079868752509355545 -0.0051805027760565281 0.0014446449931710958
v 0.0079860081896185875 -0.0061435187235474586 0.00064976158319041133
v 0.0049630743451416492 -0.00069832004373893142 0.0069029834121465683
v 0.0057417303323745728 -0.0018032662337645888 0.0067001506686210632
v 0.0063068377785384655 -0.00041079177753999829 0.0069725518114864826
v 0.0085092205554246902 -0.0011569194030016661 -0.014841928146779537
v 0.0083230771124362946 -0.00041557243093848228 -0.014967362396419048
v 0.0083606578409671783 -4.4402630010154098e-05 -0.013916797935962677
v 0.0050999969244003296 0.00085714022861793637 0.0068914243020117283
v 0.0086696743965148926 -0.00098988518584519625 -0.013042837381362915
v 0.0089310631155967712 -0.0022931608837097883 -0.01366939302533865
v -0.0064477431587874889 0.0063088922761380672 -0.012798860669136047
v -0.0063820295035839081 0.0064390259794890881 -0.012226647697389126
v -0.0059713008813560009 0.0069616385735571384 -0.011476530693471432
v -0.004634498618543148 0.0078668389469385147 -0.017063140869140625
v -0.0051567885093390942 0.0076030083000659943 -0.018374603241682053
v -0.0074091996066272259 0.0063661942258477211 -0.016264794394373894
v -0.0069181919097900391 -0.0023935462813824415 -0.0065538580529391766
v -0.0070297215133905411 -0.0034940324258059263 -0.0060444953851401806
v -0.0079680262133479118 -0.003192500676959753 -0.0060608279891312122
v 0.0067830318585038185 0.0044578313827514648 -0.016031008213758469
v 0.0069565842859447002 0.0031678657978773117 -0.015776073560118675
v -0.0080111352726817131 -0.00096287322230637074 -0.00029054639162495732
v -0.0080109937116503716 -0.0013458066387102008 0.0011245150817558169
v -0.0080102765932679176 0.00028978023328818381 0.00023539950780104846
v 0.0078799240291118622 0.0020400730427354574 -0.013612013310194016
v 0.0081572765484452248 0.00097706739325076342 -0.013409171253442764
v 0.0080173350870609283 0.0010346390772610903 -0.014814428053796291
v 0.0079887481406331062 0.0013561825035139918 -0.0059817079454660416
v 0.0079886997118592262 0.00084156071534380317 -0.0050097932107746601
v 0.0079877255484461784 -0.00037800485733896494 -0.0060578444972634315
v -0.0064986781217157841 0.0001017003451124765 -0.0069832773879170418
v -0.0070203891955316067 -0.001074122148565948 -0.0068961060605943203
v -0.0079115275293588638 0.00012837395479436964 -0.0069727702066302299
v -0.0036111115477979183 -0.0083808125928044319 -0.01684553362429142
v -0.0039383289404213428 -0.0084048192948102951 -0.01824561133980751
v 0.0087190810590982437 -0.0047794436104595661 -0.010275663807988167
v 0.0091159874573349953 -0.0046552708372473717 -0.011456083506345749
v 0.0079545332118868828 -0.0062469826079905033 0.0021582420449703932
v 0.0078682238236069679 -0.0059559084475040436 0.003221884137019515
v 0.006483584176748991 -0.0062519055791199207 0.0030659001786261797
v -0.008011271245777607 -0.0024489120114594698 0.0025287098251283169
v -0.0080115105956792831 -0.003429085249081254 0.0038061602972447872
v -0.00801045261323452 -0.0017388730775564909 0.0041177948005497456
v -0.0080101555213332176 -0.001965824980288744 0.0058888453058898449
v -0.0067334161140024662 -0.0018672702135518193 0.0067330668680369854
v -0.0078094988130033016 -0.00079677969915792346 0.0068035069853067398
v -0.0080109443515539169 -0.0030152257531881332 0.0050776908174157143
v -0.0078803012147545815 -0.0044620647095143795 0.0050965561531484127
v -0.0080130724236369133 -0.0055251587182283401 0.0023438604548573494
v -0.0080122184008359909 -0.00402864720672369 0.0023942640982568264
v -0.0080130128189921379 -0.0047901906073093414 0.0010141038801521063
v 0.0052576027810573578 -0.0067454702220857143 0.001543211517855525
v 0.003553302027285099 -0.0067135640420019627 0.0016745021566748619
v 0.0043765357695519924 -0.0068790381774306297 0.00044007974793203175
v 0.0039416700601577759 -0.0063560572452843189 -0.002760410076007247
v 0.0035667370539158583 -0.0061384537257254124 -0.0045962627045810223
v 0.0050068162381649017 -0.0059182452969253063 -0.0043989238329231739
v 0.0026667937636375427 -0.006250062957406044 -0.0036594944540411234
v -0.0032142431009560823 -0.0061736679635941982 -0.0039553940296173096
v -0.0016143907560035586 -0.0061914161778986454 -0.0042118304409086704
v -0.0024103457108139992 -0.0062857321463525295 -0.0030150376260280609
v 0.0042141140438616276 -0.0067328000441193581 -0.00091259041801095009
v 0.0053051295690238476 -0.006579758133739233 -0.0017253695987164974
v 0.0057379850186407566 -0.0068399114534258842 -0.00019926509412471205
v -0.0020072800107300282 -0.0063447528518736362 -0.0072959423996508121
v -0.0010772047098726034 -0.0062822736799716949 -0.005896545946598053
v -0.002935376251116395 -0.0062964223325252533 -0.0058832587674260139
v -0.0040873847901821136 -0.0071977619081735611 -0.0090596284717321396
v -0.0045844390988349915 -0.0071905171498656273 -0.0094420844689011574
v -0.0035971791949123144 -0.0073857726529240608 -0.010562829673290253
v -0.0011457167565822601 -0.0066766613163053989 -0.0011860679369419813
v 0.00038846733514219522 -0.0067418166436254978 -0.00085729523561894894
v -0.00087152380729094148 -0.0068747745826840401 0.00053483713418245316
v -0.0018118486041203141 -0.0071121109649538994 -0.01005225908011198
v -0.00071761291474103928 -0.0071185873821377754 -0.010840928182005882
v -0.00034998124465346336 -0.0068909670226275921 -0.0096527617424726486
v -4.7313533286796883e-05 -0.0062260981649160385 -0.0034155384637415409
v 0.00088242767378687859 -0.0064459028653800488 -0.0022975520696491003
v -0.00026068798615597188 -0.0064955377019941807 -0.0020662653259932995
v 0.0028140796348452568 -0.006656112615019083 -0.0012995484285056591
v -0.0045588556677103043 -0.0060771172866225243 -0.0047535933554172516
v -0.0057198917493224144 -0.0080417245626449585 -0.01465989463031292
v -0.0041650901548564434 -0.0079993437975645065 -0.014054734259843826
v -0.0050324620679020882 -0.0079898973926901817 -0.013402278535068035
v -0.0036515507381409407 -0.0066739399917423725 -0.0011900655226781964
v -0.0023986049927771091 -0.0065482375212013721 -0.0018096173880621791
v -0.0023741831537336111 -0.006817785557359457 -0.00033724377863109112
v 0.00081550912000238895 -0.0062250937335193157 -0.0045181252062320709
v 0.00074901885818690062 -0.0062472568824887276 -0.0059561938978731632
v 0.0021821474656462669 -0.006242318544536829 -0.0049402560107409954
v 0.0017983510624617338 -0.0068286745809018612 -0.00027464854065328836
v 0.0016119686188176274 -0.0066260974854230881 -0.0014444934204220772
v 0.0031397498678416014 -0.0068643349222838879 0.00011862351675517857
v -0.0013236728264018893 -0.0063764704391360283 -0.0026053027249872684
v -0.0042974590323865414 -0.0062131579034030437 -0.0033548178616911173
v -0.00043240445666015148 -0.0065204305574297905 -0.0072697917930781841
v 0.0011454728664830327 -0.0064117577858269215 -0.0076443157158792019
v 0.0024637535680085421 -0.0063566435128450394 -0.0081966044381260872
v 0.0027859380934387445 -0.0061053442768752575 -0.0067453705705702305
v -0.0052372124046087265 -0.0067773708142340183 -0.00061637675389647484
v -0.0062667536549270153 -0.0069544869475066662 0.00029220542637631297
v -0.006932492833584547 -0.0069162524305284023 -0.00078164233127608895
v -0.0038822116330265999 -0.0056170029565691948 -0.0071354205720126629
v -0.0041350256651639938 -0.0057643642649054527 -0.0059477072209119797
v 0.0048962011933326721 -0.0075134746730327606 -0.017174074426293373
v 0.0040157344192266464 -0.0074055423028767109 -0.015889912843704224
v 0.003440972650423646 -0.007621734868735075 -0.01686427928507328
v 0.0079858098179101944 -0.0059630926698446274 -0.00085224024951457977
v 0.0073010334745049477 -0.0069672386161983013 -0.00019731986685656011
v -0.0061527518555521965 0.0085996538400650024 -0.00036359598743729293
v -0.0051272716373205185 0.0084482403472065926 -0.0016664911527186632
v -0.0064695165492594242 0.0083325449377298355 -0.0021569489035755396
v -0.0048565086908638477 0.0082945739850401878 -0.014206618070602417
v -0.0048027946613729 0.0080541530624032021 -0.015763640403747559
v -0.0063403993844985962 0.0080039100721478462 -0.015030679292976856
v -0.0066777016036212444 0.0077902013435959816 -0.012548950500786304
v -0.0061055202968418598 0.0082556949928402901 -0.013598996214568615
v -0.0071883308701217175 0.0074401241727173328 -0.013776748441159725
v -0.0071381032466888428 -0.0061051947996020317 -0.0033528865315020084
v -0.0060961213894188404 -0.005342735443264246 -0.0044788187369704247
v -0.0055223843082785606 -0.006180404219776392 -0.0033724801614880562
v -0.0078293830156326294 -0.0066198692657053471 -0.0019458404276520014
v -0.006228491198271513 -0.0066132987849414349 -0.0020728276576846838
v -0.0049704299308359623 -0.0077503537759184837 -0.011929919011890888
v -0.0059170410968363285 -0.0072907218709588051 -0.013008343055844307
v 0.0074088969267904758 -0.0032615698873996735 -0.015231354162096977
v 0.0073890793137252331 -0.0015262552769854665 -0.01516040600836277
v 0.0083048371598124504 -0.0023608871269971132 -0.014745228923857212
v 0.00537495082244277 0.0091720642521977425 -0.015652727335691452
v 0.00518775824457407 0.0093273809179663658 -0.014539718627929688
v 0.0060874726623296738 0.0089245801791548729 -0.014816326089203358
v 0.0064068436622619629 0.0078939953818917274 -0.01412490289658308
v 0.0062197097577154636 0.0079537574201822281 -0.016045151278376579
v 0.006635966245085001 0.0060724331997334957 -0.016209477558732033
v 0.0076414649374783039 0.0025448068045079708 -0.014894054271280766
v 0.0079023344442248344 -0.0029343359638005495 0.0061036283150315285
v 0.0079893330112099648 -0.0024839502293616533 0.0049503641203045845
v 0.0079901004210114479 -0.0014809304848313332 0.005683395080268383
v -0.0051401532255113125 0.0085788024589419365 -0.0033111243974417448
v -0.0040863766334950924 0.008469829335808754 -0.0021483330056071281
v -0.0035460689105093479 0.0086961677297949791 -0.0033267957624047995
v 0.0079889195039868355 0.0061420276761054993 -0.00071941810892894864
v 0.0079923840239644051 0.0048722336068749428 0.00026550228358246386
v 0.0079919276759028435 0.0048264237120747566 -0.0014054758939892054
v 0.0079905698075890541 0.0035150786861777306 -0.0037449977826327085
v 0.0079908501356840134 0.00326383369974792 -0.0020853141322731972
v -0.0071400413289666176 0.0083588575944304466 0.001085150521248579
v -0.0077996551990509033 0.0085597485303878784 -0.00054508907487615943
v -0.0073980637826025486 0.007183421403169632 0.0010910865385085344
v -0.007732003927230835 0.0020862903911620378 0.0065953857265412807
v -0.0065291202627122402 0.0028618108481168747 0.0063832714222371578
v -0.008006182499229908 0.0032612341456115246 0.0053244857117533684
v 0.0086218426004052162 -0.0027128038927912712 -0.0094601493328809738
v 0.0085908398032188416 -0.0038835788145661354 -0.0096258567646145821
v -0.0001661008718656376 0.0070613045245409012 -0.0024726397823542356
v -0.00084047019481658936 0.0069596138782799244 -0.0023366722743958235
v -0.0010641774861142039 0.0068513182923197746 -0.0014315082225948572
v -0.0058308718726038933 -0.0080064795911312103 -0.014285079203546047
v -0.0057797352783381939 -0.0072812135331332684 -0.015158282592892647
v 0.0068310867063701153 0.0080061266198754311 -0.0090999184176325798
v 0.0069552934728562832 0.0071490788832306862 -0.010042566806077957
v 0.0069615929387509823 0.0084387054666876793 -0.0064552989788353443
v 0.0074187885038554668 0.0066200257278978825 -0.0063200360164046288
v 0.0071001504547894001 0.0073962286114692688 -0.0077602388337254524
v 0.0077435127459466457 0.0062219193205237389 -0.0037864944897592068
v 0.0077859591692686081 0.0055332574993371964 -0.005182201974093914
v 0.0075043607503175735 0.0067530018277466297 -0.0050071096047759056
v 0.0079047521576285362 0.0061531052924692631 -0.0021716952323913574
v 0.0079915309324860573 0.0048076962120831013 -0.0029112063348293304
v 0.0076567875221371651 0.004251010250300169 -0.010097725316882133
v 0.0080117201432585716 0.0025189344305545092 -0.010846490040421486
v 0.0076114926487207413 0.0038700932636857033 -0.011635006405413151
v 0.007250271737575531 0.0058901486918330193 -0.010175051167607307
v 0.0071901432238519192 0.006575610488653183 -0.0089847957715392113
v 0.0074960226193070412 0.0052981278859078884 -0.0090463059023022652
v 0.0074894498102366924 0.0057808859273791313 -0.0078099491074681282
v 0.0078742913901805878 0.0040554730221629143 -0.008207833394408226
v 0.007275847252458334 0.0052635413594543934 -0.011590158566832542
v 0.0069096512161195278 0.0068596689961850643 -0.011335496790707111
v 0.0052899420261383057 -0.0075226668268442154 -0.018962498754262924
v 0.0047251041978597641 -0.0058196843601763248 -0.019223392009735107
v 0.0058681382797658443 -0.0064355111680924892 -0.018653465434908867
v 0.0078392969444394112 0.004807760939002037 -0.0065567088313400745
v 0.0028072195127606392 0.0085130762308835983 -0.018061686307191849
v 0.0023803506046533585 0.0080842310562729836 -0.020481837913393974
v 0.0038274263497442007 0.0083273723721504211 -0.019933126866817474
v 0.003848950145766139 0.0076459194533526897 -0.021312447264790535
v 0.0079889446496963501 0.0048180641606450081 -0.0041739288717508316
v 0.0079877451062202454 -0.0032987252343446016 0.0005953602958470583
v 0.0079875783994793892 -0.0040026251226663589 0.0015311979223042727
v -0.0051264045760035515 -0.0057664592750370502 -0.010280697606503963
v -0.0052706566639244556 -0.0073139560408890247 -0.010582596063613892
v 0.0012119091115891933 -0.0074256546795368195 -0.0141011793166399
v 0.0019428431987762451 -0.0074823643080890179 -0.014959250576794147
v 0.0024393605999648571 -0.007231543306261301 -0.01371244341135025
v 0.0085507631301879883 -0.0015115722781047225 -0.0092064179480075836
v 0.0085023976862430573 -0.0022055923473089933 -0.0082165859639644623
v 0.0092466613277792931 -0.0037307650782167912 -0.012684876099228859
v 0.0079904589802026749 0.0039682090282440186 -0.0051960907876491547
v 0.0025387785863131285 0.0077392719686031342 -0.021991770714521408
v 0.0070544015616178513 -0.0042951079085469246 -0.0064654233865439892
v 0.0078704627230763435 -0.0038200905546545982 -0.0060718385502696037
v 0.0079305591061711311 -0.00396712776273489 -0.0056786555796861649
v -0.0080082491040229797 0.0014665359631180763 0.0054853982292115688
v 0.0014278339222073555 -0.0041612349450588226 -0.02099430188536644
v 0.00060597859555855393 -0.0029004847165197134 -0.021235540509223938
v 0.0021089937072247267 -0.0027737810742110014 -0.021066062152385712
v 0.0005354467430151999 0.0021925142500549555 -0.022017091512680054
v 0.001194145530462265 0.00057231599930673838 -0.02170567587018013
v -0.00041643396252766252 0.00091792148305103183 -0.021820284426212311
v -0.001502102822996676 0.0090385349467396736 -0.011794246733188629
v -0.00095883844187483191 0.0088567119091749191 -0.013315252028405666
v -0.002241015899926424 0.0087716914713382721 -0.012976744212210178
v 0.0011377164628356695 0.0093134194612503052 -0.011859835125505924
v -0.0021439834963530302 0.008585033006966114 -0.014223400503396988
v -0.0020617211703211069 0.0083578377962112427 -0.015716301277279854
v -0.0046748341992497444 0.0011971421772614121 -0.0082795294001698494
v -0.0045664678327739239 0.00096717389533296227 -0.0080219805240631104
v -0.0047090030275285244 0.00070892059011384845 -0.0079828426241874695
v -0.0063094501383602619 0.0063685104250907898 -0.012516358867287636
v -0.0032484268303960562 0.0091964248567819595 -0.0069006467238068581
v -0.0034953108988702297 0.0090436739847064018 -0.0057233609259128571
v 0.0079860780388116837 -0.0044924248941242695 -0.0032133229542523623
v 0.0079871173948049545 -0.0031343190930783749 -0.0022195889614522457
v 0.0079864850267767906 -0.0045387209393084049 -0.001520323334261775
v 0.0017187142511829734 0.0068701114505529404 -0.0012151965638622642
v 0.0032795874867588282 0.006925925612449646 -0.00073705206159502268
v 0.0026199938729405403 0.0070304321125149727 -0.0019319787388667464
v 0.0043801870197057724 0.0066833542659878731 0.00069517851807177067
v 0.0049074706621468067 0.0071061905473470688 -0.00036604487104341388
v -0.0073474273085594177 -0.0069552827626466751 0.00028907900559715927
v -0.0080139944329857826 -0.0058520813472568989 -0.0004204886790830642
v -0.0058392868377268314 0.0085719060152769089 -0.011471989564597607
v -0.0054882927797734737 0.0077444552443921566 -0.010493926703929901
v -0.0057126809842884541 0.0054933470673859119 -0.011039353907108307
v -0.0061944122426211834 0.0056430953554809093 -0.012365679256618023
v -0.0060445154085755348 0.004172787070274353 -0.012188680469989777
v 0.007987484335899353 -0.0031973037403076887 -0.00064873608062043786
v 0.0080884853377938271 -0.0058353631757199764 -0.0088844532147049904
v 0.0078851776197552681 -0.0057181334123015404 -0.0085679767653346062
v 0.0066292863339185715 -0.0060175815597176552 -0.0088989147916436195
v -0.0046946527436375618 -0.0010049078846350312 -0.0087548578158020973
v -0.0048927576281130314 -0.0025046439841389656 -0.010055923834443092
v -0.0047231810167431831 -0.0030258067417889833 -0.008388410322368145
v 0.0079901786521077156 0.00043434870894998312 0.0016714185476303101
v 0.007989218458533287 -0.0011941227130591869 0.0015970516251400113
v 0.0079892780631780624 -0.00048892188351601362 0.00023909010633360595
v -0.0064628063701093197 -0.00016591939493082464 -0.014083464629948139
v -0.0067508160136640072 0.00099595030769705772 -0.015330658294260502
v -0.0065489485859870911 -0.00033942380105145276 -0.015930667519569397
v -0.0064621376805007458 -0.0017106214072555304 -0.015101470984518528
v -0.0062446314841508865 -0.0016644040588289499 -0.013637775555253029
v -0.0026177933905273676 -0.0062458114698529243 -0.0076639004983007908
v -0.0062247845344245434 -0.0033014023210853338 -0.014018910005688667
v -0.0060907281003892422 -0.0051715061999857426 -0.014152887277305126
v -0.0058206440880894661 -0.0046772770583629608 -0.012778124772012234
v -0.0059369094669818878 -0.002279497217386961 -0.012769599445164204
v -0.0061659300699830055 -0.0030204274225980043 -0.015976062044501305
v -0.0060605797916650772 -0.0044765584170818329 -0.015511738136410713
v -0.0058348067104816437 -0.00084956036880612373 -0.012292672879993916
v -0.0060028689913451672 0.0009168913820758462 -0.012513209134340286
v -0.0065196757204830647 0.0016474457224830985 -0.01391133014112711
v -0.0069302464835345745 0.0048624812625348568 -0.014669463969767094
v -0.0071702031418681145 0.0051564923487603664 -0.015725377947092056
v -0.0070296288467943668 0.0036348495632410049 -0.015989251434803009
v 0.0061484123580157757 -0.0050421790219843388 -0.005421261303126812
v 0.006296907551586628 -0.0047696367837488651 -0.0053108134306967258
v 0.0057796644978225231 -0.0051089818589389324 -0.0054772458970546722
v -0.0068545066751539707 0.0023090324830263853 -0.015100305899977684
v -0.0066328779794275761 0.0034407747443765402 -0.013953639194369316
v -0.0049045775085687637 -0.0046284501440823078 -0.0077153239399194717
v -0.0057735084556043148 -0.0034519152250140905 -0.0067012063227593899
v -0.0054901028051972389 -0.0067783812992274761 -0.016368655487895012
v -0.0053020119667053223 -0.0082276547327637672 -0.016022877767682076
v -0.0059299524873495102 -0.0059895142912864685 -0.01316725742071867
v -0.0054842093959450722 -0.0023252640385180712 -0.01153216976672411
v -0.005762727465480566 -0.0033317422494292259 -0.012431235983967781
v -0.0052384780719876289 -0.004136362113058567 -0.011101476848125458
v -0.0018962490139529109 0.0087075298652052879 -0.003249939763918519
v -0.0028782309964299202 0.0089365625753998756 -0.0046075382269918919
v 0.00014059446402825415 0.0081031210720539093 -0.018831906840205193
v 0.0016723532462492585 0.0082435421645641327 -0.01899062842130661
v 0.0028718868270516396 0.0083347577601671219 -0.01923348568379879
v -0.0057005411945283413 0.0085981646552681923 -0.0051077716052532196
v -0.004249929916113615 0.0088456505909562111 -0.0047750417143106461
v -0.0067657036706805229 0.0082461796700954437 -0.0039095720276236534
v -0.0078849596902728081 0.0080362046137452126 -0.0027311656158417463
v 0.0081086773425340652 0.0015868856571614742 -0.012295814231038094
v 0.0084108645096421242 0.00027384303393773735 -0.012494863010942936
v 0.0051856678910553455 -0.0066452044993638992 -0.011881290934979916
v 0.0061779292300343513 -0.0067188353277742863 -0.013024935498833656
v 0.0069069657474756241 -0.0064066960476338863 -0.011549262329936028
v 0.0058470247313380241 -0.0063408580608665943 -0.010408646427094936
v 0.0062160561792552471 0.00725985923781991 0.0010062812361866236
v 0.005780466366559267 0.006887609139084816 0.00077913503628224134
v 0.0059881946071982384 0.0066641108132898808 0.0010997694917023182
v 0.0067508239299058914 0.0087160319089889526 -0.0050209308974444866
v 0.0059038233011960983 0.0090405084192752838 -0.0058442228473722935
v -0.0078776208683848381 0.00065109465504065156 0.0068721999414265156
v 0.0031060012988746166 -0.0064735556952655315 -0.0093747712671756744
v 0.0013026017695665359 -0.0066474499180912971 -0.0092421062290668488
v -0.0061068017967045307 0.0084973620250821114 -0.0065230973996222019
v -0.006823765579611063 0.0075786793604493141 -0.0072944690473377705
v 0.0077942861244082451 0.0073419855907559395 -0.00018329005979467183
v 0.0072437436319887638 0.0076676402240991592 -0.0054261740297079086
v 0.0073335268534719944 0.0077292728237807751 -0.004259913694113493
v 0.0074750566855072975 0.0077290507033467293 -0.0026856723707169294
v -0.0074362494051456451 0.0070339580997824669 -0.015012829564511776
v -0.0069090602919459343 0.0060044112615287304 -0.014334767125546932
v -0.0077191470190882683 0.0049504055641591549 -0.0071398639120161533
v -0.0070726415142416954 0.0061312173493206501 -0.0079784411936998367
v -0.0067374827340245247 0.0046679582446813583 -0.0084799947217106819
v 0.0079888477921485901 -0.002844526432454586 0.0038682105951011181
v 0.0058916429989039898 0.0016447844682261348 -0.017490798607468605
v 0.005598161369562149 0.0002195574197685346 -0.017969781532883644
v 0.0050694514065980911 0.0015038382261991501 -0.018741292878985405
v 0.0062411213293671608 -0.00094351090956479311 -0.016981849446892738
v 0.0063050366006791592 0.00049079913878813386 -0.016853692010045052
v 0.0066878390498459339 -0.0022071739658713341 -0.016309546306729317
v 0.0058609498664736748 -0.0024687007535248995 -0.017603648826479912
v -0.0016674633370712399 0.0061683054082095623 -0.022611780092120171
v -0.0010418313322588801 0.007376519963145256 -0.022483106702566147
v -0.0004375325224827975 0.0062520313076674938 -0.022719321772456169
v 0.0090281898155808449 -0.0035995203070342541 -0.014488815329968929
v 0.0079792998731136322 -0.0047156158834695816 -0.01449750829488039
v 0.0063950656913220882 -0.0037114163860678673 -0.016807882115244865
v 0.006812696810811758 -0.0054070274345576763 -0.017354508861899376
v 0.0071544856764376163 -0.0049217496998608112 -0.015850337222218513
v 0.0065546226687729359 -0.00688937958329916 -0.017865901812911034
v 0.0053546382114291191 -0.0072341724298894405 -0.015721140429377556
v -0.003847453510388732 0.0091279903426766396 -0.0096259443089365959
v -0.002738127950578928 0.0090810758993029594 -0.010680630803108215
v -0.0070334933698177338 -0.0033712412696331739 0.0061045861802995205
v 0.0084698246791958809 -0.00051496998639777303 -0.008106110617518425
v -0.0054065301083028316 0.00050630932673811913 -0.01099801529198885
v -0.004815421998500824 0.00033501270809210837 -0.0095307473093271255
v -0.0050046099349856377 0.0016795274568721652 -0.0098244091495871544
v -0.0046822726726531982 0.0021960530430078506 -0.0088611114770174026
v -0.0053850719705224037 0.0012906996998935938 -0.0076002622954547405
v -0.0046983961947262287 0.0088980039581656456 -0.0064744162373244762
v 0.0024854864459484816 0.0088413497433066368 -0.0038278109859675169
v 0.0037802599836140871 0.0086592715233564377 -0.0029680640436708927
v 0.0040066507644951344 0.008958376944065094 -0.0044357753358781338
v 0.0010908023687079549 0.0089271347969770432 -0.004254824947565794
v 0.001109482953324914 0.0085284747183322906 -0.0025630751624703407
v -0.00034911275724880397 0.0088739339262247086 -0.0040239449590444565
v -0.00060201855376362801 -0.006927217822521925 -0.020478768274188042
v -0.00017902096442412585 -0.0084691913798451424 -0.020000036805868149
v 0.002684545936062932 0.009393659420311451 -0.0064811254851520061
v 0.0018136067083105445 0.0091615784913301468 -0.0053358795121312141
v 0.0030759475193917751 0.009136381559073925 -0.0052439919672906399
v 0.0044197235256433487 0.0092678163200616837 -0.0061289221048355103
v 0.0035458286292850971 0.0095613952726125717 -0.0074645346030592918
v 0.0020838463678956032 0.0069501609541475773 -0.0020832803566008806
v 0.0025107874535024166 0.0082413246855139732 -0.002007659524679184
v -0.00035682355519384146 0.0078934812918305397 -0.0025119183119386435
v 0.00094838364748284221 0.0070738564245402813 -0.002460127929225564
v 0.00025105651002377272 0.0068419957533478737 -0.0014966113958507776
v -0.004628161434084177 0.0085496166720986366 -0.00085289869457483292
v -0.0040847235359251499 0.0071577350609004498 -0.0011215349659323692
v -0.0043073836714029312 0.0085291722789406776 -0.0011098087998107076
v 0.0037358766421675682 0.0083548231050372124 -0.0014468168374150991
v 0.0049368888139724731 0.0085577229037880898 -0.00089546671370044351
v 0.0049934522248804569 0.0085398973897099495 -0.0024091936647891998
v 0.0042325546965003014 0.0070745619013905525 -0.0010020260233432055
v 0.00038996365037746727 0.0091901719570159912 -0.0054856324568390846
v 0.0003900662122759968 0.0065945838578045368 0.00097561953589320183
v 0.00076840841211378574 0.0068436926230788231 -0.00027661700733006001
v -0.00058388820616528392 0.0068489667028188705 -0.00018412954523228109
v 0.0048912893980741501 0.0087794028222560883 -0.0036281889770179987
v 0.0045770499855279922 0.0063102054409682751 -0.019510921090841293
v 0.0048621641471982002 0.0064116953872144222 -0.019081072881817818
v 0.0051830555312335491 0.0055959392338991165 -0.018584173172712326
v -0.0017295395955443382 0.0078430091962218285 -0.0022958004847168922
v -0.0026683402247726917 0.0070047681219875813 -0.0018340658862143755
v 0.0011900243116542697 0.0094527164474129677 -0.006723049096763134
v 0.0062855309806764126 0.0085773533210158348 -0.00061593047576025128
v 0.0054866475984454155 0.0082294503226876259 0.00034088213578797877
v 0.0072710695676505566 0.0085466066375374794 0.00054379366338253021
v -0.0030199871398508549 0.0083605358377099037 -0.0018055832479149103
v 0.0021523688919842243 0.0098068471997976303 -0.0079918261617422104
v 0.0037366249598562717 0.0084998747333884239 -0.018780246376991272
v 0.0059936763718724251 0.0062666730955243111 0.002165601123124361
v 0.0045520239509642124 0.0062587368302047253 0.0019848798401653767
v 0.0048866719007492065 0.0059430142864584923 0.0029468622524291277
v -0.0039532408118247986 0.0063119404949247837 -0.021819869056344032
v -0.0038942974060773849 0.0073627620004117489 -0.020756509155035019
v -0.0025981282815337181 0.0073000369593501091 -0.022039739415049553
v 0.0016469699330627918 0.0062818164005875587 0.0019219839014112949
v 0.001429556985385716 0.0058847637847065926 0.0031437946017831564
v 0.0030728892888873816 0.005975174717605114 0.0028618024662137032
v -0.006093502976000309 -0.0016426986549049616 -0.016912160441279411
v -0.0027622119523584843 0.0058988365344703197 -0.022283606231212616
v 0.0053815701976418495 0.0071172513999044895 0.00019465622608549893
v -0.0030812344048172235 -0.0050221364945173264 -0.019758718088269234
v -0.0034031954128295183 -0.0062117697671055794 -0.019244836643338203
v -0.0042921858839690685 -0.005197456106543541 -0.018686462193727493
v -0.0039443476125597954 0.0068205199204385281 0.00048089498886838555
v -0.0038587907329201698 0.0063298456370830536 0.0018760792445391417
v -0.0028254098724573851 0.0066034938208758831 0.0010824732016772032
v 0.0031252773478627205 0.0063888397999107838 0.0015795893268659711
v 0.0079914713278412819 0.0037339245900511742 -0.00072535924846306443
v 0.0079907774925231934 0.0025716768577694893 -0.00081104523269459605
v -0.0065264645963907242 0.0050656464882194996 -0.013385226018726826
v -0.0058414009399712086 0.0031358734704554081 -0.0085501810535788536
v -0.006087898276746273 0.0070023336447775364 0.0011701469775289297
v -0.0067671234719455242 0.0065782587043941021 0.0023960184771567583
v -0.0050188219174742699 0.00049048301298171282 -0.0079607367515563965
v -0.0043327659368515015 0.00081443972885608673 -0.0079225087538361549
v -8.8230750407092273e-05 0.006077030673623085 0.0025687168817967176
v -0.001307355472818017 0.00560041144490242 0.0039116544649004936
v 0.00043154045124538243 0.0054606213234364986 0.0041764634661376476
v -0.0042203618213534355 0.0059381704777479172 0.003052431158721447
v -0.0028656367212533951 0.0059050023555755615 0.003135844599455595
v 0.0035873900633305311 -0.0072839208878576756 -0.020077580586075783
v 0.0033892369829118252 -0.0054811388254165649 -0.020300935953855515
v -0.0079179387539625168 0.0050007556565105915 0.0046492423862218857
v -0.0074652335606515408 0.006056920625269413 0.0035118029918521643
v -0.0080068772658705711 0.0049237930215895176 0.0030452711507678032
v -0.005375811830163002 0.0061904094181954861 0.0023709577508270741
v -0.0038285220507532358 0.0055107246153056622 0.0041093160398304462
v -0.0026040228549391031 0.0053533231839537621 0.0043733064085245132
v 0.0058292201720178127 0.0091955224052071571 -0.006845417432487011
v 0.00798837561160326 -0.0026480569504201412 0.0015883310697972775
v 0.007989073172211647 -0.0019845170900225639 0.0028130046557635069
v 0.0079882238060235977 -0.0034015995915979147 0.0026956521905958652
v 0.0035677589476108551 0.009867311455309391 -0.010017753578722477
v 0.0035647128242999315 0.0099300956353545189 -0.008736942894756794
v 0.004790834616869688 0.0099290004000067711 -0.0095819728448987007
v 0.0042434865608811378 -0.0069809756241738796 -0.013360756449401379
v 0.0044962777756154537 -0.0071865934878587723 -0.014833737164735794
v 0.0056935613974928856 -0.0069900257512927055 -0.014408851973712444
v 0.0054120509885251522 -0.0059944288805127144 -0.0079253185540437698
v 0.0048211277462542057 -0.0062681636773049831 -0.0092479400336742401
v 0.0039267553947865963 0.009098544716835022 -0.0151244280859828
v 0.0044406428933143616 0.0089589785784482956 -0.016358135268092155
v 0.0026445486582815647 0.0095898611471056938 -0.011141389608383179
v 0.0027348233852535486 -0.007550614420324564 -0.01593201607465744
v 0.0039816619828343391 -0.0066101034171879292 -0.010836602188646793
v -0.0053456355817615986 0.0071373325772583485 0.00013385221245698631
v -0.0017071292968466878 0.0089986678212881088 -0.0046789087355136871
v 0.0079883597791194916 -0.00015544463531114161 -0.0040880232118070126
v -0.004243520088493824 0.0091112470254302025 -0.0081156957894563675
v 0.0053852489218115807 -0.003995819017291069 -0.018305975943803787
v 0.0059170485474169254 -0.0053509692661464214 -0.017597503960132599
v 0.007991420105099678 0.0031306075397878885 0.00043752204510383308
v -0.0080128693953156471 -0.0015617134049534798 -0.0062388819642364979
v 0.0022177237551659346 -0.0078842602670192719 -0.020376760512590408
v 0.0022069879341870546 -0.006508674006909132 -0.020576104521751404
v -0.006304579321295023 -0.00023561739362776279 0.0069801723584532738
v 0.0035782468039542437 0.0094825206324458122 -0.012458172626793385
v 0.0022091122809797525 0.0093148769810795784 -0.012582727707922459
v 0.00046122272033244371 -0.0076866103336215019 -0.015238396823406219
v 5.4017491493141279e-06 -0.007493982557207346 -0.013708826154470444
v -0.0074751004576683044 0.0033314679749310017 -0.0077658067457377911
v -0.0068191923201084137 0.0023498600348830223 -0.007217837031930685
v 0.0079565141350030899 -0.0057194139808416367 -0.003842734033241868
v 0.0078757591545581818 -0.0050948867574334145 -0.0047239121049642563
v -0.0065459227189421654 0.0050809145905077457 -0.018635477870702744
v 0.006650945171713829 0.0089841326698660851 -0.0078830337151885033
v 0.0049943509511649609 0.0094954734668135643 -0.0079779429361224174
v -0.0045963176526129246 -0.0045385109260678291 -0.0089647937566041946
v -0.0044084265828132629 -0.0050894594751298428 -0.0092212045565247536
v 0.0079897884279489517 -0.0013734828680753708 0.0042197583243250847
v 0.0079894587397575378 0.0028629079461097717 -0.0066081606782972813
v 0.0054153241217136383 0.0027114457916468382 -0.018219472840428352
v 0.0046242782846093178 0.0030900975689291954 -0.019399890676140785
v 0.0053193848580121994 0.0040887445211410522 -0.018351716920733452
v 0.0063785463571548462 -0.0054939016699790955 -0.017892748117446899
v -0.001392846112139523 0.0075564151629805565 -0.021241223439574242
v 0.0004357243306003511 0.0072694155387580395 -0.022715538740158081
v 0.0081925606355071068 -0.0049909334629774094 -0.0091294627636671066
v 0.0084067443385720253 -0.0058376523666083813 -0.0093618724495172501
v 0.0085625853389501572 -0.0058254082687199116 -0.009619041346013546
v -0.0080060446634888649 -0.0063828881829977036 0.0011690317187458277
v 0.0048911920748651028 0.0085767572745680809 -0.019082080572843552
v 0.0050321058370172977 0.007349071092903614 -0.020078616216778755
v 0.0027757023926824331 0.0061754267662763596 -0.021906215697526932
v 0.0016610248712822795 0.0070258993655443192 -0.022474819794297218
v -0.0080109219998121262 0.00068320304853841662 -0.0031673954799771309
v -0.0080102048814296722 0.0012268834980204701 -0.0015929657965898514
v -0.0080102542415261269 0.0017729562241584063 -0.0030208532698452473
v -0.008009069599211216 0.0029965844005346298 -0.0011592500377446413
v -0.0080088311806321144 0.0040635815821588039 -0.0026354205328971148
v -0.0080096358433365822 0.0025778806302696466 -0.0024232326541095972
v -0.0080112414434552193 -0.00026875236653722823 -0.002268732525408268
v 0.001236875425092876 -0.0012796749360859394 -0.021434828639030457
v -0.00055444077588617802 -0.0017342878272756934 -0.021355241537094116
v 4.6884400944691151e-05 -0.00036922315484844148 -0.021634466946125031
v -0.0080082910135388374 0.0035968206357210875 0.00052593473810702562
v -0.0080075496807694435 0.0050160023383796215 0.00021521386224776506
v -0.0080081233754754066 0.0045477300882339478 -0.00096537271747365594
v -0.0080108987167477608 -0.00020752633281517774 -0.0010714043164625764
v -0.0080032069236040115 0.0062116491608321667 0.002153672045096755
v -0.0080072963610291481 0.0048777130432426929 0.0015151919797062874
v -0.0063431402668356895 0.0073206489905714989 -0.0091396849602460861
v -0.0036325457040220499 -0.00072489399462938309 -0.020381797105073929
v -0.0021523633040487766 -0.0013365468475967646 -0.021025806665420532
v -0.0031170153524726629 -0.0023998008109629154 -0.020330136641860008
v 0.0034028177615255117 -0.0078454902395606041 -0.018253138288855553
v 0.0062777143903076649 -0.0072653377428650856 -0.016549255698919296
v 0.0079861264675855637 -0.0039136665873229504 -0.004327783826738596
v 0.007986738346517086 -0.0032248531933873892 -0.0034958294127136469
v -0.0066080037504434586 -0.0043438142165541649 -0.0054644681513309479
v -0.0048120846040546894 -0.0076558822765946388 -0.017334489151835442
v -0.0080128908157348633 -0.0039198859594762325 -0.00047239384730346501
v 0.00781966932117939 0.0067822826094925404 0.0017448504222556949
v 0.007993222214281559 0.0057296575978398323 0.0016038208268582821
v 0.005378207191824913 0.0089534493163228035 -0.004765351302921772
v 0.006269501056522131 0.0086511513218283653 -0.0034870519302785397
v -0.0060051078908145428 -0.0066209821961820126 -0.014176597818732262
v -0.006568156648427248 0.00075703876791521907 -0.01658916100859642
v -0.0060924747958779335 0.0025154666509479284 -0.012536165304481983
v -0.0051600690931081772 -0.00095627742120996118 -0.010543651878833771
v -0.0070808110758662224 0.0050469948910176754 -0.017040053382515907
v -0.0058903200551867485 -0.0059479996562004089 -0.01533208042383194
v -0.0056252079084515572 -0.0015356391668319702 -0.00719422847032547
v -0.0050388923846185207 9.2576723545789719e-05 -0.007676280103623867
v -0.0051449756138026714 -0.0050380425527691841 -0.0060295891016721725
v -0.0066857128404080868 0.0038204712327569723 -0.017757382243871689
v -0.0015632085269317031 -0.0040229158475995064 0.0056545725092291832
v -0.00070565706118941307 -0.0051632453687489033 0.004623820073902607
v -4.1022427467396483e-05 -0.0042937290854752064 0.0054497085511684418
v -0.0067807030864059925 0.0019424894126132131 -0.016366513445973396
v -0.0020535178482532501 0.0080953631550073624 -0.017381684854626656
v -0.00053883047075942159 0.0082058478146791458 -0.017718048766255379
v -0.001367416582070291 0.0079440521076321602 -0.018807340413331985
v -0.00060142623260617256 0.0084088509902358055 -0.016391558572649956
v 0.00074292049976065755 0.0079469550400972366 -0.020231027156114578
v -0.0007464864756911993 0.0078053418546915054 -0.020108785480260849
v 0.0028396067209541798 -0.001391531084664166 -0.020997727289795876
v 0.0035007812548428774 -0.0026834981981664896 -0.020516358315944672
v 0.004664671141654253 0.0024859672412276268 0.0064878640696406364
v 0.0032337827142328024 0.0016258724499493837 0.0067548975348472595
v 0.0012262806994840503 -0.00064090144587680697 0.0069082900881767273
v 3.6329620343167335e-05 -0.00075300218304619193 0.0068970769643783569
v 0.00096198997925966978 -0.0020490793976932764 0.0066299107857048512
v 0.0078464411199092865 0.001775068580172956 0.006628627423197031
v 0.0072756069712340832 0.003250486683100462 0.0061907926574349403
v 0.0062043247744441032 0.0021610679104924202 0.0066360658966004848
v 0.0040480177849531174 -0.0019565059337764978 0.0066596884280443192
v -0.0052251084707677364 0.0020434902980923653 0.0066426796838641167
v -0.005053219385445118 0.0033922118600457907 0.0060672094114124775
v -0.0045541226863861084 -0.0062580043449997902 0.0029572222847491503
v -0.0061836158856749535 -0.00648517906665802 0.0025254017673432827
v -0.0051867128349840641 -0.0068106786347925663 0.001246639178134501
v 0.0072881593368947506 -0.0016415450954809785 0.0067862505093216896
v -0.0016476089367642999 0.0060801594518125057 0.0025685613509267569
v -0.0051332996226847172 0.0056938603520393372 0.0037429719232022762
v 0.0039685075171291828 0.0054442202672362328 0.0041904067620635033
v 0.0021955643314868212 0.005440359003841877 0.0042055249214172363
v 0.0029561708215624094 0.004294905811548233 0.0054638627916574478
v -0.0025288080796599388 0.0062742629088461399 0.0019782194867730141
v -0.0062074563466012478 0.0060860472731292248 0.0033398517407476902
v -0.0062690586782991886 0.0014042366528883576 -0.017778549343347549
v -0.006153671070933342 -0.00011426067794673145 -0.0174252949655056
v -0.0017045369604602456 0.0043957699090242386 0.0053857890889048576
v 0.0012578091118484735 -0.0072339931502938271 -0.012920557521283627
v -0.00014278135495260358 -0.0072569064795970917 -0.012108394876122475
v -0.0080098332837224007 0.0028058835305273533 -0.0037060095928609371
v -0.0024868522305041552 -8.0162404628936201e-05 -0.021144848316907883
v -0.0012558909365907311 -0.00026541747502051294 -0.021495398133993149
v -0.0080092353746294975 0.0042320000939071178 -0.0045899483375251293
v 0.0081367241218686104 -0.0017320930492132902 -0.007079295814037323
v 0.0079865502193570137 -0.0024753101170063019 -0.0059171514585614204
v 0.0043580778874456882 -0.0057482523843646049 -0.0062146014533936977
v 0.0032279158476740122 -0.0060724304057657719 -0.0056150062009692192
v 0.0079882806167006493 -0.0015467492630705237 -0.0012656776234507561
v 0.0079891784116625786 0.00082321913214400411 -0.0031032026745378971
v -0.00083449773956090212 0.005087715107947588 -0.022481918334960938
v 0.0079883979633450508 -0.0020580957643687725 0.00034758189576677978
v 0.004032013937830925 -0.0067993709817528725 -0.012067858129739761
v -0.0080120358616113663 -0.0031148802954703569 0.0010510467691347003
v -0.005747692659497261 -0.0061870347708463669 -0.011756088584661484
v -0.0061768395826220512 0.002728115301579237 -0.018489517271518707
v -0.0061483597382903099 0.003812368493527174 -0.018925229087471962
v -0.0054481825791299343 0.0030460644047707319 -0.019685983657836914
v 0.0048999977298080921 0.0096175670623779297 -0.012507380917668343
v 0.0044819796457886696 0.0097890514880418777 -0.011137346737086773
v 0.0024972453247755766 0.00084512197645381093 -0.02139417827129364
v 0.0022920302581042051 -0.00024090288206934929 -0.021339822560548782
v -0.0017277349252253771 0.0039161560125648975 -0.022155862301588058
v -0.0032755562569946051 0.0046541867777705193 -0.021768100559711456
v -0.0020554836373776197 0.0051222327165305614 -0.022305915132164955
v 0.0079906107857823372 -0.00036340946098789573 0.0051532117649912834
v 0.0032938213553279638 -0.0073076239787042141 -0.014777418226003647
v 0.0048970244824886322 0.0045636785216629505 0.005236585158854723
v 0.0058617107570171356 0.0055646165274083614 0.0039737722836434841
v 0.007995028980076313 0.001174520468339324 -0.0073615675792098045
v 0.007989850826561451 0.0014016965869814157 -0.001786184380762279
v -0.00026014284230768681 -0.0030995134729892015 0.00620992761105299
v -0.0017700998578220606 -0.0023494679480791092 0.0065332301892340183
v 0.0067506926134228706 -0.0042014778591692448 0.0055735204368829727
v 0.0065919500775635242 -0.0028127143159508705 0.006380629725754261
v 0.0052923457697033882 -0.0032176703680306673 0.0061515062116086483
v 0.0012617793399840593 0.0097604701295495033 -0.0091176452115178108
v 0.0023961744736880064 0.0098136533051729202 -0.0095564993098378181
v 0.00050411379197612405 0.0098333219066262245 -0.0081070717424154282
v 0.0079953623935580254 -0.0032217118423432112 -0.0071470439434051514
v 0.0078084385022521019 -0.0045843226835131645 -0.0078009143471717834
v 0.0022386582568287849 -0.0077824969775974751 -0.017059305682778358
v 0.0017079744720831513 -0.0080343782901763916 -0.018289472907781601
v 0.00063165649771690369 0.00051978463307023048 0.0069230301305651665
v -0.00082964717876166105 0.0004432742134667933 0.0069266995415091515
v 0.0077906413935124874 0.0066322209313511848 0.0021030206698924303
v 0.0079934112727642059 0.0055173882283270359 0.0028304271399974823
v 0.0077501460909843445 0.0054828887805342674 0.0042861341498792171
v 0.0070981509052217007 0.0063423770479857922 0.002942308783531189
v -0.0020862431265413761 0.00013953124289400876 0.0069396113976836205
v -0.0012940652668476105 -0.00090363458730280399 0.0068787857890129089
v -0.0001019259070744738 0.0037483370397239923 -0.022287698462605476
v -0.00033539172727614641 0.0094590513035655022 -0.0069076940417289734
v -0.0052862945012748241 0.006841657217592001 -0.020895823836326599
v 0.0079923747107386589 0.0041037662886083126 0.0019635739736258984
v -0.005194623488932848 0.0067003965377807617 0.0010890929261222482
v 0.0065084402449429035 0.0081044575199484825 -0.012423483654856682
v 0.005992586724460125 0.0094457045197486877 -0.013469717465341091
v 0.0077591142617166042 0.002929536160081625 -0.012543624266982079
v 0.0079905688762664795 1.01070854725549e-05 0.0041512371972203255
v 0.0079914135858416557 0.0010439881589263678 0.0051122396253049374
v 0.0025210867170244455 -0.0081061562523245811 -0.019298883154988289
v 0.0065227220766246319 -0.0055388705804944038 -0.0042338441126048565
v 0.0090204114094376564 -0.0057459804229438305 -0.013800160959362984
v -0.0047191125340759754 -0.0046401438303291798 -0.0099233807995915413
v -0.0046844407916069031 -0.0037405453622341156 -0.0097523462027311325
v 0.0021018099505454302 0.00031476392177864909 0.0069346376694738865
v 0.0024139408487826586 -0.0012269472936168313 0.006830959115177393
v -0.00046467912034131587 -0.0018500692676752806 0.0066883671097457409
v 0.0067977313883602619 0.0017127154860645533 -0.016049062833189964
v 0.0034914698917418718 0.00013562160893343389 -0.020721811801195145
v 0.0032478319481015205 0.0017758862813934684 -0.021040355786681175
v 0.004194336012005806 0.0015230018179863691 -0.019982321187853813
v 0.0079887565225362778 -0.00021653404110111296 -0.0024033065419644117
v 0.0079902913421392441 0.00133302784524858 8.7547159637324512e-05
v 0.0079892892390489578 9.0265646576881409e-05 -0.0010167263681069016
v 0.00024170137476176023 -0.0082357935607433319 -0.018561201170086861
v 0.001275742775760591 -0.0082875192165374756 -0.01959599182009697
v 0.0044009401462972164 0.0093847233802080154 -0.013638777658343315
v -0.0013910733396187425 0.0065170582383871078 0.0012596080778166652
v 0.0036404489073902369 -0.00017666316125541925 0.0069401618093252182
v 0.0079899821430444717 -0.00047605534200556576 0.0029588921461254358
v -0.0079504512250423431 0.00052243581740185618 -0.0069141010753810406
v -0.0037565610837191343 -0.0068702069111168385 0.00035507313441485167
v -0.0037318679969757795 -0.0066986209712922573 0.0017278167651966214
v 0.0057863714173436165 -0.0062713762745261192 -0.0030142103787511587
v 0.0067045679315924644 0.00089237489737570286 0.0069233477115631104
v 0.00745769077911973 0.0082905534654855728 -0.001113924547098577
v 0.0077361408621072769 0.0071323122829198837 -0.0013990536099299788
v 0.0043305680155754089 0.0036020332481712103 0.0059413393028080463
v 0.0056652175262570381 0.0034631001763045788 0.0060237222351133823
v -0.0055755479261279106 0.001925670774653554 -0.011260871775448322
v -0.0056798681616783142 0.0030979935545474291 -0.011386457830667496
v 0.0079900436103343964 -2.1268384443828836e-05 0.0066236029379069805
v -0.0080063771456480026 0.0072684222832322121 -0.00029080771491862833
v -0.0080068474635481834 0.0070335175842046738 -0.0015952808316797018
v -0.0080072404816746712 0.0059424890205264091 -0.00067003496224060655
v -0.0020209907088428736 -0.0049061952158808708 -0.020358748733997345
v -0.0021752601023763418 -0.0063153160735964775 -0.019994094967842102
v -0.0052803545258939266 -0.0014836075715720654 0.0067753372713923454
v -0.0056071621365845203 -0.002797306515276432 0.0063509135507047176
v -0.0042634559795260429 -0.0024495921097695827 0.0064938613213598728
v -0.0070100026205182076 0.005928202997893095 -0.014715694822371006
v 0.0079928962513804436 0.0043421084992587566 0.003460414707660675
v 0.0084301037713885307 -0.0036116710398346186 -0.0085164159536361694
v -0.0057383212260901928 -0.0029044607654213905 -0.017251025885343552
v -0.0056927739642560482 -0.0040331226773560047 -0.016897682100534439
v 0.0079912338405847549 0.0021975736599415541 0.0018104994669556618
v 0.0079867038875818253 -0.0028085827361792326 -0.0045645181089639664
v 0.0079910550266504288 0.0012073143152520061 0.0033449272159487009
v -0.0080077638849616051 0.0056504900567233562 -0.002050329465419054
v -0.0080078886821866035 0.0034361695870757103 0.00245450041256845
v -0.0080094272270798683 0.0012625077506527305 0.0013547033304348588
v -0.0080093387514352798 0.0019542882218956947 0.00014149644994176924
v -0.0080072693526744843 0.0038836784660816193 0.0038620349951088428
v -0.00014798349002376199 0.0076644285582005978 -0.021408829838037491
v 0.0012437136610969901 0.0077812820672988892 -0.021620877087116241
v -0.0017316065495833755 -0.002746327081695199 -0.020900312811136246
v -0.0023595660459250212 0.0076271872967481613 -0.020133109763264656
v -0.0037744571454823017 0.0076106064952909946 -0.019271131604909897
v -0.002639328595250845 0.0078240828588604927 -0.018696850165724754
v -0.0034420657902956009 0.0080897156149148941 -0.01646856963634491
v -0.0034657260403037071 0.008322657085955143 -0.014979377388954163
v -0.00010055773600470275 0.0091033549979329109 -0.012342056259512901
v -0.0036223458591848612 0.0078482776880264282 -0.017872137948870659
v -0.0012917054118588567 0.0093204565346240997 -0.010155259631574154
v 0.0079876212403178215 -0.0018045504111796618 -0.0032529945019632578
v 0.0079920580610632896 0.0029580260161310434 0.0033099537249654531
v 0.0062620393000543118 0.0084290774539113045 -0.0018885672325268388
v 0.00094349146820604801 0.0054544066078960896 -0.022423082962632179
v 0.0030158243607729673 0.0069662230089306831 -0.0018106335774064064
v 0.0055275196209549904 -0.0055033043026924133 -0.0067123565822839737
v 0.0047478782944381237 -0.0058682095259428024 -0.0074758119881153107
v -0.0080084735527634621 0.0056839515455067158 -0.0048930570483207703
v -0.0080090835690498352 0.005032476969063282 -0.005801378283649683
v -0.0075922515243291855 0.0063648712821304798 -0.006162506528198719
v -0.00799527857452631 0.0071183345280587673 -0.0043387431651353836
v -0.0030641402117908001 -0.0032354681752622128 0.0061415922828018665
v -0.0031403133179992437 -0.004475882276892662 0.0052976380102336407
v -0.0041566882282495499 -0.0068802735768258572 -0.01842225156724453
v 0.0020328275859355927 0.0020436325576156378 -0.021704616025090218
v 0.0039431136101484299 -0.0061711305752396584 -0.008034377358853817
v 0.0062221651896834373 -0.0053359903395175934 0.0044866753742098808
v -0.0055312844924628735 0.00029850154533050954 -0.018746623769402504
v -0.0054975710809230804 -0.0010708811460062861 -0.018356950953602791
v 0.0027657316531985998 -0.0069546345621347427 -0.012184403836727142
v 0.00062070321291685104 -0.007947760634124279 -0.016998779028654099
v 0.0042436160147190094 -0.0057864864356815815 -0.00745350681245327
v -0.0024119347799569368 -0.0080699650570750237 -0.015699286013841629
v -0.0039809867739677429 -0.0081679876893758774 -0.015246974304318428
v 0.0079873977228999138 -0.001519728684797883 -0.004766018595546484
v -0.0044533666223287582 0.00070463563315570354 -0.0081628020852804184
v -0.0025426521897315979 -0.0038013902958482504 -0.02034631185233593
v -0.0013134190812706947 -0.0040316623635590076 -0.020783692598342896
v 0.0070186993107199669 -0.00012392109783831984 -0.015726985409855843
v -0.00091954867821186781 -0.0079879667609930038 -0.016200538724660873
v -0.0069971401244401932 0.0078979823738336563 -0.0055919312871992588
v -0.0011899707606062293 -0.0077820206061005592 -0.014713436365127563
v -0.0016774240648373961 -0.0058805383741855621 0.003661162918433547
v -0.0020634566899389029 -0.0050741275772452354 0.0047210250049829483
v -0.0018674806924536824 -0.007362214382737875 -0.011595796793699265
v -0.0014430425362661481 -0.0068216319195926189 -0.0084674041718244553
v -0.0029093686025589705 -0.0070741940289735794 -0.009062531404197216
v -0.0047312052920460701 -0.0064651514403522015 -0.0021888036280870438
v -0.0034045414067804813 -0.0077068004757165909 -0.012724511325359344
v -0.00023939523089211434 -0.0062108524143695831 -0.0047903042286634445
v 0.00075554515933617949 -0.0068656275980174541 0.00074886903166770935
v 0.0022188480943441391 -0.0064060324802994728 -0.0024949866347014904
v 5.2923340263077989e-05 -0.0066582798026502132 -0.0084566576406359673
v 0.0014487202279269695 -0.0062337424606084824 -0.0035404337104409933
v -0.0045836595818400383 -0.0037842013407498598 0.0058149872347712517
v -0.0064922035671770573 0.0042672557756304741 0.0055417497642338276
v -0.0034530307166278362 -0.0063816206529736519 -0.0025739986449480057
v -0.0064632534049451351 0.0013929489068686962 0.0068526226095855236
v -0.0036387767177075148 -0.0084007922559976578 -0.018547989428043365
v -0.0027682245709002018 -0.0078823035582900047 -0.014269127510488033
v 0.0059082699008285999 0.0068527362309396267 -0.017802946269512177
v 0.0059854267165064812 0.0050485958345234394 -0.01733921654522419
v -0.0068589551374316216 0.0012939476873725653 -0.0068712322972714901
v 0.0014784950762987137 0.001721205422654748 0.0067323925904929638
v 0.0028704758733510971 -0.0040698959492146969 -0.020678771659731865
v 0.0042781699448823929 -0.0039057817775756121 -0.019747363403439522
v 0.0079923532903194427 0.0024274007882922888 0.0054773841984570026
v 0.0079928552731871605 0.0036695050075650215 0.0048146834596991539
v 0.0059575550258159637 0.006098761223256588 0.0025311221834272146
v 0.0015881507424637675 -0.0076903896406292915 -0.016032345592975616
v -0.004741813987493515 0.0009699704241938889 -0.0086855404078960419
v -0.0015520844608545303 -0.0075800027698278427 -0.013188516721129417
v 0.0049119172617793083 -0.0046727149747312069 0.0051265470683574677
v 0.0037739267572760582 -0.0035909111611545086 0.0059426338411867619
v 0.0033087753690779209 -0.0046837828122079372 0.0051135849207639694
v -0.0026410352438688278 -0.00098547141533344984 0.0068664280697703362
v -0.0031329034827649593 -0.0020560147240757942 0.0066271550022065639
v 2.7051652068621479e-05 -0.0061140460893511772 0.0032541542313992977
v -0.00091016624355688691 -0.0053582610562443733 -0.020642358809709549
v -0.008009263314306736 -0.00020697488798759878 0.0053030629642307758
v -0.0080099329352378845 0.00011016002827091143 0.0019791198428720236
v -0.0080118784680962563 -0.0022396559361368418 -0.00031108493567444384
v -0.0080078896135091782 0.0028382865712046623 0.0037973073776811361
v -0.0080104535445570946 -0.0010932809673249722 0.0026633648667484522
v 0.0086540058255195618 -0.0058307251892983913 -0.013968052342534065
v 0.007593102753162384 -0.0060841254889965057 -0.0099783102050423622
v -0.0080081913620233536 0.0055813179351389408 -0.0035582117270678282
v -0.0020739040337502956 -0.0082304198294878006 -0.016944920644164085
v 0.0045693805441260338 0.0048803356476128101 -0.019476646557450294
v 0.0013171498430892825 -0.0070384158752858639 -0.011724353767931461
v 0.0038402825593948364 0.0060519706457853317 -0.020546363666653633
v -0.00095049425726756454 -0.0082205282524228096 -0.017650015652179718
v 0.0030932317022234201 -0.0061707650311291218 0.0031428406946361065
v 0.0023172651417553425 -0.0065300986170768738 0.0022862574551254511
v 0.002171017462387681 -0.0067816362716257572 -0.010684050619602203
v 0.00058979116147384048 -0.0069582127034664154 -0.010720163583755493
v -3.9990984078031033e-05 -0.00667945621535182 0.0018035935936495662
v -0.00060161628061905503 -0.0031318203546106815 -0.021104985848069191
v 0.0025128552224487066 -0.0027870135381817818 0.006356650497764349
v 0.0012783383717760444 -0.0037672773469239473 0.0058284541592001915
v 0.0022131982259452343 0.0029339385218918324 0.0062992642633616924
v 0.0034784411545842886 0.0030268041882663965 0.0062528462149202824
v 0.0021162405610084534 -0.0068278242833912373 0.0011187405325472355
v -0.0054788999259471893 0.0016715495148673654 -0.019242798909544945
v -0.0045493720099329948 -0.0020505008287727833 -0.019269278272986412
v -0.0038291807286441326 -0.0036810722667723894 -0.019522836431860924
v -0.0054548117332160473 0.0040311007760465145 -0.010643149726092815
v 0.0046686907298862934 -0.00011846665438497439 -0.0193303432315588
v -0.0080122193321585655 -0.0049421312287449837 0.0036112689413130283
v -0.0080082090571522713 0.0020262852776795626 0.0043819267302751541
v -0.0020436116028577089 0.0016489616828039289 0.0067518553696572781
v -0.0023683533072471619 0.006853706669062376 -0.00024033633235376328
v -0.0048069250769913197 0.0047922628000378609 0.0050339489243924618
v 0.0060910251922905445 -0.0052578924223780632 -0.0057463208213448524
v 0.0009346691076643765 -0.0074257738888263702 -0.020554609596729279
v 0.00074518792098388076 -0.0057005928829312325 -0.020790984854102135
v 0.0039291884750127792 -0.0055544497445225716 0.004149062093347311
v 0.0025235395878553391 -0.0054404786787927151 0.0042943023145198822
v -0.0048698722384870052 0.0074078431352972984 -0.019804803654551506
v 0.0066530434414744377 0.0045244945213198662 0.0053260964341461658
v -1.0148183719138615e-05 -0.0042260349728167057 -0.020992079749703407
v -0.0067475922405719757 -0.0068325917236506939 0.0013226080918684602
v -0.0019438854651525617 0.0010706223547458649 -0.021568791940808296
v 0.0081900246441364288 0.0024651240091770887 -0.0081132790073752403
v 0.0080554522573947906 0.0029170860070735216 -0.0092798518016934395
v 0.0029528727754950523 0.0033962721936404705 -0.021387688815593719
v 0.0083133596926927567 0.001280497875995934 -0.009202159009873867
v -0.0073178121820092201 -0.0061258180066943169 0.003329435596242547
v -0.0071374485269188881 -0.0054163746535778046 0.0043785162270069122
v 0.0038658303674310446 0.0041761402972042561 -0.020446915179491043
v 0.0038214498199522495 0.002786063589155674 -0.02048364095389843
v -0.0048247193917632103 0.0029212322551757097 -0.0090704197064042091
v -0.0052509801462292671 0.0029132545460015535 -0.01026504673063755
v -0.005938840564340353 -0.004678784403949976 0.0051137348636984825
v -0.0057850680314004421 -0.0036814582999795675 0.0058792121708393097
v 0.0023281692992895842 0.0046806470490992069 -0.021888280287384987
v 0.0031893777195364237 0.0048903930000960827 -0.021261496469378471
v -0.0013222916750237346 0.0029498904477804899 0.0062932944856584072
v -0.0024733187165111303 0.0030686501413583755 0.0062377010472118855
v -0.0035184773150831461 0.0038446101825684309 0.0057888920418918133
v -0.0037634046748280525 0.0023050575982779264 0.0065552601590752602
v 0.0067337397485971451 -0.0055039813742041588 -0.0073312395252287388
v -0.0032976947259157896 0.0048344573006033897 0.0049938815645873547
v -0.0048534637317061424 -0.0003177924663759768 0.0069321002811193466
v -0.0036099394783377647 0.00049014488467946649 0.0069248913787305355
v -0.003958510234951973 -0.0011487911688163877 0.0068412409164011478
v 0.0079919388517737389 0.0022616195492446423 0.0044141565449535847
v -0.0033751011360436678 0.00090995198115706444 -0.020912760868668556
v -0.0063394038006663322 0.0054388092830777168 0.0044128717854619026
v 0.0043283868581056595 0.0087414896115660667 -0.017656736075878143
v -0.0048146559856832027 -0.0054822089150547981 0.0042389235459268093
v -0.0059823091141879559 -0.005799158476293087 0.003801766550168395
v 0.0068757133558392525 -0.0068515618331730366 0.0012259535724297166
v 0.0014899286907166243 0.0035706877242773771 -0.022051159292459488
v 0.001146608148701489 -0.006587617564946413 0.0021099946461617947
v 0.0021416598465293646 -0.0046360669657588005 0.0051602148450911045
v 0.0054093399085104465 0.008988233283162117 -0.01677485927939415
v 0.001376244705170393 0.0047906371764838696 0.0050281304866075516
v 0.0053575877100229263 -0.0012726208660751581 -0.018330184742808342
v 0.0046989149414002895 -0.0015699876239523292 -0.019276076927781105
v -0.0051423818804323673 0.00080438918666914105 0.006897123996168375
v 0.00099108170252293348 -0.0051548350602388382 0.0046342029236257076
v 0.0016852747648954391 -0.0060771196149289608 0.0033243142534047365
v -0.0033261522185057402 -0.005561161320656538 0.0041369260288774967
v -0.0043457234278321266 -0.0048400242812931538 0.0049644140526652336
v 0.0043441732414066792 -0.0024520950391888618 -0.019717948511242867
v -0.0033720147330313921 0.0082410052418708801 -0.0016019319882616401
v -0.0011035051429644227 0.0023930445313453674 -0.021995285525918007
v 0.0021511500235646963 0.0067555438727140427 0.00044962685205973685
v 0.0068654529750347137 -0.0067490031942725182 -0.001741715706884861
v 0.007076112087816 -0.0062285969033837318 -0.0031208712607622147
v 0.007985447533428669 -0.0058292094618082047 -0.0023967118468135595
v 0.0012282284442335367 0.0038529424928128719 0.0057847825810313225
v -0.0080073699355125427 0.0066915266215801239 -0.002858020132407546
v -0.0080067943781614304 0.0061141187325119972 0.00068706565070897341
v 0.0091827521100640297 -0.0048967949114739895 -0.013879533857107162
v -0.0045934561640024185 0.00058915774570778012 -0.019925285130739212
v -0.0050322399474680424 -0.0035715100821107626 -0.018249493092298508
v -0.0080087557435035706 0.0023670936934649944 0.0014833173481747508
v 0.0045791729353368282 -0.0062614399939775467 0.0029551938641816378
v -0.008008832111954689 0.00096769636729732156 0.0043363370932638645
v -0.0080096246674656868 -5.749779666075483e-05 0.0035574275534600019
v -0.0044311722740530968 0.0014204758917912841 0.0068024122156202793
v 0.0068334522657096386 -0.0012139477767050266 -0.016053909435868263
v -0.00019691915076691657 0.0019680901896208525 0.0066638030111789703
v -0.0048056221567094326 -0.00060032954206690192 -0.019396135583519936
v -0.0066610216163098812 0.0026916731148958206 -0.017301039770245552
v -0.0080088209360837936 0.0016142925014719367 0.0029236909467726946
v -0.005019736010581255 0.003870674641802907 -0.009357142262160778
v 0.0052111954428255558 -0.0056653441861271858 0.0039864960126578808
v 0.0039977398701012135 -0.0013665664009749889 -0.020150063559412956
v 0.0050171026960015297 -0.0026191940996795893 -0.018831068649888039
v 8.60501459101215e-05 0.0045657698065042496 0.0052411728538572788
v -0.0074088554829359055 -0.0065862913616001606 0.0022539410274475813
v -0.0054403520189225674 -0.002251744968816638 -0.01805572584271431
v 0.00019831096869893372 0.0070274588651955128 -0.002410869812592864
v 0.006155860610306263 0.0032552031334489584 -0.017046025022864342
v 0.0057042124681174755 0.0075351349078118801 -0.019041718915104866
v 0.0026026025880128145 -0.0039238152094185352 0.0057251420803368092
v -0.00063031265744939446 0.0050754235126078129 0.0047286995686590672
v 0.0058872634544968605 0.0085332868620753288 -0.017917009070515633
v 0.00090735196135938168 0.0028163157403469086 0.0063529885374009609
v -0.0054622376337647438 0.0062069366686046124 -0.0098473839461803436
v -0.00017064568237401545 0.0034662112593650818 0.0060239643789827824
v 0.0021404812578111887 -0.0052069099619984627 -0.020733151584863663
f 1 2 3
f 4 5 6
f 7 8 9
f 10 11 12
f 13 14 15
f 16 17 18
f 19 20 21
f 22 23 24
f 25 26 27
f 28 29 30
f 31 32 33
f 33 34 35
f 29 36 30
f 37 31 30
f 38 39 40
f 41 42 43
f 27 26 44
f 45 35 44
f 46 25 47
f 25 48 47
f 49 50 51
f 52 53 54
f 55 56 57
f 58 59 60
f 61 62 63
f 64 65 66
f 11 67 12
f 68 69 70
f 52 71 72
f 73 74 75
f 75 74 76
f 77 78 79
f 80 79 81
f 82 41 83
f 84 85 86
f 87 88 89
f 90 91 92
f 93 94 95
f 96 97 98
f 99 100 81
f 101 102 103
f 104 105 106
f 14 13 107
f 108 109 110
f 111 112 113
f 114 115 116
f 113 117 111
f 118 119 114
f 120 121 122
f 43 123 124
f 42 41 125
f 126 127 128
f 129 4 130
f 131 132 133
f 134 135 136
f 137 138 139
f 140 141 142
f 11 143 144
f 104 145 146
f 147 148 149
f 150 151 152
f 153 154 155
f 156 151 157
f 158 159 160
f 161 162 163
f 164 165 166
f 167 165 164
f 168 169 170
f 171 172 173
f 174 175 176
f 177 178 179
f 180 181 182
f 183 184 185
f 186 187 188
f 164 171 189
f 176 168 190
f 191 192 193
f 194 195 196
f 173 163 171
f 197 198 199
f 200 181 201
f 202 163 162
f 170 203 195
f 190 168 204
f 205 175 174
f 206 207 208
f 199 198 208
f 165 167 199
f 181 187 201
f 209 210 211
f 212 176 213
f 214 215 216
f 217 110 218
f 219 220 221
f 222 223 224
f 225 226 227
f 228 229 230
f 231 232 211
f 233 234 193
f 235 236 237
f 238 239 240
f 241 2 242
f 242 2 243
f 4 6 244
f 245 246 247
f 248 249 250
f 251 252 253
f 7 254 255
f 256 257 258
f 259 260 261
f 104 262 263
f 264 265 266
f 267 268 191
f 75 269 270
f 271 272 273
f 274 275 276
f 277 278 274
f 279 280 281
f 282 283 284
f 284 285 286
f 5 3 287
f 288 75 270
f 289 290 291
f 292 286 285
f 270 282 288
f 293 78 77
f 288 282 287
f 294 295 296
f 283 273 285
f 274 297 275
f 269 283 270
f 298 299 108
f 300 301 178
f 302 303 304
f 305 306 262
f 307 105 104
f 9 308 254
f 296 309 294
f 310 311 312
f 261 313 259
f 314 315 316
f 317 318 319
f 320 321 322
f 102 101 323
f 324 100 325
f 326 327 328
f 120 329 121
f 330 331 97
f 332 333 334
f 17 105 118
f 335 336 337
f 336 338 339
f 232 228 230
f 211 340 341
f 342 122 343
f 344 345 346
f 108 347 298
f 348 349 350
f 351 352 353
f 354 355 356
f 357 358 359
f 360 361 357
f 174 176 362
f 363 364 365
f 361 363 366
f 367 368 363
f 369 370 357
f 357 371 358
f 372 373 374
f 375 376 377
f 378 379 374
f 357 359 360
f 353 380 381
f 382 383 268
f 384 365 364
f 370 371 357
f 385 386 387
f 213 176 190
f 381 127 126
f 388 389 250
f 58 65 64
f 390 78 391
f 392 294 391
f 393 248 394
f 395 248 393
f 221 395 396
f 397 398 135
f 116 115 136
f 116 135 398
f 399 400 401
f 402 399 401
f 403 404 405
f 406 271 407
f 259 313 408
f 409 207 410
f 411 22 412
f 84 330 96
f 40 413 38
f 271 406 414
f 406 415 414
f 274 276 415
f 277 274 416
f 248 395 221
f 227 417 418
f 419 420 421
f 246 15 422
f 423 424 425
f 426 424 427
f 426 428 429
f 430 431 432
f 235 433 434
f 428 235 435
f 429 428 435
f 436 437 59
f 291 438 289
f 215 214 439
f 440 441 87
f 342 225 122
f 156 442 153
f 306 305 443
f 444 445 446
f 299 109 108
f 447 326 448
f 334 333 347
f 449 411 393
f 396 257 221
f 450 451 452
f 450 453 454
f 454 453 455
f 12 456 457
f 458 459 460
f 461 462 458
f 385 366 386
f 463 337 464
f 465 466 454
f 266 467 264
f 468 469 470
f 464 471 451
f 452 460 450
f 471 472 473
f 474 339 472
f 475 455 453
f 476 477 478
f 479 452 451
f 480 481 482
f 265 483 484
f 485 475 459
f 486 487 488
f 41 82 125
f 489 483 388
f 458 462 490
f 459 475 453
f 278 277 253
f 392 293 491
f 492 493 494
f 495 496 497
f 498 499 500
f 367 360 501
f 497 430 502
f 338 404 503
f 504 505 506
f 507 508 509
f 510 500 493
f 403 503 404
f 493 500 494
f 511 512 255
f 346 345 513
f 513 345 120
f 68 514 421
f 515 258 516
f 517 328 518
f 519 520 521
f 508 522 523
f 524 525 290
f 526 527 528
f 529 522 508
f 523 530 531
f 394 331 449
f 407 271 532
f 76 269 75
f 533 534 535
f 534 422 535
f 393 394 449
f 536 537 538
f 539 540 541
f 542 543 350
f 544 545 77
f 546 323 101
f 79 544 77
f 215 547 216
f 402 548 399
f 64 63 400
f 58 64 541
f 104 106 262
f 256 515 549
f 550 389 388
f 550 455 98
f 139 138 551
f 440 23 552
f 290 553 554
f 555 512 511
f 28 35 556
f 552 22 449
f 524 557 558
f 559 408 155
f 546 560 561
f 562 302 563
f 564 565 47
f 312 376 310
f 332 566 567
f 568 52 54
f 569 76 570
f 3 5 1
f 571 572 55
f 246 422 573
f 574 9 137
f 575 576 577
f 438 578 436
f 497 579 431
f 580 432 431
f 422 14 535
f 581 582 583
f 138 137 9
f 84 440 552
f 341 340 584
f 295 585 586
f 309 587 588
f 589 590 591
f 592 593 594
f 33 30 31
f 590 589 595
f 596 597 598
f 599 600 601
f 131 602 32
f 528 603 604
f 24 605 22
f 220 468 470
f 606 607 608
f 214 216 609
f 97 331 389
f 214 610 439
f 58 541 439
f 400 541 64
f 29 128 127
f 611 612 332
f 127 613 29
f 382 614 383
f 341 615 37
f 40 616 617
f 618 619 406
f 620 234 384
f 57 362 212
f 358 621 359
f 360 367 363
f 371 622 379
f 369 623 444
f 125 82 624
f 625 620 364
f 371 378 358
f 626 627 351
f 386 366 363
f 374 379 372
f 361 360 363
f 626 126 141
f 213 628 212
f 624 629 374
f 630 631 632
f 378 374 633
f 634 635 636
f 634 637 635
f 390 638 639
f 316 640 641
f 642 643 117
f 335 463 466
f 644 645 646
f 647 648 649
f 111 650 112
f 651 652 260
f 626 353 381
f 107 299 535
f 15 14 422
f 653 654 655
f 656 113 112
f 520 519 657
f 658 530 522
f 659 660 661
f 531 520 523
f 662 508 523
f 663 658 529
f 621 664 665
f 520 531 666
f 667 668 563
f 575 423 425
f 516 529 515
f 44 26 45
f 589 44 34
f 27 669 25
f 591 594 669
f 30 33 35
f 607 670 671
f 672 669 593
f 589 591 27
f 35 28 30
f 212 380 55
f 673 139 674
f 675 676 208
f 347 333 677
f 138 8 551
f 511 253 252
f 251 40 252
f 617 252 40
f 551 8 678
f 432 679 430
f 680 533 298
f 681 399 548
f 159 150 682
f 156 153 152
f 538 570 76
f 570 532 569
f 301 300 683
f 684 685 686
f 664 621 633
f 73 687 688
f 689 690 318
f 691 692 693
f 573 694 247
f 691 693 679
f 307 104 146
f 695 547 215
f 659 696 697
f 139 698 137
f 252 555 511
f 512 699 255
f 630 700 701
f 702 703 704
f 24 343 605
f 341 231 211
f 382 93 95
f 350 543 402
f 6 134 244
f 705 490 706
f 705 103 707
f 53 495 692
f 708 310 709
f 344 68 70
f 343 88 342
f 24 89 88
f 549 468 219
f 710 711 609
f 420 412 605
f 712 713 645
f 714 715 617
f 697 716 717
f 713 718 719
f 720 691 679
f 568 629 624
f 154 559 155
f 721 98 475
f 190 628 213
f 417 227 224
f 72 722 52
f 148 147 107
f 723 555 252
f 210 209 655
f 529 724 515
f 556 45 142
f 33 32 595
f 570 461 532
f 725 75 288
f 726 240 239
f 726 725 241
f 282 284 279
f 727 280 397
f 3 241 725
f 694 728 729
f 609 730 524
f 539 399 681
f 520 657 523
f 122 225 120
f 598 597 671
f 612 333 332
f 677 680 347
f 422 534 573
f 567 566 731
f 732 61 63
f 135 134 397
f 387 733 734
f 735 644 736
f 609 216 710
f 737 700 646
f 136 244 134
f 130 4 244
f 353 571 380
f 738 130 244
f 739 740 741
f 551 678 742
f 699 678 7
f 512 555 743
f 699 744 742
f 683 233 301
f 613 36 29
f 711 745 746
f 544 80 747
f 145 263 581
f 121 345 344
f 238 545 544
f 476 748 519
f 735 736 749
f 564 419 421
f 69 68 421
f 750 534 355
f 46 751 26
f 699 512 743
f 752 753 655
f 318 598 319
f 403 405 492
f 628 381 380
f 164 166 754
f 55 380 571
f 117 113 755
f 756 757 416
f 758 642 759
f 135 116 136
f 441 90 87
f 402 543 548
f 710 216 547
f 760 761 622
f 573 728 694
f 534 750 573
f 762 656 247
f 762 247 694
f 763 764 765
f 504 766 767
f 493 492 338
f 768 769 770
f 373 372 771
f 449 330 552
f 716 772 715
f 262 773 263
f 62 61 146
f 774 775 367
f 776 743 555
f 573 247 246
f 680 677 356
f 777 612 611
f 355 533 680
f 778 728 750
f 601 779 593
f 592 601 593
f 604 599 780
f 133 781 782
f 604 600 599
f 780 783 528
f 602 590 595
f 784 638 785
f 762 755 113
f 380 212 628
f 618 479 619
f 744 699 743
f 597 786 607
f 382 268 625
f 294 638 391
f 785 638 294
f 100 324 321
f 390 635 78
f 787 788 789
f 78 635 637
f 790 791 325
f 792 320 102
f 639 638 784
f 791 91 324
f 639 636 390
f 790 634 793
f 634 325 637
f 100 321 81
f 322 91 90
f 791 790 223
f 794 320 441
f 106 105 17
f 611 312 777
f 728 573 750
f 677 333 795
f 723 796 776
f 306 673 708
f 461 452 618
f 797 473 472
f 488 756 486
f 679 432 798
f 265 465 483
f 255 253 511
f 799 474 471
f 472 471 474
f 487 486 472
f 484 483 489
f 473 797 619
f 403 488 487
f 465 265 264
f 695 540 539
f 542 800 801
f 730 711 746
f 672 48 25
f 802 803 672
f 803 419 48
f 804 802 805
f 691 21 692
f 806 807 630
f 95 808 614
f 712 644 735
f 539 304 695
f 778 729 728
f 612 777 795
f 708 311 310
f 461 618 407
f 306 708 773
f 581 263 773
f 695 304 303
f 409 548 543
f 557 730 746
f 318 317 809
f 409 543 810
f 13 702 811
f 462 461 570
f 146 145 62
f 677 795 742
f 82 83 71
f 812 813 665
f 576 425 741
f 814 304 539
f 711 710 815
f 810 543 542
f 561 80 81
f 60 65 58
f 674 312 311
f 708 709 773
f 816 675 208
f 496 495 722
f 481 480 586
f 614 808 144
f 410 207 206
f 817 818 143
f 742 678 699
f 777 674 819
f 778 776 796
f 506 505 808
f 820 518 327
f 38 403 39
f 304 667 302
f 821 822 766
f 236 823 115
f 292 285 272
f 562 824 815
f 457 746 745
f 537 536 706
f 667 304 814
f 472 486 797
f 198 205 206
f 825 804 805
f 810 207 409
f 166 165 675
f 563 826 562
f 797 486 756
f 827 631 828
f 143 818 383
f 818 192 191
f 88 343 24
f 184 829 668
f 181 180 188
f 498 500 510
f 830 362 831
f 232 230 832
f 301 179 178
f 179 833 829
f 752 655 209
f 211 232 209
f 169 175 834
f 191 383 818
f 829 184 183
f 181 835 182
f 183 831 179
f 202 189 171
f 836 167 164
f 197 186 834
f 191 193 267
f 833 193 192
f 185 837 830
f 838 197 199
f 161 163 173
f 181 188 187
f 839 770 769
f 178 177 56
f 759 696 758
f 526 261 840
f 194 209 832
f 841 195 194
f 260 259 842
f 195 841 170
f 175 198 834
f 67 843 144
f 818 817 844
f 793 123 790
f 102 320 794
f 356 743 354
f 85 707 103
f 91 222 92
f 790 325 634
f 681 548 814
f 845 243 846
f 323 561 81
f 418 120 227
f 751 847 140
f 524 558 525
f 844 192 818
f 207 810 208
f 735 848 712
f 495 497 502
f 403 38 488
f 407 618 406
f 354 776 778
f 849 641 850
f 648 851 852
f 697 853 494
f 745 711 815
f 562 854 303
f 855 820 326
f 742 744 677
f 777 312 674
f 312 567 376
f 856 844 826
f 5 287 281
f 281 280 727
f 134 727 397
f 3 288 287
f 857 858 859
f 226 225 92
f 580 588 798
f 860 861 701
f 827 862 631
f 314 316 849
f 863 766 822
f 640 596 690
f 528 783 526
f 408 313 864
f 864 155 408
f 132 865 133
f 615 866 31
f 867 783 780
f 868 865 132
f 132 866 682
f 150 152 868
f 615 341 160
f 682 615 160
f 775 94 93
f 206 837 410
f 732 66 869
f 63 62 401
f 463 454 466
f 869 66 65
f 63 66 732
f 66 63 64
f 62 870 401
f 613 127 381
f 36 613 229
f 365 384 683
f 779 871 593
f 672 593 871
f 78 99 79
f 78 293 391
f 792 323 81
f 824 817 872
f 577 873 482
f 444 370 369
f 119 433 237
f 797 416 619
f 874 667 814
f 801 816 810
f 480 873 875
f 745 815 876
f 877 878 162
f 249 248 220
f 588 587 798
f 165 676 675
f 874 879 880
f 880 668 874
f 844 817 826
f 11 872 143
f 881 51 182
f 852 772 716
f 826 817 824
f 513 379 346
f 786 597 882
f 11 876 872
f 494 659 697
f 387 734 352
f 804 803 802
f 339 474 336
f 883 646 884
f 646 883 736
f 493 338 510
f 118 116 398
f 200 835 181
f 836 201 187
f 362 57 56
f 186 188 203
f 841 832 204
f 206 208 198
f 838 199 167
f 838 836 187
f 195 180 196
f 829 833 856
f 200 201 189
f 189 836 164
f 169 203 170
f 834 186 169
f 206 205 837
f 661 885 886
f 162 887 202
f 825 395 393
f 735 749 643
f 410 185 880
f 686 888 684
f 889 608 890
f 344 346 891
f 533 355 534
f 694 729 762
f 767 505 504
f 892 425 424
f 490 707 485
f 893 151 159
f 113 656 762
f 261 894 313
f 767 863 456
f 821 786 822
f 870 583 582
f 290 554 578
f 895 718 713
f 26 751 45
f 507 509 896
f 897 530 658
f 377 898 375
f 496 788 787
f 899 456 900
f 764 763 257
f 700 737 701
f 630 828 631
f 695 303 547
f 746 457 899
f 278 253 255
f 251 253 277
f 901 859 902
f 72 903 722
f 722 903 496
f 716 904 852
f 905 314 900
f 700 884 646
f 858 650 883
f 584 340 906
f 696 659 661
f 717 714 616
f 645 719 737
f 907 671 670
f 501 665 813
f 191 268 383
f 430 497 431
f 692 21 20
f 275 297 308
f 908 909 286
f 740 809 910
f 280 909 911
f 272 275 292
f 274 278 297
f 574 292 308
f 17 398 18
f 569 271 273
f 272 285 273
f 18 280 911
f 574 908 286
f 295 294 392
f 605 412 22
f 158 160 584
f 902 877 901
f 912 913 893
f 914 915 910
f 654 906 655
f 563 856 826
f 143 872 817
f 261 260 840
f 916 917 446
f 918 919 442
f 807 806 839
f 700 632 884
f 1 5 4
f 243 2 1
f 75 725 73
f 280 18 397
f 287 282 279
f 795 333 612
f 910 920 921
f 751 46 847
f 729 851 647
f 749 111 117
f 659 494 500
f 749 650 111
f 290 850 553
f 895 922 923
f 924 925 923
f 704 112 650
f 709 926 349
f 51 881 862
f 626 141 140
f 924 927 897
f 231 228 232
f 768 928 559
f 650 749 736
f 929 928 930
f 37 36 228
f 796 931 778
f 641 849 316
f 907 932 21
f 658 933 897
f 664 684 888
f 858 704 650
f 824 876 815
f 745 876 10
f 20 19 686
f 545 934 77
f 293 77 934
f 295 392 491
f 515 724 549
f 653 935 936
f 149 937 147
f 798 920 938
f 550 98 97
f 800 675 801
f 741 915 576
f 835 939 881
f 572 733 300
f 448 326 328
f 892 741 425
f 895 925 929
f 410 879 409
f 872 876 824
f 212 55 57
f 893 913 157
f 842 651 260
f 435 553 429
f 859 940 902
f 596 315 597
f 900 863 905
f 762 729 647
f 242 941 238
f 490 462 537
f 554 435 437
f 469 549 507
f 359 501 360
f 660 942 661
f 379 513 372
f 693 502 430
f 608 821 890
f 855 326 447
f 760 446 917
f 424 943 892
f 943 944 892
f 928 945 559
f 946 862 947
f 296 295 586
f 67 505 767
f 807 948 828
f 807 949 948
f 587 309 296
f 850 641 950
f 497 496 787
f 670 932 907
f 13 148 107
f 918 949 839
f 879 548 409
f 415 416 274
f 756 413 757
f 413 251 757
f 413 756 488
f 416 415 619
f 690 739 640
f 654 936 912
f 929 860 718
f 688 546 536
f 339 487 472
f 471 464 799
f 951 470 469
f 799 336 474
f 459 458 485
f 121 329 345
f 643 885 848
f 478 748 476
f 465 388 483
f 464 454 463
f 465 454 455
f 686 54 20
f 484 489 951
f 459 450 460
f 461 458 460
f 503 403 487
f 952 907 21
f 477 476 953
f 471 473 451
f 455 475 98
f 455 550 388
f 249 470 951
f 74 73 688
f 855 447 446
f 352 734 353
f 887 939 835
f 954 955 956
f 666 531 927
f 835 200 887
f 196 182 50
f 946 884 632
f 798 938 720
f 878 947 939
f 661 942 957
f 436 578 554
f 910 809 938
f 204 832 230
f 845 482 481
f 704 703 112
f 254 7 9
f 908 698 911
f 307 119 105
f 696 904 697
f 214 289 438
f 764 958 779
f 600 959 765
f 765 779 601
f 456 899 457
f 142 751 140
f 653 948 935
f 433 307 960
f 307 146 61
f 839 949 807
f 19 961 888
f 359 621 665
f 94 775 962
f 769 154 442
f 806 861 770
f 229 628 190
f 963 599 782
f 594 591 590
f 604 603 959
f 959 763 765
f 527 516 603
f 252 617 723
f 959 603 258
f 592 594 590
f 644 712 645
f 48 672 803
f 901 877 964
f 726 239 747
f 560 687 747
f 578 438 291
f 341 37 231
f 150 159 151
f 842 259 408
f 840 897 933
f 565 847 46
f 823 427 738
f 309 588 785
f 839 806 770
f 649 642 117
f 470 249 220
f 83 41 43
f 595 34 33
f 150 868 132
f 783 867 261
f 965 864 313
f 604 780 528
f 965 966 864
f 32 602 595
f 599 592 782
f 74 688 538
f 917 761 760
f 232 832 209
f 83 72 71
f 914 921 875
f 655 906 210
f 929 967 945
f 352 351 623
f 968 236 428
f 649 648 759
f 50 753 752
f 49 753 50
f 895 969 922
f 848 735 643
f 914 910 921
f 430 679 693
f 448 514 447
f 961 812 888
f 315 882 597
f 665 664 812
f 51 827 49
f 19 888 686
f 889 970 606
f 825 411 412
f 686 685 54
f 813 970 889
f 863 767 766
f 905 822 882
f 823 426 427
f 630 701 806
f 664 888 812
f 771 418 417
f 120 418 513
f 26 25 46
f 669 672 25
f 672 871 802
f 802 871 805
f 825 412 804
f 684 971 629
f 706 101 705
f 518 627 517
f 513 418 372
f 2 241 3
f 560 747 80
f 934 545 941
f 224 227 226
f 222 791 223
f 43 223 123
f 867 780 972
f 972 865 966
f 615 31 37
f 780 963 972
f 31 866 32
f 89 440 87
f 891 917 973
f 440 86 441
f 276 414 415
f 546 706 536
f 846 243 129
f 22 411 449
f 149 964 161
f 949 935 948
f 947 877 902
f 644 646 736
f 884 946 940
f 514 564 421
f 140 847 448
f 571 734 733
f 466 467 335
f 277 757 251
f 337 463 335
f 947 902 946
f 964 974 901
f 179 829 183
f 860 929 930
f 925 967 929
f 924 652 925
f 975 950 641
f 875 873 914
f 740 689 809
f 587 875 921
f 882 315 905
f 971 684 664
f 39 616 40
f 488 38 413
f 492 717 616
f 494 853 492
f 500 660 659
f 748 509 662
f 492 616 39
f 338 953 510
f 416 757 277
f 853 717 492
f 487 339 503
f 336 953 338
f 748 478 896
f 896 469 507
f 521 499 519
f 500 499 660
f 455 388 465
f 624 374 373
f 257 396 764
f 396 958 764
f 871 779 958
f 779 765 764
f 870 582 348
f 265 484 266
f 261 526 783
f 132 682 150
f 966 965 972
f 152 864 966
f 866 132 131
f 781 133 865
f 866 615 682
f 153 155 864
f 959 258 763
f 440 89 23
f 549 219 256
f 249 489 250
f 437 60 59
f 434 869 60
f 943 424 426
f 437 436 554
f 429 976 943
f 556 128 28
f 184 880 185
f 23 22 552
f 891 761 917
f 507 724 508
f 134 6 727
f 977 957 942
f 738 427 423
f 666 923 922
f 652 840 260
f 559 154 768
f 702 15 245
f 700 630 632
f 734 571 353
f 149 811 974
f 949 918 935
f 976 429 553
f 300 387 683
f 565 514 448
f 209 194 752
f 362 830 174
f 563 302 667
f 186 197 838
f 167 836 838
f 168 841 204
f 204 230 190
f 185 830 183
f 120 345 329
f 182 196 180
f 202 200 189
f 831 56 177
f 676 199 208
f 179 831 177
f 180 195 203
f 172 171 164
f 831 183 830
f 169 176 175
f 179 301 233
f 182 51 50
f 857 859 901
f 346 761 891
f 946 631 862
f 948 49 827
f 912 978 654
f 161 964 162
f 518 328 327
f 266 484 896
f 182 835 881
f 572 178 56
f 269 569 273
f 271 414 272
f 909 279 286
f 292 275 308
f 279 284 286
f 903 72 124
f 788 124 793
f 529 516 663
f 361 369 357
f 351 445 623
f 387 386 365
f 371 370 622
f 385 369 366
f 363 368 364
f 128 556 126
f 369 385 623
f 374 629 971
f 629 685 684
f 775 93 368
f 596 598 318
f 514 916 447
f 596 640 316
f 690 596 318
f 506 95 94
f 920 910 938
f 786 882 822
f 597 607 671
f 879 410 880
f 813 979 501
f 613 628 229
f 71 568 82
f 970 812 961
f 67 808 505
f 108 110 217
f 786 821 608
f 293 392 391
f 766 504 821
f 607 786 608
f 12 767 456
f 863 900 456
f 980 466 465
f 738 423 981
f 809 689 318
f 56 55 572
f 355 354 750
f 100 637 325
f 967 651 945
f 910 915 740
f 920 587 921
f 549 724 507
f 975 739 892
f 976 950 944
f 976 944 943
f 944 950 975
f 482 845 846
f 823 136 115
f 577 846 981
f 114 236 115
f 438 59 610
f 257 763 258
f 785 588 580
f 193 234 267
f 508 662 509
f 688 560 546
f 330 84 552
f 417 42 125
f 538 688 536
f 537 570 538
f 268 267 620
f 255 254 278
f 228 231 37
f 40 251 413
f 981 130 738
f 585 982 586
f 237 433 235
f 85 96 721
f 247 656 245
f 762 647 755
f 974 964 149
f 983 884 940
f 954 754 955
f 336 799 337
f 442 919 769
f 423 575 981
f 242 240 241
f 977 984 666
f 531 530 927
f 908 574 698
f 125 624 373
f 904 716 697
f 524 730 557
f 242 243 845
f 739 975 640
f 857 974 811
f 970 813 812
f 352 623 385
f 740 915 741
f 741 892 739
f 495 53 722
f 368 367 775
f 624 82 568
f 982 985 845
f 569 532 271
f 982 845 481
f 537 462 570
f 110 109 147
f 572 571 733
f 943 426 429
f 424 423 427
f 960 732 869
f 433 960 434
f 65 60 869
f 437 434 60
f 59 438 436
f 982 481 586
f 701 719 860
f 441 86 794
f 85 103 794
f 224 226 222
f 791 222 91
f 933 663 527
f 522 530 523
f 657 662 523
f 698 139 443
f 29 28 128
f 289 214 609
f 24 23 89
f 954 172 754
f 956 566 332
f 342 88 92
f 225 342 92
f 90 441 320
f 208 810 816
f 648 647 851
f 896 509 748
f 350 349 926
f 416 797 756
f 526 933 527
f 984 977 521
f 521 942 660
f 660 499 521
f 256 258 515
f 258 603 516
f 788 793 789
f 639 787 636
f 669 594 593
f 44 589 27
f 514 565 564
f 899 557 746
f 653 655 753
f 704 858 857
f 848 986 969
f 264 467 980
f 418 771 372
f 643 642 886
f 11 843 67
f 506 890 504
f 870 350 402
f 554 553 435
f 446 445 855
f 580 784 785
f 10 12 457
f 383 614 143
f 726 687 73
f 299 107 109
f 981 575 577
f 42 417 224
f 431 784 580
f 544 747 239
f 687 726 747
f 985 982 585
f 715 717 716
f 956 955 566
f 68 344 891
f 137 698 574
f 220 219 468
f 250 489 388
f 649 117 755
f 678 8 7
f 804 420 419
f 446 760 444
f 608 889 606
f 753 49 653
f 886 642 758
f 924 666 927
f 987 122 344
f 466 980 467
f 933 526 840
f 661 886 758
f 820 855 445
f 900 558 899
f 928 768 930
f 906 978 584
f 402 401 870
f 334 956 332
f 368 625 364
f 379 378 371
f 501 774 367
f 738 244 136
f 620 625 268
f 365 386 363
f 352 385 387
f 785 294 309
f 159 158 893
f 151 893 157
f 88 87 92
f 596 316 315
f 578 291 290
f 603 528 527
f 448 627 140
f 510 953 498
f 85 84 96
f 348 582 581
f 912 158 978
f 937 110 147
f 784 579 639
f 503 339 338
f 636 635 390
f 118 398 17
f 103 102 794
f 90 320 322
f 932 670 606
f 731 376 567
f 63 401 400
f 800 542 926
f 412 420 804
f 605 69 420
f 545 238 941
f 223 43 224
f 81 79 99
f 956 334 217
f 349 581 709
f 987 344 70
f 671 907 319
f 166 731 754
f 987 343 122
f 124 72 83
f 124 123 793
f 124 83 43
f 823 236 968
f 107 147 109
f 926 542 350
f 955 731 566
f 904 648 852
f 898 800 926
f 194 196 752
f 833 233 193
f 163 202 171
f 201 836 189
f 161 173 937
f 199 676 165
f 248 250 394
f 343 987 605
f 985 941 242
f 334 347 108
f 263 145 104
f 725 288 3
f 284 283 285
f 272 414 276
f 282 270 283
f 330 449 331
f 792 102 323
f 792 321 320
f 539 541 400
f 69 987 70
f 394 389 331
f 340 211 210
f 142 45 751
f 420 69 421
f 384 364 620
f 622 370 760
f 617 616 714
f 58 610 59
f 394 250 389
f 139 673 443
f 214 438 610
f 387 365 683
f 583 145 581
f 425 576 575
f 428 426 968
f 323 546 561
f 953 336 335
f 514 973 916
f 585 295 491
f 585 934 985
f 934 585 491
f 498 519 499
f 403 492 39
f 448 847 565
f 666 984 520
f 106 305 262
f 911 16 18
f 47 565 46
f 306 773 262
f 212 362 176
f 658 522 529
f 437 435 235
f 419 564 48
f 347 680 298
f 312 611 567
f 590 782 592
f 58 439 610
f 439 540 215
f 439 541 540
f 539 400 399
f 341 584 160
f 159 682 160
f 257 219 221
f 330 97 96
f 152 151 156
f 11 144 843
f 369 361 366
f 633 358 378
f 634 789 793
f 14 107 535
f 663 933 658
f 351 627 820
f 234 620 267
f 546 101 706
f 198 175 205
f 547 854 710
f 598 671 319
f 299 298 533
f 707 721 485
f 875 587 296
f 569 269 76
f 241 240 726
f 154 153 442
f 61 732 960
f 583 870 62
f 215 540 695
f 129 243 1
f 157 918 442
f 829 856 668
f 184 668 880
f 796 723 772
f 477 467 478
f 234 233 683
f 178 572 300
f 941 985 934
f 248 221 220
f 444 623 445
f 461 407 532
f 811 149 13
f 1 4 129
f 85 794 86
f 92 87 90
f 54 685 568
f 356 355 680
f 354 778 750
f 703 245 656
f 461 460 452
f 798 432 580
f 324 91 322
f 544 239 238
f 356 744 743
f 454 464 450
f 458 490 485
f 673 674 708
f 144 808 67
f 568 71 52
f 525 849 850
f 723 715 772
f 854 547 303
f 539 681 814
f 80 544 79
f 354 743 776
f 311 708 674
f 143 614 144
f 668 856 563
f 731 955 754
f 562 303 302
f 854 562 815
f 279 909 280
f 283 269 273
f 814 879 874
f 619 479 473
f 833 844 856
f 754 172 164
f 176 169 168
f 233 833 179
f 198 197 834
f 74 538 76
f 103 705 101
f 321 792 81
f 796 852 931
f 478 266 896
f 448 328 517
f 800 898 377
f 815 710 854
f 819 551 795
f 729 778 931
f 726 73 725
f 918 936 935
f 865 868 966
f 963 781 972
f 867 972 894
f 152 153 864
f 795 777 819
f 879 814 548
f 808 95 506
f 157 913 918
f 721 707 85
f 442 156 157
f 759 904 696
f 824 562 826
f 668 667 874
f 192 844 833
f 831 362 56
f 202 887 200
f 186 838 187
f 194 832 841
f 884 983 883
f 559 945 842
f 701 737 719
f 643 886 885
f 666 988 977
f 381 126 626
f 576 914 873
f 898 926 310
f 579 784 431
f 124 788 903
f 798 587 920
f 788 496 903
f 787 639 579
f 981 846 129
f 852 796 772
f 606 670 607
f 953 476 498
f 242 845 985
f 398 397 18
f 519 498 476
f 292 574 286
f 692 495 502
f 890 962 889
f 621 358 633
f 622 761 346
f 158 584 978
f 419 803 804
f 640 975 641
f 925 651 967
f 858 983 859
f 977 942 521
f 228 36 229
f 946 902 940
f 827 828 948
f 936 918 913
f 344 122 121
f 222 226 92
f 739 690 689
f 20 54 53
f 934 491 293
f 558 900 989
f 257 256 219
f 873 577 576
f 702 704 857
f 883 983 858
f 968 426 823
f 240 242 238
f 236 235 428
f 482 873 480
f 691 720 952
f 417 125 771
f 875 296 586
f 10 457 745
f 899 558 557
f 715 714 717
f 906 340 210
f 290 289 524
f 950 976 850
f 490 705 707
f 468 549 469
f 489 249 951
f 988 986 957
f 724 529 508
f 969 895 713
f 897 840 652
f 606 961 932
f 809 317 938
f 9 574 308
f 911 909 908
f 787 579 497
f 958 805 871
f 765 601 600
f 568 685 629
f 307 61 960
f 665 501 359
f 601 592 599
f 781 963 782
f 959 600 604
f 850 976 553
f 917 916 973
f 443 673 306
f 866 131 32
f 868 152 966
f 261 867 894
f 781 865 972
f 395 825 805
f 898 310 376
f 162 964 877
f 650 736 883
f 718 860 719
f 720 938 317
f 477 335 467
f 890 506 962
f 482 846 577
f 6 5 727
f 297 254 308
f 313 894 965
f 878 939 887
f 17 16 106
f 767 12 67
f 986 988 969
f 986 848 885
f 769 768 154
f 752 196 50
f 713 712 969
f 229 190 230
f 923 925 895
f 387 300 733
f 661 758 696
f 930 770 861
f 819 674 139
f 945 928 929
f 740 739 689
f 869 434 960
f 889 962 979
f 961 19 932
f 816 801 675
f 905 315 314
f 774 501 979
f 319 952 317
f 774 979 962
f 662 657 748
f 805 958 396
f 350 870 348
f 158 912 893
f 475 485 721
f 648 904 759
f 656 112 703
f 245 703 702
f 469 484 951
f 133 782 590
f 631 946 632
f 702 13 15
f 839 919 918
f 142 141 556
f 718 895 929
f 897 652 924
f 957 977 988
f 927 530 897
f 885 957 986
f 709 310 926
f 820 327 326
f 649 755 647
f 408 559 842
f 651 842 945
f 848 969 712
f 969 988 922
f 860 930 861
f 701 861 806
f 627 448 517
f 149 148 13
f 862 881 939
f 887 162 878
f 370 444 760
f 93 625 368
f 973 68 891
f 970 961 606
f 889 979 813
f 907 952 319
f 338 492 404
f 625 93 382
f 821 504 890
f 53 692 20
f 525 558 989
f 290 525 850
f 576 915 914
f 731 166 377
f 586 480 875
f 981 129 130
f 693 692 502
f 379 622 346
f 646 645 737
f 912 936 913
f 940 859 983
f 947 862 939
f 305 106 16
f 691 952 21
f 863 822 905
f 962 506 94
f 173 172 954
f 720 679 798
f 849 989 314
f 492 405 404
f 43 42 224
f 790 123 223
f 120 225 227
f 628 613 381
f 911 698 443
f 937 218 110
f 954 956 217
f 748 657 519
f 35 45 556
f 34 595 589
f 217 218 954
f 317 952 720
f 719 645 713
f 376 731 377
f 446 447 916
f 722 53 52
f 602 131 133
f 374 971 633
f 636 789 634
f 118 105 119
f 99 78 637
f 524 289 609
f 34 44 35
f 669 27 591
f 47 48 564
f 975 892 944
f 98 721 96
f 16 443 305
f 114 116 118
f 373 771 125
f 898 376 375
f 19 21 932
f 830 837 205
f 237 236 114
f 675 800 377
f 237 114 119
f 900 314 989
f 911 443 16
f 108 217 334
f 99 637 100
f 633 971 664
f 321 324 322
f 791 324 325
f 140 627 626
f 69 605 987
f 389 550 97
f 411 825 393
f 451 450 464
f 459 453 450
f 556 141 126
f 136 823 738
f 469 896 484
f 730 609 711
f 533 535 299
f 8 138 9
f 440 84 86
f 7 255 699
f 599 963 780
f 384 234 683
f 638 390 391
f 80 561 560
f 245 15 246
f 527 663 516
f 396 395 805
f 433 119 307
f 567 611 332
f 36 37 30
f 279 281 287
f 654 978 906
f 717 853 697
f 820 627 518
f 723 617 715
f 542 801 810
f 555 723 776
f 520 984 521
f 759 642 649
f 709 581 773
f 857 811 702
f 653 49 948
f 139 551 819
f 590 602 133
f 618 452 479
f 467 266 478
f 795 551 742
f 677 744 356
f 168 170 841
f 729 931 851
f 410 837 185
f 169 186 203
f 203 188 180
f 174 830 205
f 254 297 278
f 688 687 560
f 852 851 931
f 965 894 972
f 434 437 235
f 675 377 166
f 173 954 218
f 10 876 11
f 937 173 218
f 925 652 651
f 62 145 583
f 264 980 465
f 275 272 276
f 581 349 348
f 281 727 5
f 988 666 922
f 445 351 820
f 614 382 95
f 619 415 406
f 799 464 337
f 953 335 477
f 473 479 451
f 770 930 768
f 626 351 353
f 769 919 839
f 857 901 974
f 630 807 828
f 666 924 923
f 117 643 749
f 947 878 877
f 957 885 661
f 849 525 989
f 789 636 787
f 936 654 653
f 962 775 774
f 68 973 514
f 537 706 490
f 161 937 149
f 862 827 51
