# Generated by benchmark/pick_up_apple/mujoco_src/export.py
v -0.0073786303400993347 0.0029115122742950916 -0.010104282759130001
v -0.0018274319591000676 0.0081890188157558441 -0.011012226343154907
v 0.0054481434635818005 0.0056814355775713921 -0.0055074393749237061
v 0.0062816636636853218 -0.0034048175439238548 -0.0086928931996226311
v -0.0042603635229170322 -0.0033610952086746693 -0.016242766752839088
v -0.0052904258482158184 0.0058435341343283653 -0.0053892023861408234
v -0.0060608051717281342 0.0064029684290289879 -0.0050756647251546383
v -0.0063632209785282612 0.0058158310130238533 -0.0053901053033769131
v 0.0016243907157331705 0.0083095692098140717 -0.010987273417413235
v 0.0077681420370936394 -0.00012791194603778422 -0.0087663056328892708
v 0.0024876962415874004 -0.0033393134362995625 -0.021756213158369064
v 0.00089567381655797362 -0.0033384703565388918 -0.021756241098046303
v 0.0015950605738908052 -0.0043439334258437157 -0.021761130541563034
v 0.003085768548771739 -0.0043219155631959438 -0.021760992705821991
v 0.0036978702992200851 -0.0052070147357881069 -0.021762756630778313
v 0.0044752997346222401 -0.0042716935276985168 -0.021760560572147369
v 1.5331897884607315e-05 -0.0044519822113215923 -0.021761687472462654
v -0.00025201970129273832 -0.0056931125000119209 -0.021765748038887978
v -0.0076300711371004581 0.00020066011347807944 -0.0086715575307607651
v 0.0010248479666188359 -0.0059866388328373432 -0.021765680983662605
v 0.0040797186084091663 -0.0033401562832295895 -0.021756185218691826
v 0.0056717414408922195 -0.0033409991301596165 -0.021756157279014587
v -0.0018799796234816313 -0.0053983381949365139 -0.021766474470496178
v -0.0028239134699106216 -0.0033401648979634047 -0.021001344546675682
v -0.0034772695507854223 -0.0052221841178834438 -0.021765956655144691
v 0.0033529845532029867 -0.0033432287164032459 -0.020997101441025734
v -0.0006963486666791141 -0.0033376275096088648 -0.021756269037723541
v -0.0022883710917085409 -0.0033367846626788378 -0.021756298840045929
v -0.0014378399355337024 -0.0042996001429855824 -0.021760974079370499
v -0.0038803936913609505 -0.0033359415829181671 -0.021756326779723167
v -0.0042719664052128792 -0.0042680571787059307 -0.021759990602731705
v -0.0054724160581827164 -0.0033350987359881401 -0.021756352856755257
v -0.004999079741537571 0.0068570896983146667 -0.0094230882823467255
v 0.0033409253228455782 0.0028458328451961279 -0.0077326889149844646
v 0.00040483166230842471 -0.0047419331967830658 -0.025738868862390518
v 0.001010360661894083 -0.0056928466074168682 -0.025603834539651871
v 0.0063926749862730503 0.0044401283375918865 -0.013302568346261978
v -0.00013490757555700839 -0.0057741831988096237 -0.025670679286122322
v 0.0049029560759663582 -0.0033797651994973421 -0.013547593727707863
v 0.0019513212610036135 -0.0024187471717596054 -0.025256115943193436
v 0.00026652359520085156 -0.0033682724460959435 -0.015297635458409786
v -0.0024090977385640144 -0.003356309374794364 -0.017382519319653511
v 0.0077264322899281979 0.0025454801507294178 -0.0091035580262541771
v 0.0069396812468767166 0.0050722416490316391 -0.0084705241024494171
v 0.007798459380865097 0.0032965252175927162 -0.0080999983474612236
v 0.0068929698318243027 0.0044147726148366928 -0.010807400569319725
v 0.0066720223985612392 0.0043152752332389355 -0.012475484050810337
v 0.0062584900297224522 0.005469408817589283 -0.010806931182742119
v 0.0075565967708826065 0.0024475278332829475 -0.011083021759986877
v 0.0063735349103808403 0.0040552248246967793 -0.014390680007636547
v 0.0072895502671599388 0.0021991503890603781 -0.013821090571582317
v 0.0062746964395046234 0.003634369932115078 -0.015718327835202217
v 0.0071680494584143162 0.0017449568258598447 -0.015290507115423679
v 0.0061343787238001823 0.0032082002144306898 -0.016988383606076241
v 0.0060107330791652203 0.0026550928596407175 -0.01815655454993248
v 0.0069314632564783096 0.0016850708052515984 -0.016754800453782082
v 0.006571485660970211 0.0016850627725943923 -0.018048197031021118
v 0.0059114536270499229 0.0018698156345635653 -0.019422978162765503
v 0.0060594961978495121 0.00097587186610326171 -0.020204119384288788
v 0.0049762129783630371 0.0015846197493374348 -0.02128877118229866
v 0.0048882113769650459 0.002378363162279129 -0.020485997200012207
v 0.0055047357454895973 0.0015164288925006986 -0.020574623718857765
v -0.0072409389540553093 0.0039680413901805878 -0.0069894855841994286
v 0.0040121925994753838 0.00048717195750214159 -0.023162445053458214
v 0.0045900722034275532 0.0011192075908184052 -0.022168759256601334
v 0.0044733844697475433 -0.00066961674019694328 -0.023516537621617317
v 0.0067167193628847599 0.0028233951888978481 -0.0074071460403501987
v 0.0042683552019298077 -0.0042595947161316872 -0.023809181526303291
v 0.0033313061576336622 -0.00026688666548579931 -0.024032434448599815
v 0.0023730834946036339 -0.001048190169967711 -0.024688217788934708
v -0.00068857264705002308 -0.0033575790002942085 -0.017311597242951393
v 0.0036726521793752909 -0.0015487157506868243 -0.024406852200627327
v 0.0041415058076381683 0.0020396462641656399 -0.021635998040437698
v 0.0055476869456470013 0.00071394408587366343 -0.021319806575775146
v 0.0050598932430148125 6.3866937125567347e-05 -0.022507684305310249
v 0.005665631964802742 0.0045762946829199791 -0.015262880362570286
v 0.0057620126754045486 0.0049896356649696827 -0.013912673108279705
v 0.0052301199175417423 0.0030130792874842882 -0.019153198227286339
v 0.0063212900422513485 0.0060982238501310349 -0.0080087054520845413
v 0.007355978712439537 0.0042447419837117195 -0.0077175437472760677
v 0.0060271527618169785 0.005228760652244091 -0.012442843057215214
v 0.0062747858464717865 0.0058476934209465981 -0.0092975478619337082
v 0.0074094496667385101 0.0024770910385996103 -0.012453568167984486
v 0.0055494788102805614 0.0041174949146807194 -0.016596384346485138
v 0.0054109655320644379 0.0036065529566258192 -0.017885481938719749
v 0.0021435923408716917 -0.0033699085470288992 -0.015170625410974026
v 0.0078391814604401588 0.0012758020311594009 -0.0093847066164016724
v 0.0075274449773132801 0.0013207080774009228 -0.012932965531945229
v 0.0074320705607533455 0.0011182547314092517 -0.014155338518321514
v 0.007706313394010067 0.0013461622875183821 -0.011094484478235245
v 0.0072229821234941483 0.00080334325321018696 -0.016199510544538498
v 0.007005919236689806 0.00075234158430248499 -0.017488107085227966
v 0.0066477903164923191 0.00062762480229139328 -0.019042059779167175
v 0.0063383057713508606 1.2381589840515517e-05 -0.02045963890850544
v 0.0054082418791949749 -0.0010603986447677016 -0.022731645032763481
v 0.0059085800312459469 -0.00046565409866161644 -0.021691460162401199
v 0.0048557943664491177 -0.0019764723256230354 -0.023563753813505173
v 0.0069371163845062256 0.0053276252001523972 -0.0060134376399219036
v 0.0077177062630653381 0.0023749044630676508 -0.0075795766897499561
v -0.00065861601615324616 -0.0033640384208410978 -0.016037832945585251
v -0.0067377169616520405 0.0053040198981761932 -0.0060277148149907589
v 0.0034072985872626305 -0.0033722002990543842 -0.014849849045276642
v -0.0045549287460744381 -0.0033684051595628262 -0.01476682536303997
v -0.0045602736063301563 -0.003374843392521143 -0.013493492268025875
v -0.006637287326157093 -0.0015228948323056102 -0.019275477156043053
v 0.0024096725974231958 -0.0033949124626815319 -0.010255498811602592
v 0.0040178312920033932 -0.0033899904228746891 -0.011396793648600578
v 0.0034833764657378197 0.0083503350615501404 -0.0082338219508528709
v 0.0042240680195391178 0.0065191453322768211 -0.013424709439277649
v 0.00097213994013145566 -0.001297260052524507 -0.025012046098709106
v -0.0068293125368654728 -0.0016085510142147541 -0.017442513257265091
v 0.0041298558935523033 -0.0033564143814146519 -0.018011808395385742
v 0.0066413627937436104 0.0046457089483737946 -0.011645138263702393
v -0.0054892529733479023 -0.0026304596103727818 -0.022451713681221008
v -0.0051035434007644653 0.007393871434032917 -0.0064746299758553505
v -0.00038873319863341749 -0.0015312586911022663 -0.02512359619140625
v 0.0036758915521204472 0.0079518193379044533 -0.0095790540799498558
v 0.0013750556390732527 0.0086695179343223572 -0.0099195884540677071
v 0.00041651562787592411 0.0085320062935352325 -0.011052016168832779
v 0.00015557483129668981 0.0089449258521199226 -0.0095020011067390442
v 0.0011534345103427768 0.0090265851467847824 -0.0087438123300671577
v 0.0011637695133686066 0.0072501124814152718 -0.014902845025062561
v 0.0034473051782697439 0.0069536436349153519 -0.013522733002901077
v 0.0032397003378719091 0.0065393070690333843 -0.01495677512139082
v 9.4860690296627581e-05 0.0076534771360456944 -0.014065109193325043
v 0.001260960940271616 0.0077053247950971127 -0.013482628390192986
v 0.0010104269022122025 0.0061489949002861977 -0.017671471461653709
v 0.0010825870558619499 0.0067304167896509171 -0.016312165185809135
v 0.0029751304537057877 0.0054962891153991222 -0.017684943974018097
v 0.00094388064462691545 0.0055113551206886768 -0.018941352143883705
v 0.00091392669128254056 0.0048340819776058197 -0.020078357309103012
v 0.0028142207302153111 0.0048899124376475811 -0.018952943384647369
v 0.0011157512199133635 0.0040999497286975384 -0.021039703860878944
v 0.0026031141169369221 0.0042194756679236889 -0.020165609195828438
v 0.0027806886937469244 0.0034462809562683105 -0.021122600883245468
v 0.00084040546789765358 0.0015924680046737194 -0.02362903393805027
v -0.00014933047350496054 0.0010781832970678806 -0.024016987532377243
v -0.00019978274940513074 0.0020748386159539223 -0.023289769887924194
v 0.00077164953108876944 0.00067332235630601645 -0.024223905056715012
v 2.4161980036296882e-05 -0.00017486534488853067 -0.024650014936923981
v -0.00082478940021246672 -0.0033503423910588026 -0.018727978691458702
v 0.0013791084056720138 -0.00013144970580469817 -0.024519801139831543
v 0.0071809901855885983 -2.0003287772851763e-06 -0.016808643937110901
v 0.00075799378100782633 0.0026419407222419977 -0.022796636447310448
v 0.00040352929499931633 0.0035895139444619417 -0.021837653592228889
v 0.002833180595189333 -0.0019003597553819418 -0.024905556812882423
v 0.002088009612634778 0.0019547720439732075 -0.023021256551146507
v 0.0031085847876966 0.0060483822599053383 -0.016340391710400581
v -4.71319435746409e-05 0.0059493924491107464 -0.018214594572782516
v -6.7488501372281462e-05 0.0052577350288629532 -0.019460657611489296
v -1.6814326954772696e-05 0.0065735676325857639 -0.016885250806808472
v 0.0013942939694970846 0.0080816028639674187 -0.012102399952709675
v 2.656399374245666e-05 0.0071395537815988064 -0.01549139991402626
v 0.00020782017963938415 0.0081095509231090546 -0.012620054185390472
v 0.00010611705511109903 0.0093139978125691414 -0.007899153046309948
v 0.003455279627814889 0.007701200433075428 -0.010968917980790138
v 0.0033722990192472935 0.0073933438397943974 -0.0121898353099823
v -8.165605686372146e-05 0.0044431090354919434 -0.020712295547127724
v 0.0017285012872889638 0.00086744508007541299 -0.02394292876124382
v 0.0017261237371712923 -0.0033518059644848108 -0.01870560459792614
v 0.0014834660105407238 -0.0033454413060098886 -0.019947418943047523
v 0.00059395632706582546 -0.003361949697136879 -0.016581803560256958
v 0.0020499632228165865 -0.0033637706656008959 -0.016374217346310616
v -0.0020684672053903341 0.0057484996505081654 -0.017817083746194839
v -0.0029596548993140459 0.0051333652809262276 -0.018210209906101227
v -0.0021159830503165722 0.0063384119421243668 -0.016470171511173248
v -0.002164564561098814 0.0084197903051972389 -0.0098578231409192085
v -0.0020316292066127062 0.0078309560194611549 -0.012179501354694366
v -0.0030432925559580326 0.0078079751692712307 -0.01096933800727129
v -0.0021219206973910332 0.0073797260411083698 -0.013613287359476089
v -0.0030545978806912899 0.0057289814576506615 -0.016899777576327324
v -0.0021405559964478016 0.0068811099044978619 -0.015059086494147778
v -0.0017571878852322698 0.0037923036143183708 -0.021184686571359634
v -0.0024878978729248047 0.0030836756341159344 -0.021612277254462242
v -0.0027034683153033257 0.0038207373581826687 -0.020545871928334236
v -0.002008848125115037 0.0051122331060469151 -0.019067415967583656
v -0.0019326595356687903 0.0044497405178844929 -0.020177982747554779
v -0.0028514803852885962 0.0044954395852982998 -0.019424455240368843
v -0.0011656515998765826 0.0015767569420859218 -0.023540709167718887
v -0.0011697504669427872 0.00049313163617625833 -0.024238225072622299
v -0.0012833990622311831 -0.00068942439975216985 -0.024733353406190872
v -0.00038835770101286471 0.0029391550924628973 -0.022462768480181694
v -0.0010748541681095958 0.0023856426123529673 -0.022875403985381126
v -0.0026071611791849136 -0.0033438513055443764 -0.020091447979211807
v -0.0021847793832421303 0.0010011682752519846 -0.023602209985256195
v 0.0015286534326151013 -0.0033428941387683153 -0.020917756482958794
v -0.0021488410420715809 0.0021661422215402126 -0.022722234949469566
v -0.0014479419915005565 0.0030636501032859087 -0.022133737802505493
v -0.0031319856643676758 0.0062801404856145382 -0.015511590987443924
v -0.0031779222190380096 0.0067971567623317242 -0.014070142991840839
v -0.0031654858030378819 0.0072907875292003155 -0.012584305368363857
v -0.0024976294953376055 0.0086650745943188667 -0.0084624914452433586
v -0.0033722077496349812 0.0080524459481239319 -0.0093856416642665863
v -0.0036530520301312208 0.0081798583269119263 -0.0080573121085762978
v 0.0032524284906685352 -0.0033798220101743937 -0.013326888903975487
v 0.0022855638526380062 -0.0033887058962136507 -0.011469474993646145
v 0.0042996634729206562 -0.0033838530071079731 -0.012639659456908703
v -0.0018795027863234282 -0.0033870281185954809 -0.011365296319127083
v -0.0046175303868949413 0.0076245889067649841 -0.0074656573124229908
v -0.0062798685394227505 0.0061603556387126446 -0.0063767251558601856
v -0.0061495364643633366 0.0061147171072661877 -0.0077892565168440342
v -0.0057619460858404636 0.0069311070255935192 -0.006091143935918808
v -0.0050935493782162666 0.0065030236728489399 -0.010569079779088497
v -0.0059597599320113659 0.0055428952910006046 -0.010959835723042488
v -0.0059045357629656792 0.0060306945815682411 -0.0093389991670846939
v -0.0053276303224265575 0.0068930494599044323 -0.0083260517567396164
v -0.0050212969072163105 0.005687088705599308 -0.01352356281131506
v -0.005736012477427721 0.0047972402535378933 -0.014019095338881016
v -0.004903565626591444 0.0052491030655801296 -0.014982598833739758
v -0.0055813458748161793 0.004397708922624588 -0.015448744408786297
v -0.0047664172016084194 0.0047776107676327229 -0.016382917761802673
v -0.0044783768244087696 0.0037083851639181376 -0.018907763063907623
v -0.0046177059412002563 0.0042666755616664886 -0.017700957134366035
v -0.0044221021234989166 0.0029730452224612236 -0.020056407898664474
v -0.004075994249433279 0.0024358369410037994 -0.021124992519617081
v -0.0032242119777947664 0.0013656419469043612 -0.022844923660159111
v -0.0041128029115498066 0.0005308981635607779 -0.022848485037684441
v 0.0069114663638174534 0.0047335755079984665 -0.0097333034500479698
v -0.0022023115307092667 -7.4075840529985726e-05 -0.02424270287156105
v -0.0023685642518103123 -0.0011061659315600991 -0.024663195013999939
v -0.003045202698558569 -0.00055758585222065449 -0.024199202656745911
v -0.0031399037688970566 0.00032803646172396839 -0.023640727624297142
v -0.0016009622486308217 -0.0018113302066922188 -0.025067586451768875
v -0.00095247983699664474 -0.0033902989234775305 -0.010815685614943504
v -0.0052287410944700241 0.0034872230608016253 -0.018068334087729454
v -0.004271241370588541 0.0015525822527706623 -0.021859381347894669
v -0.003295880276709795 0.0023182989098131657 -0.021891731768846512
v -0.0054167509078979492 0.0039536762051284313 -0.016811814159154892
v -0.0050921156071126461 0.0061033042147755623 -0.012029523961246014
v -0.0058862287551164627 0.0051512946374714375 -0.012514836154878139
v -0.0050306115299463272 0.0030636673327535391 -0.019065355882048607
v -0.0048059946857392788 0.0020537606906145811 -0.020697826519608498
v 0.0054008630104362965 -0.0028061515185981989 -0.022835982963442802
v 0.00079078896669670939 -0.0033908509649336338 -0.01088901050388813
v -0.00090203230502083898 -0.0027099049184471369 -0.025421552360057831
v -0.0015170905971899629 -0.0038388674147427082 -0.025513669475913048
v -0.0027136544231325388 -0.0038412676658481359 -0.025044955313205719
v -0.0036389718297868967 -0.0033856162335723639 -0.011460271663963795
v 0.0034470276441425085 -0.0033640016335994005 -0.016474731266498566
v 0.0047245300374925137 -0.0033742522355169058 -0.014577276073396206
v -0.005017357412725687 -0.003355454420670867 -0.01749739795923233
v -0.002108854241669178 -0.0028229549061506987 -0.025246243923902512
v 0.0036920406855642796 -0.0033954249229282141 -0.010288429446518421
v -0.0071368329226970673 0.004214397631585598 -0.007574138231575489
v -0.0071560596115887165 0.0036758054047822952 -0.010065555572509766
v -0.0072309547103941441 0.0029686030466109514 -0.011200754903256893
v -0.0074893347918987274 0.0029247251804918051 -0.0090529285371303558
v -0.0069068963639438152 0.0034585674293339252 -0.012393089942634106
v -0.0071747791953384876 0.0025385115295648575 -0.012667145580053329
v -0.0068029901012778282 0.0032261372543871403 -0.013609207235276699
v -0.0066662952303886414 0.0029265657067298889 -0.014960424043238163
v -0.0065137031488120556 0.0025613496545702219 -0.01628534309566021
v -0.0063787368126213551 0.001988907577469945 -0.017664818093180656
v -0.005950036458671093 0.0017624691827222705 -0.01915985532104969
v -0.0052138972096145153 0.0011740465415641665 -0.021100444719195366
v -0.005460160318762064 0.0016406502109020948 -0.020170463249087334
v -0.0051538324914872646 -0.0033452368807047606 -0.019762631505727768
v -0.005022974219173193 -0.0004220156988594681 -0.022653872147202492
v -0.0048855994828045368 0.000642720318865031 -0.022038010880351067
v 0.0011189990909770131 -0.003378954017534852 -0.013275220058858395
v -0.0039606355130672455 -0.00048560611321590841 -0.02366410568356514
v 0.0011483717244118452 -0.0033860502298921347 -0.01187549252063036
v 0.0047002644278109074 0.0072673838585615158 -0.0094844736158847809
v -0.0056108999997377396 0.00018209568224847317 -0.021434124559164047
v -0.0070504602044820786 0.0022559750359505415 -0.01404289249330759
v -0.00757563766092062 0.0031344471499323845 -0.0077315056696534157
v -0.0069052060134708881 0.0019926936365664005 -0.015367702580988407
v -0.0067618885077536106 0.0017437461065128446 -0.016483580693602562
v -0.0065049831755459309 0.00088155537378042936 -0.018582744523882866
v -0.0060321320779621601 0.00075357221066951752 -0.020127076655626297
v -0.0076716560870409012 0.0026724240742623806 -0.0077337305992841721
v -0.0075876885093748569 0.0031515799928456545 -0.007566449698060751
v -0.0038441326469182968 -0.0033924230374395847 -0.01009318046271801
v -0.0071122129447758198 0.0047922087833285332 -0.0066653243266046047
v -0.0010781976161524653 -0.0033967250492423773 -0.0095321685075759888
v -0.0073696649633347988 0.0031438739970326424 -0.0073136463761329651
v 0.0017804935341700912 -0.0034009970258921385 -0.0089868521317839622
v -0.004514738917350769 0.0050724390894174576 -0.0061146249063313007
v -0.0058880583383142948 0.0050156312063336372 -0.0061478973366320133
v -0.0049818293191492558 0.0041509047150611877 -0.0067630037665367126
v 0.0033699909690767527 -0.003346162149682641 -0.020095249637961388
v -0.0034369328059256077 0.0041816909797489643 -0.0067584775388240814
v -0.004076625220477581 0.0031421305611729622 -0.0073135881684720516
v -0.0057872086763381958 0.0031724444124847651 -0.0072980532422661781
v -0.006197640672326088 0.0042393705807626247 -0.0068075419403612614
v 0.0016616849461570382 0.0090300170704722404 -0.0074433889240026474
v 0.00035307541838847101 -0.0033998887520283461 -0.0090565523132681847
v 0.00073101010639220476 0.0083191711455583572 -0.0075783333741128445
v -0.0035333244595676661 0.0067889862693846226 -0.0066567533649504185
v -0.0041827969253063202 0.0080583076924085617 -0.0062932036817073822
v -0.005257423035800457 0.0073168440721929073 -0.0054176081903278828
v -0.0029028172139078379 0.0086470991373062134 -0.0069887666031718254
v -0.0010541483061388135 0.0070223785005509853 -0.0074993036687374115
v 0.00054972805082798004 0.0071861655451357365 -0.0075801261700689793
v -0.0035410777200013399 0.0055291811004281044 -0.0066593550145626068
v -0.0014497668016701937 0.0090316645801067352 -0.0074434438720345497
v -0.0023403365630656481 0.0068967980332672596 -0.0071999379433691502
v -0.0025098975747823715 0.0048480862751603127 -0.0071633919142186642
v -0.00050018378533422947 0.0081276129931211472 -0.0075555187650024891
v -0.0033200178295373917 -0.0033783831167966127 -0.012923524715006351
v 0.00031278948881663382 0.0048448913730680943 -0.0076489807106554508
v 0.0015748250298202038 0.0050916527397930622 -0.0074797230772674084
v 0.0027166248764842749 0.0048452252522110939 -0.0071635735221207142
v 0.002054635901004076 0.0068848598748445511 -0.0073315300978720188
v 0.0031143112573772669 0.0086439130827784538 -0.0069886608980596066
v 0.0034926882945001125 0.0067719081416726112 -0.00678590452298522
v 0.0043936423026025295 0.0080537674948573112 -0.0062930523417890072
v 0.0046651256270706654 0.0067426343448460102 -0.0060586240142583847
v 0.0045940307900309563 0.00487901596352458 -0.0062479726038873196
v 0.0036431443877518177 0.0041775070130825043 -0.0067586530931293964
v 0.0035524829290807247 0.0054006120190024376 -0.0067681204527616501
v -0.0028095589950680733 -0.0033651110716164112 -0.015600688755512238
v 0.0071374671533703804 0.0045878356322646141 -0.0064795282669365406
v 0.005066263023763895 0.0039573730900883675 -0.0068891295231878757
v 0.0056095547042787075 0.0029643706511706114 -0.0073695513419806957
v 0.0075753415003418922 0.0031359614804387093 -0.0073133828118443489
v -0.002453080378472805 -0.003395037492737174 -0.0097219124436378479
v 0.004281376488506794 0.0031377037521451712 -0.0073134396225214005
v 0.0067367651499807835 0.0060674147680401802 -0.0055473470129072666
v -0.0015813023783266544 -0.0033669015392661095 -0.015375258401036263
v -0.0030056766699999571 -0.0033715048339217901 -0.014316159300506115
v 0.0063078105449676514 0.0063862917013466358 -0.0067219813354313374
v 0.005211253184825182 -0.003359862370416522 -0.017692249268293381
v -0.0012930082157254219 -0.0033724671229720116 -0.014305222779512405
v -6.9109715695958585e-05 -0.0033745313994586468 -0.014025208540260792
v -0.0020316704176366329 -0.0033813971094787121 -0.01246254239231348
v 0.0057210158556699753 0.0072981975972652435 -0.0055741327814757824
v 2.3050391973811202e-05 -0.0033817572984844446 -0.012606386095285416
v 0.005093130748718977 0.0073856450617313385 -0.0078632067888975143
v 0.0042363386601209641 0.0067738806828856468 -0.01261042058467865
v 0.0044503873214125633 0.0072251311503350735 -0.010555475018918514
v 0.0041813538409769535 0.0062569626607000828 -0.014268494211137295
v 0.0040869577787816525 0.0058220694772899151 -0.015588537789881229
v 0.0039591598324477673 0.0053132367320358753 -0.0169412512332201
v 0.0036047119647264481 0.0041740741580724716 -0.019455958157777786
v 0.003800481790676713 0.0047562322579324245 -0.018249182030558586
v 0.0034272486809641123 0.0036528827622532845 -0.020382028073072433
v -0.0011808301787823439 -0.0057877236977219582 -0.025398658588528633
v 0.0028449862729758024 0.00080463720951229334 -0.023561015725135803
v 0.0034666568972170353 0.0015220440691336989 -0.022636914625763893
v 0.0023455214686691761 7.2642869781702757e-05 -0.024213017895817757
v 0.0032713275868445635 -0.0027002750430256128 -0.0077597317285835743
v 0.0030365521088242531 0.0025801786687225103 -0.021971980109810829
v 0.0045002512633800507 0.007689907681196928 -0.008559507317841053
v 0.00042779932846315205 -0.0025547116529196501 -0.025416644290089607
v -0.00021908828057348728 -0.003723611356690526 -0.025669638067483902
v -0.0067943185567855835 0.00099591468460857868 -0.017163392156362534
v 0.0064780241809785366 0.0023734606802463531 -0.017230881378054619
v -0.00082460930570960045 -0.0048388363793492317 -0.025664757937192917
v 0.0075769773684442043 0.0017025949200615287 -0.011897170916199684
v 0.0011037308722734451 0.0059771067462861538 -0.0075387228280305862
v 0.001461914973333478 -0.0046962853521108627 -0.025563148781657219
v 0.0011114024091511965 -0.0036732968874275684 -0.025618892163038254
v -0.0022326058242470026 -0.0033483060542494059 -0.018983161076903343
v 0.0021659720223397017 -0.0053667202591896057 -0.02518765814602375
v 0.002427669707685709 -0.0033474115189164877 -0.019647687673568726
v 0.0044946218840777874 -0.0033484834711998701 -0.019613644108176231
v 0.0076317558996379375 0.0025868173688650131 -0.010127675719559193
v 0.0035193965304642916 -0.0059565077535808086 -0.022888608276844025
v 0.0026182110887020826 -0.0064893919043242931 -0.023029621690511703
v 0.0022829268127679825 -0.0064542777836322784 -0.023901773616671562
v 0.00130303087644279 -0.0068643284030258656 -0.023346522822976112
v -0.0061779296956956387 -0.0014676770661026239 -0.0077539128251373768
v 0.0015199535991996527 -0.00645784055814147 -0.024701531976461411
v 0.00025926780654117465 -0.006857795175164938 -0.024242453277111053
v 0.0045656682923436165 -0.00336260418407619 -0.01693425327539444
v -0.0023117063101381063 -0.006475809495896101 -0.023411586880683899
v -0.0033111476805061102 -0.0058405878953635693 -0.023124029859900475
v 0.0037684044800698757 0.0029204359743744135 -0.020961904898285866
v -0.0010214757639914751 -0.0068657440133392811 -0.023822242394089699
v -0.00061533041298389435 -0.0064740879461169243 -0.024916121736168861
v -0.001835787552408874 -0.0062660328112542629 -0.024635851383209229
v -0.0046167713589966297 0.0013456983724609017 -0.0077397399581968784
v 0.005630001425743103 -0.0032859265338629484 -0.019880648702383041
v -0.0059495014138519764 -0.0033980980515480042 -0.0088034840300679207
v -0.0040139416232705116 -0.0033533952664583921 -0.017791680991649628
v -0.0046524102799594402 -0.0050935866311192513 -0.022109003737568855
v 0.0041428622789680958 0.0071332785300910473 -0.011587087996304035
v -0.0046283239498734474 -0.0035642543807625771 -0.023488083854317665
v -0.003767223097383976 -0.0037625660188496113 -0.024335784837603569
v -0.0032615417148917913 -0.0047186277806758881 -0.024583360180258751
v -0.0041221100836992264 -0.00491370540112257 -0.02344956248998642
v -0.0037755235098302364 -0.0033459356054663658 -0.01931953988969326
v -0.0064836530946195126 -0.0032544934656471014 -0.013531763106584549
v -0.0065978360362350941 -0.0032608420588076115 -0.012027009390294552
v 0.0014731622068211436 0.0041096978820860386 -0.0077259121462702751
v -0.0064217937178909779 -0.0032482862006872892 -0.015039486810564995
v -0.00067839969415217638 0.0030245902016758919 -0.0077318986877799034
v -0.0063511626794934273 -0.0032339117024093866 -0.016369005665183067
v 0.0044974032789468765 0.0012639595661312342 -0.007724445778876543
v 0.0043809632770717144 -2.2238758901949041e-05 -0.0077466517686843872
v -0.0067395605146884918 -0.0032630439382046461 -0.010524570941925049
v -0.0040641766972839832 -0.003404092276468873 -0.0077633112668991089
v -0.00057267316151410341 -0.00119088648352772 -0.0077524501830339432
v -0.0061763916164636612 -0.0033455141820013523 -0.019543753936886787
v -0.0068809026852250099 -0.0015411023050546646 -0.016319377347826958
v -0.0036884935107082129 0.00041599513497203588 -0.0077446778304874897
v -0.0062581375241279602 -0.0033528127241879702 -0.018037963658571243
v 0.0073460554704070091 0.00072231510421261191 -0.015115660615265369
v -0.0037950698751956224 -0.0013396869180724025 -0.0077532399445772171
v -0.0023203783202916384 -0.0011527698952704668 -0.0077522993087768555
v -0.0023989395704120398 -0.0034049740061163902 -0.0077632819302380085
v -0.0025013405829668045 -1.4051587641006336e-05 -0.0077467509545385838
v -0.0068169375881552696 -0.0032910073641687632 -0.0093937031924724579
v -0.0033747712150216103 0.0015855020610615611 -0.0077389692887663841
v -0.0043515022844076157 0.0071091153658926487 -0.0061119883321225643
v -0.0069914576597511768 -0.0032729390077292919 -0.0079823881387710571
v -0.0071898601017892361 -0.002424691803753376 -0.008892575278878212
v -0.00036066948086954653 0.0060204113833606243 -0.0075868419371545315
v -0.0075485524721443653 -0.00028022922924719751 -0.0097205182537436485
v 0.0055145840160548687 -0.00065846851794049144 -0.007749730721116066
v 0.0038035342004150152 -0.0020006366539746523 -0.0077563095837831497
v -0.0068662711419165134 -0.002356197452172637 -0.012828873470425606
v -0.0069756456650793552 -0.0023533757776021957 -0.011444577015936375
v -0.0071210917085409164 -0.0022227780427783728 -0.010108854621648788
v -0.0073722442612051964 -0.00051405892008915544 -0.011268367990851402
v -0.0067245922982692719 -0.0023873164318501949 -0.015675138682126999
v -0.006701336707919836 -0.0024167050141841173 -0.017064943909645081
v -0.0067783216945827007 -0.0023632484953850508 -0.014267751947045326
v -0.0066662142053246498 -0.0022620258387178183 -0.018494265154004097
v -0.0052025695331394672 -0.0032624115701764822 -0.022762654349207878
v -0.0059114112518727779 -0.0022360305301845074 -0.021658312529325485
v -0.0049774493090808392 -0.0025517684407532215 -0.023214347660541534
v 0.0017496759537607431 0.0032129613682627678 -0.02189129963517189
v -0.0041855643503367901 -0.0026207745540887117 -0.024068167433142662
v -0.0031991174910217524 -0.0027681910432875156 -0.024800337851047516
v 0.0021864916197955608 -0.0054190913215279579 -0.021763265132904053
v -0.0063822241500020027 -0.0015606589149683714 -0.020470717921853065
v -0.0060694585554301739 -0.0031120148487389088 -0.020627446472644806
v -0.0072657992132008076 -0.00048180489102378488 -0.012853857129812241
v -0.0071629760786890984 -0.00053964904509484768 -0.014306621626019478
v -0.0070650111883878708 -0.00063348381081596017 -0.015699932351708412
v -0.0069609219208359718 -0.00077504070941358805 -0.017015913501381874
v -0.0068149995058774948 -0.0010843266500160098 -0.018255984410643578
v -0.0075441389344632626 0.00075500726234167814 -0.010711262933909893
v -0.0077938302420079708 0.0011504063149914145 -0.0079597029834985733
v -0.0074127945117652416 0.00057286117225885391 -0.012207053601741791
v -0.0072924294508993626 0.00044299595174379647 -0.013679070398211479
v -0.0071731419302523136 0.00031236777431331575 -0.015090825967490673
v -0.0068787802010774612 -9.5833165687508881e-06 -0.017833275720477104
v -0.0070423795841634274 0.00017759478942025453 -0.016457667574286461
v -0.006616503931581974 -0.00038424643571488559 -0.019358735531568527
v -0.0058820438571274281 -0.00098317477386444807 -0.021661704406142235
v -0.0046173282898962498 -0.0015253974124789238 -0.023572370409965515
v -0.0054101217538118362 -0.0017054484924301505 -0.02260855957865715
v -0.0034824088215827942 -0.0015510426601395011 -0.024412160739302635
v -0.0061583076603710651 -0.00037211284507066011 -0.02064632810652256
v -0.0075344778597354889 -0.00013088814739603549 -0.0077474219724535942
v 0.0052315583452582359 -0.0020816456526517868 -0.0077566755935549736
v 0.0042620096355676651 -0.0034085006918758154 -0.0077631645835936069
v 0.002596772275865078 -0.0034076189622282982 -0.0077631939202547073
v -0.0067296805791556835 0.0053115552291274071 -0.0071465331129729748
v -0.0065972134470939636 0.0020191350486129522 -0.0076499283313751221
v -0.0056590340100228786 0.0012532854452729225 -0.0077405683696269989
v -0.0034285630099475384 0.0039940616115927696 -0.0077272271737456322
v -0.0025150622241199017 0.0048041823320090771 -0.0077232588082551956
v -0.0013295614626258612 0.0050943600945174694 -0.0077218115329742432
v 0.0024191958364099264 -0.0019702173303812742 -0.007756188977509737
v 0.0010234614601358771 0.00017146639584098011 -0.0077457749284803867
v -0.00030624200007878244 0.0001807386870495975 -0.0077457567676901817
v 0.0077257691882550716 0.0018557393923401833 -0.01017285231500864
v 0.0063361888751387596 0.0018915621330961585 -0.0076749497093260288
v 0.0054742605425417423 0.001241441466845572 -0.0077299359254539013
v 0.0049090981483459473 0.0021463446319103241 -0.0076333470642566681
v 0.0075543108396232128 0.0011462513357400894 -0.0077330125495791435
v 0.0077367015182971954 -0.00013897359895054251 -0.0077471532858908176
v 0.0022082147188484669 0.00028442312031984329 -0.0077452007681131363
v 0.006804244127124548 -0.00075414823368191719 -0.019425997510552406
v 0.0070405532605946064 -0.00033799960510805249 -0.017971647903323174
v 0.0077860592864453793 0.00010522841330384836 -0.0096816197037696838
v 0.0076622185297310352 0.00020099725225009024 -0.011181146837770939
v 0.007537035271525383 0.00015632050053682178 -0.012756043113768101
v 0.0074208672158420086 5.5324548156931996e-05 -0.014243569225072861
v 0.0073054982349276543 -0.00010760866280179471 -0.015679163858294487
v 0.0064509646035730839 -0.0011841042432934046 -0.020796880125999451
v 0.0055842655710875988 -0.0019481957424432039 -0.02269185334444046
v 0.0060049495659768581 -0.0015427444595843554 -0.021922718733549118
v 0.0034639069344848394 0.0077673140913248062 -0.0068140770308673382
v 0.0064146732911467552 -0.0024280294310301542 -0.0077577773481607437
v -0.0021355520002543926 -0.0050655975937843323 -0.025181228294968605
v 0.00078198825940489769 0.0018254772294312716 -0.0077377152629196644
v 0.0025176075287163258 -0.0039418344385921955 -0.025260461494326591
v 0.0046691503375768661 -0.0032461509108543396 -0.023726072162389755
v 0.0048498860560357571 -0.0050986176356673241 -0.022108836099505424
v 0.0041696862317621708 -0.0052095227874815464 -0.023220956325531006
v 0.0033991108648478985 -0.0050119422376155853 -0.024513678625226021
v 0.0038052962627261877 -0.0036536550614982843 -0.024559454992413521
v -0.0019827475771307945 -0.0034003856126219034 -0.0087138870730996132
v 0.00040382790029980242 -0.0062707397155463696 -0.02503904327750206
v 0.0042748842388391495 -0.005608478095382452 -0.02226724661886692
v 0.0031281034462153912 -0.006124966312199831 -0.022121069952845573
v -0.00289314822293818 -0.0062468387186527252 -0.022217873483896255
v -0.0040779421105980873 -0.005604056641459465 -0.02226739376783371
v 0.0018619298934936523 -0.0065953959710896015 -0.022122515365481377
v 0.0004091137379873544 -0.0068511157296597958 -0.022160081192851067
v -7.326955528696999e-05 -0.0069615389220416546 -0.02317073754966259
v -0.001296006259508431 -0.0068391407839953899 -0.022283611819148064
v -0.0029800464399158955 -0.0057165562175214291 -0.0241993498057127
v 0.0059852772392332554 -0.003185514360666275 -0.021795045584440231
v 0.0024529837537556887 0.0013396921567618847 -0.0077400505542755127
v 0.0013696447713300586 0.0028258063830435276 -0.0077328262850642204
v 0.0065651577897369862 -0.0032128256279975176 -0.019563550129532814
v 0.0065497639589011669 -0.0032273328397423029 -0.016324009746313095
v -0.00059448648244142532 0.0016761386068537831 -0.0077384714968502522
v -0.0021012395154684782 0.0016647787997499108 -0.0077385571785271168
v 0.0024793117772787809 0.0023636368568986654 -0.0077350572682917118
v -0.0018539022421464324 0.0037415933329612017 -0.0077284248545765877
v 0.0068452032282948494 -0.0031504598446190357 -0.01202820148319006
v 0.0069385725073516369 -0.0032702824100852013 -0.010524269193410873
v 0.0009356809314340353 -0.0016015020664781332 -0.0077544213272631168
v 0.0066311326809227467 -0.0031274729408323765 -0.014867629855871201
v 0.00093153503257781267 -0.003406737232580781 -0.0077632232569158077
v -0.00046211155131459236 -0.0033461907878518105 -0.01979917474091053
v 0.0067178122699260712 -0.0031214393675327301 -0.013460109941661358
v 0.0024382239207625389 0.0058296611532568932 -0.0072427648119628429
v -0.00073370221070945263 -0.0034058555029332638 -0.0077632525935769081
v -0.0051822606474161148 -0.0011908349115401506 -0.0077525423839688301
v 0.0074872579425573349 0.00065857061417773366 -0.013515686616301537
v 0.0064573120325803757 -0.0033595450222492218 -0.018037727102637291
v 0.0070615322329103947 -0.0032715157140046358 -0.009292900562286377
v 0.0045342505909502506 -0.0034006701316684484 -0.0093550421297550201
v -0.0065088602714240551 0.00064033019589260221 -0.0077440985478460789
v 0.0071902074851095676 -0.0032807698007673025 -0.0079824421554803848
v 0.0070020183920860291 -0.0015497860731557012 -0.018311329185962677
v -0.0056298505514860153 0.0026287815999239683 -0.018487293273210526
v 0.005919366143643856 -0.0023576808162033558 -0.022131815552711487
v 0.0067089591175317764 -0.0021196675952523947 -0.019820965826511383
v 0.0063247247599065304 -0.0022753411903977394 -0.021227294579148293
v 0.0041163787245750427 -0.0026178688276559114 -0.024323731660842896
v 0.0032035750336945057 -0.0026749894022941589 -0.024899892508983612
v 0.0071738217957317829 -0.0011021930258721113 -0.016689427196979523
v 0.0072644916363060474 -0.0010929597774520516 -0.015009273774921894
v 0.0073598455637693405 -0.0010297171538695693 -0.013493034057319164
v 0.0074637290090322495 -0.0010031850542873144 -0.011993973515927792
v 0.0075735589489340782 -0.0010339888976886868 -0.010512415319681168
v 0.007696361280977726 -0.0011018181685358286 -0.0090231411159038544
v -0.0051656696014106274 0.00018806637672241777 -0.0077458187006413937
v -0.0051862578839063644 -0.0042389426380395889 -0.021963048726320267
v 0.0074453125707805157 -0.0018030155915766954 -0.0077552725560963154
v 0.0053846351802349091 -0.0042445342987775803 -0.021962860599160194
v -0.004656854085624218 -0.0033412494231015444 -0.020631404593586922
v -0.0054334187880158424 -0.0033659599721431732 -0.01556093618273735
v -0.0054684667848050594 -0.0033594272099435329 -0.016742805019021034
v -0.00081239908467978239 -0.0033431991469115019 -0.020561045035719872
v -0.0055556925944983959 -0.0033789253793656826 -0.012807956896722317
v -0.0055074691772460938 -0.0033725507091730833 -0.014199536293745041
v -0.0055961403995752335 -0.0033857615198940039 -0.011427359655499458
v -0.0054736025631427765 -0.003392484737560153 -0.010016040876507759
v -0.0057294140569865704 -0.0034031996037811041 -0.0077633406035602093
v 0.0028036856092512608 0.0076017011888325214 -0.0070914337411522865
v -0.005068690050393343 -0.0033503628801554441 -0.018660683184862137
v -0.0035516268108040094 -0.0033409921452403069 -0.02056160569190979
v -0.0017826048424467444 -0.0033415455836802721 -0.020834743976593018
v 0.00033991353120654821 -0.0033434729557484388 -0.020575309172272682
v 0.0024392411578446627 -0.0033446745947003365 -0.020557818934321404
v 0.0043942322954535484 -0.0033437332604080439 -0.020827004685997963
v 0.0054050246253609657 -0.0032758354209363461 -0.020757801830768585
v 0.005620904266834259 -0.0033730180002748966 -0.015394169837236404
v 0.0057173124514520168 -0.0033800238743424416 -0.014084660448133945
v 0.0058386870659887791 -0.0033932551741600037 -0.011214124970138073
v 0.0056193927302956581 -0.0033868157770484686 -0.012665124610066414
v 0.0058377222158014774 -0.0033993332181125879 -0.0097636664286255836
v 0.0059272469952702522 -0.0034093714784830809 -0.0077631352469325066
v 0.0054938667453825474 -0.0033650957047939301 -0.0166973527520895
v 0.0054135303944349289 -0.0033291822765022516 -0.01879742369055748
v -0.0072448616847395897 -0.0017952455673366785 -0.0077555314637720585
v -0.0044036181643605232 0.0025690568145364523 -0.0077341939322650433
v 0.003634230000898242 0.0039903209544718266 -0.0077271023765206337
v 0.002721905242651701 0.004801102913916111 -0.0077231666073203087
v 0.0046077864244580269 0.0025642684195190668 -0.0077340360730886459
v -0.0059957513585686684 -0.0022461193148046732 -0.0077582807280123234
v -0.0041281133890151978 0.0064796358346939087 -0.01303561870008707
v 0.0021566986106336117 0.0066408752463757992 -0.015636052936315536
v -0.004140086006373167 0.0069266017526388168 -0.01154239010065794
v 0.0022724338341504335 0.0071130762808024883 -0.014226405881345272
v 0.0023630941286683083 0.0075311316177248955 -0.012842899188399315
v -0.0041862074285745621 0.0072808279655873775 -0.010106389410793781
v 0.0073088961653411388 -0.0021925813052803278 -0.0099033387377858162
v -0.00097389001166447997 0.0077488366514444351 -0.01312241330742836
v 0.0024453455116599798 0.0078792590647935867 -0.011558184400200844
v -0.0010401336476206779 0.0072671961970627308 -0.014555530622601509
v -0.00087068876018747687 0.0081802746281027794 -0.011718128807842731
v 0.0020514430943876505 0.0061063026078045368 -0.017013918608427048
v 0.0049237599596381187 0.0059441239573061466 -0.01328146830201149
v 0.0024878685362637043 0.0081989392638206482 -0.010306812822818756
v -0.00091885431902483106 0.00853752251714468 -0.010339737869799137
v 0.0049187894910573959 0.0054349438287317753 -0.014738564379513264
v 0.0023627125192433596 0.0085870157927274704 -0.0088713336735963821
v -0.0069450843147933483 -0.001474544289521873 -0.014971773140132427
v -0.0010648523457348347 0.0067382855340838432 -0.015974942594766617
v 0.0072102025151252747 -0.0021276941988617182 -0.011282836087048054
v -0.0011379688512533903 0.0088367313146591187 -0.0089160706847906113
v -0.0040670372545719147 0.0060078254900872707 -0.014503794722259045
v 0.0071084289811551571 -0.0020949828904122114 -0.012744155712425709
v 0.0050688884221017361 0.0063448329456150532 -0.011613562703132629
v 0.0054237688891589642 0.0068125901743769646 -0.0086931837722659111
v 0.002655187388882041 0.0086579844355583191 -0.0078812390565872192
v -0.0034442865289747715 0.0030870051123201847 -0.020862260833382607
v 0.0053638541139662266 0.0065046078525483608 -0.010063686408102512
v -0.0010643696878105402 0.0061595453880727291 -0.01734655536711216
v 0.007014766801148653 -0.0021124007180333138 -0.014215980656445026
v -0.0043649743311107159 0.0074788080528378487 -0.0087873451411724091
v -0.0017501894617453218 0.0059954570606350899 -0.0074738231487572193
v 0.0048235971480607986 0.0049610394053161144 -0.016104498878121376
v -0.0071058031171560287 0.0012670973083004355 -0.014519905671477318
v 0.0043635317124426365 0.0058970474638044834 -0.0062912823632359505
v -0.0039735063910484314 0.0055149300023913383 -0.015929581597447395
v 0.0059203165583312511 0.0047094817273318768 -0.0063794157467782497
v -0.007164717186242342 0.0040004835464060307 -0.0087791038677096367
v -0.0031202523969113827 -0.0023271550890058279 -0.0077580413781106472
v -0.0063642631284892559 0.0041243019513785839 -0.013066154904663563
v -0.0066247489303350449 0.0042650052346289158 -0.011426870711147785
v 0.0019407892832532525 0.0055145206861197948 -0.018321612849831581
v 0.0016873019048944116 0.0043850624933838844 -0.020383639261126518
v 0.001985837472602725 0.0038729256484657526 -0.020957080647349358
v 0.0063383667729794979 0.0037055409047752619 -0.0069885067641735077
v -0.0046254424378275871 -0.0033875228837132454 -0.01102822832763195
v -0.0058854981325566769 0.0030252274591475725 -0.017213219776749611
v 0.0063641844317317009 0.00045494080404751003 -0.0077442247420549393
v 0.0066537368111312389 0.0026081562973558903 -0.016137083992362022
v -0.0038589430041611195 0.0049829841591417789 -0.017288785427808762
v 0.0069390819407999516 -0.0021760128438472748 -0.015730345621705055
v -0.0065984376706182957 0.0047820811159908772 -0.0098255416378378868
v -0.0069596059620380402 0.0010882230708375573 -0.015849826857447624
v 0.0046880440786480904 0.0044497945345938206 -0.017434515058994293
v 0.0013921982608735561 -0.0025660018436610699 -0.0077591147273778915
v -0.0010525389807298779 0.0055282507091760635 -0.018639260903000832
v -0.0055609401315450668 0.0068706977181136608 -0.0070893047377467155
v 0.0056972270831465721 0.0068241637200117111 -0.0076390532776713371
v 0.004310880322009325 0.0079126060009002686 -0.0074730296619236469
v -0.0038277336861938238 0.0081032551825046539 -0.007197150494903326
v -0.0015106406062841415 -0.0023211243096739054 -0.0077579794451594353
v -0.0052301180548965931 0.0023691593669354916 -0.019631974399089813
v 0.0073425248265266418 0.0038904219400137663 -0.0088643450289964676
v 0.0025068328250199556 -0.0058568771928548813 -0.024416901171207428
v -0.0073615983128547668 -0.0014406411210075021 -0.0092211812734603882
v -0.0074662077240645885 -0.00068858580198138952 -0.0086185969412326813
v -0.003734533442184329 0.0044016372412443161 -0.018559850752353668
v -0.0018860951531678438 0.0078965295106172562 -0.0073234057053923607
v -0.0049014082178473473 -0.0040770471096038818 -0.022600840777158737
v 0.0032154964283108711 -0.0034013679251074791 -0.0090636508539319038
v 0.0050066830590367317 -0.0040293377824127674 -0.022809300571680069
v -0.0028740032576024532 -0.0043100216425955296 -0.021761056035757065
v -0.0029846702236682177 0.0076566324569284916 -0.0069276122376322746
v -0.0045544910244643688 -0.0033815873321145773 -0.012183681130409241
v 0.0045099840499460697 0.0038975947536528111 -0.018708128482103348
v 0.0048119314014911652 -0.0033946116454899311 -0.010613879188895226
v -0.0036158203147351742 0.0037662428803741932 -0.019750453531742096
v -0.0073165558278560638 -0.0011948029277846217 -0.010261223651468754
v 0.0076226931996643543 0.00093970960006117821 -0.011965253390371799
v -0.0047188438475131989 -0.0033982524182647467 -0.008871723897755146
v 0.0053694965317845345 -0.0034046743530780077 -0.0086653437465429306
v -0.00111232022754848 0.0042540961876511574 -0.020707389339804649
v -0.0066700037568807602 0.0051058134995400906 -0.0084129991009831429
v 0.0062562385573983192 -0.0015443750889971852 -0.0077540352940559387
v -0.0062056719325482845 0.0038255674298852682 -0.014492168091237545
v 0.0077956654131412506 0.00063631735974922776 -0.0086193326860666275
v 0.0066732168197631836 -0.0025079774204641581 -0.018599584698677063
v -0.0062999031506478786 -0.0006284110713750124 -0.0077498229220509529
v 0.00183265027590096 0.0079433536157011986 -0.0073890318162739277
v -0.0054132593795657158 0.0020731717813760042 -0.0076476666145026684
v 0.0068090842105448246 0.0052758874371647835 -0.0072249951772391796
v -0.0032450109720230103 -0.0033992019016295671 -0.0088158203288912773
v 0.0062752175144851208 -0.0031991698779165745 -0.020679298788309097
v 0.0068582575768232346 -0.0023404359817504883 -0.017282493412494659
v 0.0066653615795075893 -0.00073969399090856314 -0.0077501037158071995
v -0.0071830940432846546 -0.0015394729562103748 -0.011037863790988922
v 0.0018196037271991372 0.0048950193449854851 -0.01950557716190815
v -0.0064938976429402828 -0.0023756548762321472 -0.019707567989826202
v 0.0079039372503757477 0.001588212326169014 -0.0084569724276661873
v -0.0076150712557137012 0.0019503565272316337 -0.0088339531794190407
v -0.0074752815999090672 0.0020325889345258474 -0.010117909871041775
v -0.0076663801446557045 0.00096924259560182691 -0.0093339970335364342
v 0.00091089808847755194 -0.0051816706545650959 -0.021765243262052536
v 0.0073454589582979679 0.0034757182002067566 -0.010192252695560455
v -0.00073513505049049854 0.0036941180005669594 -0.021537171676754951
v -0.00063761579804122448 0.0040531717240810394 -0.0077157788909971714
v -0.0071168462745845318 -0.0014393071178346872 -0.012155803851783276
v 0.0077639361843466759 0.00095079914899542928 -0.010296283289790154
v -0.0044182087294757366 0.0062757749110460281 -0.0060626058839261532
v -0.0070263040252029896 -0.0014341772766783834 -0.013558258302509785
v 0.0070788771845400333 0.0036134787369519472 -0.011695646680891514
v 7.4485178629402071e-05 -0.0024202575441449881 -0.0077584306709468365
v 0.0042445422150194645 0.0033387481234967709 -0.019889852032065392
v 0.0045456215739250183 -0.0033684363588690758 -0.015817735344171524
v -0.0072538536041975021 0.001474726595915854 -0.013119415380060673
v 0.0068056262098252773 0.0029602507129311562 -0.014777583070099354
v -0.0060526756569743156 0.003454957390204072 -0.015873050317168236
v -0.0014559814007952809 -0.0033454971853643656 -0.019834842532873154
v -0.0073640444315969944 0.0017291806871071458 -0.011658467352390289
v 0.0053128888830542564 0.0073861624114215374 -0.006937103345990181
v 0.0068850545212626457 0.0034483682829886675 -0.013271627016365528
v 0.0026618221309036016 -0.003357601584866643 -0.017657782882452011
v 0.0014962779823690653 -0.0033579720184206963 -0.017462531104683876
v -0.0028879351448267698 -0.0033526686020195484 -0.018052177503705025
v 0.00045189203228801489 -0.0033481570426374674 -0.019293582066893578
v 0.0031348522752523422 -0.0059061497449874878 -0.023704500868916512
v -0.0018631822895258665 -0.0033603112678974867 -0.016648579388856888
v -0.0038348513189703226 -0.0033721635118126869 -0.01409919373691082
v 0.0034627506975084543 0.0018345743883401155 -0.0077376174740493298
v 0.0011615506373345852 -0.0033952835947275162 -0.010051552206277847
v 0.0027647498063743114 -0.0033674945589154959 -0.01571284793317318
v 0.0022121178917586803 -0.0033826425205916166 -0.01266046054661274
v -0.0021743890829384327 -0.0033702803775668144 -0.014645230956375599
v 4.9235193728236482e-05 -0.0033935420215129852 -0.010279435664415359
v -0.0010888400720432401 -0.0033783758990466595 -0.013158450834453106
v 0.0049232351593673229 -0.0033891305793076754 -0.011700772680342197
v 0.0031953302677720785 -0.00071000558091327548 -0.0077500287443399429
v -0.0018219585763290524 -0.003391763661056757 -0.010435166768729687
v 1.2837497706641443e-05 -0.0033878879621624947 -0.011393348686397076
v 0.0017274682177230716 -0.00075712066609412432 -0.0077502885833382607
v 0.0011565554887056351 -0.0033725202083587646 -0.014551053754985332
v -0.0014580980641767383 -0.00031029409728944302 -0.0077481740154325962
v -0.0016023750649765134 0.0025531041901558638 -0.0077342158183455467
v -0.0027260628994554281 -0.0033844229765236378 -0.011791687458753586
v -0.002731687854975462 -0.0033894383814185858 -0.010799632407724857
v 0.0012438778067007661 -0.0033672989811748266 -0.015592340379953384
v 0.0022205475252121687 -0.0033760343212634325 -0.013967679813504219
v 0.0041241804137825966 -0.0033779679797589779 -0.013784673996269703
v 0.0032074842602014542 -0.0033860544208437204 -0.012090100906789303
v -0.0021574802231043577 -0.0033754194155335426 -0.013631073758006096
v 0.0033714857418090105 0.00065743306186050177 -0.0077433581463992596
v -0.0046451743692159653 -0.0023210693616420031 -0.0077580427750945091
v -0.0025727772153913975 -0.0019981756340712309 -0.024936657398939133
v -0.00098833988886326551 -0.0033845065627247095 -0.011957026086747646
v 0.00056404352653771639 -0.00065083889057859778 -0.0077497935853898525
v -0.0016001929761841893 0.00066803093068301678 -0.0077434070408344269
v 0.0017124669393524528 0.001877306611277163 -0.007737443782389164
v -0.0033024328295141459 -0.00052270188461989164 -0.0077492473646998405
v 0.0014479953097179532 0.0010686098830774426 -0.0077413925901055336
v 0.0073762214742600918 -0.0023397027980536222 -0.0087917717173695564
v 0.00035145203582942486 0.0035702458117157221 -0.007728929165750742
v 0.00047496630577370524 0.00097406428540125489 -0.0077418731525540352
v -0.002793249674141407 0.0026818939950317144 -0.0077336118556559086
v -0.0026516749057918787 0.00085812661563977599 -0.0077425013296306133
v -0.00089160678908228874 -0.0049615465104579926 -0.021764187142252922
v -0.0042229462414979935 -0.00049464486073702574 -0.0077491286210715771
v -0.0010451478883624077 0.0048545221798121929 -0.019816868007183075
v 0.0044288160279393196 -0.0011007960420101881 -0.0077519100159406662
v 0.00025022993213497102 0.0025788408238440752 -0.007734052836894989
v 0.0031298536341637373 -0.0033910658676177263 -0.011091303080320358
v 0.0052503962069749832 0.00045208921073935926 -0.0077443215996026993
v 0.0025061180349439383 0.0034873506519943476 -0.0077295778319239616
v -0.002735460177063942 0.0060109356418251991 -0.0070313340984284878
v -0.0036994724068790674 -0.0033676493912935257 -0.015005738474428654
v -0.0018214202718809247 -0.0033542332239449024 -0.0178544782102108
v 0.0031316559761762619 -0.0033513116650283337 -0.018950378522276878
v -0.0030456436797976494 -0.0033581242896616459 -0.016957122832536697
v -0.00066863466054201126 -0.0033692449796944857 -0.015007521957159042
v 0.001564492704346776 -0.0033912144135683775 -0.010898123495280743
v 0.00045690842671319842 -0.003354641841724515 -0.018012160435318947
f 257 395 429
f 385 413 384
f 327 3 319
f 7 8 6
f 53 687 51
f 399 91 53
f 11 12 13
f 14 15 16
f 17 18 674
f 427 14 13
f 18 20 674
f 21 11 14
f 21 16 22
f 582 168 2
f 167 586 2
f 27 28 29
f 643 29 28
f 580 152 9
f 31 25 643
f 32 31 30
f 23 18 736
f 118 585 9
f 17 27 29
f 164 165 171
f 29 736 17
f 23 29 643
f 27 17 12
f 17 13 12
f 11 13 14
f 541 32 30
f 21 14 16
f 427 15 14
f 36 38 35
f 203 229 204
f 182 188 676
f 38 349 35
f 10 466 536
f 10 470 657
f 45 43 634
f 436 673 19
f 682 46 675
f 687 50 692
f 19 410 637
f 57 55 348
f 241 376 5
f 62 60 61
f 665 531 622
f 111 434 420
f 67 315 462
f 37 47 692
f 184 552 24
f 356 161 555
f 24 30 28
f 65 73 60
f 55 57 58
f 65 74 75
f 50 76 77
f 74 60 62
f 78 58 61
f 348 54 620
f 620 56 348
f 662 80 44
f 687 53 620
f 81 47 37
f 81 595 48
f 82 44 218
f 44 82 79
f 26 555 11
f 675 46 218
f 218 46 48
f 26 21 556
f 222 221 261
f 692 47 682
f 37 50 77
f 280 285 284
f 76 52 84
f 76 50 52
f 84 54 85
f 84 52 54
f 85 55 78
f 85 54 55
f 58 59 62
f 78 55 58
f 284 567 283
f 61 58 62
f 65 60 74
f 73 61 60
f 64 65 75
f 340 73 65
f 66 64 75
f 343 147 424
f 66 69 64
f 69 66 72
f 70 72 146
f 67 316 616
f 87 43 670
f 88 518 89
f 49 90 350
f 53 91 56
f 57 92 93
f 59 93 94
f 95 75 96
f 66 75 95
f 66 95 97
f 97 72 66
f 620 52 687
f 33 203 205
f 281 357 747
f 75 74 96
f 74 94 96
f 59 94 74
f 93 59 58
f 56 92 57
f 91 92 56
f 1 247 245
f 53 51 89
f 602 577 33
f 88 83 350
f 90 49 461
f 43 87 461
f 99 465 670
f 45 99 43
f 698 71 100
f 34 506 700
f 45 316 99
f 186 555 161
f 34 570 568
f 146 40 70
f 305 108 597
f 40 345 110
f 26 556 281
f 421 379 640
f 499 540 642
f 345 235 116
f 116 110 345
f 108 117 588
f 118 119 120
f 588 585 118
f 575 124 573
f 125 126 122
f 127 128 583
f 77 584 81
f 683 394 632
f 134 135 615
f 136 137 138
f 139 137 136
f 140 137 139
f 140 139 142
f 357 281 556
f 383 354 695
f 136 138 144
f 424 144 145
f 147 144 424
f 573 124 148
f 559 514 561
f 149 127 130
f 150 130 131
f 151 128 127
f 9 152 119
f 153 122 128
f 152 126 154
f 583 148 129
f 121 120 155
f 155 286 121
f 152 154 119
f 719 240 39
f 63 274 244
f 382 640 379
f 68 487 483
f 585 580 9
f 68 485 486
f 154 126 125
f 576 152 580
f 125 122 153
f 575 126 576
f 153 128 151
f 128 122 573
f 613 132 668
f 149 151 127
f 668 134 614
f 150 149 130
f 614 133 131
f 158 150 131
f 158 133 145
f 158 131 133
f 133 615 424
f 424 145 133
f 409 293 603
f 182 145 144
f 159 136 147
f 101 274 279
f 144 147 136
f 159 139 136
f 159 341 142
f 142 110 140
f 116 140 110
f 383 551 257
f 24 553 184
f 141 354 689
f 696 160 751
f 669 420 105
f 246 245 612
f 155 120 592
f 2 168 169
f 579 168 582
f 166 171 189
f 173 174 175
f 176 177 178
f 179 137 180
f 140 116 181
f 188 182 183
f 219 185 180
f 181 223 220
f 181 180 140
f 340 343 73
f 187 183 179
f 187 174 188
f 188 173 676
f 653 173 177
f 176 178 165
f 176 165 164
f 171 166 164
f 618 252 688
f 581 170 579
f 190 170 172
f 191 168 170
f 628 199 206
f 629 79 596
f 630 329 344
f 192 193 194
f 192 194 292
f 182 138 183
f 167 169 193
f 592 586 167
f 742 411 619
f 169 168 191
f 586 582 2
f 605 438 686
f 190 191 170
f 590 151 600
f 189 190 172
f 590 172 581
f 600 149 627
f 109 332 123
f 627 150 738
f 109 330 584
f 177 175 178
f 111 418 396
f 738 158 653
f 177 173 175
f 158 145 676
f 173 188 174
f 433 440 434
f 189 171 607
f 172 590 166
f 369 337 684
f 138 137 179
f 187 179 185
f 183 138 179
f 179 180 185
f 137 140 180
f 223 181 116
f 219 180 181
f 101 200 452
f 513 544 554
f 113 46 682
f 747 112 693
f 161 356 160
f 239 163 693
f 160 747 693
f 290 292 631
f 113 47 81
f 628 201 200
f 115 199 628
f 113 48 46
f 7 291 202
f 7 202 200
f 291 290 115
f 114 421 32
f 203 204 205
f 33 206 602
f 593 190 189
f 208 207 209
f 210 209 211
f 212 213 638
f 445 423 114
f 351 294 409
f 88 51 83
f 220 446 221
f 219 221 222
f 89 51 88
f 223 242 724
f 695 42 748
f 222 217 216
f 225 213 212
f 165 178 638
f 628 202 115
f 227 216 226
f 227 174 187
f 115 202 291
f 206 205 201
f 228 211 213
f 115 290 199
f 621 171 165
f 229 207 230
f 167 192 592
f 206 201 628
f 229 230 204
f 199 631 194
f 495 362 494
f 205 206 33
f 63 285 274
f 574 203 577
f 572 190 593
f 230 207 208
f 572 229 574
f 208 209 210
f 209 207 593
f 210 211 228
f 211 209 607
f 228 213 225
f 621 213 211
f 648 175 598
f 231 225 212
f 633 231 214
f 231 212 214
f 232 215 226
f 232 214 215
f 215 227 226
f 227 215 598
f 63 276 284
f 216 217 226
f 216 187 185
f 261 217 222
f 185 222 216
f 58 57 93
f 185 219 222
f 563 523 479
f 235 223 116
f 531 469 143
f 235 242 223
f 143 92 91
f 746 71 698
f 144 138 182
f 748 376 695
f 320 312 698
f 183 187 188
f 236 237 242
f 354 141 746
f 236 242 235
f 749 320 100
f 162 71 751
f 201 205 654
f 245 246 1
f 476 526 233
f 246 248 249
f 251 250 656
f 618 228 225
f 225 231 525
f 214 232 633
f 255 256 232
f 118 121 588
f 366 112 323
f 221 219 220
f 712 41 717
f 102 239 685
f 102 86 702
f 261 258 217
f 258 259 217
f 264 255 259
f 255 232 226
f 256 254 633
f 253 252 618
f 250 265 249
f 254 253 525
f 252 251 688
f 266 244 609
f 251 267 265
f 250 248 611
f 612 245 623
f 65 64 340
f 689 354 184
f 612 230 611
f 105 434 442
f 611 230 208
f 248 250 249
f 656 208 210
f 250 251 265
f 688 210 228
f 267 252 268
f 267 251 252
f 347 268 253
f 268 252 253
f 269 254 270
f 269 253 254
f 255 264 270
f 270 254 256
f 259 255 226
f 270 256 255
f 217 259 226
f 258 264 259
f 184 383 552
f 359 491 360
f 261 221 446
f 5 542 543
f 553 544 689
f 312 5 748
f 271 272 266
f 8 7 200
f 200 201 452
f 244 274 452
f 101 8 200
f 266 276 244
f 244 276 63
f 553 28 27
f 5 312 745
f 71 162 100
f 5 543 241
f 162 163 717
f 163 239 702
f 278 6 279
f 554 12 186
f 280 283 282
f 186 11 555
f 284 285 63
f 218 44 634
f 8 279 6
f 48 82 218
f 279 8 101
f 233 483 97
f 280 282 278
f 274 285 279
f 279 285 280
f 286 155 288
f 290 291 406
f 290 289 644
f 294 288 299
f 7 6 291
f 295 278 282
f 291 6 680
f 407 404 375
f 744 298 603
f 293 299 639
f 409 457 301
f 294 293 409
f 515 302 303
f 304 294 351
f 550 306 478
f 307 306 308
f 606 308 306
f 327 308 3
f 310 311 303
f 306 304 515
f 289 295 744
f 263 596 599
f 298 295 282
f 295 289 680
f 603 298 457
f 644 297 639
f 639 299 296
f 155 296 299
f 293 297 603
f 299 288 155
f 305 286 660
f 378 331 595
f 598 174 227
f 351 301 302
f 294 304 660
f 307 305 478
f 327 307 308
f 515 303 311
f 311 309 606
f 310 309 311
f 4 562 520
f 3 308 606
f 3 309 608
f 98 319 3
f 616 314 315
f 316 313 616
f 608 314 616
f 314 309 310
f 325 324 749
f 315 314 318
f 314 310 318
f 515 304 351
f 260 325 712
f 703 260 718
f 241 543 398
f 564 558 685
f 240 559 39
f 662 322 98
f 80 316 45
f 313 316 80
f 327 319 322
f 241 551 376
f 44 79 662
f 103 546 542
f 323 565 519
f 699 103 745
f 104 546 103
f 100 41 749
f 103 542 5
f 717 86 712
f 698 42 746
f 86 102 718
f 541 552 383
f 102 240 719
f 257 551 395
f 197 195 719
f 741 196 720
f 559 240 558
f 300 104 699
f 257 541 383
f 324 325 706
f 300 326 715
f 328 325 260
f 716 238 715
f 745 321 699
f 718 195 703
f 705 224 710
f 557 374 357
f 326 300 721
f 606 309 3
f 4 563 652
f 664 528 527
f 691 322 629
f 630 108 305
f 307 327 691
f 691 329 630
f 79 82 596
f 263 344 596
f 331 156 117
f 584 330 595
f 604 76 84
f 625 84 85
f 335 336 646
f 280 278 279
f 373 454 537
f 339 147 340
f 341 159 339
f 396 433 111
f 110 142 70
f 70 40 110
f 688 251 656
f 341 339 69
f 556 557 357
f 625 336 334
f 343 369 73
f 684 61 369
f 343 135 369
f 344 117 108
f 85 78 646
f 333 332 587
f 334 333 604
f 332 124 123
f 330 109 123
f 344 108 630
f 157 156 378
f 117 344 263
f 281 356 555
f 32 541 429
f 117 263 331
f 557 556 22
f 595 331 599
f 584 77 587
f 123 157 330
f 587 77 76
f 124 333 148
f 124 332 333
f 148 334 129
f 148 333 334
f 129 336 132
f 129 334 336
f 132 335 134
f 132 336 335
f 134 337 135
f 134 335 337
f 371 372 338
f 135 337 369
f 557 499 664
f 424 135 343
f 340 64 339
f 147 343 340
f 64 69 339
f 159 147 339
f 69 70 341
f 142 139 159
f 341 70 142
f 724 446 220
f 571 363 566
f 723 571 549
f 701 234 750
f 672 435 673
f 323 112 565
f 353 352 35
f 345 346 235
f 323 564 366
f 342 451 450
f 412 708 458
f 220 219 181
f 346 349 236
f 692 51 687
f 235 346 236
f 601 511 622
f 253 269 347
f 35 349 346
f 347 440 441
f 348 55 54
f 348 56 57
f 650 88 350
f 35 352 36
f 350 83 49
f 346 345 353
f 35 346 353
f 351 302 515
f 352 353 482
f 196 262 703
f 482 355 352
f 36 352 355
f 355 364 36
f 707 560 647
f 566 407 571
f 360 361 697
f 361 360 362
f 362 364 361
f 358 43 461
f 363 517 659
f 489 365 371
f 365 489 364
f 366 564 685
f 364 489 36
f 358 49 675
f 366 239 112
f 623 609 654
f 480 236 349
f 338 38 371
f 372 370 367
f 369 61 73
f 371 370 372
f 598 214 648
f 98 322 319
f 371 365 370
f 98 313 662
f 373 405 567
f 374 502 565
f 557 664 374
f 349 38 338
f 349 338 480
f 480 237 236
f 243 106 741
f 32 421 640
f 706 328 725
f 380 381 382
f 617 238 273
f 480 381 237
f 425 380 379
f 382 377 640
f 380 237 381
f 328 262 710
f 317 273 716
f 300 238 645
f 262 196 750
f 545 546 104
f 554 27 12
f 720 107 741
f 561 197 39
f 684 335 646
f 277 287 701
f 561 508 560
f 647 562 521
f 198 224 709
f 651 273 663
f 710 234 705
f 663 273 317
f 750 106 701
f 516 402 488
f 715 198 716
f 106 243 641
f 107 197 707
f 450 451 641
f 357 565 112
f 751 141 696
f 163 162 694
f 378 330 157
f 378 156 331
f 396 417 589
f 396 432 433
f 637 448 19
f 385 414 413
f 649 416 667
f 417 418 389
f 387 384 419
f 418 420 398
f 53 89 399
f 423 421 114
f 425 446 426
f 473 532 474
f 406 291 680
f 195 197 720
f 426 724 242
f 379 421 423
f 425 423 444
f 428 429 669
f 428 422 429
f 418 398 389
f 32 429 422
f 389 387 417
f 419 384 413
f 417 387 419
f 413 414 678
f 414 415 667
f 392 415 414
f 636 566 637
f 406 289 290
f 407 566 408
f 415 408 636
f 457 507 677
f 680 278 295
f 415 392 404
f 639 292 644
f 385 392 414
f 632 401 610
f 409 301 351
f 419 413 681
f 146 72 530
f 417 419 589
f 656 250 611
f 418 417 396
f 395 398 420
f 420 418 111
f 420 434 105
f 669 429 395
f 395 420 669
f 658 524 665
f 32 422 114
f 653 158 676
f 423 425 379
f 690 249 686
f 237 380 426
f 247 271 266
f 603 297 744
f 271 247 671
f 686 437 690
f 267 268 624
f 624 268 347
f 442 434 440
f 428 447 443
f 258 444 445
f 446 425 444
f 444 261 446
f 427 13 674
f 224 198 725
f 275 317 709
f 444 423 445
f 445 422 443
f 443 422 428
f 447 270 264
f 442 440 269
f 442 269 270
f 269 440 347
f 441 439 624
f 439 438 605
f 438 431 430
f 437 430 416
f 690 435 672
f 654 244 452
f 673 671 672
f 19 448 436
f 101 452 274
f 416 410 435
f 435 437 416
f 686 265 605
f 437 438 430
f 605 265 267
f 431 439 432
f 431 438 439
f 432 441 433
f 432 439 441
f 434 111 433
f 433 441 440
f 447 442 270
f 442 428 105
f 443 447 264
f 428 442 447
f 258 443 264
f 114 422 445
f 258 445 443
f 258 261 444
f 70 69 72
f 461 49 358
f 679 90 461
f 426 380 425
f 287 275 705
f 563 450 652
f 227 187 216
f 547 545 645
f 478 306 307
f 276 272 271
f 478 305 550
f 38 36 489
f 373 567 661
f 283 280 284
f 276 271 453
f 284 453 661
f 453 284 276
f 548 547 617
f 453 436 522
f 271 436 453
f 282 455 298
f 589 432 396
f 455 456 298
f 651 549 375
f 298 456 457
f 317 275 488
f 451 512 277
f 287 516 275
f 512 516 287
f 512 287 277
f 704 324 721
f 67 462 99
f 479 449 563
f 464 463 462
f 315 464 462
f 315 318 464
f 99 316 67
f 462 465 99
f 479 539 655
f 480 498 381
f 312 320 704
f 402 393 663
f 721 321 704
f 372 480 338
f 468 93 469
f 470 87 657
f 90 471 650
f 473 89 518
f 91 474 143
f 475 94 468
f 476 97 95
f 477 476 95
f 617 547 645
f 663 317 488
f 488 275 516
f 364 362 365
f 371 38 489
f 477 95 96
f 477 96 475
f 96 94 475
f 94 93 468
f 93 92 469
f 469 92 143
f 474 91 399
f 89 473 399
f 88 472 518
f 472 88 650
f 471 90 679
f 87 470 679
f 465 466 657
f 725 326 706
f 40 353 345
f 554 696 513
f 353 40 482
f 513 141 689
f 354 383 184
f 747 356 281
f 68 483 642
f 383 376 551
f 482 486 355
f 302 301 386
f 482 487 486
f 486 487 68
f 642 485 68
f 642 233 499
f 697 486 485
f 635 486 697
f 731 536 539
f 355 486 635
f 501 386 732
f 359 485 490
f 485 484 490
f 62 59 74
f 594 514 601
f 360 697 359
f 492 25 493
f 494 360 491
f 490 15 491
f 360 494 362
f 518 472 473
f 496 497 370
f 497 492 367
f 521 562 652
f 367 370 497
f 496 370 365
f 496 365 362
f 495 496 362
f 495 497 496
f 493 377 382
f 375 548 651
f 521 243 647
f 372 498 480
f 521 450 641
f 498 367 368
f 614 134 615
f 368 493 382
f 368 382 498
f 372 367 498
f 16 484 540
f 499 22 540
f 743 506 34
f 15 484 16
f 15 490 484
f 491 359 490
f 491 15 427
f 491 427 494
f 427 674 20
f 495 494 20
f 18 495 20
f 497 495 18
f 18 23 497
f 497 23 492
f 23 25 492
f 493 368 492
f 31 377 25
f 32 538 31
f 501 506 743
f 377 493 25
f 34 568 743
f 743 569 386
f 732 301 677
f 569 302 386
f 507 388 677
f 714 507 734
f 457 677 301
f 742 463 390
f 722 390 700
f 570 700 390
f 633 254 525
f 618 225 525
f 730 500 728
f 700 570 34
f 504 481 740
f 460 459 733
f 732 388 740
f 713 460 727
f 648 212 638
f 538 377 31
f 640 538 32
f 22 16 540
f 388 507 714
f 397 403 735
f 455 507 456
f 539 466 666
f 540 484 642
f 550 305 660
f 550 304 306
f 524 468 469
f 499 233 526
f 475 527 528
f 97 529 72
f 589 419 681
f 487 529 483
f 589 431 432
f 528 499 526
f 597 108 588
f 530 40 146
f 619 411 666
f 530 482 40
f 468 524 527
f 527 502 664
f 531 524 469
f 532 531 474
f 143 474 531
f 532 473 533
f 601 533 594
f 472 534 533
f 597 286 305
f 535 534 471
f 534 472 471
f 535 470 536
f 535 536 578
f 466 539 536
f 292 296 192
f 523 520 731
f 611 248 612
f 536 470 10
f 539 523 731
f 682 83 692
f 471 470 535
f 673 410 19
f 616 313 608
f 472 533 473
f 594 534 591
f 622 503 665
f 474 399 473
f 622 532 601
f 665 519 658
f 598 175 174
f 502 527 658
f 468 527 475
f 598 215 214
f 475 528 477
f 625 85 646
f 477 526 476
f 477 528 526
f 233 97 476
f 483 529 97
f 677 388 732
f 487 482 530
f 529 530 72
f 529 487 530
f 391 411 742
f 708 391 722
f 722 467 708
f 603 457 409
f 481 504 733
f 606 306 311
f 429 541 257
f 387 389 542
f 389 398 543
f 27 544 553
f 545 384 546
f 392 385 547
f 548 392 547
f 404 548 375
f 404 392 548
f 375 549 407
f 510 458 711
f 542 546 387
f 398 551 241
f 547 385 545
f 385 384 545
f 384 387 546
f 543 542 389
f 398 395 551
f 614 131 668
f 424 615 135
f 615 133 614
f 28 553 24
f 554 544 27
f 161 554 186
f 22 556 21
f 616 315 67
f 12 11 186
f 617 273 548
f 511 558 503
f 511 559 558
f 560 707 561
f 562 560 509
f 509 520 562
f 700 500 722
f 4 520 523
f 523 563 4
f 509 560 508
f 514 508 561
f 561 39 559
f 511 514 559
f 503 558 564
f 519 503 564
f 519 564 323
f 565 502 519
f 374 565 357
f 557 22 499
f 281 555 26
f 11 21 26
f 663 393 651
f 220 223 724
f 30 552 541
f 552 30 24
f 394 510 726
f 459 467 730
f 525 253 618
f 373 397 405
f 620 53 56
f 401 394 713
f 620 54 52
f 626 458 510
f 282 283 455
f 567 455 283
f 310 303 568
f 397 537 737
f 568 303 569
f 302 569 303
f 400 401 729
f 318 570 464
f 390 463 464
f 310 568 318
f 568 570 318
f 626 512 451
f 537 454 522
f 659 522 448
f 659 566 363
f 626 510 683
f 457 456 507
f 568 569 743
f 505 504 714
f 506 501 728
f 728 481 730
f 504 505 727
f 459 460 726
f 451 458 626
f 450 449 412
f 619 465 462
f 655 449 479
f 628 200 202
f 563 449 450
f 505 405 735
f 401 400 610
f 403 397 729
f 632 516 683
f 629 329 691
f 723 393 610
f 571 407 549
f 571 517 363
f 549 393 723
f 537 522 659
f 517 571 723
f 537 397 373
f 610 393 402
f 629 322 79
f 567 405 734
f 727 403 713
f 633 232 256
f 467 459 711
f 683 512 626
f 458 342 412
f 458 451 342
f 411 391 739
f 450 412 342
f 412 449 739
f 523 539 479
f 522 436 448
f 525 231 633
f 661 454 373
f 517 400 737
f 100 162 41
f 276 266 272
f 379 380 382
f 640 377 538
f 572 191 190
f 572 207 229
f 642 483 233
f 573 148 583
f 574 169 191
f 203 574 229
f 575 123 124
f 575 122 126
f 576 157 123
f 576 126 152
f 577 203 33
f 577 193 169
f 578 509 591
f 578 536 731
f 579 170 168
f 579 154 125
f 580 156 157
f 119 118 9
f 581 172 170
f 581 125 153
f 582 119 154
f 169 167 2
f 583 129 613
f 642 484 485
f 584 332 109
f 81 37 77
f 118 120 121
f 585 117 156
f 167 193 192
f 586 120 119
f 587 76 604
f 681 431 589
f 588 117 585
f 588 121 286
f 588 286 597
f 644 289 297
f 590 153 151
f 189 172 166
f 591 509 508
f 591 534 535
f 592 192 296
f 592 120 586
f 644 292 290
f 593 189 607
f 594 508 514
f 594 533 534
f 48 113 81
f 595 330 378
f 596 344 329
f 596 82 599
f 650 471 472
f 585 156 580
f 350 90 650
f 586 119 582
f 599 331 263
f 599 82 48
f 600 151 149
f 164 166 600
f 601 532 533
f 514 511 601
f 602 193 577
f 602 206 199
f 653 177 738
f 580 157 576
f 610 400 723
f 604 84 625
f 624 439 605
f 654 205 623
f 582 154 579
f 452 201 654
f 655 411 449
f 607 171 621
f 98 608 313
f 608 309 314
f 609 244 654
f 609 245 247
f 610 402 632
f 655 539 666
f 611 208 656
f 591 508 594
f 612 248 246
f 612 204 230
f 613 130 127
f 613 129 132
f 661 567 284
f 599 48 595
f 661 453 454
f 577 169 574
f 404 408 415
f 576 123 575
f 592 296 155
f 662 313 80
f 579 125 581
f 662 79 322
f 619 463 742
f 619 466 465
f 596 329 629
f 672 246 690
f 554 161 696
f 666 466 619
f 511 503 622
f 622 531 532
f 623 245 609
f 623 205 204
f 605 267 624
f 347 441 624
f 666 411 655
f 673 436 671
f 673 435 410
f 574 191 572
f 627 149 150
f 627 176 164
f 573 122 575
f 676 173 653
f 676 145 182
f 581 153 590
f 461 87 679
f 630 305 307
f 631 199 290
f 194 631 292
f 632 402 516
f 632 394 401
f 522 454 453
f 679 470 471
f 634 44 80
f 634 43 675
f 668 130 613
f 697 361 635
f 636 408 566
f 636 410 649
f 637 566 448
f 637 410 636
f 638 178 648
f 638 213 621
f 639 296 292
f 738 176 627
f 680 6 278
f 593 207 572
f 641 243 521
f 641 451 277
f 680 289 406
f 595 81 584
f 681 430 431
f 643 28 30
f 609 247 266
f 681 413 678
f 645 545 104
f 645 238 617
f 646 78 684
f 646 336 625
f 647 243 107
f 647 560 562
f 648 214 212
f 648 178 175
f 649 410 416
f 649 415 636
f 625 334 604
f 583 128 573
f 651 548 273
f 651 393 549
f 652 562 4
f 521 652 450
f 621 165 638
f 643 25 23
f 623 204 612
f 607 209 593
f 600 166 590
f 643 30 31
f 656 210 688
f 686 249 265
f 657 466 10
f 670 465 657
f 502 658 519
f 658 527 524
f 686 438 437
f 659 448 566
f 660 304 550
f 660 286 288
f 98 3 608
f 1 246 672
f 587 332 584
f 687 52 50
f 688 228 618
f 488 402 663
f 664 499 528
f 664 502 374
f 665 503 519
f 665 524 531
f 80 45 634
f 734 455 567
f 667 415 649
f 667 416 678
f 668 131 130
f 668 132 134
f 105 428 669
f 184 553 689
f 657 87 670
f 670 43 99
f 671 436 271
f 672 671 247
f 672 247 1
f 689 544 513
f 635 364 355
f 621 211 607
f 678 430 681
f 20 494 427
f 218 634 675
f 675 43 358
f 364 635 361
f 368 367 492
f 382 381 498
f 697 485 359
f 678 414 667
f 678 416 430
f 591 535 578
f 404 407 408
f 647 107 707
f 520 509 578
f 613 127 583
f 707 197 561
f 682 47 113
f 682 49 83
f 683 516 512
f 683 510 394
f 684 337 335
f 684 78 61
f 685 239 366
f 685 558 240
f 627 164 600
f 446 724 426
f 242 237 426
f 604 333 587
f 194 602 199
f 194 193 602
f 520 578 731
f 462 463 619
f 690 437 435
f 690 246 249
f 327 322 691
f 630 307 691
f 692 50 37
f 692 83 51
f 694 160 693
f 693 112 239
f 160 694 751
f 693 163 694
f 695 376 383
f 746 42 695
f 696 141 513
f 738 150 158
f 738 177 176
f 160 696 161
f 748 42 698
f 100 320 698
f 699 321 300
f 699 104 103
f 700 506 500
f 390 464 570
f 701 106 277
f 705 234 701
f 702 239 102
f 702 86 163
f 703 262 260
f 720 196 703
f 704 321 312
f 704 320 324
f 705 275 224
f 701 287 705
f 721 324 706
f 706 325 328
f 299 293 294
f 645 104 300
f 739 391 708
f 711 458 708
f 716 198 709
f 709 224 275
f 710 262 234
f 725 328 710
f 726 510 711
f 708 467 711
f 718 260 712
f 712 325 41
f 713 403 401
f 713 394 460
f 714 504 388
f 734 505 714
f 715 238 300
f 715 326 198
f 709 317 716
f 716 273 238
f 717 163 86
f 717 41 162
f 718 102 195
f 712 86 718
f 719 195 102
f 39 197 719
f 720 197 107
f 703 195 720
f 706 326 721
f 721 300 321
f 722 500 467
f 722 391 390
f 660 288 294
f 723 400 517
f 674 13 17
f 639 297 293
f 725 198 326
f 710 224 725
f 726 460 394
f 711 459 726
f 735 403 727
f 727 460 504
f 728 501 481
f 728 500 506
f 737 400 729
f 729 401 403
f 733 459 730
f 730 467 500
f 685 240 102
f 675 49 682
f 740 501 732
f 732 386 301
f 733 504 460
f 730 481 733
f 734 405 505
f 734 507 455
f 735 405 397
f 727 505 735
f 736 29 23
f 736 18 17
f 729 397 737
f 737 537 517
f 515 311 306
f 659 517 537
f 739 449 411
f 708 412 739
f 740 388 504
f 740 481 501
f 741 107 243
f 741 106 196
f 744 297 289
f 742 390 391
f 743 386 501
f 744 295 298
f 641 277 106
f 747 357 112
f 745 103 5
f 745 312 321
f 695 354 746
f 746 141 71
f 160 356 747
f 328 260 262
f 748 5 376
f 698 312 748
f 749 41 325
f 749 324 320
f 750 196 106
f 750 234 262
f 751 71 141
f 694 162 751
