# Generated by benchmark/pick_up_apple/mujoco_src/export.py
v 0.0063311154954135418 -0.0084281312301754951 -0.013477814383804798
v 0.0066786138340830803 -0.0071188779547810555 -0.013163372874259949
v 0.0065756463445723057 -0.0081428494304418564 -0.011533217504620552
v -0.0078631266951560974 -0.0063058510422706604 -0.0057977410033345222
v -0.0072770980186760426 -0.0062868185341358185 -0.0072705158963799477
v -0.0070953415706753731 -0.0074914554134011269 -0.0063092503696680069
v -0.0067816795781254768 -0.0082890167832374573 -0.0023292598780244589
v -0.0054167769849300385 -0.0084707383066415787 -0.0014311936683952808
v -0.0069437175989151001 -0.0085679916664958 -0.00076637440361082554
v 0.0063629420474171638 -0.002000193577259779 -0.016754645854234695
v 0.0059530534781515598 -0.0010325378971174359 -0.017417233437299728
v 0.0068393182009458542 -0.00070548994699493051 -0.016002902761101723
v 0.0063576162792742252 0.0071038492023944855 -0.0155689911916852
v 0.0078020035289227962 0.0064504332840442657 -0.015225301496684551
v 0.0072462139651179314 0.0064672846347093582 -0.016755413264036179
v 0.0074137104675173759 0.0056422902271151543 -0.0079495701938867569
v 0.0063939895480871201 0.0057779443450272083 -0.0072607509791851044
v 0.0071558412164449692 0.0044948686845600605 -0.0069062253460288048
v 0.0068752020597457886 0.0068268002942204475 -0.014171309769153595
v 0.00050457607721909881 -0.0066055967472493649 0.00070766743738204241
v 0.0018388257594779134 -0.0067213205620646477 -0.00064479641150683165
v 0.002607998438179493 -0.0064679132774472237 0.0010758506832644343
v 0.0086405426263809204 0.0028052316047251225 -0.010232728905975819
v 0.0085243936628103256 0.0027112278621643782 -0.0083466451615095139
v 0.0085242325440049171 0.0012176033342257142 -0.0094115743413567543
v -0.0060232160612940788 0.0046547963283956051 -0.013501695357263088
v -0.0056334370747208595 0.0057657561264932156 -0.012306315824389458
v -0.0060073896311223507 0.0062711690552532673 -0.013400329276919365
v 0.0079875169321894646 -6.8182322138454765e-05 -0.0017001600936055183
v 0.0079879080876708031 -0.00014825549442321062 -0.00072283862391486764
v 0.0079883411526679993 -0.001340680755674839 -0.0013085172977298498
v 0.00051680742762982845 -0.0091812731698155403 -0.012257949449121952
v 0.0014570128405466676 -0.0095237325876951218 -0.01073562353849411
v -9.391918865730986e-06 -0.0093954466283321381 -0.010544346645474434
v 0.0077548236586153507 -0.0059829810634255409 -0.0042807245627045631
v 0.0079274335876107216 -0.0057858945801854134 -0.0028840904124081135
v 0.0076068383641541004 -0.007092644926160574 -0.0029186839237809181
v 0.0075376913882791996 -0.0083214621990919113 7.8638811828568578e-05
v 0.0075078695081174374 -0.0080671058967709541 -0.0013683870201930404
v 0.007919863797724247 -0.006843967828899622 -0.0001126473507611081
v 0.0067700548097491264 -0.0084806205704808235 -0.0028827476780861616
v 0.007317541167140007 -0.0077639375813305378 -0.0043148836120963097
v 0.0058210738934576511 -0.0091061349958181381 -0.00616421177983284
v 0.0068064667284488678 -0.0088098431006073952 -0.006959057878702879
v 0.0070328265428543091 -0.0084007373079657555 -0.005738298874348402
v -0.0046002487652003765 0.0046678837388753891 -0.0088556539267301559
v -0.0046041533350944519 0.003345901146531105 -0.0095049738883972168
v -0.0048569338396191597 0.0033830616157501936 -0.0081520043313503265
v 0.0079898731783032417 -0.0046850210055708885 -0.0020495338831096888
v 0.0079891122877597809 -0.0029986950103193521 -0.0016448239330202341
v 0.0079900957643985748 -0.0040742135606706142 -0.00050811871187761426
v 0.0076035391539335251 -0.0028828657232224941 -0.014361858367919922
v 0.0079296277835965157 -0.001454039360396564 -0.01460933405905962
v 0.00792649295181036 -0.001974503742530942 -0.013233964331448078
v 0.0078734233975410461 -0.004038576502352953 -0.0082310903817415237
v 0.0077145397663116455 -0.0049796584062278271 -0.0074469447135925293
v 0.0074669988825917244 -0.005485274363309145 -0.0088279973715543747
v -0.0070683443918824196 0.0069691324606537819 0.00014887667202856392
v -0.0052798967808485031 0.0068674841895699501 0.00016686867456883192
v -0.0058257072232663631 0.0066849132999777794 -0.0011144505115225911
v 0.0081604495644569397 0.00012166822125436738 -0.015051171183586121
v 0.0074193384498357773 -0.0010470636188983917 -0.01525361742824316
v -0.0053871241398155689 0.0057026543654501438 -0.011557068675756454
v -0.0055223964154720306 0.0042235339060425758 -0.01186820212751627
v -0.004902740940451622 0.0047961641103029251 -0.010323937982320786
v 0.0069963568821549416 -0.0057151722721755505 -0.01343553327023983
v 0.006707463413476944 -0.0065691554918885231 -0.01433224231004715
v 0.0069087259471416473 -0.0054667079821228981 -0.015082632191479206
v -0.0060483249835669994 0.0055354801006615162 -0.014581355266273022
v 0.0078673204407095909 -0.0027514861430972815 -0.011786318384110928
v 0.0076154754497110844 -0.0032954786438494921 -0.013111220672726631
v 0.0074090296402573586 -0.0068554352037608624 -0.0057597476989030838
v 0.0077948411926627159 -0.0051835058256983757 -0.0060021886602044106
v 0.0074026738293468952 -0.0044938130304217339 -0.012229259125888348
v 0.0070101791061460972 -0.00624426594004035 -0.011848322115838528
v 0.0081053106114268303 -0.0028268250171095133 -0.0089401146396994591
v 0.0077477968297898769 -0.0040364572778344154 -0.0096329720690846443
v 0.0082546565681695938 -0.0010986648267135024 -0.011969770304858685
v 0.0081881452351808548 -0.0016905838856473565 -0.010817552916705608
v 0.0073852548375725746 -0.0051692631095647812 -0.010592691600322723
v 0.0071039590984582901 -0.0071013178676366806 -0.0084839006885886192
v 0.0070480960421264172 -0.0067197787575423717 -0.01013852097094059
v 0.007672507781535387 -0.003875525901094079 -0.010905744507908821
v -0.0036204704083502293 -0.0069650863297283649 -0.0013109111459925771
v -0.0039359191432595253 -0.0068723643198609352 -0.00011908599844900891
v -0.0044434322044253349 -0.0070610372349619865 -0.00082708295667544007
v 0.0047532119788229465 0.0036553393583744764 0.0058897510170936584
v 0.0060852710157632828 0.0032585677690804005 0.0061490689404308796
v 0.0059050889685750008 0.0043753045611083508 0.0053827264346182346
v -0.0015413064975291491 -0.0090817427262663841 -0.0051050935871899128
v -0.0019125393591821194 -0.0086803091689944267 -0.0031265087891370058
v -0.0032636539544910192 -0.0088754743337631226 -0.0043131154961884022
v 0.0084855062887072563 0.0012517549330368638 -0.010777883231639862
v 0.0087854322046041489 0.0019543350208550692 -0.011818578466773033
v -0.0073480061255395412 -0.0034693451598286629 -0.0078772203996777534
v -0.0079933684319257736 -0.002764587290585041 -0.006653273943811655
v -0.0068877898156642914 -0.0021665014792233706 -0.0070536201819777489
v 0.0079907411709427834 -0.0054283966310322285 -0.00073837896343320608
v 0.0055105765350162983 -0.00946061871945858 -0.013894163072109222
v 0.0061292527243494987 -0.0086067616939544678 -0.015236791223287582
v -0.0059861349873244762 0.0067860567942261696 0.0014132775831967592
v -0.0046877749264240265 0.0068109235726296902 0.0012707997811958194
v 0.0030829992610961199 0.0080011440441012383 -0.02016402967274189
v 0.0045001194812357426 0.0078370030969381332 -0.01909109391272068
v 0.0031706187874078751 0.0070189894177019596 -0.020262511447072029
v -0.0080100856721401215 -0.0062582017853856087 -0.0043010781519114971
v -0.0080110002309083939 -0.0051724235527217388 -0.005224782507866621
v 0.00020738091552630067 0.0084496987983584404 -0.020032210275530815
v -0.0011725199874490499 0.0084830373525619507 -0.019141135737299919
v 0.00034262935514561832 0.0082585997879505157 -0.018757883459329605
v 0.0079868901520967484 0.0046698274090886116 0.003685397794470191
v 0.0071254763752222061 0.0059359516017138958 0.0036458680406212807
v 0.0071936021558940411 0.0049923192709684372 0.0048847617581486702
v -0.0079636434093117714 -0.0076441806741058826 -0.0033242474310100079
v -0.0080084120854735374 -0.0075763245113193989 -0.0015942844329401851
v -0.0080089466646313667 -0.0060248253867030144 -0.00075206829933449626
v -0.008007843978703022 -0.0074938139878213406 0.00012539004092104733
v -0.0080083431676030159 -0.0061364700086414814 0.00077204895205795765
v -0.0080015165731310844 -0.0055783032439649105 0.0030912994407117367
v -0.0080082090571522713 -0.004521672148257494 0.0041775871068239212
v -0.0080086980015039444 -0.0042096888646483421 0.0026803568471223116
v -0.0080092679709196091 -0.0039252904243767262 0.001510005327872932
v -0.008009396493434906 -0.00452440045773983 0.00024565294734202325
v -0.0080085266381502151 -0.0051673389971256256 0.0017165406607091427
v 0.0079848440364003181 0.0055898488499224186 -0.00066294032149016857
v 0.0079858331009745598 0.0040967222303152084 -0.00014243896293919533
v 0.0079854056239128113 0.0039554978720843792 -0.0015544330235570669
v -0.0068116658367216587 -0.006293940357863903 0.0030683374498039484
v -0.0078266514465212822 -0.0066006449051201344 0.002059142105281353
v 0.0080498000606894493 0.0044176890514791012 -0.0080756247043609619
v 0.0081843705847859383 0.0058669047430157661 -0.0092094764113426208
v 0.0073296665214002132 0.004779342096298933 -0.0050828410312533379
v 0.0057006855495274067 0.0052337963134050369 -0.0050497031770646572
v 0.0064141000621020794 0.0059466296806931496 -0.0036446419544517994
v -0.0073083089664578438 -0.0057238289155066013 0.0040377397090196609
v -0.0059930486604571342 -0.0064626531675457954 0.0015726661076769233
v -0.0077654845081269741 -0.0069250436499714851 0.0011944668367505074
v 0.0064995069988071918 -0.0069537879899144173 -0.015601181425154209
v 0.006466839462518692 -0.0075446600094437599 -0.014363243244588375
v -0.0080101191997528076 -0.0028485753573477268 0.00074564822716638446
v -0.0080105941742658615 -0.0014164724852889776 0.0015748069854453206
v -0.00801132433116436 -0.0012868375051766634 -0.00027932407101616263
v -0.0080095864832401276 -0.0028572787996381521 0.0022267552558332682
v -0.0080098593607544899 -0.0015174763975664973 0.0034851825330406427
v -0.0080089680850505829 -0.0032029389403760433 0.0034425747580826283
v -0.0080086765810847282 -0.0029069720767438412 0.0047045913524925709
v 0.0058614462614059448 -0.0060675670392811298 0.0028445995412766933
v 0.0060288906097412109 -0.0054670972749590874 0.004250973928719759
v 0.004425552673637867 -0.0056653064675629139 0.0038028087001293898
v -0.0072426651604473591 -0.0013751942897215486 0.0068595437332987785
v -0.0080092120915651321 -0.0014924741117283702 0.0053352108225226402
v -0.0079843206331133842 -0.0026499642990529537 0.0060751335695385933
v -0.0080100409686565399 -0.004471899475902319 -0.0014799941563978791
v -0.0067346650175750256 -0.0075325528159737587 -0.007716253399848938
v -0.006685533095151186 -0.0064870924688875675 -0.0087299151346087456
v 0.0087629817426204681 0.0048063355498015881 -0.01035869587212801
v 0.00903313048183918 0.0035504007246345282 -0.011766931973397732
v 0.0093409828841686249 0.005407706368714571 -0.011948374100029469
v -0.008007638156414032 0.0027050471398979425 0.0058481721207499504
v -0.0080113764852285385 0.0020974285434931517 0.004677903838455677
v -0.0080105066299438477 0.0011028082808479667 0.0056179594248533249
v -0.0043226932175457478 -0.0073359590023756027 -0.020615868270397186
v -0.0031145657412707806 -0.0072985319420695305 -0.021685091778635979
v -0.0029081946704536676 -0.0075693456456065178 -0.020107246935367584
v 0.008475244976580143 0.0041337399743497372 -0.0092324521392583847
v 0.0067031676881015301 0.0059878434985876083 -0.0087500270456075668
v -0.0045837908983230591 -0.00090336386347189546 -0.0087215760722756386
v -0.0049749207682907581 -0.0019616382196545601 -0.0096161076799035072
v -0.0048027997836470604 -0.0022027269005775452 -0.0088981380686163902
v -0.008011779747903347 0.0049070809036493301 0.004356960766017437
v -0.0080129839479923248 0.003977546002715826 0.0030045690946280956
v -0.0080121206119656563 0.0033480350393801928 0.0044777537696063519
v 0.005397020373493433 0.0054769022390246391 -0.018320677801966667
v 0.0045022806152701378 0.0050954669713973999 -0.019479040056467056
v 0.0047263475134968758 0.0062883473001420498 -0.019587215036153793
v 0.0079903127625584602 -0.0036146158818155527 0.00079532747622579336
v 0.0079911630600690842 -0.0052431626245379448 0.00072583666769787669
v -0.0073934672400355339 0.00049958127783611417 0.0069705210626125336
v -0.0074717388488352299 0.0018810620531439781 0.0067210467532277107
v 0.0071049910038709641 -0.0076301791705191135 -0.007039469201117754
v 0.0068102017976343632 -0.0084322486072778702 -0.0081423623487353325
v 0.0065264259465038776 0.0063019678927958012 -0.017895976081490517
v 0.0057391473092138767 0.0067623881623148918 -0.01875254325568676
v 0.0057297726161777973 0.0074519161134958267 -0.017340265214443207
v 0.0047371862456202507 0.0073039070703089237 -0.015726162120699883
v 0.0053756157867610455 0.0070095588453114033 -0.014301718212664127
v -0.0053399712778627872 0.0068073668517172337 -0.016665946692228317
v -0.0045515256933867931 0.006907791830599308 -0.017942396923899651
v -0.0051421984098851681 0.0051456522196531296 -0.01755513995885849
v -0.005680945236235857 -0.0069200163707137108 -0.0097791720181703568
v -0.0063632153905928135 -0.0076012001372873783 -0.0089262761175632477
v 0.0053820358589291573 0.0068687167949974537 0.00065964757231995463
v 0.0041442685760557652 0.006868311669677496 0.00069904018891975284
v 0.0046270242892205715 0.0066414806060492992 0.0019875220023095608
v 2.9817181712132879e-05 0.0068641235120594501 0.00018960988381877542
v -0.0013994592009112239 0.0068701384589076042 0.00029096301295794547
v -0.0010097118793055415 0.0067530679516494274 0.0015543043846264482
v -0.00075468345312401652 0.0065760742872953415 -0.0073762587271630764
v 0.00044635374797508121 0.0065687792375683784 -0.0081460988149046898
v -0.00091586977941915393 0.0068061631172895432 -0.0087157227098941803
v -0.0036838904488831758 0.0068702232092618942 0.00029431181610561907
v -0.0021468095947057009 0.0066497516818344593 -0.0074697998352348804
v -0.0024046134203672409 0.0070255035534501076 -0.0090848030522465706
v -0.0040479418821632862 0.0070883561857044697 -0.0088131334632635117
v 0.0047907880507409573 0.0062910532578825951 -0.0031059016473591328
v 0.0044700079597532749 0.005992853082716465 -0.00457720085978508
v 0.0032553169876337051 0.0062773348763585091 -0.0031461326871067286
v -0.0020724472124129534 0.0076981908641755581 -0.013564413413405418
v -0.0036020530387759209 0.007951272651553154 -0.014118870720267296
v -0.0034489927347749472 0.0077159316278994083 -0.012735713273286819
v -0.0044923350214958191 0.0079295458272099495 -0.013373018242418766
v -0.0022685234434902668 0.0062811486423015594 -0.005541329737752676
v -0.0019080723868682981 0.0063799116760492325 -0.0072347628884017467
v -0.002954886993393302 0.0060689332894980907 -0.0067163705825805664
v -0.0011292083654552698 0.0071167312562465668 -0.010533250868320465
v -0.0025943324435502291 0.0072767944075167179 -0.010543735697865486
v 0.0016459046164527535 0.0067603942006826401 -0.00071408500662073493
v 0.0030728620477020741 0.0066152112558484077 -0.0014872205210849643
v 0.0017599426209926605 0.0064376285299658775 -0.0023352999705821276
v -0.0013798635918647051 0.0066768736578524113 -0.0011662561446428299
v 0.00027958874125033617 0.0065711676143109798 -0.0016993706813082099
v -0.00075250060763210058 0.006205790676176548 -0.0044448026455938816
v 0.0005267826491035521 0.0062383036129176617 -0.0033347173593938351
v 0.00090079678921028972 0.0062286462634801865 -0.0050743506290018559
v -0.00068187055876478553 0.0062872432172298431 -0.0060854009352624416
v -0.0038540682289749384 0.005914296954870224 -0.0059300833381712437
v -0.0035897763445973396 0.0062364684417843819 -0.0045290696434676647
v -0.0054319947957992554 -0.0063392794691026211 -0.020687989890575409
v -0.0041425880044698715 -0.0062249093316495419 -0.02167646586894989
v -0.0052247256971895695 0.0055791395716369152 -0.0049911006353795528
v -0.0046178027987480164 0.0062231435440480709 -0.0037019131705164909
v -0.0027188772801309824 0.0080204345285892487 -0.015159743838012218
v 0.0055936789140105247 0.0065148873254656792 -0.0020224815234541893
v 0.0042333244346082211 0.0064969873055815697 -0.0020865835249423981
v -0.0076325982809066772 -0.0040110903792083263 0.0057273302227258682
v -0.00093300634762272239 0.0063313622958958149 -0.0028131273575127125
v -0.002165687270462513 0.0061868787743151188 -0.0038057451602071524
v -0.0026406398974359035 -0.0068936217576265335 -0.0010624270653352141
v -0.0030242789071053267 -0.0070326034910976887 -0.0017870031297206879
v -0.0024373519700020552 -0.007033525500446558 -0.0020524873398244381
v -0.002378897275775671 0.0068328497000038624 -0.00018975025159306824
v -0.0028607449494302273 0.0060250982642173767 -0.0077037354931235313
v -0.0051531270146369934 0.0083183525130152702 -0.016013488173484802
v -0.0049199252389371395 0.008155512623488903 -0.01450802106410265
v -0.0039810719899833202 0.0081830844283103943 -0.01532527431845665
v 0.0026808143593370914 0.0062253666110336781 -0.0048293024301528931
v 0.0035460384096950293 0.0059997402131557465 -0.0061222976073622704
v 0.0020301602780818939 0.0061648953706026077 -0.0063444627448916435
v 0.0045207887887954712 0.0067655639722943306 -0.00069462304236367345
v 0.00059408199740573764 0.0063352067954838276 -0.006770238745957613
v 0.0015417212853208184 0.0063563492149114609 -0.0075518395751714706
v 0.0018317629583179951 0.0062415897846221924 -0.0037327306345105171
v 0.0028242385014891624 0.0079352213069796562 -0.018409714102745056
v 0.0038963374681770802 0.0076213139109313488 -0.017158027738332748
v 0.0032233914826065302 0.0074589983560144901 -0.015671951696276665
v 0.0038769058883190155 0.0071845264174044132 -0.014383470639586449
v 0.00028139082132838666 -0.0098330732434988022 -0.0079810125753283501
v 0.0018326641293242574 -0.009922955185174942 -0.0080720717087388039
v 0.0010327384807169437 -0.0095042064785957336 -0.0069938404485583305
v -0.0079575544223189354 0.0042161457240581512 -0.0053957817144691944
v -0.00792696513235569 0.0051838899962604046 -0.0046106097288429737
v -0.0069186482578516006 0.0051416107453405857 -0.0047029890120029449
v -0.0023648769129067659 0.0074784229509532452 -0.019687226042151451
v -0.0035555579233914614 0.007374319713562727 -0.01888686791062355
v -0.0027954261749982834 0.0084568075835704803 -0.019080860540270805
v -0.0055820601992309093 -0.0054275174625217915 -0.0095180049538612366
v -0.0050492924638092518 -0.0042006075382232666 -0.0093845156952738762
v -0.0053580128587782383 -0.0042408336885273457 -0.010287073440849781
v 0.0084737418219447136 0.00095239747315645218 -0.007891044020652771
v 0.0079857977107167244 0.0019191477913409472 -0.0067352470941841602
v -0.0041645616292953491 -0.0085444869473576546 -0.0025701452977955341
v -0.0055934078991413116 -0.0084850415587425232 -0.0029196341056376696
v -0.0050846440717577934 -0.0086884340271353722 -0.0043909456580877304
v -0.0042526582255959511 -0.0089253960177302361 -0.0058193434961140156
v -0.0028873423580080271 -0.0091649657115340233 -0.0061527960933744907
v -0.0026424387469887733 -0.0060981931164860725 -0.022360661998391151
v -0.0020434483885765076 -0.0072113401256501675 -0.02251351997256279
v 0.0029902372043579817 -0.0069867926649749279 -0.021871145814657211
v 0.0030283580999821424 -0.0081219989806413651 -0.020671067759394646
v 0.0016913008876144886 -0.0078690070658922195 -0.021356565877795219
v -0.0012967440998181701 -0.0083675002679228783 -0.016162902116775513
v -4.278827248072048e-07 -0.0083574997261166573 -0.017112145200371742
v 0.0001124077316490002 -0.0086566023528575897 -0.015298404730856419
v -0.0049980878829956055 0.0049798451364040375 -0.0064524398185312748
v -0.0080150887370109558 0.0048954957164824009 -0.001514799427241087
v -0.008015751838684082 0.0057986858300864697 -0.0020923109259456396
v -0.0080152638256549835 0.0045747580006718636 -0.0024888645857572556
v -0.00723293237388134 0.0068029039539396763 -0.0014804736711084843
v -0.0061884773895144463 0.0065569509752094746 -0.0022677101660519838
v -0.0071651358157396317 0.0064094476401805878 -0.0027308757416903973
v 0.0079859914258122444 0.0056075458414852619 0.00257828738540411
v 0.0079423077404499054 0.0065886331722140312 0.0016909559490159154
v 0.0070242541842162609 0.0065627926960587502 0.002341477433219552
v -0.0069151907227933407 -0.0029511526226997375 0.0063370219431817532
v -0.0043823430314660072 -0.0089303022250533104 -0.010496007278561592
v -0.0029756049625575542 -0.0092323189601302147 -0.0095482198521494865
v -0.0044794455170631409 -0.0092117367312312126 -0.0085973776876926422
v -0.0054555810056626797 -0.0014632574748247862 -0.0076605617068707943
v -0.0051604048348963261 0.00038737175054848194 -0.0075942445546388626
v 0.0018161834450438619 0.005594184622168541 0.0040956167504191399
v 0.0031017058063298464 0.005754146259278059 0.0038676010444760323
v 0.0020209110807627439 0.0063654803670942783 0.0027471247594803572
v -0.0054632546380162239 0.0021609214600175619 -0.0073481532745063305
v -0.0065644001588225365 0.0025655094068497419 -0.0064824367873370647
v -0.0055847624316811562 0.003671339014545083 -0.0070361192338168621
v 0.0079056359827518463 -0.0063185906037688255 -0.0016954282764345407
v 0.0079866619780659676 0.003305869409814477 0.00098878808785229921
v 0.0079857092350721359 0.005140107125043869 0.0010827520163729787
v 0.0053349384106695652 -0.0089505603536963463 -0.017008697614073753
v 0.0052694785408675671 -0.0086537040770053864 -0.018692074343562126
v 0.0061021726578474045 -0.0076660360209643841 -0.017993366345763206
v 0.0069408947601914406 -0.0066729285754263401 0.002098544966429472
v 0.0059597929939627647 -0.0064286529086530209 0.0013325699837878346
v 0.007660966832190752 -0.0075348205864429474 0.00096973165636882186
v 0.0049561182968318462 -0.0064092758111655712 -0.018979184329509735
v 0.005353094544261694 -0.0066360132768750191 -0.018427100032567978
v 0.0054107313044369221 -0.0071290377527475357 -0.019525734707713127
v 0.004237018059939146 -0.008405846543610096 -0.019702894613146782
v 0.0043870597146451473 -0.0070434012450277805 -0.020803462713956833
v 0.0070740361697971821 -0.0022231065668165684 -0.015610003843903542
v 0.0022240194957703352 -0.0091862138360738754 -0.013393585570156574
v 0.00080732651986181736 -0.0089495638385415077 -0.013921335339546204
v 0.0016687811585143209 -0.0088738920167088509 -0.014988510869443417
v 0.0049115284346044064 -0.0096273515373468399 -0.012441699393093586
v 0.003418744308874011 -0.0095053147524595261 -0.012192885391414165
v 0.0039612711407244205 -0.0093309581279754639 -0.013665936887264252
v 0.0030947329942137003 -0.0090367458760738373 -0.014933614991605282
v 0.0066297361627221107 -0.0048306230455636978 -0.016274608671665192
v 0.0072386628016829491 -0.003911217674612999 -0.015460739843547344
v 0.0028228918090462685 -0.0068686241284012794 -0.001892692525871098
v 0.0041669271886348724 -0.0073646469973027706 -0.0010517624905332923
v 0.0031691233161836863 -0.0067286295816302299 -0.00045233560376800597
v 0.0059342570602893829 0.0051922653801739216 -0.0062978127971291542
v -0.0080143027007579803 0.0037044249475002289 -0.0011065956205129623
v 0.00088794302428141236 -0.0096810851246118546 -0.0093519231304526329
v -0.00055607699323445559 -0.0095532797276973724 -0.0091729061678051949
v -0.00027593009872362018 -0.0093812048435211182 -0.006467179860919714
v -0.0011424716794863343 -0.0096825817599892616 -0.0078510809689760208
v -0.0080150170251727104 0.0054826471023261547 -0.00042918775579892099
v -0.0059514641761779785 -0.0085209133103489876 -0.0081682279706001282
v -0.0050398777239024639 -0.008858424611389637 -0.0070487717166543007
v -0.0062276539392769337 -0.0084285866469144821 -0.0067543867044150829
v -0.0067392392084002495 -0.003535938449203968 -0.01428422424942255
v -0.006422943901270628 -0.0045972196385264397 -0.013169696554541588
v -0.0062906374223530293 -0.0032954118214547634 -0.012983554974198341
v -0.0064205392263829708 0.001564927282743156 -0.015716472640633583
v -0.0060718674212694168 0.0008301815832965076 -0.017328880727291107
v -0.0066114617511630058 1.5571116819046438e-05 -0.015815163031220436
v -0.0063653658144176006 0.0022226178552955389 -0.014322587288916111
v -0.0062679378315806389 0.00300618726760149 -0.015467111021280289
v -0.006006280891597271 0.0030481070280075073 -0.013099834322929382
v -0.0062540499493479729 0.0034489396493881941 -0.014281386509537697
v -0.0065989634022116661 -0.00088236754527315497 -0.014346053823828697
v -0.0067945322953164577 -0.001496379729360342 -0.01585598848760128
v -0.0067798690870404243 -0.0021938288118690252 -0.01475449837744236
v -0.006152652669698 0.0043374248780310154 -0.01505154836922884
v 0.0024282860103994608 0.0073517062701284885 -0.014450224116444588
v 0.001050133490934968 0.0075578303076326847 -0.014811340719461441
v 0.0013563503744080663 0.0072653056122362614 -0.013171362690627575
v -0.0071029001846909523 -0.0045263646170496941 -0.015583476051688194
v -0.0069837914779782295 -0.0059304800815880299 -0.014639751985669136
v -0.0068100970238447189 -0.0050968723371624947 -0.014227046631276608
v -0.0064893993549048901 0.00075161969289183617 -0.014381149783730507
v -0.0061756591312587261 3.4153028536820784e-05 -0.01312604546546936
v -0.0060826386325061321 0.0014999920967966318 -0.013072031550109386
v -0.006960179191082716 -0.0029297932051122189 -0.01575402170419693
v -0.0066294469870626926 -0.0023242093157023191 -0.017232442274689674
v -0.0055330307222902775 0.0022655692882835865 -0.011650598607957363
v -0.0057222330942749977 0.00065834249835461378 -0.011953950859606266
v -0.005249957088381052 0.00094159971922636032 -0.010766105726361275
v -0.0052434415556490421 -0.0059944461099803448 0.0029848795384168625
v 0.0071731335483491421 0.0020496409852057695 0.0066702151671051979
v 0.0056424248032271862 0.0012872440274804831 0.0068148979917168617
v 0.0064500169828534126 0.0003088281664531678 0.0069788130931556225
v 0.0043600588105618954 0.0057405922561883926 -0.0072536957450211048
v 0.0048061511479318142 0.0055416603572666645 -0.0060257776640355587
v -0.0079863499850034714 0.000322891486575827 -0.0068860882893204689
v -0.0080138575285673141 2.814544495777227e-05 -0.0053970050066709518
v -0.0080145914107561111 0.0012344988062977791 -0.0056388438679277897
v -0.0079405577853322029 0.0021167881786823273 -0.0066365706734359264
v -0.0050230240449309349 -0.0037664887495338917 -0.0093910424038767815
v -0.0049304808489978313 -0.0031839793082326651 -0.0092330453917384148
v -0.0053287832997739315 -0.0029567987658083439 -0.010484257712960243
v -0.0054009202867746353 -0.0087029291316866875 -0.0058715562336146832
v -0.0026410743594169617 -0.0066086971201002598 0.00095747056184336543
v 0.0088210608810186386 0.0059629208408296108 -0.010294168256223202
v 0.0081758741289377213 0.0062397867441177368 -0.011349339038133621
v 0.0061957966536283493 -0.0078259166330099106 -0.016613384708762169
v 0.0062354877591133118 -0.0067057819105684757 -0.017136307433247566
v 0.0072147278115153313 -0.0060748900286853313 0.0034693775232881308
v 0.0079918960109353065 -0.0057685119099915028 0.0023419950157403946
v 0.0078205475583672523 -0.0068760830909013748 0.0013135772896930575
v -0.0030428881291300058 -0.0086416946724057198 -0.0029962388798594475
v 0.0065746167674660683 0.0064339479431509972 -0.011482339352369308
v 0.0075471680611371994 0.0065638283267617226 -0.01296814251691103
v -0.0021859521511942148 0.0025236385408788919 -0.020770857110619545
v -0.00077350944047793746 0.0022721942514181137 -0.021225748583674431
v -0.0013754250248894095 0.0011382224038243294 -0.021304098889231682
v -0.0058614336885511875 -0.0083915777504444122 -0.0099371233955025673
v -0.0065702805295586586 -0.0083238668739795685 -0.0038615805096924305
v -0.0063885622657835484 -0.0083730360493063927 -0.0053476993925869465
v 0.0059660086408257484 0.006729623768478632 -0.012935559265315533
v 0.0079863984137773514 0.00038010152638889849 -0.0041587958112359047
v 0.0079865353181958199 -0.00055538129527121782 -0.0051827565766870975
v 0.0079857185482978821 0.00060678931185975671 -0.0057255607098340988
v 0.0028598904609680176 0.0064744013361632824 -0.0091990968212485313
v 0.0016965791583061218 0.0065301349386572838 -0.008756319060921669
v 0.0028889032546430826 0.0062361131422221661 -0.0077125192619860172
v -0.0053670620545744896 0.0053389952518045902 0.0044186818413436413
v -0.004137698095291853 0.0059408447705209255 0.0035683957394212484
v -0.0055243000388145447 0.0060732238925993443 0.0033377697691321373
v -0.0069796103052794933 -0.0050700604915618896 -0.0083009321242570877
v -0.0017072426853701472 -0.0093491151928901672 -0.0066968486644327641
v -0.0027125535998493433 -0.0094634750857949257 -0.0078420685604214668
v -0.0038670941721647978 -0.0091028958559036255 -0.0070989220403134823
v 0.0079877246171236038 0.0021758901420980692 0.002265184884890914
v 0.007986774668097496 0.0040052449330687523 0.002358762314543128
v -0.0057449010200798512 -0.0061101820319890976 -0.011085362173616886
v -0.0080099720507860184 -0.0047272006049752235 -0.0067348722368478775
v -0.0049694636836647987 -0.0035072683822363615 -0.0092315226793289185
v -0.0080140652135014534 0.0049533615820109844 0.0014448735164478421
v -0.0080139506608247757 0.0040021175518631935 0.00033201064798049629
v -0.008015449158847332 0.0039881300181150436 -0.0038945111446082592
v -0.0080146249383687973 0.0033583801705390215 -0.0025310637429356575
v 0.0050914967432618141 -0.005663430318236351 -0.018746869638562202
v 0.0052619851194322109 -0.0040779565460979939 -0.018477706238627434
v 0.0059032309800386429 -0.0053328629583120346 -0.017464678734540939
v 0.0011890808818861842 0.0048510171473026276 -0.020911144092679024
v 0.00033223105128854513 0.0057943812571465969 -0.020760973915457726
v 0.0015580717008560896 0.0066554169170558453 -0.020650770515203476
v 0.0079895509406924248 0.00084387254901230335 0.0053795943967998028
v 0.0079885609447956085 0.0025006358046084642 0.0050998111255466938
v -0.0080137858167290688 0.0054235397838056087 0.0029312144033610821
v -0.0080109955742955208 0.0010370868258178234 0.0041474392637610435
v -0.0080119576305150986 0.0022441246546804905 0.0032684644684195518
v -0.0071265017613768578 -0.0085867336019873619 0.00061689887661486864
v -0.0053443987853825092 -0.0084225647151470184 0.00012282846728339791
v -0.0010260312119498849 -0.0065000816248357296 0.0012565444922074676
v -0.0010783926118165255 -0.0067803813144564629 -0.00014770857524126768
v -0.0061089391820132732 0.0060328827239573002 -0.0035210000351071358
v -0.0048083951696753502 0.0064429985359311104 -0.0022880653850734234
v 0.0031073822174221277 -0.009227861650288105 -0.0056989584118127823
v 0.0039535951800644398 -0.008876824751496315 -0.0040380512364208698
v 0.002195736626163125 -0.0088630374521017075 -0.0039446852169930935
v 0.0062249521724879742 -0.0086000384762883186 -0.00034077113377861679
v 0.0063295997679233551 -0.0083015384152531624 0.0010892003774642944
v -0.0059744482859969139 -0.0024800214450806379 0.006497193593531847
v -0.0048980121500790119 -0.008578818291425705 -0.00056913378648459911
v -0.0052837766706943512 -0.0071929921396076679 0.00015915748372208327
v 0.00059457548195496202 -0.0088375089690089226 -0.0038509203586727381
v -0.00012518629955593497 -0.0090803196653723717 -0.0049894731491804123
v 0.0012331466423347592 -0.0092039899900555611 -0.005542287603020668
v -0.0020597027614712715 -0.0070583955384790897 -0.0021987594664096832
v -0.0028608758002519608 -0.0084105990827083588 -0.0019378492143005133
v -0.0059643159620463848 -0.0040674875490367413 -0.008803865872323513
v -0.0047923019155859947 -0.0028530119452625513 -0.0090841697528958321
v -0.0071399626322090626 -0.0062114642933011055 -0.013797859661281109
v -0.0064912526868283749 -0.0062294397503137589 -0.013068412430584431
v -0.0065959738567471504 -0.0061432309448719025 -0.01340923085808754
v -0.0058744535781443119 -0.0039860517717897892 -0.011776420287787914
v -0.0061793401837348938 -0.0055908891372382641 -0.012339093722403049
v -0.0056592519395053387 -0.0050733163952827454 -0.011026837863028049
v -0.00015585012442898005 0.0012883412418887019 0.0068174204789102077
v 0.0013337396085262299 0.0012586715165525675 0.006822473369538784
v 0.0005936984671279788 0.0022103847004473209 0.0065740495920181274
v 0.0079886885359883308 -0.0033413521014153957 -0.0033487696200609207
v 0.0079874582588672638 -0.0015432491200044751 -0.004087675828486681
v 0.0079882219433784485 -0.0019914957229048014 -0.002621795516461134
v -0.0080127622932195663 -0.0022091532591730356 -0.0056994152255356312
v -0.0079610291868448257 -0.0023608566261827946 -0.0065580564551055431
v -0.0078688608482480049 -0.0013618076918646693 -0.0068410434760153294
v -0.0080135781317949295 -0.00091768481070175767 -0.0060419649817049503
v -0.0080117033794522285 -0.0030062559526413679 -0.0039330613799393177
v -0.0080118011683225632 -0.0037685518618673086 -0.0053557748906314373
v -0.0080108083784580231 -0.0047272462397813797 -0.0040183607488870621
v -0.0080140521749854088 0.0011414507171139121 -0.0042670872062444687
v -0.008015098050236702 0.0025510450359433889 -0.0050738556310534477
v -0.0080120638012886047 -0.0016980106011033058 -0.0029711578972637653
v -0.0080128349363803864 -0.0013327730121091008 -0.0045820712111890316
v -0.00021660918719135225 -0.0031288384925574064 0.0062112757004797459
v -0.00043872903916053474 -0.0043720696121454239 0.0054128803312778473
v 0.00099498836789280176 -0.0037013569381088018 0.0058868001215159893
v -0.002514467341825366 0.0040777856484055519 0.0056060650385916233
v -0.0036522462032735348 0.0034424164332449436 0.006016936618834734
v -0.0021312257740646601 0.0029744578059762716 0.0062592341564595699
v 0.0056749838404357433 -0.0024797460064291954 -0.017847334966063499
v 0.002660832367837429 0.0080594876781105995 -0.020234342664480209
v 0.0017331754788756371 0.0082274889573454857 -0.019511876627802849
v 0.0053820288740098476 0.0060268868692219257 -0.0080938665196299553
v -0.0039748763665556908 -0.0084037929773330688 -0.0012197605101391673
v -0.0058632092550396919 0.0070215794257819653 -0.014971734024584293
v -0.0058168284595012665 0.0054569202475249767 -0.015915919095277786
v -0.00067324331030249596 -0.008845931850373745 -0.0039058506954461336
v 0.0079250829294323921 -0.0023762320633977652 0.006250451784580946
v 0.0072799217887222767 -0.0010462218197062612 0.0069022118113934994
v 0.0063687427900731564 -0.0022289392072707415 0.0066209579817950726
v -0.0018824517028406262 -0.0015645300736650825 -0.021674109622836113
v -0.0034064429346472025 -0.0020724113564938307 -0.021141547709703445
v -0.003042854368686676 -0.00061099824961274862 -0.021021429449319839
v -0.00022477953461930156 -0.001831573317758739 -0.021979177370667458
v -0.001154086203314364 -0.0031231928151100874 -0.022112635895609856
v 0.0055246846750378609 0.0062983608804643154 -0.0099075660109519958
v 0.0049766432493925095 0.0066334414295852184 -0.011651293374598026
v 0.0036420144606381655 0.006596744991838932 -0.010507100261747837
v 0.0078624710440635681 0.00027706706896424294 0.0067755505442619324
v -0.0006285817944444716 0.0025955578312277794 0.0064286245033144951
v 0.00062896031886339188 0.0033445181325078011 0.0060704741626977921
v 0.0072882645763456821 0.0061397915706038475 -0.010110517032444477
v 0.0086992913857102394 0.0012190935667604208 -0.013298650272190571
v 0.0082945553585886955 -0.00033468072069808841 -0.013586666435003281
v 0.0083417845889925957 0.00047481586807407439 -0.014977815560996532
v 0.0079877199605107307 0.0031090425327420235 0.003658040426671505
v 0.007984786294400692 0.0038996720686554909 -0.0033755179028958082
v 0.007983705960214138 0.0055759036913514137 -0.0038756721187382936
v 0.0079843606799840927 0.0053023528307676315 -0.0024529923684895039
v -0.0079452237114310265 0.0028122509829699993 -0.0063447626307606697
v 0.0039330222643911839 -0.0086383586749434471 -0.018025090917944908
v 0.0036584348417818546 -0.0088642481714487076 -0.016409391537308693
v 0.002537860069423914 -0.0085990922525525093 -0.017319750040769577
v 0.0012840523850172758 -0.0083524333313107491 -0.018022103235125542
v 0.0025923219509422779 -0.0083344709128141403 -0.019029848277568817
v 0.00074404623592272401 -0.0079341400414705276 -0.020297370851039886
v 0.0018631097627803683 -0.0080793509259819984 -0.020144248381257057
v 0.0012869085185229778 -0.0081517631188035011 -0.019292645156383514
v -0.0036702577490359545 0.0056321453303098679 -0.0083243725821375847
v -0.0047669499181210995 0.004748788196593523 -0.0077073494903743267
v 0.0073111183010041714 0.0037222246173769236 0.005895465612411499
v 0.0079869721084833145 -0.0016680037369951606 -0.0056377626024186611
v -0.005492557305842638 -0.0073769623413681984 -0.019557919353246689
v -0.0063506104052066803 -0.007933259941637516 -0.015453805215656757
v -0.006880622822791338 -0.0077635291963815689 -0.016164297237992287
v -0.0059571904130280018 -0.0077424156479537487 -0.016929179430007935
v -0.0070071159861981869 -0.0047833658754825592 -0.017203046008944511
v -0.0065708747133612633 -0.0036356691271066666 -0.017988463863730431
v -0.0065131513401865959 -0.0049139158800244331 -0.018624391406774521
v -0.0011186369229108095 0.007407819852232933 -0.020241321995854378
v -0.0066147469915449619 -0.0074377525597810745 -0.018371310085058212
v -0.0064321034587919712 -0.0062660123221576214 -0.019360626116394997
v 0.0079874526709318161 -0.0006356113008223474 -0.0027346354909241199
v -0.0080130677670240402 -0.00025235282373614609 -0.0036085138563066721
v -0.0080105597153306007 -0.0030340054072439671 -0.00076754618203267455
v -0.0080133434385061264 0.0022453952115029097 -0.00061382236890494823
v -0.0080126561224460602 0.0017179924761876464 0.00051794311730191112
v -0.0080134375020861626 0.0029236755799502134 0.00014190588262863457
v -0.0080143827944993973 0.0023557310923933983 -0.0033626509830355644
v -0.0080126216635107994 0.00075408315751701593 -0.00083676213398575783
v -0.0080133555456995964 0.00092915288405492902 -0.0026334791909903288
v -0.0080123031511902809 -0.00058945856289938092 -0.0019730338826775551
v -0.0078611830249428749 -0.00059519329806789756 -0.0069620427675545216
v -0.0080137606710195541 0.0022113493178039789 -0.0018369442550465465
v -0.0080106500536203384 -0.0042375172488391399 -0.0028348972555249929
v -0.0080110691487789154 -0.0030701053328812122 -0.0022489558905363083
v -0.0080096898600459099 -0.0058687613345682621 -0.0026007883716374636
v 0.0063688391819596291 0.0051602604798972607 -0.016947606578469276
v 0.0043975287117063999 -0.0035614590160548687 -0.019761897623538971
v 0.0049944925121963024 -0.0027211380656808615 -0.018898041918873787
v 0.0055354926735162735 0.0011681367177516222 -0.018088141456246376
v 0.005409440491348505 -9.3824623036198318e-05 -0.018274363130331039
v 0.0048499382100999355 0.00078984815627336502 -0.019093804061412811
v 0.0051872273907065392 -0.0014840079238638282 -0.018608925864100456
v 0.0062555861659348011 0.00058955413987860084 -0.01694798655807972
v -0.0026951734907925129 0.00083582679508253932 -0.020891141146421432
v -0.0033889710903167725 0.0016589361475780606 -0.020319895818829536
v 0.0057433708570897579 0.0037954244762659073 -0.017795881256461143
v 0.0060315909795463085 0.0022362763993442059 -0.017319124191999435
v 0.0050843213684856892 0.0023436932824552059 -0.018753649666905403
v 0.0074717206880450249 0.004188185092061758 -0.015193197876214981
v 0.0078578945249319077 0.005352318286895752 -0.014409149065613747
v 0.0083717843517661095 0.0040381895378232002 -0.014472823590040207
v 0.0067180818878114223 0.0036133299581706524 -0.016307767480611801
v -0.0057872151955962181 -0.0027827040757983923 -0.0084351608529686928
v -0.00055430165957659483 -0.00015445347526110709 -0.021679796278476715
v -0.0019295962993055582 -5.8523390180198476e-05 -0.021372353658080101
v 0.0037388298660516739 -0.0099433278664946556 -0.0096425628289580345
v 0.0042726802639663219 -0.0096400436013936996 -0.0082988366484642029
v 0.0030722727533429861 -0.009973723441362381 -0.0085774660110473633
v -0.0069372840225696564 -0.0036245251540094614 -0.016776107251644135
v -0.0058194482699036598 -0.00069408176932483912 -0.012035446241497993
v 0.0071817850694060326 0.0050312881357967854 -0.015903575345873833
v -0.0064449822530150414 -0.0022053702268749475 -0.013579980470240116
v -0.0059218485839664936 -0.0022275086957961321 -0.012110085226595402
v -0.0054401885718107224 -0.00014047705917619169 -0.011123894713819027
v -0.0049981358461081982 -0.00028552135336212814 -0.009980449452996254
v 0.0043224981054663658 0.0014317455934360623 0.0067850193008780479
v 0.0052529927343130112 0.0024124826304614544 0.0065028751268982887
v 0.0035132777411490679 0.0027585099451243877 0.0063598742708563805
v 0.0044833463616669178 0.0069107548333704472 -0.013067240826785564
v -0.0042098402045667171 -0.0078633548691868782 -0.017358925193548203
v -0.0052730059251189232 -0.0076036420650780201 -0.018274106085300446
v -0.0041568526066839695 -0.0075971325859427452 -0.019078141078352928
v -0.0049399347044527531 -0.0080245295539498329 -0.015840999782085419
v -0.002662076847627759 -0.0081143593415617943 -0.016830015927553177
v -0.0036892355419695377 -0.0081349322572350502 -0.015997899696230888
v -0.0015199908521026373 -0.0078156264498829842 -0.019499139860272408
v -0.0015180646441876888 -0.0075355684384703636 -0.02127092145383358
v -0.00044662901200354099 -0.0077993366867303848 -0.020335754379630089
v 0.00013392178516369313 -0.0076606455259025097 -0.021609330549836159
v -0.00067287584533914924 -0.0063809868879616261 -0.022742364555597305
v -0.0028056867886334658 -0.0078408597037196159 -0.018460860475897789
v -0.0013895445736125112 -0.0080927694216370583 -0.017836257815361023
v -1.4606107470171992e-05 -0.0080696260556578636 -0.01892232708632946
v 0.001305021345615387 -0.0067594749853014946 -0.02255207858979702
v -0.006269597914069891 -0.005765566136687994 0.0039425734430551529
v -0.005331072025001049 -0.0052937357686460018 0.0044728722423315048
v -0.0067652040161192417 -0.0050511541776359081 0.0048588765785098076
v -0.0028095475863665342 -0.0055464040488004684 0.0040605436079204082
v -0.0012083291076123714 -0.0054128696210682392 0.0042923181317746639
v -0.0023320524487644434 -0.0044125770218670368 0.0053806193172931671
v 0.0011234207777306437 -0.0061526629142463207 0.0023411472793668509
v 0.0012315826024860144 -0.0056714224629104137 0.0038028364069759846
v -0.00011252026888541877 -0.0058739753440022469 0.003281372832134366
v 0.0035257432609796524 -0.0049848039634525776 0.004845048300921917
v 0.0023447975981980562 -0.0043433071114122868 0.0054301507771015167
v 0.0023852931335568428 -0.0053096460178494453 0.004439767450094223
v 0.00010973199823638424 -0.0053308270871639252 0.0044158045202493668
v 0.003469780320301652 0.0063658361323177814 0.0027426190208643675
v 0.0043369079940021038 -0.0066336030140519142 0.00039899282273836434
v 0.00074575829785317183 -0.0053389472886919975 -0.022441668435931206
v -0.00030525893089361489 -0.004415066447108984 -0.022386828437447548
v 0.0010776203125715256 -0.0039914492517709732 -0.022197077050805092
v 0.0079873800277709961 0.0019243308342993259 0.00091805524425581098
v -0.0015516040148213506 -0.0092637194320559502 -0.010323004797101021
v -0.0029018889181315899 -0.0089953113347291946 -0.011096915230154991
v -0.0017964998260140419 -0.0090433442965149879 -0.011548785492777824
v -0.0032862459775060415 -0.0085486369207501411 -0.013657990843057632
v -0.002532147103920579 -0.0088210422545671463 -0.012451319955289364
v -0.0041481205262243748 -0.0086754234507679939 -0.012267387472093105
v -0.0011661539319902658 -0.0089598502963781357 -0.012507447972893715
v -0.00080455554416403174 -0.0091698598116636276 -0.011426970362663269
v -0.0057733128778636456 -0.0085543552413582802 -0.011516707949340343
v 0.0038073321338742971 -0.0024909251369535923 0.0064860084094107151
v 0.0037141863722354174 -0.0038576149381697178 0.0057825343683362007
v 0.0053160162642598152 -0.0033404768910259008 0.0060974671505391598
v 0.0012553369160741568 -0.000957208510953933 0.0068768146447837353
v 0.00084329623496159911 -0.0022167898714542389 0.0065823160111904144
v 0.0024231721181422472 -0.0016208811430260539 0.0067529291845858097
v 0.0034528400283306837 0.004018835723400116 0.0056484914384782314
v 0.0021377613302320242 0.0037421032320708036 0.0058361371047794819
v -0.0079538840800523758 0.0056983046233654022 -0.003824400482699275
v -0.0037192453164607286 0.0048293224535882473 0.0049693221226334572
v -0.002941859420388937 0.0055732582695782185 0.0041221878491342068
v 0.0079881036654114723 -0.003855373477563262 -0.0057634105905890465
v 0.0079886317253112793 -0.0043626492843031883 -0.004633608739823103
v 0.0026285781059414148 0.0053471648134291172 -0.020592575892806053
v 0.0013249269686639309 0.0080073922872543335 -0.017841188237071037
v 0.0066086654551327229 -0.0058700805529952049 -0.016383787617087364
v -0.0017174585955217481 0.0015580003382638097 0.006759157869964838
v 0.0081377504393458366 -0.00040339498082175851 -0.0075255944393575191
v 0.0079886280000209808 0.0005171797820366919 -0.0068585867993533611
v 0.0018353419145569205 0.0024760423693805933 0.006477604154497385
v 0.0079894093796610832 -0.0025365238543599844 -0.0001120125234592706
v 0.0079933479428291321 0.0033935371320694685 -0.0071804607287049294
v 9.5915333076845855e-05 -0.0031462681945413351 -0.022182842716574669
v 0.0024502533487975597 -0.0017190040089190006 -0.021502433344721794
v 0.0035733431577682495 -0.0027025912422686815 -0.020795809105038643
v 0.0024265239480882883 -0.0034457154106348753 -0.021699128672480583
v 0.0037009702064096928 0.0068302052095532417 -0.012023278512060642
v -0.0016530718421563506 -0.0060784961096942425 0.0026636039838194847
v -0.00024027243489399552 -0.0062460633926093578 0.0020503806881606579
v 0.0028036348521709442 -0.005932303611189127 0.0030958824791014194
v 0.0032904432155191898 -0.0055390242487192154 0.0040722419507801533
v 0.00042489933548495173 0.0066185402683913708 0.0020594431553035975
v -0.00077713740756735206 0.0062291696667671204 0.0030413435306400061
v 0.00058811291819438338 0.005904854740947485 0.0036315848119556904
v 0.0020252119284123182 0.00757606141269207 -0.015593051910400391
v 0.0031587572302669287 0.0067543559707701206 0.0015511551173403859
v 0.0017104996368288994 0.006849345751106739 0.00099221628624945879
v 0.0037770622875541449 0.0055864579044282436 -0.020078646019101143
v 0.0074325413443148136 -0.0062089134007692337 -0.0072502181865274906
v 0.0067566209472715855 -0.0081207100301980972 -0.0095819476991891861
v 0.0079903276637196541 -0.0028041354380548 -0.010276629589498043
v 0.0064472421072423458 -0.009140784852206707 -0.010212012566626072
v 0.0060141035355627537 -0.0098327985033392906 -0.011276539415121078
v -0.0035401612985879183 0.0083705009892582893 -0.016811443492770195
v -0.0048129837960004807 0.0079894876107573509 -0.017236996442079544
v -0.00097491219639778137 -0.0019259343389421701 0.006674294825643301
v -0.0011149706551805139 -0.0001015852831187658 0.0069430279545485973
v -0.0027055593673139811 -0.0012225523823872209 0.0068390639498829842
v 0.0079866042360663414 0.0024791816249489784 -0.00042132433736696839
v -0.0070721670053899288 -0.0061262850649654865 -0.017853699624538422
v -0.0073454794473946095 -0.0059546958655118942 -0.016245149075984955
v -0.0045109102502465248 -0.0084188655018806458 -0.013641325756907463
v 0.0079825101420283318 0.0033363918773829937 -0.0059299105778336525
v -0.00047557317884638906 -0.0088405972346663475 -0.013733348809182644
v 0.0024542710743844509 -0.0087972544133663177 -0.016009876504540443
v 0.0046303798444569111 -0.0091598266735672951 -0.01520511694252491
v 0.0011018669465556741 -0.0048643522895872593 0.0049704760313034058
v -0.0025874164421111345 -0.0083911865949630737 -0.015130996704101562
v -0.0012290728045627475 -0.0085910409688949585 -0.014795978553593159
v -0.0040436303243041039 0.0057074637152254581 -0.018790209665894508
v 0.001338022411800921 -0.0086068417876958847 -0.016450677067041397
v -0.0056623518466949463 -0.0083885937929153442 -0.013045699335634708
v -0.0054408865980803967 -0.0081894444301724434 -0.014456044882535934
v 0.007986113429069519 -0.00051755184540525079 -0.006311425007879734
v -0.0035221311263740063 -0.0060884640552103519 0.002655446995049715
v -0.0041698934510350227 -0.0056368294171988964 0.0038819604087620974
v -0.0078528877347707748 -0.0076624914072453976 0.0010612026089802384
v -0.0064211520366370678 -0.0076895030215382576 0.0010722867446020246
v -0.0040023354813456535 -0.0048310025595128536 0.00500843720510602
v 0.004911491647362709 -0.0047169388271868229 0.0051114186644554138
v 0.0068666846491396427 0.0019393141847103834 -0.016013626009225845
v 0.0079852212220430374 0.0019199034431949258 -0.0051385685801506042
v 0.0071736136451363564 0.00064466736512258649 -0.015480630099773407
v 0.0058707166463136673 -0.0088408235460519791 -0.0044316430576145649
v 0.0046538743190467358 -0.0091236624866724014 -0.0054164729081094265
v -0.004691349808126688 0.00041017268085852265 -0.0089478995651006699
v -0.0080110048875212669 -9.3835282314103097e-05 0.0024166407529264688
v -0.0080114537850022316 -0.0019427761435508728 -0.001628463389351964
v -0.0080119287595152855 0.0013148726429790258 0.0019502751529216766
v -0.0080113103613257408 0.00090589665342122316 0.0030673239380121231
v -0.0018820506520569324 -0.0086936792358756065 -0.013700822368264198
v -0.0057868682779371738 0.0078696906566619873 -0.0133119011297822
v -0.0046875891275703907 0.0077588753774762154 -0.01216062530875206
v 0.0046333963982760906 -0.00056100793881341815 -0.019409127533435822
v 0.0079886782914400101 0.0014444977277889848 0.0038379891775548458
v -0.0056350426748394966 -0.0039131268858909607 0.0057504824362695217
v -0.005164263304322958 0.006369470153003931 -0.010332517325878143
v -0.0057322056964039803 0.0069038947112858295 -0.011782723478972912
v 0.0030361805111169815 0.0070784520357847214 -0.013138263486325741
v -0.000959309923928231 0.0040569249540567398 0.0056209149770438671
v -0.0021221395581960678 0.0049789473414421082 0.0048191887326538563
v 0.0079878950491547585 -0.0029367981478571892 -0.0049635977484285831
v 0.0079919081181287766 -0.0047524566762149334 0.0035542505793273449
v 0.0079910354688763618 -0.0041043739765882492 0.0020840410143136978
v -0.0066423225216567516 -0.0076529183425009251 -0.012475151568651199
v -0.007150349672883749 -0.0079349968582391739 -0.013913660310208797
v 0.0079847006127238274 0.0032202184665948153 -0.0046382215805351734
v -0.0053362511098384857 0.004054380115121603 0.0056214937940239906
v -0.0065344641916453838 0.0040398072451353073 0.0056872814893722534
v -0.0065963501110672951 0.0030484027229249477 0.0062777684070169926
v 0.0072935847565531731 -0.0043061808682978153 -0.013950007036328316
v -0.0052290735766291618 -0.0011950315674766898 -0.019400393590331078
v -0.0060841585509479046 -0.001428865478374064 -0.018179694190621376
v -0.0058536683209240437 -0.00038764294004067779 -0.018232913687825203
v 0.0079897260293364525 -0.00038685181061737239 0.0040152515284717083
v 0.0079887565225362778 0.0005037094815634191 0.0026382964570075274
v 0.00798809714615345 0.00099175458308309317 0.0015268090646713972
v 0.0051643066108226776 0.0053379260934889317 -0.0069329226389527321
v -0.0063484259881079197 0.0039844419807195663 -0.0057300562039017677
v -0.00024187917006202042 0.0045111286453902721 -0.020918348804116249
v 0.00063630414661020041 0.0029945964924991131 -0.021220430731773376
v 0.007986702024936676 0.00085197453154250979 -0.0025980598293244839
v -0.0049210423603653908 0.0025289331097155809 0.0064575616270303726
v -0.0033206811640411615 0.0020089298486709595 0.0066398922353982925
v 0.0075650457292795181 0.0069620632566511631 -0.0003364648437127471
v 0.0074295005761086941 0.0066991094499826431 -0.0019310450879856944
v 0.002387740183621645 0.0077295321971178055 -0.01681104488670826
v 0.0014863222604617476 0.0082114534452557564 -0.020407011732459068
v 0.00061954627744853497 8.6205182014964521e-05 0.006943986751139164
v 0.00012079023872502148 -0.0010178142692893744 0.0068700416013598442
v 0.0023541136179119349 -0.0030687365215271711 0.0062413769774138927
v 0.0079905539751052856 -0.00081366195809096098 0.0056954431347548962
v 0.0079898610711097717 -0.0021437921095639467 0.001743623404763639
v 0.0079886987805366516 -0.00096853577997535467 0.0002573602250777185
v 0.008571624755859375 0.0059670316986739635 -0.009988478384912014
v -0.004705491941422224 -0.0026086526922881603 0.0064448886550962925
v -0.0053446120582520962 -0.0014404531102627516 0.0067964466288685799
v 0.0010248692706227303 0.0077978111803531647 -0.016311181709170341
v 0.0079909637570381165 -0.0030945541802793741 0.0034035155549645424
v 0.0079908296465873718 -0.0020360739436000586 0.0046242452226579189
v 0.007992355152964592 -0.0037727304734289646 0.0051381024532020092
v 0.0060696485452353954 -0.0084592010825872421 -0.0016066264361143112
v 0.0049417451955378056 -0.0085531054064631462 -0.00088375143241137266
v 0.0049109938554465771 -0.0085594030097126961 -0.0025115781463682652
v 0.0021067338529974222 -0.0094134937971830368 -0.011876603588461876
v 0.0079871043562889099 0.0010238167596980929 -0.0012107553193345666
v 0.0079860426485538483 0.0023774125147610903 -0.0021458014380186796
v 0.0079878037795424461 0.0007055297028273344 0.00027319169021211565
v -0.00071810901863500476 -0.0070869582705199718 -0.0024854205548763275
v -0.0011089604813605547 -0.0069820238277316093 -0.0024321640376001596
v 0.0034115908201783895 -0.0083752647042274475 -0.0015725903213024139
v 0.0013229069299995899 -0.0082006761804223061 -0.0023749887477606535
v 0.0020712411496788263 -0.0094593875110149384 -0.0067579797469079494
v -0.00043844419997185469 -0.0082966145128011703 -0.0024959137663245201
v -0.00099863600917160511 -0.0069069629535079002 -0.0017122518038377166
v 0.0075259879231452942 0.0016379498410969973 -0.014928190968930721
v 0.000350826361682266 -0.0068281409330666065 -0.001091700280085206
v 0.00024183221103157848 -0.0071852952241897583 -0.002520727226510644
v -0.005724690854549408 -0.0049825664609670639 -0.01989329420030117
v -0.0074266707524657249 -0.0075233769603073597 -0.0048656831495463848
v -0.0062520424835383892 -0.0063527738675475121 -0.012417617253959179
v 0.0045532672666013241 -0.006230219267308712 0.0020166728645563126
v 0.004478145856410265 -0.009374033659696579 -0.0067888172343373299
v -0.0033542816527187824 -0.0047683333978056908 -0.021749112755060196
v -0.0018307658610865474 -0.0046495064161717892 -0.022257989272475243
v 0.0079887928441166878 -0.00030333385802805424 0.0015224538510665298
v 0.0079894727095961571 -0.00082197756273671985 0.0026484921108931303
v -0.0074892276898026466 -0.0071655553765594959 -0.015291693620383739
v 0.0044650677591562271 -0.0052394033409655094 -0.019692573696374893
v 0.0035745319910347462 -0.0046300683170557022 -0.02086290717124939
v 0.0031379566062241793 -0.0095600392669439316 -0.0073844399303197861
v -0.0014774873852729797 -0.0032835635356605053 0.0061307256110012531
v -0.0068039186298847198 -0.00052614207379519939 -0.0069595891982316971
v -0.0066294274292886257 0.0011490019969642162 -0.0068923244252800941
v 0.007990177720785141 -0.0017103106947615743 0.0032870620489120483
v 0.0036245600786060095 -0.006095563992857933 -0.021015701815485954
v -0.00221606669947505 0.0083906659856438637 -0.017843922600150108
v -0.003694737795740366 0.0083763552829623222 -0.018499338999390602
v -0.00027332789613865316 0.0075500817038118839 -0.013857786543667316
v -0.001411551027558744 0.0078339800238609314 -0.014874562621116638
v -0.0057881437242031097 -0.0073241814970970154 -0.011263281106948853
v -0.00038547016447409987 0.0081177316606044769 -0.017369693145155907
v 0.0041151037439703941 0.0062703881412744522 -0.0087672946974635124
v -0.0019120696233585477 0.0058298376388847828 0.0037495356518775225
v -0.0020585951860994101 0.0064654177986085415 0.0024986891075968742
v -0.0028984588570892811 0.0061223767697811127 0.0032491665333509445
v 0.0029094575438648462 -0.0096656931564211845 -0.010830912739038467
v 0.0043966909870505333 -0.0098006734624505043 -0.010994107462465763
v 0.0023177985567599535 -0.0098051782697439194 -0.0095447245985269547
v -0.0046906359493732452 0.0018076951382681727 -0.0087366020306944847
v 0.0019465606892481446 0.0067369290627539158 -0.010234484449028969
v 0.0023847306147217751 0.00693120202049613 -0.011762123554944992
v 0.0061526172794401646 -0.0094173857942223549 -0.012613290920853615
v -0.0022694705985486507 0.0074475160799920559 -0.011845042929053307
v -0.00081180804409086704 0.0073680044151842594 -0.012338683940470219
v -0.0021903335582464933 0.0064086392521858215 -0.0024527057539671659
v -0.0045305667445063591 0.0067283352836966515 -0.00088975107064470649
v -0.0035579914692789316 0.0075021819211542606 -0.011309935711324215
v -0.0023300473112612963 0.0068359533324837685 0.0011033924529328942
v 0.0030203764326870441 0.0068547395057976246 5.3739306167699397e-05
v 0.0053538409993052483 -0.0096616679802536964 -0.0095812734216451645
v 0.0074719637632369995 0.0029652651865035295 -0.015057455748319626
v 0.0065091731958091259 -0.0091691482812166214 -0.0090532358735799789
v 0.0058157043531537056 -0.0093205207958817482 -0.0078261392191052437
v -0.0026411435101181269 -0.0032621577847748995 -0.021754099056124687
v -0.0080147655680775642 0.0060911481268703938 0.00077189441071823239
v -0.0076495897956192493 0.0066648349165916443 0.0019823790062218904
v -0.0022360479924827814 -0.0024358814116567373 0.0065107541158795357
v 0.00054249691311269999 0.00044325832277536392 -0.021616086363792419
v 1.3043180842942093e-05 0.0013331436784937978 -0.021476075053215027
v 0.0016536404145881534 0.0012227558763697743 -0.021370368078351021
v 0.0079856505617499352 0.002093898830935359 -0.0036738358903676271
v 0.0068711438216269016 -0.0033785402774810791 0.0061291162855923176
v 0.00021921809820923954 0.0070914602838456631 -0.020573657006025314
v -0.0043398179113864899 0.0037513482384383678 -0.019012145698070526
v -0.0053969942964613438 0.0035049912985414267 -0.017683042213320732
v 0.0042557385750114918 0.0028978637419641018 -0.019824689254164696
v 0.0041964547708630562 0.0015882492298260331 -0.019943200051784515
v 0.0031177408527582884 0.0024371452163904905 -0.020752709358930588
v 0.0062203207053244114 0.0069281095638871193 -0.00061380252009257674
v 0.0068638813681900501 0.0069023203104734421 0.00091160245938226581
v 0.0048241042532026768 0.0039613493718206882 -0.019101977348327637
v 0.0037095232401043177 0.0041622989811003208 -0.020240124315023422
v 0.0023200521245598793 -0.0052835922688245773 -0.021948834881186485
v 0.007987690158188343 0.0038794768042862415 0.0047376644797623158
v -0.0017926485743373632 -0.0094545623287558556 -0.0089517887681722641
v -0.0061242915689945221 0.0014955365331843495 0.0068038841709494591
v 0.00063361565116792917 0.0070778224617242813 -0.011492151767015457
v -0.0043489229865372181 0.0018752705072984099 -0.019501285627484322
v -0.0034880784805864096 0.002745077246800065 -0.020001772791147232
v -0.0080129886046051979 0.0030082433950155973 0.0015298955840989947
v -0.0050106015987694263 0.0065056141465902328 0.0023859958164393902
v -0.0017511635087430477 0.0080898711457848549 -0.016260132193565369
v -0.00028373149689286947 0.0078213829547166824 -0.0155657809227705
v 0.0044500483199954033 -0.0063308095559477806 -0.019742066040635109
v 0.005833722185343504 0.0062794680707156658 0.0029285138007253408
v 0.00022743541921954602 0.0073153050616383553 -0.012715842574834824
v -0.0040973643772304058 -0.0011832847958430648 -0.020483562722802162
v -0.0040585873648524284 0.00029458440258167684 -0.020155305042862892
v -0.004968185443431139 0.0021184894721955061 -0.010183454491198063
v 0.00045136897824704647 0.0068069505505263805 -0.0096551952883601189
v -0.0033995015546679497 0.0062808813527226448 -0.0030343055259436369
v -0.0035987927112728357 0.0072851488366723061 -0.0099100098013877869
v -0.0047129588201642036 0.0075194383971393108 -0.010626635514199734
v -0.0060309050604701042 -0.0024939530994743109 -0.018657533451914787
v -0.0031746660824865103 0.006627530325204134 -0.0014060429530218244
v -0.0039952322840690613 -0.0035121794790029526 -0.021104572340846062
v -0.004663537722080946 -0.0049266540445387363 -0.020946694537997246
v 0.0023036152124404907 -3.7273588532116264e-05 0.0069423173554241657
v 0.0028329400811344385 0.0014043836854398251 0.0067928428761661053
v 0.0045118313282728195 0.0059930901043117046 0.0034847045317292213
v 0.005804428830742836 0.0054930346086621284 0.0042497017420828342
v 0.0019180687377229333 0.002606172813102603 -0.021124869585037231
v 0.0050384253263473511 -0.0019981991499662399 0.0066483337432146072
v 0.00085801264503970742 0.0047541973181068897 0.0050386162474751472
v -0.0029365888331085443 0.00046729462337680161 0.0069273384287953377
v -0.004252974409610033 -0.00048217989387921989 0.0069267950020730495
v 0.0084118060767650604 -0.00026260089362040162 -0.0088407024741172791
v 0.0082753617316484451 -0.0015792661579325795 -0.0082301534712314606
v 0.0087309824302792549 0.0064161871559917927 -0.012844170443713665
v 0.0059488723054528236 0.0067043565213680267 0.0017578934784978628
v 0.0089510576799511909 0.0056571643799543381 -0.013940720818936825
v 0.0081019150093197823 0.0066033289767801762 -0.014058980159461498
v -0.0010004987707361579 0.0058238436467945576 -0.020528996363282204
v -0.0019943851511925459 0.0064296186901628971 -0.020048441365361214
v 0.0079817045480012894 -0.003960280679166317 -0.0069018490612506866
v 0.0036867130547761917 0.00043231071322225034 0.0069272550754249096
v -0.0045515242964029312 0.0010044360533356667 0.0068655158393085003
v 0.0090545183047652245 0.0025528722908347845 -0.012949598021805286
v 0.0024714011233299971 -0.00024898385163396597 -0.021327894181013107
v 0.00107454729732126 -0.00066514272475615144 -0.021729838103055954
v -0.0076175304129719734 0.0040596514008939266 0.005642713513225317
v -0.0037779076956212521 -0.0036160496529191732 0.0059429826214909554
v -0.0026392403524369001 -0.0032570688053965569 0.0061455834656953812
v -0.0033641287591308355 -0.0024663878139108419 0.0064974217675626278
v -0.0054028970189392567 -0.0027001518756151199 -0.019628655165433884
v 0.0042940261773765087 0.0049396799877285957 0.0048595983535051346
v 0.0025936842430382967 0.0048484606668353081 0.0049508311785757542
v 0.0049689891748130322 0.00026267510838806629 0.0069374502636492252
v 0.0032902006059885025 0.00074746547034010291 -0.020807830616831779
v -0.0033818299416452646 0.0049517150036990643 -0.019554581493139267
v -0.0068838861770927906 -0.005887763574719429 -0.014300812967121601
v -0.0016356853302568197 0.0042281649075448513 -0.020642369985580444
v -0.0023643916938453913 0.0052537950687110424 -0.020117264240980148
v -0.0066364947706460953 0.0048470301553606987 0.0050126961432397366
v 0.0011540398700162768 -0.0024517502170056105 -0.021968964487314224
v -0.0040717958472669125 -0.0016420823521912098 0.0067506507039070129
v 0.0046538561582565308 -0.0062913843430578709 -0.019441194832324982
v -0.0045715472660958767 -0.002388219116255641 -0.020392492413520813
v -0.0029513847548514605 0.0039094937965273857 -0.020085686817765236
v 0.005690175574272871 -0.00094694748986512423 0.0068750292994081974
v -0.004266651812940836 0.0071598622016608715 -0.0090825064107775688
v -0.0039824587292969227 0.0084475241601467133 -0.018183112144470215
v -0.0052159605547785759 0.00060906476574018598 -0.018886027857661247
v -0.0029876292683184147 0.0061914911493659019 -0.019545163959264755
v -0.0068809469230473042 0.0059222211129963398 0.0036808410659432411
v -0.0059365518391132355 -0.0037363085430115461 -0.01922118291258812
v -0.0053023365326225758 0.0021819141693413258 -0.018275065347552299
v -0.00086083344649523497 0.0033143945038318634 -0.021021997556090355
v -0.0064133298583328724 -0.00078810378909111023 -0.017143925651907921
v 0.0080542098730802536 -0.0028035892173647881 -0.0076032280921936035
v 0.0082697346806526184 -0.0015560609754174948 -0.0095958607271313667
v 0.0037887236103415489 -0.0084417099133133888 -0.0014626627089455724
v 0.0029605110175907612 -0.0084957312792539597 -0.0022154676262289286
v 0.0048625566996634007 0.0051609547808766365 -0.0068738991394639015
v 0.0022237091325223446 0.0037444578483700752 -0.02090628445148468
v -0.0044551216997206211 0.0059505044482648373 -0.0092789912596344948
v 0.0079239159822463989 0.0067684012465178967 0.00091084954328835011
v 0.0039923917502164841 -0.00092026521451771259 0.0068807504139840603
v -0.0062171374447643757 0.0064763789996504784 0.0025766929611563683
v -0.0046613463200628757 -0.0065166507847607136 0.0013381761964410543
v 0.0083555104210972786 -0.00022879510652273893 -0.010472473688423634
v 0.0085994238033890724 0.00043935072608292103 -0.011968847364187241
v 0.0036588725633919239 -0.00088232324924319983 -0.020619500428438187
v 0.0079864822328090668 -0.0016264469595625997 -0.00695001520216465
v 0.0079873483628034592 -0.002811904763802886 -0.0063071497716009617
v -0.0080116810277104378 0.00015256689221132547 0.00089119828771799803
v -0.0080101452767848969 -0.00018770949100144207 0.0046857879497110844
v -0.0080106640234589577 3.0095472538960166e-05 0.0035572852939367294
v -0.0054066125303506851 -0.0013692078646272421 -0.010895288549363613
v -0.0035293865948915482 0.0066096861846745014 0.0020839786157011986
v -0.0059700151905417442 0.0025093958247452974 -0.016863174736499786
v -0.0050887591205537319 -0.0037069381214678288 -0.020253140479326248
v -0.0058751697652041912 0.0039832200855016708 -0.016460167244076729
v -0.0073951957747340202 -0.0073837907984852791 -0.01691003143787384
v -0.0038693586830049753 0.005599138792604208 -0.0071458835154771805
v -0.0007170502794906497 0.0053643085993826389 0.0043929084204137325
v 0.0079893171787261963 -0.0048332433216273785 -0.0034404215402901173
v 0.0044256830587983131 -0.0019893166609108448 -0.019708827137947083
v 0.0041649946942925453 0.00033089853241108358 -0.020015869289636612
v 0.0053052729927003384 -0.0075811799615621567 9.2852678790222853e-05
v 0.0088267289102077484 0.0023646908812224865 -0.014533372595906258
v -0.0058122803457081318 -5.5419037380488589e-05 0.0069422358646988869
v -0.0048409802839159966 0.0010016871383413672 -0.0097400723025202751
v -0.006202679593116045 -0.0011826785048469901 -0.013034665957093239
v -0.0051161316223442554 0.0033492152579128742 -0.010691839270293713
v 0.0062932451255619526 -0.0035512608010321856 -0.016844660043716431
v 0.0093256719410419464 0.0038757671136409044 -0.01339607872068882
v 0.0064416816458106041 -0.0044532888568937778 0.0053917495533823967
v 0.007975403219461441 0.0060418043285608292 -0.0032556031364947557
v -0.0040695038624107838 -0.0082848090678453445 -0.014790503308176994
v 0.0073586879298090935 -0.0052478183060884476 0.0046229781582951546
v -0.0080096106976270676 -0.00030561795574612916 0.0059845056384801865
v 0.0016317247645929456 -0.0069345459342002869 -0.0022145954426378012
f 1 2 3
f 4 5 6
f 7 8 9
f 10 11 12
f 13 14 15
f 16 17 18
f 13 19 14
f 20 21 22
f 23 24 25
f 26 27 28
f 29 30 31
f 32 33 34
f 35 36 37
f 38 39 40
f 41 42 37
f 43 44 45
f 46 47 48
f 49 50 51
f 52 53 54
f 55 56 57
f 58 59 60
f 61 62 12
f 63 64 65
f 66 67 68
f 28 69 26
f 70 71 54
f 35 72 73
f 66 74 75
f 76 55 77
f 70 78 79
f 80 77 57
f 57 81 82
f 74 83 80
f 77 55 57
f 84 85 86
f 87 88 89
f 90 91 92
f 93 94 23
f 95 96 97
f 51 98 49
f 99 100 1
f 59 101 102
f 103 104 105
f 106 107 4
f 108 109 110
f 111 112 113
f 114 7 115
f 116 115 117
f 117 118 116
f 119 120 121
f 122 123 124
f 125 126 127
f 128 119 129
f 16 130 131
f 132 133 134
f 128 135 119
f 136 129 137
f 138 67 139
f 140 141 142
f 143 140 122
f 144 145 146
f 144 141 143
f 147 148 149
f 116 118 123
f 150 151 152
f 143 122 121
f 153 116 123
f 121 122 124
f 154 5 155
f 156 157 158
f 159 160 161
f 162 163 164
f 131 130 165
f 16 166 17
f 167 168 169
f 170 171 172
f 173 174 175
f 176 177 51
f 178 179 161
f 42 72 35
f 180 181 81
f 182 183 184
f 185 186 13
f 187 188 189
f 190 191 155
f 192 193 194
f 195 196 197
f 198 199 200
f 102 201 59
f 202 203 204
f 205 206 207
f 208 209 210
f 209 211 210
f 212 213 214
f 215 216 203
f 217 218 219
f 220 195 221
f 217 219 221
f 222 223 224
f 225 222 224
f 212 226 227
f 162 228 229
f 230 231 227
f 209 208 232
f 233 205 234
f 146 235 152
f 225 198 213
f 198 200 202
f 236 222 237
f 238 239 240
f 241 196 220
f 202 242 213
f 243 244 245
f 246 206 247
f 248 224 246
f 222 236 223
f 234 249 233
f 203 202 200
f 250 251 199
f 223 219 252
f 104 253 254
f 185 255 256
f 257 258 259
f 260 261 262
f 263 264 265
f 266 267 268
f 269 24 270
f 271 272 273
f 92 274 275
f 276 277 163
f 278 279 280
f 281 282 283
f 230 226 284
f 285 286 287
f 288 289 290
f 291 292 293
f 288 58 60
f 294 152 235
f 295 296 297
f 298 299 167
f 300 301 302
f 303 304 305
f 37 306 39
f 306 40 39
f 307 126 308
f 309 310 311
f 312 313 314
f 315 316 317
f 318 319 317
f 320 10 12
f 321 322 323
f 324 325 326
f 321 323 327
f 328 329 68
f 67 138 68
f 330 331 332
f 2 1 139
f 132 18 333
f 287 334 285
f 335 257 336
f 337 338 257
f 112 291 293
f 285 334 339
f 340 341 342
f 343 344 345
f 346 347 348
f 349 350 346
f 351 352 349
f 353 354 355
f 352 350 349
f 352 356 350
f 357 358 359
f 360 361 362
f 363 364 365
f 366 354 367
f 368 369 370
f 128 136 371
f 145 121 120
f 372 373 374
f 123 118 124
f 72 45 180
f 375 247 376
f 308 126 125
f 377 378 379
f 379 380 377
f 381 382 383
f 273 384 274
f 104 103 253
f 85 238 385
f 386 158 387
f 138 388 389
f 390 312 391
f 392 391 312
f 271 92 393
f 394 387 395
f 396 397 398
f 399 191 190
f 400 401 273
f 19 186 402
f 403 404 405
f 406 407 408
f 409 410 411
f 266 155 412
f 338 413 414
f 297 414 415
f 416 307 417
f 266 418 190
f 96 95 419
f 419 4 107
f 381 420 382
f 18 130 16
f 421 339 422
f 288 286 339
f 423 424 287
f 339 286 285
f 425 426 427
f 428 429 430
f 372 431 432
f 170 433 171
f 434 160 435
f 427 316 425
f 384 401 342
f 436 9 437
f 438 385 439
f 440 289 441
f 442 443 444
f 445 38 446
f 150 294 447
f 448 449 437
f 20 438 439
f 450 451 452
f 91 453 454
f 455 412 95
f 169 168 456
f 168 383 382
f 457 458 459
f 460 461 462
f 463 464 465
f 177 40 98
f 466 467 468
f 96 469 470
f 206 246 207
f 471 469 472
f 473 474 475
f 379 476 477
f 476 379 378
f 473 478 479
f 8 448 437
f 480 481 482
f 483 484 485
f 384 273 401
f 91 393 92
f 11 10 486
f 103 487 488
f 17 166 489
f 25 93 23
f 490 8 271
f 491 492 69
f 493 90 451
f 494 495 496
f 497 498 499
f 497 500 501
f 502 503 504
f 374 505 372
f 506 465 507
f 394 503 502
f 150 152 294
f 508 394 502
f 275 414 413
f 509 510 511
f 502 489 166
f 512 417 111
f 340 399 297
f 513 514 515
f 477 516 380
f 517 518 519
f 519 520 521
f 522 523 524
f 28 491 69
f 525 46 526
f 372 527 88
f 467 528 404
f 466 50 49
f 529 228 162
f 530 531 532
f 533 534 535
f 536 263 109
f 537 538 529
f 539 468 467
f 540 378 479
f 153 123 541
f 542 543 544
f 477 476 545
f 546 547 548
f 473 469 474
f 549 471 472
f 469 479 472
f 550 542 334
f 419 474 96
f 473 479 469
f 377 472 378
f 479 378 472
f 377 549 472
f 471 470 469
f 378 540 476
f 473 551 552
f 553 153 551
f 173 182 554
f 555 556 426
f 557 558 559
f 426 556 486
f 486 560 11
f 561 12 11
f 562 563 396
f 564 565 566
f 567 568 569
f 48 526 46
f 565 564 570
f 169 571 298
f 572 573 398
f 184 183 104
f 574 575 576
f 365 369 368
f 366 367 577
f 364 578 369
f 570 579 567
f 580 345 581
f 582 583 370
f 356 352 26
f 584 585 586
f 534 533 577
f 186 256 587
f 588 589 590
f 588 591 532
f 588 592 593
f 594 164 595
f 596 595 597
f 595 277 598
f 599 590 164
f 599 594 600
f 522 524 601
f 601 594 596
f 598 597 595
f 597 602 280
f 388 100 309
f 388 311 389
f 603 604 605
f 606 607 608
f 609 610 611
f 612 613 614
f 615 481 607
f 607 481 608
f 302 301 616
f 158 386 156
f 331 617 332
f 177 391 392
f 618 619 620
f 307 416 621
f 622 623 624
f 625 626 627
f 628 629 624
f 622 624 629
f 627 623 295
f 630 627 295
f 631 632 633
f 634 635 636
f 586 637 638
f 119 135 120
f 423 639 261
f 640 641 410
f 87 585 88
f 308 417 307
f 642 643 73
f 388 309 311
f 430 105 644
f 8 7 272
f 488 110 645
f 129 124 118
f 137 118 117
f 389 646 138
f 468 50 466
f 647 463 506
f 648 269 649
f 270 649 269
f 465 650 507
f 23 157 156
f 402 587 503
f 399 295 297
f 50 31 651
f 652 24 130
f 653 620 619
f 654 655 656
f 539 31 468
f 587 657 503
f 247 375 408
f 155 5 412
f 85 449 86
f 658 438 659
f 610 609 660
f 609 20 22
f 149 661 660
f 662 663 664
f 357 255 665
f 302 666 667
f 194 193 666
f 174 668 175
f 244 243 491
f 75 2 66
f 61 510 53
f 57 56 669
f 82 75 80
f 81 670 82
f 74 70 83
f 57 82 80
f 83 70 671
f 71 70 74
f 81 57 669
f 73 72 669
f 3 672 673
f 674 675 243
f 609 611 659
f 676 677 678
f 205 233 134
f 126 307 679
f 535 538 680
f 362 344 343
f 681 360 533
f 627 682 625
f 32 34 629
f 652 18 683
f 684 283 322
f 652 270 24
f 523 521 524
f 327 323 685
f 327 685 518
f 686 327 518
f 325 321 326
f 323 322 283
f 481 687 482
f 688 281 689
f 32 628 684
f 601 524 520
f 264 690 188
f 323 691 685
f 685 691 519
f 682 692 693
f 592 281 688
f 6 342 401
f 405 694 649
f 51 50 651
f 695 696 371
f 607 611 615
f 137 697 698
f 128 603 135
f 603 605 135
f 699 696 606
f 149 700 612
f 31 50 468
f 95 412 419
f 579 15 14
f 568 567 579
f 565 701 561
f 560 486 556
f 579 554 15
f 702 270 683
f 14 568 579
f 182 15 554
f 561 701 703
f 43 704 705
f 454 239 490
f 337 413 338
f 299 706 167
f 115 116 553
f 541 140 142
f 334 424 550
f 547 550 545
f 540 479 478
f 144 707 141
f 552 541 708
f 552 551 153
f 542 544 334
f 548 142 546
f 435 709 710
f 144 146 151
f 553 116 153
f 542 546 543
f 592 599 600
f 711 628 626
f 684 628 711
f 520 691 282
f 32 684 322
f 593 592 688
f 283 684 689
f 590 599 588
f 599 164 594
f 211 712 713
f 440 230 262
f 187 492 491
f 306 37 36
f 522 597 280
f 522 280 523
f 408 407 251
f 559 558 714
f 416 512 715
f 307 621 679
f 599 592 588
f 605 604 716
f 383 268 381
f 63 717 718
f 357 719 256
f 483 720 721
f 643 642 722
f 723 390 391
f 270 702 405
f 724 723 391
f 414 275 415
f 465 506 463
f 405 649 270
f 29 31 539
f 692 725 726
f 513 727 132
f 728 729 730
f 52 329 320
f 329 52 731
f 732 733 734
f 635 676 480
f 431 735 715
f 416 736 737
f 357 665 358
f 375 738 489
f 291 308 292
f 412 455 266
f 516 260 739
f 740 428 741
f 403 742 539
f 562 573 499
f 484 743 744
f 745 125 746
f 38 314 446
f 587 256 719
f 254 747 255
f 748 488 487
f 634 749 750
f 751 632 631
f 504 503 657
f 752 431 505
f 605 235 120
f 698 697 436
f 460 344 461
f 109 108 536
f 724 176 753
f 651 31 754
f 165 23 156
f 186 185 256
f 156 386 755
f 447 756 757
f 747 253 645
f 758 358 665
f 758 665 747
f 759 760 761
f 131 165 156
f 762 763 764
f 737 621 416
f 326 99 324
f 519 518 685
f 327 686 326
f 321 327 326
f 765 32 321
f 752 735 431
f 766 742 767
f 621 737 768
f 297 341 340
f 7 114 400
f 759 724 753
f 445 763 762
f 443 705 704
f 769 770 453
f 331 330 771
f 450 444 772
f 451 337 452
f 442 452 773
f 493 450 774
f 775 439 238
f 698 437 449
f 306 98 40
f 776 511 703
f 775 777 439
f 449 448 86
f 490 86 448
f 444 452 442
f 778 769 774
f 453 774 769
f 210 211 713
f 738 17 489
f 488 748 108
f 224 250 225
f 31 30 754
f 538 779 228
f 114 106 780
f 521 523 279
f 279 319 318
f 318 310 517
f 279 318 521
f 781 461 458
f 755 131 156
f 782 22 617
f 705 783 43
f 613 482 687
f 276 784 785
f 786 736 787
f 457 788 726
f 555 789 790
f 575 791 576
f 41 762 764
f 768 737 786
f 753 786 787
f 176 651 753
f 724 391 177
f 759 761 723
f 481 792 608
f 793 377 794
f 683 727 702
f 355 343 580
f 753 787 795
f 767 513 127
f 796 319 278
f 674 797 798
f 208 799 800
f 754 30 768
f 725 801 781
f 437 9 8
f 110 109 802
f 803 408 375
f 183 173 175
f 408 803 406
f 777 20 439
f 804 805 806
f 721 804 641
f 614 661 612
f 574 807 808
f 335 809 258
f 324 673 808
f 753 651 754
f 48 47 810
f 811 504 812
f 813 324 99
f 766 679 768
f 208 814 815
f 247 248 246
f 134 233 746
f 226 212 214
f 220 236 816
f 224 223 252
f 223 236 221
f 205 207 234
f 817 60 59
f 713 818 210
f 252 219 207
f 245 244 209
f 201 819 241
f 820 218 217
f 574 808 821
f 822 776 701
f 258 809 576
f 800 232 208
f 821 823 824
f 742 29 539
f 785 784 825
f 826 827 58
f 676 828 792
f 171 433 421
f 829 830 831
f 314 392 312
f 130 18 652
f 742 832 767
f 821 824 575
f 786 753 754
f 683 270 652
f 735 752 760
f 786 754 768
f 752 494 760
f 494 833 761
f 108 748 834
f 835 836 189
f 837 838 839
f 766 29 742
f 727 513 832
f 735 795 787
f 745 840 841
f 248 408 251
f 712 244 491
f 377 380 794
f 174 842 843
f 376 247 206
f 260 477 423
f 491 28 712
f 386 387 755
f 844 278 602
f 113 845 111
f 295 399 630
f 624 623 626
f 622 629 34
f 296 623 622
f 622 846 296
f 622 336 846
f 807 325 808
f 809 807 574
f 574 576 809
f 179 178 847
f 848 811 812
f 803 504 406
f 109 265 797
f 563 849 850
f 422 544 851
f 334 287 424
f 422 334 544
f 261 260 423
f 375 489 803
f 852 102 101
f 800 853 232
f 799 854 800
f 855 796 789
f 781 801 418
f 408 248 247
f 112 293 856
f 799 857 359
f 499 858 859
f 138 139 100
f 726 788 530
f 853 800 854
f 797 674 853
f 797 265 798
f 854 802 853
f 134 133 206
f 860 368 370
f 209 232 245
f 815 814 215
f 215 200 861
f 202 204 242
f 796 790 789
f 862 237 227
f 195 662 667
f 816 236 237
f 863 818 864
f 863 203 216
f 218 820 249
f 865 733 732
f 817 201 866
f 867 784 868
f 196 819 197
f 195 217 221
f 793 794 299
f 215 814 216
f 222 225 212
f 840 746 233
f 197 662 195
f 863 204 203
f 820 666 193
f 441 231 440
f 289 60 441
f 244 211 209
f 441 866 862
f 199 198 250
f 86 490 84
f 869 870 464
f 856 871 872
f 741 873 831
f 633 496 874
f 432 431 715
f 505 495 752
f 633 833 496
f 604 699 716
f 410 409 640
f 664 875 300
f 9 436 117
f 420 571 456
f 678 876 877
f 878 648 879
f 387 880 395
f 841 881 293
f 882 883 880
f 387 508 755
f 884 885 536
f 642 73 886
f 653 619 501
f 229 163 162
f 568 882 569
f 214 213 242
f 831 830 741
f 43 783 824
f 647 485 744
f 875 507 638
f 125 515 746
f 870 869 887
f 284 526 305
f 842 566 837
f 744 888 876
f 723 724 759
f 157 94 889
f 301 871 616
f 890 891 831
f 730 729 892
f 673 813 3
f 893 894 895
f 650 870 586
f 865 732 896
f 338 846 336
f 897 301 898
f 584 887 899
f 34 336 622
f 295 623 296
f 737 736 786
f 395 883 19
f 900 839 838
f 805 197 819
f 666 820 667
f 704 764 443
f 104 175 105
f 189 188 690
f 399 340 191
f 901 835 690
f 154 191 340
f 361 457 902
f 903 904 884
f 491 243 187
f 674 245 232
f 799 208 815
f 108 834 536
f 398 830 572
f 905 892 729
f 705 443 442
f 620 906 656
f 442 773 791
f 773 258 791
f 6 154 342
f 435 710 434
f 149 148 700
f 757 907 877
f 554 570 564
f 640 721 641
f 616 871 194
f 892 159 730
f 27 64 63
f 744 743 888
f 870 650 464
f 608 792 894
f 761 760 494
f 854 358 758
f 769 775 770
f 656 790 844
f 174 843 668
f 89 113 872
f 855 789 908
f 319 855 317
f 844 620 656
f 238 84 239
f 909 732 858
f 910 850 835
f 496 495 911
f 864 717 912
f 500 497 572
f 500 572 891
f 105 175 668
f 913 798 264
f 914 849 859
f 870 887 584
f 759 753 795
f 325 807 765
f 566 842 564
f 872 871 897
f 915 901 690
f 584 586 870
f 358 854 799
f 797 853 802
f 633 874 631
f 635 480 482
f 170 172 892
f 170 916 433
f 869 634 636
f 264 915 690
f 825 498 497
f 263 536 885
f 181 44 824
f 670 81 181
f 513 767 832
f 896 917 865
f 704 41 764
f 884 536 834
f 835 849 918
f 396 563 850
f 901 915 904
f 903 884 740
f 382 456 168
f 824 823 181
f 21 20 777
f 608 894 893
f 788 361 681
f 459 362 902
f 68 138 646
f 523 280 279
f 167 583 168
f 859 562 499
f 45 42 704
f 670 823 672
f 645 110 802
f 919 740 741
f 673 672 821
f 367 354 920
f 55 921 886
f 79 922 671
f 901 904 910
f 669 180 81
f 670 672 3
f 42 41 704
f 180 44 181
f 45 704 43
f 638 898 875
f 905 916 170
f 160 172 435
f 161 160 434
f 772 778 774
f 763 331 923
f 739 284 305
f 774 450 772
f 923 924 764
f 375 925 738
f 454 393 91
f 839 873 926
f 864 713 718
f 823 670 181
f 927 204 912
f 792 481 480
f 644 926 428
f 730 743 728
f 810 299 303
f 928 841 292
f 636 635 751
f 810 303 48
f 636 929 869
f 279 278 319
f 613 612 632
f 514 132 134
f 614 610 660
f 101 827 930
f 373 584 899
f 452 259 773
f 136 449 931
f 914 734 347
f 396 903 919
f 175 104 183
f 678 895 828
f 831 873 839
f 278 280 602
f 52 54 71
f 54 510 78
f 74 66 731
f 77 83 671
f 52 71 731
f 841 840 192
f 677 647 876
f 93 932 933
f 933 94 93
f 643 722 466
f 906 653 500
f 850 849 835
f 409 905 728
f 833 494 496
f 276 163 229
f 131 508 166
f 785 619 598
f 377 793 549
f 63 65 717
f 344 459 461
f 460 268 383
f 793 97 471
f 47 860 810
f 934 654 890
f 932 78 933
f 921 76 879
f 509 889 94
f 935 936 921
f 3 813 1
f 142 141 937
f 938 939 144
f 123 122 140
f 141 707 937
f 709 543 937
f 578 940 582
f 106 114 553
f 324 813 673
f 1 813 99
f 414 297 296
f 638 637 898
f 305 48 303
f 881 194 856
f 891 906 500
f 72 42 45
f 190 418 801
f 897 637 87
f 720 485 506
f 929 887 869
f 105 487 103
f 314 38 40
f 158 880 387
f 266 268 462
f 22 21 332
f 201 817 59
f 87 586 585
f 716 893 756
f 268 267 381
f 474 469 96
f 745 841 928
f 293 881 856
f 447 757 150
f 639 286 290
f 798 913 674
f 888 877 876
f 464 650 465
f 407 406 811
f 484 728 743
f 905 729 728
f 483 721 640
f 201 102 941
f 663 662 197
f 396 910 903
f 900 934 890
f 453 770 775
f 836 918 942
f 732 909 896
f 836 835 918
f 136 931 371
f 891 572 829
f 925 375 376
f 868 943 867
f 944 356 492
f 55 76 921
f 671 70 79
f 421 851 171
f 171 435 172
f 44 180 45
f 668 843 644
f 188 187 675
f 282 691 283
f 532 531 945
f 604 603 371
f 226 214 946
f 805 663 197
f 852 941 102
f 899 911 374
f 251 250 248
f 744 485 484
f 333 133 132
f 667 662 302
f 658 659 611
f 898 300 875
f 875 947 720
f 728 484 640
f 638 650 586
f 359 358 799
f 506 485 647
f 267 266 455
f 49 36 948
f 940 581 383
f 608 699 606
f 89 88 527
f 507 875 720
f 8 490 448
f 932 25 878
f 879 922 878
f 347 942 918
f 459 458 461
f 562 396 398
f 949 714 560
f 906 891 654
f 618 844 602
f 566 559 838
f 838 950 900
f 934 655 654
f 397 830 398
f 546 937 543
f 542 550 546
f 547 540 548
f 708 541 142
f 550 547 546
f 545 424 423
f 547 545 476
f 868 229 228
f 348 347 920
f 350 356 944
f 920 354 348
f 22 332 617
f 763 445 951
f 453 240 454
f 772 924 330
f 775 238 453
f 771 923 331
f 450 493 451
f 91 774 453
f 926 843 839
f 572 497 573
f 915 264 263
f 25 932 93
f 952 822 569
f 657 587 719
f 166 16 131
f 100 139 1
f 388 138 100
f 421 433 827
f 437 698 436
f 258 773 259
f 809 33 807
f 922 932 878
f 76 671 922
f 935 879 648
f 351 368 64
f 97 571 95
f 457 361 788
f 692 682 627
f 947 804 721
f 765 321 325
f 792 828 894
f 792 480 676
f 637 586 87
f 571 420 455
f 647 677 463
f 744 876 647
f 822 570 567
f 941 410 806
f 828 895 894
f 333 738 925
f 757 756 907
f 767 679 766
f 676 635 750
f 150 757 953
f 847 743 730
f 728 640 409
f 246 252 207
f 237 862 816
f 316 389 311
f 814 208 210
f 249 234 218
f 861 848 215
f 198 225 250
f 200 199 861
f 218 234 207
f 224 252 246
f 237 212 227
f 193 192 249
f 299 794 303
f 783 575 824
f 814 210 818
f 871 856 194
f 954 810 860
f 410 641 806
f 804 947 663
f 871 301 897
f 56 886 73
f 70 54 78
f 806 805 941
f 941 852 410
f 727 683 132
f 18 132 683
f 302 662 664
f 666 616 194
f 941 819 201
f 841 293 292
f 718 713 712
f 865 534 367
f 192 840 249
f 578 955 581
f 955 364 353
f 348 354 353
f 351 349 365
f 370 954 860
f 944 942 350
f 367 534 577
f 366 343 355
f 580 955 353
f 353 364 363
f 578 582 369
f 47 65 956
f 26 69 356
f 354 366 355
f 167 706 583
f 956 860 47
f 366 360 343
f 497 499 573
f 284 226 946
f 776 703 701
f 558 561 11
f 558 557 561
f 570 701 565
f 425 789 426
f 557 559 566
f 269 648 878
f 656 906 654
f 695 371 931
f 618 620 844
f 867 825 784
f 498 825 867
f 498 858 499
f 918 914 347
f 598 619 618
f 831 891 829
f 748 430 834
f 830 829 572
f 62 320 12
f 511 776 952
f 851 421 422
f 956 368 860
f 548 708 142
f 639 287 286
f 550 424 545
f 957 320 329
f 957 328 427
f 131 755 508
f 158 882 880
f 915 885 904
f 320 53 52
f 309 100 686
f 100 99 686
f 517 519 521
f 420 381 267
f 435 171 851
f 902 362 361
f 788 681 945
f 310 317 311
f 551 475 553
f 651 176 51
f 475 551 473
f 107 474 419
f 475 107 106
f 308 291 417
f 426 957 427
f 204 927 525
f 147 312 390
f 313 951 446
f 478 473 552
f 446 314 313
f 432 715 512
f 390 148 147
f 192 194 881
f 317 908 315
f 569 882 958
f 154 340 342
f 734 914 732
f 611 610 615
f 699 604 696
f 695 658 606
f 615 610 687
f 87 89 897
f 730 159 179
f 106 553 475
f 632 700 633
f 720 483 485
f 677 750 749
f 953 877 888
f 505 374 495
f 749 463 677
f 833 633 959
f 633 700 959
f 946 242 525
f 33 335 34
f 260 262 739
f 330 924 771
f 785 825 501
f 904 903 910
f 732 859 858
f 943 896 909
f 917 779 535
f 944 189 836
f 733 920 734
f 184 104 254
f 514 960 515
f 958 952 569
f 20 659 438
f 659 20 609
f 869 464 749
f 467 722 528
f 115 7 9
f 159 172 160
f 112 111 291
f 733 865 367
f 238 240 453
f 944 836 942
f 674 913 675
f 933 509 94
f 922 79 932
f 933 78 510
f 936 886 921
f 886 936 642
f 36 35 948
f 643 948 35
f 36 49 306
f 937 546 142
f 425 908 789
f 822 567 569
f 11 560 558
f 883 568 14
f 614 613 687
f 10 957 486
f 374 373 899
f 457 726 725
f 329 328 957
f 878 25 269
f 576 791 258
f 345 344 460
f 693 692 726
f 282 281 600
f 626 625 711
f 688 961 593
f 32 629 628
f 693 530 591
f 282 600 601
f 689 684 711
f 477 260 516
f 418 266 462
f 335 258 257
f 723 761 962
f 604 371 696
f 606 658 607
f 756 447 716
f 528 936 935
f 157 889 958
f 532 537 589
f 720 947 721
f 953 888 847
f 872 897 89
f 515 960 746
f 650 638 507
f 389 316 427
f 141 140 143
f 385 238 439
f 145 120 146
f 541 123 140
f 143 121 145
f 313 782 617
f 598 277 276
f 414 846 338
f 882 158 958
f 512 845 432
f 265 109 263
f 264 798 265
f 394 395 402
f 908 317 855
f 959 962 761
f 390 723 962
f 959 761 833
f 942 347 346
f 229 868 784
f 58 101 59
f 372 585 373
f 953 178 150
f 537 680 538
f 112 856 872
f 916 930 827
f 581 460 383
f 892 905 170
f 456 571 169
f 804 806 641
f 821 808 673
f 579 570 554
f 161 179 159
f 656 655 790
f 583 582 940
f 581 940 578
f 362 459 344
f 681 361 360
f 627 630 692
f 624 626 628
f 281 592 600
f 323 283 691
f 961 693 591
f 711 688 689
f 520 524 521
f 591 593 961
f 282 601 520
f 625 961 688
f 33 32 765
f 309 517 310
f 363 346 348
f 369 365 364
f 577 360 366
f 360 577 533
f 353 355 580
f 516 304 380
f 365 349 363
f 927 717 65
f 356 69 492
f 811 861 407
f 47 46 65
f 781 458 457
f 840 233 249
f 460 581 345
f 184 15 182
f 449 136 698
f 954 370 583
f 825 497 501
f 397 919 741
f 946 525 526
f 383 168 940
f 842 174 173
f 765 807 33
f 296 846 414
f 325 324 808
f 371 603 128
f 466 722 467
f 113 527 845
f 695 931 385
f 466 49 948
f 150 178 963
f 186 19 13
f 780 106 4
f 310 318 317
f 338 336 257
f 952 889 509
f 4 419 5
f 788 531 530
f 537 532 945
f 590 529 162
f 177 98 51
f 596 597 522
f 522 601 596
f 911 874 496
f 6 780 4
f 154 6 5
f 291 111 417
f 669 72 180
f 462 461 418
f 954 583 706
f 436 697 117
f 275 90 92
f 37 39 41
f 731 66 68
f 157 23 94
f 778 775 769
f 151 146 152
f 219 223 221
f 144 151 938
f 939 938 434
f 793 471 549
f 946 526 284
f 820 217 667
f 117 697 137
f 230 440 231
f 242 946 214
f 195 220 196
f 201 241 866
f 84 238 85
f 333 376 133
f 290 289 440
f 317 316 311
f 400 114 780
f 68 329 731
f 392 40 177
f 502 166 508
f 353 363 348
f 582 370 369
f 352 351 26
f 364 955 578
f 118 137 129
f 560 714 558
f 588 532 589
f 267 455 420
f 461 781 418
f 515 125 127
f 272 7 400
f 288 60 289
f 272 400 273
f 373 585 584
f 648 694 935
f 938 151 963
f 298 167 169
f 341 384 342
f 780 401 400
f 763 923 764
f 924 772 444
f 136 137 698
f 793 298 97
f 415 275 274
f 74 731 71
f 847 888 743
f 330 21 964
f 308 928 292
f 467 404 403
f 341 297 415
f 274 384 341
f 161 963 178
f 48 305 526
f 932 79 78
f 111 845 512
f 879 935 921
f 951 313 617
f 134 746 960
f 309 686 518
f 589 529 590
f 601 600 594
f 164 590 162
f 532 591 530
f 417 512 416
f 255 185 254
f 65 46 927
f 718 28 27
f 541 552 153
f 184 185 13
f 694 404 528
f 423 477 545
f 548 540 478
f 474 107 475
f 426 789 555
f 566 838 837
f 230 284 739
f 712 28 718
f 90 275 413
f 372 505 431
f 516 739 304
f 955 580 581
f 26 351 64
f 63 718 27
f 345 580 343
f 593 591 588
f 630 801 725
f 719 357 359
f 527 432 845
f 515 127 513
f 488 253 103
f 115 9 117
f 99 326 686
f 26 64 27
f 504 803 502
f 645 758 747
f 385 931 85
f 385 438 658
f 149 782 147
f 22 660 609
f 954 706 810
f 747 665 255
f 184 254 185
f 74 80 75
f 510 54 53
f 76 77 671
f 147 782 313
f 2 75 3
f 959 148 962
f 751 635 482
f 263 885 915
f 313 312 147
f 527 372 432
f 502 803 489
f 739 262 230
f 726 530 693
f 409 916 905
f 129 119 124
f 852 101 930
f 136 128 129
f 120 135 605
f 611 607 658
f 561 557 565
f 41 39 762
f 735 736 715
f 708 478 552
f 961 682 693
f 639 290 440
f 127 126 679
f 316 315 425
f 794 304 303
f 467 403 539
f 913 264 188
f 90 413 337
f 61 53 62
f 68 646 328
f 851 709 435
f 538 535 779
f 690 835 189
f 21 777 964
f 912 717 927
f 824 44 43
f 255 357 256
f 747 254 253
f 716 447 294
f 646 389 427
f 405 702 403
f 24 23 165
f 658 695 385
f 75 82 3
f 442 783 705
f 702 832 403
f 443 764 924
f 125 745 928
f 791 575 783
f 924 923 771
f 645 253 488
f 521 318 517
f 517 309 518
f 470 97 96
f 735 787 736
f 445 762 39
f 495 494 752
f 760 759 795
f 281 283 689
f 165 130 24
f 812 719 359
f 758 645 802
f 359 848 812
f 243 245 674
f 682 961 625
f 861 199 407
f 441 60 817
f 202 213 198
f 203 200 215
f 866 241 220
f 864 912 863
f 204 863 912
f 818 216 814
f 231 441 862
f 832 742 403
f 900 890 831
f 815 215 848
f 716 294 235
f 575 574 821
f 702 727 832
f 735 760 795
f 393 454 271
f 848 857 815
f 826 339 421
f 359 857 848
f 718 717 864
f 537 945 680
f 627 626 623
f 674 232 853
f 12 703 61
f 504 811 406
f 802 109 797
f 956 65 64
f 848 861 811
f 917 896 943
f 866 220 816
f 864 818 713
f 219 218 207
f 820 193 249
f 866 816 862
f 749 464 463
f 635 634 750
f 952 509 511
f 510 509 933
f 184 13 15
f 597 598 602
f 179 847 730
f 421 827 826
f 105 430 748
f 927 46 525
f 172 159 892
f 782 660 22
f 429 834 430
f 161 938 963
f 951 445 446
f 872 113 112
f 781 457 725
f 928 308 125
f 535 534 917
f 739 305 304
f 790 655 555
f 259 337 257
f 852 411 410
f 335 33 809
f 58 288 339
f 276 785 598
f 796 844 790
f 784 276 229
f 917 943 779
f 278 844 796
f 926 873 741
f 40 392 314
f 445 39 38
f 672 823 821
f 916 409 411
f 148 959 700
f 151 150 963
f 924 444 443
f 891 890 654
f 91 493 774
f 490 239 84
f 454 240 239
f 450 452 444
f 343 360 362
f 893 699 608
f 661 614 660
f 741 830 397
f 302 616 666
f 73 643 35
f 722 642 936
f 428 740 429
f 529 589 537
f 228 529 538
f 228 779 868
f 372 88 585
f 748 487 105
f 139 67 2
f 114 115 553
f 709 851 543
f 145 144 143
f 710 709 707
f 707 939 710
f 493 91 90
f 778 777 775
f 706 299 810
f 637 897 898
f 911 899 929
f 653 906 620
f 910 396 850
f 842 837 843
f 855 319 796
f 950 559 714
f 347 734 920
f 429 740 884
f 749 634 869
f 929 636 631
f 632 751 613
f 612 661 149
f 957 426 486
f 301 300 898
f 456 382 420
f 178 953 847
f 907 678 877
f 895 756 893
f 302 664 300
f 699 893 716
f 617 331 951
f 779 943 868
f 914 859 732
f 949 555 655
f 573 562 398
f 740 919 903
f 919 397 396
f 741 428 926
f 945 531 788
f 556 555 949
f 655 934 949
f 851 544 543
f 478 708 548
f 476 540 547
f 12 561 703
f 725 692 630
f 224 248 250
f 930 411 852
f 58 339 826
f 337 259 452
f 337 451 90
f 330 964 772
f 700 632 612
f 895 907 756
f 929 631 874
f 189 944 492
f 929 899 887
f 663 805 804
f 73 669 56
f 805 819 941
f 262 639 440
f 780 6 401
f 304 794 380
f 942 346 350
f 867 943 909
f 501 619 785
f 701 570 822
f 566 565 557
f 867 909 498
f 750 677 676
f 934 950 714
f 766 30 29
f 849 914 918
f 909 858 498
f 835 901 910
f 877 953 757
f 843 926 644
f 173 183 182
f 934 900 950
f 957 10 320
f 67 66 2
f 782 149 660
f 85 931 449
f 958 889 952
f 606 696 695
f 610 614 687
f 481 615 687
f 299 298 793
f 678 907 895
f 484 483 640
f 113 89 527
f 720 506 507
f 678 677 876
f 911 495 374
f 644 105 668
f 653 501 500
f 675 913 188
f 865 917 534
f 920 733 367
f 243 675 187
f 315 908 425
f 839 843 837
f 492 187 189
f 922 879 76
f 560 556 949
f 434 710 939
f 937 707 709
f 776 822 952
f 663 947 664
f 411 930 916
f 64 368 956
f 947 875 664
f 712 211 244
f 535 680 533
f 430 644 428
f 423 287 639
f 688 711 625
f 916 827 433
f 466 948 643
f 936 528 722
f 328 646 427
f 462 268 460
f 681 533 680
f 158 157 958
f 716 235 605
f 598 618 602
f 636 751 631
f 680 945 681
f 859 563 562
f 32 322 321
f 520 519 691
f 583 940 168
f 380 379 477
f 49 98 306
f 402 395 19
f 82 670 3
f 320 62 53
f 883 395 880
f 173 554 564
f 834 429 884
f 148 390 962
f 61 511 510
f 649 694 648
f 587 402 186
f 144 939 707
f 163 595 164
f 61 703 511
f 35 37 42
f 236 220 221
f 441 817 866
f 231 862 227
f 226 230 227
f 818 863 216
f 266 190 155
f 639 262 261
f 929 874 911
f 21 330 332
f 694 405 404
f 206 205 134
f 368 351 365
f 346 363 349
f 119 121 124
f 571 97 298
f 58 827 101
f 508 387 394
f 842 173 564
f 341 415 274
f 394 402 503
f 849 563 859
f 204 525 242
f 273 274 92
f 778 772 964
f 455 95 571
f 225 213 212
f 746 840 745
f 277 595 163
f 269 25 24
f 528 935 694
f 412 5 419
f 177 176 724
f 514 134 960
f 595 596 594
f 881 841 192
f 120 235 146
f 288 290 286
f 83 77 80
f 767 127 679
f 715 736 416
f 882 568 883
f 17 738 333
f 964 777 778
f 92 271 273
f 132 514 513
f 768 679 621
f 457 459 902
f 763 951 331
f 108 110 488
f 719 812 657
f 504 657 812
f 399 801 630
f 768 30 766
f 925 376 333
f 802 854 758
f 783 442 791
f 154 155 191
f 490 271 454
f 335 336 34
f 839 900 831
f 334 422 339
f 272 271 8
f 815 857 799
f 206 133 376
f 196 241 819
f 195 667 217
f 222 212 237
f 251 407 199
f 55 886 56
f 97 470 471
f 678 828 676
f 482 613 751
f 19 883 14
f 18 17 333
f 885 884 904
f 801 399 190
f 559 950 838
f 934 714 949
f 434 938 161
