# Generated by benchmark/pick_up_apple/mujoco_src/export.py
v -0.0013005915097892284 -0.0043405061587691307 -0.019262269139289856
v 0.00036937225377187133 -0.0044478191994130611 -0.021439418196678162
v 0.00012778629024978727 -0.0043306187726557255 -0.019063059240579605
v 0.001768590766005218 -0.0046238275244832039 -0.025009090080857277
v 0.0032136249355971813 -0.0045019863173365593 -0.022540105506777763
v 0.001951775630004704 -0.0045156129635870457 -0.022815272212028503
v 0.0036518876440823078 -0.0046657281927764416 -0.025860238820314407
v 0.0058852257207036018 -0.0046126926317811012 -0.024787358939647675
v -0.0017517111264169216 -0.0045092841610312462 -0.022683726623654366
v -1.1640403499768581e-05 -0.0046153450384736061 -0.024835556745529175
v -0.00024006377498153597 -0.0045046624727547169 -0.022591345012187958
v 0.00082198582822456956 -0.0046657528728246689 -0.025858268141746521
v 0.0025753218214958906 -0.0046657375060021877 -0.025859490036964417
v -0.00093135022325441241 -0.00466576823964715 -0.025857046246528625
v -0.001735665719024837 -0.0046170442365109921 -0.024868503212928772
v -0.0018652767175808549 -0.0044010416604578495 -0.020489087328314781
v -0.0026846863329410553 -0.0046657836064696312 -0.025855826213955879
v -0.0033228164538741112 -0.004625481553375721 -0.025038447231054306
v -0.0058567207306623459 -0.0046111922711133957 -0.024746697396039963
v -0.0046214698813855648 -0.0044871121644973755 -0.022231707349419594
v -0.0058659845963120461 -0.004528458695858717 -0.023068889975547791
v -0.0045912107452750206 -0.0044088009744882584 -0.020644022151827812
v -0.0059281154535710812 -0.0044468147680163383 -0.021413566544651985
v -0.0032434880267828703 -0.0045082676224410534 -0.022661814466118813
v 0.00374368648044765 -0.004343756940215826 -0.019332574680447578
v 0.0015359255485236645 -0.0043199756182730198 -0.018848501145839691
v 0.0035088998265564442 -0.0044222269207239151 -0.020923295989632607
v 0.0058050197549164295 -0.0046657095663249493 -0.025861740112304688
v -0.0036361038219183683 -0.0040372014045715332 -0.013110935688018799
v -0.0017259514424949884 -0.0041657784022390842 -0.015719417482614517
v -0.0014182457234710455 -0.0040471227839589119 -0.013314024545252323
v -0.0020553919021040201 -0.0037642526440322399 -0.0075784791260957718
v -0.0040347953327000141 -0.003764270106330514 -0.0075771007686853409
v -0.0033346498385071754 -0.0038877588231116533 -0.010081359185278416
v -0.004822680726647377 -0.0038960177917033434 -0.010247508995234966
v -0.007315595168620348 -0.0039452770724892616 -0.011243056505918503
v -0.0050885421223938465 -0.0039601884782314301 -0.011548296548426151
v -0.0061377198435366154 -0.003912308719009161 -0.010576642118394375
v -0.0079936021938920021 -0.0037634694017469883 -0.0075743845663964748
v -0.0060141985304653645 -0.0037642873357981443 -0.0075757219456136227
v -0.0032998011447489262 -0.0039878278039395809 -0.012110218405723572
v -0.0011449600569903851 -0.0039943791925907135 -0.012244914658367634
v -0.0028094109147787094 -0.0042498637922108173 -0.017423240467905998
v -0.0018432439537718892 -0.0042330282740294933 -0.017082760110497475
v -0.0032731187529861927 -0.0041583464480936527 -0.015567383728921413
v 0.0021978772711008787 -0.004084018524736166 -0.014065217226743698
v 0.0021325717680156231 -0.0041916281916201115 -0.016246877610683441
v 0.004092702642083168 -0.0041778679005801678 -0.015969600528478622
v 0.0058330814354121685 -0.0040833107195794582 -0.014054685831069946
v 0.0068816370330750942 -0.0041165575385093689 -0.014772861264646053
v -0.0067976219579577446 0.0021638998296111822 -0.024643618613481522
v 0.0069629340432584286 -0.0040476261638104916 -0.013349976390600204
v 0.0058622215874493122 -0.0037641837261617184 -0.00758399348706007
v 0.0059843421913683414 -0.0038409426342695951 -0.0091404104605317116
v 0.0078416252508759499 -0.0037633313331753016 -0.0075854132883250713
v 0.0068002045154571533 -0.0039908150210976601 -0.01217960100620985
v 0.0056571001186966896 -0.0040225782431662083 -0.012822574935853481
v 0.0073090004734694958 -0.0038639223203063011 -0.009607839398086071
v 0.0058185257948935032 -0.0039527793414890766 -0.011407590471208096
v 0.0047090286388993263 -0.0038945500273257494 -0.010226073674857616
v 0.004351738840341568 -0.0039814417250454426 -0.011987423524260521
v -2.1062796804471873e-05 -0.0041639967821538448 -0.015684783458709717
v 0.00064240879146382213 -0.0040931133553385735 -0.014248250983655453
v -0.0052315420471131802 -0.0040399958379566669 -0.013166200369596481
v 3.6594796256395057e-05 -0.0042246803641319275 -0.016915148124098778
v 0.0038828181568533182 -0.0037642009556293488 -0.0075826151296496391
v 0.0019373389659449458 -0.0044492282904684544 -0.0214693583548069
v 0.0062009254470467567 -0.0038967025466263294 -0.010271012783050537
v 0.0037311995401978493 -0.0042604124173521996 -0.01764281652867794
v -0.0059151221066713333 -0.0046658115461468697 -0.025853574275970459
v -0.0059645259752869606 -0.0043700365349650383 -0.019860073924064636
v -0.0048407837748527527 -0.0043313908390700817 -0.019074365496635437
v -0.003572206711396575 -0.0042947661131620407 -0.018332937732338905
v -0.0048989555798470974 -0.0042551346123218536 -0.017528273165225983
v -0.0031873532570898533 -0.0044060302898287773 -0.020589070394635201
v -0.0062272376380860806 -0.0042157704010605812 -0.016729036346077919
v -0.0060772416181862354 -0.0042963027954101562 -0.018361913040280342
v 0.0060486281290650368 -0.0045263082720339298 -0.023035686463117599
v -0.0048373378813266754 -0.0041682040318846703 -0.015765877440571785
v 0.006162185687571764 -0.0044350698590278625 -0.021190645173192024
v 0.0021466133184731007 -0.0042517208494246006 -0.017465217038989067
v 0.0064101568423211575 -0.0042784763500094414 -0.017948132008314133
v 0.0062092011794447899 -0.004351787269115448 -0.019507274031639099
v -0.0063635185360908508 -0.0041231121867895126 -0.014783960767090321
v 0.00667981943115592 -0.0041959215886890888 -0.01634490117430687
v -0.0069860168732702732 -0.0040302812121808529 -0.01294234674423933
v -0.0017004895489662886 -0.0038837813772261143 -0.010002144612371922
v 0.00020179725834168494 -0.003981076180934906 -0.01197639387100935
v 0.0041618025861680508 -0.0040813186205923557 -0.014012191444635391
v 0.0015313596231862903 -0.003961978480219841 -0.011590361595153809
v -0.0074022598564624786 -0.0038538784720003605 -0.0093920985236763954
v -8.292484562844038e-05 -0.0038826512172818184 -0.0099806459620594978
v 0.0014681145548820496 -0.0038955332711338997 -0.010243173688650131
v -7.5988522439729422e-05 -0.0037642354145646095 -0.00757985794916749
v 0.001903414842672646 -0.0037642181850969791 -0.0075812363065779209
v 0.0092290779575705528 -0.0017057002987712622 -0.020674906671047211
v -0.0037614982575178146 -0.0046657929196953773 -0.025855075567960739
v 0.0023042613174766302 0.010907009243965149 -0.012345250695943832
v -0.0084464205428957939 0.0066131302155554295 -0.011686239391565323
v -0.0062476992607116699 0.00070439575938507915 -0.026621069759130478
v 0.0030809370800852776 -0.0066638034768402576 -0.028583196923136711
v -0.00013045147352386266 -0.0020265569910407066 -0.030054129660129547
v 0.0083589432761073112 0.0045892954804003239 -0.0054752137511968613
v 0.0083581749349832535 0.0027624219655990601 -0.0066018719226121902
v 0.008357820101082325 0.00068363477475941181 -0.0071361642330884933
v -0.0055759134702384472 0.00056598708033561707 -0.007790424395352602
v 0.00049681233940646052 -0.0033354100305587053 -0.030260631814599037
v -0.0031441063620150089 0.0017019708175212145 -0.0078473351895809174
v 0.0013749586651101708 -0.001983296126127243 -0.03000914677977562
v 0.0058038500137627125 0.0048958328552544117 -0.022595668211579323
v -0.0073760771192610264 0.0075417486950755119 -0.0066444077529013157
v -0.00095825415337458253 -0.0029932740144431591 -0.0076172705739736557
v -0.003449360141530633 0.003076102351769805 -0.0079148998484015465
v 0.0072936182841658592 0.0075428169220685959 -0.0066543901339173317
v 0.0047028525732457638 0.0066157523542642593 -0.0071726725436747074
v -0.0047873645089566708 0.0066156694665551186 -0.0071660634130239487
v -0.009314914233982563 0.0048330123536288738 -0.0073479684069752693
v 0.0047331121750175953 0.0089604314416646957 -0.016149928793311119
v 0.00063291739206761122 0.0099640125408768654 -0.0096899159252643585
v -0.0051539330743253231 -0.0041066287085413933 -0.014517207629978657
v -0.0083637023344635963 -0.00034109779517166317 -0.024101078510284424
v 0.0097520193085074425 0.0022206597495824099 -0.0082644065842032433
v -0.0040155160240828991 -0.00082526559708639979 -0.029012016952037811
v -0.0058030774816870689 0.0062952693551778793 -0.020685365423560143
v 0.0014908213634043932 -0.0058450927026569843 -0.029848339036107063
v -0.0050988746806979179 0.0013622386613860726 -0.027072682976722717
v -0.0092565529048442841 -0.0027279960922896862 -0.0094576822593808174
v -0.0075673353858292103 0.0080449692904949188 -0.010258140973746777
v -0.003499224316328764 0.00029712283867411315 -0.028706250712275505
v -0.009885118342936039 0.0017082669073715806 -0.0080779781565070152
v -0.0092414245009422302 0.0050552710890769958 -0.010065174661576748
v -0.0067521943710744381 0.0054537761025130749 -0.020722666755318642
v -0.0078795207664370537 0.0046113808639347553 -0.01985635980963707
v -0.0073135471902787685 0.0058558625169098377 -0.018967948853969574
v -0.005104441661387682 0.0025660062674432993 -0.025937443599104881
v -0.0059736249968409538 0.0026804439257830381 -0.025049293413758278
v -0.0053502428345382214 0.0036460720002651215 -0.024615390226244926
v -0.0041348682716488838 0.0022570891305804253 -0.026876013725996017
v -0.0098723433911800385 0.00076239899499341846 -0.010559487156569958
v -0.0078038806095719337 0.0076129073277115822 -0.011640014126896858
v -0.0068701575510203838 0.0087042376399040222 -0.011335260234773159
v -0.0070930402725934982 0.0082710674032568932 -0.012896658852696419
v -0.0061421799473464489 0.0039861304685473442 -0.023444714024662971
v -0.0064657884649932384 0.0031484006904065609 -0.024025782942771912
v -0.0069634132087230682 0.0036396179348230362 -0.022823799401521683
v -0.0077481851913034916 0.00668729143217206 -0.015945468097925186
v -0.0082710692659020424 0.0050448235124349594 -0.018071820959448814
v -0.0085139228031039238 0.005504918284714222 -0.016111154109239578
v -0.0054055070504546165 0.004769535269588232 -0.023296920582652092
v -0.0064281634986400604 0.0046454537659883499 -0.022316008806228638
v -0.0074016554281115532 0.0041456893086433411 -0.021470719948410988
v -0.008165883831679821 0.0072957589291036129 -0.0093692559748888016
v -0.0074586411938071251 0.0082779023796319962 -0.0088359629735350609
v -0.0081602334976196289 0.0064555197022855282 -0.014828224666416645
v -0.0089020179584622383 0.0054126735776662827 -0.014086851850152016
v -0.0089439591392874718 0.0058058993890881538 -0.0065367370843887329
v -0.00093515822663903236 0.001843292498961091 -0.0078558437526226044
v -0.0083034513518214226 0.0070811058394610882 -0.0063324230723083019
v -0.007395635824650526 0.0084032071754336357 -0.007455768994987011
v -0.0081619229167699814 0.006869038101285696 -0.01318089384585619
v -0.0072476128116250038 0.0076297963969409466 -0.014793087728321552
v -0.0069169388152658939 0.0073299137875437737 -0.016606716439127922
v -0.007629102561622858 0.0062706349417567253 -0.017323652282357216
v -0.0037933534476906061 0.0013236699160188437 -0.027884222567081451
v -0.0056444089859724045 0.0056414566934108734 -0.021901518106460571
v -0.0063215671107172966 0.0065346998162567616 -0.019545165821909904
v -0.0066911433823406696 0.0069066844880580902 -0.018131159245967865
v -0.0089142676442861557 0.005713313352316618 -0.012313989922404289
v -0.0088909678161144257 0.0058798235841095448 -0.010853764601051807
v -0.0088160615414381027 0.0060787750408053398 -0.0093312906101346016
v -0.0058958451263606548 0.0094346320256590843 -0.01226580236107111
v -0.0048092314973473549 0.0098224272951483727 -0.013512521982192993
v -0.0060599716380238533 0.0088946530595421791 -0.014109238050878048
v -0.0061528836376965046 0.0094273993745446205 -0.011067015118896961
v -0.0052097337320446968 0.010201022028923035 -0.0089742401614785194
v -0.0052046207711100578 0.0101146399974823 -0.010767173022031784
v -0.0042613926343619823 0.0046327295713126659 -0.024321362376213074
v -0.0032609223853796721 0.0054022367112338543 -0.023968849331140518
v -0.003163032466545701 0.0045139645226299763 -0.02503400482237339
v -0.0027532309759408236 0.0024432865902781487 -0.027376875281333923
v -0.0038678736891597509 0.0034684480633586645 -0.025818450376391411
v -0.0062298541888594627 0.0091867763549089432 -0.0080824363976716995
v -0.0043623913079500198 0.0057951947674155235 -0.022846560925245285
v -0.006018221378326416 0.0083291744813323021 -0.015859292820096016
v -0.0048904973082244396 0.0086584705859422684 -0.016859553754329681
v -0.0058784224092960358 0.0078076999634504318 -0.017477560788393021
v -0.0047713262028992176 0.008031647652387619 -0.01858329214155674
v -0.0058180396445095539 0.0073124105110764503 -0.01873750239610672
v -0.0053278547711670399 0.0071208537556231022 -0.019884826615452766
v -0.0041320202872157097 0.0075482097454369068 -0.020258456468582153
v -0.0048603718169033527 0.0066075134091079235 -0.021273914724588394
v -0.0036348067224025726 0.0068721449933946133 -0.021777743473649025
v 0.0097691593691706657 0.00028423982439562678 -0.011761938221752644
v -0.0025873440317809582 0.0010319690918549895 -0.028564762324094772
v 0.0092199519276618958 0.0048007159493863583 -0.0086226174607872963
v -0.0024480798747390509 -0.0005016059149056673 -0.029409762471914291
v -0.0039123054593801498 -0.0054979897104203701 -0.025813771411776543
v -0.00075304775964468718 0.0055271307937800884 -0.0080073056742548943
v -0.0095258364453911781 0.0034181782975792885 -0.014570734463632107
v -0.0048701586201786995 0.0092844907194375992 -0.015209105797111988
v -0.0036660910118371248 0.01075349934399128 -0.011269079521298409
v -0.0075679714791476727 -0.0021938735153526068 -0.026222193613648415
v -0.0070106196217238903 -0.0043541211634874344 -0.019130589440464973
v -0.0037561086937785149 0.0093786818906664848 -0.016282135620713234
v -0.0028490850236266851 0.0092416051775217056 -0.017420781776309013
v -0.0039069973863661289 0.0087992371991276741 -0.017646040767431259
v -0.0036798024084419012 0.010483267717063427 -0.012792938388884068
v -0.0034601625520735979 0.010094014927744865 -0.014509504660964012
v -0.0032083496917039156 0.0084963263943791389 -0.019008779898285866
v 0.0093365916982293129 0.0018678716151043773 -0.018836528062820435
v -0.0027877723332494497 0.0077556287869811058 -0.020769383758306503
v -0.0022999432403594255 0.0069565083831548691 -0.022276345640420914
v -0.0031804598402231932 0.0062306420877575874 -0.022933987900614738
v 0.0071827583014965057 -0.0039336918853223324 -0.011021795682609081
v -0.0022306712344288826 0.0050783548504114151 -0.024775004014372826
v -0.0021489197388291359 0.0039628865197300911 -0.02608773298561573
v -0.0016208345768973231 0.001795508898794651 -0.028339991346001625
v -0.0013145731063559651 0.00063896010397002101 -0.029138615354895592
v 0.009174685925245285 0.0049070483073592186 -0.010062391869723797
v 0.0018477736739441752 -0.0011026146821677685 -0.0077124773524701595
v 0.00039947230834513903 0.0013484733644872904 -0.0078323651105165482
v 5.4948555771261454e-05 0.0027479368727654219 -0.0079011525958776474
v -0.0022516322787851095 0.0060200365260243416 -0.023606643080711365
v -0.0012050200020894408 0.0056943069212138653 -0.024338103830814362
v -0.0051737511530518532 0.0049960734322667122 -0.0080083999782800674
v 0.0050900750793516636 0.0049961674958467484 -0.0080155478790402412
v 0.0089812474325299263 0.0043004490435123444 -0.016190221533179283
v 0.0093493806198239326 -0.0023171575739979744 -0.0084837507456541061
v -0.00030195331783033907 0.010851342231035233 -0.013298927806317806
v 0.0046653184108436108 0.0036844131536781788 -0.0079505518078804016
v 0.0042351242154836655 -0.0012709541479125619 -0.0077058360911905766
v -0.0059609776362776756 -0.003843540558591485 -0.0091825714334845543
v 0.0033884502481669188 -0.00020573959045577794 -0.0077577871270477772
v 0.006845585536211729 -0.0021825770381838083 -0.0076626883819699287
v -0.0013364903861656785 0.010092634707689285 -0.015867913141846657
v -0.00034663654514588416 0.010387375950813293 -0.015090889297425747
v -0.0004114934999961406 0.0098726153373718262 -0.016668034717440605
v -0.00033315675682388246 0.0073447362519800663 -0.022047048434615135
v -0.0083178775385022163 0.00693549495190382 -0.010509898886084557
v -0.00038684977334924042 0.0083164628595113754 -0.020297480747103691
v -0.0095730610191822052 0.0038428911939263344 -0.0075338119640946388
v 0.0053542433306574821 0.0030063467565923929 -0.007918141782283783
v 8.002034155651927e-05 0.006246393546462059 -0.023709235712885857
v -0.0025206743739545345 -0.0074093774892389774 -0.02687591128051281
v -0.0012973881093785167 0.0048374463804066181 -0.025374447926878929
v -0.00022359803551808 0.0051530767232179642 -0.025140678510069847
v -0.00036913753137923777 0.0016735236858949065 -0.028642479330301285
v -0.00098475860431790352 0.0029839829076081514 -0.02750672772526741
v 0.0024006443563848734 -0.0074115758761763573 -0.026869188994169235
v 0.002921378705650568 0.0065690716728568077 -0.008114030584692955
v 7.7692900958936661e-05 0.00034234128543175757 -0.029384391382336617
v -0.00081309251254424453 -0.00075282203033566475 -0.0296783447265625
v 0.00053887657122686505 -0.00091589824296534061 -0.029800763353705406
v 0.0032303670886904001 0.0014735049335286021 -0.0078405039384961128
v 0.008358566090464592 0.0051299203187227249 -0.0060096709057688713
v -0.0084414295852184296 0.0051297741010785103 -0.0059979702346026897
v -0.00066126300953328609 0.0091728437691926956 -0.018432246521115303
v 0.0083577213808894157 0.0031781755387783051 -0.0072471112944185734
v -0.0084422742947936058 0.0031780293211340904 -0.0072354106232523918
v 0.0027017379179596901 -0.0025173730682581663 -0.0076432907953858376
v -0.00059601542307063937 0.0041395151056349277 -0.0079698441550135612
v -0.007423953153192997 -0.0028358038980513811 -0.0076205367222428322
v -0.00082178483717143536 0.011158326640725136 -0.011730194091796875
v -0.0055248686112463474 0.008173162117600441 -0.0076720798388123512
v 0.00013082845543976873 0.011338843964040279 -0.010650522075593472
v -0.0038712248206138611 -0.0013200578978285193 -0.0076977717690169811
v -0.0002531105128582567 -0.0025343981105834246 -0.0076403948478400707
v -0.0068474384024739265 -0.003806236432865262 -0.0084287663921713829
v -0.0066770943813025951 -0.00060170318465679884 -0.007731250487267971
v -0.0049010100774466991 0.003086393466219306 -0.0079138670116662979
v 0.00034219477674923837 0.0081942370161414146 -0.0095363138243556023
v -0.0071371491067111492 0.0041100815869867802 -0.0068250722251832485
v 0.009466150775551796 -0.001669218996539712 -0.010795059613883495
v -0.0017697893781587481 0.010492576286196709 -0.014402640983462334
v -0.0062260995618999004 -0.0020093484781682491 -0.0076621342450380325
v -0.001896090223453939 -0.0003254791081417352 -0.0077482028864324093
v -0.00063977210083976388 0.0041815075092017651 -0.026254616677761078
v -0.00078304077032953501 0.00052440800936892629 -0.0077908965758979321
v 0.00016395311104133725 -0.0014763999497517943 -0.0076928692869842052
v -0.003151751821860671 -0.0023751736152917147 -0.0076462305150926113
v 0.00792698934674263 0.0074813817627727985 -0.0087140556424856186
v -0.0095310769975185394 -0.0017565429443493485 -0.011669892817735672
v -0.0044925538823008537 -0.0038299066945910454 -0.008907439187169075
v -0.001240688725374639 0.0066163553856313229 -0.023077988997101784
v -0.0046672141179442406 0.010172031819820404 -0.012116782367229462
v 0.0090860864147543907 0.0044919517822563648 -0.014836037531495094
v -0.001451795338653028 -0.0019095557508990169 -0.0076703797094523907
v -0.0020616420079022646 0.0037047695368528366 -0.0079468740150332451
v 0.0096411127597093582 -0.0010351518867537379 -0.0082135172560811043
v -0.0098866205662488937 0.00052028999198228121 -0.0082679549232125282
v -0.002009484451264143 0.0051257149316370487 -0.0080201113596558571
v 0.00035007050610147417 0.011137600988149643 -0.011962644755840302
v 0.0091492747887969017 0.0048805731348693371 -0.011617694050073624
v -0.0075165280140936375 0.0031866058707237244 -0.0072731473483145237
v -0.0027622682973742485 -0.003825402120128274 -0.0088176196441054344
v -0.0061651472933590412 -0.0039770123548805714 -0.011888438835740089
v -0.0031842850148677826 -0.006593258585780859 -0.028682809323072433
v 0.00096474098972976208 0.0065450072288513184 -0.0085984114557504654
v 0.0021391750779002905 0.0040946737863123417 -0.0079690292477607727
v -0.0010512412991374731 0.0065449895337224007 -0.0085970070213079453
v 0.0046883504837751389 0.0021207870449870825 -0.007874760776758194
v -0.0064665763638913631 0.0092292893677949905 -0.0098981857299804688
v -0.009579136036336422 0.0033997590653598309 -0.013334451243281364
v -0.0015067552449181676 0.0077316667884588242 -0.021263258531689644
v 0.0091494610533118248 0.0046827043406665325 -0.013222374953329563
v 0.0081522716209292412 -0.0037190881557762623 -0.020555689930915833
v 0.0071484721265733242 -0.0038070152513682842 -0.0084624588489532471
v -0.0013573411852121353 0.0071887224912643433 -0.022198118269443512
v 0.00084219762356951833 0.0051554827950894833 -0.008013606071472168
v 0.0074007506482303143 -0.0009785632137209177 -0.0077224611304700375
v -0.0073528215289115906 0.0051746196113526821 -0.006016372237354517
v 0.0096307005733251572 0.0018169115064665675 -0.016138633713126183
v -0.0016407475341111422 0.0096052521839737892 -0.017145616933703423
v -0.0095607731491327286 0.0038582205306738615 -0.010213760659098625
v 0.0062216119840741158 -0.00067550514359027147 -0.0077365883626043797
v 0.0049151936545968056 -0.0043893367983400822 -0.020261745899915695
v -0.00097458180971443653 -0.0067946668714284897 -0.025751622393727303
v 0.0036526345647871494 0.0047648046165704727 -0.0080031268298625946
v 0.0042273430153727531 -0.0024362937547266483 -0.0076483520679175854
v -0.00096130778547376394 -0.00382446707226336 -0.0088002365082502365
v 0.0052091293036937714 0.0051770969294011593 -0.0071729873307049274
v -0.00014214555267244577 0.010435355827212334 -0.0098555479198694229
v -0.0082101635634899139 -0.0037920312024652958 -0.02286946214735508
v -0.0086068408563733101 -0.0033732117153704166 -0.015809126198291779
v 0.0052520125173032284 -0.0042272959835827351 -0.016972735524177551
v 0.0096952104941010475 0.0019906484521925449 -0.013962266035377979
v -0.0096044009551405907 0.0035214107483625412 -0.011818806640803814
v -0.0084517598152160645 -0.0035377133172005415 -0.017270190641283989
v -0.0079352334141731262 -0.0037182818632572889 -0.024637825787067413
v 0.0070531140081584454 0.0060144700109958649 -0.0052460208535194397
v -0.0017826250987127423 0.0084936395287513733 -0.019732140004634857
v -0.0071349302306771278 0.006014346145093441 -0.0052361395210027695
v 0.00087248522322624922 -0.0038285648915916681 -0.0088849198073148727
v -0.0014418624341487885 0.011225872673094273 -0.010261279530823231
v 0.0050565265119075775 -0.0043080314062535763 -0.018609417602419853
v -0.0037794343661516905 0.0087223676964640617 -0.0087192952632904053
v 0.00099315831903368235 -0.0044952761381864548 -0.022402113303542137
v -0.0010700497077777982 -0.0044531617313623428 -0.021546471863985062
v -0.00089970207773149014 -0.0045619886368513107 -0.023753028362989426
v -0.0023904955014586449 -0.0040168152190744877 -0.012698717415332794
v 0.0027316103223711252 -0.0043096733279526234 -0.018640682101249695
v -0.0037921543698757887 -0.0043590976856648922 -0.019637022167444229
v 0.0030048789922147989 -0.0042055030353367329 -0.016528930515050888
v -0.0082143563777208328 -0.0038246153853833675 -0.019146282225847244
v -0.0082946643233299255 -0.0037969292607158422 -0.02108556404709816
v 0.0010015860898420215 -0.0043862001039087772 -0.020190693438053131
v -0.0063564805313944817 -0.0039168847724795341 -0.027757512405514717
v -0.0073549691587686539 -0.0035695850383490324 -0.026348181068897247
v -0.0052749882452189922 -0.0039093531668186188 -0.028814869001507759
v -0.0026833643205463886 -0.0042060869745910168 -0.016535807400941849
v -0.0020403312519192696 0.0090506188571453094 -0.018373541533946991
v 0.0007057492621243 -0.0042679044418036938 -0.017792064696550369
v -0.0021688572596758604 -0.0042906412854790688 -0.018250536173582077
v -0.0036416652146726847 -0.0044543715193867683 -0.021568762138485909
v -0.0051073785871267319 -0.00091838609660044312 -0.0077167232520878315
v -0.004491862840950489 0.0017885612323880196 -0.0078495414927601814
v -0.0088342977687716484 -0.0038017772603780031 -0.0083981743082404137
v -0.0086836181581020355 -0.00389899592846632 -0.010362054221332073
v -0.0030978329014033079 0.0044983662664890289 -0.0079852957278490067
v 0.0026587836910039186 -0.0045732432045042515 -0.023984307423233986
v -0.0084688328206539154 -0.0039959149435162544 -0.012319927103817463
v 0.0033526711631566286 0.0030975353438407183 -0.0079206917434930801
v -0.0042339819483458996 -0.0039935256354510784 -0.012224918231368065
v -0.0016962746158242226 0.010923221707344055 -0.012714477255940437
v 0.0029694763943552971 -0.0039304569363594055 -0.010952531360089779
v 0.0024101093877106905 0.0053759650327265263 -0.0080312853679060936
v -0.0083002001047134399 -0.0039117950946092606 -0.014277479611337185
v -0.0076875933445990086 -0.0042069032788276672 -0.016122698783874512
v -0.0073717376217246056 -0.0042938427068293095 -0.017799386754631996
v -0.0071441573090851307 -0.0045907716266810894 -0.023887662217020988
v -0.0021250520367175341 0.0023956319782882929 -0.0078822579234838486
v 0.0043613798916339874 0.0007432072889059782 -0.0078052696771919727
v -0.0071817310526967049 -0.0044240094721317291 -0.020459664985537529
v 0.00046847792691551149 -0.00012114014680264518 -0.0077599273063242435
v 0.0018464804161339998 0.00064006034517660737 -0.0077984314411878586
v 0.0014957080129534006 -0.0041475235484540462 -0.015352126210927963
v -0.007201888132840395 -0.0045080431737005711 -0.022131031379103661
v 0.0012000222923234105 -0.0040277177467942238 -0.012922889553010464
v -0.0024796237703412771 0.0098793227225542068 -0.01595575176179409
v -0.00069564650766551495 -0.00066148489713668823 -0.0077324653975665569
v -0.002352073322981596 -0.0039496072567999363 -0.011336146853864193
v 0.00083594798343256116 0.0037195717450231314 -0.0079496204853057861
v -0.0011254717828705907 0.0029702035244554281 -0.00791129469871521
v -0.0084425210952758789 -0.0021216289605945349 -0.0076550538651645184
v -0.00086800660938024521 -0.0040992428548634052 -0.014371203258633614
v -0.002790969330817461 -0.0011482227127999067 -0.0077069993130862713
v -0.0084424503147602081 -0.0037609678693115711 -0.0075741955079138279
v 0.00049194670282304287 -0.0039308173581957817 -0.010957688093185425
v 0.0032847071997821331 -0.0015073440736159682 -0.0076935151591897011
v -0.0084425909444689751 -0.00048229005187749863 -0.0077359117567539215
v -0.00086303037824109197 -0.0042119328863918781 -0.016655914485454559
v 0.0027491163928061724 -0.0040105092339217663 -0.012575346045196056
v -0.00075083773117512465 -0.0039363191463053226 -0.01106814481317997
v -0.0041177854873239994 -0.0040995092131197453 -0.014373760670423508
v -0.0024942250456660986 -0.0040887068025767803 -0.014156178571283817
v -0.0084414593875408173 -0.0036905207671225071 -0.006151221226900816
v -0.0084420032799243927 -0.0018951931269839406 -0.0069089722819626331
v -0.0084414687007665634 0.003744297893717885 -0.0060716141015291214
v -0.0020758374594151974 0.0010555156040936708 -0.007816193625330925
v -0.0038625516463071108 -0.0039452151395380497 -0.011245785281062126
v -0.00021911053045187145 -0.0040397411212325096 -0.013165412470698357
v 0.0017023279797285795 0.0024473096709698439 -0.007887471467256546
v -0.0047291051596403122 -0.0023552647326141596 -0.0076461145654320717
v -0.0026636556722223759 0.010637539438903332 -0.013294065371155739
v 0.0048695756122469902 -0.00041043295641429722 -0.0077487216331064701
v -0.0036118070129305124 0.00017844044486992061 -0.0077718640677630901
v 0.0053803436458110809 -0.0017906625289469957 -0.007680999580770731
v 0.0028592434246093035 -0.0041475053876638412 -0.01535294484347105
v -0.0036981164012104273 -0.0042223311029374599 -0.016864258795976639
v 0.0024252915754914284 -0.0043721417896449566 -0.019906902685761452
v -0.0026620682328939438 -0.0043496773578226566 -0.019447023048996925
v -0.0024712735321372747 -0.0044564297422766685 -0.021611519157886505
v -0.0025553237646818161 -0.0045660999603569508 -0.023834921419620514
v -0.0084420079365372658 0.0019656065851449966 -0.0068676332011818886
v -0.0084421904757618904 3.8049976865295321e-05 -0.0071538388729095459
v 0.00089543458307161927 -0.0045561525039374828 -0.023636257275938988
v -0.00045356943155638874 -0.0043940646573901176 -0.020348865538835526
v -0.0007585261482745409 -0.0042717629112303257 -0.017869021743535995
v -0.0089390790089964867 -0.0037044074852019548 -0.0064312885515391827
v 0.0082196546718478203 -0.0039484160952270031 -0.013971542939543724
v 0.0010930050630122423 -0.0042076953686773777 -0.016571709886193275
v 0.0054883570410311222 -0.0041467486880719662 -0.015348643064498901
v 0.0080651091411709785 -0.0039227819070219994 -0.015611193142831326
v 0.0097659165039658546 0.0017918270314112306 -0.0098868682980537415
v 0.0081182122230529785 -0.0037301476113498211 -0.019160715863108635
v -0.0074386191554367542 -0.0016068053664639592 -0.0076811453327536583
v 0.0015035622054710984 0.011142928153276443 -0.011316482909023762
v 0.007214405108243227 0.00057043292326852679 -0.007798386737704277
v 0.0029329541139304638 -0.0038422655779868364 -0.0091644879430532455
v -0.0027007902972400188 0.010895985178649426 -0.012104903347790241
v -0.0018376780208200216 0.011115076951682568 -0.011559696868062019
v -0.0025167802814394236 0.011087320744991302 -0.011072778142988682
v -0.0094023430719971657 0.0046264980919659138 -0.0087223108857870102
v 0.0043175960890948772 -0.0049247094430029392 -0.029101459309458733
v -0.0060721682384610176 0.0017962220590561628 -0.025841612368822098
v -0.0028632390312850475 0.011081656441092491 -0.01027754507958889
v 0.0097705181688070297 0.0014137730468064547 -0.011463452130556107
v 0.0079041486606001854 -0.0039927600882947445 -0.017456609755754471
v 0.0046765757724642754 -0.0038209520280361176 -0.0087339272722601891
v -0.0039295516908168793 0.010734466835856438 -0.0097770551219582558
v 0.006239892914891243 -0.0044900812208652496 -0.027405655011534691
v 0.0020944760181009769 0.0097344899550080299 -0.01654505543410778
v 0.0054639354348182678 -0.0043365904130041599 -0.028404083102941513
v -0.00024557087454013526 -0.0059863119386136532 -0.02579214796423912
v 0.0072732502594590187 -0.0043345652520656586 -0.018838653340935707
v 0.00064254796598106623 0.0043751467019319534 -0.02601119689643383
v -0.0043400838039815426 -0.0045708734542131424 -0.023930314928293228
v 0.00020419117936398834 0.003558493684977293 -0.026986876502633095
v -0.004359118640422821 0.0043369624763727188 -0.0079764565452933311
v -0.0070118824951350689 0.0010993385221809149 -0.02537832036614418
v 0.0083780838176608086 -0.0039957738481462002 -0.012331776320934296
v 0.008594823069870472 -0.0038988462183624506 -0.010374102741479874
v -0.0083476314321160316 0.0069704628549516201 -0.0079646222293376923
v 0.0044226408936083317 -0.0045745396055281162 -0.024012330919504166
v 0.0010497592156752944 -0.0025269303005188704 -0.007641669362783432
v 0.0082361726090312004 -0.0032895451877266169 -0.023277752101421356
v -0.0096679395064711571 -0.0014464752748608589 -0.0085488026961684227
v 0.0047242059372365475 -0.0044751544483006001 -0.021997425705194473
v 0.0024583570193499327 0.011093156412243843 -0.01038947980850935
v 0.0076513825915753841 -0.0044809696264564991 -0.022131744772195816
v 0.0073618362657725811 -0.0044049234129488468 -0.020203841850161552
v 0.0088202226907014847 -0.0028511949349194765 -0.016375837847590446
v 0.0087482277303934097 -0.0038016242906451225 -0.0084104267880320549
v 0.001881084986962378 0.010244547389447689 -0.015144670382142067
v 0.0074104862287640572 -0.0045777042396366596 -0.024085495620965958
v 0.0094042159616947174 -0.001660178997553885 -0.015349599532783031
v 0.0089090652763843536 -0.0028708898462355137 -0.014654135331511497
v 0.0089913401752710342 -0.0028702509589493275 -0.012970038689672947
v 0.0094101335853338242 -0.0016936312895268202 -0.013660612516105175
v 0.0094323689118027687 -0.0017185861943289638 -0.012065663002431393
v 0.008378208614885807 -0.0020257376600056887 -0.024250971153378487
v 0.0087867174297571182 -0.0036953170783817768 -0.0062631303444504738
v 0.0088989697396755219 -0.0018970462260767817 -0.022490499541163445
v 0.0090744802728295326 -0.0030008340254426003 -0.0096678026020526886
v 0.0083584664389491081 -0.0036953208036720753 -0.0062628323212265968
v 0.0083574047312140465 -0.00048214368871413171 -0.0077476124279201031
v 0.0083579719066619873 -0.0021050726063549519 -0.0069532119669020176
v 0.009384429082274437 -0.0021605738438665867 -0.0099431788548827171
v 0.008357546292245388 -0.0037608214188367128 -0.0075858961790800095
v 0.0093791084364056587 -0.0016162613173946738 -0.018861331045627594
v 0.008821532130241394 -0.0028136125765740871 -0.018118688836693764
v 0.009403289295732975 -0.0016369210788980126 -0.017087016254663467
v 0.0088272364810109138 -0.0028239993844181299 -0.019808316603302956
v 0.00902590062469244 -0.003223717212677002 -0.0065164430998265743
v 0.0083574755117297173 -0.0021214825101196766 -0.0076667545363306999
v 0.0083573339506983757 0.0011571951908990741 -0.0078284703195095062
v 0.0055991224944591522 0.00074249756289646029 -0.0078065912239253521
v 0.0094858305528759956 -0.001896596048027277 -0.0070140785537660122
v 0.0086114807054400444 -0.0030419165268540382 -0.021497266367077827
v 0.0083577530458569527 -0.00039627653313800693 -0.0072456672787666321
v -0.00077712460188195109 -0.0030999502632766962 -0.030224647372961044
v 0.008358461782336235 0.0037612977903336287 -0.0061770821921527386
v 0.001095291692763567 0.0012996526202186942 -0.028792461380362511
v 0.0083578871563076973 0.0017635460244491696 -0.0070266611874103546
v 0.0058349207974970341 0.004122772254049778 -0.0079729873687028885
v 0.0097423093393445015 -0.00039626445504836738 -0.0072466316632926464
v 0.0043452293612062931 0.0058695622719824314 -0.008058108389377594
v 0.0098093124106526375 0.0011378091294318438 -0.0071595022454857826
v 0.0024200615007430315 0.010564297437667847 -0.013743270188570023
v 0.0083594247698783875 0.0054172929376363754 -0.0047733457759022713
v 0.0027224519290030003 0.010980469174683094 -0.01143116969615221
v 0.0067510344088077545 -0.0020449457224458456 -0.02729911170899868
v 0.0035423333756625652 0.006234816275537014 -0.008075520396232605
v -0.0036261389032006264 0.0062347538769245148 -0.0080705313012003899
v 0.0062539293430745602 0.0033104626927524805 -0.0072798328474164009
v 0.006209969986230135 0.0021109730005264282 -0.0077203153632581234
v 0.0083574000746011734 0.0021109916269779205 -0.0077218110673129559
v 0.0083580426871776581 0.0042453594505786896 -0.0067724115215241909
v 0.0072212372906506062 0.0035630743950605392 -0.0071385512128472328
v 0.0059574544429779053 0.0045028012245893478 -0.0066004525870084763
v 0.0083590894937515259 0.0060144811868667603 -0.0052469302900135517
v -0.0048694624565541744 0.0057760328054428101 -0.0068927770480513573
v -0.0059185181744396687 0.0041226698085665703 -0.007964801974594593
v 0.0070470348000526428 0.0051878439262509346 -0.0060544847510755062
v -0.0084426617249846458 0.0011570487404242158 -0.007816770114004612
v 0.0057471385225653648 0.0060144583694636822 -0.0052451114170253277
v -0.0073084356263279915 0.00081380456686019897 -0.007802251260727644
v 0.004692775197327137 0.0059557147324085236 -0.0067084105685353279
v -0.009198448620736599 -0.0025539575144648552 -0.01297472883015871
v 0.0053267977200448513 0.0056091221049427986 -0.0056800264865159988
v -0.0091426670551300049 -0.0025314008817076683 -0.014854500070214272
v -0.0091362670063972473 -0.0024738141801208258 -0.016514359042048454
v -0.0090921614319086075 -0.002586212707683444 -0.018229519948363304
v 0.0020444209221750498 -0.0035033863969147205 -0.030102163553237915
v -0.0090349102392792702 -0.0026772911660373211 -0.020036133006215096
v 0.0053328224457800388 0.0082367835566401482 -0.0077918004244565964
v -0.0087941782549023628 0.0021775870118290186 -0.020903483033180237
v 0.0026725225616246462 0.0091990092769265175 -0.017589183524250984
v 0.0070803314447402954 -0.0033667178358882666 -0.02669856883585453
v -0.0052122548222541809 0.0055891610682010651 -0.005873075220733881
v 0.0023330403491854668 0.0088060963898897171 -0.018763525411486626
v -0.0058289547450840473 0.0060143577866256237 -0.0052370489574968815
v -0.0061922594904899597 -0.0016989901196211576 -0.027974048629403114
v -0.0049179289489984512 -0.0022970789577811956 -0.029039086773991585
v -0.0088989892974495888 -0.0026713598053902388 -0.021813148632645607
v -0.0088410982862114906 -0.0003348468744661659 -0.022966949269175529
v -0.008883994072675705 0.00065244606230407953 -0.022212019190192223
v -0.0095542119815945625 -0.00012023385352222249 -0.019906414672732353
v -0.0092531796544790268 -0.00024341144307982177 -0.021548222750425339
v -0.0090189231559634209 0.0056823990307748318 -0.0079644955694675446
v -0.0097306547686457634 -6.7116714490111917e-05 -0.018131237477064133
v -0.0037342810537666082 -0.0039702225476503372 -0.029644373804330826
v -0.0098147699609398842 -0.00011086854647146538 -0.014640445820987225
v -0.0071019306778907776 -0.0013246815651655197 -0.026794876903295517
v 0.0061450549401342869 -0.0032724870834499598 -0.028038892894983292
v -0.0099280485883355141 0.0011315863812342286 -0.0072618098929524422
v -0.0099095851182937622 0.0013224548893049359 -0.0093028517439961433
v -0.0098376115784049034 -0.00019407196668908 -0.0095144566148519516
v -0.0060221455059945583 -0.0028926567174494267 -0.028301039710640907
v -0.0098749035969376564 0.0009440550347790122 -0.011968625709414482
v -0.0097987102344632149 -0.00048666202928870916 -0.011359388008713722
v -0.0098144542425870895 -0.00020861638768110424 -0.013012330047786236
v 0.0012136988807469606 0.010928738862276077 -0.01284115482121706
v -0.009866323322057724 0.0010885423980653286 -0.01362361665815115
v -0.0097586009651422501 0.0012965354835614562 -0.017125604674220085
v -0.0098381582647562027 0.001234755851328373 -0.015322337858378887
v -0.0098028797656297684 -5.7959940022556111e-05 -0.016358086839318275
v 0.0022838963195681572 0.0066212923265993595 -0.02275933139026165
v -0.0091805104166269302 0.001168085029348731 -0.02081194706261158
v -0.0095777567476034164 0.0012284583644941449 -0.018967112526297569
v -0.0084087345749139786 0.00064814853249117732 -0.023411083966493607
v -0.0078282877802848816 0.00032564974389970303 -0.024764291942119598
v -0.0079345405101776123 -0.0010372238466516137 -0.025345651432871819
v -0.0068572289310395718 -0.0026063458062708378 -0.027307648211717606
v -0.0071353907696902752 -8.6731401097495109e-05 -0.026092631742358208
v -0.0053129461593925953 -0.00074884539935737848 -0.028302481397986412
v -0.0063142036087810993 -0.00045220274478197098 -0.027309194207191467
v 0.0076682791113853455 -0.0020696520805358887 -0.025887725874781609
v 0.0077435397543013096 -0.0033812844194471836 -0.025061000138521194
v -0.0010602737311273813 -0.0060888356529176235 -0.029964666813611984
v -0.0035795355215668678 -0.0069740922190248966 -0.02758365124464035
v -0.0022748492192476988 -0.0064544342458248138 -0.029432240873575211
v -0.0020652962848544121 -0.0074269832111895084 -0.028312757611274719
v -0.0011838227510452271 -0.0071147005073726177 -0.0293548833578825
v 0.0022441542241722345 0.0078468974679708481 -0.020792484283447266
v -0.0030072028748691082 0.0065690199844539165 -0.00810990110039711
v 0.0018807213054969907 0.0065894662402570248 -0.0077011687681078911
v 0.005235996562987566 0.0066826324909925461 -0.0058222082443535328
v -0.0081289242953062057 -0.0024252135772258043 -0.025048302486538887
v 0.0036793523468077183 0.0066253845579922199 -0.0069772186689078808
v -0.0090662119910120964 -0.0014493823982775211 -0.022459905594587326
v -0.0086038894951343536 -0.0025980398058891296 -0.023493519052863121
v -0.0037635923363268375 0.0066253193654119968 -0.0069720358587801456
v -4.2796596972038969e-05 0.0065772165544331074 -0.0079469261690974236
v -0.0019659707322716713 0.0065894327126443386 -0.007698490284383297
v -0.0086003635078668594 -0.0013595989439636469 -0.023940548300743103
v -0.0093671930953860283 -0.0014449782902374864 -0.020823461934924126
v -0.005318627692759037 0.0066825407557189465 -0.0058148591779172421
v -0.0041469261050224304 0.0065485942177474499 -0.0085214972496032715
v -0.0059203123673796654 0.0066062244586646557 -0.0073558618314564228
v -0.0095098037272691727 -0.0013938783667981625 -0.019079567864537239
v -0.007377017755061388 0.0066825225949287415 -0.0058134235441684723
v -0.0095707885921001434 -0.001339443726465106 -0.017320862039923668
v 0.0019466697704046965 0.0083650676533579826 -0.019910003989934921
v -0.0045816297642886639 0.0078144203871488571 -0.0083173811435699463
v -0.0064300252124667168 0.0080123888328671455 -0.0069633726961910725
v -0.0047712833620607853 0.0090544652193784714 -0.0082388054579496384
v -0.0095980428159236908 -0.001333954744040966 -0.015604426153004169
v -0.0096411937847733498 -0.0012895915424451232 -0.0125849898904562
v -0.0096149472519755363 -0.0013612420298159122 -0.01394197903573513
v -0.0037749903276562691 0.0098270084708929062 -0.0088261477649211884
v -0.0026688063517212868 0.0091309370473027229 -0.0092038493603467941
v -0.0092992624267935753 -0.0027390285395085812 -0.0079908203333616257
v 0.0005801054066978395 0.0025805765762925148 -0.027864299714565277
v -0.0025999452918767929 0.010504813864827156 -0.00930816400796175
v -0.0021523225586861372 0.0065127341076731682 -0.0092475824058055878
v -0.0013011926785111427 0.0081663895398378372 -0.0094596445560455322
v -0.0031247609294950962 0.00780849764123559 -0.0089796110987663269
v -0.0091830147430300713 -0.0027815198991447687 -0.011176556348800659
v -0.0096216397359967232 -0.0015883517917245626 -0.010281906463205814
v -0.0013518413761630654 0.0098067112267017365 -0.0095550296828150749
v 0.0029752440750598907 0.010421914979815483 -0.0091293910518288612
v 0.0017550401389598846 0.0092770243063569069 -0.017907498404383659
v -0.002234291285276413 -0.0050831381231546402 -0.029959475621581078
v -0.0042890761978924274 -0.0060476684011518955 -0.028421740978956223
v 0.0035778752062469721 -0.0035970185417681932 -0.029670478776097298
v 0.001284618629142642 0.010871450416743755 -0.0096517140045762062
v -0.0034554211888462305 -0.0056202150881290436 -0.029356934130191803
v -0.0045084902085363865 -0.0049924612976610661 -0.028990419581532478
v -4.3875243136426434e-05 0.0065005747601389885 -0.0094950301572680473
v 0.0019582540262490511 0.0073780869133770466 -0.021732574328780174
v -0.005401798989623785 -0.0051180408336222172 -0.028119074180722237
v -0.0049674934707581997 -0.0062083341181278229 -0.027155006304383278
v -6.2033519498072565e-05 0.0092921135947108269 -0.009672938846051693
v 0.0014188954373821616 0.0092993583530187607 -0.0094851246103644371
v -0.0062528294511139393 -0.0050304504111409187 -0.026905130594968796
v 0.0029917273204773664 0.0086581632494926453 -0.0090252310037612915
v -0.00098263879772275686 -0.0077204788103699684 -0.027036098763346672
v -0.0038452011067420244 -0.0069214561954140663 -0.025743346661329269
v -0.0069919335655868053 -0.0046658208593726158 -0.025852825492620468
v -0.0055361432023346424 -0.0059572658501565456 -0.025789903476834297
v 0.0010773136746138334 0.0069994856603443623 -0.02251511812210083
v -0.004838310182094574 -0.0046658022329211235 -0.025854324921965599
v -0.0028079759795218706 -0.0061118337325751781 -0.025784149765968323
v 0.00127164286095649 -0.006116330623626709 -0.025786766782402992
v -0.0019916584715247154 -0.0075170239433646202 -0.02571515180170536
v -0.0016059858025982976 -0.0059569012373685837 -0.02579265832901001
v 0.00095118826720863581 0.010573592968285084 -0.014343271963298321
v 0.0037947094533592463 -0.0055034197866916656 -0.025818867608904839
v 0.0026516509242355824 -0.0061447769403457642 -0.025786319747567177
v 0.0047284536994993687 -0.0046657188795506954 -0.025860989466309547
v -0.0084406137466430664 0.0052420017309486866 -0.0048249103128910065
v -0.0062931803986430168 0.0021108640357851982 -0.0077116074971854687
v 0.0014193871757015586 0.0061787590384483337 -0.023632129654288292
v 0.0016609460581094027 0.007763260044157505 -0.0093810427933931351
v 0.0010824893834069371 0.0053406986407935619 -0.024775976315140724
v 0.00081783731002360582 0.010116273537278175 -0.015891512855887413
v -0.0084425956010818481 0.0021108454093337059 -0.0077101103961467743
v -0.0063365469686686993 0.0033103530295193195 -0.0072710639797151089
v 0.0020649144425988197 0.0065127708949148655 -0.009250519797205925
v 0.0072943852283060551 0.0066826506517827511 -0.0058236420154571533
v 0.0040605268441140652 0.006548665463924408 -0.0085272137075662613
v 0.0010626623407006264 0.0079397689551115036 -0.020958593115210533
v 0.00096360768657177687 0.0088513866066932678 -0.019133521243929863
v 0.00075164390727877617 0.0095725497230887413 -0.017454078420996666
v 0.0031197099015116692 0.0072400067001581192 -0.021466119214892387
v 0.0031476307194679976 0.0081212334334850311 -0.019799966365098953
v 0.0036387757863849401 0.01079387404024601 -0.01067508477717638
v 0.0048206583596765995 0.010373867116868496 -0.0094918394461274147
v 0.0049440586008131504 0.010146681219339371 -0.011350966989994049
v 0.0035654979292303324 0.010580024681985378 -0.012375917285680771
v 0.0036687469109892845 0.0092834196984767914 -0.016560444608330727
v 0.0030850272160023451 0.0099561708047986031 -0.015144815668463707
v 0.0048116650432348251 0.008479556068778038 -0.017283076420426369
v 0.0035333831328898668 0.0087229171767830849 -0.018166564404964447
v 0.0035400670021772385 0.0061725056730210781 -0.022785371169447899
v 0.0025461555924266577 0.0054738745093345642 -0.024162407964468002
v 0.0014036821667104959 0.0034508251119405031 -0.026897266507148743
v 0.0028046714141964912 0.0032466035336256027 -0.026530507951974869
v 0.002088549779728055 0.0022388524375855923 -0.027791267260909081
v -0.0060391463339328766 0.0045026964507997036 -0.0065920972265303135
v 0.0063457684591412544 0.0080124996602535248 -0.0069722705520689487
v 0.0013607469154521823 -8.0368256021756679e-05 -0.029421819373965263
v 0.0058355340734124184 0.0066063269041478634 -0.0073640495538711548
v 0.0013817007420584559 -0.0010023610666394234 -0.029687667265534401
v 0.0019837622530758381 0.0043750610202550888 -0.025648852810263634
v 0.0033569959923624992 0.0042263013310730457 -0.025208914652466774
v 0.004468078725039959 0.0079998569563031197 -0.018903745338320732
v 0.0043041692115366459 0.0073654488660395145 -0.020409775897860527
v 0.004607244860380888 0.0094552300870418549 -0.014958121813833714
v 0.004908315371721983 0.0098523302003741264 -0.013118519447743893
v 0.0037544711958616972 0.010165795683860779 -0.013883613049983978
v 0.0040416652336716652 0.0050564366392791271 -0.023893972858786583
v 0.0042392113246023655 0.0066408473066985607 -0.021651683375239372
v 0.0043553384020924568 0.0092549966648221016 -0.0084223020821809769
v 0.0043032071553170681 0.0077925031073391438 -0.0083944797515869141
v 0.0030367826111614704 0.0074526797980070114 -0.0089518576860427856
v 0.0086869345977902412 0.0060058613307774067 -0.0055646211840212345
v 0.0022973592858761549 -0.000907647714484483 -0.029536735266447067
v 0.0049604326486587524 -0.0034081514459103346 -0.028993107378482819
v 0.009108884260058403 -0.0027782050892710686 -0.011157896369695663
v 0.0049089929088950157 0.005689520388841629 -0.022480949759483337
v 0.0052477205172181129 0.0065082190558314323 -0.020946333184838295
v 0.0054484652355313301 0.0077376202680170536 -0.018205445259809494
v 0.0063416766934096813 0.0062161106616258621 -0.019955959171056747
v 0.0054233875125646591 0.0071954159066081047 -0.019457811489701271
v 0.0059097856283187866 0.0078462604433298111 -0.017172830179333687
v 0.0057588922791182995 0.0084670120850205421 -0.015798643231391907
v 0.0068606468848884106 0.0073752398602664471 -0.016377439722418785
v 0.0060110213235020638 0.0089078927412629128 -0.013932689093053341
v 0.0071508558467030525 0.0081249959766864777 -0.012870388105511665
v 0.0070223952643573284 0.0078117246739566326 -0.014655583538115025
v 0.0061425245366990566 0.0092141032218933105 -0.012111031450331211
v 0.0072019938379526138 0.0083434805274009705 -0.011087172664701939
v 0.0061464882455766201 0.0094215935096144676 -0.010271050967276096
v 0.0071981535293161869 0.0084713902324438095 -0.0093187307938933372
v 0.005997984204441309 0.0093862749636173248 -0.0082704396918416023
v 0.0073106843046844006 0.0084033338353037834 -0.0074660112150013447
v 0.0065108486451208591 0.0069560548290610313 -0.018184257671236992
v 0.0060364380478858948 0.0055323322303593159 -0.021468786522746086
v 0.0037780064158141613 0.0019154016626998782 -0.027322065085172653
v 0.002715633949264884 0.00063634139951318502 -0.028710678219795227
v 0.0045859683305025101 0.0039731236174702644 -0.024788713082671165
v 0.0041262800805270672 0.003135954262688756 -0.025957180187106133
v 0.0052058515138924122 0.0045728343538939953 -0.023614158853888512
v 0.0077114766463637352 0.0061760335229337215 -0.017075223848223686
v 0.007868877612054348 0.0066187647171318531 -0.015310045331716537
v 0.0079726763069629669 0.0069376458413898945 -0.013576095923781395
v 0.0080217365175485611 0.0071573681198060513 -0.011838541366159916
v 0.0086396047845482826 0.0057174465619027615 -0.014233758673071861
v 0.0085587929934263229 0.00538288289681077 -0.01589609868824482
v 0.0074501512572169304 0.005636945366859436 -0.018888093531131744
v 0.0085098547860980034 0.0046714609488844872 -0.017661826685070992
v 0.0080763306468725204 0.004297933541238308 -0.019672602415084839
v 0.0086836405098438263 0.0059419618919491768 -0.012551134452223778
v 0.0080130808055400848 0.007313799113035202 -0.010127102956175804
v 0.0082919402047991753 0.0069829276762902737 -0.007691296748816967
v 0.0086974157020449638 0.0060924054123461246 -0.010855687782168388
v -0.0084419529885053635 0.0042452132329344749 -0.0067607108503580093
v 0.0089628472924232483 0.0055729346349835396 -0.0069570299237966537
v 0.0082252500578761101 0.0070836711674928665 -0.0063443640246987343
v 0.0086880763992667198 0.006193630862981081 -0.0089970594272017479
v 0.0070705842226743698 0.0050740139558911324 -0.02058916911482811
v 0.0066472957842051983 0.0045346994884312153 -0.02202225849032402
v 0.007566066924482584 0.0039180242456495762 -0.021317481994628906
v 0.0070472038350999355 0.0035187709145247936 -0.022687472403049469
v 0.0061694602482020855 0.0040536043234169483 -0.023248743265867233
v 0.0065476070158183575 0.0030365181155502796 -0.02390742115676403
v 0.0056079467758536339 0.0035729380324482918 -0.024384884163737297
v 0.005947998259216547 0.0025506038218736649 -0.025105118751525879
v 0.0050760200247168541 0.0031022955663502216 -0.025335924699902534
v 0.0050729382783174515 0.0022274372167885303 -0.026217203587293625
v 0.0041470937430858612 -0.0061858156695961952 -0.02835371159017086
v 0.0042197909206151962 0.00053374003618955612 -0.028157364577054977
v -0.0084406044334173203 0.0055204825475811958 -0.0048084328882396221
v 0.0052331406623125076 -0.0053863893263041973 -0.027969885617494583
v -0.0084409061819314957 0.0060143349692225456 -0.0052352296188473701
v 0.0047524301335215569 -0.006326586939394474 -0.027090009301900864
v 0.0033647418022155762 -0.0059303655289113522 -0.029145563021302223
v 0.0051793232560157776 0.0010485396487638354 -0.027184790000319481
v 0.0026543722487986088 -0.0050503714010119438 -0.029801489785313606
v 0.0057877362705767155 -0.0054431213065981865 -0.026859669014811516
v 0.00087037176126614213 -0.0077222674153745174 -0.027035832405090332
v 0.0039337370544672012 -0.00088334165047854185 -0.029000179842114449
v 0.0029397334437817335 -0.0022047769743949175 -0.029738077893853188
v 0.0061754686757922173 0.0014231716049835086 -0.025982489809393883
v 0.0052976049482822418 -0.00026369921397417784 -0.028006874024868011
v 0.0093773826956748962 0.0034452895633876324 -0.015557398088276386
v 0.0095222033560276031 0.0026520434767007828 -0.016256736591458321
v 0.009214404970407486 0.0034146395046263933 -0.016991177573800087
v 0.0062557831406593323 0.00018412027566228062 -0.026859382167458534
v 0.0095124440267682076 0.003670405363664031 -0.012210763059556484
v -0.008877115324139595 0.0055204806849360466 -0.0048081306740641594
v 0.0071644973941147327 0.00044044136302545667 -0.025536069646477699
v 0.0070789302699267864 0.0018095199484378099 -0.024479329586029053
v -0.0098172873258590698 0.0026644300669431686 -0.0068486337549984455
v 0.0095252059400081635 0.0038174551445990801 -0.0076649873517453671
v -0.0096563762053847313 -0.00042400250094942749 -0.0071430038660764694
v 0.0073278257623314857 0.0026054885238409042 -0.023282924667000771
v 0.0079870866611599922 0.0017621179576963186 -0.02303604781627655
v 0.0078566661104559898 0.0028116486500948668 -0.022111870348453522
v 0.0084198331460356712 0.0030447621829807758 -0.020609539002180099
v 0.0085985651239752769 0.0018937437562271953 -0.021550800651311874
v 0.0089716101065278053 0.0031057705637067556 -0.018775282427668571
v 0.0090479273349046707 0.0020084292627871037 -0.020045313984155655
v 0.0095214108005166054 0.003303496865555644 -0.013928779400885105
v 0.0094717387109994888 0.0039528869092464447 -0.010875570587813854
v -0.0096024703234434128 -0.0019369674846529961 -0.0071206479333341122
v 0.0096230404451489449 0.002383318729698658 -0.015145857818424702
v 0.0094888610765337944 0.0021143218036741018 -0.017452718690037727
v 0.009711521677672863 0.0023454295005649328 -0.012612177990376949
v 0.0096925375983119011 0.0027824605349451303 -0.011074108071625233
v 0.0095840785652399063 0.0034797543194144964 -0.0094800200313329697
v -0.0097666699439287186 0.0029007245320826769 -0.0087579293176531792
v -0.00061835930682718754 -0.0045716604217886925 -0.03030981682240963
v -5.5042204621713609e-05 -0.0077184154652059078 -0.02570652961730957
v -0.0097695058211684227 0.0023793000727891922 -0.014233448542654514
v 0.0068815858103334904 -0.0046657002530992031 -0.025862488895654678
v -0.009602915495634079 0.0027685749810189009 -0.015955321490764618
v 0.0089552877470850945 0.0053386334329843521 -0.0048624933697283268
v -0.0055251177400350571 0.00025250588078051805 -0.027556994929909706
v 0.0093963546678423882 0.0040995865128934383 -0.0059559005312621593
v 0.0096999108791351318 0.0026166460011154413 -0.0067509729415178299
v -0.0092347199097275734 0.0042588640935719013 -0.015313576906919479
v 0.006241213995963335 -0.00093713641399517655 -0.027503024786710739
v -0.0098183397203683853 0.0022727211471647024 -0.012606747448444366
v 0.007107818964868784 -0.00083007529610767961 -0.026437912136316299
v -0.0097734900191426277 -0.00038918739301152527 -0.0083608841523528099
v 0.004240767564624548 -0.0023754448629915714 -0.029340775683522224
v -0.0098378891125321388 0.00223313900642097 -0.010728729888796806
v -0.0093147577717900276 0.0047760424204170704 -0.011324289254844189
v 0.0079894065856933594 0.00058091955725103617 -0.024030685424804688
v 0.0079582985490560532 -0.00072904961416497827 -0.024999357759952545
v 0.0086741084232926369 0.00068863551132380962 -0.022446412593126297
v 0.0091587388888001442 -0.00046917455620132387 -0.021617427468299866
v 0.0086429547518491745 -0.00062715169042348862 -0.023362161591649055
v 0.0091521237045526505 0.00086229795124381781 -0.020839126780629158
v 0.009497704915702343 -0.00017341738566756248 -0.019683342427015305
v 0.0093740895390510559 0.0011101263808086514 -0.019554497674107552
v 0.0095880758017301559 0.00092227576533332467 -0.018355662003159523
v 0.0097540616989135742 0.0010312158847227693 -0.015067918226122856
v 0.0097177978605031967 0.00087403383804485202 -0.016807587817311287
v 0.0096420459449291229 -0.00033512047957628965 -0.017804695293307304
v 0.0096901208162307739 -0.0004001276392955333 -0.014308631420135498
v 0.0096788350492715836 -0.00035990047035738826 -0.01606166735291481
v 0.0097913453355431557 0.00087518250802531838 -0.013108772225677967
v 0.009661676362156868 -0.00071107607800513506 -0.011215959675610065
v 0.00967409648001194 -0.00056103768292814493 -0.012672404758632183
v 0.0097879674285650253 0.00037512404378503561 -0.010431890375912189
v 0.0098082246258854866 0.00044349921518005431 -0.0086877858266234398
v 0.0018815567018464208 -0.0075169904157519341 -0.025717850774526596
v 0.0096276067197322845 -0.0010069956770166755 -0.009667636826634407
v -0.0093572149053215981 0.0042238291352987289 -0.014021008275449276
v -0.0090587055310606956 0.0040189833380281925 -0.017081791535019875
v 0.0054782289080321789 -0.0018506678752601147 -0.028483802452683449
v -0.0094102537259459496 0.0025935408193618059 -0.017986083403229713
v 0.0037350477650761604 -0.0069213905371725559 -0.02574862539768219
v 0.0010825969511643052 -0.0047469167038798332 -0.030243752524256706
v -0.0091012632474303246 0.0023723249323666096 -0.019752370193600655
v -0.0083797890692949295 0.0019175251945853233 -0.022232407703995705
v -0.0083684166893362999 0.0031899767927825451 -0.020786715671420097
v -0.00019468858954496682 -0.0069395056925714016 -0.029718490317463875
v 0.0010320262517780066 -0.0069037205539643764 -0.029514174908399582
v -5.5627133406233042e-05 -0.0077634197659790516 -0.028596730902791023
v 0.00030145692289806902 -0.0059222374111413956 -0.030105706304311752
v -0.0077476170845329762 0.0031320888083428144 -0.022157870233058929
v 0.002339501865208149 -0.0064459526911377907 -0.029374074190855026
v 0.0019578416831791401 -0.0074236588552594185 -0.028312360867857933
v 0.0034359896089881659 -0.0070236222818493843 -0.0275400560349226
v -0.007390062790364027 0.0026155307423323393 -0.023349257186055183
v -0.0045616347342729568 0.00030435057124122977 -0.028173487633466721
v -0.0090629290789365768 0.0054637487046420574 -0.0049539785832166672
v -0.0095101660117506981 0.0041853389702737331 -0.0060530509799718857
v 0.0054259062744677067 -0.0059571703895926476 -0.025797538459300995
v -0.0093483515083789825 0.004533031489700079 -0.012808546423912048
v -0.0015724535332992673 -0.0020036704372614622 -0.029983356595039368
v -0.0031556116882711649 -0.0021723923273384571 -0.029684914276003838
v -0.0020385964307934046 -0.0034970359411090612 -0.030108721926808357
v -0.0087653277441859245 0.003682341892272234 -0.018945587798953056
v -0.007683916948735714 0.001490294118411839 -0.023994522169232368
f 3 1 417
f 416 4 360
f 7 641 454
f 11 9 339
f 4 12 13
f 4 416 10
f 10 339 15
f 417 16 338
f 15 413 18
f 13 640 639
f 22 23 20
f 21 20 23
f 447 24 20
f 17 14 15
f 341 26 410
f 316 25 27
f 340 29 395
f 295 33 283
f 28 641 844
f 28 788 8
f 91 232 268
f 340 42 381
f 43 44 350
f 343 48 408
f 389 260 319
f 39 40 262
f 53 54 307
f 70 630 631
f 463 55 307
f 59 60 61
f 421 47 376
f 46 63 376
f 44 43 353
f 29 64 394
f 391 44 418
f 53 66 439
f 26 3 346
f 68 54 60
f 58 68 214
f 408 47 343
f 18 17 15
f 59 57 56
f 68 58 54
f 59 56 214
f 12 10 14
f 9 24 413
f 454 5 360
f 4 13 7
f 447 19 633
f 22 71 23
f 20 24 354
f 633 19 70
f 15 14 10
f 75 22 354
f 10 12 4
f 76 77 74
f 97 633 197
f 337 11 416
f 67 2 337
f 454 78 458
f 77 203 71
f 22 72 71
f 16 75 412
f 24 9 412
f 9 11 338
f 73 72 342
f 416 6 337
f 409 74 73
f 316 80 83
f 6 5 67
f 458 80 316
f 97 17 18
f 77 72 74
f 22 75 342
f 353 73 411
f 75 16 411
f 410 25 341
f 338 2 417
f 69 81 341
f 2 67 346
f 421 65 352
f 67 27 410
f 83 82 335
f 801 169 168
f 76 79 84
f 73 43 409
f 411 1 353
f 79 76 74
f 1 3 418
f 45 79 409
f 3 26 352
f 30 395 45
f 62 30 391
f 69 25 335
f 376 62 421
f 325 82 85
f 84 64 86
f 363 41 400
f 84 79 120
f 42 88 393
f 57 59 61
f 418 65 391
f 401 31 385
f 352 81 421
f 89 48 422
f 81 69 343
f 422 85 50
f 48 69 325
f 79 45 394
f 36 86 296
f 45 350 30
f 64 29 363
f 30 62 385
f 400 37 363
f 381 41 340
f 365 90 392
f 88 42 401
f 89 46 408
f 46 89 392
f 52 49 50
f 89 49 57
f 49 52 57
f 64 37 296
f 38 91 36
f 87 34 381
f 395 31 340
f 92 87 393
f 385 63 401
f 93 92 388
f 63 46 378
f 90 88 378
f 88 90 388
f 57 61 89
f 392 61 365
f 99 140 160
f 283 40 232
f 39 357 91
f 198 261 309
f 453 159 153
f 34 35 400
f 320 32 295
f 840 850 830
f 333 94 320
f 840 836 145
f 429 95 333
f 439 60 54
f 425 481 438
f 429 60 439
f 749 743 101
f 491 848 846
f 387 262 384
f 40 33 403
f 109 107 102
f 101 839 838
f 297 572 573
f 792 790 103
f 103 500 255
f 104 494 793
f 106 269 355
f 104 492 258
f 390 384 426
f 102 107 491
f 496 498 105
f 105 494 486
f 280 287 386
f 306 483 425
f 141 171 142
f 256 642 398
f 107 828 785
f 110 737 715
f 110 710 734
f 32 280 33
f 302 175 176
f 111 596 159
f 111 158 592
f 828 751 125
f 135 137 181
f 112 287 32
f 112 94 267
f 132 133 134
f 114 672 651
f 135 138 126
f 435 136 135
f 181 138 135
f 114 731 708
f 141 142 140
f 52 451 56
f 143 144 145
f 148 146 163
f 149 143 150
f 150 151 132
f 302 141 128
f 115 580 578
f 156 842 747
f 153 152 453
f 611 322 334
f 115 674 652
f 239 152 128
f 140 142 160
f 160 142 161
f 160 161 154
f 163 146 162
f 116 590 588
f 163 134 147
f 134 133 147
f 132 151 133
f 847 123 196
f 116 583 589
f 282 610 551
f 117 433 241
f 164 194 129
f 123 841 129
f 164 126 138
f 841 126 164
f 438 85 82
f 137 135 136
f 144 137 136
f 144 143 137
f 150 143 145
f 137 143 149
f 151 150 145
f 165 149 150
f 124 165 132
f 165 150 132
f 166 134 167
f 166 132 134
f 167 163 162
f 167 134 163
f 154 146 148
f 161 162 146
f 154 155 160
f 161 146 154
f 155 168 160
f 160 168 99
f 239 140 99
f 99 169 239
f 170 152 239
f 453 170 540
f 171 172 173
f 176 174 302
f 285 172 171
f 173 161 142
f 178 215 179
f 180 138 181
f 174 176 171
f 159 182 153
f 183 178 177
f 169 99 168
f 142 171 173
f 161 173 184
f 184 185 186
f 186 167 162
f 187 188 186
f 188 167 186
f 189 187 190
f 191 165 124
f 191 192 183
f 181 179 216
f 194 164 180
f 277 448 248
f 386 276 406
f 118 664 662
f 302 174 141
f 194 218 196
f 196 129 194
f 194 180 217
f 180 181 216
f 191 183 165
f 183 177 149
f 604 670 493
f 213 178 183
f 252 846 196
f 196 123 129
f 217 247 218
f 129 841 164
f 180 216 248
f 138 180 164
f 666 684 692
f 177 179 181
f 181 137 177
f 137 149 177
f 165 183 149
f 183 192 213
f 166 189 124
f 190 192 191
f 191 124 189
f 166 188 189
f 189 188 187
f 166 167 188
f 184 186 162
f 185 187 186
f 161 184 162
f 200 185 184
f 200 173 172
f 200 184 173
f 119 625 617
f 141 174 171
f 128 153 302
f 302 153 182
f 614 570 572
f 204 205 206
f 207 208 172
f 331 211 209
f 365 60 429
f 179 177 178
f 155 823 845
f 120 64 84
f 696 694 709
f 355 275 403
f 356 106 406
f 196 218 252
f 269 106 517
f 356 113 270
f 641 8 454
f 216 179 215
f 215 178 223
f 284 224 223
f 223 178 213
f 190 211 192
f 204 185 200
f 171 176 285
f 304 308 212
f 351 331 209
f 208 200 172
f 206 187 185
f 121 561 562
f 201 207 285
f 586 536 121
f 102 846 252
f 643 517 106
f 767 793 122
f 122 498 820
f 139 547 800
f 228 488 484
f 132 166 124
f 224 245 215
f 245 216 215
f 224 215 223
f 213 192 212
f 189 190 191
f 192 211 212
f 209 211 190
f 331 304 211
f 187 209 190
f 187 206 209
f 204 206 185
f 205 209 206
f 208 204 200
f 313 205 379
f 274 379 208
f 379 204 208
f 154 148 155
f 404 208 207
f 430 207 201
f 176 175 440
f 274 364 229
f 406 266 386
f 237 235 236
f 304 240 238
f 308 304 238
f 125 837 833
f 246 446 277
f 125 835 828
f 127 610 609
f 127 603 457
f 91 38 232
f 251 252 218
f 252 253 102
f 287 279 380
f 406 108 356
f 128 141 140
f 128 152 153
f 224 243 246
f 284 238 243
f 304 331 240
f 351 313 257
f 130 547 290
f 766 784 130
f 276 278 399
f 263 431 334
f 399 157 371
f 197 631 629
f 371 108 399
f 232 35 283
f 291 504 359
f 251 253 252
f 310 476 428
f 247 217 248
f 218 194 217
f 248 216 277
f 270 643 356
f 279 220 374
f 131 801 314
f 94 95 455
f 224 246 245
f 240 331 257
f 284 243 224
f 131 433 170
f 139 551 548
f 313 237 257
f 437 819 193
f 235 237 313
f 193 817 818
f 235 274 236
f 195 732 730
f 229 236 274
f 195 767 783
f 216 245 277
f 288 113 371
f 221 222 157
f 197 633 631
f 488 228 289
f 284 308 238
f 261 288 383
f 197 634 17
f 747 158 156
f 331 351 257
f 460 456 489
f 449 225 513
f 283 34 295
f 819 820 822
f 198 585 291
f 220 279 455
f 494 104 258
f 292 229 263
f 319 231 389
f 263 265 292
f 303 823 199
f 221 278 374
f 199 794 789
f 220 233 375
f 157 222 383
f 553 292 427
f 402 221 375
f 291 261 198
f 325 69 335
f 196 846 847
f 348 579 202
f 563 544 202
f 203 373 71
f 382 222 402
f 203 77 369
f 230 318 362
f 780 810 210
f 267 287 112
f 210 809 775
f 289 822 820
f 319 66 53
f 233 220 389
f 407 315 405
f 295 87 320
f 633 18 447
f 259 729 398
f 375 254 402
f 212 284 223
f 316 83 335
f 260 66 319
f 214 68 59
f 402 299 382
f 214 452 58
f 447 18 413
f 332 747 311
f 293 728 219
f 260 95 66
f 195 783 219
f 230 301 242
f 513 270 449
f 226 495 321
f 226 497 318
f 309 584 198
f 299 318 366
f 198 584 585
f 53 55 234
f 405 231 407
f 234 485 310
f 286 758 227
f 372 233 405
f 227 760 723
f 320 92 333
f 390 269 517
f 273 478 691
f 487 506 301
f 38 35 232
f 40 39 268
f 239 169 170
f 128 140 239
f 53 234 407
f 281 727 732
f 506 495 242
f 249 839 827
f 405 487 372
f 244 636 629
f 765 770 802
f 577 584 309
f 103 255 508
f 428 315 310
f 783 777 219
f 241 766 843
f 241 433 784
f 485 234 55
f 366 503 577
f 242 301 506
f 312 812 780
f 625 624 271
f 244 573 628
f 821 786 753
f 249 838 839
f 333 93 429
f 250 577 580
f 250 652 650
f 255 511 514
f 256 729 311
f 256 747 642
f 258 508 509
f 254 301 362
f 301 254 372
f 259 648 294
f 423 438 462
f 423 467 420
f 264 596 590
f 264 595 597
f 267 279 287
f 267 94 455
f 458 5 454
f 428 486 507
f 507 506 428
f 270 113 449
f 643 294 648
f 271 624 607
f 242 495 230
f 271 620 645
f 13 12 635
f 635 12 444
f 309 261 382
f 439 66 429
f 600 519 599
f 275 269 426
f 40 275 262
f 308 284 212
f 729 259 294
f 223 213 212
f 39 262 387
f 212 211 304
f 403 266 355
f 671 311 272
f 316 27 458
f 698 697 664
f 273 817 822
f 281 706 708
f 282 599 519
f 282 609 610
f 163 147 148
f 38 36 296
f 283 33 40
f 390 426 269
f 283 35 34
f 403 33 280
f 837 125 751
f 32 94 112
f 730 688 790
f 278 276 380
f 32 287 280
f 21 19 447
f 643 270 513
f 285 176 201
f 285 207 172
f 422 48 325
f 311 729 272
f 227 721 286
f 305 776 286
f 290 546 130
f 290 548 798
f 627 687 686
f 291 585 504
f 291 288 261
f 219 777 293
f 305 725 293
f 225 512 671
f 359 288 291
f 364 263 229
f 507 258 509
f 517 643 648
f 318 299 362
f 294 649 272
f 457 778 768
f 295 34 87
f 226 318 230
f 295 32 33
f 296 86 64
f 296 37 38
f 615 619 618
f 298 584 577
f 274 235 379
f 298 650 620
f 300 584 620
f 300 606 585
f 577 309 366
f 230 495 226
f 118 680 698
f 268 232 40
f 302 182 175
f 55 479 485
f 503 318 497
f 60 59 68
f 522 328 324
f 199 787 303
f 327 845 303
f 522 324 521
f 286 720 305
f 293 762 305
f 460 306 461
f 306 489 483
f 307 54 58
f 307 55 53
f 310 485 476
f 315 407 234
f 364 404 430
f 532 332 311
f 523 344 328
f 324 328 368
f 313 351 205
f 203 369 344
f 345 344 525
f 312 811 812
f 312 759 779
f 379 235 313
f 314 784 433
f 377 373 345
f 327 800 314
f 323 345 535
f 786 635 444
f 317 637 636
f 347 622 626
f 319 53 407
f 436 334 432
f 334 265 263
f 228 822 289
f 320 87 92
f 377 345 323
f 274 208 404
f 209 205 351
f 320 94 32
f 377 323 370
f 370 323 329
f 403 275 40
f 630 370 329
f 202 564 348
f 440 201 176
f 321 497 226
f 520 518 321
f 325 85 422
f 776 781 326
f 326 816 811
f 303 796 327
f 801 327 314
f 459 427 617
f 330 511 651
f 330 516 514
f 329 348 630
f 205 204 379
f 564 549 347
f 626 348 347
f 332 532 592
f 333 92 93
f 349 619 622
f 333 95 94
f 334 436 605
f 540 170 433
f 617 265 322
f 619 349 542
f 335 82 325
f 364 274 404
f 335 25 316
f 336 602 601
f 431 263 364
f 364 430 431
f 602 608 607
f 645 687 627
f 336 595 608
f 337 2 11
f 412 9 338
f 338 11 2
f 413 15 339
f 416 11 339
f 340 41 29
f 340 31 42
f 341 25 69
f 341 81 26
f 342 72 22
f 411 73 342
f 47 421 81
f 343 69 48
f 417 2 346
f 410 26 346
f 350 44 30
f 347 349 622
f 347 549 349
f 409 43 350
f 418 3 352
f 352 26 81
f 353 43 73
f 418 44 353
f 422 49 89
f 73 74 72
f 412 75 354
f 354 22 20
f 355 269 275
f 406 106 355
f 356 108 113
f 347 348 564
f 356 643 106
f 504 449 359
f 359 113 288
f 7 360 4
f 360 5 6
f 455 260 220
f 426 262 275
f 785 848 491
f 362 301 230
f 582 579 329
f 323 582 329
f 323 535 582
f 402 254 362
f 363 29 41
f 363 37 64
f 365 61 60
f 365 93 90
f 366 318 503
f 345 525 535
f 344 369 328
f 309 382 299
f 525 344 523
f 523 328 522
f 221 157 278
f 383 288 371
f 324 368 367
f 371 113 108
f 487 301 372
f 372 254 233
f 221 374 375
f 380 279 374
f 444 637 317
f 375 233 254
f 374 220 375
f 430 404 207
f 127 609 358
f 408 46 376
f 357 603 127
f 376 63 62
f 392 90 378
f 401 63 378
f 374 278 380
f 334 431 432
f 380 276 287
f 493 670 712
f 393 87 381
f 419 603 357
f 400 41 381
f 835 832 570
f 570 832 574
f 521 324 367
f 566 533 567
f 299 366 309
f 382 261 222
f 361 358 609
f 519 361 609
f 371 157 383
f 383 222 261
f 519 367 361
f 395 30 385
f 385 62 63
f 519 521 367
f 328 369 368
f 329 579 348
f 345 373 344
f 386 287 276
f 386 266 280
f 630 348 626
f 393 88 388
f 388 90 93
f 389 231 233
f 389 220 260
f 391 30 44
f 214 56 451
f 542 848 614
f 65 421 62
f 253 675 109
f 253 251 673
f 540 156 453
f 19 630 70
f 387 419 357
f 39 387 357
f 378 46 392
f 396 419 387
f 91 268 39
f 459 658 501
f 357 358 91
f 358 36 91
f 392 89 61
f 361 36 358
f 661 499 98
f 86 36 361
f 86 367 84
f 86 361 367
f 388 92 393
f 381 42 393
f 394 64 120
f 395 29 394
f 38 37 35
f 367 368 84
f 368 76 84
f 394 45 395
f 385 31 395
f 369 76 368
f 399 278 157
f 406 276 399
f 381 34 400
f 400 35 37
f 401 42 31
f 98 553 427
f 378 88 401
f 402 222 221
f 362 299 402
f 403 280 266
f 405 315 487
f 405 233 231
f 18 633 97
f 344 373 203
f 21 370 19
f 399 108 406
f 663 662 442
f 370 630 19
f 377 370 21
f 355 266 406
f 407 231 319
f 234 310 315
f 408 48 89
f 376 47 408
f 350 45 409
f 409 79 74
f 373 377 23
f 369 77 76
f 373 23 71
f 71 72 77
f 442 662 528
f 23 377 21
f 642 747 745
f 346 67 410
f 410 27 25
f 528 665 531
f 259 414 648
f 342 75 411
f 16 417 1
f 415 515 414
f 415 390 515
f 354 24 412
f 397 384 390
f 338 16 412
f 339 9 413
f 413 24 447
f 360 6 416
f 339 10 416
f 396 387 397
f 397 387 384
f 1 411 16
f 398 414 259
f 415 397 390
f 346 3 417
f 256 398 729
f 414 515 648
f 67 5 27
f 67 337 6
f 353 1 418
f 419 396 397
f 352 65 418
f 778 419 397
f 62 391 65
f 768 778 397
f 81 343 47
f 422 50 49
f 397 415 768
f 437 782 424
f 546 768 415
f 766 546 414
f 122 820 424
f 425 445 461
f 642 843 398
f 398 766 414
f 425 483 481
f 426 384 262
f 843 766 398
f 427 501 98
f 427 265 617
f 428 476 486
f 428 487 315
f 429 93 365
f 429 66 95
f 437 781 782
f 415 414 546
f 193 816 437
f 8 641 28
f 461 83 80
f 460 80 78
f 753 786 628
f 750 744 711
f 460 78 465
f 465 8 788
f 117 843 156
f 438 481 462
f 439 54 53
f 440 175 601
f 436 201 440
f 612 659 658
f 247 251 218
f 444 14 637
f 617 322 119
f 447 20 21
f 558 621 656
f 78 8 465
f 594 531 657
f 449 504 225
f 449 113 359
f 453 158 159
f 454 8 78
f 360 7 454
f 455 95 260
f 455 279 267
f 457 610 127
f 453 152 170
f 453 156 158
f 458 78 80
f 98 499 553
f 458 27 5
f 832 834 574
f 570 574 572
f 459 501 427
f 533 544 567
f 461 80 460
f 83 461 445
f 82 83 445
f 847 846 848
f 82 445 438
f 613 531 654
f 436 432 201
f 431 430 432
f 442 528 613
f 432 430 201
f 631 623 629
f 629 571 244
f 630 626 631
f 628 786 636
f 244 571 573
f 628 573 834
f 639 827 844
f 438 423 85
f 641 639 844
f 640 635 821
f 423 50 85
f 423 420 50
f 531 594 654
f 827 640 821
f 444 317 786
f 821 635 786
f 451 452 214
f 637 634 636
f 452 463 58
f 12 14 444
f 629 634 197
f 636 634 629
f 635 640 13
f 14 17 637
f 631 633 70
f 463 472 479
f 197 17 97
f 834 573 574
f 17 634 637
f 55 463 479
f 472 475 479
f 307 58 463
f 639 641 7
f 636 786 317
f 640 827 639
f 639 7 13
f 52 56 57
f 844 788 28
f 642 745 763
f 629 623 571
f 643 649 294
f 52 50 420
f 294 272 729
f 272 649 671
f 671 530 532
f 420 468 451
f 311 747 256
f 529 569 788
f 529 788 441
f 529 441 545
f 434 690 443
f 441 443 545
f 667 646 644
f 532 311 671
f 651 516 330
f 688 730 731
f 731 651 511
f 651 731 114
f 685 659 612
f 631 626 623
f 434 749 751
f 440 601 605
f 605 436 440
f 175 182 597
f 182 159 596
f 159 158 111
f 747 842 745
f 842 763 745
f 592 532 588
f 592 596 111
f 264 597 182
f 175 597 601
f 322 265 334
f 459 617 612
f 708 672 114
f 707 685 526
f 575 621 653
f 592 747 332
f 628 834 753
f 651 578 516
f 474 452 691
f 707 526 672
f 158 747 592
f 463 452 474
f 500 688 511
f 691 451 468
f 52 420 451
f 707 659 685
f 636 244 628
f 622 623 626
f 467 468 420
f 621 558 632
f 646 676 446
f 843 642 842
f 618 297 615
f 622 615 623
f 848 785 614
f 785 570 614
f 462 467 423
f 614 572 618
f 438 445 425
f 615 571 623
f 442 613 655
f 618 542 614
f 753 838 249
f 249 821 753
f 748 827 839
f 499 638 553
f 460 465 456
f 752 844 748
f 752 788 844
f 788 752 441
f 644 632 558
f 827 821 249
f 748 844 827
f 690 825 545
f 834 833 838
f 101 837 749
f 751 616 434
f 743 839 101
f 463 474 228
f 751 749 837
f 524 616 751
f 616 690 434
f 746 752 748
f 752 746 441
f 839 743 748
f 743 434 746
f 743 749 434
f 743 746 748
f 441 746 443
f 446 668 448
f 434 443 746
f 456 465 569
f 828 107 524
f 691 470 273
f 632 238 653
f 691 478 474
f 751 828 524
f 468 469 470
f 425 461 306
f 452 451 691
f 468 470 691
f 594 575 653
f 460 489 306
f 463 484 472
f 465 788 569
f 814 818 469
f 464 638 499
f 466 469 467
f 496 490 488
f 490 477 488
f 475 484 477
f 846 102 491
f 467 462 466
f 814 466 815
f 484 488 477
f 462 481 482
f 815 482 813
f 475 472 484
f 243 632 644
f 483 96 480
f 255 500 511
f 653 654 594
f 483 480 481
f 508 492 103
f 808 480 96
f 258 507 494
f 476 490 105
f 464 442 647
f 105 486 476
f 490 485 477
f 477 479 475
f 808 96 805
f 258 492 508
f 476 485 490
f 485 479 477
f 489 456 473
f 494 507 486
f 96 473 805
f 471 569 568
f 568 803 471
f 505 495 506
f 803 806 471
f 803 568 797
f 545 825 502
f 568 502 797
f 495 505 510
f 545 443 690
f 321 510 520
f 518 497 321
f 495 510 321
f 497 580 503
f 755 799 616
f 647 236 638
f 638 464 647
f 580 497 518
f 292 265 427
f 616 799 690
f 527 829 831
f 504 585 583
f 493 673 251
f 527 830 559
f 248 448 604
f 480 808 813
f 446 448 277
f 489 473 96
f 577 503 580
f 632 243 238
f 504 583 512
f 482 815 466
f 471 456 569
f 568 569 529
f 568 529 502
f 225 504 512
f 512 530 671
f 236 647 237
f 225 671 513
f 638 236 229
f 480 813 482
f 655 237 647
f 502 529 545
f 643 513 649
f 825 795 502
f 671 649 513
f 825 690 799
f 109 102 253
f 247 493 251
f 604 247 248
f 604 493 247
f 618 572 297
f 277 245 246
f 646 446 246
f 672 708 707
f 646 246 243
f 644 646 243
f 238 240 653
f 653 621 632
f 240 257 654
f 654 653 240
f 257 237 655
f 654 257 655
f 655 613 654
f 526 685 686
f 647 442 655
f 292 553 229
f 473 806 805
f 553 638 229
f 798 548 457
f 656 575 657
f 658 659 660
f 98 501 661
f 662 680 118
f 528 662 665
f 666 667 558
f 669 670 668
f 96 483 489
f 491 107 785
f 471 473 456
f 517 648 515
f 466 462 482
f 814 469 466
f 469 468 467
f 676 669 668
f 469 818 470
f 470 818 817
f 677 676 667
f 621 575 656
f 657 575 594
f 666 558 656
f 657 678 679
f 662 664 665
f 665 664 678
f 662 663 680
f 661 681 682
f 682 680 663
f 273 470 817
f 822 478 273
f 675 253 673
f 390 517 515
f 228 474 478
f 668 670 604
f 604 448 668
f 127 358 357
f 446 676 668
f 667 676 646
f 677 669 676
f 644 558 667
f 683 677 667
f 119 322 624
f 666 683 667
f 684 656 679
f 684 666 656
f 656 657 679
f 531 665 657
f 657 665 678
f 531 613 528
f 289 496 488
f 442 464 663
f 499 682 663
f 464 499 663
f 661 682 499
f 681 680 682
f 658 661 501
f 660 681 661
f 658 459 612
f 660 661 658
f 551 599 282
f 473 471 806
f 228 484 463
f 228 478 822
f 482 481 480
f 542 618 619
f 693 684 679
f 619 615 622
f 697 698 699
f 700 701 702
f 703 704 701
f 705 704 703
f 705 660 659
f 707 708 706
f 705 707 706
f 703 701 700
f 698 680 700
f 698 702 699
f 697 699 709
f 694 678 664
f 696 679 678
f 710 693 695
f 692 684 693
f 297 571 615
f 692 683 666
f 670 711 712
f 793 792 492
f 677 713 714
f 669 714 711
f 793 492 104
f 500 103 790
f 675 673 689
f 109 675 689
f 105 490 496
f 712 754 689
f 712 673 493
f 498 494 105
f 670 669 711
f 103 492 792
f 669 677 714
f 498 793 494
f 715 739 713
f 677 683 713
f 110 715 692
f 683 692 715
f 696 693 679
f 710 692 693
f 694 696 678
f 696 695 693
f 697 694 664
f 709 695 696
f 698 664 118
f 709 694 697
f 457 768 798
f 680 681 700
f 698 700 702
f 681 703 700
f 660 703 681
f 660 705 703
f 659 707 705
f 706 704 705
f 716 699 717
f 718 701 719
f 720 721 717
f 722 723 724
f 718 725 720
f 717 699 702
f 716 709 699
f 726 704 706
f 708 727 281
f 728 725 719
f 731 511 688
f 728 726 732
f 732 726 281
f 730 732 727
f 719 701 704
f 722 695 709
f 733 695 722
f 734 710 733
f 734 735 736
f 734 736 737
f 737 738 739
f 713 683 715
f 740 741 739
f 741 713 739
f 509 510 505
f 506 509 505
f 551 610 548
f 744 712 711
f 514 520 510
f 744 754 712
f 754 755 689
f 109 689 755
f 508 514 509
f 506 487 428
f 509 506 507
f 519 609 282
f 689 673 712
f 711 742 750
f 514 508 255
f 714 742 711
f 714 741 742
f 742 741 740
f 714 713 741
f 737 739 715
f 738 740 739
f 692 710 110
f 736 738 737
f 737 110 734
f 710 695 733
f 735 733 724
f 735 734 733
f 733 722 724
f 709 716 722
f 723 716 721
f 723 722 716
f 718 717 702
f 721 716 717
f 717 718 720
f 702 701 718
f 726 719 704
f 725 718 719
f 281 726 706
f 728 719 726
f 708 731 727
f 731 730 727
f 514 516 520
f 510 509 514
f 754 799 755
f 750 742 756
f 757 825 754
f 758 759 760
f 757 750 761
f 725 728 293
f 600 521 519
f 524 109 755
f 514 511 330
f 543 600 552
f 764 797 761
f 740 765 756
f 792 793 767
f 765 764 756
f 769 738 736
f 770 769 771
f 772 735 724
f 771 772 773
f 724 774 772
f 774 775 772
f 760 774 723
f 723 721 227
f 758 760 227
f 776 758 286
f 219 732 195
f 790 792 730
f 521 600 598
f 767 730 792
f 730 767 195
f 728 732 219
f 777 762 293
f 762 776 305
f 776 779 758
f 512 583 588
f 552 599 551
f 593 598 557
f 593 541 591
f 587 538 539
f 586 582 581
f 744 750 757
f 742 740 756
f 750 756 761
f 740 738 765
f 769 765 738
f 518 578 580
f 771 769 736
f 770 765 769
f 770 771 773
f 736 735 771
f 773 772 775
f 771 735 772
f 723 774 724
f 210 775 774
f 780 760 759
f 780 774 760
f 721 720 286
f 779 759 758
f 720 725 305
f 326 779 776
f 781 762 782
f 781 776 762
f 782 777 783
f 782 762 777
f 783 767 122
f 520 516 578
f 520 578 518
f 586 579 582
f 544 533 564
f 349 549 534
f 530 512 588
f 532 530 588
f 521 598 522
f 784 800 547
f 547 548 290
f 522 598 593
f 522 593 523
f 525 523 591
f 587 591 538
f 525 591 587
f 581 587 539
f 798 768 290
f 139 550 551
f 795 797 502
f 554 550 796
f 543 552 554
f 797 795 761
f 556 554 787
f 754 744 757
f 787 789 556
f 543 556 557
f 789 826 555
f 764 802 803
f 770 773 804
f 804 805 806
f 807 805 804
f 808 805 807
f 780 210 774
f 808 809 810
f 779 811 312
f 810 812 813
f 811 814 815
f 811 815 812
f 811 779 326
f 814 811 816
f 818 816 193
f 816 781 437
f 819 817 193
f 819 424 820
f 424 783 122
f 820 496 289
f 793 498 122
f 616 524 755
f 557 555 541
f 248 217 180
f 826 829 560
f 541 560 538
f 825 799 754
f 795 825 757
f 761 795 757
f 761 756 764
f 797 764 803
f 559 829 527
f 802 764 765
f 804 802 770
f 806 803 802
f 802 804 806
f 773 807 804
f 775 807 773
f 775 809 807
f 810 809 210
f 808 807 809
f 560 559 538
f 813 808 810
f 813 812 815
f 812 810 780
f 780 759 312
f 781 816 326
f 424 819 437
f 818 814 816
f 782 783 424
f 536 539 537
f 496 820 498
f 819 822 817
f 107 109 524
f 830 850 561
f 562 563 121
f 562 561 850
f 536 561 121
f 565 562 450
f 544 563 565
f 567 565 100
f 100 126 791
f 832 833 834
f 785 828 835
f 567 791 566
f 833 835 125
f 838 753 834
f 838 837 101
f 570 785 835
f 123 847 534
f 835 833 832
f 837 838 833
f 542 534 847
f 349 534 542
f 536 586 581
f 536 581 539
f 168 845 801
f 566 791 841
f 450 435 100
f 562 850 450
f 848 542 847
f 147 133 849
f 563 579 586
f 841 123 566
f 561 536 537
f 100 565 450
f 117 156 540
f 136 435 51
f 51 850 840
f 840 145 144
f 537 539 559
f 830 537 559
f 831 830 527
f 831 829 849
f 849 826 824
f 147 824 148
f 120 79 394
f 559 539 538
f 842 156 843
f 540 433 117
f 169 801 131
f 131 170 169
f 801 845 327
f 845 823 303
f 794 823 155
f 794 148 824
f 824 147 849
f 555 560 541
f 555 826 560
f 563 586 121
f 534 566 123
f 556 789 555
f 126 841 791
f 791 567 100
f 435 135 126
f 51 435 450
f 126 100 435
f 850 51 450
f 144 136 51
f 51 840 144
f 830 836 840
f 831 836 830
f 151 145 836
f 151 831 133
f 151 836 831
f 831 849 133
f 829 826 849
f 789 824 826
f 789 794 824
f 789 787 199
f 823 794 199
f 155 148 794
f 787 796 303
f 845 168 155
f 796 800 327
f 800 784 314
f 314 433 131
f 784 766 241
f 241 843 117
f 544 564 202
f 543 554 556
f 579 563 202
f 544 565 567
f 549 564 533
f 552 550 554
f 768 546 290
f 534 533 566
f 784 547 130
f 130 546 766
f 800 550 139
f 548 547 139
f 419 778 603
f 603 778 457
f 457 548 610
f 600 599 552
f 600 543 598
f 598 543 557
f 591 541 538
f 557 541 593
f 591 523 593
f 535 525 587
f 581 582 535
f 581 535 587
f 550 800 796
f 552 551 550
f 533 534 549
f 500 790 688
f 686 685 627
f 526 686 674
f 652 674 686
f 672 674 651
f 650 652 687
f 627 625 645
f 554 796 787
f 557 556 555
f 687 645 650
f 652 686 687
f 674 672 526
f 560 829 559
f 561 537 830
f 625 627 612
f 627 685 612
f 650 645 620
f 612 617 625
f 271 645 625
f 624 625 119
f 322 611 624
f 607 611 602
f 606 607 608
f 611 605 602
f 605 601 602
f 601 597 336
f 182 596 264
f 596 592 590
f 590 589 595
f 607 620 271
f 607 606 620
f 334 605 611
f 611 607 624
f 606 608 589
f 608 595 589
f 602 336 608
f 565 563 562
f 590 595 264
f 336 597 595
f 590 592 588
f 585 584 300
f 589 590 116
f 588 583 116
f 652 580 115
f 578 674 115
f 674 578 651
f 650 577 250
f 580 652 250
f 620 584 298
f 577 650 298
f 620 606 300
f 576 585 606
f 589 583 576
f 589 576 606
f 576 583 585
f 842 642 763
f 574 573 572
f 573 571 297
