# Generated by benchmark/pick_up_apple/mujoco_src/export.py
v -0.30000001192092896 -0.23999999463558197 -0.019999999552965164
v -0.30000001192092896 -0.23999999463558197 0.019999999552965164
v -0.30000001192092896 0.23999999463558197 -0.019999999552965164
v -0.30000001192092896 0.23999999463558197 0.019999999552965164
v 0.30000001192092896 -0.23999999463558197 -0.019999999552965164
v 0.30000001192092896 -0.23999999463558197 0.019999999552965164
v 0.30000001192092896 0.23999999463558197 -0.019999999552965164
v 0.30000001192092896 0.23999999463558197 0.019999999552965164
f 2 4 1
f 5 2 1
f 1 4 3
f 3 5 1
f 2 8 4
f 6 2 5
f 6 8 2
f 4 8 3
f 7 5 3
f 3 8 7
f 7 6 5
f 8 6 7
