ISO-10303-21;
HEADER;
FILE_DESCRIPTION (( 'STEP AP214' ),
    '1' );
FILE_NAME ('Sphere.STEP',
    '2026-07-14T18:44:07',
    ( '' ),
    ( '' ),
    'SwSTEP 2.0',
    'SolidWorks 2026',
    '' );
FILE_SCHEMA (( 'AUTOMOTIVE_DESIGN' ));
ENDSEC;

DATA;
#1 =( NAMED_UNIT ( * ) PLANE_ANGLE_UNIT ( ) SI_UNIT ( $, .RADIAN. ) );
#2 = APPLICATION_PROTOCOL_DEFINITION ( 'draft international standard', 'automotive_design', 1998, #38 ) ;
#3 = FILL_AREA_STYLE_COLOUR ( '', #43 ) ;
#4 = PRODUCT_CONTEXT ( 'NONE', #38, 'mechanical' ) ;
#5 = AXIS2_PLACEMENT_3D ( 'NONE', #21, #70, #34 ) ;
#6 = DIRECTION ( 'NONE',  ( -1.000000000000000000, 0.000000000000000000, 0.000000000000000000 ) ) ;
#7 = PRODUCT_RELATED_PRODUCT_CATEGORY ( 'part', '', ( #26 ) ) ;
#8 = FILL_AREA_STYLE ('',( #3 ) ) ;
#9 = CIRCLE ( 'NONE', #5, 0.01499999999999999944 ) ;
#10 = CARTESIAN_POINT ( 'NONE',  ( 0.000000000000000000, 0.000000000000000000, 0.000000000000000000 ) ) ;
#11 = EDGE_LOOP ( 'NONE', ( #41, #57 ) ) ;
#12 = SURFACE_STYLE_FILL_AREA ( #8 ) ;
#13 = ORIENTED_EDGE ( 'NONE', *, *, #16, .F. ) ;
#14 = CARTESIAN_POINT ( 'NONE',  ( 0.000000000000000000, 0.000000000000000000, 0.000000000000000000 ) ) ;
#15 = PRODUCT_DEFINITION_CONTEXT ( 'detailed design', #46, 'design' ) ;
#16 = EDGE_CURVE ( 'NONE', #33, #52, #9, .T. ) ;
#17 = PRODUCT_DEFINITION_SHAPE ( 'NONE', 'NONE',  #30 ) ;
#18 = EDGE_LOOP ( 'NONE', ( #13, #63 ) ) ;
#19 =( NAMED_UNIT ( * ) PLANE_ANGLE_UNIT ( ) SI_UNIT ( $, .RADIAN. ) );
#20 = ADVANCED_FACE ( 'NONE', ( #47 ), #48, .T. ) ;
#21 = CARTESIAN_POINT ( 'NONE',  ( 0.000000000000000000, 0.000000000000000000, 0.000000000000000000 ) ) ;
#22 = DIRECTION ( 'NONE',  ( 0.000000000000000000, -1.000000000000000000, 0.000000000000000000 ) ) ;
#23 = DIRECTION ( 'NONE',  ( 1.000000000000000000, 0.000000000000000000, 0.000000000000000000 ) ) ;
#24 = UNCERTAINTY_MEASURE_WITH_UNIT (LENGTH_MEASURE( 1.000000000000000082E-05 ), #67, 'distance_accuracy_value', 'NONE');
#25 = STYLED_ITEM ( 'NONE', ( #71 ), #50 ) ;
#26 = PRODUCT ( 'Sphere', 'Sphere', '', ( #4 ) ) ;
#27 =( NAMED_UNIT ( * ) SI_UNIT ( $, .STERADIAN. ) SOLID_ANGLE_UNIT ( ) );
#28 = SURFACE_SIDE_STYLE ('',( #12 ) ) ;
#29 = AXIS2_PLACEMENT_3D ( 'NONE', #51, #39, #23 ) ;
#30 = PRODUCT_DEFINITION ( 'UNKNOWN', '', #32, #15 ) ;
#31 = AXIS2_PLACEMENT_3D ( 'NONE', #14, #75, #59 ) ;
#32 = PRODUCT_DEFINITION_FORMATION_WITH_SPECIFIED_SOURCE ( 'ANY', '', #26, .NOT_KNOWN. ) ;
#33 = VERTEX_POINT ( 'NONE', #64 ) ;
#34 = DIRECTION ( 'NONE',  ( 1.000000000000000000, -1.224646799147353207E-16, 0.000000000000000000 ) ) ;
#35 = ADVANCED_BREP_SHAPE_REPRESENTATION ( 'Sphere', ( #50, #29 ), #74 ) ;
#36 =( LENGTH_UNIT ( ) NAMED_UNIT ( * ) SI_UNIT ( $, .METRE. ) );
#37 = EDGE_CURVE ( 'NONE', #33, #52, #62, .T. ) ;
#38 = APPLICATION_CONTEXT ( 'automotive_design' ) ;
#39 = DIRECTION ( 'NONE',  ( 0.000000000000000000, 0.000000000000000000, 1.000000000000000000 ) ) ;
#40 = MECHANICAL_DESIGN_GEOMETRIC_PRESENTATION_REPRESENTATION (  '', ( #25 ), #72 ) ;
#41 = ORIENTED_EDGE ( 'NONE', *, *, #37, .F. ) ;
#42 =( NAMED_UNIT ( * ) SI_UNIT ( $, .STERADIAN. ) SOLID_ANGLE_UNIT ( ) );
#43 = COLOUR_RGB ( '',0.8941176470588234615, 0.8941176470588234615, 0.8941176470588234615 ) ;
#44 = SHAPE_DEFINITION_REPRESENTATION ( #17, #35 ) ;
#45 = CARTESIAN_POINT ( 'NONE',  ( 0.000000000000000000, 0.000000000000000000, 0.000000000000000000 ) ) ;
#46 = APPLICATION_CONTEXT ( 'automotive_design' ) ;
#47 = FACE_OUTER_BOUND ( 'NONE', #11, .T. ) ;
#48 = SPHERICAL_SURFACE ( 'NONE', #31, 0.01499999999999999944 ) ;
#49 = FACE_OUTER_BOUND ( 'NONE', #18, .T. ) ;
#50 = MANIFOLD_SOLID_BREP ( 'Revolve9', #66 ) ;
#51 = CARTESIAN_POINT ( 'NONE',  ( 0.000000000000000000, 0.000000000000000000, 0.000000000000000000 ) ) ;
#52 = VERTEX_POINT ( 'NONE', #65 ) ;
#53 = SURFACE_STYLE_USAGE ( .BOTH. , #28 ) ;
#54 = AXIS2_PLACEMENT_3D ( 'NONE', #45, #22, #6 ) ;
#55 = PRESENTATION_LAYER_ASSIGNMENT (  '', '', ( #25 ) ) ;
#56 = DIRECTION ( 'NONE',  ( 0.000000000000000000, 1.000000000000000000, 0.000000000000000000 ) ) ;
#57 = ORIENTED_EDGE ( 'NONE', *, *, #16, .T. ) ;
#58 = DIRECTION ( 'NONE',  ( 0.000000000000000000, 0.000000000000000000, 1.000000000000000000 ) ) ;
#59 = DIRECTION ( 'NONE',  ( -1.000000000000000000, 0.000000000000000000, 0.000000000000000000 ) ) ;
#60 = APPLICATION_PROTOCOL_DEFINITION ( 'draft international standard', 'automotive_design', 1998, #46 ) ;
#61 = AXIS2_PLACEMENT_3D ( 'NONE', #10, #56, #58 ) ;
#62 = CIRCLE ( 'NONE', #61, 0.01499999999999999944 ) ;
#63 = ORIENTED_EDGE ( 'NONE', *, *, #37, .T. ) ;
#64 = CARTESIAN_POINT ( 'NONE',  ( -9.184850993605147975E-19, 0.000000000000000000, -0.01499999999999999944 ) ) ;
#65 = CARTESIAN_POINT ( 'NONE',  ( -9.184850993605147975E-19, 0.000000000000000000, 0.01499999999999999944 ) ) ;
#66 = CLOSED_SHELL ( 'NONE', ( #20, #68 ) ) ;
#67 =( LENGTH_UNIT ( ) NAMED_UNIT ( * ) SI_UNIT ( $, .METRE. ) );
#68 = ADVANCED_FACE ( 'NONE', ( #49 ), #69, .T. ) ;
#69 = SPHERICAL_SURFACE ( 'NONE', #54, 0.01499999999999999944 ) ;
#70 = DIRECTION ( 'NONE',  ( -1.224646799147353207E-16, -1.000000000000000000, -0.000000000000000000 ) ) ;
#71 = PRESENTATION_STYLE_ASSIGNMENT (( #53 ) ) ;
#72 =( GEOMETRIC_REPRESENTATION_CONTEXT ( 3 ) GLOBAL_UNCERTAINTY_ASSIGNED_CONTEXT ( ( #73 ) ) GLOBAL_UNIT_ASSIGNED_CONTEXT ( ( #36, #19, #27 ) ) REPRESENTATION_CONTEXT ( 'NONE', 'WORKASPACE' ) );
#73 = UNCERTAINTY_MEASURE_WITH_UNIT (LENGTH_MEASURE( 1.000000000000000082E-05 ), #36, 'distance_accuracy_value', 'NONE');
#74 =( GEOMETRIC_REPRESENTATION_CONTEXT ( 3 ) GLOBAL_UNCERTAINTY_ASSIGNED_CONTEXT ( ( #24 ) ) GLOBAL_UNIT_ASSIGNED_CONTEXT ( ( #67, #1, #42 ) ) REPRESENTATION_CONTEXT ( 'NONE', 'WORKASPACE' ) );
#75 = DIRECTION ( 'NONE',  ( 0.000000000000000000, -1.000000000000000000, 0.000000000000000000 ) ) ;
ENDSEC;
END-ISO-10303-21;
