ISO-10303-21;
HEADER;
/* Generated by software containing ST-Developer
 * from STEP Tools, Inc. (www.steptools.com) 
 */
/* OPTION: using custom renumber hook */

FILE_DESCRIPTION(
/* description */ (
'CAx-IF Rec.Pracs.---Representation and Presentation of Product Manufa
cturing Information (PMI)---4.0---2014-10-13',
'CAx-IF Rec.Pracs.---3D Tessellated Geometry---0.4---2014-09-14','2;1'),

/* implementation_level */ '2;1');

FILE_NAME(
/* name */ 'openarm_left_link6_collision',
/* time_stamp */ '2026-07-31T22:06:09-07:00',
/* author */ (''),
/* organization */ (''),
/* preprocessor_version */ 'ST-DEVELOPER v20',
/* originating_system */ 'SIEMENS PLM Software NX2412.8300',
/* authorisation */ $);

FILE_SCHEMA (('AP242_MANAGED_MODEL_BASED_3D_ENGINEERING_MIM_LF { 1 0 10303 442 1 1 4 }'));
ENDSEC;

DATA;
#10=MECHANICAL_DESIGN_AND_DRAUGHTING_RELATIONSHIP('','',#26,#27);
#11=MECHANICAL_DESIGN_AND_DRAUGHTING_RELATIONSHIP('','',#28,#27);
#12=MECHANICAL_DESIGN_AND_DRAUGHTING_RELATIONSHIP('','',#29,#27);
#13=MECHANICAL_DESIGN_AND_DRAUGHTING_RELATIONSHIP('','',#30,#27);
#14=MECHANICAL_DESIGN_AND_DRAUGHTING_RELATIONSHIP('','',#31,#27);
#15=MECHANICAL_DESIGN_AND_DRAUGHTING_RELATIONSHIP('','',#32,#27);
#16=MECHANICAL_DESIGN_AND_DRAUGHTING_RELATIONSHIP('','',#33,#27);
#17=MECHANICAL_DESIGN_AND_DRAUGHTING_RELATIONSHIP('','',#34,#27);
#18=MODEL_GEOMETRIC_VIEW('Top','',#53,#26);
#19=MODEL_GEOMETRIC_VIEW('Front','',#54,#28);
#20=MODEL_GEOMETRIC_VIEW('Right','',#55,#29);
#21=MODEL_GEOMETRIC_VIEW('Back','',#56,#30);
#22=MODEL_GEOMETRIC_VIEW('Bottom','',#57,#31);
#23=MODEL_GEOMETRIC_VIEW('Left','',#58,#32);
#24=MODEL_GEOMETRIC_VIEW('Isometric','',#59,#33);
#25=MODEL_GEOMETRIC_VIEW('Trimetric','',#60,#34);
#26=DRAUGHTING_MODEL('Top',(#53,#44),#1365);
#27=DRAUGHTING_MODEL('',(#45),#1365);
#28=DRAUGHTING_MODEL('Front',(#54,#46),#1365);
#29=DRAUGHTING_MODEL('Right',(#55,#47),#1365);
#30=DRAUGHTING_MODEL('Back',(#56,#48),#1365);
#31=DRAUGHTING_MODEL('Bottom',(#57,#49),#1365);
#32=DRAUGHTING_MODEL('Left',(#58,#50),#1365);
#33=DRAUGHTING_MODEL('Isometric',(#59,#51),#1365);
#34=DRAUGHTING_MODEL('Trimetric',(#60,#52),#1365);
#35=REPRESENTATION_MAP(#788,#182);
#36=REPRESENTATION_MAP(#788,#182);
#37=REPRESENTATION_MAP(#788,#182);
#38=REPRESENTATION_MAP(#788,#182);
#39=REPRESENTATION_MAP(#788,#182);
#40=REPRESENTATION_MAP(#788,#182);
#41=REPRESENTATION_MAP(#788,#182);
#42=REPRESENTATION_MAP(#788,#182);
#43=REPRESENTATION_MAP(#788,#182);
#44=MAPPED_ITEM('',#35,#788);
#45=MAPPED_ITEM('',#36,#788);
#46=MAPPED_ITEM('',#37,#788);
#47=MAPPED_ITEM('',#38,#788);
#48=MAPPED_ITEM('',#39,#788);
#49=MAPPED_ITEM('',#40,#788);
#50=MAPPED_ITEM('',#41,#788);
#51=MAPPED_ITEM('',#42,#788);
#52=MAPPED_ITEM('',#43,#788);
#53=CAMERA_MODEL_D3('Top',#872,#61);
#54=CAMERA_MODEL_D3('Front',#874,#62);
#55=CAMERA_MODEL_D3('Right',#876,#63);
#56=CAMERA_MODEL_D3('Back',#878,#64);
#57=CAMERA_MODEL_D3('Bottom',#880,#65);
#58=CAMERA_MODEL_D3('Left',#882,#66);
#59=CAMERA_MODEL_D3('Isometric',#884,#67);
#60=CAMERA_MODEL_D3('Trimetric',#886,#68);
#61=VIEW_VOLUME(.PARALLEL.,#1341,91.5679483413696,0.,.F.,0.,.F.,.F.,#69);
#62=VIEW_VOLUME(.PARALLEL.,#1344,85.9493103027344,0.,.F.,0.,.F.,.F.,#70);
#63=VIEW_VOLUME(.PARALLEL.,#1347,85.9493103027344,0.,.F.,0.,.F.,.F.,#71);
#64=VIEW_VOLUME(.PARALLEL.,#1350,85.9493103027344,0.,.F.,0.,.F.,.F.,#72);
#65=VIEW_VOLUME(.PARALLEL.,#1353,91.5679550170898,0.,.F.,0.,.F.,.F.,#73);
#66=VIEW_VOLUME(.PARALLEL.,#1356,85.9493026733398,0.,.F.,0.,.F.,.F.,#74);
#67=VIEW_VOLUME(.PARALLEL.,#1359,144.287978788854,0.,.F.,0.,.F.,.F.,#75);
#68=VIEW_VOLUME(.PARALLEL.,#1362,127.557409115285,0.,.F.,0.,.F.,.F.,#76);
#69=PLANAR_BOX('',45.6609072754875,45.6609072754875,#873);
#70=PLANAR_BOX('',42.85913967947,42.85913967947,#875);
#71=PLANAR_BOX('',42.85913967947,42.85913967947,#877);
#72=PLANAR_BOX('',42.85913967947,42.85913967947,#879);
#73=PLANAR_BOX('',45.6609106043754,45.6609106043754,#881);
#74=PLANAR_BOX('',42.8591358750266,42.8591358750266,#883);
#75=PLANAR_BOX('',71.9500670243675,71.9500670243675,#885);
#76=PLANAR_BOX('',63.6072679951382,63.6072679951382,#887);
#77=LINE('',#1158,#129);
#78=LINE('',#1162,#130);
#79=LINE('',#1169,#131);
#80=LINE('',#1174,#132);
#81=LINE('',#1178,#133);
#82=LINE('',#1186,#134);
#83=LINE('',#1192,#135);
#84=LINE('',#1193,#136);
#85=LINE('',#1195,#137);
#86=LINE('',#1197,#138);
#87=LINE('',#1198,#139);
#88=LINE('',#1200,#140);
#89=LINE('',#1211,#141);
#90=LINE('',#1216,#142);
#91=LINE('',#1220,#143);
#92=LINE('',#1224,#144);
#93=LINE('',#1228,#145);
#94=LINE('',#1230,#146);
#95=LINE('',#1232,#147);
#96=LINE('',#1234,#148);
#97=LINE('',#1237,#149);
#98=LINE('',#1239,#150);
#99=LINE('',#1241,#151);
#100=LINE('',#1242,#152);
#101=LINE('',#1244,#153);
#102=LINE('',#1246,#154);
#103=LINE('',#1248,#155);
#104=LINE('',#1250,#156);
#105=LINE('',#1252,#157);
#106=LINE('',#1254,#158);
#107=LINE('',#1256,#159);
#108=LINE('',#1258,#160);
#109=LINE('',#1279,#161);
#110=LINE('',#1284,#162);
#111=LINE('',#1288,#163);
#112=LINE('',#1292,#164);
#113=LINE('',#1296,#165);
#114=LINE('',#1298,#166);
#115=LINE('',#1300,#167);
#116=LINE('',#1302,#168);
#117=LINE('',#1305,#169);
#118=LINE('',#1307,#170);
#119=LINE('',#1309,#171);
#120=LINE('',#1310,#172);
#121=LINE('',#1312,#173);
#122=LINE('',#1314,#174);
#123=LINE('',#1316,#175);
#124=LINE('',#1318,#176);
#125=LINE('',#1320,#177);
#126=LINE('',#1322,#178);
#127=LINE('',#1324,#179);
#128=LINE('',#1326,#180);
#129=VECTOR('',#912,1000.);
#130=VECTOR('',#915,1000.);
#131=VECTOR('',#922,1000.);
#132=VECTOR('',#927,1000.);
#133=VECTOR('',#932,1000.);
#134=VECTOR('',#939,1000.);
#135=VECTOR('',#946,1000.);
#136=VECTOR('',#947,1000.);
#137=VECTOR('',#950,1000.);
#138=VECTOR('',#953,1000.);
#139=VECTOR('',#954,1000.);
#140=VECTOR('',#957,1000.);
#141=VECTOR('',#974,1000.);
#142=VECTOR('',#977,1000.);
#143=VECTOR('',#980,1000.);
#144=VECTOR('',#983,1000.);
#145=VECTOR('',#988,1000.);
#146=VECTOR('',#989,1000.);
#147=VECTOR('',#990,1000.);
#148=VECTOR('',#993,1000.);
#149=VECTOR('',#994,1000.);
#150=VECTOR('',#995,1000.);
#151=VECTOR('',#996,1000.);
#152=VECTOR('',#997,1000.);
#153=VECTOR('',#1000,1000.);
#154=VECTOR('',#1001,1000.);
#155=VECTOR('',#1002,1000.);
#156=VECTOR('',#1005,1000.);
#157=VECTOR('',#1006,1000.);
#158=VECTOR('',#1007,1000.);
#159=VECTOR('',#1008,1000.);
#160=VECTOR('',#1009,1000.);
#161=VECTOR('',#1046,1000.);
#162=VECTOR('',#1049,1000.);
#163=VECTOR('',#1052,1000.);
#164=VECTOR('',#1055,1000.);
#165=VECTOR('',#1060,1000.);
#166=VECTOR('',#1061,1000.);
#167=VECTOR('',#1062,1000.);
#168=VECTOR('',#1065,1000.);
#169=VECTOR('',#1066,1000.);
#170=VECTOR('',#1067,1000.);
#171=VECTOR('',#1068,1000.);
#172=VECTOR('',#1069,1000.);
#173=VECTOR('',#1072,1000.);
#174=VECTOR('',#1073,1000.);
#175=VECTOR('',#1074,1000.);
#176=VECTOR('',#1077,1000.);
#177=VECTOR('',#1078,1000.);
#178=VECTOR('',#1079,1000.);
#179=VECTOR('',#1080,1000.);
#180=VECTOR('',#1081,1000.);
#181=SHAPE_REPRESENTATION_RELATIONSHIP('','',#787,#182);
#182=ADVANCED_BREP_SHAPE_REPRESENTATION('',(#782,#783,#784,#785),#1365);
#183=PLANE('',#795);
#184=PLANE('',#796);
#185=PLANE('',#797);
#186=PLANE('',#801);
#187=PLANE('',#807);
#188=PLANE('',#815);
#189=PLANE('',#816);
#190=PLANE('',#823);
#191=PLANE('',#824);
#192=PLANE('',#829);
#193=PLANE('',#830);
#194=PLANE('',#831);
#195=PLANE('',#832);
#196=PLANE('',#833);
#197=PLANE('',#837);
#198=PLANE('',#849);
#199=PLANE('',#850);
#200=PLANE('',#855);
#201=PLANE('',#856);
#202=PLANE('',#857);
#203=PLANE('',#858);
#204=PLANE('',#859);
#205=PLANE('',#863);
#206=ORIENTED_EDGE('',*,*,#390,.T.);
#207=ORIENTED_EDGE('',*,*,#391,.F.);
#208=ORIENTED_EDGE('',*,*,#392,.F.);
#209=ORIENTED_EDGE('',*,*,#393,.T.);
#210=ORIENTED_EDGE('',*,*,#392,.T.);
#211=ORIENTED_EDGE('',*,*,#393,.F.);
#212=ORIENTED_EDGE('',*,*,#391,.T.);
#213=ORIENTED_EDGE('',*,*,#390,.F.);
#214=ORIENTED_EDGE('',*,*,#394,.T.);
#215=ORIENTED_EDGE('',*,*,#395,.T.);
#216=ORIENTED_EDGE('',*,*,#396,.T.);
#217=ORIENTED_EDGE('',*,*,#397,.T.);
#218=ORIENTED_EDGE('',*,*,#398,.F.);
#219=ORIENTED_EDGE('',*,*,#399,.F.);
#220=ORIENTED_EDGE('',*,*,#400,.T.);
#221=ORIENTED_EDGE('',*,*,#394,.F.);
#222=ORIENTED_EDGE('',*,*,#401,.F.);
#223=ORIENTED_EDGE('',*,*,#402,.F.);
#224=ORIENTED_EDGE('',*,*,#403,.F.);
#225=ORIENTED_EDGE('',*,*,#404,.F.);
#226=ORIENTED_EDGE('',*,*,#405,.T.);
#227=ORIENTED_EDGE('',*,*,#406,.F.);
#228=ORIENTED_EDGE('',*,*,#407,.T.);
#229=ORIENTED_EDGE('',*,*,#408,.F.);
#230=ORIENTED_EDGE('',*,*,#409,.F.);
#231=ORIENTED_EDGE('',*,*,#410,.F.);
#232=ORIENTED_EDGE('',*,*,#411,.T.);
#233=ORIENTED_EDGE('',*,*,#396,.F.);
#234=ORIENTED_EDGE('',*,*,#412,.F.);
#235=ORIENTED_EDGE('',*,*,#407,.F.);
#236=ORIENTED_EDGE('',*,*,#413,.F.);
#237=ORIENTED_EDGE('',*,*,#398,.T.);
#238=ORIENTED_EDGE('',*,*,#397,.F.);
#239=ORIENTED_EDGE('',*,*,#411,.F.);
#240=ORIENTED_EDGE('',*,*,#414,.F.);
#241=ORIENTED_EDGE('',*,*,#401,.T.);
#242=ORIENTED_EDGE('',*,*,#409,.T.);
#243=ORIENTED_EDGE('',*,*,#415,.F.);
#244=ORIENTED_EDGE('',*,*,#403,.T.);
#245=ORIENTED_EDGE('',*,*,#416,.F.);
#246=ORIENTED_EDGE('',*,*,#400,.F.);
#247=ORIENTED_EDGE('',*,*,#417,.F.);
#248=ORIENTED_EDGE('',*,*,#405,.F.);
#249=ORIENTED_EDGE('',*,*,#395,.F.);
#250=ORIENTED_EDGE('',*,*,#406,.T.);
#251=ORIENTED_EDGE('',*,*,#417,.T.);
#252=ORIENTED_EDGE('',*,*,#399,.T.);
#253=ORIENTED_EDGE('',*,*,#413,.T.);
#254=ORIENTED_EDGE('',*,*,#410,.T.);
#255=ORIENTED_EDGE('',*,*,#416,.T.);
#256=ORIENTED_EDGE('',*,*,#402,.T.);
#257=ORIENTED_EDGE('',*,*,#414,.T.);
#258=ORIENTED_EDGE('',*,*,#408,.T.);
#259=ORIENTED_EDGE('',*,*,#412,.T.);
#260=ORIENTED_EDGE('',*,*,#404,.T.);
#261=ORIENTED_EDGE('',*,*,#415,.T.);
#262=ORIENTED_EDGE('',*,*,#418,.F.);
#263=ORIENTED_EDGE('',*,*,#419,.T.);
#264=ORIENTED_EDGE('',*,*,#419,.F.);
#265=ORIENTED_EDGE('',*,*,#420,.T.);
#266=ORIENTED_EDGE('',*,*,#421,.F.);
#267=ORIENTED_EDGE('',*,*,#422,.T.);
#268=ORIENTED_EDGE('',*,*,#423,.F.);
#269=ORIENTED_EDGE('',*,*,#424,.T.);
#270=ORIENTED_EDGE('',*,*,#425,.F.);
#271=ORIENTED_EDGE('',*,*,#426,.T.);
#272=ORIENTED_EDGE('',*,*,#427,.F.);
#273=ORIENTED_EDGE('',*,*,#428,.F.);
#274=ORIENTED_EDGE('',*,*,#426,.F.);
#275=ORIENTED_EDGE('',*,*,#429,.F.);
#276=ORIENTED_EDGE('',*,*,#430,.T.);
#277=ORIENTED_EDGE('',*,*,#431,.T.);
#278=ORIENTED_EDGE('',*,*,#432,.T.);
#279=ORIENTED_EDGE('',*,*,#433,.F.);
#280=ORIENTED_EDGE('',*,*,#434,.F.);
#281=ORIENTED_EDGE('',*,*,#420,.F.);
#282=ORIENTED_EDGE('',*,*,#435,.F.);
#283=ORIENTED_EDGE('',*,*,#422,.F.);
#284=ORIENTED_EDGE('',*,*,#436,.F.);
#285=ORIENTED_EDGE('',*,*,#437,.T.);
#286=ORIENTED_EDGE('',*,*,#438,.F.);
#287=ORIENTED_EDGE('',*,*,#439,.F.);
#288=ORIENTED_EDGE('',*,*,#424,.F.);
#289=ORIENTED_EDGE('',*,*,#440,.F.);
#290=ORIENTED_EDGE('',*,*,#441,.F.);
#291=ORIENTED_EDGE('',*,*,#442,.F.);
#292=ORIENTED_EDGE('',*,*,#443,.T.);
#293=ORIENTED_EDGE('',*,*,#433,.T.);
#294=ORIENTED_EDGE('',*,*,#444,.T.);
#295=ORIENTED_EDGE('',*,*,#441,.T.);
#296=ORIENTED_EDGE('',*,*,#445,.F.);
#297=ORIENTED_EDGE('',*,*,#437,.F.);
#298=ORIENTED_EDGE('',*,*,#446,.F.);
#299=ORIENTED_EDGE('',*,*,#447,.F.);
#300=ORIENTED_EDGE('',*,*,#430,.F.);
#301=ORIENTED_EDGE('',*,*,#448,.F.);
#302=ORIENTED_EDGE('',*,*,#443,.F.);
#303=ORIENTED_EDGE('',*,*,#449,.F.);
#304=ORIENTED_EDGE('',*,*,#431,.F.);
#305=ORIENTED_EDGE('',*,*,#418,.T.);
#306=ORIENTED_EDGE('',*,*,#444,.F.);
#307=ORIENTED_EDGE('',*,*,#432,.F.);
#308=ORIENTED_EDGE('',*,*,#449,.T.);
#309=ORIENTED_EDGE('',*,*,#442,.T.);
#310=ORIENTED_EDGE('',*,*,#445,.T.);
#311=ORIENTED_EDGE('',*,*,#440,.T.);
#312=ORIENTED_EDGE('',*,*,#423,.T.);
#313=ORIENTED_EDGE('',*,*,#438,.T.);
#314=ORIENTED_EDGE('',*,*,#446,.T.);
#315=ORIENTED_EDGE('',*,*,#436,.T.);
#316=ORIENTED_EDGE('',*,*,#421,.T.);
#317=ORIENTED_EDGE('',*,*,#434,.T.);
#318=ORIENTED_EDGE('',*,*,#435,.T.);
#319=ORIENTED_EDGE('',*,*,#427,.T.);
#320=ORIENTED_EDGE('',*,*,#428,.T.);
#321=ORIENTED_EDGE('',*,*,#447,.T.);
#322=ORIENTED_EDGE('',*,*,#429,.T.);
#323=ORIENTED_EDGE('',*,*,#425,.T.);
#324=ORIENTED_EDGE('',*,*,#439,.T.);
#325=ORIENTED_EDGE('',*,*,#448,.T.);
#326=ORIENTED_EDGE('',*,*,#450,.F.);
#327=ORIENTED_EDGE('',*,*,#451,.T.);
#328=ORIENTED_EDGE('',*,*,#451,.F.);
#329=ORIENTED_EDGE('',*,*,#452,.T.);
#330=ORIENTED_EDGE('',*,*,#453,.F.);
#331=ORIENTED_EDGE('',*,*,#454,.T.);
#332=ORIENTED_EDGE('',*,*,#455,.F.);
#333=ORIENTED_EDGE('',*,*,#456,.T.);
#334=ORIENTED_EDGE('',*,*,#457,.F.);
#335=ORIENTED_EDGE('',*,*,#458,.T.);
#336=ORIENTED_EDGE('',*,*,#459,.F.);
#337=ORIENTED_EDGE('',*,*,#460,.F.);
#338=ORIENTED_EDGE('',*,*,#458,.F.);
#339=ORIENTED_EDGE('',*,*,#461,.F.);
#340=ORIENTED_EDGE('',*,*,#462,.T.);
#341=ORIENTED_EDGE('',*,*,#463,.T.);
#342=ORIENTED_EDGE('',*,*,#464,.T.);
#343=ORIENTED_EDGE('',*,*,#465,.F.);
#344=ORIENTED_EDGE('',*,*,#466,.F.);
#345=ORIENTED_EDGE('',*,*,#452,.F.);
#346=ORIENTED_EDGE('',*,*,#467,.F.);
#347=ORIENTED_EDGE('',*,*,#454,.F.);
#348=ORIENTED_EDGE('',*,*,#468,.F.);
#349=ORIENTED_EDGE('',*,*,#469,.T.);
#350=ORIENTED_EDGE('',*,*,#470,.F.);
#351=ORIENTED_EDGE('',*,*,#471,.F.);
#352=ORIENTED_EDGE('',*,*,#456,.F.);
#353=ORIENTED_EDGE('',*,*,#472,.F.);
#354=ORIENTED_EDGE('',*,*,#473,.F.);
#355=ORIENTED_EDGE('',*,*,#474,.F.);
#356=ORIENTED_EDGE('',*,*,#475,.T.);
#357=ORIENTED_EDGE('',*,*,#465,.T.);
#358=ORIENTED_EDGE('',*,*,#476,.T.);
#359=ORIENTED_EDGE('',*,*,#473,.T.);
#360=ORIENTED_EDGE('',*,*,#477,.F.);
#361=ORIENTED_EDGE('',*,*,#469,.F.);
#362=ORIENTED_EDGE('',*,*,#478,.F.);
#363=ORIENTED_EDGE('',*,*,#479,.F.);
#364=ORIENTED_EDGE('',*,*,#462,.F.);
#365=ORIENTED_EDGE('',*,*,#480,.F.);
#366=ORIENTED_EDGE('',*,*,#475,.F.);
#367=ORIENTED_EDGE('',*,*,#481,.F.);
#368=ORIENTED_EDGE('',*,*,#463,.F.);
#369=ORIENTED_EDGE('',*,*,#450,.T.);
#370=ORIENTED_EDGE('',*,*,#476,.F.);
#371=ORIENTED_EDGE('',*,*,#464,.F.);
#372=ORIENTED_EDGE('',*,*,#481,.T.);
#373=ORIENTED_EDGE('',*,*,#474,.T.);
#374=ORIENTED_EDGE('',*,*,#477,.T.);
#375=ORIENTED_EDGE('',*,*,#472,.T.);
#376=ORIENTED_EDGE('',*,*,#455,.T.);
#377=ORIENTED_EDGE('',*,*,#470,.T.);
#378=ORIENTED_EDGE('',*,*,#478,.T.);
#379=ORIENTED_EDGE('',*,*,#468,.T.);
#380=ORIENTED_EDGE('',*,*,#453,.T.);
#381=ORIENTED_EDGE('',*,*,#466,.T.);
#382=ORIENTED_EDGE('',*,*,#467,.T.);
#383=ORIENTED_EDGE('',*,*,#459,.T.);
#384=ORIENTED_EDGE('',*,*,#460,.T.);
#385=ORIENTED_EDGE('',*,*,#479,.T.);
#386=ORIENTED_EDGE('',*,*,#461,.T.);
#387=ORIENTED_EDGE('',*,*,#457,.T.);
#388=ORIENTED_EDGE('',*,*,#471,.T.);
#389=ORIENTED_EDGE('',*,*,#480,.T.);
#390=EDGE_CURVE('NONE',#482,#482,#546,.T.);
#391=EDGE_CURVE('NONE',#483,#483,#547,.T.);
#392=EDGE_CURVE('NONE',#484,#484,#548,.T.);
#393=EDGE_CURVE('NONE',#485,#485,#549,.T.);
#394=EDGE_CURVE('NONE',#486,#487,#550,.T.);
#395=EDGE_CURVE('NONE',#487,#488,#77,.T.);
#396=EDGE_CURVE('NONE',#488,#489,#551,.T.);
#397=EDGE_CURVE('NONE',#489,#486,#78,.T.);
#398=EDGE_CURVE('NONE',#490,#491,#552,.T.);
#399=EDGE_CURVE('NONE',#492,#490,#553,.T.);
#400=EDGE_CURVE('NONE',#492,#487,#79,.T.);
#401=EDGE_CURVE('NONE',#493,#486,#554,.T.);
#402=EDGE_CURVE('NONE',#494,#493,#555,.T.);
#403=EDGE_CURVE('NONE',#495,#494,#80,.T.);
#404=EDGE_CURVE('NONE',#491,#495,#556,.T.);
#405=EDGE_CURVE('NONE',#488,#496,#81,.T.);
#406=EDGE_CURVE('NONE',#497,#496,#557,.T.);
#407=EDGE_CURVE('NONE',#497,#498,#558,.T.);
#408=EDGE_CURVE('NONE',#499,#498,#559,.T.);
#409=EDGE_CURVE('NONE',#500,#499,#82,.T.);
#410=EDGE_CURVE('NONE',#501,#500,#560,.T.);
#411=EDGE_CURVE('NONE',#501,#489,#561,.T.);
#412=EDGE_CURVE('NONE',#498,#491,#83,.T.);
#413=EDGE_CURVE('NONE',#490,#497,#84,.T.);
#414=EDGE_CURVE('NONE',#493,#501,#85,.T.);
#415=EDGE_CURVE('NONE',#495,#499,#86,.T.);
#416=EDGE_CURVE('NONE',#500,#494,#87,.T.);
#417=EDGE_CURVE('NONE',#496,#492,#88,.T.);
#418=EDGE_CURVE('NONE',#502,#502,#562,.T.);
#419=EDGE_CURVE('NONE',#503,#503,#563,.T.);
#420=EDGE_CURVE('NONE',#504,#505,#89,.T.);
#421=EDGE_CURVE('NONE',#506,#505,#564,.T.);
#422=EDGE_CURVE('NONE',#506,#507,#90,.T.);
#423=EDGE_CURVE('NONE',#508,#507,#565,.T.);
#424=EDGE_CURVE('NONE',#508,#509,#91,.T.);
#425=EDGE_CURVE('NONE',#510,#509,#566,.T.);
#426=EDGE_CURVE('NONE',#510,#511,#92,.T.);
#427=EDGE_CURVE('NONE',#504,#511,#567,.T.);
#428=EDGE_CURVE('NONE',#511,#512,#93,.T.);
#429=EDGE_CURVE('NONE',#513,#510,#94,.T.);
#430=EDGE_CURVE('NONE',#513,#512,#95,.T.);
#431=EDGE_CURVE('NONE',#514,#515,#96,.T.);
#432=EDGE_CURVE('NONE',#515,#516,#97,.T.);
#433=EDGE_CURVE('NONE',#517,#516,#98,.T.);
#434=EDGE_CURVE('NONE',#505,#517,#99,.T.);
#435=EDGE_CURVE('NONE',#514,#504,#100,.T.);
#436=EDGE_CURVE('NONE',#518,#506,#101,.T.);
#437=EDGE_CURVE('NONE',#518,#519,#102,.T.);
#438=EDGE_CURVE('NONE',#507,#519,#103,.T.);
#439=EDGE_CURVE('NONE',#509,#520,#104,.T.);
#440=EDGE_CURVE('NONE',#521,#508,#105,.T.);
#441=EDGE_CURVE('NONE',#522,#521,#106,.T.);
#442=EDGE_CURVE('NONE',#523,#522,#107,.T.);
#443=EDGE_CURVE('NONE',#523,#520,#108,.T.);
#444=EDGE_CURVE('NONE',#516,#522,#568,.T.);
#445=EDGE_CURVE('NONE',#519,#521,#569,.T.);
#446=EDGE_CURVE('NONE',#517,#518,#570,.T.);
#447=EDGE_CURVE('NONE',#512,#514,#571,.T.);
#448=EDGE_CURVE('NONE',#520,#513,#572,.T.);
#449=EDGE_CURVE('NONE',#515,#523,#573,.T.);
#450=EDGE_CURVE('NONE',#524,#524,#574,.T.);
#451=EDGE_CURVE('NONE',#525,#525,#575,.T.);
#452=EDGE_CURVE('NONE',#526,#527,#109,.T.);
#453=EDGE_CURVE('NONE',#528,#527,#576,.T.);
#454=EDGE_CURVE('NONE',#528,#529,#110,.T.);
#455=EDGE_CURVE('NONE',#530,#529,#577,.T.);
#456=EDGE_CURVE('NONE',#530,#531,#111,.T.);
#457=EDGE_CURVE('NONE',#532,#531,#578,.T.);
#458=EDGE_CURVE('NONE',#532,#533,#112,.T.);
#459=EDGE_CURVE('NONE',#526,#533,#579,.T.);
#460=EDGE_CURVE('NONE',#533,#534,#113,.T.);
#461=EDGE_CURVE('NONE',#535,#532,#114,.T.);
#462=EDGE_CURVE('NONE',#535,#534,#115,.T.);
#463=EDGE_CURVE('NONE',#536,#537,#116,.T.);
#464=EDGE_CURVE('NONE',#537,#538,#117,.T.);
#465=EDGE_CURVE('NONE',#539,#538,#118,.T.);
#466=EDGE_CURVE('NONE',#527,#539,#119,.T.);
#467=EDGE_CURVE('NONE',#536,#526,#120,.T.);
#468=EDGE_CURVE('NONE',#540,#528,#121,.T.);
#469=EDGE_CURVE('NONE',#540,#541,#122,.T.);
#470=EDGE_CURVE('NONE',#529,#541,#123,.T.);
#471=EDGE_CURVE('NONE',#531,#542,#124,.T.);
#472=EDGE_CURVE('NONE',#543,#530,#125,.T.);
#473=EDGE_CURVE('NONE',#544,#543,#126,.T.);
#474=EDGE_CURVE('NONE',#545,#544,#127,.T.);
#475=EDGE_CURVE('NONE',#545,#542,#128,.T.);
#476=EDGE_CURVE('NONE',#538,#544,#580,.T.);
#477=EDGE_CURVE('NONE',#541,#543,#581,.T.);
#478=EDGE_CURVE('NONE',#539,#540,#582,.T.);
#479=EDGE_CURVE('NONE',#534,#536,#583,.T.);
#480=EDGE_CURVE('NONE',#542,#535,#584,.T.);
#481=EDGE_CURVE('NONE',#537,#545,#585,.T.);
#482=VERTEX_POINT('',#1143);
#483=VERTEX_POINT('',#1145);
#484=VERTEX_POINT('',#1148);
#485=VERTEX_POINT('',#1150);
#486=VERTEX_POINT('',#1156);
#487=VERTEX_POINT('',#1157);
#488=VERTEX_POINT('',#1159);
#489=VERTEX_POINT('',#1161);
#490=VERTEX_POINT('',#1165);
#491=VERTEX_POINT('',#1166);
#492=VERTEX_POINT('',#1168);
#493=VERTEX_POINT('',#1171);
#494=VERTEX_POINT('',#1173);
#495=VERTEX_POINT('',#1175);
#496=VERTEX_POINT('',#1179);
#497=VERTEX_POINT('',#1181);
#498=VERTEX_POINT('',#1183);
#499=VERTEX_POINT('',#1185);
#500=VERTEX_POINT('',#1187);
#501=VERTEX_POINT('',#1189);
#502=VERTEX_POINT('',#1206);
#503=VERTEX_POINT('',#1208);
#504=VERTEX_POINT('',#1212);
#505=VERTEX_POINT('',#1213);
#506=VERTEX_POINT('',#1215);
#507=VERTEX_POINT('',#1217);
#508=VERTEX_POINT('',#1219);
#509=VERTEX_POINT('',#1221);
#510=VERTEX_POINT('',#1223);
#511=VERTEX_POINT('',#1225);
#512=VERTEX_POINT('',#1229);
#513=VERTEX_POINT('',#1231);
#514=VERTEX_POINT('',#1235);
#515=VERTEX_POINT('',#1236);
#516=VERTEX_POINT('',#1238);
#517=VERTEX_POINT('',#1240);
#518=VERTEX_POINT('',#1245);
#519=VERTEX_POINT('',#1247);
#520=VERTEX_POINT('',#1251);
#521=VERTEX_POINT('',#1253);
#522=VERTEX_POINT('',#1255);
#523=VERTEX_POINT('',#1257);
#524=VERTEX_POINT('',#1274);
#525=VERTEX_POINT('',#1276);
#526=VERTEX_POINT('',#1280);
#527=VERTEX_POINT('',#1281);
#528=VERTEX_POINT('',#1283);
#529=VERTEX_POINT('',#1285);
#530=VERTEX_POINT('',#1287);
#531=VERTEX_POINT('',#1289);
#532=VERTEX_POINT('',#1291);
#533=VERTEX_POINT('',#1293);
#534=VERTEX_POINT('',#1297);
#535=VERTEX_POINT('',#1299);
#536=VERTEX_POINT('',#1303);
#537=VERTEX_POINT('',#1304);
#538=VERTEX_POINT('',#1306);
#539=VERTEX_POINT('',#1308);
#540=VERTEX_POINT('',#1313);
#541=VERTEX_POINT('',#1315);
#542=VERTEX_POINT('',#1319);
#543=VERTEX_POINT('',#1321);
#544=VERTEX_POINT('',#1323);
#545=VERTEX_POINT('',#1325);
#546=CIRCLE('',#790,17.5);
#547=CIRCLE('',#791,17.5);
#548=CIRCLE('',#793,28.5);
#549=CIRCLE('',#794,28.5);
#550=CIRCLE('',#799,1.);
#551=CIRCLE('',#800,1.);
#552=CIRCLE('',#802,28.5);
#553=CIRCLE('',#803,1.);
#554=CIRCLE('',#804,28.5);
#555=CIRCLE('',#805,1.);
#556=CIRCLE('',#806,1.);
#557=CIRCLE('',#808,1.);
#558=CIRCLE('',#809,28.5);
#559=CIRCLE('',#810,1.);
#560=CIRCLE('',#811,1.);
#561=CIRCLE('',#812,28.5);
#562=CIRCLE('',#821,4.99);
#563=CIRCLE('',#822,4.99);
#564=CIRCLE('',#825,0.5);
#565=CIRCLE('',#826,0.5);
#566=CIRCLE('',#827,1.);
#567=CIRCLE('',#828,1.);
#568=CIRCLE('',#834,7.5);
#569=CIRCLE('',#835,0.5);
#570=CIRCLE('',#836,0.5);
#571=CIRCLE('',#838,1.);
#572=CIRCLE('',#839,1.);
#573=CIRCLE('',#840,7.5);
#574=CIRCLE('',#847,4.99);
#575=CIRCLE('',#848,4.99);
#576=CIRCLE('',#851,0.5);
#577=CIRCLE('',#852,0.5);
#578=CIRCLE('',#853,1.);
#579=CIRCLE('',#854,1.);
#580=CIRCLE('',#860,7.5);
#581=CIRCLE('',#861,0.5);
#582=CIRCLE('',#862,0.5);
#583=CIRCLE('',#864,1.);
#584=CIRCLE('',#865,1.);
#585=CIRCLE('',#866,7.5);
#586=EDGE_LOOP('',(#206));
#587=EDGE_LOOP('',(#207));
#588=EDGE_LOOP('',(#208));
#589=EDGE_LOOP('',(#209));
#590=EDGE_LOOP('',(#210));
#591=EDGE_LOOP('',(#211));
#592=EDGE_LOOP('',(#212));
#593=EDGE_LOOP('',(#213));
#594=EDGE_LOOP('',(#214,#215,#216,#217));
#595=EDGE_LOOP('',(#218,#219,#220,#221,#222,#223,#224,#225));
#596=EDGE_LOOP('',(#226,#227,#228,#229,#230,#231,#232,#233));
#597=EDGE_LOOP('',(#234,#235,#236,#237));
#598=EDGE_LOOP('',(#238,#239,#240,#241));
#599=EDGE_LOOP('',(#242,#243,#244,#245));
#600=EDGE_LOOP('',(#246,#247,#248,#249));
#601=EDGE_LOOP('',(#250,#251,#252,#253));
#602=EDGE_LOOP('',(#254,#255,#256,#257));
#603=EDGE_LOOP('',(#258,#259,#260,#261));
#604=EDGE_LOOP('',(#262));
#605=EDGE_LOOP('',(#263));
#606=EDGE_LOOP('',(#264));
#607=EDGE_LOOP('',(#265,#266,#267,#268,#269,#270,#271,#272));
#608=EDGE_LOOP('',(#273,#274,#275,#276));
#609=EDGE_LOOP('',(#277,#278,#279,#280,#281,#282));
#610=EDGE_LOOP('',(#283,#284,#285,#286));
#611=EDGE_LOOP('',(#287,#288,#289,#290,#291,#292));
#612=EDGE_LOOP('',(#293,#294,#295,#296,#297,#298));
#613=EDGE_LOOP('',(#299,#300,#301,#302,#303,#304));
#614=EDGE_LOOP('',(#305));
#615=EDGE_LOOP('',(#306,#307,#308,#309));
#616=EDGE_LOOP('',(#310,#311,#312,#313));
#617=EDGE_LOOP('',(#314,#315,#316,#317));
#618=EDGE_LOOP('',(#318,#319,#320,#321));
#619=EDGE_LOOP('',(#322,#323,#324,#325));
#620=EDGE_LOOP('',(#326));
#621=EDGE_LOOP('',(#327));
#622=EDGE_LOOP('',(#328));
#623=EDGE_LOOP('',(#329,#330,#331,#332,#333,#334,#335,#336));
#624=EDGE_LOOP('',(#337,#338,#339,#340));
#625=EDGE_LOOP('',(#341,#342,#343,#344,#345,#346));
#626=EDGE_LOOP('',(#347,#348,#349,#350));
#627=EDGE_LOOP('',(#351,#352,#353,#354,#355,#356));
#628=EDGE_LOOP('',(#357,#358,#359,#360,#361,#362));
#629=EDGE_LOOP('',(#363,#364,#365,#366,#367,#368));
#630=EDGE_LOOP('',(#369));
#631=EDGE_LOOP('',(#370,#371,#372,#373));
#632=EDGE_LOOP('',(#374,#375,#376,#377));
#633=EDGE_LOOP('',(#378,#379,#380,#381));
#634=EDGE_LOOP('',(#382,#383,#384,#385));
#635=EDGE_LOOP('',(#386,#387,#388,#389));
#636=FACE_BOUND('',#586,.T.);
#637=FACE_BOUND('',#587,.T.);
#638=FACE_BOUND('',#588,.T.);
#639=FACE_BOUND('',#589,.T.);
#640=FACE_BOUND('',#590,.T.);
#641=FACE_BOUND('',#591,.T.);
#642=FACE_BOUND('',#592,.T.);
#643=FACE_BOUND('',#593,.T.);
#644=FACE_BOUND('',#594,.T.);
#645=FACE_BOUND('',#595,.T.);
#646=FACE_BOUND('',#596,.T.);
#647=FACE_BOUND('',#597,.T.);
#648=FACE_BOUND('',#598,.T.);
#649=FACE_BOUND('',#599,.T.);
#650=FACE_BOUND('',#600,.T.);
#651=FACE_BOUND('',#601,.T.);
#652=FACE_BOUND('',#602,.T.);
#653=FACE_BOUND('',#603,.T.);
#654=FACE_BOUND('',#604,.T.);
#655=FACE_BOUND('',#605,.T.);
#656=FACE_BOUND('',#606,.T.);
#657=FACE_BOUND('',#607,.T.);
#658=FACE_BOUND('',#608,.T.);
#659=FACE_BOUND('',#609,.T.);
#660=FACE_BOUND('',#610,.T.);
#661=FACE_BOUND('',#611,.T.);
#662=FACE_BOUND('',#612,.T.);
#663=FACE_BOUND('',#613,.T.);
#664=FACE_BOUND('',#614,.T.);
#665=FACE_BOUND('',#615,.T.);
#666=FACE_BOUND('',#616,.T.);
#667=FACE_BOUND('',#617,.T.);
#668=FACE_BOUND('',#618,.T.);
#669=FACE_BOUND('',#619,.T.);
#670=FACE_BOUND('',#620,.T.);
#671=FACE_BOUND('',#621,.T.);
#672=FACE_BOUND('',#622,.T.);
#673=FACE_BOUND('',#623,.T.);
#674=FACE_BOUND('',#624,.T.);
#675=FACE_BOUND('',#625,.T.);
#676=FACE_BOUND('',#626,.T.);
#677=FACE_BOUND('',#627,.T.);
#678=FACE_BOUND('',#628,.T.);
#679=FACE_BOUND('',#629,.T.);
#680=FACE_BOUND('',#630,.T.);
#681=FACE_BOUND('',#631,.T.);
#682=FACE_BOUND('',#632,.T.);
#683=FACE_BOUND('',#633,.T.);
#684=FACE_BOUND('',#634,.T.);
#685=FACE_BOUND('',#635,.T.);
#686=CYLINDRICAL_SURFACE('',#789,17.5);
#687=CYLINDRICAL_SURFACE('',#792,28.5);
#688=CYLINDRICAL_SURFACE('',#798,1.);
#689=CYLINDRICAL_SURFACE('',#813,28.5);
#690=CYLINDRICAL_SURFACE('',#814,28.5);
#691=CYLINDRICAL_SURFACE('',#817,1.);
#692=CYLINDRICAL_SURFACE('',#818,1.);
#693=CYLINDRICAL_SURFACE('',#819,1.);
#694=CYLINDRICAL_SURFACE('',#820,4.99);
#695=CYLINDRICAL_SURFACE('',#841,7.5);
#696=CYLINDRICAL_SURFACE('',#842,0.5);
#697=CYLINDRICAL_SURFACE('',#843,0.5);
#698=CYLINDRICAL_SURFACE('',#844,1.);
#699=CYLINDRICAL_SURFACE('',#845,1.);
#700=CYLINDRICAL_SURFACE('',#846,4.99);
#701=CYLINDRICAL_SURFACE('',#867,7.5);
#702=CYLINDRICAL_SURFACE('',#868,0.5);
#703=CYLINDRICAL_SURFACE('',#869,0.5);
#704=CYLINDRICAL_SURFACE('',#870,1.);
#705=CYLINDRICAL_SURFACE('',#871,1.);
#706=ADVANCED_FACE('NONE',(#636,#637),#686,.T.);
#707=ADVANCED_FACE('NONE',(#638,#639),#687,.T.);
#708=ADVANCED_FACE('NONE',(#640),#183,.T.);
#709=ADVANCED_FACE('NONE',(#641,#642),#184,.T.);
#710=ADVANCED_FACE('NONE',(#643),#185,.T.);
#711=ADVANCED_FACE('NONE',(#644),#688,.T.);
#712=ADVANCED_FACE('NONE',(#645),#186,.T.);
#713=ADVANCED_FACE('NONE',(#646),#187,.F.);
#714=ADVANCED_FACE('NONE',(#647),#689,.T.);
#715=ADVANCED_FACE('NONE',(#648),#690,.T.);
#716=ADVANCED_FACE('NONE',(#649),#188,.T.);
#717=ADVANCED_FACE('NONE',(#650),#189,.F.);
#718=ADVANCED_FACE('NONE',(#651),#691,.T.);
#719=ADVANCED_FACE('NONE',(#652),#692,.T.);
#720=ADVANCED_FACE('NONE',(#653),#693,.T.);
#721=ADVANCED_FACE('NONE',(#654,#655),#694,.T.);
#722=ADVANCED_FACE('NONE',(#656),#190,.T.);
#723=ADVANCED_FACE('NONE',(#657),#191,.T.);
#724=ADVANCED_FACE('NONE',(#658),#192,.F.);
#725=ADVANCED_FACE('NONE',(#659),#193,.F.);
#726=ADVANCED_FACE('NONE',(#660),#194,.F.);
#727=ADVANCED_FACE('NONE',(#661),#195,.F.);
#728=ADVANCED_FACE('NONE',(#662),#196,.F.);
#729=ADVANCED_FACE('NONE',(#663,#664),#197,.T.);
#730=ADVANCED_FACE('NONE',(#665),#695,.T.);
#731=ADVANCED_FACE('NONE',(#666),#696,.T.);
#732=ADVANCED_FACE('NONE',(#667),#697,.T.);
#733=ADVANCED_FACE('NONE',(#668),#698,.T.);
#734=ADVANCED_FACE('NONE',(#669),#699,.T.);
#735=ADVANCED_FACE('NONE',(#670,#671),#700,.T.);
#736=ADVANCED_FACE('NONE',(#672),#198,.T.);
#737=ADVANCED_FACE('NONE',(#673),#199,.T.);
#738=ADVANCED_FACE('NONE',(#674),#200,.F.);
#739=ADVANCED_FACE('NONE',(#675),#201,.F.);
#740=ADVANCED_FACE('NONE',(#676),#202,.F.);
#741=ADVANCED_FACE('NONE',(#677),#203,.F.);
#742=ADVANCED_FACE('NONE',(#678),#204,.F.);
#743=ADVANCED_FACE('NONE',(#679,#680),#205,.T.);
#744=ADVANCED_FACE('NONE',(#681),#701,.T.);
#745=ADVANCED_FACE('NONE',(#682),#702,.T.);
#746=ADVANCED_FACE('NONE',(#683),#703,.T.);
#747=ADVANCED_FACE('NONE',(#684),#704,.T.);
#748=ADVANCED_FACE('NONE',(#685),#705,.T.);
#749=CLOSED_SHELL('',(#706,#707,#708,#709,#710));
#750=CLOSED_SHELL('',(#711,#712,#713,#714,#715,#716,#717,#718,#719,#720));
#751=CLOSED_SHELL('',(#721,#722,#723,#724,#725,#726,#727,#728,#729,#730,
#731,#732,#733,#734));
#752=CLOSED_SHELL('',(#735,#736,#737,#738,#739,#740,#741,#742,#743,#744,
#745,#746,#747,#748));
#753=STYLED_ITEM('',(#757),#782);
#754=STYLED_ITEM('',(#758),#783);
#755=STYLED_ITEM('',(#759),#784);
#756=STYLED_ITEM('',(#760),#785);
#757=PRESENTATION_STYLE_ASSIGNMENT((#761));
#758=PRESENTATION_STYLE_ASSIGNMENT((#762));
#759=PRESENTATION_STYLE_ASSIGNMENT((#763));
#760=PRESENTATION_STYLE_ASSIGNMENT((#764));
#761=SURFACE_STYLE_USAGE(.BOTH.,#765);
#762=SURFACE_STYLE_USAGE(.BOTH.,#766);
#763=SURFACE_STYLE_USAGE(.BOTH.,#767);
#764=SURFACE_STYLE_USAGE(.BOTH.,#768);
#765=SURFACE_SIDE_STYLE('',(#769));
#766=SURFACE_SIDE_STYLE('',(#770));
#767=SURFACE_SIDE_STYLE('',(#771));
#768=SURFACE_SIDE_STYLE('',(#772));
#769=SURFACE_STYLE_FILL_AREA(#773);
#770=SURFACE_STYLE_FILL_AREA(#774);
#771=SURFACE_STYLE_FILL_AREA(#775);
#772=SURFACE_STYLE_FILL_AREA(#776);
#773=FILL_AREA_STYLE('',(#777));
#774=FILL_AREA_STYLE('',(#778));
#775=FILL_AREA_STYLE('',(#779));
#776=FILL_AREA_STYLE('',(#780));
#777=FILL_AREA_STYLE_COLOUR('',#781);
#778=FILL_AREA_STYLE_COLOUR('',#781);
#779=FILL_AREA_STYLE_COLOUR('',#781);
#780=FILL_AREA_STYLE_COLOUR('',#781);
#781=COLOUR_RGB('',0.811764705882353,0.843137254901961,0.909803921568627);
#782=MANIFOLD_SOLID_BREP('Body (3)',#749);
#783=MANIFOLD_SOLID_BREP('Body (0)',#750);
#784=MANIFOLD_SOLID_BREP('Body (1)',#751);
#785=MANIFOLD_SOLID_BREP('Body (2)',#752);
#786=SHAPE_DEFINITION_REPRESENTATION(#1370,#787);
#787=SHAPE_REPRESENTATION('openarm_left_link6_collision',(#788),#1365);
#788=AXIS2_PLACEMENT_3D('',#1140,#888,#889);
#789=AXIS2_PLACEMENT_3D('',#1141,#890,#891);
#790=AXIS2_PLACEMENT_3D('',#1142,#892,#893);
#791=AXIS2_PLACEMENT_3D('',#1144,#894,#895);
#792=AXIS2_PLACEMENT_3D('',#1146,#896,#897);
#793=AXIS2_PLACEMENT_3D('',#1147,#898,#899);
#794=AXIS2_PLACEMENT_3D('',#1149,#900,#901);
#795=AXIS2_PLACEMENT_3D('',#1151,#902,#903);
#796=AXIS2_PLACEMENT_3D('',#1152,#904,#905);
#797=AXIS2_PLACEMENT_3D('',#1153,#906,#907);
#798=AXIS2_PLACEMENT_3D('',#1154,#908,#909);
#799=AXIS2_PLACEMENT_3D('',#1155,#910,#911);
#800=AXIS2_PLACEMENT_3D('',#1160,#913,#914);
#801=AXIS2_PLACEMENT_3D('',#1163,#916,#917);
#802=AXIS2_PLACEMENT_3D('',#1164,#918,#919);
#803=AXIS2_PLACEMENT_3D('',#1167,#920,#921);
#804=AXIS2_PLACEMENT_3D('',#1170,#923,#924);
#805=AXIS2_PLACEMENT_3D('',#1172,#925,#926);
#806=AXIS2_PLACEMENT_3D('',#1176,#928,#929);
#807=AXIS2_PLACEMENT_3D('',#1177,#930,#931);
#808=AXIS2_PLACEMENT_3D('',#1180,#933,#934);
#809=AXIS2_PLACEMENT_3D('',#1182,#935,#936);
#810=AXIS2_PLACEMENT_3D('',#1184,#937,#938);
#811=AXIS2_PLACEMENT_3D('',#1188,#940,#941);
#812=AXIS2_PLACEMENT_3D('',#1190,#942,#943);
#813=AXIS2_PLACEMENT_3D('',#1191,#944,#945);
#814=AXIS2_PLACEMENT_3D('',#1194,#948,#949);
#815=AXIS2_PLACEMENT_3D('',#1196,#951,#952);
#816=AXIS2_PLACEMENT_3D('',#1199,#955,#956);
#817=AXIS2_PLACEMENT_3D('',#1201,#958,#959);
#818=AXIS2_PLACEMENT_3D('',#1202,#960,#961);
#819=AXIS2_PLACEMENT_3D('',#1203,#962,#963);
#820=AXIS2_PLACEMENT_3D('',#1204,#964,#965);
#821=AXIS2_PLACEMENT_3D('',#1205,#966,#967);
#822=AXIS2_PLACEMENT_3D('',#1207,#968,#969);
#823=AXIS2_PLACEMENT_3D('',#1209,#970,#971);
#824=AXIS2_PLACEMENT_3D('',#1210,#972,#973);
#825=AXIS2_PLACEMENT_3D('',#1214,#975,#976);
#826=AXIS2_PLACEMENT_3D('',#1218,#978,#979);
#827=AXIS2_PLACEMENT_3D('',#1222,#981,#982);
#828=AXIS2_PLACEMENT_3D('',#1226,#984,#985);
#829=AXIS2_PLACEMENT_3D('',#1227,#986,#987);
#830=AXIS2_PLACEMENT_3D('',#1233,#991,#992);
#831=AXIS2_PLACEMENT_3D('',#1243,#998,#999);
#832=AXIS2_PLACEMENT_3D('',#1249,#1003,#1004);
#833=AXIS2_PLACEMENT_3D('',#1259,#1010,#1011);
#834=AXIS2_PLACEMENT_3D('',#1260,#1012,#1013);
#835=AXIS2_PLACEMENT_3D('',#1261,#1014,#1015);
#836=AXIS2_PLACEMENT_3D('',#1262,#1016,#1017);
#837=AXIS2_PLACEMENT_3D('',#1263,#1018,#1019);
#838=AXIS2_PLACEMENT_3D('',#1264,#1020,#1021);
#839=AXIS2_PLACEMENT_3D('',#1265,#1022,#1023);
#840=AXIS2_PLACEMENT_3D('',#1266,#1024,#1025);
#841=AXIS2_PLACEMENT_3D('',#1267,#1026,#1027);
#842=AXIS2_PLACEMENT_3D('',#1268,#1028,#1029);
#843=AXIS2_PLACEMENT_3D('',#1269,#1030,#1031);
#844=AXIS2_PLACEMENT_3D('',#1270,#1032,#1033);
#845=AXIS2_PLACEMENT_3D('',#1271,#1034,#1035);
#846=AXIS2_PLACEMENT_3D('',#1272,#1036,#1037);
#847=AXIS2_PLACEMENT_3D('',#1273,#1038,#1039);
#848=AXIS2_PLACEMENT_3D('',#1275,#1040,#1041);
#849=AXIS2_PLACEMENT_3D('',#1277,#1042,#1043);
#850=AXIS2_PLACEMENT_3D('',#1278,#1044,#1045);
#851=AXIS2_PLACEMENT_3D('',#1282,#1047,#1048);
#852=AXIS2_PLACEMENT_3D('',#1286,#1050,#1051);
#853=AXIS2_PLACEMENT_3D('',#1290,#1053,#1054);
#854=AXIS2_PLACEMENT_3D('',#1294,#1056,#1057);
#855=AXIS2_PLACEMENT_3D('',#1295,#1058,#1059);
#856=AXIS2_PLACEMENT_3D('',#1301,#1063,#1064);
#857=AXIS2_PLACEMENT_3D('',#1311,#1070,#1071);
#858=AXIS2_PLACEMENT_3D('',#1317,#1075,#1076);
#859=AXIS2_PLACEMENT_3D('',#1327,#1082,#1083);
#860=AXIS2_PLACEMENT_3D('',#1328,#1084,#1085);
#861=AXIS2_PLACEMENT_3D('',#1329,#1086,#1087);
#862=AXIS2_PLACEMENT_3D('',#1330,#1088,#1089);
#863=AXIS2_PLACEMENT_3D('',#1331,#1090,#1091);
#864=AXIS2_PLACEMENT_3D('',#1332,#1092,#1093);
#865=AXIS2_PLACEMENT_3D('',#1333,#1094,#1095);
#866=AXIS2_PLACEMENT_3D('',#1334,#1096,#1097);
#867=AXIS2_PLACEMENT_3D('',#1335,#1098,#1099);
#868=AXIS2_PLACEMENT_3D('',#1336,#1100,#1101);
#869=AXIS2_PLACEMENT_3D('',#1337,#1102,#1103);
#870=AXIS2_PLACEMENT_3D('',#1338,#1104,#1105);
#871=AXIS2_PLACEMENT_3D('',#1339,#1106,#1107);
#872=AXIS2_PLACEMENT_3D('',#1340,#1108,#1109);
#873=AXIS2_PLACEMENT_3D('',#1342,#1110,#1111);
#874=AXIS2_PLACEMENT_3D('',#1343,#1112,#1113);
#875=AXIS2_PLACEMENT_3D('',#1345,#1114,#1115);
#876=AXIS2_PLACEMENT_3D('',#1346,#1116,#1117);
#877=AXIS2_PLACEMENT_3D('',#1348,#1118,#1119);
#878=AXIS2_PLACEMENT_3D('',#1349,#1120,#1121);
#879=AXIS2_PLACEMENT_3D('',#1351,#1122,#1123);
#880=AXIS2_PLACEMENT_3D('',#1352,#1124,#1125);
#881=AXIS2_PLACEMENT_3D('',#1354,#1126,#1127);
#882=AXIS2_PLACEMENT_3D('',#1355,#1128,#1129);
#883=AXIS2_PLACEMENT_3D('',#1357,#1130,#1131);
#884=AXIS2_PLACEMENT_3D('',#1358,#1132,#1133);
#885=AXIS2_PLACEMENT_3D('',#1360,#1134,#1135);
#886=AXIS2_PLACEMENT_3D('',#1361,#1136,#1137);
#887=AXIS2_PLACEMENT_3D('',#1363,#1138,#1139);
#888=DIRECTION('',(0.,0.,1.));
#889=DIRECTION('',(1.,0.,0.));
#890=DIRECTION('',(-1.,0.,-7.3E-14));
#891=DIRECTION('',(7.3E-14,0.,-1.));
#892=DIRECTION('',(-1.,0.,-7.3E-14));
#893=DIRECTION('',(-7.3E-14,0.,1.));
#894=DIRECTION('',(-1.,0.,-7.3E-14));
#895=DIRECTION('',(-7.3E-14,0.,1.));
#896=DIRECTION('',(1.,0.,7.3E-14));
#897=DIRECTION('',(-7.3E-14,0.,1.));
#898=DIRECTION('',(-1.,0.,-7.3E-14));
#899=DIRECTION('',(7.3E-14,0.,-1.));
#900=DIRECTION('',(-1.,0.,-7.3E-14));
#901=DIRECTION('',(-7.3E-14,0.,1.));
#902=DIRECTION('',(-1.,0.,-7.3E-14));
#903=DIRECTION('',(0.,1.,0.));
#904=DIRECTION('',(1.,0.,7.3E-14));
#905=DIRECTION('',(-7.3E-14,0.,1.));
#906=DIRECTION('',(1.,0.,7.3E-14));
#907=DIRECTION('',(-7.3E-14,0.,1.));
#908=DIRECTION('',(-1.,0.,-7.3E-14));
#909=DIRECTION('',(-6.34270420996417E-15,0.996218229411943,0.086886359040605));
#910=DIRECTION('',(-1.,0.,-7.3E-14));
#911=DIRECTION('',(6.34270420996417E-15,-0.996218229411943,-0.086886359040605));
#912=DIRECTION('',(-1.,0.,-7.3E-14));
#913=DIRECTION('',(1.,0.,7.3E-14));
#914=DIRECTION('',(6.34270420996417E-15,-0.996218229411943,-0.086886359040605));
#915=DIRECTION('',(1.,0.,7.3E-14));
#916=DIRECTION('',(1.,0.,7.3E-14));
#917=DIRECTION('',(6.34270420996417E-15,-0.996218229411943,-0.086886359040605));
#918=DIRECTION('',(-1.,0.,-7.3E-14));
#919=DIRECTION('',(6.34270420996417E-15,-0.996218229411943,-0.086886359040605));
#920=DIRECTION('',(-1.,0.,-7.3E-14));
#921=DIRECTION('',(6.34270420996417E-15,-0.996218229411943,-0.086886359040605));
#922=DIRECTION('',(-7.3E-14,2.28983498828939E-15,1.));
#923=DIRECTION('',(-1.,0.,-7.3E-14));
#924=DIRECTION('',(6.34270420996417E-15,-0.996218229411943,-0.086886359040605));
#925=DIRECTION('',(-1.,0.,-7.3E-14));
#926=DIRECTION('',(6.34270420996417E-15,-0.996218229411943,-0.086886359040605));
#927=DIRECTION('',(-7.3E-14,2.19269047363468E-15,1.));
#928=DIRECTION('',(-1.,0.,-7.3E-14));
#929=DIRECTION('',(6.34270420996417E-15,-0.996218229411943,-0.086886359040605));
#930=DIRECTION('',(1.,0.,7.3E-14));
#931=DIRECTION('',(6.34270420996417E-15,-0.996218229411943,-0.086886359040605));
#932=DIRECTION('',(7.3E-14,-2.28983498828939E-15,-1.));
#933=DIRECTION('',(1.,0.,7.3E-14));
#934=DIRECTION('',(6.34270420996417E-15,-0.996218229411943,-0.086886359040605));
#935=DIRECTION('',(-1.,0.,-7.3E-14));
#936=DIRECTION('',(6.34270420996417E-15,-0.996218229411943,-0.086886359040605));
#937=DIRECTION('',(1.,0.,7.3E-14));
#938=DIRECTION('',(6.34270420996417E-15,-0.996218229411943,-0.086886359040605));
#939=DIRECTION('',(7.3E-14,-2.19269047363468E-15,-1.));
#940=DIRECTION('',(1.,0.,7.3E-14));
#941=DIRECTION('',(6.34270420996581E-15,-0.996218229411941,-0.0868863590406275));
#942=DIRECTION('',(-1.,0.,-7.3E-14));
#943=DIRECTION('',(6.34270420996417E-15,-0.996218229411943,-0.086886359040605));
#944=DIRECTION('',(-1.,0.,-7.3E-14));
#945=DIRECTION('',(-6.34270420996417E-15,0.996218229411943,0.086886359040605));
#946=DIRECTION('',(1.,0.,7.3E-14));
#947=DIRECTION('',(-1.,0.,-7.3E-14));
#948=DIRECTION('',(-1.,0.,-7.3E-14));
#949=DIRECTION('',(-6.34270420996417E-15,0.996218229411943,0.086886359040605));
#950=DIRECTION('',(-1.,0.,-7.3E-14));
#951=DIRECTION('',(-1.60066404575332E-28,-1.,2.19269047363468E-15));
#952=DIRECTION('',(-1.,0.,-7.3E-14));
#953=DIRECTION('',(-1.,0.,-7.3E-14));
#954=DIRECTION('',(1.,0.,7.3E-14));
#955=DIRECTION('',(-1.67157954145125E-28,-1.,2.28983498828939E-15));
#956=DIRECTION('',(-1.,0.,-7.3E-14));
#957=DIRECTION('',(1.,0.,7.3E-14));
#958=DIRECTION('',(-1.,0.,-7.3E-14));
#959=DIRECTION('',(-6.34270420996417E-15,0.996218229411943,0.086886359040605));
#960=DIRECTION('',(-1.,0.,-7.3E-14));
#961=DIRECTION('',(-6.34270420996417E-15,0.996218229411943,0.086886359040605));
#962=DIRECTION('',(-1.,0.,-7.3E-14));
#963=DIRECTION('',(-6.34270420996417E-15,0.996218229411943,0.086886359040605));
#964=DIRECTION('',(0.,1.,0.));
#965=DIRECTION('',(-1.,0.,-7.3E-14));
#966=DIRECTION('',(0.,-1.,0.));
#967=DIRECTION('',(-1.,0.,-7.3E-14));
#968=DIRECTION('',(0.,-1.,0.));
#969=DIRECTION('',(-1.,0.,-7.3E-14));
#970=DIRECTION('',(0.,1.,0.));
#971=DIRECTION('',(-1.,0.,-7.3E-14));
#972=DIRECTION('',(0.,-1.,0.));
#973=DIRECTION('',(-7.3E-14,0.,1.));
#974=DIRECTION('',(-1.,0.,-7.3E-14));
#975=DIRECTION('',(0.,1.,0.));
#976=DIRECTION('',(1.,0.,7.3E-14));
#977=DIRECTION('',(7.31224646799147E-14,0.,-1.));
#978=DIRECTION('',(0.,1.,0.));
#979=DIRECTION('',(1.,0.,7.3E-14));
#980=DIRECTION('',(1.,0.,7.32040851148208E-14));
#981=DIRECTION('',(0.,1.,0.));
#982=DIRECTION('',(1.,0.,7.3E-14));
#983=DIRECTION('',(-7.31156482317318E-14,0.,1.));
#984=DIRECTION('',(0.,1.,0.));
#985=DIRECTION('',(1.,0.,7.3E-14));
#986=DIRECTION('',(-1.,0.,-7.31156482317318E-14));
#987=DIRECTION('',(7.31156482317318E-14,0.,-1.));
#988=DIRECTION('',(0.,1.,0.));
#989=DIRECTION('',(0.,-1.,0.));
#990=DIRECTION('',(-7.31156482317318E-14,0.,1.));
#991=DIRECTION('',(7.3E-14,0.,-1.));
#992=DIRECTION('',(-1.,0.,-7.3E-14));
#993=DIRECTION('',(-1.,0.,-7.3E-14));
#994=DIRECTION('',(0.,-1.,0.));
#995=DIRECTION('',(-1.,0.,-7.3E-14));
#996=DIRECTION('',(0.,1.,0.));
#997=DIRECTION('',(0.,-1.,0.));
#998=DIRECTION('',(1.,0.,7.31224646799147E-14));
#999=DIRECTION('',(7.31224646799147E-14,0.,-1.));
#1000=DIRECTION('',(0.,-1.,0.));
#1001=DIRECTION('',(7.31224646799147E-14,0.,-1.));
#1002=DIRECTION('',(0.,1.,0.));
#1003=DIRECTION('',(-7.32040851148208E-14,0.,1.));
#1004=DIRECTION('',(0.,-1.,0.));
#1005=DIRECTION('',(0.,1.,0.));
#1006=DIRECTION('',(0.,-1.,0.));
#1007=DIRECTION('',(1.,0.,7.33558407130209E-14));
#1008=DIRECTION('',(0.,-1.,0.));
#1009=DIRECTION('',(1.,0.,7.32040851148208E-14));
#1010=DIRECTION('',(0.,1.,0.));
#1011=DIRECTION('',(-1.,0.,-7.3E-14));
#1012=DIRECTION('',(0.,-1.,0.));
#1013=DIRECTION('',(-1.,0.,-7.3E-14));
#1014=DIRECTION('',(0.,-1.,0.));
#1015=DIRECTION('',(-1.,0.,-7.3E-14));
#1016=DIRECTION('',(0.,-1.,0.));
#1017=DIRECTION('',(-1.,0.,-7.3E-14));
#1018=DIRECTION('',(0.,1.,0.));
#1019=DIRECTION('',(-1.,0.,-7.3E-14));
#1020=DIRECTION('',(0.,-1.,0.));
#1021=DIRECTION('',(-1.,0.,-7.3E-14));
#1022=DIRECTION('',(0.,-1.,0.));
#1023=DIRECTION('',(-1.,0.,-7.3E-14));
#1024=DIRECTION('',(0.,-1.,0.));
#1025=DIRECTION('',(-1.,0.,-7.3E-14));
#1026=DIRECTION('',(0.,-1.,0.));
#1027=DIRECTION('',(1.,0.,7.3E-14));
#1028=DIRECTION('',(0.,-1.,0.));
#1029=DIRECTION('',(1.,0.,7.3E-14));
#1030=DIRECTION('',(0.,-1.,0.));
#1031=DIRECTION('',(1.,0.,7.3E-14));
#1032=DIRECTION('',(0.,-1.,0.));
#1033=DIRECTION('',(1.,0.,7.3E-14));
#1034=DIRECTION('',(0.,-1.,0.));
#1035=DIRECTION('',(1.,0.,7.3E-14));
#1036=DIRECTION('',(0.,-1.,0.));
#1037=DIRECTION('',(-1.,0.,-7.3E-14));
#1038=DIRECTION('',(0.,1.,0.));
#1039=DIRECTION('',(-1.,0.,-7.3E-14));
#1040=DIRECTION('',(0.,1.,0.));
#1041=DIRECTION('',(-1.,0.,-7.3E-14));
#1042=DIRECTION('',(0.,-1.,0.));
#1043=DIRECTION('',(-1.,0.,-7.3E-14));
#1044=DIRECTION('',(0.,1.,0.));
#1045=DIRECTION('',(7.3E-14,0.,-1.));
#1046=DIRECTION('',(-1.,0.,-7.3E-14));
#1047=DIRECTION('',(0.,-1.,0.));
#1048=DIRECTION('',(1.,0.,7.3E-14));
#1049=DIRECTION('',(-7.28775353200853E-14,0.,1.));
#1050=DIRECTION('',(0.,-1.,0.));
#1051=DIRECTION('',(1.,0.,7.3E-14));
#1052=DIRECTION('',(1.,0.,7.27959148851792E-14));
#1053=DIRECTION('',(0.,-1.,0.));
#1054=DIRECTION('',(1.,0.,7.3E-14));
#1055=DIRECTION('',(7.28843517682682E-14,0.,-1.));
#1056=DIRECTION('',(0.,-1.,0.));
#1057=DIRECTION('',(1.,0.,7.3E-14));
#1058=DIRECTION('',(-1.,0.,-7.28843517682682E-14));
#1059=DIRECTION('',(-7.28843517682682E-14,0.,1.));
#1060=DIRECTION('',(0.,-1.,0.));
#1061=DIRECTION('',(0.,1.,0.));
#1062=DIRECTION('',(7.28843517682682E-14,0.,-1.));
#1063=DIRECTION('',(-7.3E-14,0.,1.));
#1064=DIRECTION('',(-1.,0.,-7.3E-14));
#1065=DIRECTION('',(-1.,0.,-7.3E-14));
#1066=DIRECTION('',(0.,1.,0.));
#1067=DIRECTION('',(-1.,0.,-7.3E-14));
#1068=DIRECTION('',(0.,-1.,0.));
#1069=DIRECTION('',(0.,1.,0.));
#1070=DIRECTION('',(1.,0.,7.28775353200853E-14));
#1071=DIRECTION('',(-7.28775353200853E-14,0.,1.));
#1072=DIRECTION('',(0.,1.,0.));
#1073=DIRECTION('',(-7.28775353200853E-14,0.,1.));
#1074=DIRECTION('',(0.,-1.,0.));
#1075=DIRECTION('',(7.27959148851792E-14,0.,-1.));
#1076=DIRECTION('',(0.,1.,0.));
#1077=DIRECTION('',(0.,-1.,0.));
#1078=DIRECTION('',(0.,1.,0.));
#1079=DIRECTION('',(1.,0.,7.26441592869791E-14));
#1080=DIRECTION('',(0.,1.,0.));
#1081=DIRECTION('',(1.,0.,7.27959148851792E-14));
#1082=DIRECTION('',(0.,-1.,0.));
#1083=DIRECTION('',(-1.,0.,-7.3E-14));
#1084=DIRECTION('',(0.,1.,0.));
#1085=DIRECTION('',(-1.,0.,-7.3E-14));
#1086=DIRECTION('',(0.,1.,0.));
#1087=DIRECTION('',(-1.,0.,-7.3E-14));
#1088=DIRECTION('',(0.,1.,0.));
#1089=DIRECTION('',(-1.,0.,-7.3E-14));
#1090=DIRECTION('',(0.,-1.,0.));
#1091=DIRECTION('',(-1.,0.,-7.3E-14));
#1092=DIRECTION('',(0.,1.,0.));
#1093=DIRECTION('',(-1.,0.,-7.3E-14));
#1094=DIRECTION('',(0.,1.,0.));
#1095=DIRECTION('',(-1.,0.,-7.3E-14));
#1096=DIRECTION('',(0.,1.,0.));
#1097=DIRECTION('',(-1.,0.,-7.3E-14));
#1098=DIRECTION('',(0.,1.,0.));
#1099=DIRECTION('',(1.,0.,7.3E-14));
#1100=DIRECTION('',(0.,1.,0.));
#1101=DIRECTION('',(1.,0.,7.3E-14));
#1102=DIRECTION('',(0.,1.,0.));
#1103=DIRECTION('',(1.,0.,7.3E-14));
#1104=DIRECTION('',(0.,1.,0.));
#1105=DIRECTION('',(1.,0.,7.3E-14));
#1106=DIRECTION('',(0.,1.,0.));
#1107=DIRECTION('',(1.,0.,7.3E-14));
#1108=DIRECTION('',(0.,0.,-1.));
#1109=DIRECTION('',(-1.,0.,0.));
#1110=DIRECTION('',(0.,0.,1.));
#1111=DIRECTION('',(1.,0.,0.));
#1112=DIRECTION('',(0.,1.,0.));
#1113=DIRECTION('',(-1.,0.,0.));
#1114=DIRECTION('',(0.,0.,1.));
#1115=DIRECTION('',(1.,0.,0.));
#1116=DIRECTION('',(-1.,0.,0.));
#1117=DIRECTION('',(0.,-1.,0.));
#1118=DIRECTION('',(0.,0.,1.));
#1119=DIRECTION('',(1.,0.,0.));
#1120=DIRECTION('',(0.,-1.,0.));
#1121=DIRECTION('',(1.,0.,0.));
#1122=DIRECTION('',(0.,0.,1.));
#1123=DIRECTION('',(1.,0.,0.));
#1124=DIRECTION('',(0.,0.,1.));
#1125=DIRECTION('',(-1.,0.,0.));
#1126=DIRECTION('',(0.,0.,1.));
#1127=DIRECTION('',(1.,0.,0.));
#1128=DIRECTION('',(1.,0.,0.));
#1129=DIRECTION('',(0.,1.,0.));
#1130=DIRECTION('',(0.,0.,1.));
#1131=DIRECTION('',(1.,0.,0.));
#1132=DIRECTION('',(-0.577350269189626,0.577350269189626,-0.577350269189626));
#1133=DIRECTION('',(-0.707106781186548,-0.707106781186547,2.22044604925031E-16));
#1134=DIRECTION('',(0.,0.,1.));
#1135=DIRECTION('',(1.,0.,0.));
#1136=DIRECTION('',(-0.718873086818576,0.585048618558824,-0.375419230954334));
#1137=DIRECTION('',(-0.631219051646111,-0.775604608572552,-4.44241888553076E-8));
#1138=DIRECTION('',(0.,0.,1.));
#1139=DIRECTION('',(1.,0.,0.));
#1140=CARTESIAN_POINT('',(0.,0.,0.));
#1141=CARTESIAN_POINT('',(69.9974788955523,1.26501069896978E-5,8.421958630489E-6));
#1142=CARTESIAN_POINT('',(20.500004212494,1.26501069896978E-5,8.42195502226417E-6));
#1143=CARTESIAN_POINT('',(20.5000042124927,1.26501069896978E-5,17.500008421955));
#1144=CARTESIAN_POINT('',(19.500004212494,1.26501069896978E-5,8.42195496675302E-6));
#1145=CARTESIAN_POINT('',(19.5000042124927,1.26501069896978E-5,17.500008421955));
#1146=CARTESIAN_POINT('',(-106.110168842772,1.26501069896978E-5,8.42194580741307E-6));
#1147=CARTESIAN_POINT('',(-25.499995787506,1.26501069896978E-5,8.4219516915951E-6));
#1148=CARTESIAN_POINT('',(-25.4999957875039,1.26501069896978E-5,-28.4999915780483));
#1149=CARTESIAN_POINT('',(19.500004212494,1.26501069896978E-5,8.42195496675302E-6));
#1150=CARTESIAN_POINT('',(19.5000042124919,1.26501069896978E-5,28.500008421955));
#1151=CARTESIAN_POINT('',(-25.499995787506,1.26501079888985E-5,8.4219516915951E-6));
#1152=CARTESIAN_POINT('',(19.500004212494,1.26501069896978E-5,8.42195496675302E-6));
#1153=CARTESIAN_POINT('',(20.500004212494,1.26501069896978E-5,8.42195502226417E-6));
#1154=CARTESIAN_POINT('',(28.0000042298775,26.5000123827753,7.34847736558908));
#1155=CARTESIAN_POINT('',(28.0000042298775,26.5000123827753,7.34847736558908));
#1156=CARTESIAN_POINT('',(28.0000042298774,27.4636487464116,7.61569442843818));
#1157=CARTESIAN_POINT('',(28.0000042298775,27.5000123827752,7.34847736558908));
#1158=CARTESIAN_POINT('',(19.4990042298775,27.5000123827752,7.34847736558847));
#1159=CARTESIAN_POINT('',(19.5000042298775,27.5000123827752,7.34847736558847));
#1160=CARTESIAN_POINT('',(19.5000042298775,26.5000123827753,7.34847736558847));
#1161=CARTESIAN_POINT('',(19.5000042298775,27.4636487464116,7.61569442843757));
#1162=CARTESIAN_POINT('',(28.0000042298774,27.4636487464116,7.61569442843818));
#1163=CARTESIAN_POINT('',(28.000004229878,1.23827752218642E-5,8.13723965986668E-6));
#1164=CARTESIAN_POINT('',(28.000004229878,1.23827752218642E-5,8.13723965986668E-6));
#1165=CARTESIAN_POINT('',(28.0000042298786,27.4636487464116,-7.61567815395903));
#1166=CARTESIAN_POINT('',(28.0000042298786,-27.4636239808612,-7.61567815395892));
#1167=CARTESIAN_POINT('',(28.0000042298785,26.5000123827752,-7.34846109110993));
#1168=CARTESIAN_POINT('',(28.0000042298785,27.5000123827752,-7.34846109110993));
#1169=CARTESIAN_POINT('',(28.0000042298779,27.5000123827753,1.83388085917652));
#1170=CARTESIAN_POINT('',(28.000004229878,1.23827752218642E-5,8.13723965986668E-6));
#1171=CARTESIAN_POINT('',(28.0000042298774,-27.4636239808611,7.61569442843835));
#1172=CARTESIAN_POINT('',(28.0000042298775,-26.4999876172247,7.34847736558925));
#1173=CARTESIAN_POINT('',(28.0000042298775,-27.4999876172247,7.34847736558925));
#1174=CARTESIAN_POINT('',(28.0000042298779,-27.4999876172248,1.83388085917663));
#1175=CARTESIAN_POINT('',(28.0000042298785,-27.4999876172248,-7.34846109110982));
#1176=CARTESIAN_POINT('',(28.0000042298785,-26.4999876172248,-7.34846109110982));
#1177=CARTESIAN_POINT('',(19.500004229878,1.23827752218642E-5,8.13723904924402E-6));
#1178=CARTESIAN_POINT('',(19.5000042298779,27.5000123827753,1.83388085917591));
#1179=CARTESIAN_POINT('',(19.5000042298785,27.5000123827752,-7.34846109111054));
#1180=CARTESIAN_POINT('',(19.5000042298785,26.5000123827752,-7.34846109111054));
#1181=CARTESIAN_POINT('',(19.5000042298786,27.4636487464116,-7.61567815395964));
#1182=CARTESIAN_POINT('',(19.500004229878,1.23827752218642E-5,8.13723904924402E-6));
#1183=CARTESIAN_POINT('',(19.5000042298786,-27.4636239808612,-7.61567815395953));
#1184=CARTESIAN_POINT('',(19.5000042298785,-26.4999876172248,-7.34846109111043));
#1185=CARTESIAN_POINT('',(19.5000042298785,-27.4999876172248,-7.34846109111048));
#1186=CARTESIAN_POINT('',(19.5000042298779,-27.4999876172248,1.83388085917602));
#1187=CARTESIAN_POINT('',(19.5000042298775,-27.4999876172247,7.34847736558863));
#1188=CARTESIAN_POINT('',(19.5000042298775,-26.4999876172247,7.34847736558863));
#1189=CARTESIAN_POINT('',(19.5000042298775,-27.4636239808611,7.61569442843768));
#1190=CARTESIAN_POINT('',(19.500004229878,1.23827752218642E-5,8.13723904924402E-6));
#1191=CARTESIAN_POINT('',(28.000004229878,1.23827752218642E-5,8.13723965986668E-6));
#1192=CARTESIAN_POINT('',(28.0000042298786,-27.4636239808612,-7.61567815395892));
#1193=CARTESIAN_POINT('',(28.0000042298786,27.4636487464116,-7.61567815395903));
#1194=CARTESIAN_POINT('',(28.000004229878,1.23827752218642E-5,8.13723965986668E-6));
#1195=CARTESIAN_POINT('',(28.0000042298774,-27.4636239808611,7.61569442843835));
#1196=CARTESIAN_POINT('',(19.4990042298779,-27.4999876172248,1.83388085917602));
#1197=CARTESIAN_POINT('',(19.5000042298785,-27.4999876172248,-7.34846109111048));
#1198=CARTESIAN_POINT('',(28.0000042298775,-27.4999876172247,7.34847736558925));
#1199=CARTESIAN_POINT('',(19.4990042298779,27.5000123827753,1.83388085917591));
#1200=CARTESIAN_POINT('',(19.4990042298785,27.5000123827752,-7.34846109111054));
#1201=CARTESIAN_POINT('',(28.0000042298785,26.5000123827752,-7.34846109110993));
#1202=CARTESIAN_POINT('',(28.0000042298775,-26.4999876172247,7.34847736558925));
#1203=CARTESIAN_POINT('',(28.0000042298785,-26.4999876172248,-7.34846109110982));
#1204=CARTESIAN_POINT('',(9.03975799770862E-6,19.3578826926121,9.26092447173232E-6));
#1205=CARTESIAN_POINT('',(9.03975799770862E-6,33.000018316343,9.26092447173232E-6));
#1206=CARTESIAN_POINT('',(-4.989990960242,33.000018316343,9.26092410746232E-6));
#1207=CARTESIAN_POINT('',(9.03975799770862E-6,37.500018316343,9.26092447173232E-6));
#1208=CARTESIAN_POINT('',(-4.989990960242,37.500018316343,9.26092410746232E-6));
#1209=CARTESIAN_POINT('',(9.03975799770862E-6,37.500018316343,9.26092447173232E-6));
#1210=CARTESIAN_POINT('',(19.5000090397581,27.500018316343,-1.83386346101105));
#1211=CARTESIAN_POINT('',(28.0000090397575,27.500018316343,7.50000926092653));
#1212=CARTESIAN_POINT('',(27.0000090397575,27.500018316343,7.50000926092642));
#1213=CARTESIAN_POINT('',(20.0000090397575,27.500018316343,7.50000926092592));
#1214=CARTESIAN_POINT('',(20.0000090397575,27.500018316343,7.00000926092592));
#1215=CARTESIAN_POINT('',(19.5000090397575,27.500018316343,7.00000926092587));
#1216=CARTESIAN_POINT('',(19.5000090397575,27.500018316343,7.50000926092587));
#1217=CARTESIAN_POINT('',(19.5000090397585,27.500018316343,-6.99999073907409));
#1218=CARTESIAN_POINT('',(20.0000090397585,27.500018316343,-6.99999073907409));
#1219=CARTESIAN_POINT('',(20.0000090397585,27.500018316343,-7.49999073907409));
#1220=CARTESIAN_POINT('',(28.0000090397585,27.500018316343,-7.49999073907348));
#1221=CARTESIAN_POINT('',(27.0000090397585,27.500018316343,-7.49999073907354));
#1222=CARTESIAN_POINT('',(27.0000090397585,27.500018316343,-6.49999073907359));
#1223=CARTESIAN_POINT('',(28.0000090397585,27.500018316343,-6.49999073907348));
#1224=CARTESIAN_POINT('',(28.0000090397575,27.500018316343,7.50000926092653));
#1225=CARTESIAN_POINT('',(28.0000090397575,27.500018316343,6.50000926092653));
#1226=CARTESIAN_POINT('',(27.0000090397575,27.500018316343,6.50000926092642));
#1227=CARTESIAN_POINT('',(28.0000090397575,29.000018316343,7.50000926092653));
#1228=CARTESIAN_POINT('',(28.0000090397575,29.000018316343,6.50000926092653));
#1229=CARTESIAN_POINT('',(28.0000090397575,33.000018316343,6.50000926092653));
#1230=CARTESIAN_POINT('',(28.0000090397585,29.000018316343,-6.49999073907348));
#1231=CARTESIAN_POINT('',(28.0000090397585,33.000018316343,-6.49999073907348));
#1232=CARTESIAN_POINT('',(28.0000090397585,33.000018316343,-7.49999073907348));
#1233=CARTESIAN_POINT('',(28.0000090397575,29.000018316343,7.50000926092653));
#1234=CARTESIAN_POINT('',(28.0000090397575,33.000018316343,7.50000926092653));
#1235=CARTESIAN_POINT('',(27.0000090397575,33.000018316343,7.50000926092642));
#1236=CARTESIAN_POINT('',(9.0397574564749E-6,33.000018316343,7.50000926092448));
#1237=CARTESIAN_POINT('',(9.0397574564749E-6,33.000018316343,7.50000926092448));
#1238=CARTESIAN_POINT('',(9.0397574564749E-6,29.000018316343,7.50000926092448));
#1239=CARTESIAN_POINT('',(19.5000090397575,29.000018316343,7.50000926092587));
#1240=CARTESIAN_POINT('',(20.0000090397575,29.000018316343,7.50000926092592));
#1241=CARTESIAN_POINT('',(20.0000090397575,29.000018316343,7.50000926092592));
#1242=CARTESIAN_POINT('',(27.0000090397575,29.000018316343,7.50000926092642));
#1243=CARTESIAN_POINT('',(19.5000090397575,29.000018316343,7.50000926092587));
#1244=CARTESIAN_POINT('',(19.5000090397575,29.000018316343,7.00000926092587));
#1245=CARTESIAN_POINT('',(19.5000090397575,29.000018316343,7.00000926092587));
#1246=CARTESIAN_POINT('',(19.5000090397575,29.000018316343,7.50000926092587));
#1247=CARTESIAN_POINT('',(19.5000090397585,29.000018316343,-6.99999073907409));
#1248=CARTESIAN_POINT('',(19.5000090397585,29.000018316343,-6.99999073907409));
#1249=CARTESIAN_POINT('',(28.0000090397585,29.000018316343,-7.49999073907348));
#1250=CARTESIAN_POINT('',(27.0000090397585,29.000018316343,-7.49999073907354));
#1251=CARTESIAN_POINT('',(27.0000090397585,33.000018316343,-7.49999073907354));
#1252=CARTESIAN_POINT('',(20.0000090397585,29.000018316343,-7.49999073907409));
#1253=CARTESIAN_POINT('',(20.0000090397585,29.000018316343,-7.49999073907409));
#1254=CARTESIAN_POINT('',(9.03975855282013E-6,29.000018316343,-7.49999073907554));
#1255=CARTESIAN_POINT('',(9.03975855282013E-6,29.000018316343,-7.49999073907554));
#1256=CARTESIAN_POINT('',(9.03975855282013E-6,33.000018316343,-7.49999073907554));
#1257=CARTESIAN_POINT('',(9.03975855282013E-6,33.000018316343,-7.49999073907554));
#1258=CARTESIAN_POINT('',(19.5000090397585,33.000018316343,-7.49999073907409));
#1259=CARTESIAN_POINT('',(9.03975799770862E-6,29.000018316343,9.26092447173232E-6));
#1260=CARTESIAN_POINT('',(9.03975799770862E-6,29.000018316343,9.26092447173232E-6));
#1261=CARTESIAN_POINT('',(20.0000090397585,29.000018316343,-6.99999073907409));
#1262=CARTESIAN_POINT('',(20.0000090397575,29.000018316343,7.00000926092592));
#1263=CARTESIAN_POINT('',(9.03975799770862E-6,33.000018316343,9.26092447173232E-6));
#1264=CARTESIAN_POINT('',(27.0000090397575,33.000018316343,6.50000926092642));
#1265=CARTESIAN_POINT('',(27.0000090397585,33.000018316343,-6.49999073907359));
#1266=CARTESIAN_POINT('',(9.03975799770862E-6,33.000018316343,9.26092447173232E-6));
#1267=CARTESIAN_POINT('',(9.03975799770862E-6,33.000018316343,9.26092447173232E-6));
#1268=CARTESIAN_POINT('',(20.0000090397585,29.000018316343,-6.99999073907409));
#1269=CARTESIAN_POINT('',(20.0000090397575,29.000018316343,7.00000926092592));
#1270=CARTESIAN_POINT('',(27.0000090397575,29.000018316343,6.50000926092642));
#1271=CARTESIAN_POINT('',(27.0000090397585,29.000018316343,-6.49999073907359));
#1272=CARTESIAN_POINT('',(4.58285000226599E-6,-19.3578520819241,7.69583452520095E-6));
#1273=CARTESIAN_POINT('',(4.58285000226599E-6,-32.999987705655,7.69583452520095E-6));
#1274=CARTESIAN_POINT('',(-4.98999541715,-32.999987705655,7.69583416093095E-6));
#1275=CARTESIAN_POINT('',(4.58285000226599E-6,-37.499987705655,7.69583452520095E-6));
#1276=CARTESIAN_POINT('',(-4.98999541715,-37.499987705655,7.69583416093095E-6));
#1277=CARTESIAN_POINT('',(4.58285000226599E-6,-37.499987705655,7.69583452520095E-6));
#1278=CARTESIAN_POINT('',(19.5000045828499,-27.499987705655,1.83388041777294));
#1279=CARTESIAN_POINT('',(28.0000045828506,-27.499987705655,-7.49999230416343));
#1280=CARTESIAN_POINT('',(27.0000045828506,-27.499987705655,-7.49999230416348));
#1281=CARTESIAN_POINT('',(20.0000045828506,-27.499987705655,-7.49999230416398));
#1282=CARTESIAN_POINT('',(20.0000045828505,-27.499987705655,-6.99999230416398));
#1283=CARTESIAN_POINT('',(19.5000045828505,-27.499987705655,-6.99999230416404));
#1284=CARTESIAN_POINT('',(19.5000045828506,-27.499987705655,-7.49999230416404));
#1285=CARTESIAN_POINT('',(19.5000045828495,-27.499987705655,7.00000769583597));
#1286=CARTESIAN_POINT('',(20.0000045828495,-27.499987705655,7.00000769583597));
#1287=CARTESIAN_POINT('',(20.0000045828494,-27.499987705655,7.50000769583598));
#1288=CARTESIAN_POINT('',(28.0000045828495,-27.499987705655,7.50000769583659));
#1289=CARTESIAN_POINT('',(27.0000045828495,-27.499987705655,7.50000769583653));
#1290=CARTESIAN_POINT('',(27.0000045828495,-27.499987705655,6.50000769583653));
#1291=CARTESIAN_POINT('',(28.0000045828495,-27.499987705655,6.50000769583658));
#1292=CARTESIAN_POINT('',(28.0000045828506,-27.499987705655,-7.49999230416343));
#1293=CARTESIAN_POINT('',(28.0000045828505,-27.499987705655,-6.49999230416343));
#1294=CARTESIAN_POINT('',(27.0000045828505,-27.499987705655,-6.49999230416348));
#1295=CARTESIAN_POINT('',(28.0000045828506,-28.999987705655,-7.49999230416343));
#1296=CARTESIAN_POINT('',(28.0000045828505,-28.999987705655,-6.49999230416343));
#1297=CARTESIAN_POINT('',(28.0000045828505,-32.999987705655,-6.49999230416343));
#1298=CARTESIAN_POINT('',(28.0000045828495,-28.999987705655,6.50000769583658));
#1299=CARTESIAN_POINT('',(28.0000045828495,-32.999987705655,6.50000769583658));
#1300=CARTESIAN_POINT('',(28.0000045828495,-32.999987705655,7.50000769583659));
#1301=CARTESIAN_POINT('',(28.0000045828506,-28.999987705655,-7.49999230416343));
#1302=CARTESIAN_POINT('',(28.0000045828506,-32.999987705655,-7.49999230416343));
#1303=CARTESIAN_POINT('',(27.0000045828506,-32.999987705655,-7.49999230416348));
#1304=CARTESIAN_POINT('',(4.5828505573775E-6,-32.999987705655,-7.49999230416548));
#1305=CARTESIAN_POINT('',(4.5828505573775E-6,-32.999987705655,-7.49999230416548));
#1306=CARTESIAN_POINT('',(4.5828505573775E-6,-28.999987705655,-7.49999230416548));
#1307=CARTESIAN_POINT('',(19.5000045828506,-28.999987705655,-7.49999230416404));
#1308=CARTESIAN_POINT('',(20.0000045828506,-28.999987705655,-7.49999230416398));
#1309=CARTESIAN_POINT('',(20.0000045828506,-28.999987705655,-7.49999230416398));
#1310=CARTESIAN_POINT('',(27.0000045828506,-28.999987705655,-7.49999230416348));
#1311=CARTESIAN_POINT('',(19.5000045828506,-28.999987705655,-7.49999230416404));
#1312=CARTESIAN_POINT('',(19.5000045828505,-28.999987705655,-6.99999230416404));
#1313=CARTESIAN_POINT('',(19.5000045828505,-28.999987705655,-6.99999230416404));
#1314=CARTESIAN_POINT('',(19.5000045828506,-28.999987705655,-7.49999230416404));
#1315=CARTESIAN_POINT('',(19.5000045828495,-28.999987705655,7.00000769583597));
#1316=CARTESIAN_POINT('',(19.5000045828495,-28.999987705655,7.00000769583597));
#1317=CARTESIAN_POINT('',(28.0000045828495,-28.999987705655,7.50000769583659));
#1318=CARTESIAN_POINT('',(27.0000045828495,-28.999987705655,7.50000769583653));
#1319=CARTESIAN_POINT('',(27.0000045828495,-32.999987705655,7.50000769583653));
#1320=CARTESIAN_POINT('',(20.0000045828494,-28.999987705655,7.50000769583598));
#1321=CARTESIAN_POINT('',(20.0000045828494,-28.999987705655,7.50000769583598));
#1322=CARTESIAN_POINT('',(4.58284946103227E-6,-28.999987705655,7.50000769583453));
#1323=CARTESIAN_POINT('',(4.58284946103227E-6,-28.999987705655,7.50000769583453));
#1324=CARTESIAN_POINT('',(4.58284946103227E-6,-32.999987705655,7.50000769583453));
#1325=CARTESIAN_POINT('',(4.58284946103227E-6,-32.999987705655,7.50000769583453));
#1326=CARTESIAN_POINT('',(19.5000045828494,-32.999987705655,7.50000769583598));
#1327=CARTESIAN_POINT('',(4.58285000226599E-6,-28.999987705655,7.69583452520095E-6));
#1328=CARTESIAN_POINT('',(4.58285000226599E-6,-28.999987705655,7.69583452520095E-6));
#1329=CARTESIAN_POINT('',(20.0000045828495,-28.999987705655,7.00000769583597));
#1330=CARTESIAN_POINT('',(20.0000045828505,-28.999987705655,-6.99999230416398));
#1331=CARTESIAN_POINT('',(4.58285000226599E-6,-32.999987705655,7.69583452520095E-6));
#1332=CARTESIAN_POINT('',(27.0000045828505,-32.999987705655,-6.49999230416348));
#1333=CARTESIAN_POINT('',(27.0000045828495,-32.999987705655,6.50000769583653));
#1334=CARTESIAN_POINT('',(4.58285000226599E-6,-32.999987705655,7.69583452520095E-6));
#1335=CARTESIAN_POINT('',(4.58285000226599E-6,-32.999987705655,7.69583452520095E-6));
#1336=CARTESIAN_POINT('',(20.0000045828495,-28.999987705655,7.00000769583597));
#1337=CARTESIAN_POINT('',(20.0000045828505,-28.999987705655,-6.99999230416398));
#1338=CARTESIAN_POINT('',(27.0000045828505,-28.999987705655,-6.49999230416348));
#1339=CARTESIAN_POINT('',(27.0000045828495,-28.999987705655,6.50000769583653));
#1340=CARTESIAN_POINT('',(152.500015258789,261.,-2.18079280853273));
#1341=CARTESIAN_POINT('',(0.,0.,0.));
#1342=CARTESIAN_POINT('',(-22.8304536377437,-22.8304536377437,91.5679483413696));
#1343=CARTESIAN_POINT('',(152.500015258789,175.050689697266,-93.7487411499024));
#1344=CARTESIAN_POINT('',(0.,0.,0.));
#1345=CARTESIAN_POINT('',(-21.429569839735,-21.429569839735,85.9493103027344));
#1346=CARTESIAN_POINT('',(238.449325561523,261.,-93.7487411499024));
#1347=CARTESIAN_POINT('',(0.,0.,0.));
#1348=CARTESIAN_POINT('',(-21.429569839735,-21.429569839735,85.9493103027344));
#1349=CARTESIAN_POINT('',(152.500015258789,346.949310302734,-93.7487411499024));
#1350=CARTESIAN_POINT('',(0.,0.,0.));
#1351=CARTESIAN_POINT('',(-21.429569839735,-21.429569839735,85.9493103027344));
#1352=CARTESIAN_POINT('',(152.500015258789,261.,-185.316696166992));
#1353=CARTESIAN_POINT('',(0.,0.,0.));
#1354=CARTESIAN_POINT('',(-22.8304553021877,-22.8304553021877,91.5679550170898));
#1355=CARTESIAN_POINT('',(66.5507125854492,261.,-93.7487411499024));
#1356=CARTESIAN_POINT('',(0.,0.,0.));
#1357=CARTESIAN_POINT('',(-21.4295679375133,-21.4295679375133,85.9493026733398));
#1358=CARTESIAN_POINT('',(235.887833277384,177.612166722616,-10.6102898915609));
#1359=CARTESIAN_POINT('',(0.,0.,0.));
#1360=CARTESIAN_POINT('',(-35.9750335121838,-35.9750335121838,144.287978788854));
#1361=CARTESIAN_POINT('',(244.239885800566,186.338320699613,-45.9958421250294));
#1362=CARTESIAN_POINT('',(0.,0.,0.));
#1363=CARTESIAN_POINT('',(-31.8036339975691,-31.8036339975691,127.557409115285));
#1364=MECHANICAL_DESIGN_GEOMETRIC_PRESENTATION_REPRESENTATION('',(#753,
#754,#755,#756),#1365);
#1365=(
GEOMETRIC_REPRESENTATION_CONTEXT(3)
GLOBAL_UNCERTAINTY_ASSIGNED_CONTEXT((#1366))
GLOBAL_UNIT_ASSIGNED_CONTEXT((#1369,#1368,#1367))
REPRESENTATION_CONTEXT('openarm_left_link6_collision',
'TOP_LEVEL_ASSEMBLY_PART')
);
#1366=UNCERTAINTY_MEASURE_WITH_UNIT(LENGTH_MEASURE(1.E-5),#1369,
'DISTANCE_ACCURACY_VALUE','Maximum Tolerance applied to model');
#1367=(
NAMED_UNIT(*)
SI_UNIT($,.STERADIAN.)
SOLID_ANGLE_UNIT()
);
#1368=(
NAMED_UNIT(*)
PLANE_ANGLE_UNIT()
SI_UNIT($,.RADIAN.)
);
#1369=(
LENGTH_UNIT()
NAMED_UNIT(*)
SI_UNIT(.MILLI.,.METRE.)
);
#1370=PRODUCT_DEFINITION_SHAPE('','',#1371);
#1371=PRODUCT_DEFINITION('','',#1373,#1372);
#1372=PRODUCT_DEFINITION_CONTEXT('',#1379,'design');
#1373=PRODUCT_DEFINITION_FORMATION_WITH_SPECIFIED_SOURCE('','',#1375,
 .NOT_KNOWN.);
#1374=PRODUCT_RELATED_PRODUCT_CATEGORY('','',(#1375));
#1375=PRODUCT('openarm_left_link6_collision',
'openarm_left_link6_collision','openarm_left_link6_collision',(#1377));
#1376=PRODUCT_CATEGORY('','');
#1377=PRODUCT_CONTEXT('',#1379,'mechanical');
#1378=APPLICATION_PROTOCOL_DEFINITION('international standard',
'ap242_managed_model_based_3d_engineering',2011,#1379);
#1379=APPLICATION_CONTEXT('managed model based 3d engineering');
ENDSEC;
END-ISO-10303-21;
