ISO-10303-21;
HEADER;
FILE_DESCRIPTION (( 'STEP AP214' ),
    '1' );
FILE_NAME ('base_collision.stp',
    '2026-08-11T19:39:21',
    ( '' ),
    ( '' ),
    'SwSTEP 2.0',
    'SolidWorks 2025',
    '' );
FILE_SCHEMA (( 'AUTOMOTIVE_DESIGN' ));
ENDSEC;

DATA;
#1 = CARTESIAN_POINT ( 'NONE',  ( 6.071532165918824830E-15, 4.728844493157734696, 45.72279497512698754 ) ) ;
#2 =( NAMED_UNIT ( * ) PLANE_ANGLE_UNIT ( ) SI_UNIT ( $, .RADIAN. ) );
#3 = CARTESIAN_POINT ( 'NONE',  ( 20.70173060741785420, 5.000000000000000888, -35.88329407659568204 ) ) ;
#4 = CARTESIAN_POINT ( 'NONE',  ( -5.546212436964175652, 4.999999999999999112, 42.37564434701787519 ) ) ;
#5 = CARTESIAN_POINT ( 'NONE',  ( 48.81218334123950342, 3.660254037844387298, -2.189969257486344760E-14 ) ) ;
#6 = CARTESIAN_POINT ( 'NONE',  ( -5.080426281568466382E-15, 5.000000000000000000, -43.47885459284491105 ) ) ;
#7 = VERTEX_POINT ( 'NONE', #346 ) ;
#8 = CARTESIAN_POINT ( 'NONE',  ( 7.372574772901430151E-15, 0.8971143170299743508, 49.48205080756887497 ) ) ;
#9 = CARTESIAN_POINT ( 'NONE',  ( -16.23189570773209311, 4.999999999999999112, -39.18726276063247127 ) ) ;
#10 = EDGE_LOOP ( 'NONE', ( #518, #615 ) ) ;
#11 = CARTESIAN_POINT ( 'NONE',  ( 19.63231187074987005, 8.966623416189031429E-16, 47.39659357910225168 ) ) ;
#12 = CARTESIAN_POINT ( 'NONE',  ( -2.704823973719922225, 5.000000000000000000, -41.33979472574252867 ) ) ;
#13 = FILL_AREA_STYLE_COLOUR ( '', #255 ) ;
#14 = DIRECTION ( 'NONE',  ( 1.000000000000000000, 0.000000000000000000, 0.000000000000000000 ) ) ;
#15 = CARTESIAN_POINT ( 'NONE',  ( -46.90561303173663532, 0.8971143170299769043, -19.42894106916949326 ) ) ;
#16 = SURFACE_STYLE_FILL_AREA ( #62 ) ;
#17 = CARTESIAN_POINT ( 'NONE',  ( 6.505213034913026604E-15, 1.794228634059948257, 48.96410161513775705 ) ) ;
#18 = CARTESIAN_POINT ( 'NONE',  ( -39.18726276063243574, 5.000000000000000888, 16.23189570773224233 ) ) ;
#19 = FACE_OUTER_BOUND ( 'NONE', #10, .T. ) ;
#20 = CARTESIAN_POINT ( 'NONE',  ( 44.54172162277263425, 4.999999999999997335, -1.891552637252552773E-14 ) ) ;
#21 = CARTESIAN_POINT ( 'NONE',  ( -32.85784733762649523, 4.999999999999999112, 25.22963163163891664 ) ) ;
#22 = FILL_AREA_STYLE_COLOUR ( '', #592 ) ;
#23 = UNCERTAINTY_MEASURE_WITH_UNIT (LENGTH_MEASURE( 1.000000000000000082E-05 ), #477, 'distance_accuracy_value', 'NONE');
#24 = CARTESIAN_POINT ( 'NONE',  ( 31.49575340518599731, 4.999999999999999112, -31.49575340518601863 ) ) ;
#25 = CARTESIAN_POINT ( 'NONE',  ( -5.393717836216801231, 5.000000000000000888, 41.07409906253941756 ) ) ;
#26 = CARTESIAN_POINT ( 'NONE',  ( 47.39659357910230852, 4.983737276366910270E-15, -19.63231187074967110 ) ) ;
#27 = UNCERTAINTY_MEASURE_WITH_UNIT (LENGTH_MEASURE( 1.000000000000000082E-05 ), #112, 'distance_accuracy_value', 'NONE');
#28 = CARTESIAN_POINT ( 'NONE',  ( 40.16922385536378926, 5.000000000000001776, 16.63863731089254472 ) ) ;
#29 = CARTESIAN_POINT ( 'NONE',  ( -40.01165466770927281, 4.999999999999999112, 10.73498647794858840 ) ) ;
#30 = CARTESIAN_POINT ( 'NONE',  ( 46.90561303173666374, 0.8971143170299702430, 19.42894106916951458 ) ) ;
#31 = CARTESIAN_POINT ( 'NONE',  ( 40.16922385536379636, 5.000000000000000888, -16.63863731089250209 ) ) ;
#32 = CARTESIAN_POINT ( 'NONE',  ( -41.33979472575529002, 4.999999999999999112, 2.704823973646118151 ) ) ;
#33 = CARTESIAN_POINT ( 'NONE',  ( 35.52422174216656714, 1.794228634059942040, -35.52422174216658846 ) ) ;
#34 = CARTESIAN_POINT ( 'NONE',  ( -46.91314515532337026, 4.728844493157732920, -9.252398902125732861E-14 ) ) ;
#35 = CARTESIAN_POINT ( 'NONE',  ( -35.88329407659569625, 5.000000000000000888, -20.70173060742422066 ) ) ;
#36 = CARTESIAN_POINT ( 'NONE',  ( -35.52422174216665240, 1.794228634059950922, 35.52422174216648187 ) ) ;
#37 =( GEOMETRIC_REPRESENTATION_CONTEXT ( 3 ) GLOBAL_UNCERTAINTY_ASSIGNED_CONTEXT ( ( #27 ) ) GLOBAL_UNIT_ASSIGNED_CONTEXT ( ( #112, #303, #158 ) ) REPRESENTATION_CONTEXT ( 'NONE', 'WORKASPACE' ) );
#38 = PRESENTATION_STYLE_ASSIGNMENT (( #428 ) ) ;
#39 = CARTESIAN_POINT ( 'NONE',  ( -19.63231187074971018, -2.027330321496642777E-15, -47.39659357910227300 ) ) ;
#40 = B_SPLINE_CURVE_WITH_KNOTS ( 'NONE', 5,
 ( #315, #540, #274, #122, #320, #504, #450, #220 ),
 .UNSPECIFIED., .F., .F.,
 ( 6, 2, 6 ),
 ( 0.000000000000000000, 0.5000000000000000000, 1.000000000000000000 ),
 .UNSPECIFIED. ) ;
#41 = DIRECTION ( 'NONE',  ( 0.000000000000000000, 0.000000000000000000, 1.000000000000000000 ) ) ;
#42 = CARTESIAN_POINT ( 'NONE',  ( 5.393963053891969395, 5.000000000000000000, -41.07405028121341672 ) ) ;
#43 = CARTESIAN_POINT ( 'NONE',  ( -41.15118495009501487, 5.000000000000001776, 17.04537891405310290 ) ) ;
#44 = CARTESIAN_POINT ( 'NONE',  ( 43.34209461473430736, 4.728844493157740025, -17.95288341108077645 ) ) ;
#45 = PRESENTATION_LAYER_ASSIGNMENT (  '', '', ( #568 ) ) ;
#46 = CARTESIAN_POINT ( 'NONE',  ( 32.85784733753596498, 4.999999999999999112, -25.22963163172942913 ) ) ;
#47 = CARTESIAN_POINT ( 'NONE',  ( -48.81218334123952474, 3.660254037844384190, -9.300333148174658326E-14 ) ) ;
#48 = EDGE_LOOP ( 'NONE', ( #442, #571, #245, #117 ) ) ;
#49 = CARTESIAN_POINT ( 'NONE',  ( 31.49575340518591915, 4.999999999999995559, 31.49575340518603284 ) ) ;
#50 = CARTESIAN_POINT ( 'NONE',  ( -6.476313689723163236, 0.8971143170299739067, 49.48205080756888918 ) ) ;
#51 = CARTESIAN_POINT ( 'NONE',  ( 45.09657712615962311, 3.660254037844382857, -18.67961386225956488 ) ) ;
#52 = ORIENTED_EDGE ( 'NONE', *, *, #553, .T. ) ;
#53 = CARTESIAN_POINT ( 'NONE',  ( 51.30170321044884929, -6.074885368514129641E-16, -2.686587473405564395E-14 ) ) ;
#54 = CARTESIAN_POINT ( 'NONE',  ( 29.99263243646299770, 5.000000000000000888, -29.99263243646300481 ) ) ;
#55 = CARTESIAN_POINT ( 'NONE',  ( -34.51542584511155098, 3.660254037844389963, 34.51542584511139466 ) ) ;
#56 = CARTESIAN_POINT ( 'NONE',  ( -4.336808689942017736E-16, 4.999999999999999112, -43.41154273188011814 ) ) ;
#57 = PRODUCT_DEFINITION ( 'UNKNOWN', '', #447, #284 ) ;
#58 = CARTESIAN_POINT ( 'NONE',  ( 19.42894106916965313, 0.8971143170299716862, 46.90561303173662822 ) ) ;
#59 = CARTESIAN_POINT ( 'NONE',  ( -27.31898084760862133, 5.000000000000000000, -31.14417959497691157 ) ) ;
#60 = ORIENTED_EDGE ( 'NONE', *, *, #195, .T. ) ;
#61 = CARTESIAN_POINT ( 'NONE',  ( -35.90000198434739787, 0.8971143170299794578, 35.90000198434722023 ) ) ;
#62 = FILL_AREA_STYLE ('',( #580 ) ) ;
#63 = CARTESIAN_POINT ( 'NONE',  ( 6.938893903907228378E-15, 0.000000000000000000, 50.00000000000000000 ) ) ;
#64 = ADVANCED_BREP_SHAPE_REPRESENTATION ( '', ( #407, #556 ), #216 ) ;
#65 = CARTESIAN_POINT ( 'NONE',  ( 5.546212436964187198, 5.000000000000000000, 42.37564434701783966 ) ) ;
#66 = APPLICATION_PROTOCOL_DEFINITION ( 'draft international standard', 'automotive_design', 1998, #520 ) ;
#67 = CARTESIAN_POINT ( 'NONE',  ( 3.252606517456513302E-15, 0.000000000000000000, 50.00000000000000000 ) ) ;
#68 = CARTESIAN_POINT ( 'NONE',  ( 5.984294470360280727, 4.728844493157735585, 45.72279497512697333 ) ) ;
#69 = ITEM_DEFINED_TRANSFORMATION ( 'NONE', 'NONE', #590,  #556 ) ;
#70 = CARTESIAN_POINT ( 'NONE',  ( 6.071532165918824830E-15, 3.660254037844386410, 47.57364793621285060 ) ) ;
#71 = CARTESIAN_POINT ( 'NONE',  ( -5.080426281568466382E-15, 5.000000000000000000, -43.47885459284491105 ) ) ;
#72 = APPLICATION_PROTOCOL_DEFINITION ( 'draft international standard', 'automotive_design', 1998, #408 ) ;
#73 = FILL_AREA_STYLE ('',( #548 ) ) ;
#74 = CARTESIAN_POINT ( 'NONE',  ( 29.99263243646299770, 5.000000000000000888, -29.99263243646300481 ) ) ;
#75 = CARTESIAN_POINT ( 'NONE',  ( 7.372574772901430151E-15, 0.8971143170299743508, 49.48205080756887497 ) ) ;
#76 = COLOUR_RGB ( '',0.7921568627450980005, 0.8196078431372548767, 0.9333333333333333481 ) ;
#77 = CARTESIAN_POINT ( 'NONE',  ( 33.17260306611790099, 4.728844493157731144, 33.17260306611798626 ) ) ;
#78 = CARTESIAN_POINT ( 'NONE',  ( -19.22557026758914489, 1.794228634059944261, 46.41463248437108291 ) ) ;
#79 = CARTESIAN_POINT ( 'NONE',  ( -5.984294470360268292, 4.728844493157734696, 45.72279497512700175 ) ) ;
#80 = CARTESIAN_POINT ( 'NONE',  ( -47.39659357910227300, 3.374679059557421831E-15, -19.63231187074970308 ) ) ;
#81 = CARTESIAN_POINT ( 'NONE',  ( 7.372574772901430151E-15, 0.8971143170299743508, 49.48205080756887497 ) ) ;
#82 = CARTESIAN_POINT ( 'NONE',  ( 47.39659357910230852, 4.983737276366910270E-15, -19.63231187074967110 ) ) ;
#83 = CARTESIAN_POINT ( 'NONE',  ( -2.705562711171175305, 4.999999999999998224, 41.33974596215561093 ) ) ;
#84 = CARTESIAN_POINT ( 'NONE',  ( 35.52422174216648187, 1.794228634059953809, 35.52422174216659556 ) ) ;
#85 =( GEOMETRIC_REPRESENTATION_CONTEXT ( 3 ) GLOBAL_UNCERTAINTY_ASSIGNED_CONTEXT ( ( #150 ) ) GLOBAL_UNIT_ASSIGNED_CONTEXT ( ( #327, #2, #193 ) ) REPRESENTATION_CONTEXT ( 'NONE', 'WORKASPACE' ) );
#86 = CARTESIAN_POINT ( 'NONE',  ( 6.544103956916583087, 1.101048023619116315E-15, 49.99999999999998579 ) ) ;
#87 = SURFACE_SIDE_STYLE ('',( #134 ) ) ;
#88 = CARTESIAN_POINT ( 'NONE',  ( -40.16922385536376083, 5.000000000000000000, -16.63863731089253406 ) ) ;
#89 = CARTESIAN_POINT ( 'NONE',  ( 29.99263243646292310, 4.999999999999997335, 29.99263243646301902 ) ) ;
#90 = CARTESIAN_POINT ( 'NONE',  ( 6.505213034913026604E-16, 4.999999999999999112, -41.33974596215561803 ) ) ;
#91 = CARTESIAN_POINT ( 'NONE',  ( -5.681792971350987820, 4.999999999999997335, 43.41154273188012525 ) ) ;
#92 = CARTESIAN_POINT ( 'NONE',  ( 35.88321402929094006, 5.000000000000000000, -20.70167712148387551 ) ) ;
#93 = CARTESIAN_POINT ( 'NONE',  ( 17.95288341108095764, 4.728844493157740914, 43.34209461473425762 ) ) ;
#94 = PRESENTATION_LAYER_ASSIGNMENT (  '', '', ( #104 ) ) ;
#95 = CARTESIAN_POINT ( 'NONE',  ( -5.274329671905251254E-15, 5.000000000000000000, -42.41598756291719496 ) ) ;
#96 =( NAMED_UNIT ( * ) SI_UNIT ( $, .STERADIAN. ) SOLID_ANGLE_UNIT ( ) );
#97 = PRODUCT_DEFINITION_SHAPE ( 'NONE', 'NONE',  #149 ) ;
#98 = CARTESIAN_POINT ( 'NONE',  ( 46.91314515532334184, 4.728844493157732920, -2.365331154773588153E-14 ) ) ;
#99 = CARTESIAN_POINT ( 'NONE',  ( 34.51542584511147282, 3.660254037844390851, -34.51542584511148704 ) ) ;
#100 = CARTESIAN_POINT ( 'NONE',  ( -30.74419292082457744, 4.999999999999997335, 30.74419292082442823 ) ) ;
#101 = CARTESIAN_POINT ( 'NONE',  ( 7.372574772901430151E-15, 0.8971143170299743508, 49.48205080756887497 ) ) ;
#102 = CARTESIAN_POINT ( 'NONE',  ( -16.23189570773198653, 5.000000000000001776, 39.18726276063254232 ) ) ;
#103 = SURFACE_STYLE_FILL_AREA ( #170 ) ;
#104 = STYLED_ITEM ( 'NONE', ( #299 ), #279 ) ;
#105 = CARTESIAN_POINT ( 'NONE',  ( 6.071532165918824830E-15, 3.660254037844386410, 47.57364793621285060 ) ) ;
#106 = PRESENTATION_STYLE_ASSIGNMENT (( #248 ) ) ;
#107 = VERTEX_POINT ( 'NONE', #67 ) ;
#108 = B_SPLINE_CURVE_WITH_KNOTS ( 'NONE', 3,
 ( #502, #217, #413, #360, #80, #595, #349, #550, #172, #352, #131 ),
 .UNSPECIFIED., .F., .F.,
 ( 4, 1, 1, 1, 1, 1, 1, 1, 4 ),
 ( 0.5000000000000000000, 0.5625000000000000000, 0.6250000000000000000, 0.6875000000000000000, 0.7500000000000000000, 0.8125000000000000000, 0.8750000000000000000, 0.9375000000000000000, 1.000000000000000000 ),
 .UNSPECIFIED. ) ;
#109 = CARTESIAN_POINT ( 'NONE',  ( 36.27578222652797990, 4.142801968355864018E-16, 36.27578222652808648 ) ) ;
#110 = CARTESIAN_POINT ( 'NONE',  ( -10.73498647813520712, 5.000000000000001776, -40.01165466767025691 ) ) ;
#111 = CARTESIAN_POINT ( 'NONE',  ( 46.41463248437102607, 1.794228634059947591, -19.22557026758923726 ) ) ;
#112 =( LENGTH_UNIT ( ) NAMED_UNIT ( * ) SI_UNIT ( .MILLI., .METRE. ) );
#113 = CARTESIAN_POINT ( 'NONE',  ( 6.505213034913026604E-16, 4.999999999999999112, -41.33974596215561803 ) ) ;
#114 = CARTESIAN_POINT ( 'NONE',  ( -41.15118495009501487, 5.000000000000001776, 17.04537891405310290 ) ) ;
#115 = STYLED_ITEM ( 'NONE', ( #376 ), #563 ) ;
#116 = CARTESIAN_POINT ( 'NONE',  ( 5.410631902577376806, 5.000000000000000000, 41.33974596215560382 ) ) ;
#117 = ORIENTED_EDGE ( 'NONE', *, *, #379, .F. ) ;
#118 = CARTESIAN_POINT ( 'NONE',  ( 43.34209461473427893, 4.728844493157742690, 17.95288341108082975 ) ) ;
#119 = CARTESIAN_POINT ( 'NONE',  ( -13.32112303054984004, 5.000000000000000888, 39.22808154755028909 ) ) ;
#120 = CARTESIAN_POINT ( 'NONE',  ( 6.408523422529770919, 1.794228634059948257, 48.96410161513773573 ) ) ;
#121 = CARTESIAN_POINT ( 'NONE',  ( 17.95288341108084040, 4.728844493157736473, -43.34209461473427183 ) ) ;
#122 = CARTESIAN_POINT ( 'NONE',  ( 6.071532165918824830E-15, 3.660254037844386410, 47.57364793621285060 ) ) ;
#123 = CARTESIAN_POINT ( 'NONE',  ( 35.90000198434722734, 0.8971143170299780145, 35.90000198434733392 ) ) ;
#124 = APPLICATION_CONTEXT ( 'automotive_design' ) ;
#125 = CARTESIAN_POINT ( 'NONE',  ( 16.63863731089255182, 5.000000000000000000, -40.16922385536376083 ) ) ;
#126 = CARTESIAN_POINT ( 'NONE',  ( -37.15789890324722933, 4.999999999999999112, 18.31898604707213352 ) ) ;
#127 = CARTESIAN_POINT ( 'NONE',  ( -39.18726276063247127, 5.000000000000000000, -16.23189570773210022 ) ) ;
#128 =( NAMED_UNIT ( * ) PLANE_ANGLE_UNIT ( ) SI_UNIT ( $, .RADIAN. ) );
#129 = CARTESIAN_POINT ( 'NONE',  ( 36.27578222652797990, 4.142801968355864018E-16, 36.27578222652808648 ) ) ;
#130 = SHAPE_REPRESENTATION_RELATIONSHIP ( 'NONE' , 'NONE' ,  #454, #64 ) ;
#131 = CARTESIAN_POINT ( 'NONE',  ( 3.252606517456513302E-15, 0.000000000000000000, 50.00000000000000000 ) ) ;
#132 = CARTESIAN_POINT ( 'NONE',  ( -35.52422174216653872, 1.794228634059943372, -35.52422174216660977 ) ) ;
#133 = CARTESIAN_POINT ( 'NONE',  ( 19.63231187074987005, 8.966623416189031429E-16, 47.39659357910225168 ) ) ;
#134 = SURFACE_STYLE_FILL_AREA ( #285 ) ;
#135 = CARTESIAN_POINT ( 'NONE',  ( -43.34209461473426472, 4.728844493157745354, -17.95288341108081198 ) ) ;
#136 = COLOUR_RGB ( '',0.7921568627450980005, 0.8196078431372548767, 0.9333333333333333481 ) ;
#137 =( GEOMETRIC_REPRESENTATION_CONTEXT ( 3 ) GLOBAL_UNCERTAINTY_ASSIGNED_CONTEXT ( ( #272 ) ) GLOBAL_UNIT_ASSIGNED_CONTEXT ( ( #581, #525, #306 ) ) REPRESENTATION_CONTEXT ( 'NONE', 'WORKASPACE' ) );
#138 = CARTESIAN_POINT ( 'NONE',  ( 6.544103956916573317, 2.491748880947908887E-16, -50.00000000000001421 ) ) ;
#139 = CARTESIAN_POINT ( 'NONE',  ( 18.31898604732899472, 4.999999999999999112, 37.15789890311842214 ) ) ;
#140 = CARTESIAN_POINT ( 'NONE',  ( 45.09657712615959468, 3.660254037844387298, 18.67961386225960752 ) ) ;
#141 = CARTESIAN_POINT ( 'NONE',  ( -16.23189570773209311, 4.999999999999999112, -39.18726276063247127 ) ) ;
#142 = CARTESIAN_POINT ( 'NONE',  ( -36.27578222652803674, -2.938922398480405405E-15, -36.27578222652811490 ) ) ;
#143 = CARTESIAN_POINT ( 'NONE',  ( 34.51542584511147282, 3.660254037844390851, -34.51542584511148704 ) ) ;
#144 = CARTESIAN_POINT ( 'NONE',  ( -29.99263243646297994, 5.000000000000000000, -29.99263243646303323 ) ) ;
#145 = FILL_AREA_STYLE_COLOUR ( '', #368 ) ;
#146 = CARTESIAN_POINT ( 'NONE',  ( 17.04537891405298566, 5.000000000000001776, -41.15118495009503619 ) ) ;
#147 = VERTEX_POINT ( 'NONE', #534 ) ;
#148 = PRESENTATION_LAYER_ASSIGNMENT (  '', '', ( #400 ) ) ;
#149 = PRODUCT_DEFINITION ( 'UNKNOWN', '', #579, #419 ) ;
#150 = UNCERTAINTY_MEASURE_WITH_UNIT (LENGTH_MEASURE( 1.000000000000000082E-05 ), #327, 'distance_accuracy_value', 'NONE');
#151 = CARTESIAN_POINT ( 'NONE',  ( -19.63231187074958228, -5.709625800095791791E-15, 47.39659357910236537 ) ) ;
#152 = B_SPLINE_SURFACE_WITH_KNOTS ( 'NONE', 5, 3, ( 
 ( #569, #473, #151, #234, #371, #333, #562, #142, #39, #608, #363, #322, #506, #53, #438, #109, #11, #302, #157 ),
 ( #101, #50, #484, #61, #205, #297, #15, #159, #162, #431, #304, #482, #475, #336, #251, #435, #58, #339, #8 ),
 ( #208, #585, #389, #582, #338, #249, #523, #380, #243, #256, #434, #342, #111, #165, #528, #572, #526, #154, #17 ),
 ( #440, #386, #480, #55, #295, #307, #519, #578, #393, #344, #478, #99, #247, #5, #198, #201, #383, #575, #105 ),
 ( #174, #79, #269, #396, #348, #34, #536, #588, #597, #168, #121, #531, #412, #488, #118, #77, #604, #68, #449 ),
 ( #273, #177, #401, #212, #114, #311, #457, #171, #181, #599, #309, #24, #443, #20, #356, #316, #546, #452, #318 ),
 ( #354, #215, #446, #543, #594, #262, #351, #539, #497, #71, #125, #492, #31, #222, #28, #314, #494, #65, #266 ),
 ( #501, #225, #219, #404, #409, #260, #127, #144, #141, #95, #291, #74, #287, #472, #184, #89, #552, #330, #362 ) ),
 .UNSPECIFIED., .F., .T., .F.,
 ( 6, 2, 6 ),
 ( 4, 1, 1, 1, 1, 1, 1, 1, 1, 1, 1, 1, 1, 1, 1, 1, 4 ),
 ( 0.000000000000000000, 0.5000000000000000000, 1.000000000000000000 ),
 ( -3.141592653589793116, -2.748893571891068976, -2.356194490192345281, -1.963495408493620475, -1.570796326794896558, -1.178097245096172418, -0.7853981633974482790, -0.3926990816987241395, 0.000000000000000000, 0.3926990816987241395, 0.7853981633974482790, 1.178097245096172418, 1.570796326794896558, 1.963495408493620475, 2.356194490192344393, 2.748893571891068976, 3.141592653589793116 ),
 .UNSPECIFIED. ) ;
#153 = CARTESIAN_POINT ( 'NONE',  ( -18.67961386225946896, 3.660254037844386854, 45.09657712615967284 ) ) ;
#154 = CARTESIAN_POINT ( 'NONE',  ( 6.408523422529770919, 1.794228634059948257, 48.96410161513773573 ) ) ;
#155 = CARTESIAN_POINT ( 'NONE',  ( 42.41598756291717365, 4.999999999999999112, -1.898773147464973504E-14 ) ) ;
#156 = CARTESIAN_POINT ( 'NONE',  ( 0.0001451205664241836456, 1.000000000000000000, -0.0005368076686283944441 ) ) ;
#157 = CARTESIAN_POINT ( 'NONE',  ( 6.938893903907228378E-15, 0.000000000000000000, 50.00000000000000000 ) ) ;
#158 =( NAMED_UNIT ( * ) SI_UNIT ( $, .STERADIAN. ) SOLID_ANGLE_UNIT ( ) );
#159 = CARTESIAN_POINT ( 'NONE',  ( -35.90000198434728418, 0.8971143170299705760, -35.90000198434735523 ) ) ;
#160 = APPLICATION_CONTEXT ( 'automotive_design' ) ;
#161 = ORIENTED_EDGE ( 'NONE', *, *, #607, .T. ) ;
#162 = CARTESIAN_POINT ( 'NONE',  ( -19.42894106916948971, 0.8971143170299732406, -46.90561303173664953 ) ) ;
#163 = CARTESIAN_POINT ( 'NONE',  ( -31.14424855713020435, 5.000000000000000000, -27.31904980976201713 ) ) ;
#164 = CARTESIAN_POINT ( 'NONE',  ( 0.000000000000000000, 0.000000000000000000, 0.000000000000000000 ) ) ;
#165 = CARTESIAN_POINT ( 'NONE',  ( 50.23883618052112610, 1.794228634059950478, -2.481029672503378835E-14 ) ) ;
#166 = DIRECTION ( 'NONE',  ( 0.000000000000000000, 0.000000000000000000, 1.000000000000000000 ) ) ;
#167 = CARTESIAN_POINT ( 'NONE',  ( -29.99263243646297994, 5.000000000000000000, -29.99263243646303323 ) ) ;
#168 = CARTESIAN_POINT ( 'NONE',  ( -6.117967938498380263E-15, 4.728844493157734696, -46.91314515532334894 ) ) ;
#169 =( NAMED_UNIT ( * ) SI_UNIT ( $, .STERADIAN. ) SOLID_ANGLE_UNIT ( ) );
#170 = FILL_AREA_STYLE ('',( #22 ) ) ;
#171 = CARTESIAN_POINT ( 'NONE',  ( -31.49575340518596178, 4.999999999999999112, -31.49575340518603284 ) ) ;
#172 = CARTESIAN_POINT ( 'NONE',  ( -19.63231187074958228, -5.709625800095791791E-15, 47.39659357910236537 ) ) ;
#173 = CARTESIAN_POINT ( 'NONE',  ( -36.27578222652813622, 6.022751051972680116E-15, 36.27578222652797990 ) ) ;
#174 = CARTESIAN_POINT ( 'NONE',  ( 6.071532165918824830E-15, 4.728844493157734696, 45.72279497512698754 ) ) ;
#175 = CARTESIAN_POINT ( 'NONE',  ( -35.88321402920042402, 5.000000000000000000, 20.70167712157444839 ) ) ;
#176 = CARTESIAN_POINT ( 'NONE',  ( -5.856486673947875346E-15, 6.399028286061354252E-16, -51.30170321044887771 ) ) ;
#177 = CARTESIAN_POINT ( 'NONE',  ( -5.681792971350987820, 4.999999999999997335, 43.41154273188012525 ) ) ;
#178 = APPLICATION_PROTOCOL_DEFINITION ( 'draft international standard', 'automotive_design', 1998, #124 ) ;
#179 = CARTESIAN_POINT ( 'NONE',  ( -41.33969719855596026, 5.000000000000000000, -2.704823973646174107 ) ) ;
#180 = CARTESIAN_POINT ( 'NONE',  ( -19.42894106916936181, 0.8971143170299693548, 46.90561303173672769 ) ) ;
#181 = CARTESIAN_POINT ( 'NONE',  ( -17.04537891405296435, 5.000000000000000000, -41.15118495009504329 ) ) ;
#182 = CARTESIAN_POINT ( 'NONE',  ( -10.73521291405688594, 5.000000000000000000, 40.01151146407467252 ) ) ;
#183 = CARTESIAN_POINT ( 'NONE',  ( 19.42894106916951813, 0.8971143170299735736, -46.90561303173663532 ) ) ;
#184 = CARTESIAN_POINT ( 'NONE',  ( 39.18726276063249969, 5.000000000000001776, 16.23189570773211088 ) ) ;
#185 =( NAMED_UNIT ( * ) PLANE_ANGLE_UNIT ( ) SI_UNIT ( $, .RADIAN. ) );
#186 = CARTESIAN_POINT ( 'NONE',  ( 43.34209461473427893, 4.728844493157742690, 17.95288341108082975 ) ) ;
#187 = CARTESIAN_POINT ( 'NONE',  ( 10.73498647801422123, 5.000000000000000000, 40.01165466770452639 ) ) ;
#188 = CARTESIAN_POINT ( 'NONE',  ( -43.47885459284493948, 5.000000000000000888, -8.180414854122468142E-14 ) ) ;
#189 = MECHANICAL_DESIGN_GEOMETRIC_PRESENTATION_REPRESENTATION (  '', ( #115 ), #246 ) ;
#190 = CARTESIAN_POINT ( 'NONE',  ( 0.000000000000000000, 0.000000000000000000, 0.000000000000000000 ) ) ;
#191 = CARTESIAN_POINT ( 'NONE',  ( 41.07405028121340251, 5.000000000000000000, 5.393963053956543519 ) ) ;
#192 = CARTESIAN_POINT ( 'NONE',  ( 18.67961386225961817, 3.660254037844379749, -45.09657712615958758 ) ) ;
#193 =( NAMED_UNIT ( * ) SI_UNIT ( $, .STERADIAN. ) SOLID_ANGLE_UNIT ( ) );
#194 = CARTESIAN_POINT ( 'NONE',  ( -6.117967938498380263E-15, 4.728844493157734696, -46.91314515532334894 ) ) ;
#195 = EDGE_CURVE ( 'NONE', #341, #7, #335, .T. ) ;
#196 = B_SPLINE_SURFACE_WITH_KNOTS ( 'NONE', 5, 3, ( 
 ( #63, #268, #462, #173, #218, #361, #416, #549, #496, #176, #355, #601, #26, #403, #350, #129, #230, #353, #545 ),
 ( #75, #451, #180, #459, #596, #313, #264, #538, #358, #541, #183, #319, #414, #224, #30, #123, #503, #221, #81 ),
 ( #275, #499, #78, #36, #228, #406, #551, #132, #609, #271, #456, #33, #606, #321, #505, #84, #280, #120, #493 ),
 ( #70, #471, #153, #235, #564, #47, #293, #427, #476, #289, #192, #143, #51, #567, #140, #372, #517, #468, #515 ),
 ( #509, #369, #334, #244, #326, #364, #135, #238, #329, #194, #418, #512, #44, #98, #186, #474, #93, #423, #1 ),
 ( #377, #91, #296, #611, #43, #197, #432, #375, #286, #614, #146, #331, #283, #232, #555, #49, #465, #241, #430 ),
 ( #323, #4, #570, #100, #507, #188, #88, #560, #261, #6, #202, #308, #481, #200, #343, #298, #210, #394, #252 ),
 ( #521, #586, #102, #479, #18, #340, #384, #167, #9, #381, #345, #54, #573, #155, #533, #387, #439, #116, #529 ) ),
 .UNSPECIFIED., .F., .T., .F.,
 ( 6, 2, 6 ),
 ( 4, 1, 1, 1, 1, 1, 1, 1, 1, 1, 1, 1, 1, 1, 1, 1, 4 ),
 ( 0.000000000000000000, 0.5000000000000000000, 1.000000000000000000 ),
 ( -3.141592653589793116, -2.748893571891068976, -2.356194490192345281, -1.963495408493620475, -1.570796326794896558, -1.178097245096172418, -0.7853981633974482790, -0.3926990816987241395, 0.000000000000000000, 0.3926990816987241395, 0.7853981633974482790, 1.178097245096172418, 1.570796326794896558, 1.963495408493620475, 2.356194490192344393, 2.748893571891068976, 3.141592653589793116 ),
 .UNSPECIFIED. ) ;
#197 = CARTESIAN_POINT ( 'NONE',  ( -44.54172162277266267, 4.999999999999997335, -8.268657443439810671E-14 ) ) ;
#198 = CARTESIAN_POINT ( 'NONE',  ( 45.09657712615959468, 3.660254037844387298, 18.67961386225960752 ) ) ;
#199 = B_SPLINE_CURVE_WITH_KNOTS ( 'NONE', 3,
 ( #583, #12, #206, #110, #258, #305, #441, #483, #59, #163, #537, #35, #411, #598, #455, #402, #179, #32, #544, #29, #495, #126, #175, #21, #589, #270, #223, #458, #605, #119, #182, #25, #83, #444 ),
 .UNSPECIFIED., .F., .F.,
 ( 4, 2, 2, 2, 2, 2, 2, 2, 2, 2, 2, 2, 2, 2, 2, 2, 4 ),
 ( 0.5000000000000000000, 0.5312500000000000000, 0.5625000000000000000, 0.5937500000000000000, 0.6250000000000000000, 0.6562500000000000000, 0.6875000000000000000, 0.7187500000000000000, 0.7500000000000000000, 0.7812500000000000000, 0.8125000000000000000, 0.8437500000000000000, 0.8750000000000000000, 0.9062500000000000000, 0.9375000000000000000, 0.9687500000000000000, 1.000000000000000000 ),
 .UNSPECIFIED. ) ;
#200 = CARTESIAN_POINT ( 'NONE',  ( 43.47885459284489684, 4.999999999999999112, -2.104330865251267365E-14 ) ) ;
#201 = CARTESIAN_POINT ( 'NONE',  ( 34.51542584511141598, 3.660254037844383745, 34.51542584511150835 ) ) ;
#202 = CARTESIAN_POINT ( 'NONE',  ( 16.63863731089255182, 5.000000000000000000, -40.16922385536376083 ) ) ;
#203 = EDGE_LOOP ( 'NONE', ( #52, #310 ) ) ;
#204 = CARTESIAN_POINT ( 'NONE',  ( 0.000000000000000000, 0.000000000000000000, 0.000000000000000000 ) ) ;
#205 = CARTESIAN_POINT ( 'NONE',  ( -46.90561303173657848, 0.8971143170299714642, 19.42894106916966734 ) ) ;
#206 = CARTESIAN_POINT ( 'NONE',  ( -5.393944272138508467, 5.000000000000000000, -41.07395585894384027 ) ) ;
#207 = SURFACE_STYLE_FILL_AREA ( #399 ) ;
#208 = CARTESIAN_POINT ( 'NONE',  ( 6.505213034913026604E-15, 1.794228634059948257, 48.96410161513775705 ) ) ;
#209 = DIRECTION ( 'NONE',  ( 0.000000000000000000, -0.000000000000000000, 1.000000000000000000 ) ) ;
#210 = CARTESIAN_POINT ( 'NONE',  ( 16.63863731089266196, 5.000000000000004441, 40.16922385536373952 ) ) ;
#211 = EDGE_LOOP ( 'NONE', ( #161, #60, #522, #424 ) ) ;
#212 = CARTESIAN_POINT ( 'NONE',  ( -31.49575340518607192, 4.999999999999997335, 31.49575340518592625 ) ) ;
#213 = PRODUCT_CONTEXT ( 'NONE', #520, 'mechanical' ) ;
#214 = DIRECTION ( 'NONE',  ( 0.000000000000000000, 1.000000000000000000, 0.000000000000000000 ) ) ;
#215 = CARTESIAN_POINT ( 'NONE',  ( -5.546212436964175652, 4.999999999999999112, 42.37564434701787519 ) ) ;
#216 =( GEOMETRIC_REPRESENTATION_CONTEXT ( 3 ) GLOBAL_UNCERTAINTY_ASSIGNED_CONTEXT ( ( #294 ) ) GLOBAL_UNIT_ASSIGNED_CONTEXT ( ( #510, #466, #513 ) ) REPRESENTATION_CONTEXT ( 'NONE', 'WORKASPACE' ) );
#217 = CARTESIAN_POINT ( 'NONE',  ( -6.544103956916575093, -2.491748880947906915E-16, -50.00000000000001421 ) ) ;
#218 = CARTESIAN_POINT ( 'NONE',  ( -47.39659357910222326, -2.768867124003666005E-15, 19.63231187074988426 ) ) ;
#219 = CARTESIAN_POINT ( 'NONE',  ( -16.23189570773198653, 5.000000000000001776, 39.18726276063254232 ) ) ;
#220 = CARTESIAN_POINT ( 'NONE',  ( 5.637851296924623057E-15, 4.999999999999999112, 41.33974596215561803 ) ) ;
#221 = CARTESIAN_POINT ( 'NONE',  ( 6.476313689723178335, 0.8971143170299746838, 49.48205080756886076 ) ) ;
#222 = CARTESIAN_POINT ( 'NONE',  ( 43.47885459284489684, 4.999999999999999112, -2.104330865251267365E-14 ) ) ;
#223 = CARTESIAN_POINT ( 'NONE',  ( -25.22957814586252212, 5.000000000000000000, 32.85776729019504216 ) ) ;
#224 = CARTESIAN_POINT ( 'NONE',  ( 50.77026969548498414, 0.8971143170299749059, -2.688392650828204360E-14 ) ) ;
#225 = CARTESIAN_POINT ( 'NONE',  ( -5.410631902577365260, 4.999999999999999112, 41.33974596215563224 ) ) ;
#226 =( LENGTH_UNIT ( ) NAMED_UNIT ( * ) SI_UNIT ( .MILLI., .METRE. ) );
#227 = MECHANICAL_DESIGN_GEOMETRIC_PRESENTATION_REPRESENTATION (  '', ( #400 ), #535 ) ;
#228 = CARTESIAN_POINT ( 'NONE',  ( -46.41463248437093370, 1.794228634059947591, 19.22557026758944687 ) ) ;
#229 = CARTESIAN_POINT ( 'NONE',  ( 39.22799144417228234, 5.000000000000000000, -13.32108570850631857 ) ) ;
#230 = CARTESIAN_POINT ( 'NONE',  ( 19.63231187074987005, 8.966623416189031429E-16, 47.39659357910225168 ) ) ;
#231 = CARTESIAN_POINT ( 'NONE',  ( 37.15780879979787699, 5.000000000000001776, 18.31894872513172245 ) ) ;
#232 = CARTESIAN_POINT ( 'NONE',  ( 44.54172162277263425, 4.999999999999997335, -1.891552637252552773E-14 ) ) ;
#233 = CARTESIAN_POINT ( 'NONE',  ( 3.252606517456513302E-15, 0.000000000000000000, 50.00000000000000000 ) ) ;
#234 = CARTESIAN_POINT ( 'NONE',  ( -36.27578222652813622, 6.022751051972680116E-15, 36.27578222652797990 ) ) ;
#235 = CARTESIAN_POINT ( 'NONE',  ( -34.51542584511155098, 3.660254037844389963, 34.51542584511139466 ) ) ;
#236 = CLOSED_SHELL ( 'NONE', ( #563, #365, #276, #279 ) ) ;
#237 = CARTESIAN_POINT ( 'NONE',  ( 31.14424855716891116, 5.000000000000000000, 27.31904980970415053 ) ) ;
#238 = CARTESIAN_POINT ( 'NONE',  ( -33.17260306611793652, 4.728844493157738249, -33.17260306611798626 ) ) ;
#239 = SURFACE_SIDE_STYLE ('',( #469 ) ) ;
#240 = UNCERTAINTY_MEASURE_WITH_UNIT (LENGTH_MEASURE( 1.000000000000000082E-05 ), #514, 'distance_accuracy_value', 'NONE');
#241 = CARTESIAN_POINT ( 'NONE',  ( 5.681792971350999366, 4.999999999999999112, 43.41154273188008972 ) ) ;
#242 = DIRECTION ( 'NONE',  ( 0.000000000000000000, 0.000000000000000000, 1.000000000000000000 ) ) ;
#243 = CARTESIAN_POINT ( 'NONE',  ( -19.22557026758927634, 1.794228634059946481, -46.41463248437099054 ) ) ;
#244 = CARTESIAN_POINT ( 'NONE',  ( -33.17260306611804310, 4.728844493157733808, 33.17260306611787968 ) ) ;
#245 = ORIENTED_EDGE ( 'NONE', *, *, #489, .T. ) ;
#246 =( GEOMETRIC_REPRESENTATION_CONTEXT ( 3 ) GLOBAL_UNCERTAINTY_ASSIGNED_CONTEXT ( ( #240 ) ) GLOBAL_UNIT_ASSIGNED_CONTEXT ( ( #514, #511, #96 ) ) REPRESENTATION_CONTEXT ( 'NONE', 'WORKASPACE' ) );
#247 = CARTESIAN_POINT ( 'NONE',  ( 45.09657712615962311, 3.660254037844382857, -18.67961386225956488 ) ) ;
#248 = SURFACE_STYLE_USAGE ( .BOTH. , #490 ) ;
#249 = CARTESIAN_POINT ( 'NONE',  ( -50.23883618052116162, 1.794228634059948480, -9.743724924127227086E-14 ) ) ;
#250 = DIRECTION ( 'NONE',  ( 0.000000000000000000, -0.000000000000000000, 1.000000000000000000 ) ) ;
#251 = CARTESIAN_POINT ( 'NONE',  ( 46.90561303173666374, 0.8971143170299702430, 19.42894106916951458 ) ) ;
#252 = CARTESIAN_POINT ( 'NONE',  ( 5.637851296924623057E-15, 4.999999999999999112, 42.37564434701786098 ) ) ;
#253 = CARTESIAN_POINT ( 'NONE',  ( -8.673617379884035472E-16, 3.660254037844386854, -47.57364793621287902 ) ) ;
#254 = DIRECTION ( 'NONE',  ( 0.000000000000000000, 0.000000000000000000, 1.000000000000000000 ) ) ;
#255 = COLOUR_RGB ( '',0.7921568627450980005, 0.8196078431372548767, 0.9333333333333333481 ) ;
#256 = CARTESIAN_POINT ( 'NONE',  ( -4.655872967907776716E-15, 1.794228634059949590, -50.23883618052115452 ) ) ;
#257 = PRODUCT_RELATED_PRODUCT_CATEGORY ( 'part', '', ( #390 ) ) ;
#258 = CARTESIAN_POINT ( 'NONE',  ( -13.32108570847282536, 5.000000000000000000, -39.22799144419887796 ) ) ;
#259 = CARTESIAN_POINT ( 'NONE',  ( -1.301042606982605321E-15, 5.000000000000000000, -42.37564434701786098 ) ) ;
#260 = CARTESIAN_POINT ( 'NONE',  ( -42.41598756291720207, 5.000000000000000888, -8.162984219195585122E-14 ) ) ;
#261 = CARTESIAN_POINT ( 'NONE',  ( -16.63863731089253406, 4.999999999999999112, -40.16922385536376083 ) ) ;
#262 = CARTESIAN_POINT ( 'NONE',  ( -43.47885459284493948, 5.000000000000000888, -8.180414854122468142E-14 ) ) ;
#263 = SHAPE_DEFINITION_REPRESENTATION ( #97, #454 ) ;
#264 = CARTESIAN_POINT ( 'NONE',  ( -46.90561303173663532, 0.8971143170299769043, -19.42894106916949326 ) ) ;
#265 =( REPRESENTATION_RELATIONSHIP ('NONE','NONE', #487, #454 ) REPRESENTATION_RELATIONSHIP_WITH_TRANSFORMATION ( #69 )SHAPE_REPRESENTATION_RELATIONSHIP( ) );
#266 = CARTESIAN_POINT ( 'NONE',  ( 5.637851296924623057E-15, 4.999999999999999112, 42.37564434701786098 ) ) ;
#267 = PRESENTATION_STYLE_ASSIGNMENT (( #398 ) ) ;
#268 = CARTESIAN_POINT ( 'NONE',  ( -6.544103956916568876, -1.101048023619116315E-15, 50.00000000000001421 ) ) ;
#269 = CARTESIAN_POINT ( 'NONE',  ( -17.95288341108068764, 4.728844493157738249, 43.34209461473434288 ) ) ;
#270 = CARTESIAN_POINT ( 'NONE',  ( -27.31904980970394448, 5.000000000000000888, 31.14424855718191054 ) ) ;
#271 = CARTESIAN_POINT ( 'NONE',  ( -4.655872967907776716E-15, 1.794228634059949590, -50.23883618052115452 ) ) ;
#272 = UNCERTAINTY_MEASURE_WITH_UNIT (LENGTH_MEASURE( 1.000000000000000082E-05 ), #581, 'distance_accuracy_value', 'NONE');
#273 = CARTESIAN_POINT ( 'NONE',  ( 5.637851296924623057E-15, 4.999999999999998224, 43.41154273188011103 ) ) ;
#274 = CARTESIAN_POINT ( 'NONE',  ( 6.505213034913026604E-15, 1.794228634059948257, 48.96410161513775705 ) ) ;
#275 = CARTESIAN_POINT ( 'NONE',  ( 6.505213034913026604E-15, 1.794228634059948257, 48.96410161513775705 ) ) ;
#276 = ADVANCED_FACE ( 'NONE', ( #19 ), #445, .F. ) ;
#277 = CARTESIAN_POINT ( 'NONE',  ( 41.07395585898023427, 5.000000000000000000, -5.393944272081403923 ) ) ;
#278 = PRESENTATION_LAYER_ASSIGNMENT (  '', '', ( #115 ) ) ;
#279 = ADVANCED_FACE ( 'NONE', ( #388 ), #196, .T. ) ;
#280 = CARTESIAN_POINT ( 'NONE',  ( 19.22557026758943621, 1.794228634059943817, 46.41463248437095501 ) ) ;
#281 = B_SPLINE_CURVE_WITH_KNOTS ( 'NONE', 3,
 ( #498, #405, #366, #187, #328, #139, #610, #508, #559, #237, #422, #288, #231, #616, #470, #191, #467, #325, #277, #282, #229, #415, #92, #46, #292, #429, #554, #3, #464, #516, #461, #42, #566, #90 ),
 .UNSPECIFIED., .F., .F.,
 ( 4, 2, 2, 2, 2, 2, 2, 2, 2, 2, 2, 2, 2, 2, 2, 2, 4 ),
 ( 0.000000000000000000, 0.03124999999999999306, 0.06249999999999998612, 0.09374999999999997224, 0.1249999999999999722, 0.1562499999999999722, 0.1874999999999999445, 0.2187499999999999445, 0.2499999999999999445, 0.2812499999999999445, 0.3124999999999999445, 0.3437499999999999445, 0.3749999999999998890, 0.4062499999999999445, 0.4375000000000000000, 0.4687500000000000000, 0.5000000000000000000 ),
 .UNSPECIFIED. ) ;
#282 = CARTESIAN_POINT ( 'NONE',  ( 40.01165466763383449, 5.000000000000000000, -10.73498647819230278 ) ) ;
#283 = CARTESIAN_POINT ( 'NONE',  ( 41.15118495009507882, 5.000000000000001776, -17.04537891405293237 ) ) ;
#284 = PRODUCT_DEFINITION_CONTEXT ( 'detailed design', #124, 'design' ) ;
#285 = FILL_AREA_STYLE ('',( #145 ) ) ;
#286 = CARTESIAN_POINT ( 'NONE',  ( -17.04537891405296435, 5.000000000000000000, -41.15118495009504329 ) ) ;
#287 = CARTESIAN_POINT ( 'NONE',  ( 39.18726276063250680, 5.000000000000000888, -16.23189570773207535 ) ) ;
#288 = CARTESIAN_POINT ( 'NONE',  ( 35.88329407660273773, 5.000000000000000000, 20.70173060741353410 ) ) ;
#289 = CARTESIAN_POINT ( 'NONE',  ( -4.646595904571132769E-15, 3.660254037844389519, -48.81218334123952474 ) ) ;
#290 = AXIS2_PLACEMENT_3D ( 'NONE', #164, #214, #209 ) ;
#291 = CARTESIAN_POINT ( 'NONE',  ( 16.23189570773211798, 5.000000000000000000, -39.18726276063247838 ) ) ;
#292 = CARTESIAN_POINT ( 'NONE',  ( 31.14417959500896060, 5.000000000000000000, -27.31898084758292811 ) ) ;
#293 = CARTESIAN_POINT ( 'NONE',  ( -45.09657712615956626, 3.660254037844392183, -18.67961386225959330 ) ) ;
#294 = UNCERTAINTY_MEASURE_WITH_UNIT (LENGTH_MEASURE( 1.000000000000000082E-05 ), #510, 'distance_accuracy_value', 'NONE');
#295 = CARTESIAN_POINT ( 'NONE',  ( -45.09657712615953784, 3.660254037844389963, 18.67961386225975318 ) ) ;
#296 = CARTESIAN_POINT ( 'NONE',  ( -17.04537891405285066, 5.000000000000001776, 41.15118495009512856 ) ) ;
#297 = CARTESIAN_POINT ( 'NONE',  ( -50.77026969548501967, 0.8971143170299745728, -9.791659170176153814E-14 ) ) ;
#298 = CARTESIAN_POINT ( 'NONE',  ( 30.74419292082442468, 4.999999999999997335, 30.74419292082452415 ) ) ;
#299 = PRESENTATION_STYLE_ASSIGNMENT (( #577 ) ) ;
#300 = AXIS2_PLACEMENT_3D ( 'NONE', #410, #166, #600 ) ;
#301 = MECHANICAL_DESIGN_GEOMETRIC_PRESENTATION_REPRESENTATION (  '', ( #568 ), #37 ) ;
#302 = CARTESIAN_POINT ( 'NONE',  ( 6.544103956916583087, 1.101048023619116315E-15, 49.99999999999998579 ) ) ;
#303 =( NAMED_UNIT ( * ) PLANE_ANGLE_UNIT ( ) SI_UNIT ( $, .RADIAN. ) );
#304 = CARTESIAN_POINT ( 'NONE',  ( 19.42894106916951813, 0.8971143170299735736, -46.90561303173663532 ) ) ;
#305 = CARTESIAN_POINT ( 'NONE',  ( -18.31898604732430869, 5.000000000000001776, -37.15789890310450261 ) ) ;
#306 =( NAMED_UNIT ( * ) SI_UNIT ( $, .STERADIAN. ) SOLID_ANGLE_UNIT ( ) );
#307 = CARTESIAN_POINT ( 'NONE',  ( -48.81218334123952474, 3.660254037844384190, -9.300333148174658326E-14 ) ) ;
#308 = CARTESIAN_POINT ( 'NONE',  ( 30.74419292082449573, 5.000000000000000888, -30.74419292082451349 ) ) ;
#309 = CARTESIAN_POINT ( 'NONE',  ( 17.04537891405298566, 5.000000000000001776, -41.15118495009503619 ) ) ;
#310 = ORIENTED_EDGE ( 'NONE', *, *, #379, .T. ) ;
#311 = CARTESIAN_POINT ( 'NONE',  ( -44.54172162277266267, 4.999999999999997335, -8.268657443439810671E-14 ) ) ;
#312 = SURFACE_STYLE_FILL_AREA ( #73 ) ;
#313 = CARTESIAN_POINT ( 'NONE',  ( -50.77026969548501967, 0.8971143170299745728, -9.791659170176153814E-14 ) ) ;
#314 = CARTESIAN_POINT ( 'NONE',  ( 30.74419292082442468, 4.999999999999997335, 30.74419292082452415 ) ) ;
#315 = CARTESIAN_POINT ( 'NONE',  ( 3.252606517456513302E-15, 0.000000000000000000, 50.00000000000000000 ) ) ;
#316 = CARTESIAN_POINT ( 'NONE',  ( 31.49575340518591915, 4.999999999999995559, 31.49575340518603284 ) ) ;
#317 = SURFACE_SIDE_STYLE ('',( #312 ) ) ;
#318 = CARTESIAN_POINT ( 'NONE',  ( 5.637851296924623057E-15, 4.999999999999998224, 43.41154273188011103 ) ) ;
#319 = CARTESIAN_POINT ( 'NONE',  ( 35.90000198434730549, 0.8971143170299669123, -35.90000198434733392 ) ) ;
#320 = CARTESIAN_POINT ( 'NONE',  ( 6.071532165918824830E-15, 4.728844493157734696, 45.72279497512698754 ) ) ;
#321 = CARTESIAN_POINT ( 'NONE',  ( 50.23883618052112610, 1.794228634059950478, -2.481029672503378835E-14 ) ) ;
#322 = CARTESIAN_POINT ( 'NONE',  ( 36.27578222652805806, -8.919119712755384367E-15, -36.27578222652808648 ) ) ;
#323 = CARTESIAN_POINT ( 'NONE',  ( 5.637851296924623057E-15, 4.999999999999999112, 42.37564434701786098 ) ) ;
#324 = CARTESIAN_POINT ( 'NONE',  ( 19.63231187074973505, -5.322809929278982336E-16, -47.39659357910226589 ) ) ;
#325 = CARTESIAN_POINT ( 'NONE',  ( 41.33979472574252156, 5.000000000000000000, -2.704823973845882801 ) ) ;
#326 = CARTESIAN_POINT ( 'NONE',  ( -43.34209461473421499, 4.728844493157737361, 17.95288341108097896 ) ) ;
#327 =( LENGTH_UNIT ( ) NAMED_UNIT ( * ) SI_UNIT ( .MILLI., .METRE. ) );
#328 = CARTESIAN_POINT ( 'NONE',  ( 13.32108570846825835, 5.000000000000000000, 39.22799144418495132 ) ) ;
#329 = CARTESIAN_POINT ( 'NONE',  ( -17.95288341108081553, 4.728844493157740914, -43.34209461473427183 ) ) ;
#330 = CARTESIAN_POINT ( 'NONE',  ( 5.410631902577376806, 5.000000000000000000, 41.33974596215560382 ) ) ;
#331 = CARTESIAN_POINT ( 'NONE',  ( 31.49575340518599731, 4.999999999999999112, -31.49575340518601863 ) ) ;
#332 = PRESENTATION_LAYER_ASSIGNMENT (  '', '', ( #602 ) ) ;
#333 = CARTESIAN_POINT ( 'NONE',  ( -51.30170321044887771, -1.514529838884383647E-16, -1.004440337661594814E-13 ) ) ;
#334 = CARTESIAN_POINT ( 'NONE',  ( -17.95288341108068764, 4.728844493157738249, 43.34209461473434288 ) ) ;
#335 = B_SPLINE_CURVE_WITH_KNOTS ( 'NONE', 5,
 ( #527, #436, #486, #253, #530, #56, #259, #113 ),
 .UNSPECIFIED., .F., .F.,
 ( 6, 2, 6 ),
 ( 0.000000000000000000, 0.5000000000000000000, 1.000000000000000000 ),
 .UNSPECIFIED. ) ;
#336 = CARTESIAN_POINT ( 'NONE',  ( 50.77026969548498414, 0.8971143170299749059, -2.688392650828204360E-14 ) ) ;
#337 = DIRECTION ( 'NONE',  ( 0.000000000000000000, 1.000000000000000000, 0.000000000000000000 ) ) ;
#338 = CARTESIAN_POINT ( 'NONE',  ( -46.41463248437093370, 1.794228634059947591, 19.22557026758944687 ) ) ;
#339 = CARTESIAN_POINT ( 'NONE',  ( 6.476313689723178335, 0.8971143170299746838, 49.48205080756886076 ) ) ;
#340 = CARTESIAN_POINT ( 'NONE',  ( -42.41598756291720207, 5.000000000000000888, -8.162984219195585122E-14 ) ) ;
#341 = VERTEX_POINT ( 'NONE', #391 ) ;
#342 = CARTESIAN_POINT ( 'NONE',  ( 35.52422174216656714, 1.794228634059942040, -35.52422174216658846 ) ) ;
#343 = CARTESIAN_POINT ( 'NONE',  ( 40.16922385536378926, 5.000000000000001776, 16.63863731089254472 ) ) ;
#344 = CARTESIAN_POINT ( 'NONE',  ( -4.646595904571132769E-15, 3.660254037844389519, -48.81218334123952474 ) ) ;
#345 = CARTESIAN_POINT ( 'NONE',  ( 16.23189570773211798, 5.000000000000000000, -39.18726276063247838 ) ) ;
#346 = CARTESIAN_POINT ( 'NONE',  ( 6.505213034913026604E-16, 4.999999999999999112, -41.33974596215561803 ) ) ;
#347 = PRESENTATION_LAYER_ASSIGNMENT (  '', '', ( #367 ) ) ;
#348 = CARTESIAN_POINT ( 'NONE',  ( -43.34209461473421499, 4.728844493157737361, 17.95288341108097896 ) ) ;
#349 = CARTESIAN_POINT ( 'NONE',  ( -47.39659357910222326, -2.768867124003666005E-15, 19.63231187074988426 ) ) ;
#350 = CARTESIAN_POINT ( 'NONE',  ( 47.39659357910230142, -2.553783128961254075E-15, 19.63231187074973150 ) ) ;
#351 = CARTESIAN_POINT ( 'NONE',  ( -40.16922385536376083, 5.000000000000000000, -16.63863731089253406 ) ) ;
#352 = CARTESIAN_POINT ( 'NONE',  ( -6.544103956916568876, -1.101048023619116315E-15, 50.00000000000001421 ) ) ;
#353 = CARTESIAN_POINT ( 'NONE',  ( 6.544103956916583087, 1.101048023619116315E-15, 49.99999999999998579 ) ) ;
#354 = CARTESIAN_POINT ( 'NONE',  ( 5.637851296924623057E-15, 4.999999999999999112, 42.37564434701786098 ) ) ;
#355 = CARTESIAN_POINT ( 'NONE',  ( 19.63231187074973505, -5.322809929278982336E-16, -47.39659357910226589 ) ) ;
#356 = CARTESIAN_POINT ( 'NONE',  ( 41.15118495009507171, 5.000000000000005329, 17.04537891405297145 ) ) ;
#357 = PRODUCT_CONTEXT ( 'NONE', #408, 'mechanical' ) ;
#358 = CARTESIAN_POINT ( 'NONE',  ( -19.42894106916948971, 0.8971143170299732406, -46.90561303173664953 ) ) ;
#359 = PRODUCT_RELATED_PRODUCT_CATEGORY ( 'part', '', ( #565 ) ) ;
#360 = CARTESIAN_POINT ( 'NONE',  ( -36.27578222652803674, -2.938922398480405405E-15, -36.27578222652811490 ) ) ;
#361 = CARTESIAN_POINT ( 'NONE',  ( -51.30170321044887771, -1.514529838884383647E-16, -1.004440337661594814E-13 ) ) ;
#362 = CARTESIAN_POINT ( 'NONE',  ( 5.637851296924623057E-15, 4.999999999999999112, 41.33974596215561803 ) ) ;
#363 = CARTESIAN_POINT ( 'NONE',  ( 19.63231187074973505, -5.322809929278982336E-16, -47.39659357910226589 ) ) ;
#364 = CARTESIAN_POINT ( 'NONE',  ( -46.91314515532337026, 4.728844493157732920, -9.252398902125732861E-14 ) ) ;
#365 = ADVANCED_FACE ( 'NONE', ( #576 ), #485, .T. ) ;
#366 = CARTESIAN_POINT ( 'NONE',  ( 5.393944272259589390, 5.000000000000000000, 41.07395585890954237 ) ) ;
#367 = STYLED_ITEM ( 'NONE', ( #38 ), #64 ) ;
#368 = COLOUR_RGB ( '',0.7921568627450980005, 0.8196078431372548767, 0.9333333333333333481 ) ;
#369 = CARTESIAN_POINT ( 'NONE',  ( -5.984294470360268292, 4.728844493157734696, 45.72279497512700175 ) ) ;
#370 = CARTESIAN_POINT ( 'NONE',  ( 36.27578222652805806, -8.919119712755384367E-15, -36.27578222652808648 ) ) ;
#371 = CARTESIAN_POINT ( 'NONE',  ( -47.39659357910222326, -2.768867124003666005E-15, 19.63231187074988426 ) ) ;
#372 = CARTESIAN_POINT ( 'NONE',  ( 34.51542584511141598, 3.660254037844383745, 34.51542584511150835 ) ) ;
#373 = FILL_AREA_STYLE ('',( #557 ) ) ;
#374 = FACE_OUTER_BOUND ( 'NONE', #211, .T. ) ;
#375 = CARTESIAN_POINT ( 'NONE',  ( -31.49575340518596178, 4.999999999999999112, -31.49575340518603284 ) ) ;
#376 = PRESENTATION_STYLE_ASSIGNMENT (( #426 ) ) ;
#377 = CARTESIAN_POINT ( 'NONE',  ( 5.637851296924623057E-15, 4.999999999999998224, 43.41154273188011103 ) ) ;
#378 =( GEOMETRIC_REPRESENTATION_CONTEXT ( 3 ) GLOBAL_UNCERTAINTY_ASSIGNED_CONTEXT ( ( #542 ) ) GLOBAL_UNIT_ASSIGNED_CONTEXT ( ( #226, #128, #169 ) ) REPRESENTATION_CONTEXT ( 'NONE', 'WORKASPACE' ) );
#379 = EDGE_CURVE ( 'NONE', #7, #147, #199, .T. ) ;
#380 = CARTESIAN_POINT ( 'NONE',  ( -35.52422174216653872, 1.794228634059943372, -35.52422174216660977 ) ) ;
#381 = CARTESIAN_POINT ( 'NONE',  ( -5.274329671905251254E-15, 5.000000000000000000, -42.41598756291719496 ) ) ;
#382 = B_SPLINE_CURVE_WITH_KNOTS ( 'NONE', 3,
 ( #233, #86, #133, #420, #463, #612, #82, #370, #324, #138, #561 ),
 .UNSPECIFIED., .F., .F.,
 ( 4, 1, 1, 1, 1, 1, 1, 1, 4 ),
 ( 0.000000000000000000, 0.06250000000000000000, 0.1250000000000000833, 0.1875000000000000278, 0.2500000000000000000, 0.3125000000000000000, 0.3750000000000000000, 0.4375000000000000000, 0.5000000000000000000 ),
 .UNSPECIFIED. ) ;
#383 = CARTESIAN_POINT ( 'NONE',  ( 18.67961386225973186, 3.660254037844385966, 45.09657712615955205 ) ) ;
#384 = CARTESIAN_POINT ( 'NONE',  ( -39.18726276063247127, 5.000000000000000000, -16.23189570773210022 ) ) ;
#385 = SURFACE_SIDE_STYLE ('',( #103 ) ) ;
#386 = CARTESIAN_POINT ( 'NONE',  ( -6.226537954086528437, 3.660254037844386410, 47.57364793621287191 ) ) ;
#387 = CARTESIAN_POINT ( 'NONE',  ( 29.99263243646292310, 4.999999999999997335, 29.99263243646301902 ) ) ;
#388 = FACE_OUTER_BOUND ( 'NONE', #48, .T. ) ;
#389 = CARTESIAN_POINT ( 'NONE',  ( -19.22557026758914489, 1.794228634059944261, 46.41463248437108291 ) ) ;
#390 = PRODUCT ( 'EyeCollision', 'EyeCollision', '', ( #357 ) ) ;
#391 = CARTESIAN_POINT ( 'NONE',  ( 2.844776563371282156E-15, 6.018531076210112041E-32, -50.00000000000000000 ) ) ;
#392 =( NAMED_UNIT ( * ) SI_UNIT ( $, .STERADIAN. ) SOLID_ANGLE_UNIT ( ) );
#393 = CARTESIAN_POINT ( 'NONE',  ( -18.67961386225960041, 3.660254037844382857, -45.09657712615957337 ) ) ;
#394 = CARTESIAN_POINT ( 'NONE',  ( 5.546212436964187198, 5.000000000000000000, 42.37564434701783966 ) ) ;
#395 = SURFACE_SIDE_STYLE ('',( #207 ) ) ;
#396 = CARTESIAN_POINT ( 'NONE',  ( -33.17260306611804310, 4.728844493157733808, 33.17260306611787968 ) ) ;
#397 = SHAPE_DEFINITION_REPRESENTATION ( #437, #487 ) ;
#398 = SURFACE_STYLE_USAGE ( .BOTH. , #317 ) ;
#399 = FILL_AREA_STYLE ('',( #13 ) ) ;
#400 = STYLED_ITEM ( 'NONE', ( #587 ), #276 ) ;
#401 = CARTESIAN_POINT ( 'NONE',  ( -17.04537891405285066, 5.000000000000001776, 41.15118495009512856 ) ) ;
#402 = CARTESIAN_POINT ( 'NONE',  ( -41.07405028120065538, 4.999999999999999112, -5.393963053952950837 ) ) ;
#403 = CARTESIAN_POINT ( 'NONE',  ( 51.30170321044884929, -6.074885368514129641E-16, -2.686587473405564395E-14 ) ) ;
#404 = CARTESIAN_POINT ( 'NONE',  ( -29.99263243646307231, 4.999999999999997335, 29.99263243646291954 ) ) ;
#405 = CARTESIAN_POINT ( 'NONE',  ( 2.705069147427122012, 5.000000000000000000, 41.33974596215562514 ) ) ;
#406 = CARTESIAN_POINT ( 'NONE',  ( -50.23883618052116162, 1.794228634059948480, -9.743724924127227086E-14 ) ) ;
#407 = MANIFOLD_SOLID_BREP ( 'Stock-GooglyEyes-1', #236 ) ;
#408 = APPLICATION_CONTEXT ( 'automotive_design' ) ;
#409 = CARTESIAN_POINT ( 'NONE',  ( -39.18726276063243574, 5.000000000000000888, 16.23189570773224233 ) ) ;
#410 = CARTESIAN_POINT ( 'NONE',  ( 0.000000000000000000, 0.000000000000000000, 0.000000000000000000 ) ) ;
#411 = CARTESIAN_POINT ( 'NONE',  ( -37.15780879977436513, 5.000000000000000000, -18.31894872518209283 ) ) ;
#412 = CARTESIAN_POINT ( 'NONE',  ( 43.34209461473430736, 4.728844493157740025, -17.95288341108077645 ) ) ;
#413 = CARTESIAN_POINT ( 'NONE',  ( -19.63231187074971018, -2.027330321496642777E-15, -47.39659357910227300 ) ) ;
#414 = CARTESIAN_POINT ( 'NONE',  ( 46.90561303173667795, 0.8971143170299763492, -19.42894106916945418 ) ) ;
#415 = CARTESIAN_POINT ( 'NONE',  ( 37.15789890313114086, 4.999999999999999112, -18.31898604729079238 ) ) ;
#416 = CARTESIAN_POINT ( 'NONE',  ( -47.39659357910227300, 3.374679059557421831E-15, -19.63231187074970308 ) ) ;
#417 = DIRECTION ( 'NONE',  ( 1.000000000000000000, 0.000000000000000000, 0.000000000000000000 ) ) ;
#418 = CARTESIAN_POINT ( 'NONE',  ( 17.95288341108084040, 4.728844493157736473, -43.34209461473427183 ) ) ;
#419 = PRODUCT_DEFINITION_CONTEXT ( 'detailed design', #160, 'design' ) ;
#420 = CARTESIAN_POINT ( 'NONE',  ( 36.27578222652797990, 4.142801968355864018E-16, 36.27578222652808648 ) ) ;
#421 = MECHANICAL_DESIGN_GEOMETRIC_PRESENTATION_REPRESENTATION (  '', ( #104 ), #137 ) ;
#422 = CARTESIAN_POINT ( 'NONE',  ( 32.85776729022410336, 5.000000000000000000, 25.22957814579981672 ) ) ;
#423 = CARTESIAN_POINT ( 'NONE',  ( 5.984294470360280727, 4.728844493157735585, 45.72279497512697333 ) ) ;
#424 = ORIENTED_EDGE ( 'NONE', *, *, #489, .F. ) ;
#425 =( NAMED_UNIT ( * ) SI_UNIT ( $, .STERADIAN. ) SOLID_ANGLE_UNIT ( ) );
#426 = SURFACE_STYLE_USAGE ( .BOTH. , #87 ) ;
#427 = CARTESIAN_POINT ( 'NONE',  ( -34.51542584511146572, 3.660254037844382413, -34.51542584511151546 ) ) ;
#428 = SURFACE_STYLE_USAGE ( .BOTH. , #239 ) ;
#429 = CARTESIAN_POINT ( 'NONE',  ( 27.31904980972991126, 5.000000000000000000, -31.14424855715595086 ) ) ;
#430 = CARTESIAN_POINT ( 'NONE',  ( 5.637851296924623057E-15, 4.999999999999998224, 43.41154273188011103 ) ) ;
#431 = CARTESIAN_POINT ( 'NONE',  ( -6.302019768457031299E-15, 0.8971143170299750169, -50.77026969548499835 ) ) ;
#432 = CARTESIAN_POINT ( 'NONE',  ( -41.15118495009505040, 5.000000000000002665, -17.04537891405296790 ) ) ;
#433 = PRODUCT_DEFINITION_SHAPE ( 'NONE', 'NONE',  #617 ) ;
#434 = CARTESIAN_POINT ( 'NONE',  ( 19.22557026758929410, 1.794228634059947591, -46.41463248437098343 ) ) ;
#435 = CARTESIAN_POINT ( 'NONE',  ( 35.90000198434722734, 0.8971143170299780145, 35.90000198434733392 ) ) ;
#436 = CARTESIAN_POINT ( 'NONE',  ( 0.000000000000000000, 0.8971143170299744618, -49.48205080756888208 ) ) ;
#437 = PRODUCT_DEFINITION_SHAPE ( 'NONE', 'NONE',  #57 ) ;
#438 = CARTESIAN_POINT ( 'NONE',  ( 47.39659357910230142, -2.553783128961254075E-15, 19.63231187074973150 ) ) ;
#439 = CARTESIAN_POINT ( 'NONE',  ( 16.23189570773223878, 5.000000000000004441, 39.18726276063247127 ) ) ;
#440 = CARTESIAN_POINT ( 'NONE',  ( 6.071532165918824830E-15, 3.660254037844386410, 47.57364793621285060 ) ) ;
#441 = CARTESIAN_POINT ( 'NONE',  ( -20.70167712151592454, 5.000000000000000000, -35.88321402926528236 ) ) ;
#442 = ORIENTED_EDGE ( 'NONE', *, *, #195, .F. ) ;
#443 = CARTESIAN_POINT ( 'NONE',  ( 41.15118495009507882, 5.000000000000001776, -17.04537891405293237 ) ) ;
#444 = CARTESIAN_POINT ( 'NONE',  ( 5.637851296924623057E-15, 4.999999999999999112, 41.33974596215561803 ) ) ;
#445 = PLANE ( 'NONE',  #290 ) ;
#446 = CARTESIAN_POINT ( 'NONE',  ( -16.63863731089242037, 5.000000000000001776, 40.16922385536384610 ) ) ;
#447 = PRODUCT_DEFINITION_FORMATION_WITH_SPECIFIED_SOURCE ( 'ANY', '', #565, .NOT_KNOWN. ) ;
#448 = MECHANICAL_DESIGN_GEOMETRIC_PRESENTATION_REPRESENTATION (  '', ( #602 ), #378 ) ;
#449 = CARTESIAN_POINT ( 'NONE',  ( 6.071532165918824830E-15, 4.728844493157734696, 45.72279497512698754 ) ) ;
#450 = CARTESIAN_POINT ( 'NONE',  ( 5.637851296924623057E-15, 4.999999999999999112, 42.37564434701786098 ) ) ;
#451 = CARTESIAN_POINT ( 'NONE',  ( -6.476313689723163236, 0.8971143170299739067, 49.48205080756888918 ) ) ;
#452 = CARTESIAN_POINT ( 'NONE',  ( 5.681792971350999366, 4.999999999999999112, 43.41154273188008972 ) ) ;
#453 = EDGE_CURVE ( 'NONE', #341, #107, #108, .T. ) ;
#454 = SHAPE_REPRESENTATION ( 'EyeCollision', ( #556 ), #216 ) ;
#455 = CARTESIAN_POINT ( 'NONE',  ( -40.01156024541343470, 4.999999999999999112, -10.73496769632084025 ) ) ;
#456 = CARTESIAN_POINT ( 'NONE',  ( 19.22557026758929410, 1.794228634059947591, -46.41463248437098343 ) ) ;
#457 = CARTESIAN_POINT ( 'NONE',  ( -41.15118495009505040, 5.000000000000002665, -17.04537891405296790 ) ) ;
#458 = CARTESIAN_POINT ( 'NONE',  ( -20.70173060735075055, 5.000000000000000000, 35.88329407663184867 ) ) ;
#459 = CARTESIAN_POINT ( 'NONE',  ( -35.90000198434739787, 0.8971143170299794578, 35.90000198434722023 ) ) ;
#460 =( GEOMETRIC_REPRESENTATION_CONTEXT ( 3 ) GLOBAL_UNCERTAINTY_ASSIGNED_CONTEXT ( ( #23 ) ) GLOBAL_UNIT_ASSIGNED_CONTEXT ( ( #477, #185, #425 ) ) REPRESENTATION_CONTEXT ( 'NONE', 'WORKASPACE' ) );
#461 = CARTESIAN_POINT ( 'NONE',  ( 10.73496769638175685, 5.000000000000000000, -40.01156024540068046 ) ) ;
#462 = CARTESIAN_POINT ( 'NONE',  ( -19.63231187074958228, -5.709625800095791791E-15, 47.39659357910236537 ) ) ;
#463 = CARTESIAN_POINT ( 'NONE',  ( 47.39659357910230142, -2.553783128961254075E-15, 19.63231187074973150 ) ) ;
#464 = CARTESIAN_POINT ( 'NONE',  ( 18.31894872516681971, 5.000000000000000888, -37.15780879977805284 ) ) ;
#465 = CARTESIAN_POINT ( 'NONE',  ( 17.04537891405311001, 5.000000000000006217, 41.15118495009501487 ) ) ;
#466 =( NAMED_UNIT ( * ) PLANE_ANGLE_UNIT ( ) SI_UNIT ( $, .RADIAN. ) );
#467 = CARTESIAN_POINT ( 'NONE',  ( 41.33969719856871450, 5.000000000000000000, 2.704823973845869034 ) ) ;
#468 = CARTESIAN_POINT ( 'NONE',  ( 6.226537954086540871, 3.660254037844386410, 47.57364793621284349 ) ) ;
#469 = SURFACE_STYLE_FILL_AREA ( #373 ) ;
#470 = CARTESIAN_POINT ( 'NONE',  ( 40.01156024540068046, 5.000000000000000000, 10.73496769631718273 ) ) ;
#471 = CARTESIAN_POINT ( 'NONE',  ( -6.226537954086528437, 3.660254037844386410, 47.57364793621287191 ) ) ;
#472 = CARTESIAN_POINT ( 'NONE',  ( 42.41598756291717365, 4.999999999999999112, -1.898773147464973504E-14 ) ) ;
#473 = CARTESIAN_POINT ( 'NONE',  ( -6.544103956916568876, -1.101048023619116315E-15, 50.00000000000001421 ) ) ;
#474 = CARTESIAN_POINT ( 'NONE',  ( 33.17260306611790099, 4.728844493157731144, 33.17260306611798626 ) ) ;
#475 = CARTESIAN_POINT ( 'NONE',  ( 46.90561303173667795, 0.8971143170299763492, -19.42894106916945418 ) ) ;
#476 = CARTESIAN_POINT ( 'NONE',  ( -18.67961386225960041, 3.660254037844382857, -45.09657712615957337 ) ) ;
#477 =( LENGTH_UNIT ( ) NAMED_UNIT ( * ) SI_UNIT ( .MILLI., .METRE. ) );
#478 = CARTESIAN_POINT ( 'NONE',  ( 18.67961386225961817, 3.660254037844379749, -45.09657712615958758 ) ) ;
#479 = CARTESIAN_POINT ( 'NONE',  ( -29.99263243646307231, 4.999999999999997335, 29.99263243646291954 ) ) ;
#480 = CARTESIAN_POINT ( 'NONE',  ( -18.67961386225946896, 3.660254037844386854, 45.09657712615967284 ) ) ;
#481 = CARTESIAN_POINT ( 'NONE',  ( 40.16922385536379636, 5.000000000000000888, -16.63863731089250209 ) ) ;
#482 = CARTESIAN_POINT ( 'NONE',  ( 35.90000198434730549, 0.8971143170299669123, -35.90000198434733392 ) ) ;
#483 = CARTESIAN_POINT ( 'NONE',  ( -25.22963163169736234, 5.000000000000000000, -32.85784733756165110 ) ) ;
#484 = CARTESIAN_POINT ( 'NONE',  ( -19.42894106916936181, 0.8971143170299693548, 46.90561303173672769 ) ) ;
#485 = PLANE ( 'NONE',  #558 ) ;
#486 = CARTESIAN_POINT ( 'NONE',  ( -8.673617379884035472E-16, 1.794228634059948702, -48.96410161513777126 ) ) ;
#487 = SHAPE_REPRESENTATION ( 'base_collision', ( #300, #590 ), #460 ) ;
#488 = CARTESIAN_POINT ( 'NONE',  ( 46.91314515532334184, 4.728844493157732920, -2.365331154773588153E-14 ) ) ;
#489 = EDGE_CURVE ( 'NONE', #107, #147, #40, .T. ) ;
#490 = SURFACE_SIDE_STYLE ('',( #16 ) ) ;
#491 =( LENGTH_UNIT ( ) NAMED_UNIT ( * ) SI_UNIT ( .MILLI., .METRE. ) );
#492 = CARTESIAN_POINT ( 'NONE',  ( 30.74419292082449573, 5.000000000000000888, -30.74419292082451349 ) ) ;
#493 = CARTESIAN_POINT ( 'NONE',  ( 6.505213034913026604E-15, 1.794228634059948257, 48.96410161513775705 ) ) ;
#494 = CARTESIAN_POINT ( 'NONE',  ( 16.63863731089266196, 5.000000000000004441, 40.16922385536373952 ) ) ;
#495 = CARTESIAN_POINT ( 'NONE',  ( -39.22799144405612992, 5.000000000000000000, 13.32108570872514264 ) ) ;
#496 = CARTESIAN_POINT ( 'NONE',  ( -19.63231187074971018, -2.027330321496642777E-15, -47.39659357910227300 ) ) ;
#497 = CARTESIAN_POINT ( 'NONE',  ( -16.63863731089253406, 4.999999999999999112, -40.16922385536376083 ) ) ;
#498 = CARTESIAN_POINT ( 'NONE',  ( 5.637851296924623057E-15, 4.999999999999999112, 41.33974596215561803 ) ) ;
#499 = CARTESIAN_POINT ( 'NONE',  ( -6.408523422529757596, 1.794228634059948257, 48.96410161513777126 ) ) ;
#500 = UNCERTAINTY_MEASURE_WITH_UNIT (LENGTH_MEASURE( 1.000000000000000082E-05 ), #491, 'distance_accuracy_value', 'NONE');
#501 = CARTESIAN_POINT ( 'NONE',  ( 5.637851296924623057E-15, 4.999999999999999112, 41.33974596215561803 ) ) ;
#502 = CARTESIAN_POINT ( 'NONE',  ( 2.844776563371282156E-15, 6.018531076210112041E-32, -50.00000000000000000 ) ) ;
#503 = CARTESIAN_POINT ( 'NONE',  ( 19.42894106916965313, 0.8971143170299716862, 46.90561303173662822 ) ) ;
#504 = CARTESIAN_POINT ( 'NONE',  ( 5.637851296924623057E-15, 4.999999999999998224, 43.41154273188011103 ) ) ;
#505 = CARTESIAN_POINT ( 'NONE',  ( 46.41463248437101186, 1.794228634059942706, 19.22557026758929055 ) ) ;
#506 = CARTESIAN_POINT ( 'NONE',  ( 47.39659357910230852, 4.983737276366910270E-15, -19.63231187074967110 ) ) ;
#507 = CARTESIAN_POINT ( 'NONE',  ( -40.16922385536371110, 5.000000000000000888, 16.63863731089267262 ) ) ;
#508 = CARTESIAN_POINT ( 'NONE',  ( 25.22963163180637380, 5.000000000000000000, 32.85784733747178876 ) ) ;
#509 = CARTESIAN_POINT ( 'NONE',  ( 6.071532165918824830E-15, 4.728844493157734696, 45.72279497512698754 ) ) ;
#510 =( LENGTH_UNIT ( ) NAMED_UNIT ( * ) SI_UNIT ( .MILLI., .METRE. ) );
#511 =( NAMED_UNIT ( * ) PLANE_ANGLE_UNIT ( ) SI_UNIT ( $, .RADIAN. ) );
#512 = CARTESIAN_POINT ( 'NONE',  ( 33.17260306611794363, 4.728844493157735585, -33.17260306611797205 ) ) ;
#513 =( NAMED_UNIT ( * ) SI_UNIT ( $, .STERADIAN. ) SOLID_ANGLE_UNIT ( ) );
#514 =( LENGTH_UNIT ( ) NAMED_UNIT ( * ) SI_UNIT ( .MILLI., .METRE. ) );
#515 = CARTESIAN_POINT ( 'NONE',  ( 6.071532165918824830E-15, 3.660254037844386410, 47.57364793621285060 ) ) ;
#516 = CARTESIAN_POINT ( 'NONE',  ( 13.32112303063034275, 5.000000000000000000, -39.22808154752532772 ) ) ;
#517 = CARTESIAN_POINT ( 'NONE',  ( 18.67961386225973186, 3.660254037844385966, 45.09657712615955205 ) ) ;
#518 = ORIENTED_EDGE ( 'NONE', *, *, #607, .F. ) ;
#519 = CARTESIAN_POINT ( 'NONE',  ( -45.09657712615956626, 3.660254037844392183, -18.67961386225959330 ) ) ;
#520 = APPLICATION_CONTEXT ( 'automotive_design' ) ;
#521 = CARTESIAN_POINT ( 'NONE',  ( 5.637851296924623057E-15, 4.999999999999999112, 41.33974596215561803 ) ) ;
#522 = ORIENTED_EDGE ( 'NONE', *, *, #553, .F. ) ;
#523 = CARTESIAN_POINT ( 'NONE',  ( -46.41463248437098343, 1.794228634059950478, -19.22557026758927634 ) ) ;
#524 = CARTESIAN_POINT ( 'NONE',  ( 0.000000000000000000, 5.000000000000000000, 0.000000000000000000 ) ) ;
#525 =( NAMED_UNIT ( * ) PLANE_ANGLE_UNIT ( ) SI_UNIT ( $, .RADIAN. ) );
#526 = CARTESIAN_POINT ( 'NONE',  ( 19.22557026758943621, 1.794228634059943817, 46.41463248437095501 ) ) ;
#527 = CARTESIAN_POINT ( 'NONE',  ( 2.844776563371282156E-15, 6.018531076210112041E-32, -50.00000000000000000 ) ) ;
#528 = CARTESIAN_POINT ( 'NONE',  ( 46.41463248437101186, 1.794228634059942706, 19.22557026758929055 ) ) ;
#529 = CARTESIAN_POINT ( 'NONE',  ( 5.637851296924623057E-15, 4.999999999999999112, 41.33974596215561803 ) ) ;
#530 = CARTESIAN_POINT ( 'NONE',  ( -4.336808689942017736E-16, 4.728844493157736473, -45.72279497512698754 ) ) ;
#531 = CARTESIAN_POINT ( 'NONE',  ( 33.17260306611794363, 4.728844493157735585, -33.17260306611797205 ) ) ;
#532 = APPLICATION_PROTOCOL_DEFINITION ( 'draft international standard', 'automotive_design', 1998, #160 ) ;
#533 = CARTESIAN_POINT ( 'NONE',  ( 39.18726276063249969, 5.000000000000001776, 16.23189570773211088 ) ) ;
#534 = CARTESIAN_POINT ( 'NONE',  ( 5.637851296924623057E-15, 4.999999999999999112, 41.33974596215561803 ) ) ;
#535 =( GEOMETRIC_REPRESENTATION_CONTEXT ( 3 ) GLOBAL_UNCERTAINTY_ASSIGNED_CONTEXT ( ( #500 ) ) GLOBAL_UNIT_ASSIGNED_CONTEXT ( ( #491, #591, #392 ) ) REPRESENTATION_CONTEXT ( 'NONE', 'WORKASPACE' ) );
#536 = CARTESIAN_POINT ( 'NONE',  ( -43.34209461473426472, 4.728844493157745354, -17.95288341108081198 ) ) ;
#537 = CARTESIAN_POINT ( 'NONE',  ( -32.85776729023119458, 5.000000000000000000, -25.22957814578914082 ) ) ;
#538 = CARTESIAN_POINT ( 'NONE',  ( -35.90000198434728418, 0.8971143170299705760, -35.90000198434735523 ) ) ;
#539 = CARTESIAN_POINT ( 'NONE',  ( -30.74419292082446731, 5.000000000000000000, -30.74419292082453126 ) ) ;
#540 = CARTESIAN_POINT ( 'NONE',  ( 7.372574772901430151E-15, 0.8971143170299743508, 49.48205080756887497 ) ) ;
#541 = CARTESIAN_POINT ( 'NONE',  ( -6.302019768457031299E-15, 0.8971143170299750169, -50.77026969548499835 ) ) ;
#542 = UNCERTAINTY_MEASURE_WITH_UNIT (LENGTH_MEASURE( 1.000000000000000082E-05 ), #226, 'distance_accuracy_value', 'NONE');
#543 = CARTESIAN_POINT ( 'NONE',  ( -30.74419292082457744, 4.999999999999997335, 30.74419292082442823 ) ) ;
#544 = CARTESIAN_POINT ( 'NONE',  ( -41.07395585890479595, 5.000000000000000000, 5.393944272325185807 ) ) ;
#545 = CARTESIAN_POINT ( 'NONE',  ( 6.938893903907228378E-15, 0.000000000000000000, 50.00000000000000000 ) ) ;
#546 = CARTESIAN_POINT ( 'NONE',  ( 17.04537891405311001, 5.000000000000006217, 41.15118495009501487 ) ) ;
#547 = CONTEXT_DEPENDENT_SHAPE_REPRESENTATION ( #265, #433 ) ;
#548 = FILL_AREA_STYLE_COLOUR ( '', #76 ) ;
#549 = CARTESIAN_POINT ( 'NONE',  ( -36.27578222652803674, -2.938922398480405405E-15, -36.27578222652811490 ) ) ;
#550 = CARTESIAN_POINT ( 'NONE',  ( -36.27578222652813622, 6.022751051972680116E-15, 36.27578222652797990 ) ) ;
#551 = CARTESIAN_POINT ( 'NONE',  ( -46.41463248437098343, 1.794228634059950478, -19.22557026758927634 ) ) ;
#552 = CARTESIAN_POINT ( 'NONE',  ( 16.23189570773223878, 5.000000000000004441, 39.18726276063247127 ) ) ;
#553 = EDGE_CURVE ( 'NONE', #147, #7, #281, .T. ) ;
#554 = CARTESIAN_POINT ( 'NONE',  ( 25.22957814579549307, 5.000000000000000000, -32.85776729023122300 ) ) ;
#555 = CARTESIAN_POINT ( 'NONE',  ( 41.15118495009507171, 5.000000000000005329, 17.04537891405297145 ) ) ;
#556 = AXIS2_PLACEMENT_3D ( 'NONE', #190, #41, #417 ) ;
#557 = FILL_AREA_STYLE_COLOUR ( '', #136 ) ;
#558 = AXIS2_PLACEMENT_3D ( 'NONE', #524, #337, #250 ) ;
#559 = CARTESIAN_POINT ( 'NONE',  ( 27.31898084756988609, 5.000000000000000000, 31.14417959503475686 ) ) ;
#560 = CARTESIAN_POINT ( 'NONE',  ( -30.74419292082446731, 5.000000000000000000, -30.74419292082453126 ) ) ;
#561 = CARTESIAN_POINT ( 'NONE',  ( 2.844776563371282156E-15, 6.018531076210112041E-32, -50.00000000000000000 ) ) ;
#562 = CARTESIAN_POINT ( 'NONE',  ( -47.39659357910227300, 3.374679059557421831E-15, -19.63231187074970308 ) ) ;
#563 = ADVANCED_FACE ( 'NONE', ( #374 ), #152, .T. ) ;
#564 = CARTESIAN_POINT ( 'NONE',  ( -45.09657712615953784, 3.660254037844389963, 18.67961386225975318 ) ) ;
#565 = PRODUCT ( 'base_collision', 'base_collision', '', ( #213 ) ) ;
#566 = CARTESIAN_POINT ( 'NONE',  ( 2.704823973719922225, 5.000000000000000000, -41.33969719856871450 ) ) ;
#567 = CARTESIAN_POINT ( 'NONE',  ( 48.81218334123950342, 3.660254037844387298, -2.189969257486344760E-14 ) ) ;
#568 = STYLED_ITEM ( 'NONE', ( #106 ), #365 ) ;
#569 = CARTESIAN_POINT ( 'NONE',  ( 6.938893903907228378E-15, 0.000000000000000000, 50.00000000000000000 ) ) ;
#570 = CARTESIAN_POINT ( 'NONE',  ( -16.63863731089242037, 5.000000000000001776, 40.16922385536384610 ) ) ;
#571 = ORIENTED_EDGE ( 'NONE', *, *, #453, .T. ) ;
#572 = CARTESIAN_POINT ( 'NONE',  ( 35.52422174216648187, 1.794228634059953809, 35.52422174216659556 ) ) ;
#573 = CARTESIAN_POINT ( 'NONE',  ( 39.18726276063250680, 5.000000000000000888, -16.23189570773207535 ) ) ;
#574 = DIRECTION ( 'NONE',  ( 1.000000000000000000, 0.000000000000000000, 0.000000000000000000 ) ) ;
#575 = CARTESIAN_POINT ( 'NONE',  ( 6.226537954086540871, 3.660254037844386410, 47.57364793621284349 ) ) ;
#576 = FACE_OUTER_BOUND ( 'NONE', #203, .T. ) ;
#577 = SURFACE_STYLE_USAGE ( .BOTH. , #385 ) ;
#578 = CARTESIAN_POINT ( 'NONE',  ( -34.51542584511146572, 3.660254037844382413, -34.51542584511151546 ) ) ;
#579 = PRODUCT_DEFINITION_FORMATION_WITH_SPECIFIED_SOURCE ( 'ANY', '', #390, .NOT_KNOWN. ) ;
#580 = FILL_AREA_STYLE_COLOUR ( '', #613 ) ;
#581 =( LENGTH_UNIT ( ) NAMED_UNIT ( * ) SI_UNIT ( .MILLI., .METRE. ) );
#582 = CARTESIAN_POINT ( 'NONE',  ( -35.52422174216665240, 1.794228634059950922, 35.52422174216648187 ) ) ;
#583 = CARTESIAN_POINT ( 'NONE',  ( 6.505213034913026604E-16, 4.999999999999999112, -41.33974596215561803 ) ) ;
#584 = SURFACE_STYLE_USAGE ( .BOTH. , #395 ) ;
#585 = CARTESIAN_POINT ( 'NONE',  ( -6.408523422529757596, 1.794228634059948257, 48.96410161513777126 ) ) ;
#586 = CARTESIAN_POINT ( 'NONE',  ( -5.410631902577365260, 4.999999999999999112, 41.33974596215563224 ) ) ;
#587 = PRESENTATION_STYLE_ASSIGNMENT (( #584 ) ) ;
#588 = CARTESIAN_POINT ( 'NONE',  ( -33.17260306611793652, 4.728844493157738249, -33.17260306611798626 ) ) ;
#589 = CARTESIAN_POINT ( 'NONE',  ( -31.14417959503497713, 5.000000000000000000, 27.31898084755691869 ) ) ;
#590 = AXIS2_PLACEMENT_3D ( 'NONE', #156, #254, #14 ) ;
#591 =( NAMED_UNIT ( * ) PLANE_ANGLE_UNIT ( ) SI_UNIT ( $, .RADIAN. ) );
#592 = COLOUR_RGB ( '',0.7921568627450980005, 0.8196078431372548767, 0.9333333333333333481 ) ;
#593 = MECHANICAL_DESIGN_GEOMETRIC_PRESENTATION_REPRESENTATION (  '', ( #367 ), #85 ) ;
#594 = CARTESIAN_POINT ( 'NONE',  ( -40.16922385536371110, 5.000000000000000888, 16.63863731089267262 ) ) ;
#595 = CARTESIAN_POINT ( 'NONE',  ( -51.30170321044887771, -1.514529838884383647E-16, -1.004440337661594814E-13 ) ) ;
#596 = CARTESIAN_POINT ( 'NONE',  ( -46.90561303173657848, 0.8971143170299714642, 19.42894106916966734 ) ) ;
#597 = CARTESIAN_POINT ( 'NONE',  ( -17.95288341108081553, 4.728844493157740914, -43.34209461473427183 ) ) ;
#598 = CARTESIAN_POINT ( 'NONE',  ( -39.22808154752897991, 4.999999999999998224, -13.32112303061507141 ) ) ;
#599 = CARTESIAN_POINT ( 'NONE',  ( -4.886671834909104931E-15, 4.999999999999999112, -44.54172162277265556 ) ) ;
#600 = DIRECTION ( 'NONE',  ( 1.000000000000000000, 0.000000000000000000, 0.000000000000000000 ) ) ;
#601 = CARTESIAN_POINT ( 'NONE',  ( 36.27578222652805806, -8.919119712755384367E-15, -36.27578222652808648 ) ) ;
#602 = STYLED_ITEM ( 'NONE', ( #267 ), #407 ) ;
#603 = AXIS2_PLACEMENT_3D ( 'NONE', #204, #242, #574 ) ;
#604 = CARTESIAN_POINT ( 'NONE',  ( 17.95288341108095764, 4.728844493157740914, 43.34209461473425762 ) ) ;
#605 = CARTESIAN_POINT ( 'NONE',  ( -18.31894872524719631, 5.000000000000000000, 37.15780879975314832 ) ) ;
#606 = CARTESIAN_POINT ( 'NONE',  ( 46.41463248437102607, 1.794228634059947591, -19.22557026758923726 ) ) ;
#607 = EDGE_CURVE ( 'NONE', #107, #341, #382, .T. ) ;
#608 = CARTESIAN_POINT ( 'NONE',  ( -5.856486673947875346E-15, 6.399028286061354252E-16, -51.30170321044887771 ) ) ;
#609 = CARTESIAN_POINT ( 'NONE',  ( -19.22557026758927634, 1.794228634059946481, -46.41463248437099054 ) ) ;
#610 = CARTESIAN_POINT ( 'NONE',  ( 20.70167712140697347, 4.999999999999998224, 35.88321402935512339 ) ) ;
#611 = CARTESIAN_POINT ( 'NONE',  ( -31.49575340518607192, 4.999999999999997335, 31.49575340518592625 ) ) ;
#612 = CARTESIAN_POINT ( 'NONE',  ( 51.30170321044884929, -6.074885368514129641E-16, -2.686587473405564395E-14 ) ) ;
#613 = COLOUR_RGB ( '',0.7921568627450980005, 0.8196078431372548767, 0.9333333333333333481 ) ;
#614 = CARTESIAN_POINT ( 'NONE',  ( -4.886671834909104931E-15, 4.999999999999999112, -44.54172162277265556 ) ) ;
#615 = ORIENTED_EDGE ( 'NONE', *, *, #453, .F. ) ;
#616 = CARTESIAN_POINT ( 'NONE',  ( 39.22808154750550358, 5.000000000000000000, 13.32112303066543468 ) ) ;
#617 = NEXT_ASSEMBLY_USAGE_OCCURRENCE ( 'NAUO1', ' ', ' ', #57, #149, $ ) ;
ENDSEC;
END-ISO-10303-21;
