ISO-10303-21;
HEADER;
FILE_DESCRIPTION (( 'STEP AP214' ),
    '1' );
FILE_NAME ('eye_collision.stp',
    '2026-08-11T19:33:01',
    ( '' ),
    ( '' ),
    'SwSTEP 2.0',
    'SolidWorks 2025',
    '' );
FILE_SCHEMA (( 'AUTOMOTIVE_DESIGN' ));
ENDSEC;

DATA;
#1 = CARTESIAN_POINT ( 'NONE',  ( -22.19596314969016504, 1.097590011563595924, 21.42414659646559016 ) ) ;
#2 = CARTESIAN_POINT ( 'NONE',  ( -33.83454034183731807, 9.579301433247476684E-15, 21.32846711059605482 ) ) ;
#3 = SHAPE_REPRESENTATION_RELATIONSHIP ( 'NONE' , 'NONE' ,  #12, #393 ) ;
#4 = CARTESIAN_POINT ( 'NONE',  ( -32.89985534109209198, 2.219544457292887518, -19.07193790525008126 ) ) ;
#5 =( REPRESENTATION_RELATIONSHIP ('NONE','NONE', #322, #12 ) REPRESENTATION_RELATIONSHIP_WITH_TRANSFORMATION ( #44 )SHAPE_REPRESENTATION_RELATIONSHIP( ) );
#6 = CARTESIAN_POINT ( 'NONE',  ( -33.83454034183737491, -1.511176636289074103E-15, -21.32846711059602995 ) ) ;
#7 = AXIS2_PLACEMENT_3D ( 'NONE', #463, #368, #49 ) ;
#8 = APPLICATION_PROTOCOL_DEFINITION ( 'draft international standard', 'automotive_design', 1998, #288 ) ;
#9 = CARTESIAN_POINT ( 'NONE',  ( -24.99999999999999289, 3.000000000000000000, 16.89550500507772668 ) ) ;
#10 = CARTESIAN_POINT ( 'NONE',  ( -5.928062094749913413, 2.219544457292886630, -7.899855341092085759 ) ) ;
#11 = CARTESIAN_POINT ( 'NONE',  ( -33.41211055092948357, 1.097590011563597701, -20.30863138023574166 ) ) ;
#12 = SHAPE_REPRESENTATION ( 'Eye', ( #390 ), #57 ) ;
#13 = CARTESIAN_POINT ( 'NONE',  ( -39.59702931886992161, 2.219544457292887518, 14.59702931886987542 ) ) ;
#14 = CARTESIAN_POINT ( 'NONE',  ( -42.64099000543387064, 2.853681120105018287, -7.307137313938933509 ) ) ;
#15 = CARTESIAN_POINT ( 'NONE',  ( -17.69286268606106205, 2.853681120105020064, -17.64099000543387419 ) ) ;
#16 = CARTESIAN_POINT ( 'NONE',  ( -25.00000000000000355, 3.000000000000000000, -16.89550500507772668 ) ) ;
#17 = CARTESIAN_POINT ( 'NONE',  ( -27.43571243797964598, 2.853681120105022284, 18.60997666002310069 ) ) ;
#18 = SURFACE_STYLE_USAGE ( .BOTH. , #169 ) ;
#19 = CARTESIAN_POINT ( 'NONE',  ( -42.33536366722302091, 3.000000000000000000, -2.940602582899197644E-14 ) ) ;
#20 = CARTESIAN_POINT ( 'NONE',  ( -25.00000000000000000, 0.000000000000000000, 0.000000000000000000 ) ) ;
#21 = CARTESIAN_POINT ( 'NONE',  ( -37.30001408538111463, 2.999999999999999556, -9.420425863763956187 ) ) ;
#22 = COLOUR_RGB ( '',0.000000000000000000, 0.000000000000000000, 0.000000000000000000 ) ;
#23 = PRESENTATION_LAYER_ASSIGNMENT (  '', '', ( #210 ) ) ;
#24 = CARTESIAN_POINT ( 'NONE',  ( -9.641329621608218048, 2.999999999999999556, -2.036176358555504162 ) ) ;
#25 =( GEOMETRIC_REPRESENTATION_CONTEXT ( 3 ) GLOBAL_UNCERTAINTY_ASSIGNED_CONTEXT ( ( #561 ) ) GLOBAL_UNIT_ASSIGNED_CONTEXT ( ( #195, #326, #137 ) ) REPRESENTATION_CONTEXT ( 'NONE', 'WORKASPACE' ) );
#26 = EDGE_LOOP ( 'NONE', ( #216, #296 ) ) ;
#27 = CARTESIAN_POINT ( 'NONE',  ( -8.453109361435172886, 2.999999999999999556, -6.832333067316626295E-15 ) ) ;
#28 = SURFACE_STYLE_FILL_AREA ( #128 ) ;
#29 = EDGE_CURVE ( 'NONE', #31, #395, #105, .T. ) ;
#30 = CARTESIAN_POINT ( 'NONE',  ( -46.32846711059602285, 2.796251611865412810E-15, -8.834540341837376687 ) ) ;
#31 = VERTEX_POINT ( 'NONE', #79 ) ;
#32 = CARTESIAN_POINT ( 'NONE',  ( -41.54689063856482534, 3.000000000000000000, -2.854266469276983162E-14 ) ) ;
#33 = CARTESIAN_POINT ( 'NONE',  ( -31.03048533960155098, 3.000000000000000000, -14.55887949455817854 ) ) ;
#34 = CARTESIAN_POINT ( 'NONE',  ( -10.44112050544181791, 3.000000000000000000, -6.030485339601538541 ) ) ;
#35 = CARTESIAN_POINT ( 'NONE',  ( -40.75841760990664397, 3.000000000000000000, -2.767113294642571533E-14 ) ) ;
#36 = CARTESIAN_POINT ( 'NONE',  ( -17.24138526433539198, 3.000000000000000444, -13.41016767998459436 ) ) ;
#37 = COLOUR_RGB ( '',0.000000000000000000, 0.000000000000000000, 0.000000000000000000 ) ;
#38 = CARTESIAN_POINT ( 'NONE',  ( -27.87444181546114308, 0.5487950057817985172, 21.96207329823280574 ) ) ;
#39 = CARTESIAN_POINT ( 'NONE',  ( -18.96951466039845258, 3.000000000000000000, -14.55887949455817321 ) ) ;
#40 = CARTESIAN_POINT ( 'NONE',  ( -22.88925969848807185, 2.999999999999999556, 16.12703828826743546 ) ) ;
#41 = CARTESIAN_POINT ( 'NONE',  ( -48.08576644470200279, -3.057482061671934048E-15, -4.106003939963720901E-14 ) ) ;
#42 = CARTESIAN_POINT ( 'NONE',  ( -16.37667455361651747, 0.5487950057818020699, 20.81854924541585561 ) ) ;
#43 = SURFACE_SIDE_STYLE ('',( #580 ) ) ;
#44 = ITEM_DEFINED_TRANSFORMATION ( 'NONE', 'NONE', #87,  #390 ) ;
#45 = SURFACE_SIDE_STYLE ('',( #99 ) ) ;
#46 =( NAMED_UNIT ( * ) SI_UNIT ( $, .STERADIAN. ) SOLID_ANGLE_UNIT ( ) );
#47 = CARTESIAN_POINT ( 'NONE',  ( -46.32846711059602285, 2.796251611865412810E-15, -8.834540341837376687 ) ) ;
#48 = ADVANCED_FACE ( 'NONE', ( #443 ), #206, .F. ) ;
#49 = DIRECTION ( 'NONE',  ( 1.000000000000000000, 0.000000000000000000, 0.000000000000000000 ) ) ;
#50 = CARTESIAN_POINT ( 'NONE',  ( -24.99999999999999289, 1.097590011563596368, 21.42414659646559727 ) ) ;
#51 =( NAMED_UNIT ( * ) SI_UNIT ( $, .STERADIAN. ) SOLID_ANGLE_UNIT ( ) );
#52 = CARTESIAN_POINT ( 'NONE',  ( -5.905530012682300267, 2.853681120105020064, -7.099658376437174579E-15 ) ) ;
#53 = PRESENTATION_STYLE_ASSIGNMENT (( #328 ) ) ;
#54 = CARTESIAN_POINT ( 'NONE',  ( -9.456446473548055565, 1.097590011563595036, 15.54355352645198352 ) ) ;
#55 = MECHANICAL_DESIGN_GEOMETRIC_PRESENTATION_REPRESENTATION (  '', ( #500 ), #389 ) ;
#56 = CARTESIAN_POINT ( 'NONE',  ( -32.30713731393891663, 2.853681120105024061, -17.64099000543387419 ) ) ;
#57 =( GEOMETRIC_REPRESENTATION_CONTEXT ( 3 ) GLOBAL_UNCERTAINTY_ASSIGNED_CONTEXT ( ( #515 ) ) GLOBAL_UNIT_ASSIGNED_CONTEXT ( ( #493, #173, #479 ) ) REPRESENTATION_CONTEXT ( 'NONE', 'WORKASPACE' ) );
#58 = CARTESIAN_POINT ( 'NONE',  ( -32.30713731393890953, 2.853681120105022728, 17.64099000543391327 ) ) ;
#59 = CARTESIAN_POINT ( 'NONE',  ( -7.359009994566116042, 2.853681120105023616, -7.307137313938919299 ) ) ;
#60 = CARTESIAN_POINT ( 'NONE',  ( -9.456446473548041354, 1.097590011563598811, -15.54355352645197996 ) ) ;
#61 = CARTESIAN_POINT ( 'NONE',  ( -22.36671488630262417, 2.219544457292885742, 20.11952385715237313 ) ) ;
#62 = B_SPLINE_CURVE_WITH_KNOTS ( 'NONE', 3,
 ( #442, #78, #359, #312, #30, #41, #215, #406, #165, #347, #523 ),
 .UNSPECIFIED., .F., .F.,
 ( 4, 1, 1, 1, 1, 1, 1, 1, 4 ),
 ( 0.5000000000000000000, 0.5625000000000000000, 0.6250000000000000000, 0.6875000000000000000, 0.7500000000000000000, 0.8125000000000000000, 0.8750000000000000000, 0.9375000000000000000, 1.000000000000000000 ),
 .UNSPECIFIED. ) ;
#63 = CARTESIAN_POINT ( 'NONE',  ( -5.905530012682300267, 2.853681120105020064, -7.099658376437174579E-15 ) ) ;
#64 = STYLED_ITEM ( 'NONE', ( #454 ), #65 ) ;
#65 = ADVANCED_FACE ( 'NONE', ( #230 ), #488, .T. ) ;
#66 = CARTESIAN_POINT ( 'NONE',  ( -24.99999999999999289, 3.000000000000000000, 16.12703828826744257 ) ) ;
#67 = CARTESIAN_POINT ( 'NONE',  ( -17.10014465890789026, 2.219544457292893735, -19.07193790525006349 ) ) ;
#68 = CARTESIAN_POINT ( 'NONE',  ( -31.63395646946998241, 2.999999999999999556, -16.01578768078715953 ) ) ;
#69 = UNCERTAINTY_MEASURE_WITH_UNIT (LENGTH_MEASURE( 1.000000000000000082E-05 ), #232, 'distance_accuracy_value', 'NONE');
#70 = CARTESIAN_POINT ( 'NONE',  ( -10.03141040442963394, 3.000000000000000444, -3.996251411153691091 ) ) ;
#71 = CARTESIAN_POINT ( 'NONE',  ( -27.11074030151192105, 3.000000000000000000, 16.12703828826744967 ) ) ;
#72 = CARTESIAN_POINT ( 'NONE',  ( -25.00000000000000355, 3.000000000000000000, -16.12703828826744257 ) ) ;
#73 =( GEOMETRIC_REPRESENTATION_CONTEXT ( 3 ) GLOBAL_UNCERTAINTY_ASSIGNED_CONTEXT ( ( #250 ) ) GLOBAL_UNIT_ASSIGNED_CONTEXT ( ( #168, #504, #139 ) ) REPRESENTATION_CONTEXT ( 'NONE', 'WORKASPACE' ) );
#74 = CARTESIAN_POINT ( 'NONE',  ( -10.03122783302424814, 2.999999999999999556, 3.996327034712412019 ) ) ;
#75 = ORIENTED_EDGE ( 'NONE', *, *, #94, .T. ) ;
#76 = CARTESIAN_POINT ( 'NONE',  ( -38.41035025140088521, 3.000000000000000888, 7.758690359206028120 ) ) ;
#77 = CARTESIAN_POINT ( 'NONE',  ( -9.712666412327331855, 3.000000000000000000, -6.332220904535751593 ) ) ;
#78 = CARTESIAN_POINT ( 'NONE',  ( -27.94484678061246186, -1.463912447326525257E-15, -22.50000000000000711 ) ) ;
#79 = CARTESIAN_POINT ( 'NONE',  ( -24.99999999999999645, -4.336808689942013792E-16, 22.50000000000000355 ) ) ;
#80 = CARTESIAN_POINT ( 'NONE',  ( -40.75841760990664397, 3.000000000000000000, -2.767113294642571533E-14 ) ) ;
#81 = CARTESIAN_POINT ( 'NONE',  ( -40.28733358767266992, 3.000000000000000000, -6.332220904535767581 ) ) ;
#82 = CARTESIAN_POINT ( 'NONE',  ( -7.664636332776978200, 2.999999999999999556, -7.434895935005816390E-15 ) ) ;
#83 = CARTESIAN_POINT ( 'NONE',  ( -8.984212319212845799, 3.000000000000000888, -6.633956469469961981 ) ) ;
#84 = SURFACE_SIDE_STYLE ('',( #578 ) ) ;
#85 = CARTESIAN_POINT ( 'NONE',  ( -46.98190420458054462, 1.097590011563594592, -3.734513533084540970E-14 ) ) ;
#86 = COLOUR_RGB ( '',0.7921568627450980005, 0.8196078431372548767, 0.9333333333333333481 ) ;
#87 = AXIS2_PLACEMENT_3D ( 'NONE', #103, #145, #457 ) ;
#88 = PLANE ( 'NONE',  #425 ) ;
#89 = CARTESIAN_POINT ( 'NONE',  ( -25.00000000000000355, 2.853681120105023172, -18.60997666002310069 ) ) ;
#90 =( NAMED_UNIT ( * ) PLANE_ANGLE_UNIT ( ) SI_UNIT ( $, .RADIAN. ) );
#91 = CARTESIAN_POINT ( 'NONE',  ( -9.066172235805206370, 0.5487950057817990723, -15.93382776419481317 ) ) ;
#92 = CARTESIAN_POINT ( 'NONE',  ( -41.32410200193763927, -3.452201910034844005E-15, 16.32410200193759664 ) ) ;
#93 = APPLICATION_PROTOCOL_DEFINITION ( 'draft international standard', 'automotive_design', 1998, #308 ) ;
#94 = EDGE_CURVE ( 'NONE', #115, #567, #333, .T. ) ;
#95 = CARTESIAN_POINT ( 'NONE',  ( -3.671532889403971378, -2.300616333014895990E-15, 8.834540341837373134 ) ) ;
#96 = CONTEXT_DEPENDENT_SHAPE_REPRESENTATION ( #5, #355 ) ;
#97 = CARTESIAN_POINT ( 'NONE',  ( -4.181450754584115970, 0.5487950057817998495, 8.623325446383422133 ) ) ;
#98 =( GEOMETRIC_REPRESENTATION_CONTEXT ( 3 ) GLOBAL_UNCERTAINTY_ASSIGNED_CONTEXT ( ( #69 ) ) GLOBAL_UNIT_ASSIGNED_CONTEXT ( ( #232, #417, #330 ) ) REPRESENTATION_CONTEXT ( 'NONE', 'WORKASPACE' ) );
#99 = SURFACE_STYLE_FILL_AREA ( #465 ) ;
#100 = DIRECTION ( 'NONE',  ( 1.000000000000000000, 0.000000000000000000, 0.000000000000000000 ) ) ;
#101 = CARTESIAN_POINT ( 'NONE',  ( -5.928062094749926736, 2.219544457292887962, 7.899855341092096417 ) ) ;
#102 = CARTESIAN_POINT ( 'NONE',  ( -27.87444181546114308, 0.5487950057817985172, 21.96207329823280574 ) ) ;
#103 = CARTESIAN_POINT ( 'NONE',  ( 0.0001451205664241836456, 1.000000000000000000, -0.0005368076686283944441 ) ) ;
#104 = CARTESIAN_POINT ( 'NONE',  ( -37.25795320342831474, 2.999999999999998224, 12.25795320342826500 ) ) ;
#105 = B_SPLINE_CURVE_WITH_KNOTS ( 'NONE', 5,
 ( #166, #304, #403, #485, #476, #257, #66, #248 ),
 .UNSPECIFIED., .F., .F.,
 ( 6, 2, 6 ),
 ( 0.000000000000000000, 0.5000000000000000000, 1.000000000000000000 ),
 .UNSPECIFIED. ) ;
#106 = CARTESIAN_POINT ( 'NONE',  ( -39.59702931886992872, 2.219544457292886186, -14.59702931886993582 ) ) ;
#107 = CARTESIAN_POINT ( 'NONE',  ( -24.99999999999999289, 2.219544457292886186, 20.11952385715238378 ) ) ;
#108 = CARTESIAN_POINT ( 'NONE',  ( -9.456446473548055565, 1.097590011563595036, 15.54355352645198352 ) ) ;
#109 = CARTESIAN_POINT ( 'NONE',  ( -37.25795320342829342, 3.000000000000000000, -12.25795320342829875 ) ) ;
#110 = CARTESIAN_POINT ( 'NONE',  ( -44.07193790525007415, 2.219544457292885742, 7.899855341092160366 ) ) ;
#111 = CARTESIAN_POINT ( 'NONE',  ( -16.58788944907052354, 1.097590011563603030, -20.30863138023571679 ) ) ;
#112 = CARTESIAN_POINT ( 'NONE',  ( -22.19596314969016504, 1.097590011563595924, 21.42414659646559016 ) ) ;
#113 = CARTESIAN_POINT ( 'NONE',  ( -17.69286268606103008, 2.853681120105023172, 17.64099000543386353 ) ) ;
#114 = PRESENTATION_LAYER_ASSIGNMENT (  '', '', ( #64 ) ) ;
#115 = VERTEX_POINT ( 'NONE', #385 ) ;
#116 = CARTESIAN_POINT ( 'NONE',  ( -18.96951466039840994, 3.000000000000000444, 14.55887949455816965 ) ) ;
#117 = EDGE_LOOP ( 'NONE', ( #490, #75, #558, #299 ) ) ;
#118 = CARTESIAN_POINT ( 'NONE',  ( -12.74204679657170836, 2.999999999999999112, -12.25795320342830941 ) ) ;
#119 = CARTESIAN_POINT ( 'NONE',  ( -8.984212319212849351, 2.999999999999999112, 6.633956469469977968 ) ) ;
#120 =( NAMED_UNIT ( * ) SI_UNIT ( $, .STERADIAN. ) SOLID_ANGLE_UNIT ( ) );
#121 = EDGE_LOOP ( 'NONE', ( #125, #212 ) ) ;
#122 = CARTESIAN_POINT ( 'NONE',  ( -25.00000000000000355, 3.000000000000000444, -15.75841760990664220 ) ) ;
#123 = CARTESIAN_POINT ( 'NONE',  ( -18.36604353052997851, 2.999999999999999556, 16.01578768078713821 ) ) ;
#124 =( NAMED_UNIT ( * ) PLANE_ANGLE_UNIT ( ) SI_UNIT ( $, .RADIAN. ) );
#125 = ORIENTED_EDGE ( 'NONE', *, *, #370, .F. ) ;
#126 = PRODUCT ( 'Eye', 'Eye', '', ( #320 ) ) ;
#127 = CARTESIAN_POINT ( 'NONE',  ( -27.01016177986718247, 3.000000000000000000, 15.35857157145715490 ) ) ;
#128 = FILL_AREA_STYLE ('',( #529 ) ) ;
#129 = CARTESIAN_POINT ( 'NONE',  ( -15.57971387036255884, 3.000000000000000444, 12.29987435128501261 ) ) ;
#130 = CARTESIAN_POINT ( 'NONE',  ( -1.914233555298014755, -5.358737099943081626E-16, -8.254896540813260297E-15 ) ) ;
#131 = CARTESIAN_POINT ( 'NONE',  ( -22.88925969848807185, 2.999999999999999556, 16.12703828826743546 ) ) ;
#132 = CARTESIAN_POINT ( 'NONE',  ( -40.28733358767264860, 3.000000000000000000, 6.332220904535810213 ) ) ;
#133 = CARTESIAN_POINT ( 'NONE',  ( -41.32410200193763927, -3.452201910034844005E-15, 16.32410200193759664 ) ) ;
#134 = CARTESIAN_POINT ( 'NONE',  ( -24.99999999999999289, 3.000000000000000000, 15.35857157145714780 ) ) ;
#135 = CARTESIAN_POINT ( 'NONE',  ( -22.98983822013280687, 2.999999999999999556, 15.35857157145714247 ) ) ;
#136 = AXIS2_PLACEMENT_3D ( 'NONE', #20, #309, #220 ) ;
#137 =( NAMED_UNIT ( * ) SI_UNIT ( $, .STERADIAN. ) SOLID_ANGLE_UNIT ( ) );
#138 = CARTESIAN_POINT ( 'NONE',  ( -33.83454034183731807, 9.579301433247476684E-15, 21.32846711059605482 ) ) ;
#139 =( NAMED_UNIT ( * ) SI_UNIT ( $, .STERADIAN. ) SOLID_ANGLE_UNIT ( ) );
#140 = PRODUCT_DEFINITION_SHAPE ( 'NONE', 'NONE',  #201 ) ;
#141 = CARTESIAN_POINT ( 'NONE',  ( -24.99999999999999645, 0.5487950057817975180, 21.96207329823279863 ) ) ;
#142 = PRODUCT_RELATED_PRODUCT_CATEGORY ( 'part', '', ( #126 ) ) ;
#143 = CARTESIAN_POINT ( 'NONE',  ( -25.00000000000000000, -4.336808689942018722E-16, -22.50000000000000355 ) ) ;
#144 = CARTESIAN_POINT ( 'NONE',  ( -33.62332544638342569, 0.5487950057817982952, -20.81854924541588403 ) ) ;
#145 = DIRECTION ( 'NONE',  ( 0.000000000000000000, 0.000000000000000000, 1.000000000000000000 ) ) ;
#146 = CARTESIAN_POINT ( 'NONE',  ( -16.16545965816256469, -2.235468396877318569E-16, 21.32846711059599443 ) ) ;
#147 = CARTESIAN_POINT ( 'NONE',  ( -16.16545965816262154, 2.068127619739654579E-15, -21.32846711059601930 ) ) ;
#148 = CARTESIAN_POINT ( 'NONE',  ( -17.10014465890789026, 2.219544457292893735, -19.07193790525006349 ) ) ;
#149 = PRESENTATION_LAYER_ASSIGNMENT (  '', '', ( #452 ) ) ;
#150 = CARTESIAN_POINT ( 'NONE',  ( -38.50182921119535706, 2.853681120105016955, 13.50182921119532864 ) ) ;
#151 = CARTESIAN_POINT ( 'NONE',  ( -47.53383532464127370, 0.5487950057817949645, -3.867422124402019108E-14 ) ) ;
#152 = CARTESIAN_POINT ( 'NONE',  ( -18.36604353053001404, 3.000000000000000000, -16.01578768078715242 ) ) ;
#153 = CARTESIAN_POINT ( 'NONE',  ( -32.89985534109209198, 2.219544457292887518, -19.07193790525008126 ) ) ;
#154 = CARTESIAN_POINT ( 'NONE',  ( -17.10014465890784763, 2.219544457292889739, 19.07193790525004928 ) ) ;
#155 = CARTESIAN_POINT ( 'NONE',  ( -37.25795320342831474, 2.999999999999998224, 12.25795320342826500 ) ) ;
#156 = CARTESIAN_POINT ( 'NONE',  ( -40.93382776419479541, 0.5487950057817988503, -15.93382776419480962 ) ) ;
#157 = CARTESIAN_POINT ( 'NONE',  ( -16.58788944907047380, 1.097590011563603252, 20.30863138023572390 ) ) ;
#158 = CARTESIAN_POINT ( 'NONE',  ( -33.41211055092948357, 1.097590011563597701, -20.30863138023574166 ) ) ;
#159 = CARTESIAN_POINT ( 'NONE',  ( -32.30713731393890953, 2.853681120105022728, 17.64099000543391327 ) ) ;
#160 = ORIENTED_EDGE ( 'NONE', *, *, #94, .F. ) ;
#161 = CARTESIAN_POINT ( 'NONE',  ( -24.99999999999999289, 1.097590011563596368, 21.42414659646559727 ) ) ;
#162 = PRODUCT_DEFINITION_FORMATION_WITH_SPECIFIED_SOURCE ( 'ANY', '', #441, .NOT_KNOWN. ) ;
#163 = CARTESIAN_POINT ( 'NONE',  ( -40.35847276451053034, 3.000000000000000444, -2.036176358514945051 ) ) ;
#164 = SURFACE_STYLE_USAGE ( .BOTH. , #562 ) ;
#165 = CARTESIAN_POINT ( 'NONE',  ( -33.83454034183731807, 9.579301433247476684E-15, 21.32846711059605482 ) ) ;
#166 = CARTESIAN_POINT ( 'NONE',  ( -24.99999999999999645, -4.336808689942013792E-16, 22.50000000000000355 ) ) ;
#167 = CARTESIAN_POINT ( 'NONE',  ( -39.55887949455816965, 3.000000000000000000, -6.030485339601550088 ) ) ;
#168 =( LENGTH_UNIT ( ) NAMED_UNIT ( * ) SI_UNIT ( .MILLI., .METRE. ) );
#169 = SURFACE_SIDE_STYLE ('',( #399 ) ) ;
#170 = MANIFOLD_SOLID_BREP ( 'Stock-GooglyEyes-1', #461 ) ;
#171 = CARTESIAN_POINT ( 'NONE',  ( -13.29958142191860482, 3.000000000000000444, -11.70041857808140229 ) ) ;
#172 = CARTESIAN_POINT ( 'NONE',  ( -25.00000000000000000, -4.336808689942018722E-16, -22.50000000000000355 ) ) ;
#173 =( NAMED_UNIT ( * ) PLANE_ANGLE_UNIT ( ) SI_UNIT ( $, .RADIAN. ) );
#174 = CARTESIAN_POINT ( 'NONE',  ( -8.675897998062398031, -6.700018138069488643E-16, 16.32410200193764638 ) ) ;
#175 = CARTESIAN_POINT ( 'NONE',  ( -18.66777909546423331, 3.000000000000000000, -15.28733358767266282 ) ) ;
#176 = CARTESIAN_POINT ( 'NONE',  ( -24.99999999999999289, 3.000000000000000000, 16.12703828826744257 ) ) ;
#177 = CARTESIAN_POINT ( 'NONE',  ( -22.96382364145871335, 3.000000000000000888, -15.35847276452012622 ) ) ;
#178 = FILL_AREA_STYLE_COLOUR ( '', #267 ) ;
#179 = CARTESIAN_POINT ( 'NONE',  ( -8.984212319212845799, 3.000000000000000888, -6.633956469469961981 ) ) ;
#180 = CARTESIAN_POINT ( 'NONE',  ( -13.85711604726552792, 2.999999999999999112, 11.14288395273449872 ) ) ;
#181 = SURFACE_STYLE_USAGE ( .BOTH. , #84 ) ;
#182 = CARTESIAN_POINT ( 'NONE',  ( -8.675897998062398031, -6.700018138069488643E-16, 16.32410200193764638 ) ) ;
#183 = B_SPLINE_CURVE_WITH_KNOTS ( 'NONE', 3,
 ( #536, #303, #489, #574, #129, #483, #268, #74, #223, #24, #70, #211, #256, #563, #36, #448, #177, #526 ),
 .UNSPECIFIED., .F., .F.,
 ( 4, 2, 2, 2, 2, 2, 2, 2, 4 ),
 ( 0.000000000000000000, 0.06250000000000000000, 0.1250000000000000000, 0.1875000000000000000, 0.2500000000000000000, 0.3125000000000000000, 0.3750000000000000000, 0.4375000000000000000, 0.5000000000000000000 ),
 .UNSPECIFIED. ) ;
#184 = CARTESIAN_POINT ( 'NONE',  ( -16.37667455361651747, 0.5487950057818020699, 20.81854924541585561 ) ) ;
#185 = CARTESIAN_POINT ( 'NONE',  ( -24.99999999999999289, -8.673617379884027583E-16, 22.50000000000000355 ) ) ;
#186 = CARTESIAN_POINT ( 'NONE',  ( -16.16545965816262154, 2.068127619739654579E-15, -21.32846711059601930 ) ) ;
#187 = CARTESIAN_POINT ( 'NONE',  ( -3.671532889403968269, -7.600592549382917550E-16, -8.834540341837358923 ) ) ;
#188 = APPLICATION_PROTOCOL_DEFINITION ( 'draft international standard', 'automotive_design', 1998, #344 ) ;
#189 = CARTESIAN_POINT ( 'NONE',  ( -16.37667455361657431, 0.5487950057818032912, -20.81854924541586627 ) ) ;
#190 = CARTESIAN_POINT ( 'NONE',  ( -2.466164675358748948, 0.5487950057817994054, -8.913803837529954930E-15 ) ) ;
#191 = CARTESIAN_POINT ( 'NONE',  ( -27.63328511369736518, 2.219544457292886186, 20.11952385715239444 ) ) ;
#192 = CARTESIAN_POINT ( 'NONE',  ( -22.05515321938753814, -2.501169783477605357E-15, 22.49999999999999289 ) ) ;
#193 = CARTESIAN_POINT ( 'NONE',  ( -44.07193790525005994, 2.219544457292892403, -7.899855341092094640 ) ) ;
#194 = CARTESIAN_POINT ( 'NONE',  ( -8.675897998062374938, -1.628059698182946397E-15, -16.32410200193763927 ) ) ;
#195 =( LENGTH_UNIT ( ) NAMED_UNIT ( * ) SI_UNIT ( .MILLI., .METRE. ) );
#196 = CARTESIAN_POINT ( 'NONE',  ( -39.59702931886992161, 2.219544457292887518, 14.59702931886987542 ) ) ;
#197 = CARTESIAN_POINT ( 'NONE',  ( -24.99999999999999289, 2.219544457292886186, 20.11952385715238378 ) ) ;
#198 = CARTESIAN_POINT ( 'NONE',  ( -27.43571243797964598, 2.853681120105022284, 18.60997666002310069 ) ) ;
#199 = CARTESIAN_POINT ( 'NONE',  ( -24.99999999999999289, 3.000000000000000000, 16.89550500507772668 ) ) ;
#200 = CARTESIAN_POINT ( 'NONE',  ( -25.00000000000001066, 2.853681120105023616, -19.09446998731770861 ) ) ;
#201 = PRODUCT_DEFINITION ( 'UNKNOWN', '', #559, #519 ) ;
#202 = STYLED_ITEM ( 'NONE', ( #346 ), #170 ) ;
#203 = CARTESIAN_POINT ( 'NONE',  ( -45.30863138023572390, 1.097590011563599921, -8.412110550929478237 ) ) ;
#204 = CARTESIAN_POINT ( 'NONE',  ( -25.00000000000000355, 3.000000000000000444, -16.54689063856482889 ) ) ;
#205 = CARTESIAN_POINT ( 'NONE',  ( -38.50182921119535706, 2.853681120105016955, 13.50182921119532864 ) ) ;
#206 = PLANE ( 'NONE',  #136 ) ;
#207 = CARTESIAN_POINT ( 'NONE',  ( -16.58788944907047380, 1.097590011563603252, 20.30863138023572390 ) ) ;
#208 = CARTESIAN_POINT ( 'NONE',  ( -9.712666412327331855, 3.000000000000000000, -6.332220904535751593 ) ) ;
#209 = UNCERTAINTY_MEASURE_WITH_UNIT (LENGTH_MEASURE( 1.000000000000000082E-05 ), #284, 'distance_accuracy_value', 'NONE');
#210 = STYLED_ITEM ( 'NONE', ( #376 ), #393 ) ;
#211 = CARTESIAN_POINT ( 'NONE',  ( -11.58964974861241615, 2.999999999999999556, -7.758690359226529054 ) ) ;
#212 = ORIENTED_EDGE ( 'NONE', *, *, #545, .F. ) ;
#213 = CARTESIAN_POINT ( 'NONE',  ( -9.712666412327337184, 3.000000000000000444, 6.332220904535762251 ) ) ;
#214 = CARTESIAN_POINT ( 'NONE',  ( -18.66777909546423331, 3.000000000000000000, -15.28733358767266282 ) ) ;
#215 = CARTESIAN_POINT ( 'NONE',  ( -46.32846711059601574, -9.746642210385156353E-16, 8.834540341837440636 ) ) ;
#216 = ORIENTED_EDGE ( 'NONE', *, *, #449, .T. ) ;
#217 = CARTESIAN_POINT ( 'NONE',  ( -13.85711604726552792, 2.999999999999999112, 11.14288395273449872 ) ) ;
#218 = CARTESIAN_POINT ( 'NONE',  ( -18.96951466039845258, 3.000000000000000000, -14.55887949455817321 ) ) ;
#219 = B_SPLINE_SURFACE_WITH_KNOTS ( 'NONE', 5, 3, ( 
 ( #522, #421, #2, #92, #423, #582, #47, #507, #6, #234, #147, #194, #187, #375, #95, #542, #503, #192, #367 ),
 ( #539, #102, #283, #547, #373, #151, #509, #456, #144, #276, #462, #229, #584, #190, #413, #371, #184, #364, #513 ),
 ( #386, #338, #286, #514, #468, #555, #203, #245, #158, #295, #434, #383, #291, #427, #340, #108, #207, #112, #161 ),
 ( #429, #431, #549, #13, #110, #247, #472, #106, #153, #289, #67, #241, #10, #335, #551, #388, #343, #61, #197 ),
 ( #293, #17, #159, #205, #477, #557, #474, #470, #56, #378, #15, #511, #59, #63, #341, #517, #113, #249, #243 ),
 ( #199, #436, #380, #155, #554, #19, #576, #521, #68, #258, #528, #118, #179, #82, #310, #301, #253, #524, #396 ),
 ( #481, #71, #568, #439, #265, #32, #565, #262, #400, #221, #175, #171, #208, #27, #213, #314, #495, #131, #446 ),
 ( #349, #127, #404, #491, #353, #80, #167, #297, #486, #122, #39, #451, #34, #572, #518, #217, #116, #357, #251 ) ),
 .UNSPECIFIED., .F., .T., .F.,
 ( 6, 2, 6 ),
 ( 4, 1, 1, 1, 1, 1, 1, 1, 1, 1, 1, 1, 1, 1, 1, 1, 4 ),
 ( 0.000000000000000000, 0.5000000000000000000, 1.000000000000000000 ),
 ( -3.141592653589793116, -2.748893571891068976, -2.356194490192345281, -1.963495408493620475, -1.570796326794896558, -1.178097245096172418, -0.7853981633974482790, -0.3926990816987241395, 0.000000000000000000, 0.3926990816987241395, 0.7853981633974482790, 1.178097245096172418, 1.570796326794896558, 1.963495408493620475, 2.356194490192344393, 2.748893571891068976, 3.141592653589793116 ),
 .UNSPECIFIED. ) ;
#220 = DIRECTION ( 'NONE',  ( 0.000000000000000000, -0.000000000000000000, 1.000000000000000000 ) ) ;
#221 = CARTESIAN_POINT ( 'NONE',  ( -25.00000000000000355, 3.000000000000000444, -16.54689063856482889 ) ) ;
#222 = CARTESIAN_POINT ( 'NONE',  ( -25.00000000000000355, 3.000000000000000444, -15.75841760990664220 ) ) ;
#223 = CARTESIAN_POINT ( 'NONE',  ( -9.641527235477475699, 3.000000000000000444, 2.036176358555500165 ) ) ;
#224 = CARTESIAN_POINT ( 'NONE',  ( -24.99999999999999645, 0.5487950057817975180, 21.96207329823279863 ) ) ;
#225 = CARTESIAN_POINT ( 'NONE',  ( -27.03617635854131152, 3.000000000000000444, -15.35867037839418359 ) ) ;
#226 = CARTESIAN_POINT ( 'NONE',  ( -22.78868117684332972, 2.999999999999999556, 16.89550500507771602 ) ) ;
#227 = CARTESIAN_POINT ( 'NONE',  ( -9.066172235805227686, 0.5487950057817970739, 15.93382776419481672 ) ) ;
#228 = SURFACE_STYLE_USAGE ( .BOTH. , #43 ) ;
#229 = CARTESIAN_POINT ( 'NONE',  ( -9.066172235805206370, 0.5487950057817990723, -15.93382776419481317 ) ) ;
#230 = FACE_OUTER_BOUND ( 'NONE', #520, .T. ) ;
#231 = CARTESIAN_POINT ( 'NONE',  ( -27.03693144826090489, 3.000000000000000444, 15.35857157145714957 ) ) ;
#232 =( LENGTH_UNIT ( ) NAMED_UNIT ( * ) SI_UNIT ( .MILLI., .METRE. ) );
#233 = PRESENTATION_LAYER_ASSIGNMENT (  '', '', ( #202 ) ) ;
#234 = CARTESIAN_POINT ( 'NONE',  ( -25.00000000000000711, -1.440280352845250834E-15, -23.08576644470199568 ) ) ;
#235 = CARTESIAN_POINT ( 'NONE',  ( -33.83454034183737491, -1.511176636289074103E-15, -21.32846711059602995 ) ) ;
#236 = CARTESIAN_POINT ( 'NONE',  ( -11.49817078880465715, 2.853681120105019176, 13.50182921119537305 ) ) ;
#237 = PRODUCT_RELATED_PRODUCT_CATEGORY ( 'part', '', ( #441 ) ) ;
#238 = DIRECTION ( 'NONE',  ( 0.000000000000000000, 0.000000000000000000, 1.000000000000000000 ) ) ;
#239 = CARTESIAN_POINT ( 'NONE',  ( -24.99999999999999289, 2.219544457292886186, 20.11952385715238378 ) ) ;
#240 = PRESENTATION_LAYER_ASSIGNMENT (  '', '', ( #500 ) ) ;
#241 = CARTESIAN_POINT ( 'NONE',  ( -10.40297068113009438, 2.219544457292886630, -14.59702931886992694 ) ) ;
#242 = CARTESIAN_POINT ( 'NONE',  ( -24.99999999999999645, 2.853681120105022728, 18.60997666002309359 ) ) ;
#243 = CARTESIAN_POINT ( 'NONE',  ( -24.99999999999999645, 2.853681120105022728, 18.60997666002309359 ) ) ;
#244 = CARTESIAN_POINT ( 'NONE',  ( -7.359009994566116042, 2.853681120105023616, -7.307137313938919299 ) ) ;
#245 = CARTESIAN_POINT ( 'NONE',  ( -40.54355352645195154, 1.097590011563601031, -15.54355352645197819 ) ) ;
#246 = CARTESIAN_POINT ( 'NONE',  ( -25.00000000000000711, 1.097590011563594814, -21.98190420458054106 ) ) ;
#247 = CARTESIAN_POINT ( 'NONE',  ( -45.64331683310355459, 2.219544457292883077, -3.868239185414216572E-14 ) ) ;
#248 = CARTESIAN_POINT ( 'NONE',  ( -24.99999999999999289, 3.000000000000000000, 15.35857157145714780 ) ) ;
#249 = CARTESIAN_POINT ( 'NONE',  ( -22.56428756202035046, 2.853681120105022728, 18.60997666002308648 ) ) ;
#250 = UNCERTAINTY_MEASURE_WITH_UNIT (LENGTH_MEASURE( 1.000000000000000082E-05 ), #168, 'distance_accuracy_value', 'NONE');
#251 = CARTESIAN_POINT ( 'NONE',  ( -24.99999999999999289, 3.000000000000000000, 15.35857157145714780 ) ) ;
#252 =( NAMED_UNIT ( * ) SI_UNIT ( $, .STERADIAN. ) SOLID_ANGLE_UNIT ( ) );
#253 = CARTESIAN_POINT ( 'NONE',  ( -18.36604353052997851, 2.999999999999999556, 16.01578768078713821 ) ) ;
#254 = MECHANICAL_DESIGN_GEOMETRIC_PRESENTATION_REPRESENTATION (  '', ( #210 ), #392 ) ;
#255 = CARTESIAN_POINT ( 'NONE',  ( -18.66777909546419778, 3.000000000000000444, 15.28733358767265749 ) ) ;
#256 = CARTESIAN_POINT ( 'NONE',  ( -12.70012564870085470, 3.000000000000000444, -9.420286129630516925 ) ) ;
#257 = CARTESIAN_POINT ( 'NONE',  ( -24.99999999999999289, 3.000000000000000000, 16.89550500507772668 ) ) ;
#258 = CARTESIAN_POINT ( 'NONE',  ( -25.00000000000000711, 3.000000000000000444, -17.33536366722301736 ) ) ;
#259 = CARTESIAN_POINT ( 'NONE',  ( -31.33222090453573117, 3.000000000000000888, 15.28733358767269834 ) ) ;
#260 = ADVANCED_FACE ( 'NONE', ( #460 ), #219, .T. ) ;
#261 = FILL_AREA_STYLE_COLOUR ( '', #294 ) ;
#262 = CARTESIAN_POINT ( 'NONE',  ( -36.70041857808138985, 3.000000000000000000, -11.70041857808139696 ) ) ;
#263 = CARTESIAN_POINT ( 'NONE',  ( -36.70041857808138985, 3.000000000000000000, -11.70041857808139696 ) ) ;
#264 = CARTESIAN_POINT ( 'NONE',  ( -3.671532889403968269, -7.600592549382917550E-16, -8.834540341837358923 ) ) ;
#265 = CARTESIAN_POINT ( 'NONE',  ( -40.28733358767264860, 3.000000000000000000, 6.332220904535810213 ) ) ;
#266 = CARTESIAN_POINT ( 'NONE',  ( -25.00000000000000355, 0.5487950057817977401, -21.96207329823280574 ) ) ;
#267 = COLOUR_RGB ( '',0.000000000000000000, 0.000000000000000000, 0.000000000000000000 ) ;
#268 = CARTESIAN_POINT ( 'NONE',  ( -11.58983232001782326, 3.000000000000000444, 7.758614735667821449 ) ) ;
#269 = CARTESIAN_POINT ( 'NONE',  ( -45.30863138023572390, 1.097590011563599921, -8.412110550929478237 ) ) ;
#270 = FILL_AREA_STYLE_COLOUR ( '', #433 ) ;
#271 = SHAPE_DEFINITION_REPRESENTATION ( #300, #322 ) ;
#272 = CARTESIAN_POINT ( 'NONE',  ( -25.00000000000000711, -1.440280352845250834E-15, -23.08576644470199568 ) ) ;
#273 = CARTESIAN_POINT ( 'NONE',  ( -32.75885336038925999, 3.000000000000000444, 13.41006882482688312 ) ) ;
#274 = FILL_AREA_STYLE_COLOUR ( '', #37 ) ;
#275 = CARTESIAN_POINT ( 'NONE',  ( -8.675897998062374938, -1.628059698182946397E-15, -16.32410200193763927 ) ) ;
#276 = CARTESIAN_POINT ( 'NONE',  ( -25.00000000000000355, 0.5487950057817960747, -22.53383532464126660 ) ) ;
#277 = PRODUCT_CONTEXT ( 'NONE', #308, 'mechanical' ) ;
#278 =( GEOMETRIC_REPRESENTATION_CONTEXT ( 3 ) GLOBAL_UNCERTAINTY_ASSIGNED_CONTEXT ( ( #556 ) ) GLOBAL_UNIT_ASSIGNED_CONTEXT ( ( #323, #124, #120 ) ) REPRESENTATION_CONTEXT ( 'NONE', 'WORKASPACE' ) );
#279 = CARTESIAN_POINT ( 'NONE',  ( -46.32846711059601574, -9.746642210385156353E-16, 8.834540341837440636 ) ) ;
#280 = PRODUCT_DEFINITION ( 'UNKNOWN', '', #162, #397 ) ;
#281 = SHAPE_DEFINITION_REPRESENTATION ( #140, #12 ) ;
#282 = CARTESIAN_POINT ( 'NONE',  ( -38.50182921119537838, 2.853681120105016511, -13.50182921119537838 ) ) ;
#283 = CARTESIAN_POINT ( 'NONE',  ( -33.62332544638337595, 0.5487950057818079541, 20.81854924541591600 ) ) ;
#284 =( LENGTH_UNIT ( ) NAMED_UNIT ( * ) SI_UNIT ( .MILLI., .METRE. ) );
#285 = CARTESIAN_POINT ( 'NONE',  ( -11.49817078880464827, 2.853681120105018731, -13.50182921119537127 ) ) ;
#286 = CARTESIAN_POINT ( 'NONE',  ( -33.41211055092943383, 1.097590011563606804, 20.30863138023577008 ) ) ;
#287 = CARTESIAN_POINT ( 'NONE',  ( -44.09446998731771572, 2.853681120105027169, -3.442278044388529570E-14 ) ) ;
#288 = APPLICATION_CONTEXT ( 'automotive_design' ) ;
#289 = CARTESIAN_POINT ( 'NONE',  ( -25.00000000000000711, 2.219544457292884410, -20.64331683310354748 ) ) ;
#290 = CARTESIAN_POINT ( 'NONE',  ( -44.07193790525007415, 2.219544457292885742, 7.899855341092160366 ) ) ;
#291 = CARTESIAN_POINT ( 'NONE',  ( -4.691368619764247683, 1.097590011563597479, -8.412110550929455144 ) ) ;
#292 = CARTESIAN_POINT ( 'NONE',  ( -4.691368619764247683, 1.097590011563597479, -8.412110550929455144 ) ) ;
#293 = CARTESIAN_POINT ( 'NONE',  ( -24.99999999999999645, 2.853681120105022728, 18.60997666002309359 ) ) ;
#294 = COLOUR_RGB ( '',0.000000000000000000, 0.000000000000000000, 0.000000000000000000 ) ;
#295 = CARTESIAN_POINT ( 'NONE',  ( -25.00000000000000711, 1.097590011563594814, -21.98190420458054106 ) ) ;
#296 = ORIENTED_EDGE ( 'NONE', *, *, #306, .T. ) ;
#297 = CARTESIAN_POINT ( 'NONE',  ( -36.14288395273448629, 3.000000000000000000, -11.14288395273449694 ) ) ;
#298 = UNCERTAINTY_MEASURE_WITH_UNIT (LENGTH_MEASURE( 1.000000000000000082E-05 ), #480, 'distance_accuracy_value', 'NONE');
#299 = ORIENTED_EDGE ( 'NONE', *, *, #29, .F. ) ;
#300 = PRODUCT_DEFINITION_SHAPE ( 'NONE', 'NONE',  #280 ) ;
#301 = CARTESIAN_POINT ( 'NONE',  ( -12.74204679657172790, 2.999999999999999556, 12.25795320342830586 ) ) ;
#302 = CARTESIAN_POINT ( 'NONE',  ( -9.712666412327337184, 3.000000000000000444, 6.332220904535762251 ) ) ;
#303 = CARTESIAN_POINT ( 'NONE',  ( -22.96358506764891061, 2.999999999999999556, 15.35857157145714602 ) ) ;
#304 = CARTESIAN_POINT ( 'NONE',  ( -24.99999999999999645, 0.5487950057817975180, 21.96207329823279863 ) ) ;
#305 = CARTESIAN_POINT ( 'NONE',  ( -39.96858959555706292, 3.000000000000000444, 3.996251411174240431 ) ) ;
#306 = EDGE_CURVE ( 'NONE', #567, #395, #583, .T. ) ;
#307 = CARTESIAN_POINT ( 'NONE',  ( -8.453109361435172886, 2.999999999999999556, -6.832333067316626295E-15 ) ) ;
#308 = APPLICATION_CONTEXT ( 'automotive_design' ) ;
#309 = DIRECTION ( 'NONE',  ( 0.000000000000000000, 1.000000000000000000, 0.000000000000000000 ) ) ;
#310 = CARTESIAN_POINT ( 'NONE',  ( -8.984212319212849351, 2.999999999999999112, 6.633956469469977968 ) ) ;
#311 = CARTESIAN_POINT ( 'NONE',  ( -13.29958142191862613, 2.999999999999999112, 11.70041857808139873 ) ) ;
#312 = CARTESIAN_POINT ( 'NONE',  ( -41.32410200193763217, -2.923353957859295516E-15, -16.32410200193764283 ) ) ;
#313 = SURFACE_STYLE_FILL_AREA ( #369 ) ;
#314 = CARTESIAN_POINT ( 'NONE',  ( -13.29958142191862613, 2.999999999999999112, 11.70041857808139873 ) ) ;
#315 = CARTESIAN_POINT ( 'NONE',  ( -24.99999999999999289, 3.000000000000000000, 15.35857157145714780 ) ) ;
#316 = FILL_AREA_STYLE_COLOUR ( '', #86 ) ;
#317 = CARTESIAN_POINT ( 'NONE',  ( -40.54355352645197286, 1.097590011563595924, 15.54355352645193378 ) ) ;
#318 = CARTESIAN_POINT ( 'NONE',  ( -28.99608840999094284, 3.000000000000000444, 14.96887102213109522 ) ) ;
#319 = CARTESIAN_POINT ( 'NONE',  ( -25.00000000000000000, 2.219544457292886630, -20.11952385715239089 ) ) ;
#320 = PRODUCT_CONTEXT ( 'NONE', #387, 'mechanical' ) ;
#321 = CARTESIAN_POINT ( 'NONE',  ( -40.93382776419480251, 0.5487950057817966298, 15.93382776419476343 ) ) ;
#322 = SHAPE_REPRESENTATION ( 'eye_collision', ( #527, #87 ), #25 ) ;
#323 =( LENGTH_UNIT ( ) NAMED_UNIT ( * ) SI_UNIT ( .MILLI., .METRE. ) );
#324 = CARTESIAN_POINT ( 'NONE',  ( -25.00000000000000355, 0.5487950057817960747, -22.53383532464126660 ) ) ;
#325 = CARTESIAN_POINT ( 'NONE',  ( -16.16545965816256469, -2.235468396877318569E-16, 21.32846711059599443 ) ) ;
#326 =( NAMED_UNIT ( * ) PLANE_ANGLE_UNIT ( ) SI_UNIT ( $, .RADIAN. ) );
#327 = CARTESIAN_POINT ( 'NONE',  ( -4.181450754584107976, 0.5487950057817980731, -8.623325446383407922 ) ) ;
#328 = SURFACE_STYLE_USAGE ( .BOTH. , #45 ) ;
#329 = CARTESIAN_POINT ( 'NONE',  ( -10.40297068113009438, 2.219544457292886630, -14.59702931886992694 ) ) ;
#330 =( NAMED_UNIT ( * ) SI_UNIT ( $, .STERADIAN. ) SOLID_ANGLE_UNIT ( ) );
#331 = CARTESIAN_POINT ( 'NONE',  ( 0.000000000000000000, 0.000000000000000000, 0.000000000000000000 ) ) ;
#332 = CARTESIAN_POINT ( 'NONE',  ( -7.359009994566119595, 2.853681120105021840, 7.307137313938930845 ) ) ;
#333 = B_SPLINE_CURVE_WITH_KNOTS ( 'NONE', 5,
 ( #172, #266, #361, #319, #89, #16, #72, #354 ),
 .UNSPECIFIED., .F., .F.,
 ( 6, 2, 6 ),
 ( 0.000000000000000000, 0.5000000000000000000, 1.000000000000000000 ),
 .UNSPECIFIED. ) ;
#334 = CARTESIAN_POINT ( 'NONE',  ( -12.74204679657170836, 2.999999999999999112, -12.25795320342830941 ) ) ;
#335 = CARTESIAN_POINT ( 'NONE',  ( -4.356683166896467618, 2.219544457292887074, -6.998832067753749926E-15 ) ) ;
#336 = CARTESIAN_POINT ( 'NONE',  ( -10.40297068113010504, 2.219544457292883965, 14.59702931886993049 ) ) ;
#337 = MECHANICAL_DESIGN_GEOMETRIC_PRESENTATION_REPRESENTATION (  '', ( #202 ), #73 ) ;
#338 = CARTESIAN_POINT ( 'NONE',  ( -27.80403685030982075, 1.097590011563597034, 21.42414659646560438 ) ) ;
#339 = CARTESIAN_POINT ( 'NONE',  ( -39.59702931886992872, 2.219544457292886186, -14.59702931886993582 ) ) ;
#340 = CARTESIAN_POINT ( 'NONE',  ( -4.691368619764261005, 1.097590011563601253, 8.412110550929471131 ) ) ;
#341 = CARTESIAN_POINT ( 'NONE',  ( -7.359009994566119595, 2.853681120105021840, 7.307137313938930845 ) ) ;
#342 = PRESENTATION_STYLE_ASSIGNMENT (( #18 ) ) ;
#343 = CARTESIAN_POINT ( 'NONE',  ( -17.10014465890784763, 2.219544457292889739, 19.07193790525004928 ) ) ;
#344 = APPLICATION_CONTEXT ( 'automotive_design' ) ;
#345 = CARTESIAN_POINT ( 'NONE',  ( -40.35867037840378657, 2.999999999999999556, 2.036176358514924623 ) ) ;
#346 = PRESENTATION_STYLE_ASSIGNMENT (( #164 ) ) ;
#347 = CARTESIAN_POINT ( 'NONE',  ( -27.94484678061245475, 7.664463075007999388E-16, 22.50000000000001421 ) ) ;
#348 = ORIENTED_EDGE ( 'NONE', *, *, #306, .F. ) ;
#349 = CARTESIAN_POINT ( 'NONE',  ( -24.99999999999999289, 3.000000000000000000, 15.35857157145714780 ) ) ;
#350 = B_SPLINE_CURVE_WITH_KNOTS ( 'NONE', 3,
 ( #412, #541, #325, #182, #534, #360, #459, #581, #186, #366, #143 ),
 .UNSPECIFIED., .F., .F.,
 ( 4, 1, 1, 1, 1, 1, 1, 1, 4 ),
 ( 0.000000000000000000, 0.06250000000000000000, 0.1250000000000000833, 0.1875000000000000278, 0.2500000000000000000, 0.3125000000000000000, 0.3750000000000000000, 0.4375000000000000000, 0.5000000000000000000 ),
 .UNSPECIFIED. ) ;
#351 = CARTESIAN_POINT ( 'NONE',  ( -12.74204679657172790, 2.999999999999999556, 12.25795320342830586 ) ) ;
#352 =( NAMED_UNIT ( * ) PLANE_ANGLE_UNIT ( ) SI_UNIT ( $, .RADIAN. ) );
#353 = CARTESIAN_POINT ( 'NONE',  ( -39.55887949455816965, 3.000000000000000000, 6.030485339601592720 ) ) ;
#354 = CARTESIAN_POINT ( 'NONE',  ( -25.00000000000000355, 3.000000000000000000, -15.35857157145715313 ) ) ;
#355 = PRODUCT_DEFINITION_SHAPE ( 'NONE', 'NONE',  #585 ) ;
#356 = CARTESIAN_POINT ( 'NONE',  ( -47.53383532464127370, 0.5487950057817949645, -3.867422124402019108E-14 ) ) ;
#357 = CARTESIAN_POINT ( 'NONE',  ( -22.98983822013280687, 2.999999999999999556, 15.35857157145714247 ) ) ;
#358 = CARTESIAN_POINT ( 'NONE',  ( -27.11074030151192105, 3.000000000000000000, 16.12703828826744967 ) ) ;
#359 = CARTESIAN_POINT ( 'NONE',  ( -33.83454034183737491, -1.511176636289074103E-15, -21.32846711059602995 ) ) ;
#360 = CARTESIAN_POINT ( 'NONE',  ( -1.914233555298014755, -5.358737099943081626E-16, -8.254896540813260297E-15 ) ) ;
#361 = CARTESIAN_POINT ( 'NONE',  ( -25.00000000000000711, 1.097590011563596812, -21.42414659646560438 ) ) ;
#362 = CARTESIAN_POINT ( 'NONE',  ( -22.05515321938753814, -2.501169783477605357E-15, 22.49999999999999289 ) ) ;
#363 = CARTESIAN_POINT ( 'NONE',  ( -24.99999999999999289, 3.000000000000000000, 15.35857157145714780 ) ) ;
#364 = CARTESIAN_POINT ( 'NONE',  ( -22.12555818453885337, 0.5487950057817965188, 21.96207329823278798 ) ) ;
#365 = CARTESIAN_POINT ( 'NONE',  ( -46.32846711059602285, 2.796251611865412810E-15, -8.834540341837376687 ) ) ;
#366 = CARTESIAN_POINT ( 'NONE',  ( -22.05515321938754170, -2.708110286502820837E-16, -22.50000000000000000 ) ) ;
#367 = CARTESIAN_POINT ( 'NONE',  ( -24.99999999999999289, -8.673617379884027583E-16, 22.50000000000000355 ) ) ;
#368 = DIRECTION ( 'NONE',  ( 0.000000000000000000, 0.000000000000000000, 1.000000000000000000 ) ) ;
#369 = FILL_AREA_STYLE ('',( #178 ) ) ;
#370 = EDGE_CURVE ( 'NONE', #31, #115, #350, .T. ) ;
#371 = CARTESIAN_POINT ( 'NONE',  ( -9.066172235805227686, 0.5487950057817970739, 15.93382776419481672 ) ) ;
#372 = CARTESIAN_POINT ( 'NONE',  ( -3.018095795419484251, 1.097590011563598589, -8.526871352900017761E-15 ) ) ;
#373 = CARTESIAN_POINT ( 'NONE',  ( -45.81854924541585916, 0.5487950057818034022, 8.623325446383484305 ) ) ;
#374 = CARTESIAN_POINT ( 'NONE',  ( -4.356683166896467618, 2.219544457292887074, -6.998832067753749926E-15 ) ) ;
#375 = CARTESIAN_POINT ( 'NONE',  ( -1.914233555298014755, -5.358737099943081626E-16, -8.254896540813260297E-15 ) ) ;
#376 = PRESENTATION_STYLE_ASSIGNMENT (( #181 ) ) ;
#377 = CARTESIAN_POINT ( 'NONE',  ( -41.01578768078716308, 2.999999999999998668, -6.633956469469984185 ) ) ;
#378 = CARTESIAN_POINT ( 'NONE',  ( -25.00000000000001066, 2.853681120105023616, -19.09446998731770861 ) ) ;
#379 = CARTESIAN_POINT ( 'NONE',  ( -27.21131882315665962, 3.000000000000000000, 16.89550500507773378 ) ) ;
#380 = CARTESIAN_POINT ( 'NONE',  ( -31.63395646946996109, 3.000000000000000888, 16.01578768078718795 ) ) ;
#381 = CARTESIAN_POINT ( 'NONE',  ( -25.00000000000000711, 3.000000000000000444, -17.33536366722301736 ) ) ;
#382 = MECHANICAL_DESIGN_GEOMETRIC_PRESENTATION_REPRESENTATION (  '', ( #484 ), #98 ) ;
#383 = CARTESIAN_POINT ( 'NONE',  ( -9.456446473548041354, 1.097590011563598811, -15.54355352645197996 ) ) ;
#384 = UNCERTAINTY_MEASURE_WITH_UNIT (LENGTH_MEASURE( 1.000000000000000082E-05 ), #579, 'distance_accuracy_value', 'NONE');
#385 = CARTESIAN_POINT ( 'NONE',  ( -25.00000000000000000, -4.336808689942018722E-16, -22.50000000000000355 ) ) ;
#386 = CARTESIAN_POINT ( 'NONE',  ( -24.99999999999999289, 1.097590011563596368, 21.42414659646559727 ) ) ;
#387 = APPLICATION_CONTEXT ( 'automotive_design' ) ;
#388 = CARTESIAN_POINT ( 'NONE',  ( -10.40297068113010504, 2.219544457292883965, 14.59702931886993049 ) ) ;
#389 =( GEOMETRIC_REPRESENTATION_CONTEXT ( 3 ) GLOBAL_UNCERTAINTY_ASSIGNED_CONTEXT ( ( #298 ) ) GLOBAL_UNIT_ASSIGNED_CONTEXT ( ( #480, #352, #252 ) ) REPRESENTATION_CONTEXT ( 'NONE', 'WORKASPACE' ) );
#390 = AXIS2_PLACEMENT_3D ( 'NONE', #402, #410, #570 ) ;
#391 = CARTESIAN_POINT ( 'NONE',  ( -38.41016767999418846, 2.999999999999999556, -7.758614735621430114 ) ) ;
#392 =( GEOMETRIC_REPRESENTATION_CONTEXT ( 3 ) GLOBAL_UNCERTAINTY_ASSIGNED_CONTEXT ( ( #209 ) ) GLOBAL_UNIT_ASSIGNED_CONTEXT ( ( #284, #90, #51 ) ) REPRESENTATION_CONTEXT ( 'NONE', 'WORKASPACE' ) );
#393 = ADVANCED_BREP_SHAPE_REPRESENTATION ( '', ( #170, #390 ), #57 ) ;
#394 = DIRECTION ( 'NONE',  ( 0.000000000000000000, -0.000000000000000000, 1.000000000000000000 ) ) ;
#395 = VERTEX_POINT ( 'NONE', #134 ) ;
#396 = CARTESIAN_POINT ( 'NONE',  ( -24.99999999999999289, 3.000000000000000000, 16.89550500507772668 ) ) ;
#397 = PRODUCT_DEFINITION_CONTEXT ( 'detailed design', #344, 'design' ) ;
#398 = CARTESIAN_POINT ( 'NONE',  ( -25.00000000000000355, 3.000000000000000000, -15.35857157145715313 ) ) ;
#399 = SURFACE_STYLE_FILL_AREA ( #435 ) ;
#400 = CARTESIAN_POINT ( 'NONE',  ( -31.33222090453576669, 3.000000000000000000, -15.28733358767267170 ) ) ;
#401 = CARTESIAN_POINT ( 'NONE',  ( -9.241582390093359578, 2.999999999999999556, -5.532543401676708811E-15 ) ) ;
#402 = CARTESIAN_POINT ( 'NONE',  ( 0.000000000000000000, 0.000000000000000000, 0.000000000000000000 ) ) ;
#403 = CARTESIAN_POINT ( 'NONE',  ( -24.99999999999999289, 1.097590011563596368, 21.42414659646559727 ) ) ;
#404 = CARTESIAN_POINT ( 'NONE',  ( -31.03048533960151900, 3.000000000000000888, 14.55887949455821051 ) ) ;
#405 = CARTESIAN_POINT ( 'NONE',  ( -41.54689063856482534, 3.000000000000000000, -2.854266469276983162E-14 ) ) ;
#406 = CARTESIAN_POINT ( 'NONE',  ( -41.32410200193763927, -3.452201910034844005E-15, 16.32410200193759664 ) ) ;
#407 = CARTESIAN_POINT ( 'NONE',  ( -45.81854924541585916, 0.5487950057818034022, 8.623325446383484305 ) ) ;
#408 = CARTESIAN_POINT ( 'NONE',  ( -32.75869035920420913, 3.000000000000000444, -13.41035025140031500 ) ) ;
#409 = CARTESIAN_POINT ( 'NONE',  ( -24.99999999999999289, 3.000000000000000000, 16.89550500507772668 ) ) ;
#410 = DIRECTION ( 'NONE',  ( 0.000000000000000000, 0.000000000000000000, 1.000000000000000000 ) ) ;
#411 = CARTESIAN_POINT ( 'NONE',  ( -27.80403685030982075, 1.097590011563597034, 21.42414659646560438 ) ) ;
#412 = CARTESIAN_POINT ( 'NONE',  ( -24.99999999999999645, -4.336808689942013792E-16, 22.50000000000000355 ) ) ;
#413 = CARTESIAN_POINT ( 'NONE',  ( -4.181450754584115970, 0.5487950057817998495, 8.623325446383422133 ) ) ;
#414 =( NAMED_UNIT ( * ) PLANE_ANGLE_UNIT ( ) SI_UNIT ( $, .RADIAN. ) );
#415 = CARTESIAN_POINT ( 'NONE',  ( -34.42042586373549540, 3.000000000000000444, 12.30001408540716490 ) ) ;
#416 = MECHANICAL_DESIGN_GEOMETRIC_PRESENTATION_REPRESENTATION (  '', ( #64 ), #571 ) ;
#417 =( NAMED_UNIT ( * ) PLANE_ANGLE_UNIT ( ) SI_UNIT ( $, .RADIAN. ) );
#418 = ADVANCED_FACE ( 'NONE', ( #499 ), #88, .T. ) ;
#419 = CARTESIAN_POINT ( 'NONE',  ( -33.62332544638337595, 0.5487950057818079541, 20.81854924541591600 ) ) ;
#420 = CARTESIAN_POINT ( 'NONE',  ( -16.16545965816262154, 2.068127619739654579E-15, -21.32846711059601930 ) ) ;
#421 = CARTESIAN_POINT ( 'NONE',  ( -27.94484678061245475, 7.664463075007999388E-16, 22.50000000000001421 ) ) ;
#422 = CARTESIAN_POINT ( 'NONE',  ( -32.89985534109207066, 2.219544457292890627, 19.07193790525010968 ) ) ;
#423 = CARTESIAN_POINT ( 'NONE',  ( -46.32846711059601574, -9.746642210385156353E-16, 8.834540341837440636 ) ) ;
#424 = APPLICATION_PROTOCOL_DEFINITION ( 'draft international standard', 'automotive_design', 1998, #387 ) ;
#425 = AXIS2_PLACEMENT_3D ( 'NONE', #438, #566, #394 ) ;
#426 = CARTESIAN_POINT ( 'NONE',  ( -22.56428756202035046, 2.853681120105022728, 18.60997666002308648 ) ) ;
#427 = CARTESIAN_POINT ( 'NONE',  ( -3.018095795419484251, 1.097590011563598589, -8.526871352900017761E-15 ) ) ;
#428 = CARTESIAN_POINT ( 'NONE',  ( -45.64331683310355459, 2.219544457292883077, -3.868239185414216572E-14 ) ) ;
#429 = CARTESIAN_POINT ( 'NONE',  ( -24.99999999999999289, 2.219544457292886186, 20.11952385715238378 ) ) ;
#430 = CARTESIAN_POINT ( 'NONE',  ( -17.69286268606103008, 2.853681120105023172, 17.64099000543386353 ) ) ;
#431 = CARTESIAN_POINT ( 'NONE',  ( -27.63328511369736518, 2.219544457292886186, 20.11952385715239444 ) ) ;
#432 = CARTESIAN_POINT ( 'NONE',  ( -10.44112050544181791, 3.000000000000000000, -6.030485339601538541 ) ) ;
#433 = COLOUR_RGB ( '',0.000000000000000000, 0.000000000000000000, 0.000000000000000000 ) ;
#434 = CARTESIAN_POINT ( 'NONE',  ( -16.58788944907052354, 1.097590011563603030, -20.30863138023571679 ) ) ;
#435 = FILL_AREA_STYLE ('',( #261 ) ) ;
#436 = CARTESIAN_POINT ( 'NONE',  ( -27.21131882315665962, 3.000000000000000000, 16.89550500507773378 ) ) ;
#437 = CARTESIAN_POINT ( 'NONE',  ( -34.42028612965144418, 3.000000000000000444, -12.29987435126861506 ) ) ;
#438 = CARTESIAN_POINT ( 'NONE',  ( -25.00000000000000000, 3.000000000000000000, 0.000000000000000000 ) ) ;
#439 = CARTESIAN_POINT ( 'NONE',  ( -36.70041857808141117, 2.999999999999999112, 11.70041857808136321 ) ) ;
#440 = CARTESIAN_POINT ( 'NONE',  ( -13.85711604726551371, 3.000000000000000444, -11.14288395273449694 ) ) ;
#441 = PRODUCT ( 'eye_collision', 'eye_collision', '', ( #277 ) ) ;
#442 = CARTESIAN_POINT ( 'NONE',  ( -25.00000000000000000, -4.336808689942018722E-16, -22.50000000000000355 ) ) ;
#443 = FACE_OUTER_BOUND ( 'NONE', #121, .T. ) ;
#444 = CARTESIAN_POINT ( 'NONE',  ( -37.29987435129707052, 3.000000000000000888, 9.420286129625390359 ) ) ;
#445 = CARTESIAN_POINT ( 'NONE',  ( -36.14288395273448629, 3.000000000000000000, -11.14288395273449694 ) ) ;
#446 = CARTESIAN_POINT ( 'NONE',  ( -24.99999999999999289, 3.000000000000000000, 16.12703828826744257 ) ) ;
#447 = CARTESIAN_POINT ( 'NONE',  ( -36.70041857808141117, 2.999999999999999112, 11.70041857808136321 ) ) ;
#448 = CARTESIAN_POINT ( 'NONE',  ( -21.00367296528439454, 3.000000000000000444, -14.96877216697335200 ) ) ;
#449 = EDGE_CURVE ( 'NONE', #395, #567, #183, .T. ) ;
#450 = CARTESIAN_POINT ( 'NONE',  ( -24.99999999999999289, -8.673617379884027583E-16, 22.50000000000000355 ) ) ;
#451 = CARTESIAN_POINT ( 'NONE',  ( -13.85711604726551371, 3.000000000000000444, -11.14288395273449694 ) ) ;
#452 = STYLED_ITEM ( 'NONE', ( #538 ), #418 ) ;
#453 = CARTESIAN_POINT ( 'NONE',  ( -24.99999999999999289, 3.000000000000000000, 15.35857157145714780 ) ) ;
#454 = PRESENTATION_STYLE_ASSIGNMENT (( #502 ) ) ;
#455 = FILL_AREA_STYLE ('',( #270 ) ) ;
#456 = CARTESIAN_POINT ( 'NONE',  ( -40.93382776419479541, 0.5487950057817988503, -15.93382776419480962 ) ) ;
#457 = DIRECTION ( 'NONE',  ( 1.000000000000000000, 0.000000000000000000, 0.000000000000000000 ) ) ;
#458 = CARTESIAN_POINT ( 'NONE',  ( -3.671532889403971378, -2.300616333014895990E-15, 8.834540341837373134 ) ) ;
#459 = CARTESIAN_POINT ( 'NONE',  ( -3.671532889403968269, -7.600592549382917550E-16, -8.834540341837358923 ) ) ;
#460 = FACE_OUTER_BOUND ( 'NONE', #117, .T. ) ;
#461 = CLOSED_SHELL ( 'NONE', ( #260, #418, #48, #65 ) ) ;
#462 = CARTESIAN_POINT ( 'NONE',  ( -16.37667455361657431, 0.5487950057818032912, -20.81854924541586627 ) ) ;
#463 = CARTESIAN_POINT ( 'NONE',  ( 0.000000000000000000, 0.000000000000000000, 0.000000000000000000 ) ) ;
#464 = CARTESIAN_POINT ( 'NONE',  ( -22.12555818453885337, 0.5487950057817965188, 21.96207329823278798 ) ) ;
#465 = FILL_AREA_STYLE ('',( #274 ) ) ;
#466 = CARTESIAN_POINT ( 'NONE',  ( -17.69286268606106205, 2.853681120105020064, -17.64099000543387419 ) ) ;
#467 = CARTESIAN_POINT ( 'NONE',  ( -42.33536366722302091, 3.000000000000000000, -2.940602582899197644E-14 ) ) ;
#468 = CARTESIAN_POINT ( 'NONE',  ( -45.30863138023570258, 1.097590011563605694, 8.412110550929529751 ) ) ;
#469 = CARTESIAN_POINT ( 'NONE',  ( -32.30713731393891663, 2.853681120105024061, -17.64099000543387419 ) ) ;
#470 = CARTESIAN_POINT ( 'NONE',  ( -38.50182921119537838, 2.853681120105016511, -13.50182921119537838 ) ) ;
#471 = CARTESIAN_POINT ( 'NONE',  ( -22.36671488630262417, 2.219544457292885742, 20.11952385715237313 ) ) ;
#472 = CARTESIAN_POINT ( 'NONE',  ( -44.07193790525005994, 2.219544457292892403, -7.899855341092094640 ) ) ;
#473 = CARTESIAN_POINT ( 'NONE',  ( -42.64099000543388485, 2.853681120105017399, 7.307137313938988576 ) ) ;
#474 = CARTESIAN_POINT ( 'NONE',  ( -42.64099000543387064, 2.853681120105018287, -7.307137313938933509 ) ) ;
#475 = MECHANICAL_DESIGN_GEOMETRIC_PRESENTATION_REPRESENTATION (  '', ( #452 ), #278 ) ;
#476 = CARTESIAN_POINT ( 'NONE',  ( -24.99999999999999645, 2.853681120105022728, 18.60997666002309359 ) ) ;
#477 = CARTESIAN_POINT ( 'NONE',  ( -42.64099000543388485, 2.853681120105017399, 7.307137313938988576 ) ) ;
#478 = CARTESIAN_POINT ( 'NONE',  ( -28.99625141117603988, 3.000000000000000444, -14.96858959555763491 ) ) ;
#479 =( NAMED_UNIT ( * ) SI_UNIT ( $, .STERADIAN. ) SOLID_ANGLE_UNIT ( ) );
#480 =( LENGTH_UNIT ( ) NAMED_UNIT ( * ) SI_UNIT ( .MILLI., .METRE. ) );
#481 = CARTESIAN_POINT ( 'NONE',  ( -24.99999999999999289, 3.000000000000000000, 16.12703828826744257 ) ) ;
#482 = CARTESIAN_POINT ( 'NONE',  ( -24.99999999999999289, 3.000000000000000000, 16.12703828826744257 ) ) ;
#483 = CARTESIAN_POINT ( 'NONE',  ( -12.69998591460489479, 2.999999999999999556, 9.420425863747560413 ) ) ;
#484 = STYLED_ITEM ( 'NONE', ( #53 ), #260 ) ;
#485 = CARTESIAN_POINT ( 'NONE',  ( -24.99999999999999289, 2.219544457292886186, 20.11952385715238378 ) ) ;
#486 = CARTESIAN_POINT ( 'NONE',  ( -31.03048533960155098, 3.000000000000000000, -14.55887949455817854 ) ) ;
#487 = CARTESIAN_POINT ( 'NONE',  ( -31.33222090453576669, 3.000000000000000000, -15.28733358767267170 ) ) ;
#488 = B_SPLINE_SURFACE_WITH_KNOTS ( 'NONE', 5, 3, ( 
 ( #185, #533, #138, #133, #279, #543, #365, #540, #235, #272, #420, #275, #264, #130, #458, #174, #146, #362, #450 ),
 ( #141, #38, #419, #321, #407, #356, #537, #156, #530, #324, #189, #91, #327, #505, #97, #227, #42, #464, #224 ),
 ( #50, #411, #575, #317, #498, #85, #269, #553, #11, #246, #111, #60, #292, #372, #510, #54, #157, #1, #544 ),
 ( #107, #191, #422, #196, #290, #428, #193, #339, #4, #512, #148, #329, #506, #374, #101, #336, #154, #471, #239 ),
 ( #546, #198, #58, #150, #473, #287, #14, #282, #469, #200, #466, #285, #244, #52, #332, #236, #430, #426, #242 ),
 ( #9, #379, #508, #104, #550, #467, #377, #109, #548, #381, #152, #334, #83, #492, #119, #351, #123, #226, #409 ),
 ( #176, #358, #259, #447, #132, #405, #81, #263, #487, #204, #214, #577, #77, #307, #302, #311, #255, #40, #482 ),
 ( #453, #535, #532, #496, #501, #35, #525, #445, #33, #222, #218, #440, #432, #401, #573, #180, #569, #135, #315 ) ),
 .UNSPECIFIED., .F., .T., .F.,
 ( 6, 2, 6 ),
 ( 4, 1, 1, 1, 1, 1, 1, 1, 1, 1, 1, 1, 1, 1, 1, 1, 4 ),
 ( 0.000000000000000000, 0.5000000000000000000, 1.000000000000000000 ),
 ( -3.141592653589793116, -2.748893571891068976, -2.356194490192345281, -1.963495408493620475, -1.570796326794896558, -1.178097245096172418, -0.7853981633974482790, -0.3926990816987241395, 0.000000000000000000, 0.3926990816987241395, 0.7853981633974482790, 1.178097245096172418, 1.570796326794896558, 1.963495408493620475, 2.356194490192344393, 2.748893571891068976, 3.141592653589793116 ),
 .UNSPECIFIED. ) ;
#489 = CARTESIAN_POINT ( 'NONE',  ( -21.00374858884102736, 3.000000000000000444, 14.96858959557231827 ) ) ;
#490 = ORIENTED_EDGE ( 'NONE', *, *, #370, .T. ) ;
#491 = CARTESIAN_POINT ( 'NONE',  ( -36.14288395273449339, 2.999999999999999112, 11.14288395273446319 ) ) ;
#492 = CARTESIAN_POINT ( 'NONE',  ( -7.664636332776978200, 2.999999999999999556, -7.434895935005816390E-15 ) ) ;
#493 =( LENGTH_UNIT ( ) NAMED_UNIT ( * ) SI_UNIT ( .MILLI., .METRE. ) );
#494 = SURFACE_SIDE_STYLE ('',( #313 ) ) ;
#495 = CARTESIAN_POINT ( 'NONE',  ( -18.66777909546419778, 3.000000000000000444, 15.28733358767265749 ) ) ;
#496 = CARTESIAN_POINT ( 'NONE',  ( -36.14288395273449339, 2.999999999999999112, 11.14288395273446319 ) ) ;
#497 = FILL_AREA_STYLE ('',( #316 ) ) ;
#498 = CARTESIAN_POINT ( 'NONE',  ( -45.30863138023570258, 1.097590011563605694, 8.412110550929529751 ) ) ;
#499 = FACE_OUTER_BOUND ( 'NONE', #26, .T. ) ;
#500 = STYLED_ITEM ( 'NONE', ( #342 ), #48 ) ;
#501 = CARTESIAN_POINT ( 'NONE',  ( -39.55887949455816965, 3.000000000000000000, 6.030485339601592720 ) ) ;
#502 = SURFACE_STYLE_USAGE ( .BOTH. , #494 ) ;
#503 = CARTESIAN_POINT ( 'NONE',  ( -16.16545965816256469, -2.235468396877318569E-16, 21.32846711059599443 ) ) ;
#504 =( NAMED_UNIT ( * ) PLANE_ANGLE_UNIT ( ) SI_UNIT ( $, .RADIAN. ) );
#505 = CARTESIAN_POINT ( 'NONE',  ( -2.466164675358748948, 0.5487950057817994054, -8.913803837529954930E-15 ) ) ;
#506 = CARTESIAN_POINT ( 'NONE',  ( -5.928062094749913413, 2.219544457292886630, -7.899855341092085759 ) ) ;
#507 = CARTESIAN_POINT ( 'NONE',  ( -41.32410200193763217, -2.923353957859295516E-15, -16.32410200193764283 ) ) ;
#508 = CARTESIAN_POINT ( 'NONE',  ( -31.63395646946996109, 3.000000000000000888, 16.01578768078718795 ) ) ;
#509 = CARTESIAN_POINT ( 'NONE',  ( -45.81854924541586627, 0.5487950057818017369, -8.623325446383427462 ) ) ;
#510 = CARTESIAN_POINT ( 'NONE',  ( -4.691368619764261005, 1.097590011563601253, 8.412110550929471131 ) ) ;
#511 = CARTESIAN_POINT ( 'NONE',  ( -11.49817078880464827, 2.853681120105018731, -13.50182921119537127 ) ) ;
#512 = CARTESIAN_POINT ( 'NONE',  ( -25.00000000000000711, 2.219544457292884410, -20.64331683310354748 ) ) ;
#513 = CARTESIAN_POINT ( 'NONE',  ( -24.99999999999999645, 0.5487950057817975180, 21.96207329823279863 ) ) ;
#514 = CARTESIAN_POINT ( 'NONE',  ( -40.54355352645197286, 1.097590011563595924, 15.54355352645193378 ) ) ;
#515 = UNCERTAINTY_MEASURE_WITH_UNIT (LENGTH_MEASURE( 1.000000000000000082E-05 ), #493, 'distance_accuracy_value', 'NONE');
#516 = ORIENTED_EDGE ( 'NONE', *, *, #545, .T. ) ;
#517 = CARTESIAN_POINT ( 'NONE',  ( -11.49817078880465715, 2.853681120105019176, 13.50182921119537305 ) ) ;
#518 = CARTESIAN_POINT ( 'NONE',  ( -10.44112050544183035, 3.000000000000000444, 6.030485339601545647 ) ) ;
#519 = PRODUCT_DEFINITION_CONTEXT ( 'detailed design', #288, 'design' ) ;
#520 = EDGE_LOOP ( 'NONE', ( #160, #516, #564, #348 ) ) ;
#521 = CARTESIAN_POINT ( 'NONE',  ( -37.25795320342829342, 3.000000000000000000, -12.25795320342829875 ) ) ;
#522 = CARTESIAN_POINT ( 'NONE',  ( -24.99999999999999289, -8.673617379884027583E-16, 22.50000000000000355 ) ) ;
#523 = CARTESIAN_POINT ( 'NONE',  ( -24.99999999999999645, -4.336808689942013792E-16, 22.50000000000000355 ) ) ;
#524 = CARTESIAN_POINT ( 'NONE',  ( -22.78868117684332972, 2.999999999999999556, 16.89550500507771602 ) ) ;
#525 = CARTESIAN_POINT ( 'NONE',  ( -39.55887949455816965, 3.000000000000000000, -6.030485339601550088 ) ) ;
#526 = CARTESIAN_POINT ( 'NONE',  ( -25.00000000000000355, 3.000000000000000000, -15.35857157145715313 ) ) ;
#527 = AXIS2_PLACEMENT_3D ( 'NONE', #331, #238, #100 ) ;
#528 = CARTESIAN_POINT ( 'NONE',  ( -18.36604353053001404, 3.000000000000000000, -16.01578768078715242 ) ) ;
#529 = FILL_AREA_STYLE_COLOUR ( '', #22 ) ;
#530 = CARTESIAN_POINT ( 'NONE',  ( -33.62332544638342569, 0.5487950057817982952, -20.81854924541588403 ) ) ;
#531 = CARTESIAN_POINT ( 'NONE',  ( -25.00000000000000355, 3.000000000000000000, -15.35857157145715313 ) ) ;
#532 = CARTESIAN_POINT ( 'NONE',  ( -31.03048533960151900, 3.000000000000000888, 14.55887949455821051 ) ) ;
#533 = CARTESIAN_POINT ( 'NONE',  ( -27.94484678061245475, 7.664463075007999388E-16, 22.50000000000001421 ) ) ;
#534 = CARTESIAN_POINT ( 'NONE',  ( -3.671532889403971378, -2.300616333014895990E-15, 8.834540341837373134 ) ) ;
#535 = CARTESIAN_POINT ( 'NONE',  ( -27.01016177986718247, 3.000000000000000000, 15.35857157145715490 ) ) ;
#536 = CARTESIAN_POINT ( 'NONE',  ( -24.99999999999999289, 3.000000000000000000, 15.35857157145714780 ) ) ;
#537 = CARTESIAN_POINT ( 'NONE',  ( -45.81854924541586627, 0.5487950057818017369, -8.623325446383427462 ) ) ;
#538 = PRESENTATION_STYLE_ASSIGNMENT (( #228 ) ) ;
#539 = CARTESIAN_POINT ( 'NONE',  ( -24.99999999999999645, 0.5487950057817975180, 21.96207329823279863 ) ) ;
#540 = CARTESIAN_POINT ( 'NONE',  ( -41.32410200193763217, -2.923353957859295516E-15, -16.32410200193764283 ) ) ;
#541 = CARTESIAN_POINT ( 'NONE',  ( -22.05515321938753814, -2.501169783477605357E-15, 22.49999999999999289 ) ) ;
#542 = CARTESIAN_POINT ( 'NONE',  ( -8.675897998062398031, -6.700018138069488643E-16, 16.32410200193764638 ) ) ;
#543 = CARTESIAN_POINT ( 'NONE',  ( -48.08576644470200279, -3.057482061671934048E-15, -4.106003939963720901E-14 ) ) ;
#544 = CARTESIAN_POINT ( 'NONE',  ( -24.99999999999999289, 1.097590011563596368, 21.42414659646559727 ) ) ;
#545 = EDGE_CURVE ( 'NONE', #115, #31, #62, .T. ) ;
#546 = CARTESIAN_POINT ( 'NONE',  ( -24.99999999999999645, 2.853681120105022728, 18.60997666002309359 ) ) ;
#547 = CARTESIAN_POINT ( 'NONE',  ( -40.93382776419480251, 0.5487950057817966298, 15.93382776419476343 ) ) ;
#548 = CARTESIAN_POINT ( 'NONE',  ( -31.63395646946998241, 2.999999999999999556, -16.01578768078715953 ) ) ;
#549 = CARTESIAN_POINT ( 'NONE',  ( -32.89985534109207066, 2.219544457292890627, 19.07193790525010968 ) ) ;
#550 = CARTESIAN_POINT ( 'NONE',  ( -41.01578768078712756, 3.000000000000000000, 6.633956469470025930 ) ) ;
#551 = CARTESIAN_POINT ( 'NONE',  ( -5.928062094749926736, 2.219544457292887962, 7.899855341092096417 ) ) ;
#552 = PRESENTATION_LAYER_ASSIGNMENT (  '', '', ( #484 ) ) ;
#553 = CARTESIAN_POINT ( 'NONE',  ( -40.54355352645195154, 1.097590011563601031, -15.54355352645197819 ) ) ;
#554 = CARTESIAN_POINT ( 'NONE',  ( -41.01578768078712756, 3.000000000000000000, 6.633956469470025930 ) ) ;
#555 = CARTESIAN_POINT ( 'NONE',  ( -46.98190420458054462, 1.097590011563594592, -3.734513533084540970E-14 ) ) ;
#556 = UNCERTAINTY_MEASURE_WITH_UNIT (LENGTH_MEASURE( 1.000000000000000082E-05 ), #323, 'distance_accuracy_value', 'NONE');
#557 = CARTESIAN_POINT ( 'NONE',  ( -44.09446998731771572, 2.853681120105027169, -3.442278044388529570E-14 ) ) ;
#558 = ORIENTED_EDGE ( 'NONE', *, *, #449, .F. ) ;
#559 = PRODUCT_DEFINITION_FORMATION_WITH_SPECIFIED_SOURCE ( 'ANY', '', #126, .NOT_KNOWN. ) ;
#560 = CARTESIAN_POINT ( 'NONE',  ( -39.96877216696374546, 2.999999999999999556, -3.996327034758808683 ) ) ;
#561 = UNCERTAINTY_MEASURE_WITH_UNIT (LENGTH_MEASURE( 1.000000000000000082E-05 ), #195, 'distance_accuracy_value', 'NONE');
#562 = SURFACE_SIDE_STYLE ('',( #28 ) ) ;
#563 = CARTESIAN_POINT ( 'NONE',  ( -15.57957413626658649, 2.999999999999999556, -12.30001408540204899 ) ) ;
#564 = ORIENTED_EDGE ( 'NONE', *, *, #29, .T. ) ;
#565 = CARTESIAN_POINT ( 'NONE',  ( -40.28733358767266992, 3.000000000000000000, -6.332220904535767581 ) ) ;
#566 = DIRECTION ( 'NONE',  ( 0.000000000000000000, 1.000000000000000000, 0.000000000000000000 ) ) ;
#567 = VERTEX_POINT ( 'NONE', #398 ) ;
#568 = CARTESIAN_POINT ( 'NONE',  ( -31.33222090453573117, 3.000000000000000888, 15.28733358767269834 ) ) ;
#569 = CARTESIAN_POINT ( 'NONE',  ( -18.96951466039840994, 3.000000000000000444, 14.55887949455816965 ) ) ;
#570 = DIRECTION ( 'NONE',  ( 1.000000000000000000, 0.000000000000000000, 0.000000000000000000 ) ) ;
#571 =( GEOMETRIC_REPRESENTATION_CONTEXT ( 3 ) GLOBAL_UNCERTAINTY_ASSIGNED_CONTEXT ( ( #384 ) ) GLOBAL_UNIT_ASSIGNED_CONTEXT ( ( #579, #414, #46 ) ) REPRESENTATION_CONTEXT ( 'NONE', 'WORKASPACE' ) );
#572 = CARTESIAN_POINT ( 'NONE',  ( -9.241582390093359578, 2.999999999999999556, -5.532543401676708811E-15 ) ) ;
#573 = CARTESIAN_POINT ( 'NONE',  ( -10.44112050544183035, 3.000000000000000444, 6.030485339601545647 ) ) ;
#574 = CARTESIAN_POINT ( 'NONE',  ( -17.24130964077870232, 3.000000000000000444, 13.41035025138561387 ) ) ;
#575 = CARTESIAN_POINT ( 'NONE',  ( -33.41211055092943383, 1.097590011563606804, 20.30863138023577008 ) ) ;
#576 = CARTESIAN_POINT ( 'NONE',  ( -41.01578768078716308, 2.999999999999998668, -6.633956469469984185 ) ) ;
#577 = CARTESIAN_POINT ( 'NONE',  ( -13.29958142191860482, 3.000000000000000444, -11.70041857808140229 ) ) ;
#578 = SURFACE_STYLE_FILL_AREA ( #497 ) ;
#579 =( LENGTH_UNIT ( ) NAMED_UNIT ( * ) SI_UNIT ( .MILLI., .METRE. ) );
#580 = SURFACE_STYLE_FILL_AREA ( #455 ) ;
#581 = CARTESIAN_POINT ( 'NONE',  ( -8.675897998062374938, -1.628059698182946397E-15, -16.32410200193763927 ) ) ;
#582 = CARTESIAN_POINT ( 'NONE',  ( -48.08576644470200279, -3.057482061671934048E-15, -4.106003939963720901E-14 ) ) ;
#583 = B_SPLINE_CURVE_WITH_KNOTS ( 'NONE', 3,
 ( #531, #225, #478, #408, #437, #21, #391, #560, #163, #345, #305, #76, #444, #415, #273, #318, #231, #363 ),
 .UNSPECIFIED., .F., .F.,
 ( 4, 2, 2, 2, 2, 2, 2, 2, 4 ),
 ( 0.5000000000000000000, 0.5625000000000000000, 0.6250000000000000000, 0.6875000000000000000, 0.7500000000000000000, 0.8125000000000000000, 0.8749999999999998890, 0.9374999999999998890, 1.000000000000000000 ),
 .UNSPECIFIED. ) ;
#584 = CARTESIAN_POINT ( 'NONE',  ( -4.181450754584107976, 0.5487950057817980731, -8.623325446383407922 ) ) ;
#585 = NEXT_ASSEMBLY_USAGE_OCCURRENCE ( 'NAUO1', ' ', ' ', #280, #201, $ ) ;
ENDSEC;
END-ISO-10303-21;
