ISO-10303-21;
HEADER;
FILE_DESCRIPTION (( 'STEP AP214' ),
    '1' );
FILE_NAME ('Cross_2.STEP',
    '2026-07-23T11:08:37',
    ( '' ),
    ( '' ),
    'SwSTEP 2.0',
    'SolidWorks 2026',
    '' );
FILE_SCHEMA (( 'AUTOMOTIVE_DESIGN' ));
ENDSEC;

DATA;
#1 = VECTOR ( 'NONE', #32, 1000.000000000000000 ) ;
#2 = CARTESIAN_POINT ( 'NONE',  ( 1.091936271279522164E-15, 40.00000000000000000, 16.01283874151143749 ) ) ;
#3 = ORIENTED_EDGE ( 'NONE', *, *, #217, .F. ) ;
#4 = DIRECTION ( 'NONE',  ( 0.000000000000000000, 0.000000000000000000, -1.000000000000000000 ) ) ;
#5 = ORIENTED_EDGE ( 'NONE', *, *, #6, .T. ) ;
#6 = EDGE_CURVE ( 'NONE', #390, #300, #222, .T. ) ;
#7 = CARTESIAN_POINT ( 'NONE',  ( -16.25163647627097063, 0.000000000000000000, -0.6485145421598406124 ) ) ;
#8 = VERTEX_POINT ( 'NONE', #351 ) ;
#9 = CARTESIAN_POINT ( 'NONE',  ( 6.862037974234090356E-15, 40.00000000000000000, -17.01283874151146236 ) ) ;
#10 = CIRCLE ( 'NONE', #301, 11.06826694000001510 ) ;
#11 = ORIENTED_EDGE ( 'NONE', *, *, #217, .T. ) ;
#12 = CARTESIAN_POINT ( 'NONE',  ( 1.091936271279522164E-15, 40.00000000000000000, 17.01283874151143749 ) ) ;
#13 = CARTESIAN_POINT ( 'NONE',  ( 7.826446609256860754, 40.00000000000000000, -7.826446609256867859 ) ) ;
#14 = ADVANCED_FACE ( 'NONE', ( #86 ), #118, .T. ) ;
#15 = DIRECTION ( 'NONE',  ( 0.000000000000000000, 1.000000000000000000, 0.000000000000000000 ) ) ;
#16 = ORIENTED_EDGE ( 'NONE', *, *, #140, .F. ) ;
#17 = CYLINDRICAL_SURFACE ( 'NONE', #202, 1.000000000000004441 ) ;
#18 = LINE ( 'NONE', #292, #321 ) ;
#19 = EDGE_CURVE ( 'NONE', #413, #220, #330, .T. ) ;
#20 = AXIS2_PLACEMENT_3D ( 'NONE', #127, #200, #261 ) ;
#21 = ORIENTED_EDGE ( 'NONE', *, *, #269, .T. ) ;
#22 = DIRECTION ( 'NONE',  ( 0.000000000000000000, 0.000000000000000000, 1.000000000000000000 ) ) ;
#23 = ORIENTED_EDGE ( 'NONE', *, *, #178, .F. ) ;
#24 = DIRECTION ( 'NONE',  ( -0.000000000000000000, -1.000000000000000000, -0.000000000000000000 ) ) ;
#25 = DIRECTION ( 'NONE',  ( -0.000000000000000000, -1.000000000000000000, -0.000000000000000000 ) ) ;
#26 = ADVANCED_FACE ( 'NONE', ( #251 ), #161, .T. ) ;
#27 = DIRECTION ( 'NONE',  ( 0.000000000000000000, 1.000000000000000000, 0.000000000000000000 ) ) ;
#28 = DIRECTION ( 'NONE',  ( 1.000000000000000000, 0.000000000000000000, 0.000000000000000000 ) ) ;
#29 = ORIENTED_EDGE ( 'NONE', *, *, #228, .F. ) ;
#30 = AXIS2_PLACEMENT_3D ( 'NONE', #199, #164, #298 ) ;
#31 = DIRECTION ( 'NONE',  ( -0.000000000000000000, -1.000000000000000000, -0.000000000000000000 ) ) ;
#32 = DIRECTION ( 'NONE',  ( -0.000000000000000000, -1.000000000000000000, -0.000000000000000000 ) ) ;
#33 = EDGE_CURVE ( 'NONE', #220, #97, #18, .T. ) ;
#34 = DIRECTION ( 'NONE',  ( 0.000000000000000000, 1.000000000000000000, -0.000000000000000000 ) ) ;
#35 = CARTESIAN_POINT ( 'NONE',  ( 0.6485145421598457194, 40.00000000000000000, 16.25163647627097774 ) ) ;
#36 = VERTEX_POINT ( 'NONE', #384 ) ;
#37 = VECTOR ( 'NONE', #62, 1000.000000000000000 ) ;
#38 = DIRECTION ( 'NONE',  ( 0.000000000000000000, 0.000000000000000000, -1.000000000000000000 ) ) ;
#39 = ORIENTED_EDGE ( 'NONE', *, *, #140, .T. ) ;
#40 = CYLINDRICAL_SURFACE ( 'NONE', #229, 11.06826694000000977 ) ;
#41 = VERTEX_POINT ( 'NONE', #123 ) ;
#42 = DIRECTION ( 'NONE',  ( 0.000000000000000000, 0.000000000000000000, 1.000000000000000000 ) ) ;
#43 = ORIENTED_EDGE ( 'NONE', *, *, #232, .F. ) ;
#44 = EDGE_CURVE ( 'NONE', #290, #407, #173, .T. ) ;
#45 = CARTESIAN_POINT ( 'NONE',  ( 0.000000000000000000, 0.000000000000000000, 0.000000000000000000 ) ) ;
#46 = CIRCLE ( 'NONE', #30, 11.06826694000000977 ) ;
#47 = AXIS2_PLACEMENT_3D ( 'NONE', #219, #348, #280 ) ;
#48 = DIRECTION ( 'NONE',  ( -0.000000000000000000, -1.000000000000000000, -0.000000000000000000 ) ) ;
#49 = DIRECTION ( 'NONE',  ( -0.000000000000000000, -1.000000000000000000, -0.000000000000000000 ) ) ;
#50 = ORIENTED_EDGE ( 'NONE', *, *, #58, .F. ) ;
#51 = EDGE_CURVE ( 'NONE', #36, #97, #166, .T. ) ;
#52 = DIRECTION ( 'NONE',  ( 0.000000000000000000, 0.000000000000000000, -1.000000000000000000 ) ) ;
#53 = DIRECTION ( 'NONE',  ( -0.000000000000000000, -1.000000000000000000, -0.000000000000000000 ) ) ;
#54 = DIRECTION ( 'NONE',  ( 0.000000000000000000, 0.000000000000000000, 1.000000000000000000 ) ) ;
#55 = CIRCLE ( 'NONE', #87, 11.06826694000000977 ) ;
#56 = DIRECTION ( 'NONE',  ( -0.000000000000000000, -1.000000000000000000, -0.000000000000000000 ) ) ;
#57 = CYLINDRICAL_SURFACE ( 'NONE', #326, 11.06826694000001510 ) ;
#58 = EDGE_CURVE ( 'NONE', #211, #400, #349, .T. ) ;
#59 = CARTESIAN_POINT ( 'NONE',  ( 7.826446609256882070, 40.00000000000000000, 7.826446609256855425 ) ) ;
#60 = VECTOR ( 'NONE', #273, 1000.000000000000000 ) ;
#61 = LINE ( 'NONE', #395, #192 ) ;
#62 = DIRECTION ( 'NONE',  ( -0.000000000000000000, -1.000000000000000000, -0.000000000000000000 ) ) ;
#63 =( LENGTH_UNIT ( ) NAMED_UNIT ( * ) SI_UNIT ( .MILLI., .METRE. ) );
#64 = AXIS2_PLACEMENT_3D ( 'NONE', #59, #92, #302 ) ;
#65 = CYLINDRICAL_SURFACE ( 'NONE', #107, 1.000000000000000888 ) ;
#66 = CARTESIAN_POINT ( 'NONE',  ( -17.01283874151143394, 40.00000000000000000, -1.620937895399138228E-15 ) ) ;
#67 = ORIENTED_EDGE ( 'NONE', *, *, #232, .T. ) ;
#68 = PRODUCT_RELATED_PRODUCT_CATEGORY ( 'part', '', ( #215 ) ) ;
#69 = DIRECTION ( 'NONE',  ( 0.000000000000000000, 0.000000000000000000, -1.000000000000000000 ) ) ;
#70 = ORIENTED_EDGE ( 'NONE', *, *, #269, .F. ) ;
#71 = CARTESIAN_POINT ( 'NONE',  ( -17.01283874151143394, 40.00000000000000000, -1.620937895399138228E-15 ) ) ;
#72 = ORIENTED_EDGE ( 'NONE', *, *, #438, .T. ) ;
#73 = DIRECTION ( 'NONE',  ( 0.000000000000000000, 0.000000000000000000, 1.000000000000000000 ) ) ;
#74 = EDGE_CURVE ( 'NONE', #400, #225, #46, .T. ) ;
#75 = ORIENTED_EDGE ( 'NONE', *, *, #235, .T. ) ;
#76 = ORIENTED_EDGE ( 'NONE', *, *, #289, .F. ) ;
#77 = DIRECTION ( 'NONE',  ( 0.000000000000000000, -0.000000000000000000, 1.000000000000000000 ) ) ;
#78 = CLOSED_SHELL ( 'NONE', ( #329, #386, #201, #204, #14, #267, #195, #378, #26, #370, #162, #373, #341 ) ) ;
#79 = ORIENTED_EDGE ( 'NONE', *, *, #241, .T. ) ;
#80 = EDGE_CURVE ( 'NONE', #41, #407, #358, .T. ) ;
#81 = APPLICATION_PROTOCOL_DEFINITION ( 'draft international standard', 'automotive_design', 1998, #250 ) ;
#82 = DIRECTION ( 'NONE',  ( 0.000000000000000000, 0.000000000000000000, -1.000000000000000000 ) ) ;
#83 = DIRECTION ( 'NONE',  ( 0.000000000000000000, -0.000000000000000000, 1.000000000000000000 ) ) ;
#84 = DIRECTION ( 'NONE',  ( 0.000000000000000000, 1.000000000000000000, -0.000000000000000000 ) ) ;
#85 = VECTOR ( 'NONE', #31, 1000.000000000000000 ) ;
#86 = FACE_OUTER_BOUND ( 'NONE', #376, .T. ) ;
#87 = AXIS2_PLACEMENT_3D ( 'NONE', #242, #239, #69 ) ;
#88 = PRODUCT_CONTEXT ( 'NONE', #250, 'mechanical' ) ;
#89 = CARTESIAN_POINT ( 'NONE',  ( 16.25163647627099905, 40.00000000000000000, -0.6485145421598664806 ) ) ;
#90 = DIRECTION ( 'NONE',  ( 0.000000000000000000, 0.000000000000000000, 1.000000000000000000 ) ) ;
#91 = CYLINDRICAL_SURFACE ( 'NONE', #293, 1.000000000000000888 ) ;
#92 = DIRECTION ( 'NONE',  ( 0.000000000000000000, 1.000000000000000000, -0.000000000000000000 ) ) ;
#93 = EDGE_CURVE ( 'NONE', #407, #36, #375, .T. ) ;
#94 = AXIS2_PLACEMENT_3D ( 'NONE', #154, #84, #224 ) ;
#95 =( NAMED_UNIT ( * ) PLANE_ANGLE_UNIT ( ) SI_UNIT ( $, .RADIAN. ) );
#96 = FACE_OUTER_BOUND ( 'NONE', #243, .T. ) ;
#97 = VERTEX_POINT ( 'NONE', #396 ) ;
#98 = CARTESIAN_POINT ( 'NONE',  ( -16.25163647627097419, 40.00000000000000000, 0.6485145421598415005 ) ) ;
#99 = PRODUCT_DEFINITION_CONTEXT ( 'detailed design', #180, 'design' ) ;
#100 = CARTESIAN_POINT ( 'NONE',  ( -7.826446609256869635, 40.00000000000000000, -18.89471354925689894 ) ) ;
#101 = AXIS2_PLACEMENT_3D ( 'NONE', #324, #48, #54 ) ;
#102 = DIRECTION ( 'NONE',  ( -0.000000000000000000, -1.000000000000000000, -0.000000000000000000 ) ) ;
#103 = CARTESIAN_POINT ( 'NONE',  ( -7.826446609256869635, 0.000000000000000000, -18.89471354925689894 ) ) ;
#104 = ORIENTED_EDGE ( 'NONE', *, *, #334, .T. ) ;
#105 = DIRECTION ( 'NONE',  ( -0.000000000000000000, -1.000000000000000000, 0.000000000000000000 ) ) ;
#106 = ORIENTED_EDGE ( 'NONE', *, *, #282, .F. ) ;
#107 = AXIS2_PLACEMENT_3D ( 'NONE', #340, #203, #4 ) ;
#108 = AXIS2_PLACEMENT_3D ( 'NONE', #170, #408, #371 ) ;
#109 = FACE_OUTER_BOUND ( 'NONE', #113, .T. ) ;
#110 = CIRCLE ( 'NONE', #47, 1.000000000000004441 ) ;
#111 = ORIENTED_EDGE ( 'NONE', *, *, #235, .F. ) ;
#112 = DIRECTION ( 'NONE',  ( 0.000000000000000000, 0.000000000000000000, -1.000000000000000000 ) ) ;
#113 = EDGE_LOOP ( 'NONE', ( #29, #254, #175, #177, #106, #16, #240, #409, #274, #342, #285 ) ) ;
#114 = FACE_OUTER_BOUND ( 'NONE', #260, .T. ) ;
#115 = ORIENTED_EDGE ( 'NONE', *, *, #421, .T. ) ;
#116 = DIRECTION ( 'NONE',  ( 0.000000000000000000, 1.000000000000000000, 0.000000000000000000 ) ) ;
#117 = STYLED_ITEM ( 'NONE', ( #197 ), #172 ) ;
#118 = CYLINDRICAL_SURFACE ( 'NONE', #236, 11.06826693999999733 ) ;
#119 = DIRECTION ( 'NONE',  ( 0.000000000000000000, 1.000000000000000000, 0.000000000000000000 ) ) ;
#120 = CARTESIAN_POINT ( 'NONE',  ( -7.826446609256878517, 40.00000000000000000, 7.826446609256878517 ) ) ;
#121 = ORIENTED_EDGE ( 'NONE', *, *, #282, .T. ) ;
#122 = CIRCLE ( 'NONE', #158, 1.000000000000001776 ) ;
#123 = CARTESIAN_POINT ( 'NONE',  ( -0.6485145421598423887, 40.00000000000000000, 16.25163647627097419 ) ) ;
#124 = CIRCLE ( 'NONE', #367, 11.06826694000000799 ) ;
#125 = ORIENTED_EDGE ( 'NONE', *, *, #80, .F. ) ;
#126 = EDGE_CURVE ( 'NONE', #220, #308, #393, .T. ) ;
#127 = CARTESIAN_POINT ( 'NONE',  ( 1.091936271279522164E-15, 0.000000000000000000, 17.01283874151143749 ) ) ;
#128 = EDGE_LOOP ( 'NONE', ( #388, #276, #433, #39 ) ) ;
#129 = CARTESIAN_POINT ( 'NONE',  ( 16.25163647627099905, 40.00000000000000000, -0.6485145421598664806 ) ) ;
#130 = DIRECTION ( 'NONE',  ( -0.000000000000000000, -1.000000000000000000, -0.000000000000000000 ) ) ;
#131 = EDGE_CURVE ( 'NONE', #97, #160, #10, .T. ) ;
#132 = SHAPE_DEFINITION_REPRESENTATION ( #364, #137 ) ;
#133 = CARTESIAN_POINT ( 'NONE',  ( -7.826446609256869635, 40.00000000000000000, -7.826446609256887399 ) ) ;
#134 = CIRCLE ( 'NONE', #426, 11.06826693999999733 ) ;
#135 = CIRCLE ( 'NONE', #150, 1.000000000000001776 ) ;
#136 = VERTEX_POINT ( 'NONE', #437 ) ;
#137 = ADVANCED_BREP_SHAPE_REPRESENTATION ( 'Cross_2', ( #172, #427 ), #279 ) ;
#138 = DIRECTION ( 'NONE',  ( -0.000000000000000000, -1.000000000000000000, -0.000000000000000000 ) ) ;
#139 = CARTESIAN_POINT ( 'NONE',  ( 17.01283874151146236, 0.000000000000000000, -2.435998796548432709E-14 ) ) ;
#140 = EDGE_CURVE ( 'NONE', #266, #300, #360, .T. ) ;
#141 = DIRECTION ( 'NONE',  ( -0.000000000000000000, -1.000000000000000000, -0.000000000000000000 ) ) ;
#142 = AXIS2_PLACEMENT_3D ( 'NONE', #133, #130, #262 ) ;
#143 = CARTESIAN_POINT ( 'NONE',  ( -0.6485145421598368376, 40.00000000000000000, -16.25163647627099905 ) ) ;
#144 = ORIENTED_EDGE ( 'NONE', *, *, #299, .T. ) ;
#145 = FACE_OUTER_BOUND ( 'NONE', #208, .T. ) ;
#146 = EDGE_LOOP ( 'NONE', ( #43, #159, #356, #346 ) ) ;
#147 = CARTESIAN_POINT ( 'NONE',  ( 6.862037974234090356E-15, 40.00000000000000000, -17.01283874151146236 ) ) ;
#148 = ORIENTED_EDGE ( 'NONE', *, *, #228, .T. ) ;
#149 = AXIS2_PLACEMENT_3D ( 'NONE', #394, #353, #90 ) ;
#150 = AXIS2_PLACEMENT_3D ( 'NONE', #317, #53, #185 ) ;
#151 = CYLINDRICAL_SURFACE ( 'NONE', #253, 1.000000000000001776 ) ;
#152 = VERTEX_POINT ( 'NONE', #163 ) ;
#153 = FACE_OUTER_BOUND ( 'NONE', #248, .T. ) ;
#154 = CARTESIAN_POINT ( 'NONE',  ( -7.826446609256878517, 0.000000000000000000, 7.826446609256878517 ) ) ;
#155 =( NAMED_UNIT ( * ) PLANE_ANGLE_UNIT ( ) SI_UNIT ( $, .RADIAN. ) );
#156 = ORIENTED_EDGE ( 'NONE', *, *, #74, .T. ) ;
#157 = DIRECTION ( 'NONE',  ( 0.000000000000000000, 0.000000000000000000, -1.000000000000000000 ) ) ;
#158 = AXIS2_PLACEMENT_3D ( 'NONE', #139, #402, #73 ) ;
#159 = ORIENTED_EDGE ( 'NONE', *, *, #429, .F. ) ;
#160 = VERTEX_POINT ( 'NONE', #297 ) ;
#161 = CYLINDRICAL_SURFACE ( 'NONE', #286, 11.06826694000000799 ) ;
#162 = ADVANCED_FACE ( 'NONE', ( #96 ), #431, .T. ) ;
#163 = CARTESIAN_POINT ( 'NONE',  ( 0.6485145421598501603, 0.000000000000000000, -16.25163647627100261 ) ) ;
#164 = DIRECTION ( 'NONE',  ( 0.000000000000000000, 1.000000000000000000, -0.000000000000000000 ) ) ;
#165 = ORIENTED_EDGE ( 'NONE', *, *, #33, .F. ) ;
#166 = CIRCLE ( 'NONE', #149, 1.000000000000000888 ) ;
#167 = PRODUCT_DEFINITION_FORMATION_WITH_SPECIFIED_SOURCE ( 'ANY', '', #215, .NOT_KNOWN. ) ;
#168 = DIRECTION ( 'NONE',  ( 0.000000000000000000, 0.000000000000000000, -1.000000000000000000 ) ) ;
#169 = LINE ( 'NONE', #275, #85 ) ;
#170 = CARTESIAN_POINT ( 'NONE',  ( 7.826446609256860754, 0.000000000000000000, -7.826446609256867859 ) ) ;
#171 = ORIENTED_EDGE ( 'NONE', *, *, #126, .F. ) ;
#172 = MANIFOLD_SOLID_BREP ( 'Boss-Extrude1', #78 ) ;
#173 = CIRCLE ( 'NONE', #94, 11.06826693999999733 ) ;
#174 = CARTESIAN_POINT ( 'NONE',  ( -7.826446609256869635, 40.00000000000000000, -7.826446609256887399 ) ) ;
#175 = ORIENTED_EDGE ( 'NONE', *, *, #74, .F. ) ;
#176 = CARTESIAN_POINT ( 'NONE',  ( 16.25163647627100261, 40.00000000000000000, 0.6485145421598189630 ) ) ;
#177 = ORIENTED_EDGE ( 'NONE', *, *, #421, .F. ) ;
#178 = EDGE_CURVE ( 'NONE', #181, #266, #397, .T. ) ;
#179 = PLANE ( 'NONE',  #332 ) ;
#180 = APPLICATION_CONTEXT ( 'automotive_design' ) ;
#181 = VERTEX_POINT ( 'NONE', #129 ) ;
#182 = EDGE_CURVE ( 'NONE', #258, #225, #61, .T. ) ;
#183 = VECTOR ( 'NONE', #369, 1000.000000000000000 ) ;
#184 = AXIS2_PLACEMENT_3D ( 'NONE', #416, #422, #157 ) ;
#185 = DIRECTION ( 'NONE',  ( 0.000000000000000000, 0.000000000000000000, 1.000000000000000000 ) ) ;
#186 = CARTESIAN_POINT ( 'NONE',  ( -7.826446609256869635, 40.00000000000000000, -7.826446609256887399 ) ) ;
#187 = PRODUCT_DEFINITION ( 'UNKNOWN', '', #167, #99 ) ;
#188 = VERTEX_POINT ( 'NONE', #98 ) ;
#189 = FACE_OUTER_BOUND ( 'NONE', #425, .T. ) ;
#190 = EDGE_LOOP ( 'NONE', ( #392, #76, #171, #382 ) ) ;
#191 = CARTESIAN_POINT ( 'NONE',  ( 7.826446609256860754, 40.00000000000000000, -7.826446609256867859 ) ) ;
#192 = VECTOR ( 'NONE', #138, 1000.000000000000000 ) ;
#193 = ORIENTED_EDGE ( 'NONE', *, *, #19, .F. ) ;
#194 = CARTESIAN_POINT ( 'NONE',  ( 7.826446609256860754, 40.00000000000000000, -18.89471354925687763 ) ) ;
#195 = ADVANCED_FACE ( 'NONE', ( #357 ), #57, .T. ) ;
#196 = CARTESIAN_POINT ( 'NONE',  ( 7.826446609256882070, 40.00000000000000000, 7.826446609256855425 ) ) ;
#197 = PRESENTATION_STYLE_ASSIGNMENT (( #361 ) ) ;
#198 = AXIS2_PLACEMENT_3D ( 'NONE', #374, #440, #245 ) ;
#199 = CARTESIAN_POINT ( 'NONE',  ( -7.826446609256869635, 0.000000000000000000, -7.826446609256887399 ) ) ;
#200 = DIRECTION ( 'NONE',  ( -0.000000000000000000, -1.000000000000000000, -0.000000000000000000 ) ) ;
#201 = ADVANCED_FACE ( 'NONE', ( #428 ), #91, .F. ) ;
#202 = AXIS2_PLACEMENT_3D ( 'NONE', #9, #247, #112 ) ;
#203 = DIRECTION ( 'NONE',  ( -0.000000000000000000, -1.000000000000000000, -0.000000000000000000 ) ) ;
#204 = ADVANCED_FACE ( 'NONE', ( #145 ), #270, .F. ) ;
#205 = DIRECTION ( 'NONE',  ( -0.000000000000000000, -1.000000000000000000, -0.000000000000000000 ) ) ;
#206 = ORIENTED_EDGE ( 'NONE', *, *, #255, .T. ) ;
#207 = DIRECTION ( 'NONE',  ( 0.000000000000000000, 0.000000000000000000, -1.000000000000000000 ) ) ;
#208 = EDGE_LOOP ( 'NONE', ( #148, #3, #336, #278 ) ) ;
#209 = COLOUR_RGB ( '',0.8941176470588234615, 0.8941176470588234615, 0.8941176470588234615 ) ;
#210 = CARTESIAN_POINT ( 'NONE',  ( -7.826446609256869635, 40.00000000000000000, -7.826446609256887399 ) ) ;
#211 = VERTEX_POINT ( 'NONE', #143 ) ;
#212 = CYLINDRICAL_SURFACE ( 'NONE', #184, 11.06826694000000799 ) ;
#213 = ORIENTED_EDGE ( 'NONE', *, *, #126, .T. ) ;
#214 = CARTESIAN_POINT ( 'NONE',  ( -12.41964267538415356, 40.00000000000000000, -3.913223304628444588 ) ) ;
#215 = PRODUCT ( 'Cross_2', 'Cross_2', '', ( #88 ) ) ;
#216 = EDGE_LOOP ( 'NONE', ( #115, #50, #310, #144 ) ) ;
#217 = EDGE_CURVE ( 'NONE', #188, #290, #169, .T. ) ;
#218 = AXIS2_PLACEMENT_3D ( 'NONE', #233, #27, #432 ) ;
#219 = CARTESIAN_POINT ( 'NONE',  ( 6.862037974234090356E-15, 0.000000000000000000, -17.01283874151146236 ) ) ;
#220 = VERTEX_POINT ( 'NONE', #35 ) ;
#221 = LINE ( 'NONE', #391, #237 ) ;
#222 = LINE ( 'NONE', #194, #272 ) ;
#223 = DIRECTION ( 'NONE',  ( -0.000000000000000000, -1.000000000000000000, -0.000000000000000000 ) ) ;
#224 = DIRECTION ( 'NONE',  ( 0.000000000000000000, 0.000000000000000000, -1.000000000000000000 ) ) ;
#225 = VERTEX_POINT ( 'NONE', #103 ) ;
#226 = CARTESIAN_POINT ( 'NONE',  ( -0.6485145421598368376, 40.00000000000000000, -16.25163647627099905 ) ) ;
#227 = CARTESIAN_POINT ( 'NONE',  ( 7.826446609256882070, 0.000000000000000000, 7.826446609256855425 ) ) ;
#228 = EDGE_CURVE ( 'NONE', #288, #290, #385, .T. ) ;
#229 = AXIS2_PLACEMENT_3D ( 'NONE', #210, #311, #38 ) ;
#230 = SURFACE_SIDE_STYLE ('',( #362 ) ) ;
#231 = ORIENTED_EDGE ( 'NONE', *, *, #368, .F. ) ;
#232 = EDGE_CURVE ( 'NONE', #413, #36, #309, .T. ) ;
#233 = CARTESIAN_POINT ( 'NONE',  ( 7.826446609256860754, 0.000000000000000000, -7.826446609256867859 ) ) ;
#234 = FACE_OUTER_BOUND ( 'NONE', #146, .T. ) ;
#235 = EDGE_CURVE ( 'NONE', #258, #8, #307, .T. ) ;
#236 = AXIS2_PLACEMENT_3D ( 'NONE', #120, #56, #82 ) ;
#237 = VECTOR ( 'NONE', #49, 1000.000000000000000 ) ;
#238 = CARTESIAN_POINT ( 'NONE',  ( 0.6485145421598501603, 40.00000000000000000, -16.25163647627100261 ) ) ;
#239 = DIRECTION ( 'NONE',  ( 0.000000000000000000, 1.000000000000000000, -0.000000000000000000 ) ) ;
#240 = ORIENTED_EDGE ( 'NONE', *, *, #255, .F. ) ;
#241 = EDGE_CURVE ( 'NONE', #8, #188, #263, .T. ) ;
#242 = CARTESIAN_POINT ( 'NONE',  ( -7.826446609256869635, 0.000000000000000000, -7.826446609256887399 ) ) ;
#243 = EDGE_LOOP ( 'NONE', ( #339, #318, #411, #156 ) ) ;
#244 = AXIS2_PLACEMENT_3D ( 'NONE', #147, #105, #168 ) ;
#245 = DIRECTION ( 'NONE',  ( 0.000000000000000000, 0.000000000000000000, 1.000000000000000000 ) ) ;
#246 = ORIENTED_EDGE ( 'NONE', *, *, #295, .T. ) ;
#247 = DIRECTION ( 'NONE',  ( -0.000000000000000000, -1.000000000000000000, -0.000000000000000000 ) ) ;
#248 = EDGE_LOOP ( 'NONE', ( #284, #5, #121, #380 ) ) ;
#249 = DIRECTION ( 'NONE',  ( 0.000000000000000000, 0.000000000000000000, -1.000000000000000000 ) ) ;
#250 = APPLICATION_CONTEXT ( 'automotive_design' ) ;
#251 = FACE_OUTER_BOUND ( 'NONE', #128, .T. ) ;
#252 = VECTOR ( 'NONE', #430, 1000.000000000000000 ) ;
#253 = AXIS2_PLACEMENT_3D ( 'NONE', #319, #223, #249 ) ;
#254 = ORIENTED_EDGE ( 'NONE', *, *, #305, .F. ) ;
#255 = EDGE_CURVE ( 'NONE', #160, #266, #122, .T. ) ;
#256 = CARTESIAN_POINT ( 'NONE',  ( 7.826446609256860754, 40.00000000000000000, -7.826446609256867859 ) ) ;
#257 = DIRECTION ( 'NONE',  ( -0.000000000000000000, -1.000000000000000000, -0.000000000000000000 ) ) ;
#258 = VERTEX_POINT ( 'NONE', #100 ) ;
#259 = AXIS2_PLACEMENT_3D ( 'NONE', #66, #205, #335 ) ;
#260 = EDGE_LOOP ( 'NONE', ( #206, #23, #231, #372 ) ) ;
#261 = DIRECTION ( 'NONE',  ( 0.000000000000000000, 0.000000000000000000, 1.000000000000000000 ) ) ;
#262 = DIRECTION ( 'NONE',  ( 0.000000000000000000, 0.000000000000000000, -1.000000000000000000 ) ) ;
#263 = CIRCLE ( 'NONE', #259, 1.000000000000000000 ) ;
#264 = FILL_AREA_STYLE_COLOUR ( '', #209 ) ;
#265 = CIRCLE ( 'NONE', #377, 11.06826694000000977 ) ;
#266 = VERTEX_POINT ( 'NONE', #366 ) ;
#267 = ADVANCED_FACE ( 'NONE', ( #234 ), #65, .F. ) ;
#268 = UNCERTAINTY_MEASURE_WITH_UNIT (LENGTH_MEASURE( 1.000000000000000082E-05 ), #381, 'distance_accuracy_value', 'NONE');
#269 = EDGE_CURVE ( 'NONE', #188, #41, #134, .T. ) ;
#270 = CYLINDRICAL_SURFACE ( 'NONE', #347, 1.000000000000000000 ) ;
#271 = DIRECTION ( 'NONE',  ( 0.000000000000000000, 1.000000000000000000, -0.000000000000000000 ) ) ;
#272 = VECTOR ( 'NONE', #316, 1000.000000000000000 ) ;
#273 = DIRECTION ( 'NONE',  ( -0.000000000000000000, -1.000000000000000000, -0.000000000000000000 ) ) ;
#274 = ORIENTED_EDGE ( 'NONE', *, *, #51, .F. ) ;
#275 = CARTESIAN_POINT ( 'NONE',  ( -16.25163647627097419, 40.00000000000000000, 0.6485145421598415005 ) ) ;
#276 = ORIENTED_EDGE ( 'NONE', *, *, #438, .F. ) ;
#277 = DIRECTION ( 'NONE',  ( 0.000000000000000000, 1.000000000000000000, -0.000000000000000000 ) ) ;
#278 = ORIENTED_EDGE ( 'NONE', *, *, #345, .T. ) ;
#279 =( GEOMETRIC_REPRESENTATION_CONTEXT ( 3 ) GLOBAL_UNCERTAINTY_ASSIGNED_CONTEXT ( ( #268 ) ) GLOBAL_UNIT_ASSIGNED_CONTEXT ( ( #381, #155, #412 ) ) REPRESENTATION_CONTEXT ( 'NONE', 'WORKASPACE' ) );
#280 = DIRECTION ( 'NONE',  ( 0.000000000000000000, 0.000000000000000000, -1.000000000000000000 ) ) ;
#281 = ORIENTED_EDGE ( 'NONE', *, *, #429, .T. ) ;
#282 = EDGE_CURVE ( 'NONE', #300, #152, #398, .T. ) ;
#283 = CARTESIAN_POINT ( 'NONE',  ( 7.826446609256860754, 40.00000000000000000, -18.89471354925687763 ) ) ;
#284 = ORIENTED_EDGE ( 'NONE', *, *, #424, .F. ) ;
#285 = ORIENTED_EDGE ( 'NONE', *, *, #44, .F. ) ;
#286 = AXIS2_PLACEMENT_3D ( 'NONE', #13, #420, #52 ) ;
#287 = CIRCLE ( 'NONE', #436, 11.06826694000000799 ) ;
#288 = VERTEX_POINT ( 'NONE', #7 ) ;
#289 = EDGE_CURVE ( 'NONE', #308, #160, #404, .T. ) ;
#290 = VERTEX_POINT ( 'NONE', #406 ) ;
#291 = APPLICATION_PROTOCOL_DEFINITION ( 'draft international standard', 'automotive_design', 1998, #180 ) ;
#292 = CARTESIAN_POINT ( 'NONE',  ( 0.6485145421598457194, 40.00000000000000000, 16.25163647627097774 ) ) ;
#293 = AXIS2_PLACEMENT_3D ( 'NONE', #327, #25, #303 ) ;
#294 = DIRECTION ( 'NONE',  ( 0.000000000000000000, 0.000000000000000000, -1.000000000000000000 ) ) ;
#295 = EDGE_CURVE ( 'NONE', #136, #211, #434, .T. ) ;
#296 = CIRCLE ( 'NONE', #355, 1.000000000000000888 ) ;
#297 = CARTESIAN_POINT ( 'NONE',  ( 16.25163647627100261, 0.000000000000000000, 0.6485145421598189630 ) ) ;
#298 = DIRECTION ( 'NONE',  ( 0.000000000000000000, 0.000000000000000000, -1.000000000000000000 ) ) ;
#299 = EDGE_CURVE ( 'NONE', #136, #152, #331, .T. ) ;
#300 = VERTEX_POINT ( 'NONE', #306 ) ;
#301 = AXIS2_PLACEMENT_3D ( 'NONE', #227, #359, #401 ) ;
#302 = DIRECTION ( 'NONE',  ( 0.000000000000000000, 0.000000000000000000, -1.000000000000000000 ) ) ;
#303 = DIRECTION ( 'NONE',  ( 0.000000000000000000, 0.000000000000000000, -1.000000000000000000 ) ) ;
#304 = CARTESIAN_POINT ( 'NONE',  ( 16.25163647627100261, 40.00000000000000000, 0.6485145421598189630 ) ) ;
#305 = EDGE_CURVE ( 'NONE', #225, #288, #55, .T. ) ;
#306 = CARTESIAN_POINT ( 'NONE',  ( 7.826446609256860754, 0.000000000000000000, -18.89471354925687763 ) ) ;
#307 = CIRCLE ( 'NONE', #418, 11.06826694000000977 ) ;
#308 = VERTEX_POINT ( 'NONE', #176 ) ;
#309 = LINE ( 'NONE', #2, #60 ) ;
#310 = ORIENTED_EDGE ( 'NONE', *, *, #295, .F. ) ;
#311 = DIRECTION ( 'NONE',  ( -0.000000000000000000, -1.000000000000000000, -0.000000000000000000 ) ) ;
#312 = ORIENTED_EDGE ( 'NONE', *, *, #44, .T. ) ;
#313 = ORIENTED_EDGE ( 'NONE', *, *, #305, .T. ) ;
#314 = AXIS2_PLACEMENT_3D ( 'NONE', #214, #119, #77 ) ;
#315 = CARTESIAN_POINT ( 'NONE',  ( 1.091936271279522164E-15, 40.00000000000000000, 16.01283874151143749 ) ) ;
#316 = DIRECTION ( 'NONE',  ( -0.000000000000000000, -1.000000000000000000, -0.000000000000000000 ) ) ;
#317 = CARTESIAN_POINT ( 'NONE',  ( 17.01283874151146236, 40.00000000000000000, -2.435998796548432709E-14 ) ) ;
#318 = ORIENTED_EDGE ( 'NONE', *, *, #334, .F. ) ;
#319 = CARTESIAN_POINT ( 'NONE',  ( 17.01283874151146236, 40.00000000000000000, -2.435998796548432709E-14 ) ) ;
#320 = ORIENTED_EDGE ( 'NONE', *, *, #368, .T. ) ;
#321 = VECTOR ( 'NONE', #257, 1000.000000000000000 ) ;
#322 = DIRECTION ( 'NONE',  ( 0.000000000000000000, 0.000000000000000000, 1.000000000000000000 ) ) ;
#323 = EDGE_LOOP ( 'NONE', ( #193, #67, #344, #165 ) ) ;
#324 = CARTESIAN_POINT ( 'NONE',  ( 1.091936271279522164E-15, 40.00000000000000000, 17.01283874151143749 ) ) ;
#325 = ORIENTED_EDGE ( 'NONE', *, *, #345, .F. ) ;
#326 = AXIS2_PLACEMENT_3D ( 'NONE', #196, #24, #294 ) ;
#327 = CARTESIAN_POINT ( 'NONE',  ( 1.091936271279522164E-15, 40.00000000000000000, 17.01283874151143749 ) ) ;
#328 = CARTESIAN_POINT ( 'NONE',  ( -0.6485145421598423887, 40.00000000000000000, 16.25163647627097419 ) ) ;
#329 = ADVANCED_FACE ( 'NONE', ( #337 ), #40, .T. ) ;
#330 = CIRCLE ( 'NONE', #101, 1.000000000000000888 ) ;
#331 = LINE ( 'NONE', #238, #183 ) ;
#332 = AXIS2_PLACEMENT_3D ( 'NONE', #343, #414, #83 ) ;
#333 = CARTESIAN_POINT ( 'NONE',  ( -7.826446609256878517, 40.00000000000000000, 7.826446609256878517 ) ) ;
#334 = EDGE_CURVE ( 'NONE', #211, #258, #265, .T. ) ;
#335 = DIRECTION ( 'NONE',  ( 0.000000000000000000, 0.000000000000000000, 1.000000000000000000 ) ) ;
#336 = ORIENTED_EDGE ( 'NONE', *, *, #241, .F. ) ;
#337 = FACE_OUTER_BOUND ( 'NONE', #417, .T. ) ;
#338 =( GEOMETRIC_REPRESENTATION_CONTEXT ( 3 ) GLOBAL_UNCERTAINTY_ASSIGNED_CONTEXT ( ( #405 ) ) GLOBAL_UNIT_ASSIGNED_CONTEXT ( ( #63, #95, #435 ) ) REPRESENTATION_CONTEXT ( 'NONE', 'WORKASPACE' ) );
#339 = ORIENTED_EDGE ( 'NONE', *, *, #182, .F. ) ;
#340 = CARTESIAN_POINT ( 'NONE',  ( 1.091936271279522164E-15, 40.00000000000000000, 17.01283874151143749 ) ) ;
#341 = ADVANCED_FACE ( 'NONE', ( #109 ), #179, .F. ) ;
#342 = ORIENTED_EDGE ( 'NONE', *, *, #93, .F. ) ;
#343 = CARTESIAN_POINT ( 'NONE',  ( -12.41964267538415356, 0.000000000000000000, -3.913223304628444588 ) ) ;
#344 = ORIENTED_EDGE ( 'NONE', *, *, #51, .T. ) ;
#345 = EDGE_CURVE ( 'NONE', #8, #288, #221, .T. ) ;
#346 = ORIENTED_EDGE ( 'NONE', *, *, #93, .T. ) ;
#347 = AXIS2_PLACEMENT_3D ( 'NONE', #71, #102, #207 ) ;
#348 = DIRECTION ( 'NONE',  ( -0.000000000000000000, -1.000000000000000000, 0.000000000000000000 ) ) ;
#349 = LINE ( 'NONE', #226, #1 ) ;
#350 = PLANE ( 'NONE',  #314 ) ;
#351 = CARTESIAN_POINT ( 'NONE',  ( -16.25163647627097063, 40.00000000000000000, -0.6485145421598406124 ) ) ;
#352 = CARTESIAN_POINT ( 'NONE',  ( -0.6485145421598423887, 0.000000000000000000, 16.25163647627097419 ) ) ;
#353 = DIRECTION ( 'NONE',  ( -0.000000000000000000, -1.000000000000000000, -0.000000000000000000 ) ) ;
#354 = MECHANICAL_DESIGN_GEOMETRIC_PRESENTATION_REPRESENTATION (  '', ( #117 ), #338 ) ;
#355 = AXIS2_PLACEMENT_3D ( 'NONE', #12, #387, #42 ) ;
#356 = ORIENTED_EDGE ( 'NONE', *, *, #80, .T. ) ;
#357 = FACE_OUTER_BOUND ( 'NONE', #190, .T. ) ;
#358 = LINE ( 'NONE', #328, #252 ) ;
#359 = DIRECTION ( 'NONE',  ( 0.000000000000000000, 1.000000000000000000, -0.000000000000000000 ) ) ;
#360 = CIRCLE ( 'NONE', #218, 11.06826694000000799 ) ;
#361 = SURFACE_STYLE_USAGE ( .BOTH. , #230 ) ;
#362 = SURFACE_STYLE_FILL_AREA ( #399 ) ;
#363 = ORIENTED_EDGE ( 'NONE', *, *, #19, .T. ) ;
#364 = PRODUCT_DEFINITION_SHAPE ( 'NONE', 'NONE',  #187 ) ;
#365 = VECTOR ( 'NONE', #141, 1000.000000000000000 ) ;
#366 = CARTESIAN_POINT ( 'NONE',  ( 16.25163647627099905, 0.000000000000000000, -0.6485145421598664806 ) ) ;
#367 = AXIS2_PLACEMENT_3D ( 'NONE', #256, #116, #389 ) ;
#368 = EDGE_CURVE ( 'NONE', #308, #181, #135, .T. ) ;
#369 = DIRECTION ( 'NONE',  ( -0.000000000000000000, -1.000000000000000000, -0.000000000000000000 ) ) ;
#370 = ADVANCED_FACE ( 'NONE', ( #419 ), #17, .F. ) ;
#371 = DIRECTION ( 'NONE',  ( 0.000000000000000000, 0.000000000000000000, 1.000000000000000000 ) ) ;
#372 = ORIENTED_EDGE ( 'NONE', *, *, #289, .T. ) ;
#373 = ADVANCED_FACE ( 'NONE', ( #189 ), #350, .T. ) ;
#374 = CARTESIAN_POINT ( 'NONE',  ( -17.01283874151143394, 0.000000000000000000, -1.620937895399138228E-15 ) ) ;
#375 = CIRCLE ( 'NONE', #20, 1.000000000000000888 ) ;
#376 = EDGE_LOOP ( 'NONE', ( #312, #125, #70, #11 ) ) ;
#377 = AXIS2_PLACEMENT_3D ( 'NONE', #174, #277, #410 ) ;
#378 = ADVANCED_FACE ( 'NONE', ( #114 ), #151, .F. ) ;
#379 = DIRECTION ( 'NONE',  ( 0.000000000000000000, 0.000000000000000000, -1.000000000000000000 ) ) ;
#380 = ORIENTED_EDGE ( 'NONE', *, *, #299, .F. ) ;
#381 =( LENGTH_UNIT ( ) NAMED_UNIT ( * ) SI_UNIT ( .MILLI., .METRE. ) );
#382 = ORIENTED_EDGE ( 'NONE', *, *, #33, .T. ) ;
#383 = CARTESIAN_POINT ( 'NONE',  ( -0.6485145421598368376, 0.000000000000000000, -16.25163647627099905 ) ) ;
#384 = CARTESIAN_POINT ( 'NONE',  ( 1.091936271279522164E-15, 0.000000000000000000, 16.01283874151143749 ) ) ;
#385 = CIRCLE ( 'NONE', #198, 1.000000000000000000 ) ;
#386 = ADVANCED_FACE ( 'NONE', ( #153 ), #212, .T. ) ;
#387 = DIRECTION ( 'NONE',  ( -0.000000000000000000, -1.000000000000000000, -0.000000000000000000 ) ) ;
#388 = ORIENTED_EDGE ( 'NONE', *, *, #6, .F. ) ;
#389 = DIRECTION ( 'NONE',  ( 0.000000000000000000, 0.000000000000000000, 1.000000000000000000 ) ) ;
#390 = VERTEX_POINT ( 'NONE', #283 ) ;
#391 = CARTESIAN_POINT ( 'NONE',  ( -16.25163647627097063, 40.00000000000000000, -0.6485145421598406124 ) ) ;
#392 = ORIENTED_EDGE ( 'NONE', *, *, #131, .T. ) ;
#393 = CIRCLE ( 'NONE', #64, 11.06826694000001510 ) ;
#394 = CARTESIAN_POINT ( 'NONE',  ( 1.091936271279522164E-15, 0.000000000000000000, 17.01283874151143749 ) ) ;
#395 = CARTESIAN_POINT ( 'NONE',  ( -7.826446609256869635, 40.00000000000000000, -18.89471354925689894 ) ) ;
#396 = CARTESIAN_POINT ( 'NONE',  ( 0.6485145421598457194, 0.000000000000000000, 16.25163647627097774 ) ) ;
#397 = LINE ( 'NONE', #89, #37 ) ;
#398 = CIRCLE ( 'NONE', #108, 11.06826694000000799 ) ;
#399 = FILL_AREA_STYLE ('',( #264 ) ) ;
#400 = VERTEX_POINT ( 'NONE', #383 ) ;
#401 = DIRECTION ( 'NONE',  ( 0.000000000000000000, 0.000000000000000000, -1.000000000000000000 ) ) ;
#402 = DIRECTION ( 'NONE',  ( -0.000000000000000000, -1.000000000000000000, -0.000000000000000000 ) ) ;
#403 = PRESENTATION_LAYER_ASSIGNMENT (  '', '', ( #117 ) ) ;
#404 = LINE ( 'NONE', #304, #365 ) ;
#405 = UNCERTAINTY_MEASURE_WITH_UNIT (LENGTH_MEASURE( 1.000000000000000082E-05 ), #63, 'distance_accuracy_value', 'NONE');
#406 = CARTESIAN_POINT ( 'NONE',  ( -16.25163647627097419, 0.000000000000000000, 0.6485145421598415005 ) ) ;
#407 = VERTEX_POINT ( 'NONE', #352 ) ;
#408 = DIRECTION ( 'NONE',  ( 0.000000000000000000, 1.000000000000000000, 0.000000000000000000 ) ) ;
#409 = ORIENTED_EDGE ( 'NONE', *, *, #131, .F. ) ;
#410 = DIRECTION ( 'NONE',  ( 0.000000000000000000, 0.000000000000000000, -1.000000000000000000 ) ) ;
#411 = ORIENTED_EDGE ( 'NONE', *, *, #58, .T. ) ;
#412 =( NAMED_UNIT ( * ) SI_UNIT ( $, .STERADIAN. ) SOLID_ANGLE_UNIT ( ) );
#413 = VERTEX_POINT ( 'NONE', #315 ) ;
#414 = DIRECTION ( 'NONE',  ( 0.000000000000000000, 1.000000000000000000, 0.000000000000000000 ) ) ;
#415 = ORIENTED_EDGE ( 'NONE', *, *, #182, .T. ) ;
#416 = CARTESIAN_POINT ( 'NONE',  ( 7.826446609256860754, 40.00000000000000000, -7.826446609256867859 ) ) ;
#417 = EDGE_LOOP ( 'NONE', ( #111, #415, #313, #325 ) ) ;
#418 = AXIS2_PLACEMENT_3D ( 'NONE', #186, #271, #439 ) ;
#419 = FACE_OUTER_BOUND ( 'NONE', #216, .T. ) ;
#420 = DIRECTION ( 'NONE',  ( -0.000000000000000000, -1.000000000000000000, -0.000000000000000000 ) ) ;
#421 = EDGE_CURVE ( 'NONE', #152, #400, #110, .T. ) ;
#422 = DIRECTION ( 'NONE',  ( -0.000000000000000000, -1.000000000000000000, -0.000000000000000000 ) ) ;
#423 = ORIENTED_EDGE ( 'NONE', *, *, #424, .T. ) ;
#424 = EDGE_CURVE ( 'NONE', #390, #136, #124, .T. ) ;
#425 = EDGE_LOOP ( 'NONE', ( #79, #21, #281, #363, #213, #320, #72, #423, #246, #104, #75 ) ) ;
#426 = AXIS2_PLACEMENT_3D ( 'NONE', #333, #34, #379 ) ;
#427 = AXIS2_PLACEMENT_3D ( 'NONE', #45, #22, #28 ) ;
#428 = FACE_OUTER_BOUND ( 'NONE', #323, .T. ) ;
#429 = EDGE_CURVE ( 'NONE', #41, #413, #296, .T. ) ;
#430 = DIRECTION ( 'NONE',  ( -0.000000000000000000, -1.000000000000000000, -0.000000000000000000 ) ) ;
#431 = CYLINDRICAL_SURFACE ( 'NONE', #142, 11.06826694000000977 ) ;
#432 = DIRECTION ( 'NONE',  ( 0.000000000000000000, 0.000000000000000000, 1.000000000000000000 ) ) ;
#433 = ORIENTED_EDGE ( 'NONE', *, *, #178, .T. ) ;
#434 = CIRCLE ( 'NONE', #244, 1.000000000000004441 ) ;
#435 =( NAMED_UNIT ( * ) SI_UNIT ( $, .STERADIAN. ) SOLID_ANGLE_UNIT ( ) );
#436 = AXIS2_PLACEMENT_3D ( 'NONE', #191, #15, #322 ) ;
#437 = CARTESIAN_POINT ( 'NONE',  ( 0.6485145421598501603, 40.00000000000000000, -16.25163647627100261 ) ) ;
#438 = EDGE_CURVE ( 'NONE', #181, #390, #287, .T. ) ;
#439 = DIRECTION ( 'NONE',  ( 0.000000000000000000, 0.000000000000000000, -1.000000000000000000 ) ) ;
#440 = DIRECTION ( 'NONE',  ( -0.000000000000000000, -1.000000000000000000, -0.000000000000000000 ) ) ;
ENDSEC;
END-ISO-10303-21;
