ISO-10303-21;
HEADER;
FILE_DESCRIPTION (( 'STEP AP214' ),
    '1' );
FILE_NAME ('Diamond_2.STEP',
    '2026-07-23T11:08:38',
    ( '' ),
    ( '' ),
    'SwSTEP 2.0',
    'SolidWorks 2026',
    '' );
FILE_SCHEMA (( 'AUTOMOTIVE_DESIGN' ));
ENDSEC;

DATA;
#1 = UNCERTAINTY_MEASURE_WITH_UNIT (LENGTH_MEASURE( 1.000000000000000082E-05 ), #125, 'distance_accuracy_value', 'NONE');
#2 = VECTOR ( 'NONE', #124, 1000.000000000000000 ) ;
#3 = CARTESIAN_POINT ( 'NONE',  ( -19.55939671871296781, 40.00000000000000000, -1.089406810770278023E-16 ) ) ;
#4 = AXIS2_PLACEMENT_3D ( 'NONE', #164, #133, #167 ) ;
#5 = CARTESIAN_POINT ( 'NONE',  ( -1.719302294734931626E-15, 0.000000000000000000, 25.20000000000000639 ) ) ;
#6 = EDGE_CURVE ( 'NONE', #54, #97, #70, .T. ) ;
#7 = CARTESIAN_POINT ( 'NONE',  ( 19.55939671871297136, 40.00000000000000000, 1.031501067873375935E-14 ) ) ;
#8 = CARTESIAN_POINT ( 'NONE',  ( -1.719302294734931626E-15, 40.00000000000000000, 25.20000000000000639 ) ) ;
#9 = APPLICATION_PROTOCOL_DEFINITION ( 'draft international standard', 'automotive_design', 1998, #161 ) ;
#10 =( NAMED_UNIT ( * ) PLANE_ANGLE_UNIT ( ) SI_UNIT ( $, .RADIAN. ) );
#11 = CARTESIAN_POINT ( 'NONE',  ( 1.415896007428767163E-15, 0.000000000000000000, -25.19999999999999574 ) ) ;
#12 = EDGE_CURVE ( 'NONE', #52, #14, #110, .T. ) ;
#13 = CARTESIAN_POINT ( 'NONE',  ( 1.415896007428767163E-15, 40.00000000000000000, -25.19999999999999574 ) ) ;
#14 = VERTEX_POINT ( 'NONE', #111 ) ;
#15 = VERTEX_POINT ( 'NONE', #159 ) ;
#16 = AXIS2_PLACEMENT_3D ( 'NONE', #146, #74, #33 ) ;
#17 = ADVANCED_BREP_SHAPE_REPRESENTATION ( 'Diamond_2', ( #134, #21 ), #40 ) ;
#18 = DIRECTION ( 'NONE',  ( -0.7899686520376176802, 0.000000000000000000, -0.6131472325615352492 ) ) ;
#19 = LINE ( 'NONE', #180, #131 ) ;
#20 = CARTESIAN_POINT ( 'NONE',  ( 19.55939671871297136, 0.000000000000000000, 1.031501067873375935E-14 ) ) ;
#21 = AXIS2_PLACEMENT_3D ( 'NONE', #24, #150, #132 ) ;
#22 = PLANE ( 'NONE',  #82 ) ;
#23 = LINE ( 'NONE', #48, #106 ) ;
#24 = CARTESIAN_POINT ( 'NONE',  ( 0.000000000000000000, 0.000000000000000000, 0.000000000000000000 ) ) ;
#25 = VECTOR ( 'NONE', #163, 1000.000000000000000 ) ;
#26 = LINE ( 'NONE', #184, #158 ) ;
#27 = DIRECTION ( 'NONE',  ( -0.7899686520376177912, 0.000000000000000000, -0.6131472325615352492 ) ) ;
#28 = CARTESIAN_POINT ( 'NONE',  ( -1.719302294734931626E-15, 40.00000000000000000, 25.20000000000000639 ) ) ;
#29 = ORIENTED_EDGE ( 'NONE', *, *, #12, .F. ) ;
#30 = ORIENTED_EDGE ( 'NONE', *, *, #181, .F. ) ;
#31 = ORIENTED_EDGE ( 'NONE', *, *, #101, .F. ) ;
#32 = ORIENTED_EDGE ( 'NONE', *, *, #101, .T. ) ;
#33 = DIRECTION ( 'NONE',  ( 0.000000000000000000, 0.000000000000000000, -1.000000000000000000 ) ) ;
#34 = DIRECTION ( 'NONE',  ( 0.000000000000000000, 0.000000000000000000, -1.000000000000000000 ) ) ;
#35 = PRESENTATION_STYLE_ASSIGNMENT (( #59 ) ) ;
#36 = PLANE ( 'NONE',  #16 ) ;
#37 = PRODUCT_DEFINITION ( 'UNKNOWN', '', #50, #114 ) ;
#38 = APPLICATION_PROTOCOL_DEFINITION ( 'draft international standard', 'automotive_design', 1998, #115 ) ;
#39 = ORIENTED_EDGE ( 'NONE', *, *, #77, .T. ) ;
#40 =( GEOMETRIC_REPRESENTATION_CONTEXT ( 3 ) GLOBAL_UNCERTAINTY_ASSIGNED_CONTEXT ( ( #147 ) ) GLOBAL_UNIT_ASSIGNED_CONTEXT ( ( #137, #10, #149 ) ) REPRESENTATION_CONTEXT ( 'NONE', 'WORKASPACE' ) );
#41 = ORIENTED_EDGE ( 'NONE', *, *, #6, .T. ) ;
#42 = ORIENTED_EDGE ( 'NONE', *, *, #6, .F. ) ;
#43 = VERTEX_POINT ( 'NONE', #20 ) ;
#44 = VECTOR ( 'NONE', #79, 1000.000000000000000 ) ;
#45 = FACE_OUTER_BOUND ( 'NONE', #151, .T. ) ;
#46 =( NAMED_UNIT ( * ) PLANE_ANGLE_UNIT ( ) SI_UNIT ( $, .RADIAN. ) );
#47 = DIRECTION ( 'NONE',  ( -0.000000000000000000, -1.000000000000000000, -0.000000000000000000 ) ) ;
#48 = CARTESIAN_POINT ( 'NONE',  ( -1.719302294734931626E-15, 0.000000000000000000, 25.20000000000000639 ) ) ;
#49 = CARTESIAN_POINT ( 'NONE',  ( 0.000000000000000000, 40.00000000000000000, 0.000000000000000000 ) ) ;
#50 = PRODUCT_DEFINITION_FORMATION_WITH_SPECIFIED_SOURCE ( 'ANY', '', #139, .NOT_KNOWN. ) ;
#51 = DIRECTION ( 'NONE',  ( 0.6131472325615352492, 0.000000000000000000, -0.7899686520376176802 ) ) ;
#52 = VERTEX_POINT ( 'NONE', #5 ) ;
#53 = PLANE ( 'NONE',  #4 ) ;
#54 = VERTEX_POINT ( 'NONE', #145 ) ;
#55 = VECTOR ( 'NONE', #116, 1000.000000000000000 ) ;
#56 = ORIENTED_EDGE ( 'NONE', *, *, #142, .T. ) ;
#57 = CARTESIAN_POINT ( 'NONE',  ( -19.55939671871296781, 40.00000000000000000, -1.089406810770278023E-16 ) ) ;
#58 = MECHANICAL_DESIGN_GEOMETRIC_PRESENTATION_REPRESENTATION (  '', ( #182 ), #69 ) ;
#59 = SURFACE_STYLE_USAGE ( .BOTH. , #71 ) ;
#60 = CARTESIAN_POINT ( 'NONE',  ( 1.415896007428767163E-15, 40.00000000000000000, -25.19999999999999574 ) ) ;
#61 = EDGE_CURVE ( 'NONE', #43, #186, #73, .T. ) ;
#62 = CARTESIAN_POINT ( 'NONE',  ( -1.719302294734931626E-15, 40.00000000000000000, 25.20000000000000639 ) ) ;
#63 = ORIENTED_EDGE ( 'NONE', *, *, #61, .F. ) ;
#64 = LINE ( 'NONE', #62, #104 ) ;
#65 = ORIENTED_EDGE ( 'NONE', *, *, #118, .F. ) ;
#66 = DIRECTION ( 'NONE',  ( -0.000000000000000000, -1.000000000000000000, -0.000000000000000000 ) ) ;
#67 = ADVANCED_FACE ( 'NONE', ( #45 ), #36, .T. ) ;
#68 = PRODUCT_RELATED_PRODUCT_CATEGORY ( 'part', '', ( #139 ) ) ;
#69 =( GEOMETRIC_REPRESENTATION_CONTEXT ( 3 ) GLOBAL_UNCERTAINTY_ASSIGNED_CONTEXT ( ( #1 ) ) GLOBAL_UNIT_ASSIGNED_CONTEXT ( ( #125, #46, #130 ) ) REPRESENTATION_CONTEXT ( 'NONE', 'WORKASPACE' ) );
#70 = LINE ( 'NONE', #57, #2 ) ;
#71 = SURFACE_SIDE_STYLE ('',( #100 ) ) ;
#72 = DIRECTION ( 'NONE',  ( -0.6131472325615351382, 0.000000000000000000, -0.7899686520376177912 ) ) ;
#73 = LINE ( 'NONE', #90, #25 ) ;
#74 = DIRECTION ( 'NONE',  ( 0.000000000000000000, -1.000000000000000000, 0.000000000000000000 ) ) ;
#75 = DIRECTION ( 'NONE',  ( 0.6131472325615351382, 0.000000000000000000, 0.7899686520376177912 ) ) ;
#76 = FACE_OUTER_BOUND ( 'NONE', #109, .T. ) ;
#77 = EDGE_CURVE ( 'NONE', #52, #43, #23, .T. ) ;
#78 = PLANE ( 'NONE',  #179 ) ;
#79 = DIRECTION ( 'NONE',  ( 0.6131472325615353602, 0.000000000000000000, -0.7899686520376176802 ) ) ;
#80 = LINE ( 'NONE', #13, #87 ) ;
#81 = ORIENTED_EDGE ( 'NONE', *, *, #187, .T. ) ;
#82 = AXIS2_PLACEMENT_3D ( 'NONE', #99, #18, #85 ) ;
#83 = ADVANCED_FACE ( 'NONE', ( #128 ), #22, .F. ) ;
#84 = ORIENTED_EDGE ( 'NONE', *, *, #61, .T. ) ;
#85 = DIRECTION ( 'NONE',  ( -0.6131472325615352492, 0.000000000000000000, 0.7899686520376176802 ) ) ;
#86 = CARTESIAN_POINT ( 'NONE',  ( 19.55939671871297136, 40.00000000000000000, 1.031501067873375935E-14 ) ) ;
#87 = VECTOR ( 'NONE', #66, 1000.000000000000000 ) ;
#88 = ADVANCED_FACE ( 'NONE', ( #143 ), #162, .T. ) ;
#89 = LINE ( 'NONE', #28, #44 ) ;
#90 = CARTESIAN_POINT ( 'NONE',  ( 19.55939671871297136, 0.000000000000000000, 1.031501067873375935E-14 ) ) ;
#91 = LINE ( 'NONE', #3, #55 ) ;
#92 = CLOSED_SHELL ( 'NONE', ( #88, #83, #173, #155, #140, #67 ) ) ;
#93 = CARTESIAN_POINT ( 'NONE',  ( -19.55939671871296781, 40.00000000000000000, -1.089406810770278023E-16 ) ) ;
#94 = EDGE_LOOP ( 'NONE', ( #122, #65, #41, #81 ) ) ;
#95 = ORIENTED_EDGE ( 'NONE', *, *, #77, .F. ) ;
#96 = ORIENTED_EDGE ( 'NONE', *, *, #108, .F. ) ;
#97 = VERTEX_POINT ( 'NONE', #60 ) ;
#98 = DIRECTION ( 'NONE',  ( -0.6131472325615351382, 0.000000000000000000, -0.7899686520376177912 ) ) ;
#99 = CARTESIAN_POINT ( 'NONE',  ( -1.719302294734931626E-15, 40.00000000000000000, 25.20000000000000639 ) ) ;
#100 = SURFACE_STYLE_FILL_AREA ( #160 ) ;
#101 = EDGE_CURVE ( 'NONE', #15, #54, #19, .T. ) ;
#102 = CARTESIAN_POINT ( 'NONE',  ( 19.55939671871297136, 40.00000000000000000, 1.031501067873375935E-14 ) ) ;
#103 = DIRECTION ( 'NONE',  ( -0.7899686520376177912, 0.000000000000000000, 0.6131472325615351382 ) ) ;
#104 = VECTOR ( 'NONE', #135, 1000.000000000000000 ) ;
#105 = ORIENTED_EDGE ( 'NONE', *, *, #118, .T. ) ;
#106 = VECTOR ( 'NONE', #175, 1000.000000000000000 ) ;
#107 = ORIENTED_EDGE ( 'NONE', *, *, #148, .T. ) ;
#108 = EDGE_CURVE ( 'NONE', #138, #97, #126, .T. ) ;
#109 = EDGE_LOOP ( 'NONE', ( #84, #183, #96, #168 ) ) ;
#110 = LINE ( 'NONE', #174, #127 ) ;
#111 = CARTESIAN_POINT ( 'NONE',  ( -19.55939671871296781, 0.000000000000000000, -1.089406810770278023E-16 ) ) ;
#112 = COLOUR_RGB ( '',0.8941176470588234615, 0.8941176470588234615, 0.8941176470588234615 ) ;
#113 = FILL_AREA_STYLE_COLOUR ( '', #112 ) ;
#114 = PRODUCT_DEFINITION_CONTEXT ( 'detailed design', #161, 'design' ) ;
#115 = APPLICATION_CONTEXT ( 'automotive_design' ) ;
#116 = DIRECTION ( 'NONE',  ( -0.000000000000000000, -1.000000000000000000, -0.000000000000000000 ) ) ;
#117 = FACE_OUTER_BOUND ( 'NONE', #172, .T. ) ;
#118 = EDGE_CURVE ( 'NONE', #54, #14, #91, .T. ) ;
#119 = SHAPE_DEFINITION_REPRESENTATION ( #154, #17 ) ;
#120 = EDGE_LOOP ( 'NONE', ( #39, #170, #153, #156 ) ) ;
#121 = DIRECTION ( 'NONE',  ( -0.6131472325615351382, 0.000000000000000000, 0.7899686520376176802 ) ) ;
#122 = ORIENTED_EDGE ( 'NONE', *, *, #148, .F. ) ;
#123 = EDGE_CURVE ( 'NONE', #138, #43, #129, .T. ) ;
#124 = DIRECTION ( 'NONE',  ( 0.6131472325615352492, 0.000000000000000000, -0.7899686520376176802 ) ) ;
#125 =( LENGTH_UNIT ( ) NAMED_UNIT ( * ) SI_UNIT ( .MILLI., .METRE. ) );
#126 = LINE ( 'NONE', #102, #152 ) ;
#127 = VECTOR ( 'NONE', #98, 999.9999999999998863 ) ;
#128 = FACE_OUTER_BOUND ( 'NONE', #120, .T. ) ;
#129 = LINE ( 'NONE', #7, #141 ) ;
#130 =( NAMED_UNIT ( * ) SI_UNIT ( $, .STERADIAN. ) SOLID_ANGLE_UNIT ( ) );
#131 = VECTOR ( 'NONE', #72, 999.9999999999998863 ) ;
#132 = DIRECTION ( 'NONE',  ( 1.000000000000000000, 0.000000000000000000, 0.000000000000000000 ) ) ;
#133 = DIRECTION ( 'NONE',  ( -0.7899686520376177912, 0.000000000000000000, 0.6131472325615351382 ) ) ;
#134 = MANIFOLD_SOLID_BREP ( 'Boss-Extrude1', #92 ) ;
#135 = DIRECTION ( 'NONE',  ( -0.000000000000000000, -1.000000000000000000, -0.000000000000000000 ) ) ;
#136 = AXIS2_PLACEMENT_3D ( 'NONE', #8, #103, #75 ) ;
#137 =( LENGTH_UNIT ( ) NAMED_UNIT ( * ) SI_UNIT ( .MILLI., .METRE. ) );
#138 = VERTEX_POINT ( 'NONE', #86 ) ;
#139 = PRODUCT ( 'Diamond_2', 'Diamond_2', '', ( #169 ) ) ;
#140 = ADVANCED_FACE ( 'NONE', ( #117 ), #144, .F. ) ;
#141 = VECTOR ( 'NONE', #47, 1000.000000000000000 ) ;
#142 = EDGE_CURVE ( 'NONE', #15, #138, #89, .T. ) ;
#143 = FACE_OUTER_BOUND ( 'NONE', #185, .T. ) ;
#144 = PLANE ( 'NONE',  #165 ) ;
#145 = CARTESIAN_POINT ( 'NONE',  ( -19.55939671871296781, 40.00000000000000000, -1.089406810770278023E-16 ) ) ;
#146 = CARTESIAN_POINT ( 'NONE',  ( 0.000000000000000000, 0.000000000000000000, 0.000000000000000000 ) ) ;
#147 = UNCERTAINTY_MEASURE_WITH_UNIT (LENGTH_MEASURE( 1.000000000000000082E-05 ), #137, 'distance_accuracy_value', 'NONE');
#148 = EDGE_CURVE ( 'NONE', #14, #186, #26, .T. ) ;
#149 =( NAMED_UNIT ( * ) SI_UNIT ( $, .STERADIAN. ) SOLID_ANGLE_UNIT ( ) );
#150 = DIRECTION ( 'NONE',  ( 0.000000000000000000, 0.000000000000000000, 1.000000000000000000 ) ) ;
#151 = EDGE_LOOP ( 'NONE', ( #157, #107, #63, #95 ) ) ;
#152 = VECTOR ( 'NONE', #177, 1000.000000000000000 ) ;
#153 = ORIENTED_EDGE ( 'NONE', *, *, #142, .F. ) ;
#154 = PRODUCT_DEFINITION_SHAPE ( 'NONE', 'NONE',  #37 ) ;
#155 = ADVANCED_FACE ( 'NONE', ( #166 ), #78, .T. ) ;
#156 = ORIENTED_EDGE ( 'NONE', *, *, #181, .T. ) ;
#157 = ORIENTED_EDGE ( 'NONE', *, *, #12, .T. ) ;
#158 = VECTOR ( 'NONE', #51, 1000.000000000000000 ) ;
#159 = CARTESIAN_POINT ( 'NONE',  ( -1.719302294734931626E-15, 40.00000000000000000, 25.20000000000000639 ) ) ;
#160 = FILL_AREA_STYLE ('',( #113 ) ) ;
#161 = APPLICATION_CONTEXT ( 'automotive_design' ) ;
#162 = PLANE ( 'NONE',  #136 ) ;
#163 = DIRECTION ( 'NONE',  ( -0.6131472325615351382, 0.000000000000000000, -0.7899686520376177912 ) ) ;
#164 = CARTESIAN_POINT ( 'NONE',  ( 19.55939671871297136, 40.00000000000000000, 1.031501067873375935E-14 ) ) ;
#165 = AXIS2_PLACEMENT_3D ( 'NONE', #49, #178, #34 ) ;
#166 = FACE_OUTER_BOUND ( 'NONE', #94, .T. ) ;
#167 = DIRECTION ( 'NONE',  ( 0.6131472325615351382, 0.000000000000000000, 0.7899686520376177912 ) ) ;
#168 = ORIENTED_EDGE ( 'NONE', *, *, #123, .T. ) ;
#169 = PRODUCT_CONTEXT ( 'NONE', #115, 'mechanical' ) ;
#170 = ORIENTED_EDGE ( 'NONE', *, *, #123, .F. ) ;
#171 = ORIENTED_EDGE ( 'NONE', *, *, #108, .T. ) ;
#172 = EDGE_LOOP ( 'NONE', ( #31, #56, #171, #42 ) ) ;
#173 = ADVANCED_FACE ( 'NONE', ( #76 ), #53, .F. ) ;
#174 = CARTESIAN_POINT ( 'NONE',  ( -1.719302294734931626E-15, 0.000000000000000000, 25.20000000000000639 ) ) ;
#175 = DIRECTION ( 'NONE',  ( 0.6131472325615353602, 0.000000000000000000, -0.7899686520376176802 ) ) ;
#176 = PRESENTATION_LAYER_ASSIGNMENT (  '', '', ( #182 ) ) ;
#177 = DIRECTION ( 'NONE',  ( -0.6131472325615351382, 0.000000000000000000, -0.7899686520376177912 ) ) ;
#178 = DIRECTION ( 'NONE',  ( 0.000000000000000000, -1.000000000000000000, 0.000000000000000000 ) ) ;
#179 = AXIS2_PLACEMENT_3D ( 'NONE', #93, #27, #121 ) ;
#180 = CARTESIAN_POINT ( 'NONE',  ( -1.719302294734931626E-15, 40.00000000000000000, 25.20000000000000639 ) ) ;
#181 = EDGE_CURVE ( 'NONE', #15, #52, #64, .T. ) ;
#182 = STYLED_ITEM ( 'NONE', ( #35 ), #134 ) ;
#183 = ORIENTED_EDGE ( 'NONE', *, *, #187, .F. ) ;
#184 = CARTESIAN_POINT ( 'NONE',  ( -19.55939671871296781, 0.000000000000000000, -1.089406810770278023E-16 ) ) ;
#185 = EDGE_LOOP ( 'NONE', ( #29, #30, #32, #105 ) ) ;
#186 = VERTEX_POINT ( 'NONE', #11 ) ;
#187 = EDGE_CURVE ( 'NONE', #97, #186, #80, .T. ) ;
ENDSEC;
END-ISO-10303-21;
