ISO-10303-21;
HEADER;
FILE_DESCRIPTION (( 'STEP AP214' ),
    '1' );
FILE_NAME ('Ellipse_2.STEP',
    '2026-07-23T11:08:39',
    ( '' ),
    ( '' ),
    'SwSTEP 2.0',
    'SolidWorks 2026',
    '' );
FILE_SCHEMA (( 'AUTOMOTIVE_DESIGN' ));
ENDSEC;

DATA;
#1 = CARTESIAN_POINT ( 'NONE',  ( -22.50000000000000000, 40.00000000000000000, 0.000000000000000000 ) ) ;
#2 = CARTESIAN_POINT ( 'NONE',  ( -22.50000000000000000, 40.00000000000000000, 0.000000000000000000 ) ) ;
#3 = ORIENTED_EDGE ( 'NONE', *, *, #23, .T. ) ;
#4 = ORIENTED_EDGE ( 'NONE', *, *, #91, .T. ) ;
#5 =( GEOMETRIC_REPRESENTATION_CONTEXT ( 3 ) GLOBAL_UNCERTAINTY_ASSIGNED_CONTEXT ( ( #70 ) ) GLOBAL_UNIT_ASSIGNED_CONTEXT ( ( #95, #32, #9 ) ) REPRESENTATION_CONTEXT ( 'NONE', 'WORKASPACE' ) );
#6 = CARTESIAN_POINT ( 'NONE',  ( 22.50000000000000711, 40.00000000000000000, -31.99999999999999645 ) ) ;
#7 = CARTESIAN_POINT ( 'NONE',  ( -22.50000000000000000, 40.00000000000000000, 0.000000000000000000 ) ) ;
#8 =( BOUNDED_CURVE ( )  B_SPLINE_CURVE ( 3, ( #122, #124, #69, #121 ),
 .UNSPECIFIED., .F., .F. ) 
 B_SPLINE_CURVE_WITH_KNOTS ( ( 4, 4 ),
 ( 3.141592653589793116, 6.283185307179586232 ),
 .UNSPECIFIED. ) 
 CURVE ( )  GEOMETRIC_REPRESENTATION_ITEM ( )  RATIONAL_B_SPLINE_CURVE ( ( 1.000000000000000000, 0.3333333333333333703, 0.3333333333333333703, 1.000000000000000000 ) ) 
 REPRESENTATION_ITEM ( '' )  );
#9 =( NAMED_UNIT ( * ) SI_UNIT ( $, .STERADIAN. ) SOLID_ANGLE_UNIT ( ) );
#10 = PRODUCT_DEFINITION_SHAPE ( 'NONE', 'NONE',  #102 ) ;
#11 = CARTESIAN_POINT ( 'NONE',  ( 0.000000000000000000, 0.000000000000000000, 0.000000000000000000 ) ) ;
#12 = CLOSED_SHELL ( 'NONE', ( #48, #62, #25, #123 ) ) ;
#13 = SURFACE_SIDE_STYLE ('',( #75 ) ) ;
#14 = VERTEX_POINT ( 'NONE', #2 ) ;
#15 = ORIENTED_EDGE ( 'NONE', *, *, #71, .T. ) ;
#16 = CARTESIAN_POINT ( 'NONE',  ( 22.49999999999999289, 0.000000000000000000, 31.99999999999999645 ) ) ;
#17 = CARTESIAN_POINT ( 'NONE',  ( -22.50000000000000000, 0.000000000000000000, 0.000000000000000000 ) ) ;
#18 = CARTESIAN_POINT ( 'NONE',  ( 22.50000000000000000, 0.000000000000000000, 1.959434878635765131E-15 ) ) ;
#19 = MANIFOLD_SOLID_BREP ( 'Boss-Extrude1', #12 ) ;
#20 = CARTESIAN_POINT ( 'NONE',  ( 22.50000000000000000, 40.00000000000000000, 1.959434878635765131E-15 ) ) ;
#21 = AXIS2_PLACEMENT_3D ( 'NONE', #87, #63, #108 ) ;
#22 = CARTESIAN_POINT ( 'NONE',  ( 0.000000000000000000, 40.00000000000000000, 0.000000000000000000 ) ) ;
#23 = EDGE_CURVE ( 'NONE', #49, #73, #8, .T. ) ;
#24 = ORIENTED_EDGE ( 'NONE', *, *, #97, .T. ) ;
#25 = ADVANCED_FACE ( 'NONE', ( #82 ), #29, .T. ) ;
#26 = CARTESIAN_POINT ( 'NONE',  ( -22.50000000000000000, 40.00000000000000000, 0.000000000000000000 ) ) ;
#27 = CARTESIAN_POINT ( 'NONE',  ( -22.50000000000000000, 40.00000000000000000, 0.000000000000000000 ) ) ;
#28 = PRODUCT ( 'Ellipse_2', 'Ellipse_2', '', ( #80 ) ) ;
#29 = PLANE ( 'NONE',  #68 ) ;
#30 = STYLED_ITEM ( 'NONE', ( #59 ), #19 ) ;
#31 = APPLICATION_PROTOCOL_DEFINITION ( 'draft international standard', 'automotive_design', 1998, #46 ) ;
#32 =( NAMED_UNIT ( * ) PLANE_ANGLE_UNIT ( ) SI_UNIT ( $, .RADIAN. ) );
#33 = COLOUR_RGB ( '',0.8941176470588234615, 0.8941176470588234615, 0.8941176470588234615 ) ;
#34 = EDGE_LOOP ( 'NONE', ( #35, #24, #3, #103 ) ) ;
#35 = ORIENTED_EDGE ( 'NONE', *, *, #71, .F. ) ;
#36 = CARTESIAN_POINT ( 'NONE',  ( -22.50000000000000000, 0.000000000000000000, 31.99999999999999645 ) ) ;
#37 = CARTESIAN_POINT ( 'NONE',  ( 22.50000000000000000, 40.00000000000000000, 1.959434878635765131E-15 ) ) ;
#38 = CARTESIAN_POINT ( 'NONE',  ( -22.50000000000000000, 0.000000000000000000, -31.99999999999999645 ) ) ;
#39 = EDGE_CURVE ( 'NONE', #14, #84, #112, .T. ) ;
#40 = ORIENTED_EDGE ( 'NONE', *, *, #39, .F. ) ;
#41 =( LENGTH_UNIT ( ) NAMED_UNIT ( * ) SI_UNIT ( .MILLI., .METRE. ) );
#42 =( GEOMETRIC_REPRESENTATION_CONTEXT ( 3 ) GLOBAL_UNCERTAINTY_ASSIGNED_CONTEXT ( ( #125 ) ) GLOBAL_UNIT_ASSIGNED_CONTEXT ( ( #41, #115, #128 ) ) REPRESENTATION_CONTEXT ( 'NONE', 'WORKASPACE' ) );
#43 = CARTESIAN_POINT ( 'NONE',  ( 22.49999999999999289, 40.00000000000000000, 31.99999999999999645 ) ) ;
#44 = DIRECTION ( 'NONE',  ( 0.000000000000000000, -0.000000000000000000, 1.000000000000000000 ) ) ;
#45 = FACE_OUTER_BOUND ( 'NONE', #50, .T. ) ;
#46 = APPLICATION_CONTEXT ( 'automotive_design' ) ;
#47 = APPLICATION_PROTOCOL_DEFINITION ( 'draft international standard', 'automotive_design', 1998, #67 ) ;
#48 = ADVANCED_FACE ( 'NONE', ( #76 ), #57, .F. ) ;
#49 = VERTEX_POINT ( 'NONE', #117 ) ;
#50 = EDGE_LOOP ( 'NONE', ( #58, #83 ) ) ;
#51 =( BOUNDED_SURFACE ( )  B_SPLINE_SURFACE ( 3, 1, ( 
 ( #1, #17 ),
 ( #52, #36 ),
 ( #43, #54 ),
 ( #37, #77 ) ),
 .UNSPECIFIED., .F., .F., .F. ) 
 B_SPLINE_SURFACE_WITH_KNOTS ( ( 4, 4 ),
 ( 2, 2 ),
 ( 0.000000000000000000, 1.000000000000000000 ),
 ( 0.000000000000000000, 1.000000000000000000 ),
 .UNSPECIFIED. ) 
 GEOMETRIC_REPRESENTATION_ITEM ( )  RATIONAL_B_SPLINE_SURFACE ( (
 ( 1.000000000000000000, 1.000000000000000000),
 ( 0.3333333333333333703, 0.3333333333333333703),
 ( 0.3333333333333333703, 0.3333333333333333703),
 ( 1.000000000000000000, 1.000000000000000000) ) ) 
 REPRESENTATION_ITEM ( '' )  SURFACE ( )  );
#52 = CARTESIAN_POINT ( 'NONE',  ( -22.50000000000000000, 40.00000000000000000, 31.99999999999999645 ) ) ;
#53 = LINE ( 'NONE', #26, #66 ) ;
#54 = CARTESIAN_POINT ( 'NONE',  ( 22.49999999999999289, 0.000000000000000000, 31.99999999999999645 ) ) ;
#55 = AXIS2_PLACEMENT_3D ( 'NONE', #11, #110, #81 ) ;
#56 = ORIENTED_EDGE ( 'NONE', *, *, #111, .T. ) ;
#57 =( BOUNDED_SURFACE ( )  B_SPLINE_SURFACE ( 3, 1, ( 
 ( #60, #18 ),
 ( #6, #85 ),
 ( #132, #38 ),
 ( #78, #89 ) ),
 .UNSPECIFIED., .F., .F., .T. ) 
 B_SPLINE_SURFACE_WITH_KNOTS ( ( 4, 4 ),
 ( 2, 2 ),
 ( 0.000000000000000000, 1.000000000000000000 ),
 ( 0.000000000000000000, 1.000000000000000000 ),
 .UNSPECIFIED. ) 
 GEOMETRIC_REPRESENTATION_ITEM ( )  RATIONAL_B_SPLINE_SURFACE ( (
 ( 1.000000000000000000, 1.000000000000000000),
 ( 0.3333333333333333703, 0.3333333333333333703),
 ( 0.3333333333333333703, 0.3333333333333333703),
 ( 1.000000000000000000, 1.000000000000000000) ) ) 
 REPRESENTATION_ITEM ( '' )  SURFACE ( )  );
#58 = ORIENTED_EDGE ( 'NONE', *, *, #111, .F. ) ;
#59 = PRESENTATION_STYLE_ASSIGNMENT (( #127 ) ) ;
#60 = CARTESIAN_POINT ( 'NONE',  ( 22.50000000000000000, 40.00000000000000000, 1.959434878635765131E-15 ) ) ;
#61 = LINE ( 'NONE', #107, #119 ) ;
#62 = ADVANCED_FACE ( 'NONE', ( #88 ), #51, .F. ) ;
#63 = DIRECTION ( 'NONE',  ( 0.000000000000000000, 1.000000000000000000, 0.000000000000000000 ) ) ;
#64 = CARTESIAN_POINT ( 'NONE',  ( 22.49999999999999289, 40.00000000000000000, 31.99999999999999645 ) ) ;
#65 = PRODUCT_RELATED_PRODUCT_CATEGORY ( 'part', '', ( #28 ) ) ;
#66 = VECTOR ( 'NONE', #116, 1000.000000000000000 ) ;
#67 = APPLICATION_CONTEXT ( 'automotive_design' ) ;
#68 = AXIS2_PLACEMENT_3D ( 'NONE', #22, #109, #44 ) ;
#69 = CARTESIAN_POINT ( 'NONE',  ( -22.50000000000000000, 0.000000000000000000, -31.99999999999999645 ) ) ;
#70 = UNCERTAINTY_MEASURE_WITH_UNIT (LENGTH_MEASURE( 1.000000000000000082E-05 ), #95, 'distance_accuracy_value', 'NONE');
#71 = EDGE_CURVE ( 'NONE', #84, #14, #79, .T. ) ;
#72 = EDGE_LOOP ( 'NONE', ( #131, #40, #4, #56 ) ) ;
#73 = VERTEX_POINT ( 'NONE', #130 ) ;
#74 = CARTESIAN_POINT ( 'NONE',  ( -22.50000000000000000, 0.000000000000000000, 0.000000000000000000 ) ) ;
#75 = SURFACE_STYLE_FILL_AREA ( #113 ) ;
#76 = FACE_OUTER_BOUND ( 'NONE', #34, .T. ) ;
#77 = CARTESIAN_POINT ( 'NONE',  ( 22.50000000000000000, 0.000000000000000000, 1.959434878635765131E-15 ) ) ;
#78 = CARTESIAN_POINT ( 'NONE',  ( -22.50000000000000000, 40.00000000000000000, 0.000000000000000000 ) ) ;
#79 =( BOUNDED_CURVE ( )  B_SPLINE_CURVE ( 3, ( #98, #105, #120, #7 ),
 .UNSPECIFIED., .F., .T. ) 
 B_SPLINE_CURVE_WITH_KNOTS ( ( 4, 4 ),
 ( 3.141592653589793116, 6.283185307179586232 ),
 .UNSPECIFIED. ) 
 CURVE ( )  GEOMETRIC_REPRESENTATION_ITEM ( )  RATIONAL_B_SPLINE_CURVE ( ( 1.000000000000000000, 0.3333333333333333703, 0.3333333333333333703, 1.000000000000000000 ) ) 
 REPRESENTATION_ITEM ( '' )  );
#80 = PRODUCT_CONTEXT ( 'NONE', #67, 'mechanical' ) ;
#81 = DIRECTION ( 'NONE',  ( 1.000000000000000000, 0.000000000000000000, 0.000000000000000000 ) ) ;
#82 = FACE_OUTER_BOUND ( 'NONE', #106, .T. ) ;
#83 = ORIENTED_EDGE ( 'NONE', *, *, #23, .F. ) ;
#84 = VERTEX_POINT ( 'NONE', #20 ) ;
#85 = CARTESIAN_POINT ( 'NONE',  ( 22.50000000000000711, 0.000000000000000000, -31.99999999999999645 ) ) ;
#86 = DIRECTION ( 'NONE',  ( -0.000000000000000000, -1.000000000000000000, -0.000000000000000000 ) ) ;
#87 = CARTESIAN_POINT ( 'NONE',  ( 0.000000000000000000, 0.000000000000000000, 0.000000000000000000 ) ) ;
#88 = FACE_OUTER_BOUND ( 'NONE', #72, .T. ) ;
#89 = CARTESIAN_POINT ( 'NONE',  ( -22.50000000000000000, 0.000000000000000000, 0.000000000000000000 ) ) ;
#90 = ADVANCED_BREP_SHAPE_REPRESENTATION ( 'Ellipse_2', ( #19, #55 ), #5 ) ;
#91 = EDGE_CURVE ( 'NONE', #14, #73, #53, .T. ) ;
#92 = SHAPE_DEFINITION_REPRESENTATION ( #10, #90 ) ;
#93 = ORIENTED_EDGE ( 'NONE', *, *, #39, .T. ) ;
#94 = FILL_AREA_STYLE_COLOUR ( '', #33 ) ;
#95 =( LENGTH_UNIT ( ) NAMED_UNIT ( * ) SI_UNIT ( .MILLI., .METRE. ) );
#96 = CARTESIAN_POINT ( 'NONE',  ( 22.50000000000000000, 40.00000000000000000, 1.959434878635765131E-15 ) ) ;
#97 = EDGE_CURVE ( 'NONE', #84, #49, #61, .T. ) ;
#98 = CARTESIAN_POINT ( 'NONE',  ( 22.50000000000000000, 40.00000000000000000, 1.959434878635765131E-15 ) ) ;
#99 = CARTESIAN_POINT ( 'NONE',  ( -22.50000000000000000, 40.00000000000000000, 31.99999999999999645 ) ) ;
#100 =( BOUNDED_CURVE ( )  B_SPLINE_CURVE ( 3, ( #74, #133, #16, #118 ),
 .UNSPECIFIED., .F., .F. ) 
 B_SPLINE_CURVE_WITH_KNOTS ( ( 4, 4 ),
 ( 0.000000000000000000, 3.141592653589793116 ),
 .UNSPECIFIED. ) 
 CURVE ( )  GEOMETRIC_REPRESENTATION_ITEM ( )  RATIONAL_B_SPLINE_CURVE ( ( 1.000000000000000000, 0.3333333333333333703, 0.3333333333333333703, 1.000000000000000000 ) ) 
 REPRESENTATION_ITEM ( '' )  );
#101 = PRESENTATION_LAYER_ASSIGNMENT (  '', '', ( #30 ) ) ;
#102 = PRODUCT_DEFINITION ( 'UNKNOWN', '', #126, #129 ) ;
#103 = ORIENTED_EDGE ( 'NONE', *, *, #91, .F. ) ;
#104 = MECHANICAL_DESIGN_GEOMETRIC_PRESENTATION_REPRESENTATION (  '', ( #30 ), #42 ) ;
#105 = CARTESIAN_POINT ( 'NONE',  ( 22.50000000000000711, 40.00000000000000000, -31.99999999999999645 ) ) ;
#106 = EDGE_LOOP ( 'NONE', ( #93, #15 ) ) ;
#107 = CARTESIAN_POINT ( 'NONE',  ( 22.50000000000000000, 40.00000000000000000, 1.959434878635765131E-15 ) ) ;
#108 = DIRECTION ( 'NONE',  ( 0.000000000000000000, -0.000000000000000000, 1.000000000000000000 ) ) ;
#109 = DIRECTION ( 'NONE',  ( 0.000000000000000000, 1.000000000000000000, 0.000000000000000000 ) ) ;
#110 = DIRECTION ( 'NONE',  ( 0.000000000000000000, 0.000000000000000000, 1.000000000000000000 ) ) ;
#111 = EDGE_CURVE ( 'NONE', #73, #49, #100, .T. ) ;
#112 =( BOUNDED_CURVE ( )  B_SPLINE_CURVE ( 3, ( #27, #99, #64, #96 ),
 .UNSPECIFIED., .F., .F. ) 
 B_SPLINE_CURVE_WITH_KNOTS ( ( 4, 4 ),
 ( 0.000000000000000000, 3.141592653589793116 ),
 .UNSPECIFIED. ) 
 CURVE ( )  GEOMETRIC_REPRESENTATION_ITEM ( )  RATIONAL_B_SPLINE_CURVE ( ( 1.000000000000000000, 0.3333333333333333703, 0.3333333333333333703, 1.000000000000000000 ) ) 
 REPRESENTATION_ITEM ( '' )  );
#113 = FILL_AREA_STYLE ('',( #94 ) ) ;
#114 = PLANE ( 'NONE',  #21 ) ;
#115 =( NAMED_UNIT ( * ) PLANE_ANGLE_UNIT ( ) SI_UNIT ( $, .RADIAN. ) );
#116 = DIRECTION ( 'NONE',  ( -0.000000000000000000, -1.000000000000000000, -0.000000000000000000 ) ) ;
#117 = CARTESIAN_POINT ( 'NONE',  ( 22.50000000000000000, 0.000000000000000000, 1.959434878635765131E-15 ) ) ;
#118 = CARTESIAN_POINT ( 'NONE',  ( 22.50000000000000000, 0.000000000000000000, 1.959434878635765131E-15 ) ) ;
#119 = VECTOR ( 'NONE', #86, 1000.000000000000000 ) ;
#120 = CARTESIAN_POINT ( 'NONE',  ( -22.50000000000000000, 40.00000000000000000, -31.99999999999999645 ) ) ;
#121 = CARTESIAN_POINT ( 'NONE',  ( -22.50000000000000000, 0.000000000000000000, 0.000000000000000000 ) ) ;
#122 = CARTESIAN_POINT ( 'NONE',  ( 22.50000000000000000, 0.000000000000000000, 1.959434878635765131E-15 ) ) ;
#123 = ADVANCED_FACE ( 'NONE', ( #45 ), #114, .F. ) ;
#124 = CARTESIAN_POINT ( 'NONE',  ( 22.50000000000000711, 0.000000000000000000, -31.99999999999999645 ) ) ;
#125 = UNCERTAINTY_MEASURE_WITH_UNIT (LENGTH_MEASURE( 1.000000000000000082E-05 ), #41, 'distance_accuracy_value', 'NONE');
#126 = PRODUCT_DEFINITION_FORMATION_WITH_SPECIFIED_SOURCE ( 'ANY', '', #28, .NOT_KNOWN. ) ;
#127 = SURFACE_STYLE_USAGE ( .BOTH. , #13 ) ;
#128 =( NAMED_UNIT ( * ) SI_UNIT ( $, .STERADIAN. ) SOLID_ANGLE_UNIT ( ) );
#129 = PRODUCT_DEFINITION_CONTEXT ( 'detailed design', #46, 'design' ) ;
#130 = CARTESIAN_POINT ( 'NONE',  ( -22.50000000000000000, 0.000000000000000000, 0.000000000000000000 ) ) ;
#131 = ORIENTED_EDGE ( 'NONE', *, *, #97, .F. ) ;
#132 = CARTESIAN_POINT ( 'NONE',  ( -22.50000000000000000, 40.00000000000000000, -31.99999999999999645 ) ) ;
#133 = CARTESIAN_POINT ( 'NONE',  ( -22.50000000000000000, 0.000000000000000000, 31.99999999999999645 ) ) ;
ENDSEC;
END-ISO-10303-21;
