ISO-10303-21;
HEADER;
FILE_DESCRIPTION (( 'STEP AP214' ),
    '1' );
FILE_NAME ('Hexagon_2.STEP',
    '2026-07-23T11:08:40',
    ( '' ),
    ( '' ),
    'SwSTEP 2.0',
    'SolidWorks 2026',
    '' );
FILE_SCHEMA (( 'AUTOMOTIVE_DESIGN' ));
ENDSEC;

DATA;
#1 = CARTESIAN_POINT ( 'NONE',  ( 10.37499999999999645, 40.00000000000000000, -17.97002712852710005 ) ) ;
#2 =( GEOMETRIC_REPRESENTATION_CONTEXT ( 3 ) GLOBAL_UNCERTAINTY_ASSIGNED_CONTEXT ( ( #204 ) ) GLOBAL_UNIT_ASSIGNED_CONTEXT ( ( #155, #176, #17 ) ) REPRESENTATION_CONTEXT ( 'NONE', 'WORKASPACE' ) );
#3 = CARTESIAN_POINT ( 'NONE',  ( 10.37499999999999645, 40.00000000000000000, -17.97002712852710005 ) ) ;
#4 = CARTESIAN_POINT ( 'NONE',  ( 20.75000000000000000, 0.000000000000000000, 1.273647692451062941E-17 ) ) ;
#5 = PLANE ( 'NONE',  #95 ) ;
#6 = UNCERTAINTY_MEASURE_WITH_UNIT (LENGTH_MEASURE( 1.000000000000000082E-05 ), #49, 'distance_accuracy_value', 'NONE');
#7 = DIRECTION ( 'NONE',  ( 0.000000000000000000, 1.000000000000000000, 0.000000000000000000 ) ) ;
#8 = PRODUCT_DEFINITION_FORMATION_WITH_SPECIFIED_SOURCE ( 'ANY', '', #67, .NOT_KNOWN. ) ;
#9 =( NAMED_UNIT ( * ) SI_UNIT ( $, .STERADIAN. ) SOLID_ANGLE_UNIT ( ) );
#10 = CARTESIAN_POINT ( 'NONE',  ( 10.37500000000000000, 0.000000000000000000, 17.97002712852710360 ) ) ;
#11 = DIRECTION ( 'NONE',  ( -0.5000000000000001110, 0.000000000000000000, -0.8660254037844385966 ) ) ;
#12 = EDGE_CURVE ( 'NONE', #133, #231, #249, .T. ) ;
#13 = ORIENTED_EDGE ( 'NONE', *, *, #65, .T. ) ;
#14 = EDGE_LOOP ( 'NONE', ( #148, #56, #172, #53 ) ) ;
#15 = ORIENTED_EDGE ( 'NONE', *, *, #179, .F. ) ;
#16 = SURFACE_STYLE_USAGE ( .BOTH. , #76 ) ;
#17 =( NAMED_UNIT ( * ) SI_UNIT ( $, .STERADIAN. ) SOLID_ANGLE_UNIT ( ) );
#18 = VECTOR ( 'NONE', #244, 1000.000000000000000 ) ;
#19 = FACE_OUTER_BOUND ( 'NONE', #14, .T. ) ;
#20 = CARTESIAN_POINT ( 'NONE',  ( -10.37500000000000178, 40.00000000000000000, -17.97002712852710360 ) ) ;
#21 = DIRECTION ( 'NONE',  ( -0.8660254037844385966, 0.000000000000000000, 0.5000000000000001110 ) ) ;
#22 = MANIFOLD_SOLID_BREP ( 'Boss-Extrude1', #126 ) ;
#23 = AXIS2_PLACEMENT_3D ( 'NONE', #147, #64, #245 ) ;
#24 = LINE ( 'NONE', #140, #132 ) ;
#25 = VERTEX_POINT ( 'NONE', #34 ) ;
#26 = CARTESIAN_POINT ( 'NONE',  ( 10.37500000000000000, 40.00000000000000000, 17.97002712852710360 ) ) ;
#27 = CARTESIAN_POINT ( 'NONE',  ( -20.75000000000000000, 40.00000000000000000, 2.972489837360069820E-15 ) ) ;
#28 = CARTESIAN_POINT ( 'NONE',  ( 20.75000000000000000, 40.00000000000000000, 1.273647692451062941E-17 ) ) ;
#29 = AXIS2_PLACEMENT_3D ( 'NONE', #83, #96, #121 ) ;
#30 = EDGE_CURVE ( 'NONE', #153, #133, #91, .T. ) ;
#31 = LINE ( 'NONE', #52, #223 ) ;
#32 = CARTESIAN_POINT ( 'NONE',  ( 10.37500000000000000, 40.00000000000000000, 17.97002712852710360 ) ) ;
#33 = DIRECTION ( 'NONE',  ( -1.000000000000000000, 0.000000000000000000, -1.672022627447525486E-16 ) ) ;
#34 = CARTESIAN_POINT ( 'NONE',  ( -10.37499999999999645, 0.000000000000000000, 17.97002712852710360 ) ) ;
#35 = ORIENTED_EDGE ( 'NONE', *, *, #12, .F. ) ;
#36 = COLOUR_RGB ( '',0.8941176470588234615, 0.8941176470588234615, 0.8941176470588234615 ) ;
#37 = VERTEX_POINT ( 'NONE', #219 ) ;
#38 = ORIENTED_EDGE ( 'NONE', *, *, #243, .T. ) ;
#39 = ADVANCED_FACE ( 'NONE', ( #182 ), #48, .F. ) ;
#40 = PLANE ( 'NONE',  #29 ) ;
#41 = PRESENTATION_LAYER_ASSIGNMENT (  '', '', ( #113 ) ) ;
#42 = CARTESIAN_POINT ( 'NONE',  ( 10.37500000000000000, 0.000000000000000000, 17.97002712852710360 ) ) ;
#43 = CARTESIAN_POINT ( 'NONE',  ( 10.37499999999999645, 0.000000000000000000, -17.97002712852710005 ) ) ;
#44 = EDGE_CURVE ( 'NONE', #192, #78, #45, .T. ) ;
#45 = LINE ( 'NONE', #42, #131 ) ;
#46 = VERTEX_POINT ( 'NONE', #184 ) ;
#47 = VECTOR ( 'NONE', #253, 1000.000000000000000 ) ;
#48 = PLANE ( 'NONE',  #69 ) ;
#49 =( LENGTH_UNIT ( ) NAMED_UNIT ( * ) SI_UNIT ( .MILLI., .METRE. ) );
#50 = PLANE ( 'NONE',  #60 ) ;
#51 = ADVANCED_FACE ( 'NONE', ( #80 ), #40, .T. ) ;
#52 = CARTESIAN_POINT ( 'NONE',  ( 20.75000000000000000, 40.00000000000000000, 1.273647692451062941E-17 ) ) ;
#53 = ORIENTED_EDGE ( 'NONE', *, *, #179, .T. ) ;
#54 = APPLICATION_CONTEXT ( 'automotive_design' ) ;
#55 = ORIENTED_EDGE ( 'NONE', *, *, #130, .F. ) ;
#56 = ORIENTED_EDGE ( 'NONE', *, *, #199, .F. ) ;
#57 = FILL_AREA_STYLE ('',( #195 ) ) ;
#58 = FACE_OUTER_BOUND ( 'NONE', #217, .T. ) ;
#59 = LINE ( 'NONE', #26, #227 ) ;
#60 = AXIS2_PLACEMENT_3D ( 'NONE', #144, #7, #187 ) ;
#61 = DIRECTION ( 'NONE',  ( 1.000000000000000000, 0.000000000000000000, 0.000000000000000000 ) ) ;
#62 = CARTESIAN_POINT ( 'NONE',  ( -20.75000000000000000, 40.00000000000000000, 2.972489837360069820E-15 ) ) ;
#63 = CARTESIAN_POINT ( 'NONE',  ( -10.37500000000000178, 40.00000000000000000, -17.97002712852710360 ) ) ;
#64 = DIRECTION ( 'NONE',  ( 0.000000000000000000, 0.000000000000000000, 1.000000000000000000 ) ) ;
#65 = EDGE_CURVE ( 'NONE', #231, #25, #157, .T. ) ;
#66 = LINE ( 'NONE', #32, #214 ) ;
#67 = PRODUCT ( 'Hexagon_2', 'Hexagon_2', '', ( #208 ) ) ;
#68 = LINE ( 'NONE', #71, #241 ) ;
#69 = AXIS2_PLACEMENT_3D ( 'NONE', #200, #21, #186 ) ;
#70 = ORIENTED_EDGE ( 'NONE', *, *, #115, .T. ) ;
#71 = CARTESIAN_POINT ( 'NONE',  ( -10.37499999999999645, 0.000000000000000000, 17.97002712852710360 ) ) ;
#72 = ORIENTED_EDGE ( 'NONE', *, *, #73, .F. ) ;
#73 = EDGE_CURVE ( 'NONE', #37, #231, #120, .T. ) ;
#74 = ORIENTED_EDGE ( 'NONE', *, *, #73, .T. ) ;
#75 = VERTEX_POINT ( 'NONE', #79 ) ;
#76 = SURFACE_SIDE_STYLE ('',( #111 ) ) ;
#77 = AXIS2_PLACEMENT_3D ( 'NONE', #63, #97, #237 ) ;
#78 = VERTEX_POINT ( 'NONE', #4 ) ;
#79 = CARTESIAN_POINT ( 'NONE',  ( -10.37499999999999645, 40.00000000000000000, 17.97002712852710360 ) ) ;
#80 = FACE_OUTER_BOUND ( 'NONE', #185, .T. ) ;
#81 = VECTOR ( 'NONE', #33, 1000.000000000000000 ) ;
#82 = CARTESIAN_POINT ( 'NONE',  ( -20.75000000000000000, 0.000000000000000000, 2.972489837360069820E-15 ) ) ;
#83 = CARTESIAN_POINT ( 'NONE',  ( 0.000000000000000000, 40.00000000000000000, 0.000000000000000000 ) ) ;
#84 = PLANE ( 'NONE',  #77 ) ;
#85 = ADVANCED_FACE ( 'NONE', ( #198 ), #5, .F. ) ;
#86 = DIRECTION ( 'NONE',  ( -0.000000000000000000, -1.000000000000000000, -0.000000000000000000 ) ) ;
#87 = ADVANCED_FACE ( 'NONE', ( #221 ), #84, .F. ) ;
#88 = FACE_OUTER_BOUND ( 'NONE', #123, .T. ) ;
#89 = MECHANICAL_DESIGN_GEOMETRIC_PRESENTATION_REPRESENTATION (  '', ( #113 ), #2 ) ;
#90 = VERTEX_POINT ( 'NONE', #122 ) ;
#91 = LINE ( 'NONE', #175, #47 ) ;
#92 = DIRECTION ( 'NONE',  ( -0.4999999999999998335, 0.000000000000000000, 0.8660254037844387076 ) ) ;
#93 = EDGE_CURVE ( 'NONE', #90, #133, #118, .T. ) ;
#94 = PRESENTATION_STYLE_ASSIGNMENT (( #16 ) ) ;
#95 = AXIS2_PLACEMENT_3D ( 'NONE', #3, #124, #139 ) ;
#96 = DIRECTION ( 'NONE',  ( 0.000000000000000000, 1.000000000000000000, 0.000000000000000000 ) ) ;
#97 = DIRECTION ( 'NONE',  ( 0.8660254037844387076, -0.000000000000000000, 0.4999999999999998890 ) ) ;
#98 = DIRECTION ( 'NONE',  ( 0.4999999999999998890, 0.000000000000000000, -0.8660254037844385966 ) ) ;
#99 = VECTOR ( 'NONE', #167, 1000.000000000000000 ) ;
#100 = DIRECTION ( 'NONE',  ( 0.5000000000000001110, 0.000000000000000000, 0.8660254037844385966 ) ) ;
#101 = LINE ( 'NONE', #137, #109 ) ;
#102 = ORIENTED_EDGE ( 'NONE', *, *, #166, .T. ) ;
#103 = LINE ( 'NONE', #128, #99 ) ;
#104 = PRODUCT_RELATED_PRODUCT_CATEGORY ( 'part', '', ( #67 ) ) ;
#105 = CARTESIAN_POINT ( 'NONE',  ( -10.37499999999999645, 40.00000000000000000, 17.97002712852710360 ) ) ;
#106 = PRODUCT_DEFINITION_SHAPE ( 'NONE', 'NONE',  #151 ) ;
#107 = LINE ( 'NONE', #207, #196 ) ;
#108 = DIRECTION ( 'NONE',  ( -1.000000000000000000, 0.000000000000000000, -0.000000000000000000 ) ) ;
#109 = VECTOR ( 'NONE', #61, 1000.000000000000000 ) ;
#110 = ORIENTED_EDGE ( 'NONE', *, *, #93, .T. ) ;
#111 = SURFACE_STYLE_FILL_AREA ( #57 ) ;
#112 = ORIENTED_EDGE ( 'NONE', *, *, #12, .T. ) ;
#113 = STYLED_ITEM ( 'NONE', ( #94 ), #22 ) ;
#114 = ORIENTED_EDGE ( 'NONE', *, *, #130, .T. ) ;
#115 = EDGE_CURVE ( 'NONE', #153, #37, #197, .T. ) ;
#116 = CARTESIAN_POINT ( 'NONE',  ( -10.37500000000000178, 0.000000000000000000, -17.97002712852710360 ) ) ;
#117 = ORIENTED_EDGE ( 'NONE', *, *, #250, .F. ) ;
#118 = LINE ( 'NONE', #43, #119 ) ;
#119 = VECTOR ( 'NONE', #238, 1000.000000000000000 ) ;
#120 = LINE ( 'NONE', #62, #206 ) ;
#121 = DIRECTION ( 'NONE',  ( 0.000000000000000000, -0.000000000000000000, 1.000000000000000000 ) ) ;
#122 = CARTESIAN_POINT ( 'NONE',  ( 10.37499999999999645, 0.000000000000000000, -17.97002712852710005 ) ) ;
#123 = EDGE_LOOP ( 'NONE', ( #13, #15, #171, #74 ) ) ;
#124 = DIRECTION ( 'NONE',  ( -1.672022627447525240E-16, 0.000000000000000000, 1.000000000000000000 ) ) ;
#125 = APPLICATION_PROTOCOL_DEFINITION ( 'draft international standard', 'automotive_design', 1998, #181 ) ;
#126 = CLOSED_SHELL ( 'NONE', ( #85, #87, #193, #174, #145, #39, #51, #247 ) ) ;
#127 = LINE ( 'NONE', #28, #18 ) ;
#128 = CARTESIAN_POINT ( 'NONE',  ( 20.75000000000000000, 0.000000000000000000, 1.273647692451062941E-17 ) ) ;
#129 = ORIENTED_EDGE ( 'NONE', *, *, #160, .T. ) ;
#130 = EDGE_CURVE ( 'NONE', #173, #90, #183, .T. ) ;
#131 = VECTOR ( 'NONE', #98, 1000.000000000000227 ) ;
#132 = VECTOR ( 'NONE', #100, 1000.000000000000000 ) ;
#133 = VERTEX_POINT ( 'NONE', #142 ) ;
#134 = ORIENTED_EDGE ( 'NONE', *, *, #199, .T. ) ;
#135 =( GEOMETRIC_REPRESENTATION_CONTEXT ( 3 ) GLOBAL_UNCERTAINTY_ASSIGNED_CONTEXT ( ( #6 ) ) GLOBAL_UNIT_ASSIGNED_CONTEXT ( ( #49, #188, #9 ) ) REPRESENTATION_CONTEXT ( 'NONE', 'WORKASPACE' ) );
#136 = EDGE_LOOP ( 'NONE', ( #252, #239, #154, #117, #211, #35 ) ) ;
#137 = CARTESIAN_POINT ( 'NONE',  ( -10.37499999999999645, 40.00000000000000000, 17.97002712852710360 ) ) ;
#138 = PLANE ( 'NONE',  #232 ) ;
#139 = DIRECTION ( 'NONE',  ( 1.000000000000000000, 0.000000000000000000, 1.672022627447525240E-16 ) ) ;
#140 = CARTESIAN_POINT ( 'NONE',  ( -20.75000000000000000, 40.00000000000000000, 2.972489837360069820E-15 ) ) ;
#141 = ORIENTED_EDGE ( 'NONE', *, *, #30, .T. ) ;
#142 = CARTESIAN_POINT ( 'NONE',  ( -10.37500000000000178, 0.000000000000000000, -17.97002712852710360 ) ) ;
#143 = DIRECTION ( 'NONE',  ( -0.000000000000000000, -1.000000000000000000, -0.000000000000000000 ) ) ;
#144 = CARTESIAN_POINT ( 'NONE',  ( 0.000000000000000000, 0.000000000000000000, 0.000000000000000000 ) ) ;
#145 = ADVANCED_FACE ( 'NONE', ( #58 ), #235, .F. ) ;
#146 = VECTOR ( 'NONE', #92, 1000.000000000000000 ) ;
#147 = CARTESIAN_POINT ( 'NONE',  ( 0.000000000000000000, 0.000000000000000000, 0.000000000000000000 ) ) ;
#148 = ORIENTED_EDGE ( 'NONE', *, *, #250, .T. ) ;
#149 = APPLICATION_PROTOCOL_DEFINITION ( 'draft international standard', 'automotive_design', 1998, #54 ) ;
#150 = ORIENTED_EDGE ( 'NONE', *, *, #30, .F. ) ;
#151 = PRODUCT_DEFINITION ( 'UNKNOWN', '', #8, #229 ) ;
#152 = EDGE_LOOP ( 'NONE', ( #38, #55, #215, #194 ) ) ;
#153 = VERTEX_POINT ( 'NONE', #222 ) ;
#154 = ORIENTED_EDGE ( 'NONE', *, *, #44, .F. ) ;
#155 =( LENGTH_UNIT ( ) NAMED_UNIT ( * ) SI_UNIT ( .MILLI., .METRE. ) );
#156 = DIRECTION ( 'NONE',  ( -0.000000000000000000, -1.000000000000000000, -0.000000000000000000 ) ) ;
#157 = LINE ( 'NONE', #82, #190 ) ;
#158 = AXIS2_PLACEMENT_3D ( 'NONE', #27, #225, #11 ) ;
#159 = DIRECTION ( 'NONE',  ( -0.4999999999999998890, 0.000000000000000000, 0.8660254037844385966 ) ) ;
#160 = EDGE_CURVE ( 'NONE', #37, #75, #24, .T. ) ;
#161 = ORIENTED_EDGE ( 'NONE', *, *, #44, .T. ) ;
#162 = DIRECTION ( 'NONE',  ( -0.000000000000000000, -1.000000000000000000, -0.000000000000000000 ) ) ;
#163 = EDGE_LOOP ( 'NONE', ( #110, #150, #230, #114 ) ) ;
#164 = VERTEX_POINT ( 'NONE', #203 ) ;
#165 = SHAPE_DEFINITION_REPRESENTATION ( #106, #246 ) ;
#166 = EDGE_CURVE ( 'NONE', #75, #164, #101, .T. ) ;
#167 = DIRECTION ( 'NONE',  ( -0.5000000000000001110, 0.000000000000000000, -0.8660254037844385966 ) ) ;
#168 = PLANE ( 'NONE',  #158 ) ;
#169 = LINE ( 'NONE', #224, #81 ) ;
#170 = EDGE_CURVE ( 'NONE', #164, #46, #59, .T. ) ;
#171 = ORIENTED_EDGE ( 'NONE', *, *, #160, .F. ) ;
#172 = ORIENTED_EDGE ( 'NONE', *, *, #166, .F. ) ;
#173 = VERTEX_POINT ( 'NONE', #1 ) ;
#174 = ADVANCED_FACE ( 'NONE', ( #19 ), #138, .F. ) ;
#175 = CARTESIAN_POINT ( 'NONE',  ( -10.37500000000000178, 40.00000000000000000, -17.97002712852710360 ) ) ;
#176 =( NAMED_UNIT ( * ) PLANE_ANGLE_UNIT ( ) SI_UNIT ( $, .RADIAN. ) );
#177 = VECTOR ( 'NONE', #180, 1000.000000000000000 ) ;
#178 = ORIENTED_EDGE ( 'NONE', *, *, #236, .T. ) ;
#179 = EDGE_CURVE ( 'NONE', #75, #25, #107, .T. ) ;
#180 = DIRECTION ( 'NONE',  ( -0.4999999999999998335, 0.000000000000000000, 0.8660254037844387076 ) ) ;
#181 = APPLICATION_CONTEXT ( 'automotive_design' ) ;
#182 = FACE_OUTER_BOUND ( 'NONE', #152, .T. ) ;
#183 = LINE ( 'NONE', #240, #210 ) ;
#184 = CARTESIAN_POINT ( 'NONE',  ( 20.75000000000000000, 40.00000000000000000, 1.273647692451062941E-17 ) ) ;
#185 = EDGE_LOOP ( 'NONE', ( #233, #70, #129, #102, #251, #178 ) ) ;
#186 = DIRECTION ( 'NONE',  ( 0.5000000000000001110, 0.000000000000000000, 0.8660254037844385966 ) ) ;
#187 = DIRECTION ( 'NONE',  ( 0.000000000000000000, -0.000000000000000000, 1.000000000000000000 ) ) ;
#188 =( NAMED_UNIT ( * ) PLANE_ANGLE_UNIT ( ) SI_UNIT ( $, .RADIAN. ) );
#189 = DIRECTION ( 'NONE',  ( -0.000000000000000000, -1.000000000000000000, -0.000000000000000000 ) ) ;
#190 = VECTOR ( 'NONE', #234, 1000.000000000000000 ) ;
#191 = CARTESIAN_POINT ( 'NONE',  ( -20.75000000000000000, 0.000000000000000000, 2.972489837360069820E-15 ) ) ;
#192 = VERTEX_POINT ( 'NONE', #10 ) ;
#193 = ADVANCED_FACE ( 'NONE', ( #88 ), #168, .F. ) ;
#194 = ORIENTED_EDGE ( 'NONE', *, *, #212, .T. ) ;
#195 = FILL_AREA_STYLE_COLOUR ( '', #36 ) ;
#196 = VECTOR ( 'NONE', #189, 1000.000000000000000 ) ;
#197 = LINE ( 'NONE', #20, #177 ) ;
#198 = FACE_OUTER_BOUND ( 'NONE', #163, .T. ) ;
#199 = EDGE_CURVE ( 'NONE', #164, #192, #66, .T. ) ;
#200 = CARTESIAN_POINT ( 'NONE',  ( 20.75000000000000000, 40.00000000000000000, 1.273647692451062941E-17 ) ) ;
#201 = DIRECTION ( 'NONE',  ( -0.8660254037844387076, 0.000000000000000000, -0.4999999999999999445 ) ) ;
#202 = ORIENTED_EDGE ( 'NONE', *, *, #115, .F. ) ;
#203 = CARTESIAN_POINT ( 'NONE',  ( 10.37500000000000000, 40.00000000000000000, 17.97002712852710360 ) ) ;
#204 = UNCERTAINTY_MEASURE_WITH_UNIT (LENGTH_MEASURE( 1.000000000000000082E-05 ), #155, 'distance_accuracy_value', 'NONE');
#205 = DIRECTION ( 'NONE',  ( 1.000000000000000000, 0.000000000000000000, 0.000000000000000000 ) ) ;
#206 = VECTOR ( 'NONE', #162, 1000.000000000000000 ) ;
#207 = CARTESIAN_POINT ( 'NONE',  ( -10.37499999999999645, 40.00000000000000000, 17.97002712852710360 ) ) ;
#208 = PRODUCT_CONTEXT ( 'NONE', #54, 'mechanical' ) ;
#209 = DIRECTION ( 'NONE',  ( 0.000000000000000000, 0.000000000000000000, -1.000000000000000000 ) ) ;
#210 = VECTOR ( 'NONE', #156, 1000.000000000000000 ) ;
#211 = ORIENTED_EDGE ( 'NONE', *, *, #65, .F. ) ;
#212 = EDGE_CURVE ( 'NONE', #46, #78, #31, .T. ) ;
#213 = ORIENTED_EDGE ( 'NONE', *, *, #170, .F. ) ;
#214 = VECTOR ( 'NONE', #86, 1000.000000000000000 ) ;
#215 = ORIENTED_EDGE ( 'NONE', *, *, #236, .F. ) ;
#216 = EDGE_CURVE ( 'NONE', #173, #153, #169, .T. ) ;
#217 = EDGE_LOOP ( 'NONE', ( #161, #248, #213, #134 ) ) ;
#218 = DIRECTION ( 'NONE',  ( 0.4999999999999998890, 0.000000000000000000, -0.8660254037844385966 ) ) ;
#219 = CARTESIAN_POINT ( 'NONE',  ( -20.75000000000000000, 40.00000000000000000, 2.972489837360069820E-15 ) ) ;
#220 = CARTESIAN_POINT ( 'NONE',  ( 10.37500000000000000, 40.00000000000000000, 17.97002712852710360 ) ) ;
#221 = FACE_OUTER_BOUND ( 'NONE', #228, .T. ) ;
#222 = CARTESIAN_POINT ( 'NONE',  ( -10.37500000000000178, 40.00000000000000000, -17.97002712852710360 ) ) ;
#223 = VECTOR ( 'NONE', #143, 1000.000000000000000 ) ;
#224 = CARTESIAN_POINT ( 'NONE',  ( 10.37499999999999645, 40.00000000000000000, -17.97002712852710005 ) ) ;
#225 = DIRECTION ( 'NONE',  ( 0.8660254037844385966, 0.000000000000000000, -0.5000000000000001110 ) ) ;
#226 = FACE_OUTER_BOUND ( 'NONE', #136, .T. ) ;
#227 = VECTOR ( 'NONE', #218, 1000.000000000000227 ) ;
#228 = EDGE_LOOP ( 'NONE', ( #112, #72, #202, #141 ) ) ;
#229 = PRODUCT_DEFINITION_CONTEXT ( 'detailed design', #181, 'design' ) ;
#230 = ORIENTED_EDGE ( 'NONE', *, *, #216, .F. ) ;
#231 = VERTEX_POINT ( 'NONE', #191 ) ;
#232 = AXIS2_PLACEMENT_3D ( 'NONE', #105, #209, #108 ) ;
#233 = ORIENTED_EDGE ( 'NONE', *, *, #216, .T. ) ;
#234 = DIRECTION ( 'NONE',  ( 0.5000000000000001110, 0.000000000000000000, 0.8660254037844385966 ) ) ;
#235 = PLANE ( 'NONE',  #242 ) ;
#236 = EDGE_CURVE ( 'NONE', #46, #173, #127, .T. ) ;
#237 = DIRECTION ( 'NONE',  ( 0.4999999999999998890, 0.000000000000000000, -0.8660254037844387076 ) ) ;
#238 = DIRECTION ( 'NONE',  ( -1.000000000000000000, 0.000000000000000000, -1.672022627447525486E-16 ) ) ;
#239 = ORIENTED_EDGE ( 'NONE', *, *, #243, .F. ) ;
#240 = CARTESIAN_POINT ( 'NONE',  ( 10.37499999999999645, 40.00000000000000000, -17.97002712852710005 ) ) ;
#241 = VECTOR ( 'NONE', #205, 1000.000000000000000 ) ;
#242 = AXIS2_PLACEMENT_3D ( 'NONE', #220, #201, #159 ) ;
#243 = EDGE_CURVE ( 'NONE', #78, #90, #103, .T. ) ;
#244 = DIRECTION ( 'NONE',  ( -0.5000000000000001110, 0.000000000000000000, -0.8660254037844385966 ) ) ;
#245 = DIRECTION ( 'NONE',  ( 1.000000000000000000, 0.000000000000000000, 0.000000000000000000 ) ) ;
#246 = ADVANCED_BREP_SHAPE_REPRESENTATION ( 'Hexagon_2', ( #22, #23 ), #135 ) ;
#247 = ADVANCED_FACE ( 'NONE', ( #226 ), #50, .F. ) ;
#248 = ORIENTED_EDGE ( 'NONE', *, *, #212, .F. ) ;
#249 = LINE ( 'NONE', #116, #146 ) ;
#250 = EDGE_CURVE ( 'NONE', #25, #192, #68, .T. ) ;
#251 = ORIENTED_EDGE ( 'NONE', *, *, #170, .T. ) ;
#252 = ORIENTED_EDGE ( 'NONE', *, *, #93, .F. ) ;
#253 = DIRECTION ( 'NONE',  ( -0.000000000000000000, -1.000000000000000000, -0.000000000000000000 ) ) ;
ENDSEC;
END-ISO-10303-21;
