ISO-10303-21;
HEADER;
FILE_DESCRIPTION (( 'STEP AP214' ),
    '1' );
FILE_NAME ('Octagon_2.STEP',
    '2026-07-23T11:08:42',
    ( '' ),
    ( '' ),
    'SwSTEP 2.0',
    'SolidWorks 2026',
    '' );
FILE_SCHEMA (( 'AUTOMOTIVE_DESIGN' ));
ENDSEC;

DATA;
#1 = VERTEX_POINT ( 'NONE', #99 ) ;
#2 = ORIENTED_EDGE ( 'NONE', *, *, #53, .F. ) ;
#3 = LINE ( 'NONE', #143, #230 ) ;
#4 = CARTESIAN_POINT ( 'NONE',  ( -7.662950903902255639, 40.00000000000000000, -18.50000000000000711 ) ) ;
#5 = VECTOR ( 'NONE', #58, 1000.000000000000000 ) ;
#6 = CARTESIAN_POINT ( 'NONE',  ( 7.662950903902266298, 40.00000000000000000, 18.50000000000000355 ) ) ;
#7 = APPLICATION_CONTEXT ( 'automotive_design' ) ;
#8 = CARTESIAN_POINT ( 'NONE',  ( -18.50000000000000711, 40.00000000000000000, 7.662950903902251198 ) ) ;
#9 = FACE_OUTER_BOUND ( 'NONE', #316, .T. ) ;
#10 = LINE ( 'NONE', #63, #14 ) ;
#11 = CARTESIAN_POINT ( 'NONE',  ( -18.50000000000000711, 40.00000000000000000, -7.662950903902258304 ) ) ;
#12 = DIRECTION ( 'NONE',  ( 0.7071067811865474617, 0.000000000000000000, -0.7071067811865474617 ) ) ;
#13 = VERTEX_POINT ( 'NONE', #120 ) ;
#14 = VECTOR ( 'NONE', #228, 1000.000000000000000 ) ;
#15 = EDGE_CURVE ( 'NONE', #221, #319, #223, .T. ) ;
#16 = FACE_OUTER_BOUND ( 'NONE', #212, .T. ) ;
#17 = ORIENTED_EDGE ( 'NONE', *, *, #111, .F. ) ;
#18 = LINE ( 'NONE', #112, #109 ) ;
#19 = ORIENTED_EDGE ( 'NONE', *, *, #107, .T. ) ;
#20 = UNCERTAINTY_MEASURE_WITH_UNIT (LENGTH_MEASURE( 1.000000000000000082E-05 ), #160, 'distance_accuracy_value', 'NONE');
#21 = DIRECTION ( 'NONE',  ( 0.7071067811865475727, -0.000000000000000000, 0.7071067811865475727 ) ) ;
#22 = ORIENTED_EDGE ( 'NONE', *, *, #314, .T. ) ;
#23 = LINE ( 'NONE', #4, #256 ) ;
#24 = APPLICATION_PROTOCOL_DEFINITION ( 'draft international standard', 'automotive_design', 1998, #312 ) ;
#25 = ORIENTED_EDGE ( 'NONE', *, *, #290, .T. ) ;
#26 = EDGE_CURVE ( 'NONE', #124, #221, #23, .T. ) ;
#27 = ORIENTED_EDGE ( 'NONE', *, *, #59, .F. ) ;
#28 = VECTOR ( 'NONE', #39, 1000.000000000000000 ) ;
#29 = CARTESIAN_POINT ( 'NONE',  ( 18.50000000000000355, 0.000000000000000000, -7.662950903902270738 ) ) ;
#30 = ORIENTED_EDGE ( 'NONE', *, *, #179, .T. ) ;
#31 = CARTESIAN_POINT ( 'NONE',  ( 7.662950903902272515, 40.00000000000000000, -18.50000000000000711 ) ) ;
#32 = AXIS2_PLACEMENT_3D ( 'NONE', #258, #137, #308 ) ;
#33 = ADVANCED_FACE ( 'NONE', ( #79 ), #194, .F. ) ;
#34 = CARTESIAN_POINT ( 'NONE',  ( 7.662950903902272515, 40.00000000000000000, -18.50000000000000711 ) ) ;
#35 = CARTESIAN_POINT ( 'NONE',  ( 7.662950903902266298, 40.00000000000000000, 18.50000000000000355 ) ) ;
#36 = LINE ( 'NONE', #132, #235 ) ;
#37 = CLOSED_SHELL ( 'NONE', ( #123, #260, #77, #284, #81, #127, #288, #49, #43, #33 ) ) ;
#38 = VECTOR ( 'NONE', #84, 1000.000000000000000 ) ;
#39 = DIRECTION ( 'NONE',  ( -0.000000000000000000, -1.000000000000000000, -0.000000000000000000 ) ) ;
#40 = FACE_OUTER_BOUND ( 'NONE', #247, .T. ) ;
#41 = VERTEX_POINT ( 'NONE', #175 ) ;
#42 = VERTEX_POINT ( 'NONE', #245 ) ;
#43 = ADVANCED_FACE ( 'NONE', ( #267 ), #299, .T. ) ;
#44 = LINE ( 'NONE', #48, #122 ) ;
#45 = VERTEX_POINT ( 'NONE', #224 ) ;
#46 = DIRECTION ( 'NONE',  ( -0.000000000000000000, -1.000000000000000000, -0.000000000000000000 ) ) ;
#47 = ORIENTED_EDGE ( 'NONE', *, *, #163, .F. ) ;
#48 = CARTESIAN_POINT ( 'NONE',  ( -18.50000000000000711, 40.00000000000000000, 7.662950903902251198 ) ) ;
#49 = ADVANCED_FACE ( 'NONE', ( #147 ), #104, .F. ) ;
#50 = DIRECTION ( 'NONE',  ( -0.7071067811865473507, 0.000000000000000000, -0.7071067811865477948 ) ) ;
#51 = EDGE_CURVE ( 'NONE', #265, #298, #249, .T. ) ;
#52 = EDGE_LOOP ( 'NONE', ( #250, #116, #222, #47, #65, #270, #271, #135 ) ) ;
#53 = EDGE_CURVE ( 'NONE', #45, #145, #78, .T. ) ;
#54 = DIRECTION ( 'NONE',  ( 0.000000000000000000, 0.000000000000000000, -1.000000000000000000 ) ) ;
#55 = DIRECTION ( 'NONE',  ( 0.000000000000000000, 1.000000000000000000, -0.000000000000000000 ) ) ;
#56 = CARTESIAN_POINT ( 'NONE',  ( 0.000000000000000000, 0.000000000000000000, 0.000000000000000000 ) ) ;
#57 = ORIENTED_EDGE ( 'NONE', *, *, #290, .F. ) ;
#58 = DIRECTION ( 'NONE',  ( -1.000000000000000000, 0.000000000000000000, 0.000000000000000000 ) ) ;
#59 = EDGE_CURVE ( 'NONE', #124, #148, #3, .T. ) ;
#60 = CARTESIAN_POINT ( 'NONE',  ( 7.662950903902266298, 40.00000000000000000, 18.50000000000000355 ) ) ;
#61 = FILL_AREA_STYLE_COLOUR ( '', #279 ) ;
#62 = FACE_OUTER_BOUND ( 'NONE', #259, .T. ) ;
#63 = CARTESIAN_POINT ( 'NONE',  ( 18.50000000000000355, 0.000000000000000000, 7.662950903902268074 ) ) ;
#64 = AXIS2_PLACEMENT_3D ( 'NONE', #297, #172, #76 ) ;
#65 = ORIENTED_EDGE ( 'NONE', *, *, #314, .F. ) ;
#66 =( LENGTH_UNIT ( ) NAMED_UNIT ( * ) SI_UNIT ( .MILLI., .METRE. ) );
#67 = ORIENTED_EDGE ( 'NONE', *, *, #307, .F. ) ;
#68 = FILL_AREA_STYLE ('',( #61 ) ) ;
#69 = EDGE_LOOP ( 'NONE', ( #134, #197, #237, #30 ) ) ;
#70 = STYLED_ITEM ( 'NONE', ( #211 ), #207 ) ;
#71 = DIRECTION ( 'NONE',  ( -1.000000000000000000, 0.000000000000000000, 0.000000000000000000 ) ) ;
#72 = VERTEX_POINT ( 'NONE', #220 ) ;
#73 = DIRECTION ( 'NONE',  ( 0.000000000000000000, 0.000000000000000000, 1.000000000000000000 ) ) ;
#74 = ORIENTED_EDGE ( 'NONE', *, *, #129, .T. ) ;
#75 = ORIENTED_EDGE ( 'NONE', *, *, #295, .T. ) ;
#76 = DIRECTION ( 'NONE',  ( 0.7071067811865473507, 0.000000000000000000, 0.7071067811865477948 ) ) ;
#77 = ADVANCED_FACE ( 'NONE', ( #9 ), #130, .F. ) ;
#78 = LINE ( 'NONE', #173, #146 ) ;
#79 = FACE_OUTER_BOUND ( 'NONE', #52, .T. ) ;
#80 = ORIENTED_EDGE ( 'NONE', *, *, #174, .T. ) ;
#81 = ADVANCED_FACE ( 'NONE', ( #154 ), #301, .F. ) ;
#82 = DIRECTION ( 'NONE',  ( 0.000000000000000000, 0.000000000000000000, 1.000000000000000000 ) ) ;
#83 = CARTESIAN_POINT ( 'NONE',  ( 7.662950903902266298, 0.000000000000000000, 18.50000000000000355 ) ) ;
#84 = DIRECTION ( 'NONE',  ( -0.000000000000000000, -1.000000000000000000, -0.000000000000000000 ) ) ;
#85 = DIRECTION ( 'NONE',  ( 0.000000000000000000, -0.000000000000000000, 1.000000000000000000 ) ) ;
#86 = CARTESIAN_POINT ( 'NONE',  ( -18.50000000000000711, 40.00000000000000000, -7.662950903902258304 ) ) ;
#87 = DIRECTION ( 'NONE',  ( -0.000000000000000000, -1.000000000000000000, -0.000000000000000000 ) ) ;
#88 = VECTOR ( 'NONE', #183, 999.9999999999998863 ) ;
#89 = CARTESIAN_POINT ( 'NONE',  ( -18.50000000000000711, 0.000000000000000000, 7.662950903902251198 ) ) ;
#90 = EDGE_CURVE ( 'NONE', #319, #72, #110, .T. ) ;
#91 = EDGE_LOOP ( 'NONE', ( #289, #92, #193, #241 ) ) ;
#92 = ORIENTED_EDGE ( 'NONE', *, *, #201, .F. ) ;
#93 = ORIENTED_EDGE ( 'NONE', *, *, #307, .T. ) ;
#94 =( GEOMETRIC_REPRESENTATION_CONTEXT ( 3 ) GLOBAL_UNCERTAINTY_ASSIGNED_CONTEXT ( ( #20 ) ) GLOBAL_UNIT_ASSIGNED_CONTEXT ( ( #160, #264, #311 ) ) REPRESENTATION_CONTEXT ( 'NONE', 'WORKASPACE' ) );
#95 = PLANE ( 'NONE',  #32 ) ;
#96 = ORIENTED_EDGE ( 'NONE', *, *, #15, .T. ) ;
#97 = DIRECTION ( 'NONE',  ( -0.000000000000000000, -1.000000000000000000, -0.000000000000000000 ) ) ;
#98 = VECTOR ( 'NONE', #50, 999.9999999999998863 ) ;
#99 = CARTESIAN_POINT ( 'NONE',  ( 18.50000000000000355, 0.000000000000000000, 7.662950903902268074 ) ) ;
#100 = ORIENTED_EDGE ( 'NONE', *, *, #159, .T. ) ;
#101 = VERTEX_POINT ( 'NONE', #277 ) ;
#102 = EDGE_CURVE ( 'NONE', #164, #101, #178, .T. ) ;
#103 = AXIS2_PLACEMENT_3D ( 'NONE', #273, #246, #294 ) ;
#104 = PLANE ( 'NONE',  #64 ) ;
#105 = LINE ( 'NONE', #202, #190 ) ;
#106 = DIRECTION ( 'NONE',  ( -0.000000000000000000, -1.000000000000000000, -0.000000000000000000 ) ) ;
#107 = EDGE_CURVE ( 'NONE', #298, #221, #177, .T. ) ;
#108 = PLANE ( 'NONE',  #226 ) ;
#109 = VECTOR ( 'NONE', #114, 1000.000000000000114 ) ;
#110 = LINE ( 'NONE', #253, #242 ) ;
#111 = EDGE_CURVE ( 'NONE', #45, #1, #149, .T. ) ;
#112 = CARTESIAN_POINT ( 'NONE',  ( 7.662950903902266298, 40.00000000000000000, 18.50000000000000355 ) ) ;
#113 = CARTESIAN_POINT ( 'NONE',  ( 18.50000000000000355, 40.00000000000000000, 7.662950903902268074 ) ) ;
#114 = DIRECTION ( 'NONE',  ( 0.7071067811865474617, 0.000000000000000000, -0.7071067811865474617 ) ) ;
#115 = CARTESIAN_POINT ( 'NONE',  ( -18.50000000000000711, 0.000000000000000000, -7.662950903902258304 ) ) ;
#116 = ORIENTED_EDGE ( 'NONE', *, *, #51, .F. ) ;
#117 = PRESENTATION_LAYER_ASSIGNMENT (  '', '', ( #70 ) ) ;
#118 = PRODUCT_CONTEXT ( 'NONE', #312, 'mechanical' ) ;
#119 = ORIENTED_EDGE ( 'NONE', *, *, #53, .T. ) ;
#120 = CARTESIAN_POINT ( 'NONE',  ( 7.662950903902272515, 40.00000000000000000, -18.50000000000000711 ) ) ;
#121 = DIRECTION ( 'NONE',  ( 0.000000000000000000, 0.000000000000000000, 1.000000000000000000 ) ) ;
#122 = VECTOR ( 'NONE', #46, 1000.000000000000000 ) ;
#123 = ADVANCED_FACE ( 'NONE', ( #251 ), #108, .F. ) ;
#124 = VERTEX_POINT ( 'NONE', #306 ) ;
#125 = ORIENTED_EDGE ( 'NONE', *, *, #201, .T. ) ;
#126 = ORIENTED_EDGE ( 'NONE', *, *, #102, .T. ) ;
#127 = ADVANCED_FACE ( 'NONE', ( #62 ), #205, .F. ) ;
#128 = CARTESIAN_POINT ( 'NONE',  ( 18.50000000000000355, 40.00000000000000000, -7.662950903902270738 ) ) ;
#129 = EDGE_CURVE ( 'NONE', #1, #265, #10, .T. ) ;
#130 = PLANE ( 'NONE',  #309 ) ;
#131 = LINE ( 'NONE', #182, #88 ) ;
#132 = CARTESIAN_POINT ( 'NONE',  ( 18.50000000000000355, 40.00000000000000000, -7.662950903902270738 ) ) ;
#133 = DIRECTION ( 'NONE',  ( -1.000000000000000000, 0.000000000000000000, -0.000000000000000000 ) ) ;
#134 = ORIENTED_EDGE ( 'NONE', *, *, #51, .T. ) ;
#135 = ORIENTED_EDGE ( 'NONE', *, *, #15, .F. ) ;
#136 = AXIS2_PLACEMENT_3D ( 'NONE', #196, #55, #121 ) ;
#137 = DIRECTION ( 'NONE',  ( 0.7071067811865479058, 0.000000000000000000, -0.7071067811865472397 ) ) ;
#138 = ORIENTED_EDGE ( 'NONE', *, *, #26, .F. ) ;
#139 = CARTESIAN_POINT ( 'NONE',  ( 7.662950903902272515, 0.000000000000000000, -18.50000000000000711 ) ) ;
#140 = ORIENTED_EDGE ( 'NONE', *, *, #26, .T. ) ;
#141 = LINE ( 'NONE', #213, #268 ) ;
#142 = ORIENTED_EDGE ( 'NONE', *, *, #111, .T. ) ;
#143 = CARTESIAN_POINT ( 'NONE',  ( -7.662950903902255639, 40.00000000000000000, -18.50000000000000711 ) ) ;
#144 = CARTESIAN_POINT ( 'NONE',  ( -7.662950903902255639, 0.000000000000000000, -18.50000000000000711 ) ) ;
#145 = VERTEX_POINT ( 'NONE', #128 ) ;
#146 = VECTOR ( 'NONE', #54, 1000.000000000000000 ) ;
#147 = FACE_OUTER_BOUND ( 'NONE', #69, .T. ) ;
#148 = VERTEX_POINT ( 'NONE', #86 ) ;
#149 = LINE ( 'NONE', #206, #28 ) ;
#150 = AXIS2_PLACEMENT_3D ( 'NONE', #60, #305, #252 ) ;
#151 = DIRECTION ( 'NONE',  ( -0.000000000000000000, -1.000000000000000000, -0.000000000000000000 ) ) ;
#152 = DIRECTION ( 'NONE',  ( -0.000000000000000000, -1.000000000000000000, -0.000000000000000000 ) ) ;
#153 = CARTESIAN_POINT ( 'NONE',  ( 18.50000000000000355, 40.00000000000000000, -7.662950903902270738 ) ) ;
#154 = FACE_OUTER_BOUND ( 'NONE', #161, .T. ) ;
#155 = AXIS2_PLACEMENT_3D ( 'NONE', #282, #232, #133 ) ;
#156 = ORIENTED_EDGE ( 'NONE', *, *, #174, .F. ) ;
#157 = CARTESIAN_POINT ( 'NONE',  ( -18.50000000000000711, 40.00000000000000000, -7.662950903902258304 ) ) ;
#158 = EDGE_LOOP ( 'NONE', ( #19, #138, #156, #218 ) ) ;
#159 = EDGE_CURVE ( 'NONE', #167, #42, #131, .T. ) ;
#160 =( LENGTH_UNIT ( ) NAMED_UNIT ( * ) SI_UNIT ( .MILLI., .METRE. ) );
#161 = EDGE_LOOP ( 'NONE', ( #22, #210, #239, #125 ) ) ;
#162 = AXIS2_PLACEMENT_3D ( 'NONE', #263, #21, #12 ) ;
#163 = EDGE_CURVE ( 'NONE', #101, #1, #281, .T. ) ;
#164 = VERTEX_POINT ( 'NONE', #6 ) ;
#165 = PRODUCT_DEFINITION_CONTEXT ( 'detailed design', #7, 'design' ) ;
#166 = LINE ( 'NONE', #261, #274 ) ;
#167 = VERTEX_POINT ( 'NONE', #8 ) ;
#168 = DIRECTION ( 'NONE',  ( -0.7071067811865475727, 0.000000000000000000, 0.7071067811865474617 ) ) ;
#169 = EDGE_CURVE ( 'NONE', #145, #13, #180, .T. ) ;
#170 =( NAMED_UNIT ( * ) SI_UNIT ( $, .STERADIAN. ) SOLID_ANGLE_UNIT ( ) );
#171 = ADVANCED_BREP_SHAPE_REPRESENTATION ( 'Octagon_2', ( #207, #191 ), #243 ) ;
#172 = DIRECTION ( 'NONE',  ( -0.7071067811865477948, 0.000000000000000000, 0.7071067811865473507 ) ) ;
#173 = CARTESIAN_POINT ( 'NONE',  ( 18.50000000000000355, 40.00000000000000000, 7.662950903902268074 ) ) ;
#174 = EDGE_CURVE ( 'NONE', #13, #124, #105, .T. ) ;
#175 = CARTESIAN_POINT ( 'NONE',  ( -7.662950903902264521, 0.000000000000000000, 18.50000000000000355 ) ) ;
#176 = ORIENTED_EDGE ( 'NONE', *, *, #254, .T. ) ;
#177 = LINE ( 'NONE', #200, #5 ) ;
#178 = LINE ( 'NONE', #35, #283 ) ;
#179 = EDGE_CURVE ( 'NONE', #145, #265, #36, .T. ) ;
#180 = LINE ( 'NONE', #153, #185 ) ;
#181 = EDGE_CURVE ( 'NONE', #13, #298, #231, .T. ) ;
#182 = CARTESIAN_POINT ( 'NONE',  ( -18.50000000000000711, 40.00000000000000000, 7.662950903902251198 ) ) ;
#183 = DIRECTION ( 'NONE',  ( 0.7071067811865472397, 0.000000000000000000, 0.7071067811865479058 ) ) ;
#184 = FACE_OUTER_BOUND ( 'NONE', #91, .T. ) ;
#185 = VECTOR ( 'NONE', #255, 999.9999999999998863 ) ;
#186 = LINE ( 'NONE', #208, #304 ) ;
#187 = PLANE ( 'NONE',  #162 ) ;
#188 =( NAMED_UNIT ( * ) PLANE_ANGLE_UNIT ( ) SI_UNIT ( $, .RADIAN. ) );
#189 = EDGE_LOOP ( 'NONE', ( #80, #287, #75, #100, #176, #93, #119, #214 ) ) ;
#190 = VECTOR ( 'NONE', #302, 1000.000000000000000 ) ;
#191 = AXIS2_PLACEMENT_3D ( 'NONE', #56, #244, #275 ) ;
#192 = DIRECTION ( 'NONE',  ( 0.7071067811865472397, 0.000000000000000000, 0.7071067811865479058 ) ) ;
#193 = ORIENTED_EDGE ( 'NONE', *, *, #159, .F. ) ;
#194 = PLANE ( 'NONE',  #103 ) ;
#195 = VECTOR ( 'NONE', #227, 1000.000000000000114 ) ;
#196 = CARTESIAN_POINT ( 'NONE',  ( 0.000000000000000000, 40.00000000000000000, 0.000000000000000000 ) ) ;
#197 = ORIENTED_EDGE ( 'NONE', *, *, #181, .F. ) ;
#198 = PRODUCT_RELATED_PRODUCT_CATEGORY ( 'part', '', ( #318 ) ) ;
#199 = ORIENTED_EDGE ( 'NONE', *, *, #90, .T. ) ;
#200 = CARTESIAN_POINT ( 'NONE',  ( 7.662950903902272515, 0.000000000000000000, -18.50000000000000711 ) ) ;
#201 = EDGE_CURVE ( 'NONE', #42, #41, #203, .T. ) ;
#202 = CARTESIAN_POINT ( 'NONE',  ( 7.662950903902272515, 40.00000000000000000, -18.50000000000000711 ) ) ;
#203 = LINE ( 'NONE', #303, #38 ) ;
#204 = VECTOR ( 'NONE', #106, 1000.000000000000000 ) ;
#205 = PLANE ( 'NONE',  #150 ) ;
#206 = CARTESIAN_POINT ( 'NONE',  ( 18.50000000000000355, 40.00000000000000000, 7.662950903902268074 ) ) ;
#207 = MANIFOLD_SOLID_BREP ( 'Boss-Extrude1', #37 ) ;
#208 = CARTESIAN_POINT ( 'NONE',  ( -7.662950903902264521, 40.00000000000000000, 18.50000000000000355 ) ) ;
#209 = VECTOR ( 'NONE', #73, 1000.000000000000000 ) ;
#210 = ORIENTED_EDGE ( 'NONE', *, *, #102, .F. ) ;
#211 = PRESENTATION_STYLE_ASSIGNMENT (( #215 ) ) ;
#212 = EDGE_LOOP ( 'NONE', ( #96, #57, #27, #140 ) ) ;
#213 = CARTESIAN_POINT ( 'NONE',  ( -18.50000000000000711, 40.00000000000000000, -7.662950903902258304 ) ) ;
#214 = ORIENTED_EDGE ( 'NONE', *, *, #169, .T. ) ;
#215 = SURFACE_STYLE_USAGE ( .BOTH. , #233 ) ;
#216 = ORIENTED_EDGE ( 'NONE', *, *, #163, .T. ) ;
#217 = AXIS2_PLACEMENT_3D ( 'NONE', #113, #71, #236 ) ;
#218 = ORIENTED_EDGE ( 'NONE', *, *, #181, .T. ) ;
#219 = UNCERTAINTY_MEASURE_WITH_UNIT (LENGTH_MEASURE( 1.000000000000000082E-05 ), #66, 'distance_accuracy_value', 'NONE');
#220 = CARTESIAN_POINT ( 'NONE',  ( -18.50000000000000711, 0.000000000000000000, 7.662950903902251198 ) ) ;
#221 = VERTEX_POINT ( 'NONE', #280 ) ;
#222 = ORIENTED_EDGE ( 'NONE', *, *, #129, .F. ) ;
#223 = LINE ( 'NONE', #144, #300 ) ;
#224 = CARTESIAN_POINT ( 'NONE',  ( 18.50000000000000355, 40.00000000000000000, 7.662950903902268074 ) ) ;
#225 = EDGE_CURVE ( 'NONE', #167, #72, #44, .T. ) ;
#226 = AXIS2_PLACEMENT_3D ( 'NONE', #31, #85, #278 ) ;
#227 = DIRECTION ( 'NONE',  ( 0.7071067811865474617, 0.000000000000000000, -0.7071067811865474617 ) ) ;
#228 = DIRECTION ( 'NONE',  ( 0.000000000000000000, 0.000000000000000000, -1.000000000000000000 ) ) ;
#229 = DIRECTION ( 'NONE',  ( 1.000000000000000000, 0.000000000000000000, 0.000000000000000000 ) ) ;
#230 = VECTOR ( 'NONE', #293, 1000.000000000000000 ) ;
#231 = LINE ( 'NONE', #34, #204 ) ;
#232 = DIRECTION ( 'NONE',  ( 0.000000000000000000, 0.000000000000000000, -1.000000000000000000 ) ) ;
#233 = SURFACE_SIDE_STYLE ('',( #238 ) ) ;
#234 = EDGE_CURVE ( 'NONE', #72, #41, #240, .T. ) ;
#235 = VECTOR ( 'NONE', #151, 1000.000000000000000 ) ;
#236 = DIRECTION ( 'NONE',  ( 0.000000000000000000, 0.000000000000000000, 1.000000000000000000 ) ) ;
#237 = ORIENTED_EDGE ( 'NONE', *, *, #169, .F. ) ;
#238 = SURFACE_STYLE_FILL_AREA ( #68 ) ;
#239 = ORIENTED_EDGE ( 'NONE', *, *, #254, .F. ) ;
#240 = LINE ( 'NONE', #89, #248 ) ;
#241 = ORIENTED_EDGE ( 'NONE', *, *, #225, .T. ) ;
#242 = VECTOR ( 'NONE', #82, 1000.000000000000000 ) ;
#243 =( GEOMETRIC_REPRESENTATION_CONTEXT ( 3 ) GLOBAL_UNCERTAINTY_ASSIGNED_CONTEXT ( ( #219 ) ) GLOBAL_UNIT_ASSIGNED_CONTEXT ( ( #66, #188, #170 ) ) REPRESENTATION_CONTEXT ( 'NONE', 'WORKASPACE' ) );
#244 = DIRECTION ( 'NONE',  ( 0.000000000000000000, 0.000000000000000000, 1.000000000000000000 ) ) ;
#245 = CARTESIAN_POINT ( 'NONE',  ( -7.662950903902264521, 40.00000000000000000, 18.50000000000000355 ) ) ;
#246 = DIRECTION ( 'NONE',  ( 0.000000000000000000, 1.000000000000000000, -0.000000000000000000 ) ) ;
#247 = EDGE_LOOP ( 'NONE', ( #74, #262, #2, #142 ) ) ;
#248 = VECTOR ( 'NONE', #192, 999.9999999999998863 ) ;
#249 = LINE ( 'NONE', #29, #98 ) ;
#250 = ORIENTED_EDGE ( 'NONE', *, *, #107, .F. ) ;
#251 = FACE_OUTER_BOUND ( 'NONE', #158, .T. ) ;
#252 = DIRECTION ( 'NONE',  ( -0.7071067811865474617, 0.000000000000000000, 0.7071067811865474617 ) ) ;
#253 = CARTESIAN_POINT ( 'NONE',  ( -18.50000000000000711, 0.000000000000000000, -7.662950903902258304 ) ) ;
#254 = EDGE_CURVE ( 'NONE', #42, #164, #186, .T. ) ;
#255 = DIRECTION ( 'NONE',  ( -0.7071067811865473507, 0.000000000000000000, -0.7071067811865477948 ) ) ;
#256 = VECTOR ( 'NONE', #97, 1000.000000000000000 ) ;
#257 = DIRECTION ( 'NONE',  ( 0.000000000000000000, 0.000000000000000000, -1.000000000000000000 ) ) ;
#258 = CARTESIAN_POINT ( 'NONE',  ( -18.50000000000000711, 40.00000000000000000, 7.662950903902251198 ) ) ;
#259 = EDGE_LOOP ( 'NONE', ( #216, #17, #67, #126 ) ) ;
#260 = ADVANCED_FACE ( 'NONE', ( #16 ), #187, .F. ) ;
#261 = CARTESIAN_POINT ( 'NONE',  ( -7.662950903902264521, 0.000000000000000000, 18.50000000000000355 ) ) ;
#262 = ORIENTED_EDGE ( 'NONE', *, *, #179, .F. ) ;
#263 = CARTESIAN_POINT ( 'NONE',  ( -7.662950903902255639, 40.00000000000000000, -18.50000000000000711 ) ) ;
#264 =( NAMED_UNIT ( * ) PLANE_ANGLE_UNIT ( ) SI_UNIT ( $, .RADIAN. ) );
#265 = VERTEX_POINT ( 'NONE', #315 ) ;
#266 = DIRECTION ( 'NONE',  ( 1.000000000000000000, 0.000000000000000000, 0.000000000000000000 ) ) ;
#267 = FACE_OUTER_BOUND ( 'NONE', #189, .T. ) ;
#268 = VECTOR ( 'NONE', #87, 1000.000000000000000 ) ;
#269 = SHAPE_DEFINITION_REPRESENTATION ( #285, #171 ) ;
#270 = ORIENTED_EDGE ( 'NONE', *, *, #234, .F. ) ;
#271 = ORIENTED_EDGE ( 'NONE', *, *, #90, .F. ) ;
#272 = APPLICATION_PROTOCOL_DEFINITION ( 'draft international standard', 'automotive_design', 1998, #7 ) ;
#273 = CARTESIAN_POINT ( 'NONE',  ( 0.000000000000000000, 0.000000000000000000, 0.000000000000000000 ) ) ;
#274 = VECTOR ( 'NONE', #266, 1000.000000000000000 ) ;
#275 = DIRECTION ( 'NONE',  ( 1.000000000000000000, 0.000000000000000000, 0.000000000000000000 ) ) ;
#276 = ORIENTED_EDGE ( 'NONE', *, *, #225, .F. ) ;
#277 = CARTESIAN_POINT ( 'NONE',  ( 7.662950903902266298, 0.000000000000000000, 18.50000000000000355 ) ) ;
#278 = DIRECTION ( 'NONE',  ( 1.000000000000000000, 0.000000000000000000, -0.000000000000000000 ) ) ;
#279 = COLOUR_RGB ( '',0.8941176470588234615, 0.8941176470588234615, 0.8941176470588234615 ) ;
#280 = CARTESIAN_POINT ( 'NONE',  ( -7.662950903902255639, 0.000000000000000000, -18.50000000000000711 ) ) ;
#281 = LINE ( 'NONE', #83, #195 ) ;
#282 = CARTESIAN_POINT ( 'NONE',  ( -7.662950903902264521, 40.00000000000000000, 18.50000000000000355 ) ) ;
#283 = VECTOR ( 'NONE', #152, 1000.000000000000000 ) ;
#284 = ADVANCED_FACE ( 'NONE', ( #184 ), #95, .F. ) ;
#285 = PRODUCT_DEFINITION_SHAPE ( 'NONE', 'NONE',  #310 ) ;
#286 = DIRECTION ( 'NONE',  ( 1.000000000000000000, 0.000000000000000000, 0.000000000000000000 ) ) ;
#287 = ORIENTED_EDGE ( 'NONE', *, *, #59, .T. ) ;
#288 = ADVANCED_FACE ( 'NONE', ( #40 ), #291, .F. ) ;
#289 = ORIENTED_EDGE ( 'NONE', *, *, #234, .T. ) ;
#290 = EDGE_CURVE ( 'NONE', #148, #319, #141, .T. ) ;
#291 = PLANE ( 'NONE',  #217 ) ;
#292 = LINE ( 'NONE', #157, #209 ) ;
#293 = DIRECTION ( 'NONE',  ( -0.7071067811865475727, 0.000000000000000000, 0.7071067811865474617 ) ) ;
#294 = DIRECTION ( 'NONE',  ( 0.000000000000000000, 0.000000000000000000, 1.000000000000000000 ) ) ;
#295 = EDGE_CURVE ( 'NONE', #148, #167, #292, .T. ) ;
#296 = PRODUCT_DEFINITION_FORMATION_WITH_SPECIFIED_SOURCE ( 'ANY', '', #318, .NOT_KNOWN. ) ;
#297 = CARTESIAN_POINT ( 'NONE',  ( 18.50000000000000355, 40.00000000000000000, -7.662950903902270738 ) ) ;
#298 = VERTEX_POINT ( 'NONE', #139 ) ;
#299 = PLANE ( 'NONE',  #136 ) ;
#300 = VECTOR ( 'NONE', #168, 1000.000000000000000 ) ;
#301 = PLANE ( 'NONE',  #155 ) ;
#302 = DIRECTION ( 'NONE',  ( -1.000000000000000000, 0.000000000000000000, 0.000000000000000000 ) ) ;
#303 = CARTESIAN_POINT ( 'NONE',  ( -7.662950903902264521, 40.00000000000000000, 18.50000000000000355 ) ) ;
#304 = VECTOR ( 'NONE', #286, 1000.000000000000000 ) ;
#305 = DIRECTION ( 'NONE',  ( -0.7071067811865475727, 0.000000000000000000, -0.7071067811865475727 ) ) ;
#306 = CARTESIAN_POINT ( 'NONE',  ( -7.662950903902255639, 40.00000000000000000, -18.50000000000000711 ) ) ;
#307 = EDGE_CURVE ( 'NONE', #164, #45, #18, .T. ) ;
#308 = DIRECTION ( 'NONE',  ( -0.7071067811865472397, 0.000000000000000000, -0.7071067811865479058 ) ) ;
#309 = AXIS2_PLACEMENT_3D ( 'NONE', #11, #229, #257 ) ;
#310 = PRODUCT_DEFINITION ( 'UNKNOWN', '', #296, #165 ) ;
#311 =( NAMED_UNIT ( * ) SI_UNIT ( $, .STERADIAN. ) SOLID_ANGLE_UNIT ( ) );
#312 = APPLICATION_CONTEXT ( 'automotive_design' ) ;
#313 = ORIENTED_EDGE ( 'NONE', *, *, #295, .F. ) ;
#314 = EDGE_CURVE ( 'NONE', #41, #101, #166, .T. ) ;
#315 = CARTESIAN_POINT ( 'NONE',  ( 18.50000000000000355, 0.000000000000000000, -7.662950903902270738 ) ) ;
#316 = EDGE_LOOP ( 'NONE', ( #199, #276, #313, #25 ) ) ;
#317 = MECHANICAL_DESIGN_GEOMETRIC_PRESENTATION_REPRESENTATION (  '', ( #70 ), #94 ) ;
#318 = PRODUCT ( 'Octagon_2', 'Octagon_2', '', ( #118 ) ) ;
#319 = VERTEX_POINT ( 'NONE', #115 ) ;
ENDSEC;
END-ISO-10303-21;
