ISO-10303-21;
HEADER;
FILE_DESCRIPTION (( 'STEP AP214' ),
    '1' );
FILE_NAME ('Parallelogram_2.STEP',
    '2026-07-23T11:08:43',
    ( '' ),
    ( '' ),
    'SwSTEP 2.0',
    'SolidWorks 2026',
    '' );
FILE_SCHEMA (( 'AUTOMOTIVE_DESIGN' ));
ENDSEC;

DATA;
#1 = AXIS2_PLACEMENT_3D ( 'NONE', #184, #142, #120 ) ;
#2 = VERTEX_POINT ( 'NONE', #132 ) ;
#3 = LINE ( 'NONE', #60, #16 ) ;
#4 = CARTESIAN_POINT ( 'NONE',  ( 0.000000000000000000, 0.000000000000000000, 0.000000000000000000 ) ) ;
#5 = FACE_OUTER_BOUND ( 'NONE', #106, .T. ) ;
#6 = DIRECTION ( 'NONE',  ( 0.3030352696327778261, -0.000000000000000000, 0.9529793415172175264 ) ) ;
#7 = ORIENTED_EDGE ( 'NONE', *, *, #15, .F. ) ;
#8 = DIRECTION ( 'NONE',  ( 0.000000000000000000, 0.000000000000000000, -1.000000000000000000 ) ) ;
#9 = VECTOR ( 'NONE', #146, 1000.000000000000000 ) ;
#10 = ORIENTED_EDGE ( 'NONE', *, *, #180, .T. ) ;
#11 = ORIENTED_EDGE ( 'NONE', *, *, #121, .T. ) ;
#12 = ORIENTED_EDGE ( 'NONE', *, *, #103, .F. ) ;
#13 = VECTOR ( 'NONE', #42, 1000.000000000000000 ) ;
#14 = PRODUCT ( 'Parallelogram_2', 'Parallelogram_2', '', ( #174 ) ) ;
#15 = EDGE_CURVE ( 'NONE', #167, #2, #78, .T. ) ;
#16 = VECTOR ( 'NONE', #94, 1000.000000000000227 ) ;
#17 = CARTESIAN_POINT ( 'NONE',  ( 0.000000000000000000, 40.00000000000000000, 0.000000000000000000 ) ) ;
#18 = CARTESIAN_POINT ( 'NONE',  ( -8.585655452990927472, 40.00000000000000000, -27.00000000000000000 ) ) ;
#19 = SURFACE_SIDE_STYLE ('',( #131 ) ) ;
#20 = CARTESIAN_POINT ( 'NONE',  ( 0.000000000000000000, 0.000000000000000000, 0.000000000000000000 ) ) ;
#21 = AXIS2_PLACEMENT_3D ( 'NONE', #82, #95, #79 ) ;
#22 = DIRECTION ( 'NONE',  ( 1.000000000000000000, 0.000000000000000000, 0.000000000000000000 ) ) ;
#23 = EDGE_LOOP ( 'NONE', ( #160, #32, #7, #59 ) ) ;
#24 = DIRECTION ( 'NONE',  ( -0.000000000000000000, -1.000000000000000000, -0.000000000000000000 ) ) ;
#25 =( GEOMETRIC_REPRESENTATION_CONTEXT ( 3 ) GLOBAL_UNCERTAINTY_ASSIGNED_CONTEXT ( ( #27 ) ) GLOBAL_UNIT_ASSIGNED_CONTEXT ( ( #141, #117, #130 ) ) REPRESENTATION_CONTEXT ( 'NONE', 'WORKASPACE' ) );
#26 = APPLICATION_CONTEXT ( 'automotive_design' ) ;
#27 = UNCERTAINTY_MEASURE_WITH_UNIT (LENGTH_MEASURE( 1.000000000000000082E-05 ), #141, 'distance_accuracy_value', 'NONE');
#28 = EDGE_LOOP ( 'NONE', ( #127, #57, #53, #11 ) ) ;
#29 = MECHANICAL_DESIGN_GEOMETRIC_PRESENTATION_REPRESENTATION (  '', ( #87 ), #163 ) ;
#30 = FACE_OUTER_BOUND ( 'NONE', #179, .T. ) ;
#31 = CARTESIAN_POINT ( 'NONE',  ( -8.585655452990927472, 0.000000000000000000, -27.00000000000000000 ) ) ;
#32 = ORIENTED_EDGE ( 'NONE', *, *, #172, .F. ) ;
#33 = PLANE ( 'NONE',  #34 ) ;
#34 = AXIS2_PLACEMENT_3D ( 'NONE', #17, #105, #51 ) ;
#35 = ORIENTED_EDGE ( 'NONE', *, *, #172, .T. ) ;
#36 = DIRECTION ( 'NONE',  ( -1.000000000000000000, -0.000000000000000000, -0.000000000000000000 ) ) ;
#37 = FACE_OUTER_BOUND ( 'NONE', #28, .T. ) ;
#38 = APPLICATION_CONTEXT ( 'automotive_design' ) ;
#39 = ADVANCED_FACE ( 'NONE', ( #161 ), #33, .F. ) ;
#40 = EDGE_CURVE ( 'NONE', #2, #152, #118, .T. ) ;
#41 = ADVANCED_FACE ( 'NONE', ( #5 ), #65, .T. ) ;
#42 = DIRECTION ( 'NONE',  ( -0.000000000000000000, -1.000000000000000000, -0.000000000000000000 ) ) ;
#43 = UNCERTAINTY_MEASURE_WITH_UNIT (LENGTH_MEASURE( 1.000000000000000082E-05 ), #159, 'distance_accuracy_value', 'NONE');
#44 = VECTOR ( 'NONE', #145, 1000.000000000000000 ) ;
#45 =( NAMED_UNIT ( * ) SI_UNIT ( $, .STERADIAN. ) SOLID_ANGLE_UNIT ( ) );
#46 = CARTESIAN_POINT ( 'NONE',  ( 0.000000000000000000, 0.000000000000000000, 0.000000000000000000 ) ) ;
#47 = FILL_AREA_STYLE ('',( #175 ) ) ;
#48 = EDGE_CURVE ( 'NONE', #55, #99, #3, .T. ) ;
#49 = CARTESIAN_POINT ( 'NONE',  ( 38.50000000000000000, 0.000000000000000000, 0.000000000000000000 ) ) ;
#50 = CARTESIAN_POINT ( 'NONE',  ( 29.91434454700907253, 0.000000000000000000, -27.00000000000000000 ) ) ;
#51 = DIRECTION ( 'NONE',  ( -0.3030352696327778261, 0.000000000000000000, -0.9529793415172175264 ) ) ;
#52 = PRODUCT_DEFINITION_FORMATION_WITH_SPECIFIED_SOURCE ( 'ANY', '', #14, .NOT_KNOWN. ) ;
#53 = ORIENTED_EDGE ( 'NONE', *, *, #40, .T. ) ;
#54 = CARTESIAN_POINT ( 'NONE',  ( 29.91434454700907253, 40.00000000000000000, -27.00000000000000000 ) ) ;
#55 = VERTEX_POINT ( 'NONE', #49 ) ;
#56 = APPLICATION_PROTOCOL_DEFINITION ( 'draft international standard', 'automotive_design', 1998, #38 ) ;
#57 = ORIENTED_EDGE ( 'NONE', *, *, #15, .T. ) ;
#58 = VECTOR ( 'NONE', #173, 1000.000000000000227 ) ;
#59 = ORIENTED_EDGE ( 'NONE', *, *, #169, .T. ) ;
#60 = CARTESIAN_POINT ( 'NONE',  ( 38.50000000000000000, 0.000000000000000000, 0.000000000000000000 ) ) ;
#61 = DIRECTION ( 'NONE',  ( 1.000000000000000000, 0.000000000000000000, 0.000000000000000000 ) ) ;
#62 = DIRECTION ( 'NONE',  ( 1.000000000000000000, 0.000000000000000000, 0.000000000000000000 ) ) ;
#63 = EDGE_CURVE ( 'NONE', #99, #144, #158, .T. ) ;
#64 = CARTESIAN_POINT ( 'NONE',  ( 38.50000000000000000, 40.00000000000000000, 0.000000000000000000 ) ) ;
#65 = PLANE ( 'NONE',  #168 ) ;
#66 = DIRECTION ( 'NONE',  ( 0.000000000000000000, 0.000000000000000000, -1.000000000000000000 ) ) ;
#67 = ORIENTED_EDGE ( 'NONE', *, *, #63, .F. ) ;
#68 = CARTESIAN_POINT ( 'NONE',  ( -8.585655452990927472, 0.000000000000000000, -27.00000000000000000 ) ) ;
#69 = VECTOR ( 'NONE', #93, 1000.000000000000000 ) ;
#70 = PRODUCT_DEFINITION ( 'UNKNOWN', '', #52, #115 ) ;
#71 = COLOUR_RGB ( '',0.8941176470588234615, 0.8941176470588234615, 0.8941176470588234615 ) ;
#72 = EDGE_CURVE ( 'NONE', #152, #99, #122, .T. ) ;
#73 = PRODUCT_DEFINITION_SHAPE ( 'NONE', 'NONE',  #70 ) ;
#74 = MANIFOLD_SOLID_BREP ( 'Boss-Extrude1', #126 ) ;
#75 = LINE ( 'NONE', #86, #44 ) ;
#76 = VERTEX_POINT ( 'NONE', #18 ) ;
#77 = CARTESIAN_POINT ( 'NONE',  ( 0.000000000000000000, 40.00000000000000000, 0.000000000000000000 ) ) ;
#78 = LINE ( 'NONE', #147, #119 ) ;
#79 = DIRECTION ( 'NONE',  ( 1.000000000000000000, 0.000000000000000000, -0.000000000000000000 ) ) ;
#80 = LINE ( 'NONE', #156, #148 ) ;
#81 = PLANE ( 'NONE',  #21 ) ;
#82 = CARTESIAN_POINT ( 'NONE',  ( -8.585655452990927472, 40.00000000000000000, -27.00000000000000000 ) ) ;
#83 = LINE ( 'NONE', #110, #89 ) ;
#84 = FACE_OUTER_BOUND ( 'NONE', #23, .T. ) ;
#85 = ORIENTED_EDGE ( 'NONE', *, *, #138, .F. ) ;
#86 = CARTESIAN_POINT ( 'NONE',  ( 38.50000000000000000, 40.00000000000000000, 0.000000000000000000 ) ) ;
#87 = STYLED_ITEM ( 'NONE', ( #91 ), #74 ) ;
#88 = ADVANCED_FACE ( 'NONE', ( #134 ), #81, .F. ) ;
#89 = VECTOR ( 'NONE', #6, 1000.000000000000227 ) ;
#90 = DIRECTION ( 'NONE',  ( -0.9529793415172176374, 0.000000000000000000, 0.3030352696327778816 ) ) ;
#91 = PRESENTATION_STYLE_ASSIGNMENT (( #108 ) ) ;
#92 = DIRECTION ( 'NONE',  ( 0.3030352696327778261, 0.000000000000000000, 0.9529793415172175264 ) ) ;
#93 = DIRECTION ( 'NONE',  ( -1.000000000000000000, -0.000000000000000000, -0.000000000000000000 ) ) ;
#94 = DIRECTION ( 'NONE',  ( -0.3030352696327778261, 0.000000000000000000, -0.9529793415172175264 ) ) ;
#95 = DIRECTION ( 'NONE',  ( 0.000000000000000000, 0.000000000000000000, 1.000000000000000000 ) ) ;
#96 = VERTEX_POINT ( 'NONE', #181 ) ;
#97 = LINE ( 'NONE', #150, #170 ) ;
#98 = ORIENTED_EDGE ( 'NONE', *, *, #138, .T. ) ;
#99 = VERTEX_POINT ( 'NONE', #50 ) ;
#100 = ORIENTED_EDGE ( 'NONE', *, *, #48, .F. ) ;
#101 = AXIS2_PLACEMENT_3D ( 'NONE', #166, #112, #8 ) ;
#102 = ORIENTED_EDGE ( 'NONE', *, *, #40, .F. ) ;
#103 = EDGE_CURVE ( 'NONE', #96, #55, #129, .T. ) ;
#104 = CARTESIAN_POINT ( 'NONE',  ( 38.50000000000000000, 40.00000000000000000, 0.000000000000000000 ) ) ;
#105 = DIRECTION ( 'NONE',  ( 0.9529793415172176374, 0.000000000000000000, -0.3030352696327778816 ) ) ;
#106 = EDGE_LOOP ( 'NONE', ( #125, #67, #100, #12 ) ) ;
#107 = EDGE_CURVE ( 'NONE', #76, #167, #83, .T. ) ;
#108 = SURFACE_STYLE_USAGE ( .BOTH. , #19 ) ;
#109 = ORIENTED_EDGE ( 'NONE', *, *, #63, .T. ) ;
#110 = CARTESIAN_POINT ( 'NONE',  ( 0.000000000000000000, 40.00000000000000000, 0.000000000000000000 ) ) ;
#111 = ORIENTED_EDGE ( 'NONE', *, *, #72, .F. ) ;
#112 = DIRECTION ( 'NONE',  ( 0.000000000000000000, -1.000000000000000000, 0.000000000000000000 ) ) ;
#113 = PRODUCT_RELATED_PRODUCT_CATEGORY ( 'part', '', ( #14 ) ) ;
#114 = SHAPE_DEFINITION_REPRESENTATION ( #73, #140 ) ;
#115 = PRODUCT_DEFINITION_CONTEXT ( 'detailed design', #38, 'design' ) ;
#116 = AXIS2_PLACEMENT_3D ( 'NONE', #104, #90, #92 ) ;
#117 =( NAMED_UNIT ( * ) PLANE_ANGLE_UNIT ( ) SI_UNIT ( $, .RADIAN. ) );
#118 = LINE ( 'NONE', #64, #58 ) ;
#119 = VECTOR ( 'NONE', #62, 1000.000000000000000 ) ;
#120 = DIRECTION ( 'NONE',  ( -1.000000000000000000, 0.000000000000000000, -0.000000000000000000 ) ) ;
#121 = EDGE_CURVE ( 'NONE', #152, #76, #183, .T. ) ;
#122 = LINE ( 'NONE', #178, #9 ) ;
#123 = ORIENTED_EDGE ( 'NONE', *, *, #121, .F. ) ;
#124 = PLANE ( 'NONE',  #101 ) ;
#125 = ORIENTED_EDGE ( 'NONE', *, *, #180, .F. ) ;
#126 = CLOSED_SHELL ( 'NONE', ( #39, #162, #187, #88, #154, #41 ) ) ;
#127 = ORIENTED_EDGE ( 'NONE', *, *, #107, .T. ) ;
#128 = DIRECTION ( 'NONE',  ( 0.000000000000000000, -1.000000000000000000, 0.000000000000000000 ) ) ;
#129 = LINE ( 'NONE', #4, #185 ) ;
#130 =( NAMED_UNIT ( * ) SI_UNIT ( $, .STERADIAN. ) SOLID_ANGLE_UNIT ( ) );
#131 = SURFACE_STYLE_FILL_AREA ( #47 ) ;
#132 = CARTESIAN_POINT ( 'NONE',  ( 38.50000000000000000, 40.00000000000000000, 0.000000000000000000 ) ) ;
#133 = EDGE_LOOP ( 'NONE', ( #109, #85, #123, #136 ) ) ;
#134 = FACE_OUTER_BOUND ( 'NONE', #133, .T. ) ;
#135 = PLANE ( 'NONE',  #1 ) ;
#136 = ORIENTED_EDGE ( 'NONE', *, *, #72, .T. ) ;
#137 = ORIENTED_EDGE ( 'NONE', *, *, #48, .T. ) ;
#138 = EDGE_CURVE ( 'NONE', #76, #144, #97, .T. ) ;
#139 = VECTOR ( 'NONE', #36, 1000.000000000000000 ) ;
#140 = ADVANCED_BREP_SHAPE_REPRESENTATION ( 'Parallelogram_2', ( #74, #153 ), #25 ) ;
#141 =( LENGTH_UNIT ( ) NAMED_UNIT ( * ) SI_UNIT ( .MILLI., .METRE. ) );
#142 = DIRECTION ( 'NONE',  ( 0.000000000000000000, 0.000000000000000000, -1.000000000000000000 ) ) ;
#143 = APPLICATION_PROTOCOL_DEFINITION ( 'draft international standard', 'automotive_design', 1998, #26 ) ;
#144 = VERTEX_POINT ( 'NONE', #68 ) ;
#145 = DIRECTION ( 'NONE',  ( -0.000000000000000000, -1.000000000000000000, -0.000000000000000000 ) ) ;
#146 = DIRECTION ( 'NONE',  ( -0.000000000000000000, -1.000000000000000000, -0.000000000000000000 ) ) ;
#147 = CARTESIAN_POINT ( 'NONE',  ( 0.000000000000000000, 40.00000000000000000, 0.000000000000000000 ) ) ;
#148 = VECTOR ( 'NONE', #157, 1000.000000000000227 ) ;
#149 =( NAMED_UNIT ( * ) PLANE_ANGLE_UNIT ( ) SI_UNIT ( $, .RADIAN. ) );
#150 = CARTESIAN_POINT ( 'NONE',  ( -8.585655452990927472, 40.00000000000000000, -27.00000000000000000 ) ) ;
#151 = ORIENTED_EDGE ( 'NONE', *, *, #169, .F. ) ;
#152 = VERTEX_POINT ( 'NONE', #54 ) ;
#153 = AXIS2_PLACEMENT_3D ( 'NONE', #46, #155, #61 ) ;
#154 = ADVANCED_FACE ( 'NONE', ( #37 ), #124, .F. ) ;
#155 = DIRECTION ( 'NONE',  ( 0.000000000000000000, 0.000000000000000000, 1.000000000000000000 ) ) ;
#156 = CARTESIAN_POINT ( 'NONE',  ( 0.000000000000000000, 0.000000000000000000, 0.000000000000000000 ) ) ;
#157 = DIRECTION ( 'NONE',  ( 0.3030352696327778261, -0.000000000000000000, 0.9529793415172175264 ) ) ;
#158 = LINE ( 'NONE', #31, #69 ) ;
#159 =( LENGTH_UNIT ( ) NAMED_UNIT ( * ) SI_UNIT ( .MILLI., .METRE. ) );
#160 = ORIENTED_EDGE ( 'NONE', *, *, #103, .T. ) ;
#161 = FACE_OUTER_BOUND ( 'NONE', #164, .T. ) ;
#162 = ADVANCED_FACE ( 'NONE', ( #84 ), #135, .F. ) ;
#163 =( GEOMETRIC_REPRESENTATION_CONTEXT ( 3 ) GLOBAL_UNCERTAINTY_ASSIGNED_CONTEXT ( ( #43 ) ) GLOBAL_UNIT_ASSIGNED_CONTEXT ( ( #159, #149, #45 ) ) REPRESENTATION_CONTEXT ( 'NONE', 'WORKASPACE' ) );
#164 = EDGE_LOOP ( 'NONE', ( #10, #151, #182, #98 ) ) ;
#165 = CARTESIAN_POINT ( 'NONE',  ( -8.585655452990927472, 40.00000000000000000, -27.00000000000000000 ) ) ;
#166 = CARTESIAN_POINT ( 'NONE',  ( 0.000000000000000000, 40.00000000000000000, 0.000000000000000000 ) ) ;
#167 = VERTEX_POINT ( 'NONE', #77 ) ;
#168 = AXIS2_PLACEMENT_3D ( 'NONE', #20, #128, #66 ) ;
#169 = EDGE_CURVE ( 'NONE', #167, #96, #177, .T. ) ;
#170 = VECTOR ( 'NONE', #24, 1000.000000000000000 ) ;
#171 = PLANE ( 'NONE',  #116 ) ;
#172 = EDGE_CURVE ( 'NONE', #2, #55, #75, .T. ) ;
#173 = DIRECTION ( 'NONE',  ( -0.3030352696327778261, 0.000000000000000000, -0.9529793415172175264 ) ) ;
#174 = PRODUCT_CONTEXT ( 'NONE', #26, 'mechanical' ) ;
#175 = FILL_AREA_STYLE_COLOUR ( '', #71 ) ;
#176 = PRESENTATION_LAYER_ASSIGNMENT (  '', '', ( #87 ) ) ;
#177 = LINE ( 'NONE', #186, #13 ) ;
#178 = CARTESIAN_POINT ( 'NONE',  ( 29.91434454700907253, 40.00000000000000000, -27.00000000000000000 ) ) ;
#179 = EDGE_LOOP ( 'NONE', ( #137, #111, #102, #35 ) ) ;
#180 = EDGE_CURVE ( 'NONE', #144, #96, #80, .T. ) ;
#181 = CARTESIAN_POINT ( 'NONE',  ( 0.000000000000000000, 0.000000000000000000, 0.000000000000000000 ) ) ;
#182 = ORIENTED_EDGE ( 'NONE', *, *, #107, .F. ) ;
#183 = LINE ( 'NONE', #165, #139 ) ;
#184 = CARTESIAN_POINT ( 'NONE',  ( 0.000000000000000000, 40.00000000000000000, 0.000000000000000000 ) ) ;
#185 = VECTOR ( 'NONE', #22, 1000.000000000000000 ) ;
#186 = CARTESIAN_POINT ( 'NONE',  ( 0.000000000000000000, 40.00000000000000000, 0.000000000000000000 ) ) ;
#187 = ADVANCED_FACE ( 'NONE', ( #30 ), #171, .F. ) ;
ENDSEC;
END-ISO-10303-21;
