ISO-10303-21;
HEADER;
FILE_DESCRIPTION (( 'STEP AP214' ),
    '1' );
FILE_NAME ('Pentagon_2.STEP',
    '2026-07-23T11:08:44',
    ( '' ),
    ( '' ),
    'SwSTEP 2.0',
    'SolidWorks 2026',
    '' );
FILE_SCHEMA (( 'AUTOMOTIVE_DESIGN' ));
ENDSEC;

DATA;
#1 = SURFACE_STYLE_FILL_AREA ( #118 ) ;
#2 = VECTOR ( 'NONE', #197, 1000.000000000000000 ) ;
#3 = PLANE ( 'NONE',  #24 ) ;
#4 = VECTOR ( 'NONE', #29, 1000.000000000000000 ) ;
#5 = CARTESIAN_POINT ( 'NONE',  ( -2.775542199409309841E-14, 0.000000000000000000, -21.83506297775165805 ) ) ;
#6 = ORIENTED_EDGE ( 'NONE', *, *, #103, .F. ) ;
#7 = FACE_OUTER_BOUND ( 'NONE', #115, .T. ) ;
#8 = EDGE_CURVE ( 'NONE', #153, #210, #117, .T. ) ;
#9 = ORIENTED_EDGE ( 'NONE', *, *, #11, .T. ) ;
#10 = ORIENTED_EDGE ( 'NONE', *, *, #38, .T. ) ;
#11 = EDGE_CURVE ( 'NONE', #132, #211, #102, .T. ) ;
#12 = CARTESIAN_POINT ( 'NONE',  ( 12.83432800119982886, 40.00000000000000000, 17.66493702224832418 ) ) ;
#13 = ORIENTED_EDGE ( 'NONE', *, *, #79, .F. ) ;
#14 = CARTESIAN_POINT ( 'NONE',  ( 20.76637892870577318, 40.00000000000000000, -6.747405533372537789 ) ) ;
#15 = VECTOR ( 'NONE', #119, 1000.000000000000000 ) ;
#16 = CARTESIAN_POINT ( 'NONE',  ( -2.775542199409309841E-14, 40.00000000000000000, -21.83506297775165805 ) ) ;
#17 = DIRECTION ( 'NONE',  ( -0.8090169943749483394, 0.000000000000000000, -0.5877852522924718048 ) ) ;
#18 = PLANE ( 'NONE',  #22 ) ;
#19 = VECTOR ( 'NONE', #42, 1000.000000000000000 ) ;
#20 = CARTESIAN_POINT ( 'NONE',  ( -20.76637892870578739, 40.00000000000000000, -6.747405533372474729 ) ) ;
#21 = LINE ( 'NONE', #57, #150 ) ;
#22 = AXIS2_PLACEMENT_3D ( 'NONE', #74, #43, #142 ) ;
#23 = CARTESIAN_POINT ( 'NONE',  ( -12.83432800119977024, 0.000000000000000000, 17.66493702224835971 ) ) ;
#24 = AXIS2_PLACEMENT_3D ( 'NONE', #37, #145, #169 ) ;
#25 = EDGE_LOOP ( 'NONE', ( #188, #141, #162, #193 ) ) ;
#26 = ORIENTED_EDGE ( 'NONE', *, *, #93, .T. ) ;
#27 = ORIENTED_EDGE ( 'NONE', *, *, #204, .T. ) ;
#28 = UNCERTAINTY_MEASURE_WITH_UNIT (LENGTH_MEASURE( 1.000000000000000082E-05 ), #106, 'distance_accuracy_value', 'NONE');
#29 = DIRECTION ( 'NONE',  ( -0.000000000000000000, -1.000000000000000000, -0.000000000000000000 ) ) ;
#30 = VECTOR ( 'NONE', #49, 1000.000000000000114 ) ;
#31 = DIRECTION ( 'NONE',  ( 0.000000000000000000, 0.000000000000000000, 1.000000000000000000 ) ) ;
#32 = DIRECTION ( 'NONE',  ( 0.3090169943749488946, 0.000000000000000000, 0.9510565162951530871 ) ) ;
#33 = APPLICATION_PROTOCOL_DEFINITION ( 'draft international standard', 'automotive_design', 1998, #208 ) ;
#34 = CARTESIAN_POINT ( 'NONE',  ( 12.83432800119982886, 0.000000000000000000, 17.66493702224832418 ) ) ;
#35 = CARTESIAN_POINT ( 'NONE',  ( -2.775542199409309841E-14, 0.000000000000000000, -21.83506297775165805 ) ) ;
#36 = LINE ( 'NONE', #135, #4 ) ;
#37 = CARTESIAN_POINT ( 'NONE',  ( -12.83432800119977024, 40.00000000000000000, 17.66493702224835971 ) ) ;
#38 = EDGE_CURVE ( 'NONE', #210, #164, #81, .T. ) ;
#39 = COLOUR_RGB ( '',0.8941176470588234615, 0.8941176470588234615, 0.8941176470588234615 ) ;
#40 = LINE ( 'NONE', #5, #19 ) ;
#41 = ADVANCED_FACE ( 'NONE', ( #51 ), #178, .F. ) ;
#42 = DIRECTION ( 'NONE',  ( -0.8090169943749466741, 0.000000000000000000, 0.5877852522924742473 ) ) ;
#43 = DIRECTION ( 'NONE',  ( 0.9510565162951530871, 0.000000000000000000, -0.3090169943749488946 ) ) ;
#44 = SHAPE_DEFINITION_REPRESENTATION ( #76, #170 ) ;
#45 = AXIS2_PLACEMENT_3D ( 'NONE', #187, #205, #89 ) ;
#46 = ORIENTED_EDGE ( 'NONE', *, *, #184, .T. ) ;
#47 = EDGE_LOOP ( 'NONE', ( #127, #78, #194, #136 ) ) ;
#48 = VERTEX_POINT ( 'NONE', #35 ) ;
#49 = DIRECTION ( 'NONE',  ( -0.8090169943749483394, 0.000000000000000000, -0.5877852522924718048 ) ) ;
#50 = DIRECTION ( 'NONE',  ( 1.000000000000000000, 0.000000000000000000, 0.000000000000000000 ) ) ;
#51 = FACE_OUTER_BOUND ( 'NONE', #198, .T. ) ;
#52 = ADVANCED_FACE ( 'NONE', ( #54 ), #85, .F. ) ;
#53 = CARTESIAN_POINT ( 'NONE',  ( 20.76637892870577318, 40.00000000000000000, -6.747405533372537789 ) ) ;
#54 = FACE_OUTER_BOUND ( 'NONE', #47, .T. ) ;
#55 = PRODUCT_DEFINITION_FORMATION_WITH_SPECIFIED_SOURCE ( 'ANY', '', #218, .NOT_KNOWN. ) ;
#56 = PRESENTATION_STYLE_ASSIGNMENT (( #201 ) ) ;
#57 = CARTESIAN_POINT ( 'NONE',  ( -12.83432800119977024, 40.00000000000000000, 17.66493702224835971 ) ) ;
#58 =( GEOMETRIC_REPRESENTATION_CONTEXT ( 3 ) GLOBAL_UNCERTAINTY_ASSIGNED_CONTEXT ( ( #28 ) ) GLOBAL_UNIT_ASSIGNED_CONTEXT ( ( #106, #71, #61 ) ) REPRESENTATION_CONTEXT ( 'NONE', 'WORKASPACE' ) );
#59 = FACE_OUTER_BOUND ( 'NONE', #25, .T. ) ;
#60 = EDGE_LOOP ( 'NONE', ( #62, #190, #13, #82, #80 ) ) ;
#61 =( NAMED_UNIT ( * ) SI_UNIT ( $, .STERADIAN. ) SOLID_ANGLE_UNIT ( ) );
#62 = ORIENTED_EDGE ( 'NONE', *, *, #124, .F. ) ;
#63 = ORIENTED_EDGE ( 'NONE', *, *, #90, .F. ) ;
#64 = ORIENTED_EDGE ( 'NONE', *, *, #177, .F. ) ;
#65 = DIRECTION ( 'NONE',  ( 1.000000000000000000, 0.000000000000000000, -1.486790600486525562E-15 ) ) ;
#66 = CARTESIAN_POINT ( 'NONE',  ( -12.83432800119977024, 0.000000000000000000, 17.66493702224835971 ) ) ;
#67 =( LENGTH_UNIT ( ) NAMED_UNIT ( * ) SI_UNIT ( .MILLI., .METRE. ) );
#68 = SURFACE_SIDE_STYLE ('',( #1 ) ) ;
#69 = DIRECTION ( 'NONE',  ( 1.000000000000000000, 0.000000000000000000, -1.486790600486525562E-15 ) ) ;
#70 = DIRECTION ( 'NONE',  ( 0.000000000000000000, 1.000000000000000000, 0.000000000000000000 ) ) ;
#71 =( NAMED_UNIT ( * ) PLANE_ANGLE_UNIT ( ) SI_UNIT ( $, .RADIAN. ) );
#72 = EDGE_LOOP ( 'NONE', ( #26, #116, #64, #95 ) ) ;
#73 = VECTOR ( 'NONE', #182, 1000.000000000000000 ) ;
#74 = CARTESIAN_POINT ( 'NONE',  ( -20.76637892870578739, 40.00000000000000000, -6.747405533372474729 ) ) ;
#75 = VERTEX_POINT ( 'NONE', #53 ) ;
#76 = PRODUCT_DEFINITION_SHAPE ( 'NONE', 'NONE',  #129 ) ;
#77 = CARTESIAN_POINT ( 'NONE',  ( -12.83432800119977024, 40.00000000000000000, 17.66493702224835971 ) ) ;
#78 = ORIENTED_EDGE ( 'NONE', *, *, #204, .F. ) ;
#79 = EDGE_CURVE ( 'NONE', #147, #164, #219, .T. ) ;
#80 = ORIENTED_EDGE ( 'NONE', *, *, #184, .F. ) ;
#81 = LINE ( 'NONE', #133, #2 ) ;
#82 = ORIENTED_EDGE ( 'NONE', *, *, #93, .F. ) ;
#83 = APPLICATION_CONTEXT ( 'automotive_design' ) ;
#84 = DIRECTION ( 'NONE',  ( 0.3090169943749461190, 0.000000000000000000, -0.9510565162951539753 ) ) ;
#85 = PLANE ( 'NONE',  #175 ) ;
#86 = ORIENTED_EDGE ( 'NONE', *, *, #213, .T. ) ;
#87 = CARTESIAN_POINT ( 'NONE',  ( 12.83432800119982886, 0.000000000000000000, 17.66493702224832418 ) ) ;
#88 = VECTOR ( 'NONE', #84, 1000.000000000000114 ) ;
#89 = DIRECTION ( 'NONE',  ( 0.000000000000000000, -0.000000000000000000, 1.000000000000000000 ) ) ;
#90 = EDGE_CURVE ( 'NONE', #75, #160, #36, .T. ) ;
#91 = FACE_OUTER_BOUND ( 'NONE', #109, .T. ) ;
#92 = PRODUCT_RELATED_PRODUCT_CATEGORY ( 'part', '', ( #218 ) ) ;
#93 = EDGE_CURVE ( 'NONE', #214, #147, #100, .T. ) ;
#94 = FACE_OUTER_BOUND ( 'NONE', #60, .T. ) ;
#95 = ORIENTED_EDGE ( 'NONE', *, *, #103, .T. ) ;
#96 = VECTOR ( 'NONE', #152, 1000.000000000000000 ) ;
#97 = ORIENTED_EDGE ( 'NONE', *, *, #213, .F. ) ;
#98 = APPLICATION_PROTOCOL_DEFINITION ( 'draft international standard', 'automotive_design', 1998, #83 ) ;
#99 = ORIENTED_EDGE ( 'NONE', *, *, #8, .T. ) ;
#100 = LINE ( 'NONE', #165, #114 ) ;
#101 = DIRECTION ( 'NONE',  ( -0.9510565162951539753, 0.000000000000000000, -0.3090169943749460635 ) ) ;
#102 = LINE ( 'NONE', #16, #96 ) ;
#103 = EDGE_CURVE ( 'NONE', #211, #214, #180, .T. ) ;
#104 = CARTESIAN_POINT ( 'NONE',  ( -2.775542199409309841E-14, 40.00000000000000000, -21.83506297775165805 ) ) ;
#105 = LINE ( 'NONE', #189, #154 ) ;
#106 =( LENGTH_UNIT ( ) NAMED_UNIT ( * ) SI_UNIT ( .MILLI., .METRE. ) );
#107 = MECHANICAL_DESIGN_GEOMETRIC_PRESENTATION_REPRESENTATION (  '', ( #200 ), #206 ) ;
#108 = CARTESIAN_POINT ( 'NONE',  ( -2.775542199409309841E-14, 40.00000000000000000, -21.83506297775165805 ) ) ;
#109 = EDGE_LOOP ( 'NONE', ( #46, #6, #207, #27 ) ) ;
#110 =( NAMED_UNIT ( * ) SI_UNIT ( $, .STERADIAN. ) SOLID_ANGLE_UNIT ( ) );
#111 = ORIENTED_EDGE ( 'NONE', *, *, #112, .T. ) ;
#112 = EDGE_CURVE ( 'NONE', #164, #160, #195, .T. ) ;
#113 = PRESENTATION_LAYER_ASSIGNMENT (  '', '', ( #200 ) ) ;
#114 = VECTOR ( 'NONE', #32, 1000.000000000000000 ) ;
#115 = EDGE_LOOP ( 'NONE', ( #128, #9, #144, #99, #86 ) ) ;
#116 = ORIENTED_EDGE ( 'NONE', *, *, #185, .F. ) ;
#117 = LINE ( 'NONE', #148, #174 ) ;
#118 = FILL_AREA_STYLE ('',( #176 ) ) ;
#119 = DIRECTION ( 'NONE',  ( -0.000000000000000000, -1.000000000000000000, -0.000000000000000000 ) ) ;
#120 = EDGE_CURVE ( 'NONE', #75, #132, #121, .T. ) ;
#121 = LINE ( 'NONE', #166, #30 ) ;
#122 = DIRECTION ( 'NONE',  ( -0.000000000000000000, -1.000000000000000000, -0.000000000000000000 ) ) ;
#123 = PLANE ( 'NONE',  #192 ) ;
#124 = EDGE_CURVE ( 'NONE', #160, #48, #217, .T. ) ;
#125 = AXIS2_PLACEMENT_3D ( 'NONE', #12, #101, #149 ) ;
#126 = DIRECTION ( 'NONE',  ( 0.5877852522924742473, -0.000000000000000000, 0.8090169943749466741 ) ) ;
#127 = ORIENTED_EDGE ( 'NONE', *, *, #124, .T. ) ;
#128 = ORIENTED_EDGE ( 'NONE', *, *, #120, .T. ) ;
#129 = PRODUCT_DEFINITION ( 'UNKNOWN', '', #55, #212 ) ;
#130 = AXIS2_PLACEMENT_3D ( 'NONE', #173, #70, #203 ) ;
#131 = PRODUCT_CONTEXT ( 'NONE', #83, 'mechanical' ) ;
#132 = VERTEX_POINT ( 'NONE', #104 ) ;
#133 = CARTESIAN_POINT ( 'NONE',  ( 12.83432800119982886, 40.00000000000000000, 17.66493702224832418 ) ) ;
#134 = PLANE ( 'NONE',  #130 ) ;
#135 = CARTESIAN_POINT ( 'NONE',  ( 20.76637892870577318, 40.00000000000000000, -6.747405533372537789 ) ) ;
#136 = ORIENTED_EDGE ( 'NONE', *, *, #90, .T. ) ;
#137 = CARTESIAN_POINT ( 'NONE',  ( 20.76637892870577318, 0.000000000000000000, -6.747405533372537789 ) ) ;
#138 = CARTESIAN_POINT ( 'NONE',  ( -20.76637892870578739, 40.00000000000000000, -6.747405533372474729 ) ) ;
#139 = PLANE ( 'NONE',  #45 ) ;
#140 = MANIFOLD_SOLID_BREP ( 'Boss-Extrude1', #186 ) ;
#141 = ORIENTED_EDGE ( 'NONE', *, *, #38, .F. ) ;
#142 = DIRECTION ( 'NONE',  ( -0.3090169943749488946, 0.000000000000000000, -0.9510565162951530871 ) ) ;
#143 = ADVANCED_FACE ( 'NONE', ( #7 ), #134, .T. ) ;
#144 = ORIENTED_EDGE ( 'NONE', *, *, #177, .T. ) ;
#145 = DIRECTION ( 'NONE',  ( -1.486790600486525760E-15, 0.000000000000000000, -1.000000000000000000 ) ) ;
#146 = AXIS2_PLACEMENT_3D ( 'NONE', #191, #31, #50 ) ;
#147 = VERTEX_POINT ( 'NONE', #23 ) ;
#148 = CARTESIAN_POINT ( 'NONE',  ( -12.83432800119977024, 40.00000000000000000, 17.66493702224835971 ) ) ;
#149 = DIRECTION ( 'NONE',  ( -0.3090169943749460635, 0.000000000000000000, 0.9510565162951539753 ) ) ;
#150 = VECTOR ( 'NONE', #122, 1000.000000000000000 ) ;
#151 =( NAMED_UNIT ( * ) PLANE_ANGLE_UNIT ( ) SI_UNIT ( $, .RADIAN. ) );
#152 = DIRECTION ( 'NONE',  ( -0.8090169943749466741, 0.000000000000000000, 0.5877852522924742473 ) ) ;
#153 = VERTEX_POINT ( 'NONE', #77 ) ;
#154 = VECTOR ( 'NONE', #157, 1000.000000000000000 ) ;
#155 = CARTESIAN_POINT ( 'NONE',  ( 12.83432800119982886, 40.00000000000000000, 17.66493702224832418 ) ) ;
#156 = DIRECTION ( 'NONE',  ( 0.8090169943749466741, 0.000000000000000000, -0.5877852522924742473 ) ) ;
#157 = DIRECTION ( 'NONE',  ( -0.000000000000000000, -1.000000000000000000, -0.000000000000000000 ) ) ;
#158 = ADVANCED_FACE ( 'NONE', ( #94 ), #139, .F. ) ;
#159 = DIRECTION ( 'NONE',  ( 0.3090169943749461190, 0.000000000000000000, -0.9510565162951539753 ) ) ;
#160 = VERTEX_POINT ( 'NONE', #181 ) ;
#161 = VECTOR ( 'NONE', #69, 1000.000000000000000 ) ;
#162 = ORIENTED_EDGE ( 'NONE', *, *, #8, .F. ) ;
#163 = ADVANCED_FACE ( 'NONE', ( #59 ), #3, .F. ) ;
#164 = VERTEX_POINT ( 'NONE', #87 ) ;
#165 = CARTESIAN_POINT ( 'NONE',  ( -20.76637892870578739, 0.000000000000000000, -6.747405533372474729 ) ) ;
#166 = CARTESIAN_POINT ( 'NONE',  ( 20.76637892870577318, 40.00000000000000000, -6.747405533372537789 ) ) ;
#167 = CARTESIAN_POINT ( 'NONE',  ( -20.76637892870578739, 40.00000000000000000, -6.747405533372474729 ) ) ;
#168 = LINE ( 'NONE', #155, #196 ) ;
#169 = DIRECTION ( 'NONE',  ( -1.000000000000000000, 0.000000000000000000, 1.486790600486525760E-15 ) ) ;
#170 = ADVANCED_BREP_SHAPE_REPRESENTATION ( 'Pentagon_2', ( #140, #146 ), #58 ) ;
#171 = UNCERTAINTY_MEASURE_WITH_UNIT (LENGTH_MEASURE( 1.000000000000000082E-05 ), #67, 'distance_accuracy_value', 'NONE');
#172 = CARTESIAN_POINT ( 'NONE',  ( 12.83432800119982886, 40.00000000000000000, 17.66493702224832418 ) ) ;
#173 = CARTESIAN_POINT ( 'NONE',  ( 0.000000000000000000, 40.00000000000000000, 0.000000000000000000 ) ) ;
#174 = VECTOR ( 'NONE', #65, 1000.000000000000000 ) ;
#175 = AXIS2_PLACEMENT_3D ( 'NONE', #14, #179, #215 ) ;
#176 = FILL_AREA_STYLE_COLOUR ( '', #39 ) ;
#177 = EDGE_CURVE ( 'NONE', #211, #153, #209, .T. ) ;
#178 = PLANE ( 'NONE',  #125 ) ;
#179 = DIRECTION ( 'NONE',  ( -0.5877852522924719159, 0.000000000000000000, 0.8090169943749484505 ) ) ;
#180 = LINE ( 'NONE', #167, #15 ) ;
#181 = CARTESIAN_POINT ( 'NONE',  ( 20.76637892870577318, 0.000000000000000000, -6.747405533372537789 ) ) ;
#182 = DIRECTION ( 'NONE',  ( 0.3090169943749488946, 0.000000000000000000, 0.9510565162951530871 ) ) ;
#183 = FACE_OUTER_BOUND ( 'NONE', #72, .T. ) ;
#184 = EDGE_CURVE ( 'NONE', #48, #214, #40, .T. ) ;
#185 = EDGE_CURVE ( 'NONE', #153, #147, #21, .T. ) ;
#186 = CLOSED_SHELL ( 'NONE', ( #52, #199, #220, #163, #41, #143, #158 ) ) ;
#187 = CARTESIAN_POINT ( 'NONE',  ( 0.000000000000000000, 0.000000000000000000, 0.000000000000000000 ) ) ;
#188 = ORIENTED_EDGE ( 'NONE', *, *, #79, .T. ) ;
#189 = CARTESIAN_POINT ( 'NONE',  ( -2.775542199409309841E-14, 40.00000000000000000, -21.83506297775165805 ) ) ;
#190 = ORIENTED_EDGE ( 'NONE', *, *, #112, .F. ) ;
#191 = CARTESIAN_POINT ( 'NONE',  ( 0.000000000000000000, 0.000000000000000000, 0.000000000000000000 ) ) ;
#192 = AXIS2_PLACEMENT_3D ( 'NONE', #108, #126, #156 ) ;
#193 = ORIENTED_EDGE ( 'NONE', *, *, #185, .T. ) ;
#194 = ORIENTED_EDGE ( 'NONE', *, *, #120, .F. ) ;
#195 = LINE ( 'NONE', #34, #88 ) ;
#196 = VECTOR ( 'NONE', #159, 1000.000000000000114 ) ;
#197 = DIRECTION ( 'NONE',  ( -0.000000000000000000, -1.000000000000000000, -0.000000000000000000 ) ) ;
#198 = EDGE_LOOP ( 'NONE', ( #111, #63, #97, #10 ) ) ;
#199 = ADVANCED_FACE ( 'NONE', ( #91 ), #123, .F. ) ;
#200 = STYLED_ITEM ( 'NONE', ( #56 ), #140 ) ;
#201 = SURFACE_STYLE_USAGE ( .BOTH. , #68 ) ;
#202 = CARTESIAN_POINT ( 'NONE',  ( -20.76637892870578739, 0.000000000000000000, -6.747405533372474729 ) ) ;
#203 = DIRECTION ( 'NONE',  ( 0.000000000000000000, -0.000000000000000000, 1.000000000000000000 ) ) ;
#204 = EDGE_CURVE ( 'NONE', #132, #48, #105, .T. ) ;
#205 = DIRECTION ( 'NONE',  ( 0.000000000000000000, 1.000000000000000000, 0.000000000000000000 ) ) ;
#206 =( GEOMETRIC_REPRESENTATION_CONTEXT ( 3 ) GLOBAL_UNCERTAINTY_ASSIGNED_CONTEXT ( ( #171 ) ) GLOBAL_UNIT_ASSIGNED_CONTEXT ( ( #67, #151, #110 ) ) REPRESENTATION_CONTEXT ( 'NONE', 'WORKASPACE' ) );
#207 = ORIENTED_EDGE ( 'NONE', *, *, #11, .F. ) ;
#208 = APPLICATION_CONTEXT ( 'automotive_design' ) ;
#209 = LINE ( 'NONE', #20, #73 ) ;
#210 = VERTEX_POINT ( 'NONE', #172 ) ;
#211 = VERTEX_POINT ( 'NONE', #138 ) ;
#212 = PRODUCT_DEFINITION_CONTEXT ( 'detailed design', #208, 'design' ) ;
#213 = EDGE_CURVE ( 'NONE', #210, #75, #168, .T. ) ;
#214 = VERTEX_POINT ( 'NONE', #202 ) ;
#215 = DIRECTION ( 'NONE',  ( 0.8090169943749483394, 0.000000000000000000, 0.5877852522924718048 ) ) ;
#216 = VECTOR ( 'NONE', #17, 1000.000000000000114 ) ;
#217 = LINE ( 'NONE', #137, #216 ) ;
#218 = PRODUCT ( 'Pentagon_2', 'Pentagon_2', '', ( #131 ) ) ;
#219 = LINE ( 'NONE', #66, #161 ) ;
#220 = ADVANCED_FACE ( 'NONE', ( #183 ), #18, .F. ) ;
ENDSEC;
END-ISO-10303-21;
