ISO-10303-21;
HEADER;
FILE_DESCRIPTION (( 'STEP AP214' ),
    '1' );
FILE_NAME ('Rectangle_2.STEP',
    '2026-07-23T11:08:45',
    ( '' ),
    ( '' ),
    'SwSTEP 2.0',
    'SolidWorks 2026',
    '' );
FILE_SCHEMA (( 'AUTOMOTIVE_DESIGN' ));
ENDSEC;

DATA;
#1 = FACE_OUTER_BOUND ( 'NONE', #4, .T. ) ;
#2 = AXIS2_PLACEMENT_3D ( 'NONE', #90, #17, #58 ) ;
#3 = PRESENTATION_LAYER_ASSIGNMENT (  '', '', ( #57 ) ) ;
#4 = EDGE_LOOP ( 'NONE', ( #49, #82, #64, #53 ) ) ;
#5 = ORIENTED_EDGE ( 'NONE', *, *, #108, .T. ) ;
#6 = CARTESIAN_POINT ( 'NONE',  ( 0.000000000000000000, 40.00000000000000000, 0.000000000000000000 ) ) ;
#7 = EDGE_CURVE ( 'NONE', #38, #154, #96, .T. ) ;
#8 = LINE ( 'NONE', #65, #137 ) ;
#9 = EDGE_LOOP ( 'NONE', ( #164, #36, #34, #28 ) ) ;
#10 = CARTESIAN_POINT ( 'NONE',  ( 37.39999999999999147, 0.000000000000000000, -27.35999999999999943 ) ) ;
#11 = AXIS2_PLACEMENT_3D ( 'NONE', #130, #186, #44 ) ;
#12 = PLANE ( 'NONE',  #59 ) ;
#13 = PRODUCT_RELATED_PRODUCT_CATEGORY ( 'part', '', ( #107 ) ) ;
#14 = CARTESIAN_POINT ( 'NONE',  ( 0.000000000000000000, 40.00000000000000000, 0.000000000000000000 ) ) ;
#15 = FACE_OUTER_BOUND ( 'NONE', #122, .T. ) ;
#16 = CARTESIAN_POINT ( 'NONE',  ( 0.000000000000000000, 0.000000000000000000, -27.35999999999999943 ) ) ;
#17 = DIRECTION ( 'NONE',  ( 0.000000000000000000, 0.000000000000000000, 1.000000000000000000 ) ) ;
#18 =( NAMED_UNIT ( * ) SI_UNIT ( $, .STERADIAN. ) SOLID_ANGLE_UNIT ( ) );
#19 = CARTESIAN_POINT ( 'NONE',  ( 37.39999999999999147, 0.000000000000000000, 0.000000000000000000 ) ) ;
#20 = CARTESIAN_POINT ( 'NONE',  ( 0.000000000000000000, 40.00000000000000000, -27.35999999999999943 ) ) ;
#21 = ORIENTED_EDGE ( 'NONE', *, *, #46, .F. ) ;
#22 = AXIS2_PLACEMENT_3D ( 'NONE', #40, #52, #84 ) ;
#23 = VERTEX_POINT ( 'NONE', #14 ) ;
#24 = UNCERTAINTY_MEASURE_WITH_UNIT (LENGTH_MEASURE( 1.000000000000000082E-05 ), #115, 'distance_accuracy_value', 'NONE');
#25 = DIRECTION ( 'NONE',  ( -1.000000000000000000, -0.000000000000000000, -0.000000000000000000 ) ) ;
#26 = ORIENTED_EDGE ( 'NONE', *, *, #79, .F. ) ;
#27 = PLANE ( 'NONE',  #11 ) ;
#28 = ORIENTED_EDGE ( 'NONE', *, *, #73, .T. ) ;
#29 = DIRECTION ( 'NONE',  ( 0.000000000000000000, 0.000000000000000000, 1.000000000000000000 ) ) ;
#30 = CARTESIAN_POINT ( 'NONE',  ( 37.39999999999999147, 40.00000000000000000, 0.000000000000000000 ) ) ;
#31 = CARTESIAN_POINT ( 'NONE',  ( 0.000000000000000000, 40.00000000000000000, 0.000000000000000000 ) ) ;
#32 = EDGE_CURVE ( 'NONE', #23, #102, #72, .T. ) ;
#33 = VECTOR ( 'NONE', #100, 1000.000000000000000 ) ;
#34 = ORIENTED_EDGE ( 'NONE', *, *, #35, .T. ) ;
#35 = EDGE_CURVE ( 'NONE', #63, #150, #157, .T. ) ;
#36 = ORIENTED_EDGE ( 'NONE', *, *, #46, .T. ) ;
#37 = PLANE ( 'NONE',  #22 ) ;
#38 = VERTEX_POINT ( 'NONE', #19 ) ;
#39 = COLOUR_RGB ( '',0.8941176470588234615, 0.8941176470588234615, 0.8941176470588234615 ) ;
#40 = CARTESIAN_POINT ( 'NONE',  ( 0.000000000000000000, 40.00000000000000000, 0.000000000000000000 ) ) ;
#41 = ORIENTED_EDGE ( 'NONE', *, *, #163, .T. ) ;
#42 = CARTESIAN_POINT ( 'NONE',  ( 37.39999999999999147, 40.00000000000000000, 0.000000000000000000 ) ) ;
#43 = VECTOR ( 'NONE', #76, 1000.000000000000000 ) ;
#44 = DIRECTION ( 'NONE',  ( 0.000000000000000000, -0.000000000000000000, -1.000000000000000000 ) ) ;
#45 = VECTOR ( 'NONE', #55, 1000.000000000000000 ) ;
#46 = EDGE_CURVE ( 'NONE', #23, #63, #93, .T. ) ;
#47 = ORIENTED_EDGE ( 'NONE', *, *, #161, .T. ) ;
#48 = SURFACE_SIDE_STYLE ('',( #155 ) ) ;
#49 = ORIENTED_EDGE ( 'NONE', *, *, #123, .T. ) ;
#50 = LINE ( 'NONE', #83, #69 ) ;
#51 = ORIENTED_EDGE ( 'NONE', *, *, #35, .F. ) ;
#52 = DIRECTION ( 'NONE',  ( 0.000000000000000000, -1.000000000000000000, 0.000000000000000000 ) ) ;
#53 = ORIENTED_EDGE ( 'NONE', *, *, #79, .T. ) ;
#54 = ADVANCED_FACE ( 'NONE', ( #15 ), #12, .F. ) ;
#55 = DIRECTION ( 'NONE',  ( 1.000000000000000000, 0.000000000000000000, 0.000000000000000000 ) ) ;
#56 = CARTESIAN_POINT ( 'NONE',  ( 0.000000000000000000, 40.00000000000000000, 0.000000000000000000 ) ) ;
#57 = STYLED_ITEM ( 'NONE', ( #110 ), #62 ) ;
#58 = DIRECTION ( 'NONE',  ( 1.000000000000000000, 0.000000000000000000, 0.000000000000000000 ) ) ;
#59 = AXIS2_PLACEMENT_3D ( 'NONE', #42, #165, #184 ) ;
#60 = ADVANCED_FACE ( 'NONE', ( #153 ), #37, .F. ) ;
#61 = PRODUCT_DEFINITION_CONTEXT ( 'detailed design', #143, 'design' ) ;
#62 = MANIFOLD_SOLID_BREP ( 'Boss-Extrude1', #94 ) ;
#63 = VERTEX_POINT ( 'NONE', #169 ) ;
#64 = ORIENTED_EDGE ( 'NONE', *, *, #177, .F. ) ;
#65 = CARTESIAN_POINT ( 'NONE',  ( 0.000000000000000000, 40.00000000000000000, -27.35999999999999943 ) ) ;
#66 = CARTESIAN_POINT ( 'NONE',  ( 0.000000000000000000, 0.000000000000000000, 0.000000000000000000 ) ) ;
#67 = ORIENTED_EDGE ( 'NONE', *, *, #163, .F. ) ;
#68 = DIRECTION ( 'NONE',  ( -0.000000000000000000, -1.000000000000000000, -0.000000000000000000 ) ) ;
#69 = VECTOR ( 'NONE', #147, 1000.000000000000000 ) ;
#70 = FILL_AREA_STYLE ('',( #167 ) ) ;
#71 = CARTESIAN_POINT ( 'NONE',  ( 37.39999999999999147, 40.00000000000000000, -27.35999999999999943 ) ) ;
#72 = LINE ( 'NONE', #56, #145 ) ;
#73 = EDGE_CURVE ( 'NONE', #150, #111, #8, .T. ) ;
#74 = SHAPE_DEFINITION_REPRESENTATION ( #109, #162 ) ;
#75 = VECTOR ( 'NONE', #68, 1000.000000000000000 ) ;
#76 = DIRECTION ( 'NONE',  ( -0.000000000000000000, -1.000000000000000000, -0.000000000000000000 ) ) ;
#77 = UNCERTAINTY_MEASURE_WITH_UNIT (LENGTH_MEASURE( 1.000000000000000082E-05 ), #187, 'distance_accuracy_value', 'NONE');
#78 = CARTESIAN_POINT ( 'NONE',  ( 0.000000000000000000, 0.000000000000000000, -27.35999999999999943 ) ) ;
#79 = EDGE_CURVE ( 'NONE', #111, #178, #50, .T. ) ;
#80 = SURFACE_STYLE_USAGE ( .BOTH. , #48 ) ;
#81 =( NAMED_UNIT ( * ) SI_UNIT ( $, .STERADIAN. ) SOLID_ANGLE_UNIT ( ) );
#82 = ORIENTED_EDGE ( 'NONE', *, *, #32, .F. ) ;
#83 = CARTESIAN_POINT ( 'NONE',  ( 0.000000000000000000, 40.00000000000000000, -27.35999999999999943 ) ) ;
#84 = DIRECTION ( 'NONE',  ( 0.000000000000000000, -0.000000000000000000, -1.000000000000000000 ) ) ;
#85 = EDGE_LOOP ( 'NONE', ( #5, #67, #21, #116 ) ) ;
#86 =( GEOMETRIC_REPRESENTATION_CONTEXT ( 3 ) GLOBAL_UNCERTAINTY_ASSIGNED_CONTEXT ( ( #77 ) ) GLOBAL_UNIT_ASSIGNED_CONTEXT ( ( #187, #106, #18 ) ) REPRESENTATION_CONTEXT ( 'NONE', 'WORKASPACE' ) );
#87 = PLANE ( 'NONE',  #176 ) ;
#88 = APPLICATION_PROTOCOL_DEFINITION ( 'draft international standard', 'automotive_design', 1998, #143 ) ;
#89 = DIRECTION ( 'NONE',  ( 0.000000000000000000, 0.000000000000000000, -1.000000000000000000 ) ) ;
#90 = CARTESIAN_POINT ( 'NONE',  ( 0.000000000000000000, 0.000000000000000000, 0.000000000000000000 ) ) ;
#91 = LINE ( 'NONE', #132, #99 ) ;
#92 = APPLICATION_CONTEXT ( 'automotive_design' ) ;
#93 = LINE ( 'NONE', #144, #98 ) ;
#94 = CLOSED_SHELL ( 'NONE', ( #174, #140, #54, #121, #60, #156 ) ) ;
#95 = EDGE_LOOP ( 'NONE', ( #47, #26, #136, #180 ) ) ;
#96 = LINE ( 'NONE', #148, #119 ) ;
#97 = ORIENTED_EDGE ( 'NONE', *, *, #7, .F. ) ;
#98 = VECTOR ( 'NONE', #149, 1000.000000000000000 ) ;
#99 = VECTOR ( 'NONE', #142, 1000.000000000000000 ) ;
#100 = DIRECTION ( 'NONE',  ( -0.000000000000000000, -0.000000000000000000, 1.000000000000000000 ) ) ;
#101 =( NAMED_UNIT ( * ) PLANE_ANGLE_UNIT ( ) SI_UNIT ( $, .RADIAN. ) );
#102 = VERTEX_POINT ( 'NONE', #185 ) ;
#103 = PLANE ( 'NONE',  #175 ) ;
#104 = PRODUCT_DEFINITION_FORMATION_WITH_SPECIFIED_SOURCE ( 'ANY', '', #107, .NOT_KNOWN. ) ;
#105 = DIRECTION ( 'NONE',  ( -0.000000000000000000, -1.000000000000000000, -0.000000000000000000 ) ) ;
#106 =( NAMED_UNIT ( * ) PLANE_ANGLE_UNIT ( ) SI_UNIT ( $, .RADIAN. ) );
#107 = PRODUCT ( 'Rectangle_2', 'Rectangle_2', '', ( #120 ) ) ;
#108 = EDGE_CURVE ( 'NONE', #102, #38, #179, .T. ) ;
#109 = PRODUCT_DEFINITION_SHAPE ( 'NONE', 'NONE',  #129 ) ;
#110 = PRESENTATION_STYLE_ASSIGNMENT (( #80 ) ) ;
#111 = VERTEX_POINT ( 'NONE', #113 ) ;
#112 = CARTESIAN_POINT ( 'NONE',  ( 37.39999999999999147, 40.00000000000000000, -27.35999999999999943 ) ) ;
#113 = CARTESIAN_POINT ( 'NONE',  ( 0.000000000000000000, 40.00000000000000000, -27.35999999999999943 ) ) ;
#114 = DIRECTION ( 'NONE',  ( 0.000000000000000000, 0.000000000000000000, -1.000000000000000000 ) ) ;
#115 =( LENGTH_UNIT ( ) NAMED_UNIT ( * ) SI_UNIT ( .MILLI., .METRE. ) );
#116 = ORIENTED_EDGE ( 'NONE', *, *, #32, .T. ) ;
#117 = FACE_OUTER_BOUND ( 'NONE', #95, .T. ) ;
#118 = DIRECTION ( 'NONE',  ( -1.000000000000000000, -0.000000000000000000, -0.000000000000000000 ) ) ;
#119 = VECTOR ( 'NONE', #114, 1000.000000000000000 ) ;
#120 = PRODUCT_CONTEXT ( 'NONE', #92, 'mechanical' ) ;
#121 = ADVANCED_FACE ( 'NONE', ( #117 ), #103, .F. ) ;
#122 = EDGE_LOOP ( 'NONE', ( #166, #146, #51, #41 ) ) ;
#123 = EDGE_CURVE ( 'NONE', #178, #102, #181, .T. ) ;
#124 = DIRECTION ( 'NONE',  ( -1.000000000000000000, 0.000000000000000000, -0.000000000000000000 ) ) ;
#125 = EDGE_LOOP ( 'NONE', ( #170, #182, #97, #138 ) ) ;
#126 = DIRECTION ( 'NONE',  ( 1.000000000000000000, 0.000000000000000000, -0.000000000000000000 ) ) ;
#127 = FACE_OUTER_BOUND ( 'NONE', #125, .T. ) ;
#128 =( GEOMETRIC_REPRESENTATION_CONTEXT ( 3 ) GLOBAL_UNCERTAINTY_ASSIGNED_CONTEXT ( ( #24 ) ) GLOBAL_UNIT_ASSIGNED_CONTEXT ( ( #115, #101, #81 ) ) REPRESENTATION_CONTEXT ( 'NONE', 'WORKASPACE' ) );
#129 = PRODUCT_DEFINITION ( 'UNKNOWN', '', #104, #61 ) ;
#130 = CARTESIAN_POINT ( 'NONE',  ( 0.000000000000000000, 0.000000000000000000, 0.000000000000000000 ) ) ;
#131 = LINE ( 'NONE', #173, #43 ) ;
#132 = CARTESIAN_POINT ( 'NONE',  ( 0.000000000000000000, 40.00000000000000000, 0.000000000000000000 ) ) ;
#133 = DIRECTION ( 'NONE',  ( 0.000000000000000000, 0.000000000000000000, -1.000000000000000000 ) ) ;
#134 = VECTOR ( 'NONE', #118, 1000.000000000000000 ) ;
#135 = MECHANICAL_DESIGN_GEOMETRIC_PRESENTATION_REPRESENTATION (  '', ( #57 ), #128 ) ;
#136 = ORIENTED_EDGE ( 'NONE', *, *, #73, .F. ) ;
#137 = VECTOR ( 'NONE', #25, 1000.000000000000000 ) ;
#138 = ORIENTED_EDGE ( 'NONE', *, *, #108, .F. ) ;
#139 = DIRECTION ( 'NONE',  ( 0.000000000000000000, 0.000000000000000000, -1.000000000000000000 ) ) ;
#140 = ADVANCED_FACE ( 'NONE', ( #151 ), #87, .F. ) ;
#141 = LINE ( 'NONE', #71, #75 ) ;
#142 = DIRECTION ( 'NONE',  ( -0.000000000000000000, -0.000000000000000000, 1.000000000000000000 ) ) ;
#143 = APPLICATION_CONTEXT ( 'automotive_design' ) ;
#144 = CARTESIAN_POINT ( 'NONE',  ( 0.000000000000000000, 40.00000000000000000, 0.000000000000000000 ) ) ;
#145 = VECTOR ( 'NONE', #105, 1000.000000000000000 ) ;
#146 = ORIENTED_EDGE ( 'NONE', *, *, #152, .F. ) ;
#147 = DIRECTION ( 'NONE',  ( -0.000000000000000000, -1.000000000000000000, -0.000000000000000000 ) ) ;
#148 = CARTESIAN_POINT ( 'NONE',  ( 37.39999999999999147, 0.000000000000000000, 0.000000000000000000 ) ) ;
#149 = DIRECTION ( 'NONE',  ( 1.000000000000000000, 0.000000000000000000, 0.000000000000000000 ) ) ;
#150 = VERTEX_POINT ( 'NONE', #112 ) ;
#151 = FACE_OUTER_BOUND ( 'NONE', #85, .T. ) ;
#152 = EDGE_CURVE ( 'NONE', #150, #154, #141, .T. ) ;
#153 = FACE_OUTER_BOUND ( 'NONE', #9, .T. ) ;
#154 = VERTEX_POINT ( 'NONE', #10 ) ;
#155 = SURFACE_STYLE_FILL_AREA ( #70 ) ;
#156 = ADVANCED_FACE ( 'NONE', ( #127 ), #27, .T. ) ;
#157 = LINE ( 'NONE', #30, #172 ) ;
#158 = DIRECTION ( 'NONE',  ( 1.000000000000000000, -0.000000000000000000, 0.000000000000000000 ) ) ;
#159 = LINE ( 'NONE', #16, #134 ) ;
#160 = APPLICATION_PROTOCOL_DEFINITION ( 'draft international standard', 'automotive_design', 1998, #92 ) ;
#161 = EDGE_CURVE ( 'NONE', #154, #178, #159, .T. ) ;
#162 = ADVANCED_BREP_SHAPE_REPRESENTATION ( 'Rectangle_2', ( #62, #2 ), #86 ) ;
#163 = EDGE_CURVE ( 'NONE', #63, #38, #131, .T. ) ;
#164 = ORIENTED_EDGE ( 'NONE', *, *, #177, .T. ) ;
#165 = DIRECTION ( 'NONE',  ( -1.000000000000000000, 0.000000000000000000, 0.000000000000000000 ) ) ;
#166 = ORIENTED_EDGE ( 'NONE', *, *, #7, .T. ) ;
#167 = FILL_AREA_STYLE_COLOUR ( '', #39 ) ;
#168 = CARTESIAN_POINT ( 'NONE',  ( 0.000000000000000000, 0.000000000000000000, 0.000000000000000000 ) ) ;
#169 = CARTESIAN_POINT ( 'NONE',  ( 37.39999999999999147, 40.00000000000000000, 0.000000000000000000 ) ) ;
#170 = ORIENTED_EDGE ( 'NONE', *, *, #123, .F. ) ;
#171 = PLANE ( 'NONE',  #183 ) ;
#172 = VECTOR ( 'NONE', #89, 1000.000000000000000 ) ;
#173 = CARTESIAN_POINT ( 'NONE',  ( 37.39999999999999147, 40.00000000000000000, 0.000000000000000000 ) ) ;
#174 = ADVANCED_FACE ( 'NONE', ( #1 ), #171, .F. ) ;
#175 = AXIS2_PLACEMENT_3D ( 'NONE', #20, #29, #126 ) ;
#176 = AXIS2_PLACEMENT_3D ( 'NONE', #6, #139, #124 ) ;
#177 = EDGE_CURVE ( 'NONE', #111, #23, #91, .T. ) ;
#178 = VERTEX_POINT ( 'NONE', #78 ) ;
#179 = LINE ( 'NONE', #66, #45 ) ;
#180 = ORIENTED_EDGE ( 'NONE', *, *, #152, .T. ) ;
#181 = LINE ( 'NONE', #168, #33 ) ;
#182 = ORIENTED_EDGE ( 'NONE', *, *, #161, .F. ) ;
#183 = AXIS2_PLACEMENT_3D ( 'NONE', #31, #158, #133 ) ;
#184 = DIRECTION ( 'NONE',  ( 0.000000000000000000, 0.000000000000000000, 1.000000000000000000 ) ) ;
#185 = CARTESIAN_POINT ( 'NONE',  ( 0.000000000000000000, 0.000000000000000000, 0.000000000000000000 ) ) ;
#186 = DIRECTION ( 'NONE',  ( 0.000000000000000000, -1.000000000000000000, 0.000000000000000000 ) ) ;
#187 =( LENGTH_UNIT ( ) NAMED_UNIT ( * ) SI_UNIT ( .MILLI., .METRE. ) );
ENDSEC;
END-ISO-10303-21;
