ISO-10303-21;
HEADER;
FILE_DESCRIPTION (( 'STEP AP214' ),
    '1' );
FILE_NAME ('Square_2.STEP',
    '2026-07-23T11:08:49',
    ( '' ),
    ( '' ),
    'SwSTEP 2.0',
    'SolidWorks 2026',
    '' );
FILE_SCHEMA (( 'AUTOMOTIVE_DESIGN' ));
ENDSEC;

DATA;
#1 = VECTOR ( 'NONE', #158, 1000.000000000000000 ) ;
#2 = APPLICATION_CONTEXT ( 'automotive_design' ) ;
#3 = EDGE_CURVE ( 'NONE', #77, #89, #126, .T. ) ;
#4 = SURFACE_STYLE_USAGE ( .BOTH. , #140 ) ;
#5 = DIRECTION ( 'NONE',  ( -0.000000000000000000, -1.000000000000000000, -0.000000000000000000 ) ) ;
#6 = CARTESIAN_POINT ( 'NONE',  ( -16.25000000000000000, 0.000000000000000000, -16.25000000000000000 ) ) ;
#7 = ORIENTED_EDGE ( 'NONE', *, *, #92, .F. ) ;
#8 = CARTESIAN_POINT ( 'NONE',  ( 16.25000000000000000, 0.000000000000000000, 16.25000000000000000 ) ) ;
#9 = LINE ( 'NONE', #102, #72 ) ;
#10 = AXIS2_PLACEMENT_3D ( 'NONE', #96, #183, #169 ) ;
#11 = DIRECTION ( 'NONE',  ( -0.000000000000000000, -0.000000000000000000, -1.000000000000000000 ) ) ;
#12 = ORIENTED_EDGE ( 'NONE', *, *, #66, .T. ) ;
#13 = ORIENTED_EDGE ( 'NONE', *, *, #3, .T. ) ;
#14 = SHAPE_DEFINITION_REPRESENTATION ( #29, #112 ) ;
#15 = ORIENTED_EDGE ( 'NONE', *, *, #22, .F. ) ;
#16 = CARTESIAN_POINT ( 'NONE',  ( -16.25000000000000000, 40.00000000000000000, -16.25000000000000000 ) ) ;
#17 = ADVANCED_FACE ( 'NONE', ( #108 ), #154, .F. ) ;
#18 = CARTESIAN_POINT ( 'NONE',  ( -16.25000000000000000, 0.000000000000000000, -16.25000000000000000 ) ) ;
#19 = LINE ( 'NONE', #87, #33 ) ;
#20 = DIRECTION ( 'NONE',  ( -0.000000000000000000, -1.000000000000000000, -0.000000000000000000 ) ) ;
#21 = VERTEX_POINT ( 'NONE', #18 ) ;
#22 = EDGE_CURVE ( 'NONE', #21, #122, #19, .T. ) ;
#23 = AXIS2_PLACEMENT_3D ( 'NONE', #165, #36, #123 ) ;
#24 = PRESENTATION_STYLE_ASSIGNMENT (( #4 ) ) ;
#25 = MANIFOLD_SOLID_BREP ( 'Boss-Extrude1', #118 ) ;
#26 = EDGE_LOOP ( 'NONE', ( #12, #57, #43, #53 ) ) ;
#27 = CARTESIAN_POINT ( 'NONE',  ( -16.25000000000000000, 40.00000000000000000, 16.25000000000000000 ) ) ;
#28 = ORIENTED_EDGE ( 'NONE', *, *, #79, .F. ) ;
#29 = PRODUCT_DEFINITION_SHAPE ( 'NONE', 'NONE',  #186 ) ;
#30 = CARTESIAN_POINT ( 'NONE',  ( 0.000000000000000000, 0.000000000000000000, 0.000000000000000000 ) ) ;
#31 = PRODUCT_DEFINITION_CONTEXT ( 'detailed design', #2, 'design' ) ;
#32 = VECTOR ( 'NONE', #68, 1000.000000000000000 ) ;
#33 = VECTOR ( 'NONE', #137, 1000.000000000000000 ) ;
#34 = LINE ( 'NONE', #6, #32 ) ;
#35 = EDGE_LOOP ( 'NONE', ( #128, #7, #159, #39 ) ) ;
#36 = DIRECTION ( 'NONE',  ( 0.000000000000000000, 0.000000000000000000, 1.000000000000000000 ) ) ;
#37 = ORIENTED_EDGE ( 'NONE', *, *, #146, .F. ) ;
#38 = CARTESIAN_POINT ( 'NONE',  ( -16.25000000000000000, 40.00000000000000000, 16.25000000000000000 ) ) ;
#39 = ORIENTED_EDGE ( 'NONE', *, *, #149, .T. ) ;
#40 = DIRECTION ( 'NONE',  ( -1.000000000000000000, 0.000000000000000000, 0.000000000000000000 ) ) ;
#41 = AXIS2_PLACEMENT_3D ( 'NONE', #136, #70, #54 ) ;
#42 =( NAMED_UNIT ( * ) PLANE_ANGLE_UNIT ( ) SI_UNIT ( $, .RADIAN. ) );
#43 = ORIENTED_EDGE ( 'NONE', *, *, #180, .F. ) ;
#44 = PRODUCT_CONTEXT ( 'NONE', #117, 'mechanical' ) ;
#45 = DIRECTION ( 'NONE',  ( 1.000000000000000000, 0.000000000000000000, 0.000000000000000000 ) ) ;
#46 = DIRECTION ( 'NONE',  ( 0.000000000000000000, 0.000000000000000000, -1.000000000000000000 ) ) ;
#47 = DIRECTION ( 'NONE',  ( -1.000000000000000000, 0.000000000000000000, -0.000000000000000000 ) ) ;
#48 =( GEOMETRIC_REPRESENTATION_CONTEXT ( 3 ) GLOBAL_UNCERTAINTY_ASSIGNED_CONTEXT ( ( #147 ) ) GLOBAL_UNIT_ASSIGNED_CONTEXT ( ( #151, #42, #95 ) ) REPRESENTATION_CONTEXT ( 'NONE', 'WORKASPACE' ) );
#49 = VECTOR ( 'NONE', #20, 1000.000000000000000 ) ;
#50 = CARTESIAN_POINT ( 'NONE',  ( 16.25000000000000000, 0.000000000000000000, -16.25000000000000000 ) ) ;
#51 = DIRECTION ( 'NONE',  ( 0.000000000000000000, -0.000000000000000000, 1.000000000000000000 ) ) ;
#52 = PLANE ( 'NONE',  #23 ) ;
#53 = ORIENTED_EDGE ( 'NONE', *, *, #79, .T. ) ;
#54 = DIRECTION ( 'NONE',  ( 0.000000000000000000, 0.000000000000000000, -1.000000000000000000 ) ) ;
#55 = FILL_AREA_STYLE ('',( #124 ) ) ;
#56 = LINE ( 'NONE', #155, #171 ) ;
#57 = ORIENTED_EDGE ( 'NONE', *, *, #145, .F. ) ;
#58 = CARTESIAN_POINT ( 'NONE',  ( 16.25000000000000000, 40.00000000000000000, -16.25000000000000000 ) ) ;
#59 = PRODUCT ( 'Square_2', 'Square_2', '', ( #44 ) ) ;
#60 = EDGE_LOOP ( 'NONE', ( #15, #37, #103, #75 ) ) ;
#61 = LINE ( 'NONE', #27, #73 ) ;
#62 = PLANE ( 'NONE',  #119 ) ;
#63 = PRODUCT_RELATED_PRODUCT_CATEGORY ( 'part', '', ( #59 ) ) ;
#64 = COLOUR_RGB ( '',0.8941176470588234615, 0.8941176470588234615, 0.8941176470588234615 ) ;
#65 = AXIS2_PLACEMENT_3D ( 'NONE', #30, #130, #161 ) ;
#66 = EDGE_CURVE ( 'NONE', #122, #135, #9, .T. ) ;
#67 = CARTESIAN_POINT ( 'NONE',  ( 16.25000000000000000, 40.00000000000000000, -16.25000000000000000 ) ) ;
#68 = DIRECTION ( 'NONE',  ( -1.000000000000000000, -0.000000000000000000, -0.000000000000000000 ) ) ;
#69 = VERTEX_POINT ( 'NONE', #76 ) ;
#70 = DIRECTION ( 'NONE',  ( 1.000000000000000000, 0.000000000000000000, 0.000000000000000000 ) ) ;
#71 = ORIENTED_EDGE ( 'NONE', *, *, #180, .T. ) ;
#72 = VECTOR ( 'NONE', #125, 1000.000000000000000 ) ;
#73 = VECTOR ( 'NONE', #45, 1000.000000000000000 ) ;
#74 = FACE_OUTER_BOUND ( 'NONE', #26, .T. ) ;
#75 = ORIENTED_EDGE ( 'NONE', *, *, #66, .F. ) ;
#76 = CARTESIAN_POINT ( 'NONE',  ( 16.25000000000000000, 40.00000000000000000, -16.25000000000000000 ) ) ;
#77 = VERTEX_POINT ( 'NONE', #85 ) ;
#78 = DIRECTION ( 'NONE',  ( 0.000000000000000000, 1.000000000000000000, 0.000000000000000000 ) ) ;
#79 = EDGE_CURVE ( 'NONE', #89, #122, #98, .T. ) ;
#80 = ADVANCED_FACE ( 'NONE', ( #127 ), #134, .T. ) ;
#81 = DIRECTION ( 'NONE',  ( -1.000000000000000000, -0.000000000000000000, -0.000000000000000000 ) ) ;
#82 = PRESENTATION_LAYER_ASSIGNMENT (  '', '', ( #93 ) ) ;
#83 = APPLICATION_PROTOCOL_DEFINITION ( 'draft international standard', 'automotive_design', 1998, #2 ) ;
#84 =( GEOMETRIC_REPRESENTATION_CONTEXT ( 3 ) GLOBAL_UNCERTAINTY_ASSIGNED_CONTEXT ( ( #116 ) ) GLOBAL_UNIT_ASSIGNED_CONTEXT ( ( #160, #114, #187 ) ) REPRESENTATION_CONTEXT ( 'NONE', 'WORKASPACE' ) );
#85 = CARTESIAN_POINT ( 'NONE',  ( -16.25000000000000000, 40.00000000000000000, -16.25000000000000000 ) ) ;
#86 = FACE_OUTER_BOUND ( 'NONE', #166, .T. ) ;
#87 = CARTESIAN_POINT ( 'NONE',  ( -16.25000000000000000, 0.000000000000000000, -16.25000000000000000 ) ) ;
#88 = PLANE ( 'NONE',  #41 ) ;
#89 = VERTEX_POINT ( 'NONE', #38 ) ;
#90 = DIRECTION ( 'NONE',  ( -0.000000000000000000, -1.000000000000000000, -0.000000000000000000 ) ) ;
#91 = LINE ( 'NONE', #16, #162 ) ;
#92 = EDGE_CURVE ( 'NONE', #77, #21, #56, .T. ) ;
#93 = STYLED_ITEM ( 'NONE', ( #24 ), #25 ) ;
#94 = VECTOR ( 'NONE', #177, 1000.000000000000000 ) ;
#95 =( NAMED_UNIT ( * ) SI_UNIT ( $, .STERADIAN. ) SOLID_ANGLE_UNIT ( ) );
#96 = CARTESIAN_POINT ( 'NONE',  ( 0.000000000000000000, 40.00000000000000000, 0.000000000000000000 ) ) ;
#97 = DIRECTION ( 'NONE',  ( 0.000000000000000000, 0.000000000000000000, 1.000000000000000000 ) ) ;
#98 = LINE ( 'NONE', #181, #174 ) ;
#99 = CARTESIAN_POINT ( 'NONE',  ( -16.25000000000000000, 40.00000000000000000, -16.25000000000000000 ) ) ;
#100 = LINE ( 'NONE', #105, #1 ) ;
#101 = EDGE_LOOP ( 'NONE', ( #13, #71, #142, #106 ) ) ;
#102 = CARTESIAN_POINT ( 'NONE',  ( -16.25000000000000000, 0.000000000000000000, 16.25000000000000000 ) ) ;
#103 = ORIENTED_EDGE ( 'NONE', *, *, #175, .F. ) ;
#104 = CARTESIAN_POINT ( 'NONE',  ( 16.25000000000000000, 40.00000000000000000, 16.25000000000000000 ) ) ;
#105 = CARTESIAN_POINT ( 'NONE',  ( 16.25000000000000000, 40.00000000000000000, 16.25000000000000000 ) ) ;
#106 = ORIENTED_EDGE ( 'NONE', *, *, #185, .T. ) ;
#107 = LINE ( 'NONE', #121, #49 ) ;
#108 = FACE_OUTER_BOUND ( 'NONE', #60, .T. ) ;
#109 = SURFACE_STYLE_FILL_AREA ( #55 ) ;
#110 = PLANE ( 'NONE',  #139 ) ;
#111 = ORIENTED_EDGE ( 'NONE', *, *, #149, .F. ) ;
#112 = ADVANCED_BREP_SHAPE_REPRESENTATION ( 'Square_2', ( #25, #65 ), #84 ) ;
#113 = ORIENTED_EDGE ( 'NONE', *, *, #133, .F. ) ;
#114 =( NAMED_UNIT ( * ) PLANE_ANGLE_UNIT ( ) SI_UNIT ( $, .RADIAN. ) );
#115 = APPLICATION_PROTOCOL_DEFINITION ( 'draft international standard', 'automotive_design', 1998, #117 ) ;
#116 = UNCERTAINTY_MEASURE_WITH_UNIT (LENGTH_MEASURE( 1.000000000000000082E-05 ), #160, 'distance_accuracy_value', 'NONE');
#117 = APPLICATION_CONTEXT ( 'automotive_design' ) ;
#118 = CLOSED_SHELL ( 'NONE', ( #157, #176, #132, #150, #80, #17 ) ) ;
#119 = AXIS2_PLACEMENT_3D ( 'NONE', #144, #46, #47 ) ;
#120 = LINE ( 'NONE', #58, #94 ) ;
#121 = CARTESIAN_POINT ( 'NONE',  ( 16.25000000000000000, 40.00000000000000000, -16.25000000000000000 ) ) ;
#122 = VERTEX_POINT ( 'NONE', #153 ) ;
#123 = DIRECTION ( 'NONE',  ( 1.000000000000000000, 0.000000000000000000, -0.000000000000000000 ) ) ;
#124 = FILL_AREA_STYLE_COLOUR ( '', #64 ) ;
#125 = DIRECTION ( 'NONE',  ( 1.000000000000000000, 0.000000000000000000, 0.000000000000000000 ) ) ;
#126 = LINE ( 'NONE', #99, #143 ) ;
#127 = FACE_OUTER_BOUND ( 'NONE', #101, .T. ) ;
#128 = ORIENTED_EDGE ( 'NONE', *, *, #146, .T. ) ;
#129 = ORIENTED_EDGE ( 'NONE', *, *, #145, .T. ) ;
#130 = DIRECTION ( 'NONE',  ( 0.000000000000000000, 0.000000000000000000, 1.000000000000000000 ) ) ;
#131 = AXIS2_PLACEMENT_3D ( 'NONE', #163, #78, #51 ) ;
#132 = ADVANCED_FACE ( 'NONE', ( #182 ), #110, .F. ) ;
#133 = EDGE_CURVE ( 'NONE', #179, #69, #120, .T. ) ;
#134 = PLANE ( 'NONE',  #10 ) ;
#135 = VERTEX_POINT ( 'NONE', #8 ) ;
#136 = CARTESIAN_POINT ( 'NONE',  ( -16.25000000000000000, 40.00000000000000000, -16.25000000000000000 ) ) ;
#137 = DIRECTION ( 'NONE',  ( 0.000000000000000000, 0.000000000000000000, 1.000000000000000000 ) ) ;
#138 = LINE ( 'NONE', #167, #172 ) ;
#139 = AXIS2_PLACEMENT_3D ( 'NONE', #67, #40, #170 ) ;
#140 = SURFACE_SIDE_STYLE ('',( #109 ) ) ;
#141 = VERTEX_POINT ( 'NONE', #50 ) ;
#142 = ORIENTED_EDGE ( 'NONE', *, *, #133, .T. ) ;
#143 = VECTOR ( 'NONE', #97, 1000.000000000000000 ) ;
#144 = CARTESIAN_POINT ( 'NONE',  ( -16.25000000000000000, 40.00000000000000000, 16.25000000000000000 ) ) ;
#145 = EDGE_CURVE ( 'NONE', #179, #135, #100, .T. ) ;
#146 = EDGE_CURVE ( 'NONE', #141, #21, #34, .T. ) ;
#147 = UNCERTAINTY_MEASURE_WITH_UNIT (LENGTH_MEASURE( 1.000000000000000082E-05 ), #151, 'distance_accuracy_value', 'NONE');
#148 = MECHANICAL_DESIGN_GEOMETRIC_PRESENTATION_REPRESENTATION (  '', ( #93 ), #48 ) ;
#149 = EDGE_CURVE ( 'NONE', #69, #141, #107, .T. ) ;
#150 = ADVANCED_FACE ( 'NONE', ( #178 ), #52, .F. ) ;
#151 =( LENGTH_UNIT ( ) NAMED_UNIT ( * ) SI_UNIT ( .MILLI., .METRE. ) );
#152 = EDGE_LOOP ( 'NONE', ( #184, #111, #113, #129 ) ) ;
#153 = CARTESIAN_POINT ( 'NONE',  ( -16.25000000000000000, 0.000000000000000000, 16.25000000000000000 ) ) ;
#154 = PLANE ( 'NONE',  #131 ) ;
#155 = CARTESIAN_POINT ( 'NONE',  ( -16.25000000000000000, 40.00000000000000000, -16.25000000000000000 ) ) ;
#156 = ORIENTED_EDGE ( 'NONE', *, *, #22, .T. ) ;
#157 = ADVANCED_FACE ( 'NONE', ( #86 ), #88, .F. ) ;
#158 = DIRECTION ( 'NONE',  ( -0.000000000000000000, -1.000000000000000000, -0.000000000000000000 ) ) ;
#159 = ORIENTED_EDGE ( 'NONE', *, *, #185, .F. ) ;
#160 =( LENGTH_UNIT ( ) NAMED_UNIT ( * ) SI_UNIT ( .MILLI., .METRE. ) );
#161 = DIRECTION ( 'NONE',  ( 1.000000000000000000, 0.000000000000000000, 0.000000000000000000 ) ) ;
#162 = VECTOR ( 'NONE', #81, 1000.000000000000000 ) ;
#163 = CARTESIAN_POINT ( 'NONE',  ( 0.000000000000000000, 0.000000000000000000, 0.000000000000000000 ) ) ;
#164 = PRODUCT_DEFINITION_FORMATION_WITH_SPECIFIED_SOURCE ( 'ANY', '', #59, .NOT_KNOWN. ) ;
#165 = CARTESIAN_POINT ( 'NONE',  ( -16.25000000000000000, 40.00000000000000000, -16.25000000000000000 ) ) ;
#166 = EDGE_LOOP ( 'NONE', ( #156, #28, #173, #168 ) ) ;
#167 = CARTESIAN_POINT ( 'NONE',  ( 16.25000000000000000, 0.000000000000000000, -16.25000000000000000 ) ) ;
#168 = ORIENTED_EDGE ( 'NONE', *, *, #92, .T. ) ;
#169 = DIRECTION ( 'NONE',  ( 0.000000000000000000, -0.000000000000000000, 1.000000000000000000 ) ) ;
#170 = DIRECTION ( 'NONE',  ( 0.000000000000000000, 0.000000000000000000, 1.000000000000000000 ) ) ;
#171 = VECTOR ( 'NONE', #5, 1000.000000000000000 ) ;
#172 = VECTOR ( 'NONE', #11, 1000.000000000000000 ) ;
#173 = ORIENTED_EDGE ( 'NONE', *, *, #3, .F. ) ;
#174 = VECTOR ( 'NONE', #90, 1000.000000000000000 ) ;
#175 = EDGE_CURVE ( 'NONE', #135, #141, #138, .T. ) ;
#176 = ADVANCED_FACE ( 'NONE', ( #74 ), #62, .F. ) ;
#177 = DIRECTION ( 'NONE',  ( -0.000000000000000000, -0.000000000000000000, -1.000000000000000000 ) ) ;
#178 = FACE_OUTER_BOUND ( 'NONE', #35, .T. ) ;
#179 = VERTEX_POINT ( 'NONE', #104 ) ;
#180 = EDGE_CURVE ( 'NONE', #89, #179, #61, .T. ) ;
#181 = CARTESIAN_POINT ( 'NONE',  ( -16.25000000000000000, 40.00000000000000000, 16.25000000000000000 ) ) ;
#182 = FACE_OUTER_BOUND ( 'NONE', #152, .T. ) ;
#183 = DIRECTION ( 'NONE',  ( 0.000000000000000000, 1.000000000000000000, 0.000000000000000000 ) ) ;
#184 = ORIENTED_EDGE ( 'NONE', *, *, #175, .T. ) ;
#185 = EDGE_CURVE ( 'NONE', #69, #77, #91, .T. ) ;
#186 = PRODUCT_DEFINITION ( 'UNKNOWN', '', #164, #31 ) ;
#187 =( NAMED_UNIT ( * ) SI_UNIT ( $, .STERADIAN. ) SOLID_ANGLE_UNIT ( ) );
ENDSEC;
END-ISO-10303-21;
