ISO-10303-21;
HEADER;
FILE_DESCRIPTION (( 'STEP AP214' ),
    '1' );
FILE_NAME ('Star_2.STEP',
    '2026-07-23T11:08:50',
    ( '' ),
    ( '' ),
    'SwSTEP 2.0',
    'SolidWorks 2026',
    '' );
FILE_SCHEMA (( 'AUTOMOTIVE_DESIGN' ));
ENDSEC;

DATA;
#1 = FACE_OUTER_BOUND ( 'NONE', #405, .T. ) ;
#2 = EDGE_LOOP ( 'NONE', ( #302, #32, #776, #265 ) ) ;
#3 = DIRECTION ( 'NONE',  ( 0.000000000000000000, 0.000000000000000000, -1.000000000000000000 ) ) ;
#4 = CARTESIAN_POINT ( 'NONE',  ( -8.122351091509310450, 40.00000000000000000, -30.74994020236018244 ) ) ;
#5 = AXIS2_PLACEMENT_3D ( 'NONE', #448, #11, #703 ) ;
#6 = VERTEX_POINT ( 'NONE', #146 ) ;
#7 = CARTESIAN_POINT ( 'NONE',  ( 3.264863583226906840, 0.000000000000000000, -42.44874858533451345 ) ) ;
#8 = DIRECTION ( 'NONE',  ( -0.000000000000000000, -1.000000000000000000, -0.000000000000000000 ) ) ;
#9 = EDGE_CURVE ( 'NONE', #286, #166, #171, .T. ) ;
#10 = LINE ( 'NONE', #312, #386 ) ;
#11 = DIRECTION ( 'NONE',  ( -0.9987159476001659097, 0.000000000000000000, -0.05066020143172297180 ) ) ;
#12 = DIRECTION ( 'NONE',  ( -0.000000000000000000, -1.000000000000000000, 0.000000000000000000 ) ) ;
#13 = DIRECTION ( 'NONE',  ( 0.9483781927698007319, -0.000000000000000000, 0.3171416142335888866 ) ) ;
#14 = VECTOR ( 'NONE', #434, 1000.000000000000000 ) ;
#15 = EDGE_CURVE ( 'NONE', #723, #254, #439, .T. ) ;
#16 = PLANE ( 'NONE',  #33 ) ;
#17 = ORIENTED_EDGE ( 'NONE', *, *, #72, .F. ) ;
#18 = DIRECTION ( 'NONE',  ( 0.000000000000000000, 0.000000000000000000, -1.000000000000000000 ) ) ;
#19 = AXIS2_PLACEMENT_3D ( 'NONE', #590, #772, #228 ) ;
#20 = EDGE_LOOP ( 'NONE', ( #708, #216, #24, #539 ) ) ;
#21 = ADVANCED_FACE ( 'NONE', ( #574 ), #137, .F. ) ;
#22 = PRODUCT_DEFINITION_CONTEXT ( 'detailed design', #793, 'design' ) ;
#23 = CARTESIAN_POINT ( 'NONE',  ( 1.648240390838388914, 40.00000000000000000, -42.44974439499857510 ) ) ;
#24 = ORIENTED_EDGE ( 'NONE', *, *, #258, .F. ) ;
#25 = ORIENTED_EDGE ( 'NONE', *, *, #258, .T. ) ;
#26 = SURFACE_STYLE_USAGE ( .BOTH. , #203 ) ;
#27 = DIRECTION ( 'NONE',  ( 0.000000000000000000, 1.000000000000000000, 0.000000000000000000 ) ) ;
#28 = ORIENTED_EDGE ( 'NONE', *, *, #586, .F. ) ;
#29 = CIRCLE ( 'NONE', #409, 1.000000000000001332 ) ;
#30 = ADVANCED_FACE ( 'NONE', ( #389 ), #16, .F. ) ;
#31 = FACE_OUTER_BOUND ( 'NONE', #267, .T. ) ;
#32 = ORIENTED_EDGE ( 'NONE', *, *, #736, .F. ) ;
#33 = AXIS2_PLACEMENT_3D ( 'NONE', #381, #264, #569 ) ;
#34 = CARTESIAN_POINT ( 'NONE',  ( -13.76674697969182226, 40.00000000000000000, -12.88181225070050928 ) ) ;
#35 = ORIENTED_EDGE ( 'NONE', *, *, #418, .F. ) ;
#36 = CARTESIAN_POINT ( 'NONE',  ( 18.65005007489517297, 40.00000000000000000, -12.89345408728540754 ) ) ;
#37 = PRODUCT_CONTEXT ( 'NONE', #235, 'mechanical' ) ;
#38 = ORIENTED_EDGE ( 'NONE', *, *, #573, .T. ) ;
#39 = VECTOR ( 'NONE', #670, 999.9999999999998863 ) ;
#40 = CARTESIAN_POINT ( 'NONE',  ( -12.98002303790089762, 0.000000000000000000, -13.49911723157540244 ) ) ;
#41 = ORIENTED_EDGE ( 'NONE', *, *, #548, .T. ) ;
#42 = PLANE ( 'NONE',  #676 ) ;
#43 = EDGE_CURVE ( 'NONE', #475, #233, #760, .T. ) ;
#44 = AXIS2_PLACEMENT_3D ( 'NONE', #655, #100, #278 ) ;
#45 = CARTESIAN_POINT ( 'NONE',  ( 25.72921647998502692, 40.00000000000000000, -25.67964066495756015 ) ) ;
#46 = ORIENTED_EDGE ( 'NONE', *, *, #472, .T. ) ;
#47 = PRODUCT_RELATED_PRODUCT_CATEGORY ( 'part', '', ( #403 ) ) ;
#48 = CARTESIAN_POINT ( 'NONE',  ( 2.140093955138162585, 40.00000000000000000, -1.127387402359370405 ) ) ;
#49 = VERTEX_POINT ( 'NONE', #707 ) ;
#50 = AXIS2_PLACEMENT_3D ( 'NONE', #570, #12, #138 ) ;
#51 =( GEOMETRIC_REPRESENTATION_CONTEXT ( 3 ) GLOBAL_UNCERTAINTY_ASSIGNED_CONTEXT ( ( #679 ) ) GLOBAL_UNIT_ASSIGNED_CONTEXT ( ( #580, #567, #320 ) ) REPRESENTATION_CONTEXT ( 'NONE', 'WORKASPACE' ) );
#52 = DIRECTION ( 'NONE',  ( 0.000000000000000000, 0.000000000000000000, -1.000000000000000000 ) ) ;
#53 = EDGE_CURVE ( 'NONE', #541, #111, #287, .T. ) ;
#54 = CARTESIAN_POINT ( 'NONE',  ( -20.51856199796061730, 0.000000000000000000, -24.72654824335803880 ) ) ;
#55 = ORIENTED_EDGE ( 'NONE', *, *, #560, .T. ) ;
#56 = CARTESIAN_POINT ( 'NONE',  ( -13.76674697969182226, 0.000000000000000000, -12.88181225070050928 ) ) ;
#57 = AXIS2_PLACEMENT_3D ( 'NONE', #169, #720, #458 ) ;
#58 = CARTESIAN_POINT ( 'NONE',  ( 2.456189325203081086, 40.00000000000000000, -41.86049188591697146 ) ) ;
#59 = DIRECTION ( 'NONE',  ( -0.000000000000000000, -1.000000000000000000, -0.000000000000000000 ) ) ;
#60 = ORIENTED_EDGE ( 'NONE', *, *, #606, .T. ) ;
#61 = CARTESIAN_POINT ( 'NONE',  ( 2.774377183605340136, 40.00000000000000000, -1.127387402359370849 ) ) ;
#62 = CARTESIAN_POINT ( 'NONE',  ( -8.122351091509310450, 0.000000000000000000, -30.74994020236018244 ) ) ;
#63 = DIRECTION ( 'NONE',  ( -0.000000000000000000, -1.000000000000000000, -0.000000000000000000 ) ) ;
#64 = EDGE_LOOP ( 'NONE', ( #785, #797, #99, #143 ) ) ;
#65 = CARTESIAN_POINT ( 'NONE',  ( -7.820456544734963877, 40.00000000000000000, -29.79659887700607968 ) ) ;
#66 = CIRCLE ( 'NONE', #50, 1.000000000000000444 ) ;
#67 = CIRCLE ( 'NONE', #725, 1.000000000000000888 ) ;
#68 = CYLINDRICAL_SURFACE ( 'NONE', #204, 1.000000000000004441 ) ;
#69 = LINE ( 'NONE', #687, #520 ) ;
#70 = VERTEX_POINT ( 'NONE', #637 ) ;
#71 = FACE_OUTER_BOUND ( 'NONE', #2, .T. ) ;
#72 = EDGE_CURVE ( 'NONE', #270, #585, #665, .T. ) ;
#73 = CARTESIAN_POINT ( 'NONE',  ( 26.21402538402269400, 40.00000000000000000, -24.10691786443332418 ) ) ;
#74 = CARTESIAN_POINT ( 'NONE',  ( -20.82045654473496299, 0.000000000000000000, -25.67988956871214512 ) ) ;
#75 = AXIS2_PLACEMENT_3D ( 'NONE', #465, #716, #529 ) ;
#76 = VERTEX_POINT ( 'NONE', #576 ) ;
#77 = DIRECTION ( 'NONE',  ( -0.000000000000000000, -1.000000000000000000, -0.000000000000000000 ) ) ;
#78 = EDGE_CURVE ( 'NONE', #49, #233, #641, .T. ) ;
#79 = LINE ( 'NONE', #144, #322 ) ;
#80 = ORIENTED_EDGE ( 'NONE', *, *, #350, .F. ) ;
#81 = ORIENTED_EDGE ( 'NONE', *, *, #773, .F. ) ;
#82 = AXIS2_PLACEMENT_3D ( 'NONE', #559, #758, #427 ) ;
#83 = PRESENTATION_STYLE_ASSIGNMENT (( #26 ) ) ;
#84 = AXIS2_PLACEMENT_3D ( 'NONE', #680, #669, #236 ) ;
#85 = ADVANCED_FACE ( 'NONE', ( #762 ), #205, .F. ) ;
#86 = DIRECTION ( 'NONE',  ( -0.000000000000000000, -1.000000000000000000, -0.000000000000000000 ) ) ;
#87 = LINE ( 'NONE', #755, #745 ) ;
#88 = EDGE_CURVE ( 'NONE', #364, #740, #87, .T. ) ;
#89 = CIRCLE ( 'NONE', #538, 1.000000000000000888 ) ;
#90 = ORIENTED_EDGE ( 'NONE', *, *, #668, .T. ) ;
#91 = LINE ( 'NONE', #583, #779 ) ;
#92 = CARTESIAN_POINT ( 'NONE',  ( 2.456189325203081086, 40.00000000000000000, -41.86049188591697146 ) ) ;
#93 = ORIENTED_EDGE ( 'NONE', *, *, #246, .T. ) ;
#94 = AXIS2_PLACEMENT_3D ( 'NONE', #183, #689, #370 ) ;
#95 = VERTEX_POINT ( 'NONE', #452 ) ;
#96 = CIRCLE ( 'NONE', #179, 1.000000000000000888 ) ;
#97 = EDGE_CURVE ( 'NONE', #688, #475, #456, .T. ) ;
#98 = DIRECTION ( 'NONE',  ( 0.000000000000000000, 0.000000000000000000, -1.000000000000000000 ) ) ;
#99 = ORIENTED_EDGE ( 'NONE', *, *, #468, .F. ) ;
#100 = DIRECTION ( 'NONE',  ( 0.000000000000000000, 1.000000000000000000, 0.000000000000000000 ) ) ;
#101 = ORIENTED_EDGE ( 'NONE', *, *, #355, .F. ) ;
#102 = FACE_OUTER_BOUND ( 'NONE', #597, .T. ) ;
#103 = EDGE_CURVE ( 'NONE', #702, #711, #479, .T. ) ;
#104 = ORIENTED_EDGE ( 'NONE', *, *, #9, .F. ) ;
#105 = AXIS2_PLACEMENT_3D ( 'NONE', #54, #425, #691 ) ;
#106 = CARTESIAN_POINT ( 'NONE',  ( 17.65133412729500506, 40.00000000000000000, -12.94411428871712921 ) ) ;
#107 = ORIENTED_EDGE ( 'NONE', *, *, #536, .F. ) ;
#108 = CIRCLE ( 'NONE', #57, 1.000000000000000888 ) ;
#109 = ADVANCED_BREP_SHAPE_REPRESENTATION ( 'Star_2', ( #398, #281 ), #519 ) ;
#110 = CARTESIAN_POINT ( 'NONE',  ( -20.82045654473496299, 40.00000000000000000, -25.67988956871214512 ) ) ;
#111 = VERTEX_POINT ( 'NONE', #395 ) ;
#112 = DIRECTION ( 'NONE',  ( -0.000000000000000000, -1.000000000000000000, -0.000000000000000000 ) ) ;
#113 = ADVANCED_FACE ( 'NONE', ( #259 ), #502, .T. ) ;
#114 = CARTESIAN_POINT ( 'NONE',  ( -20.51856199796061730, 40.00000000000000000, -24.72654824335803880 ) ) ;
#115 = DIRECTION ( 'NONE',  ( 0.000000000000000000, 1.000000000000000000, 0.000000000000000000 ) ) ;
#116 = VERTEX_POINT ( 'NONE', #404 ) ;
#117 = AXIS2_PLACEMENT_3D ( 'NONE', #356, #491, #419 ) ;
#118 = CYLINDRICAL_SURFACE ( 'NONE', #333, 1.000000000000000888 ) ;
#119 = DIRECTION ( 'NONE',  ( -0.000000000000000000, -1.000000000000000000, -0.000000000000000000 ) ) ;
#120 = EDGE_LOOP ( 'NONE', ( #324, #767, #38, #578 ) ) ;
#121 = FACE_OUTER_BOUND ( 'NONE', #549, .T. ) ;
#122 = VECTOR ( 'NONE', #209, 1000.000000000000114 ) ;
#123 = CARTESIAN_POINT ( 'NONE',  ( -10.96980446326809755, 40.00000000000000000, 2.202185515834246932 ) ) ;
#124 = FACE_OUTER_BOUND ( 'NONE', #120, .T. ) ;
#125 = VERTEX_POINT ( 'NONE', #652 ) ;
#126 = CARTESIAN_POINT ( 'NONE',  ( 15.56464784366138687, 40.00000000000000000, 3.149732331665636931 ) ) ;
#127 = FACE_OUTER_BOUND ( 'NONE', #666, .T. ) ;
#128 = CYLINDRICAL_SURFACE ( 'NONE', #399, 1.000000000000000444 ) ;
#129 = ORIENTED_EDGE ( 'NONE', *, *, #566, .T. ) ;
#130 = EDGE_CURVE ( 'NONE', #166, #95, #412, .T. ) ;
#131 = LINE ( 'NONE', #65, #636 ) ;
#132 = LINE ( 'NONE', #74, #294 ) ;
#133 = ORIENTED_EDGE ( 'NONE', *, *, #530, .F. ) ;
#134 = PLANE ( 'NONE',  #460 ) ;
#135 = LINE ( 'NONE', #516, #230 ) ;
#136 = CIRCLE ( 'NONE', #709, 0.9999999999999974465 ) ;
#137 = PLANE ( 'NONE',  #782 ) ;
#138 = DIRECTION ( 'NONE',  ( 0.000000000000000000, 0.000000000000000000, -1.000000000000000000 ) ) ;
#139 = VERTEX_POINT ( 'NONE', #106 ) ;
#140 = ADVANCED_FACE ( 'NONE', ( #225 ), #587, .F. ) ;
#141 = DIRECTION ( 'NONE',  ( 0.6189734461164568824, -0.000000000000000000, -0.7854119129493246643 ) ) ;
#142 = VERTEX_POINT ( 'NONE', #40 ) ;
#143 = ORIENTED_EDGE ( 'NONE', *, *, #97, .T. ) ;
#144 = CARTESIAN_POINT ( 'NONE',  ( -11.96842132716060014, 0.000000000000000000, 2.254762689108442242 ) ) ;
#145 = VECTOR ( 'NONE', #112, 1000.000000000000000 ) ;
#146 = CARTESIAN_POINT ( 'NONE',  ( 12.72365249407905452, 0.000000000000000000, -29.77873824094907462 ) ) ;
#147 = EDGE_LOOP ( 'NONE', ( #28, #101, #274, #170 ) ) ;
#148 = CARTESIAN_POINT ( 'NONE',  ( 17.86463816194584453, 40.00000000000000000, -13.51242753340186376 ) ) ;
#149 = CIRCLE ( 'NONE', #348, 1.000000000000004441 ) ;
#150 = ORIENTED_EDGE ( 'NONE', *, *, #88, .F. ) ;
#151 = CARTESIAN_POINT ( 'NONE',  ( 15.88178945789497298, 40.00000000000000000, 2.201354138895833756 ) ) ;
#152 = ORIENTED_EDGE ( 'NONE', *, *, #362, .T. ) ;
#153 = EDGE_CURVE ( 'NONE', #49, #206, #136, .T. ) ;
#154 = VECTOR ( 'NONE', #437, 1000.000000000000114 ) ;
#155 = DIRECTION ( 'NONE',  ( -0.000000000000000000, -1.000000000000000000, -0.000000000000000000 ) ) ;
#156 = VECTOR ( 'NONE', #207, 1000.000000000000227 ) ;
#157 = ORIENTED_EDGE ( 'NONE', *, *, #560, .F. ) ;
#158 = CARTESIAN_POINT ( 'NONE',  ( 2.774377183605340136, 0.000000000000000000, -1.127387402359370849 ) ) ;
#159 = ORIENTED_EDGE ( 'NONE', *, *, #495, .T. ) ;
#160 = AXIS2_PLACEMENT_3D ( 'NONE', #92, #266, #321 ) ;
#161 = EDGE_CURVE ( 'NONE', #604, #364, #108, .T. ) ;
#162 = DIRECTION ( 'NONE',  ( -0.9537493544077808583, -0.000000000000000000, -0.3006030089116560888 ) ) ;
#163 = ORIENTED_EDGE ( 'NONE', *, *, #545, .T. ) ;
#164 = PLANE ( 'NONE',  #428 ) ;
#165 = VECTOR ( 'NONE', #484, 1000.000000000000000 ) ;
#166 = VERTEX_POINT ( 'NONE', #537 ) ;
#167 = DIRECTION ( 'NONE',  ( -0.6173049808748913847, 0.000000000000000000, -0.7867239417909245303 ) ) ;
#168 = CIRCLE ( 'NONE', #343, 1.000000000000000444 ) ;
#169 = CARTESIAN_POINT ( 'NONE',  ( 13.02425550299070878, 40.00000000000000000, -30.73248759535685792 ) ) ;
#170 = ORIENTED_EDGE ( 'NONE', *, *, #303, .T. ) ;
#171 = CIRCLE ( 'NONE', #160, 1.000000000000000888 ) ;
#172 = CARTESIAN_POINT ( 'NONE',  ( 2.457235569371751360, 40.00000000000000000, -0.1790092095895692847 ) ) ;
#173 = ORIENTED_EDGE ( 'NONE', *, *, #53, .F. ) ;
#174 = PLANE ( 'NONE',  #117 ) ;
#175 = CARTESIAN_POINT ( 'NONE',  ( 12.72365249407905452, 40.00000000000000000, -29.77873824094907462 ) ) ;
#176 = EDGE_LOOP ( 'NONE', ( #454, #191, #794, #226 ) ) ;
#177 = AXIS2_PLACEMENT_3D ( 'NONE', #694, #432, #685 ) ;
#178 = FACE_OUTER_BOUND ( 'NONE', #147, .T. ) ;
#179 = AXIS2_PLACEMENT_3D ( 'NONE', #316, #256, #499 ) ;
#180 = DIRECTION ( 'NONE',  ( 0.000000000000000000, -0.000000000000000000, -1.000000000000000000 ) ) ;
#181 = LINE ( 'NONE', #253, #14 ) ;
#182 = ORIENTED_EDGE ( 'NONE', *, *, #190, .F. ) ;
#183 = CARTESIAN_POINT ( 'NONE',  ( 18.65005007489517297, 0.000000000000000000, -12.89345408728540754 ) ) ;
#184 = CIRCLE ( 'NONE', #84, 1.000000000000000888 ) ;
#185 = FACE_OUTER_BOUND ( 'NONE', #383, .T. ) ;
#186 = PLANE ( 'NONE',  #639 ) ;
#187 = ORIENTED_EDGE ( 'NONE', *, *, #208, .T. ) ;
#188 = CARTESIAN_POINT ( 'NONE',  ( 15.56464784366138687, 0.000000000000000000, 3.149732331665636931 ) ) ;
#189 = CARTESIAN_POINT ( 'NONE',  ( 15.56464784366138687, 40.00000000000000000, 3.149732331665634710 ) ) ;
#190 = EDGE_CURVE ( 'NONE', #116, #254, #414, .T. ) ;
#191 = ORIENTED_EDGE ( 'NONE', *, *, #402, .F. ) ;
#192 = LINE ( 'NONE', #250, #649 ) ;
#193 = VECTOR ( 'NONE', #612, 1000.000000000000000 ) ;
#194 = ORIENTED_EDGE ( 'NONE', *, *, #15, .T. ) ;
#195 = CARTESIAN_POINT ( 'NONE',  ( -12.98002303790089762, 40.00000000000000000, -13.49911723157540244 ) ) ;
#196 = EDGE_CURVE ( 'NONE', #206, #604, #780, .T. ) ;
#197 = DIRECTION ( 'NONE',  ( -0.000000000000000000, -1.000000000000000000, -0.000000000000000000 ) ) ;
#198 = ORIENTED_EDGE ( 'NONE', *, *, #478, .T. ) ;
#199 = ORIENTED_EDGE ( 'NONE', *, *, #442, .T. ) ;
#200 = DIRECTION ( 'NONE',  ( -0.000000000000000000, -1.000000000000000000, -0.000000000000000000 ) ) ;
#201 = ORIENTED_EDGE ( 'NONE', *, *, #451, .F. ) ;
#202 = ORIENTED_EDGE ( 'NONE', *, *, #515, .T. ) ;
#203 = SURFACE_SIDE_STYLE ('',( #424 ) ) ;
#204 = AXIS2_PLACEMENT_3D ( 'NONE', #114, #792, #231 ) ;
#205 = PLANE ( 'NONE',  #5 ) ;
#206 = VERTEX_POINT ( 'NONE', #45 ) ;
#207 = DIRECTION ( 'NONE',  ( 0.9483781927698007319, -0.000000000000000000, -0.3171416142335888866 ) ) ;
#208 = EDGE_CURVE ( 'NONE', #763, #347, #719, .T. ) ;
#209 = DIRECTION ( 'NONE',  ( 0.6189734461164568824, -0.000000000000000000, -0.7854119129493246643 ) ) ;
#210 = AXIS2_PLACEMENT_3D ( 'NONE', #212, #340, #289 ) ;
#211 = ORIENTED_EDGE ( 'NONE', *, *, #647, .T. ) ;
#212 = CARTESIAN_POINT ( 'NONE',  ( -8.122351091509310450, 40.00000000000000000, -30.74994020236018244 ) ) ;
#213 = EDGE_CURVE ( 'NONE', #125, #730, #466, .T. ) ;
#214 = ORIENTED_EDGE ( 'NONE', *, *, #339, .T. ) ;
#215 = DIRECTION ( 'NONE',  ( 0.000000000000000000, 0.000000000000000000, -1.000000000000000000 ) ) ;
#216 = ORIENTED_EDGE ( 'NONE', *, *, #97, .F. ) ;
#217 = DIRECTION ( 'NONE',  ( 0.000000000000000000, 0.000000000000000000, 1.000000000000000000 ) ) ;
#218 = ADVANCED_FACE ( 'NONE', ( #473 ), #599, .F. ) ;
#219 = CARTESIAN_POINT ( 'NONE',  ( -11.96842132716060014, 40.00000000000000000, 2.254762689108442242 ) ) ;
#220 = DIRECTION ( 'NONE',  ( 1.000000000000000000, 0.000000000000000000, 0.000000000000000000 ) ) ;
#221 = ORIENTED_EDGE ( 'NONE', *, *, #362, .F. ) ;
#222 = AXIS2_PLACEMENT_3D ( 'NONE', #712, #592, #775 ) ;
#223 = LINE ( 'NONE', #660, #145 ) ;
#224 = EDGE_CURVE ( 'NONE', #233, #284, #276, .T. ) ;
#225 = FACE_OUTER_BOUND ( 'NONE', #327, .T. ) ;
#226 = ORIENTED_EDGE ( 'NONE', *, *, #453, .T. ) ;
#227 = LINE ( 'NONE', #354, #485 ) ;
#228 = DIRECTION ( 'NONE',  ( 0.000000000000000000, 0.000000000000000000, -1.000000000000000000 ) ) ;
#229 = ORIENTED_EDGE ( 'NONE', *, *, #472, .F. ) ;
#230 = VECTOR ( 'NONE', #8, 1000.000000000000000 ) ;
#231 = DIRECTION ( 'NONE',  ( 0.000000000000000000, 0.000000000000000000, -1.000000000000000000 ) ) ;
#232 = ADVANCED_FACE ( 'NONE', ( #31 ), #469, .F. ) ;
#233 = VERTEX_POINT ( 'NONE', #596 ) ;
#234 = CARTESIAN_POINT ( 'NONE',  ( -11.96842132716060014, 40.00000000000000000, 2.254762689108442242 ) ) ;
#235 = APPLICATION_CONTEXT ( 'automotive_design' ) ;
#236 = DIRECTION ( 'NONE',  ( 0.000000000000000000, 0.000000000000000000, 1.000000000000000000 ) ) ;
#237 = DIRECTION ( 'NONE',  ( 0.05066020143172296486, -0.000000000000000000, -0.9987159476001657987 ) ) ;
#238 = EDGE_LOOP ( 'NONE', ( #293, #584, #704, #242 ) ) ;
#239 = LINE ( 'NONE', #634, #165 ) ;
#240 = PLANE ( 'NONE',  #693 ) ;
#241 = LINE ( 'NONE', #749, #461 ) ;
#242 = ORIENTED_EDGE ( 'NONE', *, *, #681, .T. ) ;
#243 = CIRCLE ( 'NONE', #572, 1.000000000000000888 ) ;
#244 = CARTESIAN_POINT ( 'NONE',  ( 3.264863583226907728, 40.00000000000000000, -42.44874858533451345 ) ) ;
#245 = VECTOR ( 'NONE', #119, 1000.000000000000000 ) ;
#246 = EDGE_CURVE ( 'NONE', #730, #763, #783, .T. ) ;
#247 = FACE_OUTER_BOUND ( 'NONE', #713, .T. ) ;
#248 = CARTESIAN_POINT ( 'NONE',  ( 2.140093955138162585, 40.00000000000000000, -1.127387402359370627 ) ) ;
#249 = ORIENTED_EDGE ( 'NONE', *, *, #495, .F. ) ;
#250 = CARTESIAN_POINT ( 'NONE',  ( 3.264863583226907728, 40.00000000000000000, -42.44874858533451345 ) ) ;
#251 = AXIS2_PLACEMENT_3D ( 'NONE', #507, #86, #517 ) ;
#252 = CARTESIAN_POINT ( 'NONE',  ( -7.314402157144617611, 40.00000000000000000, -30.16068769327858590 ) ) ;
#253 = CARTESIAN_POINT ( 'NONE',  ( -11.96842132716060014, 40.00000000000000000, 2.254762689108441354 ) ) ;
#254 = VERTEX_POINT ( 'NONE', #158 ) ;
#255 = DIRECTION ( 'NONE',  ( 0.5882566994175378872, 0.000000000000000000, 0.8086742580238254208 ) ) ;
#256 = DIRECTION ( 'NONE',  ( -0.000000000000000000, -1.000000000000000000, 0.000000000000000000 ) ) ;
#257 = DIRECTION ( 'NONE',  ( -0.6189734461164568824, 0.000000000000000000, 0.7854119129493246643 ) ) ;
#258 = EDGE_CURVE ( 'NONE', #139, #688, #325, .T. ) ;
#259 = FACE_OUTER_BOUND ( 'NONE', #431, .T. ) ;
#260 = CARTESIAN_POINT ( 'NONE',  ( 2.140093955138162585, 40.00000000000000000, -1.127387402359370627 ) ) ;
#261 = AXIS2_PLACEMENT_3D ( 'NONE', #365, #77, #319 ) ;
#262 = CIRCLE ( 'NONE', #533, 1.000000000000001332 ) ;
#263 = LINE ( 'NONE', #450, #156 ) ;
#264 = DIRECTION ( 'NONE',  ( 0.8079489343646925059, -0.000000000000000000, 0.5892525090815973199 ) ) ;
#265 = ORIENTED_EDGE ( 'NONE', *, *, #88, .T. ) ;
#266 = DIRECTION ( 'NONE',  ( 0.000000000000000000, 1.000000000000000000, 0.000000000000000000 ) ) ;
#267 = EDGE_LOOP ( 'NONE', ( #335, #358, #544, #152 ) ) ;
#268 = LINE ( 'NONE', #447, #438 ) ;
#269 = ORIENTED_EDGE ( 'NONE', *, *, #410, .T. ) ;
#270 = VERTEX_POINT ( 'NONE', #540 ) ;
#271 = ADVANCED_FACE ( 'NONE', ( #534 ), #164, .F. ) ;
#272 = COLOUR_RGB ( '',0.8941176470588234615, 0.8941176470588234615, 0.8941176470588234615 ) ;
#273 = ORIENTED_EDGE ( 'NONE', *, *, #213, .T. ) ;
#274 = ORIENTED_EDGE ( 'NONE', *, *, #736, .T. ) ;
#275 = CARTESIAN_POINT ( 'NONE',  ( -8.122351091509310450, 40.00000000000000000, -30.74994020236018244 ) ) ;
#276 = CIRCLE ( 'NONE', #222, 0.9999999999999974465 ) ;
#277 = ORIENTED_EDGE ( 'NONE', *, *, #103, .T. ) ;
#278 = DIRECTION ( 'NONE',  ( 0.000000000000000000, 0.000000000000000000, 1.000000000000000000 ) ) ;
#279 = ADVANCED_FACE ( 'NONE', ( #102 ), #661, .F. ) ;
#280 = VERTEX_POINT ( 'NONE', #367 ) ;
#281 = AXIS2_PLACEMENT_3D ( 'NONE', #346, #784, #220 ) ;
#282 = DIRECTION ( 'NONE',  ( -0.000000000000000000, -1.000000000000000000, -0.000000000000000000 ) ) ;
#283 = AXIS2_PLACEMENT_3D ( 'NONE', #739, #306, #492 ) ;
#284 = VERTEX_POINT ( 'NONE', #616 ) ;
#285 = DIRECTION ( 'NONE',  ( 0.000000000000000000, 1.000000000000000000, -0.000000000000000000 ) ) ;
#286 = VERTEX_POINT ( 'NONE', #296 ) ;
#287 = CIRCLE ( 'NONE', #600, 1.000000000000004441 ) ;
#288 = CARTESIAN_POINT ( 'NONE',  ( -12.98002303790089762, 40.00000000000000000, -13.49911723157540244 ) ) ;
#289 = DIRECTION ( 'NONE',  ( 0.000000000000000000, -0.000000000000000000, -1.000000000000000000 ) ) ;
#290 = EDGE_LOOP ( 'NONE', ( #41, #90, #341, #60, #614, #307, #273, #93, #187, #421, #467, #277, #344, #25, #642, #656, #699, #449, #269, #493, #435, #633 ) ) ;
#291 = EDGE_CURVE ( 'NONE', #413, #280, #149, .T. ) ;
#292 = DIRECTION ( 'NONE',  ( -0.000000000000000000, -1.000000000000000000, -0.000000000000000000 ) ) ;
#293 = ORIENTED_EDGE ( 'NONE', *, *, #446, .T. ) ;
#294 = VECTOR ( 'NONE', #372, 1000.000000000000114 ) ;
#295 = EDGE_CURVE ( 'NONE', #659, #671, #89, .T. ) ;
#296 = CARTESIAN_POINT ( 'NONE',  ( 2.456189325203081086, 40.00000000000000000, -42.86049188591697146 ) ) ;
#297 = DIRECTION ( 'NONE',  ( -0.000000000000000000, -1.000000000000000000, -0.000000000000000000 ) ) ;
#298 = VERTEX_POINT ( 'NONE', #795 ) ;
#299 = DIRECTION ( 'NONE',  ( -0.000000000000000000, -1.000000000000000000, -0.000000000000000000 ) ) ;
#300 = DIRECTION ( 'NONE',  ( 0.000000000000000000, 0.000000000000000000, -1.000000000000000000 ) ) ;
#301 = CARTESIAN_POINT ( 'NONE',  ( -20.82045654473496299, 0.000000000000000000, -25.67988956871214512 ) ) ;
#302 = ORIENTED_EDGE ( 'NONE', *, *, #706, .T. ) ;
#303 = EDGE_CURVE ( 'NONE', #650, #659, #184, .T. ) ;
#304 = CARTESIAN_POINT ( 'NONE',  ( 16.88050540549514267, 40.00000000000000000, 2.252014340327556763 ) ) ;
#305 = LINE ( 'NONE', #110, #804 ) ;
#306 = DIRECTION ( 'NONE',  ( -0.000000000000000000, -1.000000000000000000, -0.000000000000000000 ) ) ;
#307 = ORIENTED_EDGE ( 'NONE', *, *, #654, .T. ) ;
#308 = VECTOR ( 'NONE', #299, 1000.000000000000000 ) ;
#309 = CARTESIAN_POINT ( 'NONE',  ( -10.65266284903450789, 40.00000000000000000, 3.150563708604048330 ) ) ;
#310 = VECTOR ( 'NONE', #237, 1000.000000000000114 ) ;
#311 = DIRECTION ( 'NONE',  ( -0.5892525090815973199, -0.000000000000000000, 0.8079489343646925059 ) ) ;
#312 = CARTESIAN_POINT ( 'NONE',  ( 12.72365249407905452, 0.000000000000000000, -29.77873824094907462 ) ) ;
#313 = ORIENTED_EDGE ( 'NONE', *, *, #418, .T. ) ;
#314 = FACE_OUTER_BOUND ( 'NONE', #721, .T. ) ;
#315 = AXIS2_PLACEMENT_3D ( 'NONE', #151, #27, #710 ) ;
#316 = CARTESIAN_POINT ( 'NONE',  ( 13.02425550299070878, 0.000000000000000000, -30.73248759535685792 ) ) ;
#317 = CARTESIAN_POINT ( 'NONE',  ( 26.21402538402269400, 40.00000000000000000, -24.10691786443332418 ) ) ;
#318 = ORIENTED_EDGE ( 'NONE', *, *, #295, .F. ) ;
#319 = DIRECTION ( 'NONE',  ( 0.000000000000000000, 0.000000000000000000, -1.000000000000000000 ) ) ;
#320 =( NAMED_UNIT ( * ) SI_UNIT ( $, .STERADIAN. ) SOLID_ANGLE_UNIT ( ) );
#321 = DIRECTION ( 'NONE',  ( 0.000000000000000000, 0.000000000000000000, 1.000000000000000000 ) ) ;
#322 = VECTOR ( 'NONE', #329, 999.9999999999998863 ) ;
#323 = EDGE_LOOP ( 'NONE', ( #198, #229, #523, #129 ) ) ;
#324 = ORIENTED_EDGE ( 'NONE', *, *, #525, .F. ) ;
#325 = CIRCLE ( 'NONE', #631, 1.000000000000000888 ) ;
#326 = CARTESIAN_POINT ( 'NONE',  ( 26.21402538402269400, 0.000000000000000000, -24.10691786443332418 ) ) ;
#327 = EDGE_LOOP ( 'NONE', ( #746, #393, #17, #463 ) ) ;
#328 = ADVANCED_FACE ( 'NONE', ( #729 ), #481, .T. ) ;
#329 = DIRECTION ( 'NONE',  ( 0.05257717327419449138, -0.000000000000000000, 0.9986168638925018159 ) ) ;
#330 = CARTESIAN_POINT ( 'NONE',  ( 15.56464784366138687, 40.00000000000000000, 3.149732331665634710 ) ) ;
#331 =( NAMED_UNIT ( * ) PLANE_ANGLE_UNIT ( ) SI_UNIT ( $, .RADIAN. ) );
#332 = PRODUCT_DEFINITION ( 'UNKNOWN', '', #673, #22 ) ;
#333 = AXIS2_PLACEMENT_3D ( 'NONE', #361, #686, #300 ) ;
#334 = DIRECTION ( 'NONE',  ( -0.000000000000000000, -1.000000000000000000, -0.000000000000000000 ) ) ;
#335 = ORIENTED_EDGE ( 'NONE', *, *, #291, .T. ) ;
#336 = ADVANCED_FACE ( 'NONE', ( #127 ), #68, .T. ) ;
#337 = DIRECTION ( 'NONE',  ( 0.000000000000000000, 0.000000000000000000, -1.000000000000000000 ) ) ;
#338 = VERTEX_POINT ( 'NONE', #542 ) ;
#339 = EDGE_CURVE ( 'NONE', #541, #509, #305, .T. ) ;
#340 = DIRECTION ( 'NONE',  ( 0.000000000000000000, -1.000000000000000000, 0.000000000000000000 ) ) ;
#341 = ORIENTED_EDGE ( 'NONE', *, *, #53, .T. ) ;
#342 = DIRECTION ( 'NONE',  ( -0.5892525090815973199, -0.000000000000000000, 0.8079489343646925059 ) ) ;
#343 = AXIS2_PLACEMENT_3D ( 'NONE', #172, #351, #52 ) ;
#344 = ORIENTED_EDGE ( 'NONE', *, *, #436, .T. ) ;
#345 = CARTESIAN_POINT ( 'NONE',  ( 12.72365249407905452, 40.00000000000000000, -29.77873824094907462 ) ) ;
#346 = CARTESIAN_POINT ( 'NONE',  ( 0.000000000000000000, 0.000000000000000000, 0.000000000000000000 ) ) ;
#347 = VERTEX_POINT ( 'NONE', #732 ) ;
#348 = AXIS2_PLACEMENT_3D ( 'NONE', #62, #561, #607 ) ;
#349 = CARTESIAN_POINT ( 'NONE',  ( -20.82045654473496299, 40.00000000000000000, -25.67988956871214512 ) ) ;
#350 = EDGE_CURVE ( 'NONE', #347, #723, #168, .T. ) ;
#351 = DIRECTION ( 'NONE',  ( -0.000000000000000000, -1.000000000000000000, 0.000000000000000000 ) ) ;
#352 = APPLICATION_PROTOCOL_DEFINITION ( 'draft international standard', 'automotive_design', 1998, #793 ) ;
#353 = ORIENTED_EDGE ( 'NONE', *, *, #295, .T. ) ;
#354 = CARTESIAN_POINT ( 'NONE',  ( -12.76813011579932144, 40.00000000000000000, -12.93438942397470726 ) ) ;
#355 = EDGE_CURVE ( 'NONE', #802, #286, #67, .T. ) ;
#356 = CARTESIAN_POINT ( 'NONE',  ( 12.72365249407905452, 40.00000000000000000, -29.77873824094907462 ) ) ;
#357 = DIRECTION ( 'NONE',  ( 0.000000000000000000, 0.000000000000000000, -1.000000000000000000 ) ) ;
#358 = ORIENTED_EDGE ( 'NONE', *, *, #798, .F. ) ;
#359 = CIRCLE ( 'NONE', #624, 1.000000000000004441 ) ;
#360 = FACE_OUTER_BOUND ( 'NONE', #646, .T. ) ;
#361 = CARTESIAN_POINT ( 'NONE',  ( 2.456189325203081086, 40.00000000000000000, -41.86049188591697146 ) ) ;
#362 = EDGE_CURVE ( 'NONE', #95, #413, #621, .T. ) ;
#363 = LINE ( 'NONE', #608, #245 ) ;
#364 = VERTEX_POINT ( 'NONE', #805 ) ;
#365 = CARTESIAN_POINT ( 'NONE',  ( 2.457235569371751360, 40.00000000000000000, -0.1790092095895692847 ) ) ;
#366 = UNCERTAINTY_MEASURE_WITH_UNIT (LENGTH_MEASURE( 1.000000000000000082E-05 ), #747, 'distance_accuracy_value', 'NONE');
#367 = CARTESIAN_POINT ( 'NONE',  ( -7.820456544734963877, 0.000000000000000000, -29.79659887700607968 ) ) ;
#368 = CARTESIAN_POINT ( 'NONE',  ( 2.456189325203081086, 40.00000000000000000, -42.86049188591697146 ) ) ;
#369 = ORIENTED_EDGE ( 'NONE', *, *, #586, .T. ) ;
#370 = DIRECTION ( 'NONE',  ( 0.000000000000000000, 0.000000000000000000, 1.000000000000000000 ) ) ;
#371 = DIRECTION ( 'NONE',  ( 0.000000000000000000, -1.000000000000000000, 0.000000000000000000 ) ) ;
#372 = DIRECTION ( 'NONE',  ( -0.9533413253540999888, -0.000000000000000000, 0.3018945467743461841 ) ) ;
#373 = ORIENTED_EDGE ( 'NONE', *, *, #388, .T. ) ;
#374 = STYLED_ITEM ( 'NONE', ( #83 ), #398 ) ;
#375 = LINE ( 'NONE', #248, #756 ) ;
#376 = ORIENTED_EDGE ( 'NONE', *, *, #501, .T. ) ;
#377 = DIRECTION ( 'NONE',  ( -0.8086742580238254208, 0.000000000000000000, 0.5882566994175378872 ) ) ;
#378 = ADVANCED_FACE ( 'NONE', ( #247 ), #174, .F. ) ;
#379 = AXIS2_PLACEMENT_3D ( 'NONE', #48, #675, #602 ) ;
#380 = CARTESIAN_POINT ( 'NONE',  ( -10.65266284903450789, 0.000000000000000000, 3.150563708604048330 ) ) ;
#381 = CARTESIAN_POINT ( 'NONE',  ( -7.314402157144617611, 40.00000000000000000, -30.16068769327858590 ) ) ;
#382 = DIRECTION ( 'NONE',  ( 0.3018945467743461286, -0.000000000000000000, 0.9533413253541000998 ) ) ;
#383 = EDGE_LOOP ( 'NONE', ( #104, #369, #353, #35 ) ) ;
#384 = DIRECTION ( 'NONE',  ( -0.9483781927698007319, 0.000000000000000000, -0.3171416142335888866 ) ) ;
#385 = VERTEX_POINT ( 'NONE', #188 ) ;
#386 = VECTOR ( 'NONE', #562, 1000.000000000000000 ) ;
#387 = CARTESIAN_POINT ( 'NONE',  ( 2.140093955138162585, 0.000000000000000000, -1.127387402359370627 ) ) ;
#388 = EDGE_CURVE ( 'NONE', #671, #413, #743, .T. ) ;
#389 = FACE_OUTER_BOUND ( 'NONE', #514, .T. ) ;
#390 = ORIENTED_EDGE ( 'NONE', *, *, #103, .F. ) ;
#391 = AXIS2_PLACEMENT_3D ( 'NONE', #788, #155, #400 ) ;
#392 = DIRECTION ( 'NONE',  ( -0.000000000000000000, -1.000000000000000000, -0.000000000000000000 ) ) ;
#393 = ORIENTED_EDGE ( 'NONE', *, *, #681, .F. ) ;
#394 = ADVANCED_FACE ( 'NONE', ( #185 ), #118, .T. ) ;
#395 = CARTESIAN_POINT ( 'NONE',  ( -21.30528593975154550, 40.00000000000000000, -24.10924326248314387 ) ) ;
#396 = ORIENTED_EDGE ( 'NONE', *, *, #451, .T. ) ;
#397 = ADVANCED_FACE ( 'NONE', ( #800 ), #240, .T. ) ;
#398 = MANIFOLD_SOLID_BREP ( 'Boss-Extrude2', #511 ) ;
#399 = AXIS2_PLACEMENT_3D ( 'NONE', #547, #63, #482 ) ;
#400 = DIRECTION ( 'NONE',  ( 0.000000000000000000, 0.000000000000000000, -1.000000000000000000 ) ) ;
#401 = ORIENTED_EDGE ( 'NONE', *, *, #647, .F. ) ;
#402 = EDGE_CURVE ( 'NONE', #139, #76, #494, .T. ) ;
#403 = PRODUCT ( 'Star_2', 'Star_2', '', ( #37 ) ) ;
#404 = CARTESIAN_POINT ( 'NONE',  ( 2.457235569371751360, 0.000000000000000000, -1.179009209589569673 ) ) ;
#405 = EDGE_LOOP ( 'NONE', ( #159, #150, #692, #470 ) ) ;
#406 = DIRECTION ( 'NONE',  ( 0.9986168638925018159, 0.000000000000000000, -0.05257717327419449832 ) ) ;
#407 = EDGE_LOOP ( 'NONE', ( #618, #459, #563, #774 ) ) ;
#408 = CARTESIAN_POINT ( 'NONE',  ( 25.42861347107336911, 40.00000000000000000, -24.72589131054978395 ) ) ;
#409 = AXIS2_PLACEMENT_3D ( 'NONE', #430, #115, #733 ) ;
#410 = EDGE_CURVE ( 'NONE', #364, #802, #761, .T. ) ;
#411 = VERTEX_POINT ( 'NONE', #387 ) ;
#412 = LINE ( 'NONE', #664, #579 ) ;
#413 = VERTEX_POINT ( 'NONE', #443 ) ;
#414 = CIRCLE ( 'NONE', #75, 1.000000000000000444 ) ;
#415 = DIRECTION ( 'NONE',  ( 0.000000000000000000, 0.000000000000000000, 1.000000000000000000 ) ) ;
#416 = CARTESIAN_POINT ( 'NONE',  ( -12.98002303790089762, 0.000000000000000000, -13.49911723157540244 ) ) ;
#417 = ORIENTED_EDGE ( 'NONE', *, *, #224, .F. ) ;
#418 = EDGE_CURVE ( 'NONE', #166, #671, #506, .T. ) ;
#419 = DIRECTION ( 'NONE',  ( 0.9537493544077808583, 0.000000000000000000, 0.3006030089116561443 ) ) ;
#420 = DIRECTION ( 'NONE',  ( 0.6173049808748914957, -0.000000000000000000, 0.7867239417909245303 ) ) ;
#421 = ORIENTED_EDGE ( 'NONE', *, *, #350, .T. ) ;
#422 = VECTOR ( 'NONE', #141, 1000.000000000000114 ) ;
#423 = CARTESIAN_POINT ( 'NONE',  ( 12.21558124496688258, 0.000000000000000000, -30.14423089593931948 ) ) ;
#424 = SURFACE_STYLE_FILL_AREA ( #433 ) ;
#425 = DIRECTION ( 'NONE',  ( 0.000000000000000000, 1.000000000000000000, -0.000000000000000000 ) ) ;
#426 = ORIENTED_EDGE ( 'NONE', *, *, #388, .F. ) ;
#427 = DIRECTION ( 'NONE',  ( 0.000000000000000000, 0.000000000000000000, -1.000000000000000000 ) ) ;
#428 = AXIS2_PLACEMENT_3D ( 'NONE', #219, #406, #658 ) ;
#429 = CARTESIAN_POINT ( 'NONE',  ( 2.456189325203081086, 0.000000000000000000, -41.86049188591697146 ) ) ;
#430 = CARTESIAN_POINT ( 'NONE',  ( 15.88178945789497298, 0.000000000000000000, 2.201354138895833756 ) ) ;
#431 = EDGE_LOOP ( 'NONE', ( #781, #789, #390, #535 ) ) ;
#432 = DIRECTION ( 'NONE',  ( -0.000000000000000000, -1.000000000000000000, -0.000000000000000000 ) ) ;
#433 = FILL_AREA_STYLE ('',( #748 ) ) ;
#434 = DIRECTION ( 'NONE',  ( -0.000000000000000000, -1.000000000000000000, -0.000000000000000000 ) ) ;
#435 = ORIENTED_EDGE ( 'NONE', *, *, #9, .T. ) ;
#436 = EDGE_CURVE ( 'NONE', #711, #139, #268, .T. ) ;
#437 = DIRECTION ( 'NONE',  ( -0.5882566994175378872, -0.000000000000000000, -0.8086742580238254208 ) ) ;
#438 = VECTOR ( 'NONE', #571, 1000.000000000000114 ) ;
#439 = LINE ( 'NONE', #697, #643 ) ;
#440 = CARTESIAN_POINT ( 'NONE',  ( 25.42861347107336911, 40.00000000000000000, -24.72589131054978395 ) ) ;
#441 = ORIENTED_EDGE ( 'NONE', *, *, #339, .F. ) ;
#442 = EDGE_CURVE ( 'NONE', #254, #385, #644, .T. ) ;
#443 = CARTESIAN_POINT ( 'NONE',  ( -7.314402157144617611, 0.000000000000000000, -30.16068769327858590 ) ) ;
#444 = CARTESIAN_POINT ( 'NONE',  ( -20.51856199796061730, 40.00000000000000000, -24.72654824335803880 ) ) ;
#445 = ORIENTED_EDGE ( 'NONE', *, *, #757, .F. ) ;
#446 = EDGE_CURVE ( 'NONE', #684, #298, #79, .T. ) ;
#447 = CARTESIAN_POINT ( 'NONE',  ( 17.65133412729500506, 40.00000000000000000, -12.94411428871712921 ) ) ;
#448 = CARTESIAN_POINT ( 'NONE',  ( 17.65133412729500506, 40.00000000000000000, -12.94411428871712921 ) ) ;
#449 = ORIENTED_EDGE ( 'NONE', *, *, #161, .T. ) ;
#450 = CARTESIAN_POINT ( 'NONE',  ( 2.140093955138162585, 0.000000000000000000, -1.127387402359370405 ) ) ;
#451 = EDGE_CURVE ( 'NONE', #497, #411, #263, .T. ) ;
#452 = CARTESIAN_POINT ( 'NONE',  ( -7.314402157144617611, 40.00000000000000000, -30.16068769327858590 ) ) ;
#453 = EDGE_CURVE ( 'NONE', #711, #338, #91, .T. ) ;
#454 = ORIENTED_EDGE ( 'NONE', *, *, #510, .T. ) ;
#455 = VECTOR ( 'NONE', #766, 1000.000000000000000 ) ;
#456 = LINE ( 'NONE', #148, #565 ) ;
#457 = ORIENTED_EDGE ( 'NONE', *, *, #700, .F. ) ;
#458 = DIRECTION ( 'NONE',  ( 0.000000000000000000, 0.000000000000000000, -1.000000000000000000 ) ) ;
#459 = ORIENTED_EDGE ( 'NONE', *, *, #764, .F. ) ;
#460 = AXIS2_PLACEMENT_3D ( 'NONE', #698, #377, #255 ) ;
#461 = VECTOR ( 'NONE', #420, 999.9999999999998863 ) ;
#462 = CARTESIAN_POINT ( 'NONE',  ( 2.140093955138162585, 40.00000000000000000, -1.127387402359370405 ) ) ;
#463 = ORIENTED_EDGE ( 'NONE', *, *, #777, .T. ) ;
#464 = CARTESIAN_POINT ( 'NONE',  ( 17.86463816194584453, 40.00000000000000000, -13.51242753340186376 ) ) ;
#465 = CARTESIAN_POINT ( 'NONE',  ( 2.457235569371751360, 0.000000000000000000, -0.1790092095895692847 ) ) ;
#466 = CIRCLE ( 'NONE', #44, 1.000000000000001332 ) ;
#467 = ORIENTED_EDGE ( 'NONE', *, *, #619, .T. ) ;
#468 = EDGE_CURVE ( 'NONE', #688, #49, #640, .T. ) ;
#469 = CYLINDRICAL_SURFACE ( 'NONE', #524, 1.000000000000004441 ) ;
#470 = ORIENTED_EDGE ( 'NONE', *, *, #530, .T. ) ;
#471 = DIRECTION ( 'NONE',  ( -0.000000000000000000, -1.000000000000000000, -0.000000000000000000 ) ) ;
#472 = EDGE_CURVE ( 'NONE', #730, #497, #135, .T. ) ;
#473 = FACE_OUTER_BOUND ( 'NONE', #290, .T. ) ;
#474 = VECTOR ( 'NONE', #200, 1000.000000000000000 ) ;
#475 = VERTEX_POINT ( 'NONE', #759 ) ;
#476 = DIRECTION ( 'NONE',  ( 0.000000000000000000, 0.000000000000000000, 1.000000000000000000 ) ) ;
#477 = ORIENTED_EDGE ( 'NONE', *, *, #619, .F. ) ;
#478 = EDGE_CURVE ( 'NONE', #298, #497, #262, .T. ) ;
#479 = CIRCLE ( 'NONE', #315, 1.000000000000001332 ) ;
#480 = DIRECTION ( 'NONE',  ( -0.9533413253540999888, -0.000000000000000000, 0.3018945467743461841 ) ) ;
#481 = CYLINDRICAL_SURFACE ( 'NONE', #737, 1.000000000000001110 ) ;
#482 = DIRECTION ( 'NONE',  ( 0.000000000000000000, 0.000000000000000000, -1.000000000000000000 ) ) ;
#483 = ORIENTED_EDGE ( 'NONE', *, *, #442, .F. ) ;
#484 = DIRECTION ( 'NONE',  ( -0.000000000000000000, -1.000000000000000000, -0.000000000000000000 ) ) ;
#485 = VECTOR ( 'NONE', #471, 1000.000000000000000 ) ;
#486 = DIRECTION ( 'NONE',  ( -0.000000000000000000, -1.000000000000000000, -0.000000000000000000 ) ) ;
#487 = CYLINDRICAL_SURFACE ( 'NONE', #283, 1.000000000000000888 ) ;
#488 = ORIENTED_EDGE ( 'NONE', *, *, #764, .T. ) ;
#489 = VECTOR ( 'NONE', #790, 999.9999999999998863 ) ;
#490 = CYLINDRICAL_SURFACE ( 'NONE', #82, 1.000000000000000888 ) ;
#491 = DIRECTION ( 'NONE',  ( -0.3006030089116561443, 0.000000000000000000, 0.9537493544077808583 ) ) ;
#492 = DIRECTION ( 'NONE',  ( 0.000000000000000000, 0.000000000000000000, -1.000000000000000000 ) ) ;
#493 = ORIENTED_EDGE ( 'NONE', *, *, #355, .T. ) ;
#494 = LINE ( 'NONE', #512, #791 ) ;
#495 = EDGE_CURVE ( 'NONE', #6, #740, #96, .T. ) ;
#496 = LINE ( 'NONE', #622, #310 ) ;
#497 = VERTEX_POINT ( 'NONE', #380 ) ;
#498 = FACE_OUTER_BOUND ( 'NONE', #20, .T. ) ;
#499 = DIRECTION ( 'NONE',  ( 0.000000000000000000, 0.000000000000000000, -1.000000000000000000 ) ) ;
#500 = LINE ( 'NONE', #416, #39 ) ;
#501 = EDGE_CURVE ( 'NONE', #111, #648, #363, .T. ) ;
#502 = CYLINDRICAL_SURFACE ( 'NONE', #391, 1.000000000000001332 ) ;
#503 = LINE ( 'NONE', #195, #308 ) ;
#504 = VECTOR ( 'NONE', #627, 1000.000000000000114 ) ;
#505 = CIRCLE ( 'NONE', #94, 1.000000000000000888 ) ;
#506 = LINE ( 'NONE', #23, #474 ) ;
#507 = CARTESIAN_POINT ( 'NONE',  ( -13.76674697969182226, 40.00000000000000000, -12.88181225070050928 ) ) ;
#508 = APPLICATION_PROTOCOL_DEFINITION ( 'draft international standard', 'automotive_design', 1998, #235 ) ;
#509 = VERTEX_POINT ( 'NONE', #301 ) ;
#510 = EDGE_CURVE ( 'NONE', #338, #76, #496, .T. ) ;
#511 = CLOSED_SHELL ( 'NONE', ( #394, #752, #232, #731, #336, #695, #140, #271, #328, #279, #593, #21, #113, #85, #742, #632, #787, #378, #626, #715, #727, #30, #218, #397 ) ) ;
#512 = CARTESIAN_POINT ( 'NONE',  ( 17.65133412729500506, 40.00000000000000000, -12.94411428871712921 ) ) ;
#513 = CARTESIAN_POINT ( 'NONE',  ( 26.21402538402269400, 40.00000000000000000, -24.10691786443332418 ) ) ;
#514 = EDGE_LOOP ( 'NONE', ( #373, #221, #623, #313 ) ) ;
#515 = EDGE_CURVE ( 'NONE', #509, #648, #543, .T. ) ;
#516 = CARTESIAN_POINT ( 'NONE',  ( -10.65266284903450789, 40.00000000000000000, 3.150563708604048330 ) ) ;
#517 = DIRECTION ( 'NONE',  ( 0.000000000000000000, 0.000000000000000000, 1.000000000000000000 ) ) ;
#518 = ORIENTED_EDGE ( 'NONE', *, *, #446, .F. ) ;
#519 =( GEOMETRIC_REPRESENTATION_CONTEXT ( 3 ) GLOBAL_UNCERTAINTY_ASSIGNED_CONTEXT ( ( #366 ) ) GLOBAL_UNIT_ASSIGNED_CONTEXT ( ( #747, #331, #527 ) ) REPRESENTATION_CONTEXT ( 'NONE', 'WORKASPACE' ) );
#520 = VECTOR ( 'NONE', #556, 1000.000000000000000 ) ;
#521 = DIRECTION ( 'NONE',  ( 0.000000000000000000, 1.000000000000000000, 0.000000000000000000 ) ) ;
#522 = DIRECTION ( 'NONE',  ( -0.000000000000000000, -1.000000000000000000, -0.000000000000000000 ) ) ;
#523 = ORIENTED_EDGE ( 'NONE', *, *, #213, .F. ) ;
#524 = AXIS2_PLACEMENT_3D ( 'NONE', #275, #526, #215 ) ;
#525 = EDGE_CURVE ( 'NONE', #347, #116, #552, .T. ) ;
#526 = DIRECTION ( 'NONE',  ( -0.000000000000000000, -1.000000000000000000, -0.000000000000000000 ) ) ;
#527 =( NAMED_UNIT ( * ) SI_UNIT ( $, .STERADIAN. ) SOLID_ANGLE_UNIT ( ) );
#528 = ORIENTED_EDGE ( 'NONE', *, *, #501, .F. ) ;
#529 = DIRECTION ( 'NONE',  ( 0.000000000000000000, 0.000000000000000000, -1.000000000000000000 ) ) ;
#530 = EDGE_CURVE ( 'NONE', #604, #6, #69, .T. ) ;
#531 = ORIENTED_EDGE ( 'NONE', *, *, #303, .F. ) ;
#532 = AXIS2_PLACEMENT_3D ( 'NONE', #741, #382, #554 ) ;
#533 = AXIS2_PLACEMENT_3D ( 'NONE', #765, #521, #769 ) ;
#534 = FACE_OUTER_BOUND ( 'NONE', #238, .T. ) ;
#535 = ORIENTED_EDGE ( 'NONE', *, *, #663, .T. ) ;
#536 = EDGE_CURVE ( 'NONE', #385, #338, #29, .T. ) ;
#537 = CARTESIAN_POINT ( 'NONE',  ( 1.648240390838388914, 40.00000000000000000, -42.44974439499857510 ) ) ;
#538 = AXIS2_PLACEMENT_3D ( 'NONE', #429, #611, #415 ) ;
#539 = ORIENTED_EDGE ( 'NONE', *, *, #402, .T. ) ;
#540 = CARTESIAN_POINT ( 'NONE',  ( -12.98002303790089762, 40.00000000000000000, -13.49911723157540244 ) ) ;
#541 = VERTEX_POINT ( 'NONE', #754 ) ;
#542 = CARTESIAN_POINT ( 'NONE',  ( 16.88050540549514267, 0.000000000000000000, 2.252014340327556763 ) ) ;
#543 = CIRCLE ( 'NONE', #105, 1.000000000000004441 ) ;
#544 = ORIENTED_EDGE ( 'NONE', *, *, #548, .F. ) ;
#545 = EDGE_CURVE ( 'NONE', #284, #6, #10, .T. ) ;
#546 = DIRECTION ( 'NONE',  ( 0.000000000000000000, 1.000000000000000000, 0.000000000000000000 ) ) ;
#547 = CARTESIAN_POINT ( 'NONE',  ( 2.457235569371751360, 40.00000000000000000, -0.1790092095895692847 ) ) ;
#548 = EDGE_CURVE ( 'NONE', #95, #70, #359, .T. ) ;
#549 = EDGE_LOOP ( 'NONE', ( #55, #441, #717, #557 ) ) ;
#550 = DIRECTION ( 'NONE',  ( 0.000000000000000000, 0.000000000000000000, -1.000000000000000000 ) ) ;
#551 = CARTESIAN_POINT ( 'NONE',  ( -7.314402157144617611, 0.000000000000000000, -30.16068769327858590 ) ) ;
#552 = LINE ( 'NONE', #677, #768 ) ;
#553 = EDGE_LOOP ( 'NONE', ( #653, #426, #318, #531, #638, #249, #662, #417, #629, #81, #594, #107, #483, #182, #445, #201, #635, #518, #457, #401, #645, #157 ) ) ;
#554 = DIRECTION ( 'NONE',  ( 0.9533413253541000998, 0.000000000000000000, -0.3018945467743461286 ) ) ;
#555 = DIRECTION ( 'NONE',  ( -0.000000000000000000, -1.000000000000000000, -0.000000000000000000 ) ) ;
#556 = DIRECTION ( 'NONE',  ( -0.000000000000000000, -1.000000000000000000, -0.000000000000000000 ) ) ;
#557 = ORIENTED_EDGE ( 'NONE', *, *, #798, .T. ) ;
#558 = VECTOR ( 'NONE', #13, 1000.000000000000227 ) ;
#559 = CARTESIAN_POINT ( 'NONE',  ( 2.456189325203081086, 40.00000000000000000, -41.86049188591697146 ) ) ;
#560 = EDGE_CURVE ( 'NONE', #280, #509, #132, .T. ) ;
#561 = DIRECTION ( 'NONE',  ( -0.000000000000000000, -1.000000000000000000, 0.000000000000000000 ) ) ;
#562 = DIRECTION ( 'NONE',  ( -0.9537493544077808583, -0.000000000000000000, -0.3006030089116560888 ) ) ;
#563 = ORIENTED_EDGE ( 'NONE', *, *, #153, .F. ) ;
#564 = PLANE ( 'NONE',  #532 ) ;
#565 = VECTOR ( 'NONE', #392, 1000.000000000000000 ) ;
#566 = EDGE_CURVE ( 'NONE', #125, #298, #181, .T. ) ;
#567 =( NAMED_UNIT ( * ) PLANE_ANGLE_UNIT ( ) SI_UNIT ( $, .RADIAN. ) );
#568 = DIRECTION ( 'NONE',  ( -0.7854119129493247753, 0.000000000000000000, -0.6189734461164569934 ) ) ;
#569 = DIRECTION ( 'NONE',  ( 0.5892525090815973199, 0.000000000000000000, -0.8079489343646925059 ) ) ;
#570 = CARTESIAN_POINT ( 'NONE',  ( 2.457235569371751360, 0.000000000000000000, -0.1790092095895692847 ) ) ;
#571 = DIRECTION ( 'NONE',  ( 0.05066020143172296486, -0.000000000000000000, -0.9987159476001657987 ) ) ;
#572 = AXIS2_PLACEMENT_3D ( 'NONE', #56, #778, #217 ) ;
#573 = EDGE_CURVE ( 'NONE', #763, #411, #375, .T. ) ;
#574 = FACE_OUTER_BOUND ( 'NONE', #582, .T. ) ;
#575 = PRESENTATION_LAYER_ASSIGNMENT (  '', '', ( #374 ) ) ;
#576 = CARTESIAN_POINT ( 'NONE',  ( 17.65133412729500506, 0.000000000000000000, -12.94411428871712921 ) ) ;
#577 = PRODUCT_DEFINITION_SHAPE ( 'NONE', 'NONE',  #332 ) ;
#578 = ORIENTED_EDGE ( 'NONE', *, *, #757, .T. ) ;
#579 = VECTOR ( 'NONE', #342, 999.9999999999998863 ) ;
#580 =( LENGTH_UNIT ( ) NAMED_UNIT ( * ) SI_UNIT ( .MILLI., .METRE. ) );
#581 = DIRECTION ( 'NONE',  ( -0.000000000000000000, -1.000000000000000000, -0.000000000000000000 ) ) ;
#582 = EDGE_LOOP ( 'NONE', ( #199, #601, #477, #194 ) ) ;
#583 = CARTESIAN_POINT ( 'NONE',  ( 16.88050540549514267, 40.00000000000000000, 2.252014340327556763 ) ) ;
#584 = ORIENTED_EDGE ( 'NONE', *, *, #566, .F. ) ;
#585 = VERTEX_POINT ( 'NONE', #682 ) ;
#586 = EDGE_CURVE ( 'NONE', #286, #659, #801, .T. ) ;
#587 = CYLINDRICAL_SURFACE ( 'NONE', #613, 1.000000000000000888 ) ;
#588 = ORIENTED_EDGE ( 'NONE', *, *, #196, .F. ) ;
#589 = VECTOR ( 'NONE', #162, 1000.000000000000000 ) ;
#590 = CARTESIAN_POINT ( 'NONE',  ( 2.457235569371751360, 40.00000000000000000, -0.1790092095895692847 ) ) ;
#591 = ORIENTED_EDGE ( 'NONE', *, *, #573, .F. ) ;
#592 = DIRECTION ( 'NONE',  ( 0.000000000000000000, 1.000000000000000000, -0.000000000000000000 ) ) ;
#593 = ADVANCED_FACE ( 'NONE', ( #124 ), #128, .F. ) ;
#594 = ORIENTED_EDGE ( 'NONE', *, *, #510, .F. ) ;
#595 = VECTOR ( 'NONE', #480, 1000.000000000000114 ) ;
#596 = CARTESIAN_POINT ( 'NONE',  ( 26.21402538402269400, 0.000000000000000000, -24.10691786443332418 ) ) ;
#597 = EDGE_LOOP ( 'NONE', ( #396, #591, #734, #46 ) ) ;
#598 = LINE ( 'NONE', #349, #595 ) ;
#599 = PLANE ( 'NONE',  #210 ) ;
#600 = AXIS2_PLACEMENT_3D ( 'NONE', #444, #701, #18 ) ;
#601 = ORIENTED_EDGE ( 'NONE', *, *, #663, .F. ) ;
#602 = DIRECTION ( 'NONE',  ( -0.9483781927698007319, 0.000000000000000000, 0.3171416142335888866 ) ) ;
#603 = SHAPE_DEFINITION_REPRESENTATION ( #577, #109 ) ;
#604 = VERTEX_POINT ( 'NONE', #175 ) ;
#605 = AXIS2_PLACEMENT_3D ( 'NONE', #440, #735, #550 ) ;
#606 = EDGE_CURVE ( 'NONE', #111, #270, #241, .T. ) ;
#607 = DIRECTION ( 'NONE',  ( 0.000000000000000000, 0.000000000000000000, -1.000000000000000000 ) ) ;
#608 = CARTESIAN_POINT ( 'NONE',  ( -21.30528593975154550, 40.00000000000000000, -24.10924326248314387 ) ) ;
#609 = ORIENTED_EDGE ( 'NONE', *, *, #525, .T. ) ;
#610 = DIRECTION ( 'NONE',  ( 0.7867239417909245303, 0.000000000000000000, -0.6173049808748913847 ) ) ;
#611 = DIRECTION ( 'NONE',  ( 0.000000000000000000, 1.000000000000000000, 0.000000000000000000 ) ) ;
#612 = DIRECTION ( 'NONE',  ( -0.000000000000000000, -1.000000000000000000, -0.000000000000000000 ) ) ;
#613 = AXIS2_PLACEMENT_3D ( 'NONE', #34, #334, #98 ) ;
#614 = ORIENTED_EDGE ( 'NONE', *, *, #72, .T. ) ;
#615 = FACE_OUTER_BOUND ( 'NONE', #407, .T. ) ;
#616 = CARTESIAN_POINT ( 'NONE',  ( 25.72921647998502692, 0.000000000000000000, -25.67964066495756015 ) ) ;
#617 = DIRECTION ( 'NONE',  ( -0.000000000000000000, -1.000000000000000000, 0.000000000000000000 ) ) ;
#618 = ORIENTED_EDGE ( 'NONE', *, *, #224, .T. ) ;
#619 = EDGE_CURVE ( 'NONE', #723, #702, #796, .T. ) ;
#620 = CYLINDRICAL_SURFACE ( 'NONE', #605, 0.9999999999999974465 ) ;
#621 = LINE ( 'NONE', #252, #651 ) ;
#622 = CARTESIAN_POINT ( 'NONE',  ( 17.65133412729500506, 0.000000000000000000, -12.94411428871712921 ) ) ;
#623 = ORIENTED_EDGE ( 'NONE', *, *, #130, .F. ) ;
#624 = AXIS2_PLACEMENT_3D ( 'NONE', #4, #617, #357 ) ;
#625 = LINE ( 'NONE', #7, #154 ) ;
#626 = ADVANCED_FACE ( 'NONE', ( #1 ), #487, .F. ) ;
#627 = DIRECTION ( 'NONE',  ( -0.5882566994175378872, -0.000000000000000000, -0.8086742580238254208 ) ) ;
#628 = DIRECTION ( 'NONE',  ( 0.9483781927698007319, -0.000000000000000000, 0.3171416142335888866 ) ) ;
#629 = ORIENTED_EDGE ( 'NONE', *, *, #43, .F. ) ;
#630 = CYLINDRICAL_SURFACE ( 'NONE', #261, 1.000000000000000444 ) ;
#631 = AXIS2_PLACEMENT_3D ( 'NONE', #36, #282, #722 ) ;
#632 = ADVANCED_FACE ( 'NONE', ( #744 ), #186, .F. ) ;
#633 = ORIENTED_EDGE ( 'NONE', *, *, #130, .T. ) ;
#634 = CARTESIAN_POINT ( 'NONE',  ( 25.72921647998502692, 40.00000000000000000, -25.67964066495756015 ) ) ;
#635 = ORIENTED_EDGE ( 'NONE', *, *, #478, .F. ) ;
#636 = VECTOR ( 'NONE', #803, 1000.000000000000000 ) ;
#637 = CARTESIAN_POINT ( 'NONE',  ( -7.820456544734963877, 40.00000000000000000, -29.79659887700607968 ) ) ;
#638 = ORIENTED_EDGE ( 'NONE', *, *, #706, .F. ) ;
#639 = AXIS2_PLACEMENT_3D ( 'NONE', #317, #568, #257 ) ;
#640 = LINE ( 'NONE', #73, #422 ) ;
#641 = LINE ( 'NONE', #513, #455 ) ;
#642 = ORIENTED_EDGE ( 'NONE', *, *, #468, .T. ) ;
#643 = VECTOR ( 'NONE', #581, 1000.000000000000000 ) ;
#644 = LINE ( 'NONE', #690, #558 ) ;
#645 = ORIENTED_EDGE ( 'NONE', *, *, #515, .F. ) ;
#646 = EDGE_LOOP ( 'NONE', ( #211, #678, #728, #376 ) ) ;
#647 = EDGE_CURVE ( 'NONE', #648, #142, #500, .T. ) ;
#648 = VERTEX_POINT ( 'NONE', #672 ) ;
#649 = VECTOR ( 'NONE', #799, 1000.000000000000000 ) ;
#650 = VERTEX_POINT ( 'NONE', #667 ) ;
#651 = VECTOR ( 'NONE', #555, 1000.000000000000000 ) ;
#652 = CARTESIAN_POINT ( 'NONE',  ( -11.96842132716060014, 40.00000000000000000, 2.254762689108441354 ) ) ;
#653 = ORIENTED_EDGE ( 'NONE', *, *, #291, .F. ) ;
#654 = EDGE_CURVE ( 'NONE', #585, #125, #657, .T. ) ;
#655 = CARTESIAN_POINT ( 'NONE',  ( -10.96980446326809755, 40.00000000000000000, 2.202185515834246932 ) ) ;
#656 = ORIENTED_EDGE ( 'NONE', *, *, #153, .T. ) ;
#657 = LINE ( 'NONE', #234, #489 ) ;
#658 = DIRECTION ( 'NONE',  ( -0.05257717327419449832, 0.000000000000000000, -0.9986168638925018159 ) ) ;
#659 = VERTEX_POINT ( 'NONE', #718 ) ;
#660 = CARTESIAN_POINT ( 'NONE',  ( 15.56464784366138687, 40.00000000000000000, 3.149732331665636931 ) ) ;
#661 = PLANE ( 'NONE',  #379 ) ;
#662 = ORIENTED_EDGE ( 'NONE', *, *, #545, .F. ) ;
#663 = EDGE_CURVE ( 'NONE', #702, #385, #223, .T. ) ;
#664 = CARTESIAN_POINT ( 'NONE',  ( -7.314402157144617611, 40.00000000000000000, -30.16068769327858590 ) ) ;
#665 = CIRCLE ( 'NONE', #251, 1.000000000000000888 ) ;
#666 = EDGE_LOOP ( 'NONE', ( #202, #528, #173, #214 ) ) ;
#667 = CARTESIAN_POINT ( 'NONE',  ( 3.264863583226907728, 0.000000000000000000, -42.44874858533451345 ) ) ;
#668 = EDGE_CURVE ( 'NONE', #70, #541, #598, .T. ) ;
#669 = DIRECTION ( 'NONE',  ( 0.000000000000000000, 1.000000000000000000, 0.000000000000000000 ) ) ;
#670 = DIRECTION ( 'NONE',  ( 0.6173049808748914957, -0.000000000000000000, 0.7867239417909245303 ) ) ;
#671 = VERTEX_POINT ( 'NONE', #786 ) ;
#672 = CARTESIAN_POINT ( 'NONE',  ( -21.30528593975154550, 0.000000000000000000, -24.10924326248314387 ) ) ;
#673 = PRODUCT_DEFINITION_FORMATION_WITH_SPECIFIED_SOURCE ( 'ANY', '', #403, .NOT_KNOWN. ) ;
#674 = MECHANICAL_DESIGN_GEOMETRIC_PRESENTATION_REPRESENTATION (  '', ( #374 ), #51 ) ;
#675 = DIRECTION ( 'NONE',  ( -0.3171416142335889421, 0.000000000000000000, -0.9483781927698008429 ) ) ;
#676 = AXIS2_PLACEMENT_3D ( 'NONE', #288, #610, #167 ) ;
#677 = CARTESIAN_POINT ( 'NONE',  ( 2.457235569371751360, 40.00000000000000000, -1.179009209589569673 ) ) ;
#678 = ORIENTED_EDGE ( 'NONE', *, *, #777, .F. ) ;
#679 = UNCERTAINTY_MEASURE_WITH_UNIT (LENGTH_MEASURE( 1.000000000000000082E-05 ), #580, 'distance_accuracy_value', 'NONE');
#680 = CARTESIAN_POINT ( 'NONE',  ( 2.456189325203081086, 0.000000000000000000, -41.86049188591697146 ) ) ;
#681 = EDGE_CURVE ( 'NONE', #585, #684, #227, .T. ) ;
#682 = CARTESIAN_POINT ( 'NONE',  ( -12.76813011579932144, 40.00000000000000000, -12.93438942397470726 ) ) ;
#683 = VECTOR ( 'NONE', #726, 1000.000000000000227 ) ;
#684 = VERTEX_POINT ( 'NONE', #724 ) ;
#685 = DIRECTION ( 'NONE',  ( 0.000000000000000000, 0.000000000000000000, -1.000000000000000000 ) ) ;
#686 = DIRECTION ( 'NONE',  ( -0.000000000000000000, -1.000000000000000000, -0.000000000000000000 ) ) ;
#687 = CARTESIAN_POINT ( 'NONE',  ( 12.72365249407905452, 40.00000000000000000, -29.77873824094907462 ) ) ;
#688 = VERTEX_POINT ( 'NONE', #464 ) ;
#689 = DIRECTION ( 'NONE',  ( -0.000000000000000000, -1.000000000000000000, -0.000000000000000000 ) ) ;
#690 = CARTESIAN_POINT ( 'NONE',  ( 15.56464784366138687, 0.000000000000000000, 3.149732331665634710 ) ) ;
#691 = DIRECTION ( 'NONE',  ( 0.000000000000000000, 0.000000000000000000, -1.000000000000000000 ) ) ;
#692 = ORIENTED_EDGE ( 'NONE', *, *, #161, .F. ) ;
#693 = AXIS2_PLACEMENT_3D ( 'NONE', #738, #371, #180 ) ;
#694 = CARTESIAN_POINT ( 'NONE',  ( 18.65005007489517297, 40.00000000000000000, -12.89345408728540754 ) ) ;
#695 = ADVANCED_FACE ( 'NONE', ( #360 ), #42, .F. ) ;
#696 = DIRECTION ( 'NONE',  ( -0.000000000000000000, -1.000000000000000000, -0.000000000000000000 ) ) ;
#697 = CARTESIAN_POINT ( 'NONE',  ( 2.774377183605340136, 40.00000000000000000, -1.127387402359370849 ) ) ;
#698 = CARTESIAN_POINT ( 'NONE',  ( 3.264863583226906840, 40.00000000000000000, -42.44874858533451345 ) ) ;
#699 = ORIENTED_EDGE ( 'NONE', *, *, #196, .T. ) ;
#700 = EDGE_CURVE ( 'NONE', #142, #684, #243, .T. ) ;
#701 = DIRECTION ( 'NONE',  ( 0.000000000000000000, 1.000000000000000000, -0.000000000000000000 ) ) ;
#702 = VERTEX_POINT ( 'NONE', #126 ) ;
#703 = DIRECTION ( 'NONE',  ( -0.05066020143172296486, 0.000000000000000000, 0.9987159476001657987 ) ) ;
#704 = ORIENTED_EDGE ( 'NONE', *, *, #654, .F. ) ;
#705 = VECTOR ( 'NONE', #628, 1000.000000000000227 ) ;
#706 = EDGE_CURVE ( 'NONE', #740, #650, #625, .T. ) ;
#707 = CARTESIAN_POINT ( 'NONE',  ( 26.21402538402269400, 40.00000000000000000, -24.10691786443332418 ) ) ;
#708 = ORIENTED_EDGE ( 'NONE', *, *, #773, .T. ) ;
#709 = AXIS2_PLACEMENT_3D ( 'NONE', #408, #285, #337 ) ;
#710 = DIRECTION ( 'NONE',  ( 0.000000000000000000, 0.000000000000000000, 1.000000000000000000 ) ) ;
#711 = VERTEX_POINT ( 'NONE', #304 ) ;
#712 = CARTESIAN_POINT ( 'NONE',  ( 25.42861347107336911, 0.000000000000000000, -24.72589131054978395 ) ) ;
#713 = EDGE_LOOP ( 'NONE', ( #163, #133, #588, #488 ) ) ;
#714 = VECTOR ( 'NONE', #311, 999.9999999999998863 ) ;
#715 = ADVANCED_FACE ( 'NONE', ( #71 ), #134, .F. ) ;
#716 = DIRECTION ( 'NONE',  ( -0.000000000000000000, -1.000000000000000000, 0.000000000000000000 ) ) ;
#717 = ORIENTED_EDGE ( 'NONE', *, *, #668, .F. ) ;
#718 = CARTESIAN_POINT ( 'NONE',  ( 2.456189325203081086, 0.000000000000000000, -42.86049188591697146 ) ) ;
#719 = CIRCLE ( 'NONE', #19, 1.000000000000000444 ) ;
#720 = DIRECTION ( 'NONE',  ( -0.000000000000000000, -1.000000000000000000, 0.000000000000000000 ) ) ;
#721 = EDGE_LOOP ( 'NONE', ( #80, #609, #771, #750 ) ) ;
#722 = DIRECTION ( 'NONE',  ( 0.000000000000000000, 0.000000000000000000, 1.000000000000000000 ) ) ;
#723 = VERTEX_POINT ( 'NONE', #61 ) ;
#724 = CARTESIAN_POINT ( 'NONE',  ( -12.76813011579932144, 0.000000000000000000, -12.93438942397470726 ) ) ;
#725 = AXIS2_PLACEMENT_3D ( 'NONE', #58, #546, #476 ) ;
#726 = DIRECTION ( 'NONE',  ( 0.9483781927698007319, -0.000000000000000000, -0.3171416142335888866 ) ) ;
#727 = ADVANCED_FACE ( 'NONE', ( #178 ), #490, .T. ) ;
#728 = ORIENTED_EDGE ( 'NONE', *, *, #606, .F. ) ;
#729 = FACE_OUTER_BOUND ( 'NONE', #323, .T. ) ;
#730 = VERTEX_POINT ( 'NONE', #309 ) ;
#731 = ADVANCED_FACE ( 'NONE', ( #121 ), #564, .F. ) ;
#732 = CARTESIAN_POINT ( 'NONE',  ( 2.457235569371751360, 40.00000000000000000, -1.179009209589569673 ) ) ;
#733 = DIRECTION ( 'NONE',  ( 0.000000000000000000, 0.000000000000000000, 1.000000000000000000 ) ) ;
#734 = ORIENTED_EDGE ( 'NONE', *, *, #246, .F. ) ;
#735 = DIRECTION ( 'NONE',  ( -0.000000000000000000, -1.000000000000000000, -0.000000000000000000 ) ) ;
#736 = EDGE_CURVE ( 'NONE', #802, #650, #192, .T. ) ;
#737 = AXIS2_PLACEMENT_3D ( 'NONE', #123, #292, #3 ) ;
#738 = CARTESIAN_POINT ( 'NONE',  ( -8.122351091509310450, 0.000000000000000000, -30.74994020236018244 ) ) ;
#739 = CARTESIAN_POINT ( 'NONE',  ( 13.02425550299070878, 40.00000000000000000, -30.73248759535685792 ) ) ;
#740 = VERTEX_POINT ( 'NONE', #423 ) ;
#741 = CARTESIAN_POINT ( 'NONE',  ( -20.82045654473496299, 40.00000000000000000, -25.67988956871214512 ) ) ;
#742 = ADVANCED_FACE ( 'NONE', ( #498 ), #751, .F. ) ;
#743 = LINE ( 'NONE', #551, #714 ) ;
#744 = FACE_OUTER_BOUND ( 'NONE', #64, .T. ) ;
#745 = VECTOR ( 'NONE', #522, 1000.000000000000000 ) ;
#746 = ORIENTED_EDGE ( 'NONE', *, *, #700, .T. ) ;
#747 =( LENGTH_UNIT ( ) NAMED_UNIT ( * ) SI_UNIT ( .MILLI., .METRE. ) );
#748 = FILL_AREA_STYLE_COLOUR ( '', #272 ) ;
#749 = CARTESIAN_POINT ( 'NONE',  ( -12.98002303790089762, 40.00000000000000000, -13.49911723157540244 ) ) ;
#750 = ORIENTED_EDGE ( 'NONE', *, *, #15, .F. ) ;
#751 = CYLINDRICAL_SURFACE ( 'NONE', #177, 1.000000000000000888 ) ;
#752 = ADVANCED_FACE ( 'NONE', ( #314 ), #630, .F. ) ;
#753 = CARTESIAN_POINT ( 'NONE',  ( 3.264863583226906840, 40.00000000000000000, -42.44874858533451345 ) ) ;
#754 = CARTESIAN_POINT ( 'NONE',  ( -20.82045654473496299, 40.00000000000000000, -25.67988956871214512 ) ) ;
#755 = CARTESIAN_POINT ( 'NONE',  ( 12.21558124496688258, 40.00000000000000000, -30.14423089593931948 ) ) ;
#756 = VECTOR ( 'NONE', #297, 1000.000000000000000 ) ;
#757 = EDGE_CURVE ( 'NONE', #411, #116, #66, .T. ) ;
#758 = DIRECTION ( 'NONE',  ( -0.000000000000000000, -1.000000000000000000, -0.000000000000000000 ) ) ;
#759 = CARTESIAN_POINT ( 'NONE',  ( 17.86463816194584453, 0.000000000000000000, -13.51242753340186376 ) ) ;
#760 = LINE ( 'NONE', #326, #122 ) ;
#761 = LINE ( 'NONE', #753, #504 ) ;
#762 = FACE_OUTER_BOUND ( 'NONE', #176, .T. ) ;
#763 = VERTEX_POINT ( 'NONE', #260 ) ;
#764 = EDGE_CURVE ( 'NONE', #206, #284, #239, .T. ) ;
#765 = CARTESIAN_POINT ( 'NONE',  ( -10.96980446326809755, 0.000000000000000000, 2.202185515834246932 ) ) ;
#766 = DIRECTION ( 'NONE',  ( -0.000000000000000000, -1.000000000000000000, -0.000000000000000000 ) ) ;
#767 = ORIENTED_EDGE ( 'NONE', *, *, #208, .F. ) ;
#768 = VECTOR ( 'NONE', #59, 1000.000000000000000 ) ;
#769 = DIRECTION ( 'NONE',  ( 0.000000000000000000, 0.000000000000000000, 1.000000000000000000 ) ) ;
#770 = DIRECTION ( 'NONE',  ( 0.3171416142335889421, 0.000000000000000000, -0.9483781927698008429 ) ) ;
#771 = ORIENTED_EDGE ( 'NONE', *, *, #190, .T. ) ;
#772 = DIRECTION ( 'NONE',  ( -0.000000000000000000, -1.000000000000000000, 0.000000000000000000 ) ) ;
#773 = EDGE_CURVE ( 'NONE', #76, #475, #505, .T. ) ;
#774 = ORIENTED_EDGE ( 'NONE', *, *, #78, .T. ) ;
#775 = DIRECTION ( 'NONE',  ( 0.000000000000000000, 0.000000000000000000, -1.000000000000000000 ) ) ;
#776 = ORIENTED_EDGE ( 'NONE', *, *, #410, .F. ) ;
#777 = EDGE_CURVE ( 'NONE', #270, #142, #503, .T. ) ;
#778 = DIRECTION ( 'NONE',  ( -0.000000000000000000, -1.000000000000000000, -0.000000000000000000 ) ) ;
#779 = VECTOR ( 'NONE', #696, 1000.000000000000000 ) ;
#780 = LINE ( 'NONE', #345, #589 ) ;
#781 = ORIENTED_EDGE ( 'NONE', *, *, #536, .T. ) ;
#782 = AXIS2_PLACEMENT_3D ( 'NONE', #330, #770, #384 ) ;
#783 = LINE ( 'NONE', #462, #683 ) ;
#784 = DIRECTION ( 'NONE',  ( 0.000000000000000000, 0.000000000000000000, 1.000000000000000000 ) ) ;
#785 = ORIENTED_EDGE ( 'NONE', *, *, #43, .T. ) ;
#786 = CARTESIAN_POINT ( 'NONE',  ( 1.648240390838388914, 0.000000000000000000, -42.44974439499857510 ) ) ;
#787 = ADVANCED_FACE ( 'NONE', ( #615 ), #620, .T. ) ;
#788 = CARTESIAN_POINT ( 'NONE',  ( 15.88178945789497298, 40.00000000000000000, 2.201354138895833756 ) ) ;
#789 = ORIENTED_EDGE ( 'NONE', *, *, #453, .F. ) ;
#790 = DIRECTION ( 'NONE',  ( 0.05257717327419449138, -0.000000000000000000, 0.9986168638925018159 ) ) ;
#791 = VECTOR ( 'NONE', #197, 1000.000000000000000 ) ;
#792 = DIRECTION ( 'NONE',  ( -0.000000000000000000, -1.000000000000000000, -0.000000000000000000 ) ) ;
#793 = APPLICATION_CONTEXT ( 'automotive_design' ) ;
#794 = ORIENTED_EDGE ( 'NONE', *, *, #436, .F. ) ;
#795 = CARTESIAN_POINT ( 'NONE',  ( -11.96842132716060014, 0.000000000000000000, 2.254762689108441354 ) ) ;
#796 = LINE ( 'NONE', #189, #705 ) ;
#797 = ORIENTED_EDGE ( 'NONE', *, *, #78, .F. ) ;
#798 = EDGE_CURVE ( 'NONE', #70, #280, #131, .T. ) ;
#799 = DIRECTION ( 'NONE',  ( -0.000000000000000000, -1.000000000000000000, -0.000000000000000000 ) ) ;
#800 = FACE_OUTER_BOUND ( 'NONE', #553, .T. ) ;
#801 = LINE ( 'NONE', #368, #193 ) ;
#802 = VERTEX_POINT ( 'NONE', #244 ) ;
#803 = DIRECTION ( 'NONE',  ( -0.000000000000000000, -1.000000000000000000, -0.000000000000000000 ) ) ;
#804 = VECTOR ( 'NONE', #486, 1000.000000000000000 ) ;
#805 = CARTESIAN_POINT ( 'NONE',  ( 12.21558124496688258, 40.00000000000000000, -30.14423089593931948 ) ) ;
ENDSEC;
END-ISO-10303-21;
