ISO-10303-21;
HEADER;
FILE_DESCRIPTION (( 'STEP AP214' ),
    '1' );
FILE_NAME ('Trapezoid_2.STEP',
    '2026-07-23T11:08:51',
    ( '' ),
    ( '' ),
    'SwSTEP 2.0',
    'SolidWorks 2026',
    '' );
FILE_SCHEMA (( 'AUTOMOTIVE_DESIGN' ));
ENDSEC;

DATA;
#1 = ORIENTED_EDGE ( 'NONE', *, *, #158, .T. ) ;
#2 = EDGE_CURVE ( 'NONE', #88, #32, #162, .T. ) ;
#3 = VECTOR ( 'NONE', #72, 1000.000000000000000 ) ;
#4 = DIRECTION ( 'NONE',  ( 0.9669430962678895458, -0.000000000000000000, 0.2549922519996773440 ) ) ;
#5 = ORIENTED_EDGE ( 'NONE', *, *, #2, .T. ) ;
#6 = DIRECTION ( 'NONE',  ( -0.000000000000000000, -1.000000000000000000, -0.000000000000000000 ) ) ;
#7 = PRODUCT_DEFINITION_FORMATION_WITH_SPECIFIED_SOURCE ( 'ANY', '', #115, .NOT_KNOWN. ) ;
#8 = LINE ( 'NONE', #27, #86 ) ;
#9 = DIRECTION ( 'NONE',  ( -0.2549922519996773440, -0.000000000000000000, 0.9669430962678894348 ) ) ;
#10 = PLANE ( 'NONE',  #87 ) ;
#11 =( GEOMETRIC_REPRESENTATION_CONTEXT ( 3 ) GLOBAL_UNCERTAINTY_ASSIGNED_CONTEXT ( ( #29 ) ) GLOBAL_UNIT_ASSIGNED_CONTEXT ( ( #129, #186, #182 ) ) REPRESENTATION_CONTEXT ( 'NONE', 'WORKASPACE' ) );
#12 = DIRECTION ( 'NONE',  ( -1.000000000000000000, 0.000000000000000000, -0.000000000000000000 ) ) ;
#13 = LINE ( 'NONE', #168, #160 ) ;
#14 = STYLED_ITEM ( 'NONE', ( #55 ), #104 ) ;
#15 = DIRECTION ( 'NONE',  ( -1.000000000000000000, -0.000000000000000000, -0.000000000000000000 ) ) ;
#16 = DIRECTION ( 'NONE',  ( 0.000000000000000000, 0.000000000000000000, -1.000000000000000000 ) ) ;
#17 = ORIENTED_EDGE ( 'NONE', *, *, #62, .T. ) ;
#18 = EDGE_LOOP ( 'NONE', ( #17, #123, #139, #150 ) ) ;
#19 = CARTESIAN_POINT ( 'NONE',  ( -20.17500000000000071, 40.00000000000000000, 15.50000000000000000 ) ) ;
#20 = FACE_OUTER_BOUND ( 'NONE', #77, .T. ) ;
#21 = FACE_OUTER_BOUND ( 'NONE', #125, .T. ) ;
#22 = CARTESIAN_POINT ( 'NONE',  ( -20.17500000000000071, 0.000000000000000000, 15.50000000000000000 ) ) ;
#23 = ADVANCED_BREP_SHAPE_REPRESENTATION ( 'Trapezoid_2', ( #104, #181 ), #11 ) ;
#24 = EDGE_CURVE ( 'NONE', #88, #79, #8, .T. ) ;
#25 = EDGE_CURVE ( 'NONE', #35, #100, #137, .T. ) ;
#26 = APPLICATION_PROTOCOL_DEFINITION ( 'draft international standard', 'automotive_design', 1998, #34 ) ;
#27 = CARTESIAN_POINT ( 'NONE',  ( -20.17500000000000071, 40.00000000000000000, 15.50000000000000000 ) ) ;
#28 = SHAPE_DEFINITION_REPRESENTATION ( #119, #23 ) ;
#29 = UNCERTAINTY_MEASURE_WITH_UNIT (LENGTH_MEASURE( 1.000000000000000082E-05 ), #129, 'distance_accuracy_value', 'NONE');
#30 = ADVANCED_FACE ( 'NONE', ( #151 ), #102, .F. ) ;
#31 = LINE ( 'NONE', #173, #171 ) ;
#32 = VERTEX_POINT ( 'NONE', #126 ) ;
#33 = ORIENTED_EDGE ( 'NONE', *, *, #158, .F. ) ;
#34 = APPLICATION_CONTEXT ( 'automotive_design' ) ;
#35 = VERTEX_POINT ( 'NONE', #161 ) ;
#36 = LINE ( 'NONE', #74, #152 ) ;
#37 = CARTESIAN_POINT ( 'NONE',  ( -12.00000000000000000, 40.00000000000000000, -15.50000000000000000 ) ) ;
#38 = EDGE_CURVE ( 'NONE', #32, #138, #31, .T. ) ;
#39 = CARTESIAN_POINT ( 'NONE',  ( -12.00000000000000000, 40.00000000000000000, -15.50000000000000000 ) ) ;
#40 = SURFACE_STYLE_FILL_AREA ( #142 ) ;
#41 = VECTOR ( 'NONE', #9, 1000.000000000000114 ) ;
#42 = ADVANCED_FACE ( 'NONE', ( #147 ), #78, .F. ) ;
#43 = CARTESIAN_POINT ( 'NONE',  ( 0.000000000000000000, 0.000000000000000000, 0.000000000000000000 ) ) ;
#44 = DIRECTION ( 'NONE',  ( 1.000000000000000000, 0.000000000000000000, 0.000000000000000000 ) ) ;
#45 = AXIS2_PLACEMENT_3D ( 'NONE', #58, #53, #16 ) ;
#46 = DIRECTION ( 'NONE',  ( 1.000000000000000000, 0.000000000000000000, -0.000000000000000000 ) ) ;
#47 = ORIENTED_EDGE ( 'NONE', *, *, #57, .F. ) ;
#48 = ORIENTED_EDGE ( 'NONE', *, *, #25, .T. ) ;
#49 = ORIENTED_EDGE ( 'NONE', *, *, #57, .T. ) ;
#50 = ORIENTED_EDGE ( 'NONE', *, *, #111, .T. ) ;
#51 = DIRECTION ( 'NONE',  ( 1.000000000000000000, -0.000000000000000000, -0.000000000000000000 ) ) ;
#52 = VERTEX_POINT ( 'NONE', #175 ) ;
#53 = DIRECTION ( 'NONE',  ( 0.000000000000000000, -1.000000000000000000, -0.000000000000000000 ) ) ;
#54 = LINE ( 'NONE', #108, #91 ) ;
#55 = PRESENTATION_STYLE_ASSIGNMENT (( #95 ) ) ;
#56 = APPLICATION_PROTOCOL_DEFINITION ( 'draft international standard', 'automotive_design', 1998, #93 ) ;
#57 = EDGE_CURVE ( 'NONE', #100, #79, #132, .T. ) ;
#58 = CARTESIAN_POINT ( 'NONE',  ( 0.000000000000000000, 40.00000000000000000, 0.000000000000000000 ) ) ;
#59 = VECTOR ( 'NONE', #51, 1000.000000000000000 ) ;
#60 = AXIS2_PLACEMENT_3D ( 'NONE', #69, #180, #12 ) ;
#61 = DIRECTION ( 'NONE',  ( 0.2549922519996772885, 0.000000000000000000, -0.9669430962678894348 ) ) ;
#62 = EDGE_CURVE ( 'NONE', #121, #52, #36, .T. ) ;
#63 = CARTESIAN_POINT ( 'NONE',  ( -12.00000000000000000, 40.00000000000000000, -15.50000000000000000 ) ) ;
#64 = EDGE_LOOP ( 'NONE', ( #5, #163, #50, #1 ) ) ;
#65 = CARTESIAN_POINT ( 'NONE',  ( 20.17500000000000071, 40.00000000000000000, 15.50000000000000000 ) ) ;
#66 = ORIENTED_EDGE ( 'NONE', *, *, #176, .T. ) ;
#67 = PLANE ( 'NONE',  #70 ) ;
#68 = ADVANCED_FACE ( 'NONE', ( #130 ), #103, .F. ) ;
#69 = CARTESIAN_POINT ( 'NONE',  ( 20.17500000000000071, 40.00000000000000000, 15.50000000000000000 ) ) ;
#70 = AXIS2_PLACEMENT_3D ( 'NONE', #37, #174, #46 ) ;
#71 = VECTOR ( 'NONE', #116, 1000.000000000000114 ) ;
#72 = DIRECTION ( 'NONE',  ( -1.000000000000000000, -0.000000000000000000, -0.000000000000000000 ) ) ;
#73 = ADVANCED_FACE ( 'NONE', ( #20 ), #67, .F. ) ;
#74 = CARTESIAN_POINT ( 'NONE',  ( 12.00000000000000000, 0.000000000000000000, -15.50000000000000000 ) ) ;
#75 = DIRECTION ( 'NONE',  ( 0.000000000000000000, 0.000000000000000000, 1.000000000000000000 ) ) ;
#76 = PRODUCT_DEFINITION_CONTEXT ( 'detailed design', #93, 'design' ) ;
#77 = EDGE_LOOP ( 'NONE', ( #66, #80, #101, #146 ) ) ;
#78 = PLANE ( 'NONE',  #133 ) ;
#79 = VERTEX_POINT ( 'NONE', #154 ) ;
#80 = ORIENTED_EDGE ( 'NONE', *, *, #25, .F. ) ;
#81 = ORIENTED_EDGE ( 'NONE', *, *, #24, .T. ) ;
#82 = FILL_AREA_STYLE_COLOUR ( '', #141 ) ;
#83 = CARTESIAN_POINT ( 'NONE',  ( 12.00000000000000000, 40.00000000000000000, -15.50000000000000000 ) ) ;
#84 = LINE ( 'NONE', #19, #71 ) ;
#85 =( NAMED_UNIT ( * ) SI_UNIT ( $, .STERADIAN. ) SOLID_ANGLE_UNIT ( ) );
#86 = VECTOR ( 'NONE', #148, 1000.000000000000000 ) ;
#87 = AXIS2_PLACEMENT_3D ( 'NONE', #109, #144, #169 ) ;
#88 = VERTEX_POINT ( 'NONE', #131 ) ;
#89 = DIRECTION ( 'NONE',  ( -0.2549922519996773440, -0.000000000000000000, -0.9669430962678894348 ) ) ;
#90 = ORIENTED_EDGE ( 'NONE', *, *, #185, .F. ) ;
#91 = VECTOR ( 'NONE', #113, 1000.000000000000000 ) ;
#92 = EDGE_LOOP ( 'NONE', ( #49, #122, #33, #48 ) ) ;
#93 = APPLICATION_CONTEXT ( 'automotive_design' ) ;
#94 =( NAMED_UNIT ( * ) PLANE_ANGLE_UNIT ( ) SI_UNIT ( $, .RADIAN. ) );
#95 = SURFACE_STYLE_USAGE ( .BOTH. , #145 ) ;
#96 = LINE ( 'NONE', #83, #117 ) ;
#97 = EDGE_CURVE ( 'NONE', #138, #52, #96, .T. ) ;
#98 = ADVANCED_FACE ( 'NONE', ( #21 ), #10, .T. ) ;
#99 = ORIENTED_EDGE ( 'NONE', *, *, #170, .F. ) ;
#100 = VERTEX_POINT ( 'NONE', #184 ) ;
#101 = ORIENTED_EDGE ( 'NONE', *, *, #111, .F. ) ;
#102 = PLANE ( 'NONE',  #45 ) ;
#103 = PLANE ( 'NONE',  #106 ) ;
#104 = MANIFOLD_SOLID_BREP ( 'Boss-Extrude1', #112 ) ;
#105 = DIRECTION ( 'NONE',  ( 0.2549922519996772885, 0.000000000000000000, 0.9669430962678894348 ) ) ;
#106 = AXIS2_PLACEMENT_3D ( 'NONE', #164, #143, #105 ) ;
#107 = MECHANICAL_DESIGN_GEOMETRIC_PRESENTATION_REPRESENTATION (  '', ( #14 ), #172 ) ;
#108 = CARTESIAN_POINT ( 'NONE',  ( 20.17500000000000071, 40.00000000000000000, 15.50000000000000000 ) ) ;
#109 = CARTESIAN_POINT ( 'NONE',  ( 0.000000000000000000, 0.000000000000000000, 0.000000000000000000 ) ) ;
#110 = CARTESIAN_POINT ( 'NONE',  ( 12.00000000000000000, 40.00000000000000000, -15.50000000000000000 ) ) ;
#111 = EDGE_CURVE ( 'NONE', #138, #35, #153, .T. ) ;
#112 = CLOSED_SHELL ( 'NONE', ( #114, #68, #73, #42, #30, #98 ) ) ;
#113 = DIRECTION ( 'NONE',  ( -0.000000000000000000, -1.000000000000000000, -0.000000000000000000 ) ) ;
#114 = ADVANCED_FACE ( 'NONE', ( #155 ), #128, .F. ) ;
#115 = PRODUCT ( 'Trapezoid_2', 'Trapezoid_2', '', ( #159 ) ) ;
#116 = DIRECTION ( 'NONE',  ( -0.2549922519996773440, -0.000000000000000000, 0.9669430962678894348 ) ) ;
#117 = VECTOR ( 'NONE', #167, 1000.000000000000000 ) ;
#118 = PRESENTATION_LAYER_ASSIGNMENT (  '', '', ( #14 ) ) ;
#119 = PRODUCT_DEFINITION_SHAPE ( 'NONE', 'NONE',  #179 ) ;
#120 = ORIENTED_EDGE ( 'NONE', *, *, #2, .F. ) ;
#121 = VERTEX_POINT ( 'NONE', #134 ) ;
#122 = ORIENTED_EDGE ( 'NONE', *, *, #24, .F. ) ;
#123 = ORIENTED_EDGE ( 'NONE', *, *, #97, .F. ) ;
#124 = VECTOR ( 'NONE', #15, 1000.000000000000000 ) ;
#125 = EDGE_LOOP ( 'NONE', ( #90, #47, #177, #178 ) ) ;
#126 = CARTESIAN_POINT ( 'NONE',  ( 20.17500000000000071, 40.00000000000000000, 15.50000000000000000 ) ) ;
#127 = DIRECTION ( 'NONE',  ( -0.2549922519996773440, -0.000000000000000000, -0.9669430962678894348 ) ) ;
#128 = PLANE ( 'NONE',  #60 ) ;
#129 =( LENGTH_UNIT ( ) NAMED_UNIT ( * ) SI_UNIT ( .MILLI., .METRE. ) );
#130 = FACE_OUTER_BOUND ( 'NONE', #18, .T. ) ;
#131 = CARTESIAN_POINT ( 'NONE',  ( -20.17500000000000071, 40.00000000000000000, 15.50000000000000000 ) ) ;
#132 = LINE ( 'NONE', #22, #41 ) ;
#133 = AXIS2_PLACEMENT_3D ( 'NONE', #136, #4, #61 ) ;
#134 = CARTESIAN_POINT ( 'NONE',  ( 20.17500000000000071, 0.000000000000000000, 15.50000000000000000 ) ) ;
#135 = ORIENTED_EDGE ( 'NONE', *, *, #185, .T. ) ;
#136 = CARTESIAN_POINT ( 'NONE',  ( -20.17500000000000071, 40.00000000000000000, 15.50000000000000000 ) ) ;
#137 = LINE ( 'NONE', #63, #165 ) ;
#138 = VERTEX_POINT ( 'NONE', #110 ) ;
#139 = ORIENTED_EDGE ( 'NONE', *, *, #38, .F. ) ;
#140 = EDGE_LOOP ( 'NONE', ( #135, #99, #120, #81 ) ) ;
#141 = COLOUR_RGB ( '',0.8941176470588234615, 0.8941176470588234615, 0.8941176470588234615 ) ;
#142 = FILL_AREA_STYLE ('',( #82 ) ) ;
#143 = DIRECTION ( 'NONE',  ( -0.9669430962678895458, 0.000000000000000000, 0.2549922519996773440 ) ) ;
#144 = DIRECTION ( 'NONE',  ( 0.000000000000000000, -1.000000000000000000, -0.000000000000000000 ) ) ;
#145 = SURFACE_SIDE_STYLE ('',( #40 ) ) ;
#146 = ORIENTED_EDGE ( 'NONE', *, *, #97, .T. ) ;
#147 = FACE_OUTER_BOUND ( 'NONE', #92, .T. ) ;
#148 = DIRECTION ( 'NONE',  ( -0.000000000000000000, -1.000000000000000000, -0.000000000000000000 ) ) ;
#149 = UNCERTAINTY_MEASURE_WITH_UNIT (LENGTH_MEASURE( 1.000000000000000082E-05 ), #183, 'distance_accuracy_value', 'NONE');
#150 = ORIENTED_EDGE ( 'NONE', *, *, #170, .T. ) ;
#151 = FACE_OUTER_BOUND ( 'NONE', #64, .T. ) ;
#152 = VECTOR ( 'NONE', #127, 1000.000000000000114 ) ;
#153 = LINE ( 'NONE', #39, #124 ) ;
#154 = CARTESIAN_POINT ( 'NONE',  ( -20.17500000000000071, 0.000000000000000000, 15.50000000000000000 ) ) ;
#155 = FACE_OUTER_BOUND ( 'NONE', #140, .T. ) ;
#156 = LINE ( 'NONE', #157, #3 ) ;
#157 = CARTESIAN_POINT ( 'NONE',  ( -12.00000000000000000, 0.000000000000000000, -15.50000000000000000 ) ) ;
#158 = EDGE_CURVE ( 'NONE', #35, #88, #84, .T. ) ;
#159 = PRODUCT_CONTEXT ( 'NONE', #34, 'mechanical' ) ;
#160 = VECTOR ( 'NONE', #166, 1000.000000000000000 ) ;
#161 = CARTESIAN_POINT ( 'NONE',  ( -12.00000000000000000, 40.00000000000000000, -15.50000000000000000 ) ) ;
#162 = LINE ( 'NONE', #65, #59 ) ;
#163 = ORIENTED_EDGE ( 'NONE', *, *, #38, .T. ) ;
#164 = CARTESIAN_POINT ( 'NONE',  ( 12.00000000000000000, 40.00000000000000000, -15.50000000000000000 ) ) ;
#165 = VECTOR ( 'NONE', #6, 1000.000000000000000 ) ;
#166 = DIRECTION ( 'NONE',  ( 1.000000000000000000, -0.000000000000000000, -0.000000000000000000 ) ) ;
#167 = DIRECTION ( 'NONE',  ( -0.000000000000000000, -1.000000000000000000, -0.000000000000000000 ) ) ;
#168 = CARTESIAN_POINT ( 'NONE',  ( 20.17500000000000071, 0.000000000000000000, 15.50000000000000000 ) ) ;
#169 = DIRECTION ( 'NONE',  ( 0.000000000000000000, 0.000000000000000000, -1.000000000000000000 ) ) ;
#170 = EDGE_CURVE ( 'NONE', #32, #121, #54, .T. ) ;
#171 = VECTOR ( 'NONE', #89, 1000.000000000000114 ) ;
#172 =( GEOMETRIC_REPRESENTATION_CONTEXT ( 3 ) GLOBAL_UNCERTAINTY_ASSIGNED_CONTEXT ( ( #149 ) ) GLOBAL_UNIT_ASSIGNED_CONTEXT ( ( #183, #94, #85 ) ) REPRESENTATION_CONTEXT ( 'NONE', 'WORKASPACE' ) );
#173 = CARTESIAN_POINT ( 'NONE',  ( 12.00000000000000000, 40.00000000000000000, -15.50000000000000000 ) ) ;
#174 = DIRECTION ( 'NONE',  ( 0.000000000000000000, 0.000000000000000000, 1.000000000000000000 ) ) ;
#175 = CARTESIAN_POINT ( 'NONE',  ( 12.00000000000000000, 0.000000000000000000, -15.50000000000000000 ) ) ;
#176 = EDGE_CURVE ( 'NONE', #52, #100, #156, .T. ) ;
#177 = ORIENTED_EDGE ( 'NONE', *, *, #176, .F. ) ;
#178 = ORIENTED_EDGE ( 'NONE', *, *, #62, .F. ) ;
#179 = PRODUCT_DEFINITION ( 'UNKNOWN', '', #7, #76 ) ;
#180 = DIRECTION ( 'NONE',  ( 0.000000000000000000, 0.000000000000000000, -1.000000000000000000 ) ) ;
#181 = AXIS2_PLACEMENT_3D ( 'NONE', #43, #75, #44 ) ;
#182 =( NAMED_UNIT ( * ) SI_UNIT ( $, .STERADIAN. ) SOLID_ANGLE_UNIT ( ) );
#183 =( LENGTH_UNIT ( ) NAMED_UNIT ( * ) SI_UNIT ( .MILLI., .METRE. ) );
#184 = CARTESIAN_POINT ( 'NONE',  ( -12.00000000000000000, 0.000000000000000000, -15.50000000000000000 ) ) ;
#185 = EDGE_CURVE ( 'NONE', #79, #121, #13, .T. ) ;
#186 =( NAMED_UNIT ( * ) PLANE_ANGLE_UNIT ( ) SI_UNIT ( $, .RADIAN. ) );
#187 = PRODUCT_RELATED_PRODUCT_CATEGORY ( 'part', '', ( #115 ) ) ;
ENDSEC;
END-ISO-10303-21;
