ISO-10303-21;
HEADER;
FILE_DESCRIPTION (( 'STEP AP214' ),
    '1' );
FILE_NAME ('Triangle_2.STEP',
    '2026-07-23T11:08:52',
    ( '' ),
    ( '' ),
    'SwSTEP 2.0',
    'SolidWorks 2026',
    '' );
FILE_SCHEMA (( 'AUTOMOTIVE_DESIGN' ));
ENDSEC;

DATA;
#1 = APPLICATION_PROTOCOL_DEFINITION ( 'draft international standard', 'automotive_design', 1998, #97 ) ;
#2 = EDGE_CURVE ( 'NONE', #56, #102, #120, .T. ) ;
#3 = VERTEX_POINT ( 'NONE', #133 ) ;
#4 = CARTESIAN_POINT ( 'NONE',  ( 22.80533563299023569, 40.00000000000000000, -8.673617379884035472E-15 ) ) ;
#5 = AXIS2_PLACEMENT_3D ( 'NONE', #151, #135, #21 ) ;
#6 = PLANE ( 'NONE',  #114 ) ;
#7 = CARTESIAN_POINT ( 'NONE',  ( 22.80533563299023569, 0.000000000000000000, -8.673617379884035472E-15 ) ) ;
#8 = CARTESIAN_POINT ( 'NONE',  ( 0.000000000000000000, 0.000000000000000000, 0.000000000000000000 ) ) ;
#9 = ADVANCED_FACE ( 'NONE', ( #101 ), #149, .T. ) ;
#10 = CARTESIAN_POINT ( 'NONE',  ( -22.80533563299023569, 40.00000000000000000, -3.469446951953614189E-15 ) ) ;
#11 = PRODUCT_DEFINITION_FORMATION_WITH_SPECIFIED_SOURCE ( 'ANY', '', #68, .NOT_KNOWN. ) ;
#12 = ORIENTED_EDGE ( 'NONE', *, *, #131, .T. ) ;
#13 = CARTESIAN_POINT ( 'NONE',  ( -22.80533563299023569, 40.00000000000000000, -3.469446951953614189E-15 ) ) ;
#14 = VECTOR ( 'NONE', #67, 1000.000000000000000 ) ;
#15 = LINE ( 'NONE', #40, #14 ) ;
#16 = PRODUCT_DEFINITION_SHAPE ( 'NONE', 'NONE',  #80 ) ;
#17 = DIRECTION ( 'NONE',  ( -0.5000000000000001110, 0.000000000000000000, -0.8660254037844384856 ) ) ;
#18 = ADVANCED_BREP_SHAPE_REPRESENTATION ( 'Triangle_2', ( #47, #26 ), #124 ) ;
#19 = DIRECTION ( 'NONE',  ( -1.000000000000000000, 0.000000000000000000, 1.140998429420626373E-16 ) ) ;
#20 = VECTOR ( 'NONE', #58, 1000.000000000000227 ) ;
#21 = DIRECTION ( 'NONE',  ( 0.5000000000000002220, 0.000000000000000000, -0.8660254037844384856 ) ) ;
#22 = PLANE ( 'NONE',  #117 ) ;
#23 = LINE ( 'NONE', #107, #142 ) ;
#24 = EDGE_CURVE ( 'NONE', #102, #3, #15, .T. ) ;
#25 = VERTEX_POINT ( 'NONE', #152 ) ;
#26 = AXIS2_PLACEMENT_3D ( 'NONE', #100, #118, #76 ) ;
#27 = VERTEX_POINT ( 'NONE', #125 ) ;
#28 = CARTESIAN_POINT ( 'NONE',  ( 0.000000000000000000, 40.00000000000000000, 0.000000000000000000 ) ) ;
#29 = PRESENTATION_LAYER_ASSIGNMENT (  '', '', ( #96 ) ) ;
#30 = SURFACE_STYLE_FILL_AREA ( #70 ) ;
#31 = LINE ( 'NONE', #105, #86 ) ;
#32 = DIRECTION ( 'NONE',  ( -1.140998429420626373E-16, 0.000000000000000000, -1.000000000000000000 ) ) ;
#33 = LINE ( 'NONE', #4, #147 ) ;
#34 = EDGE_CURVE ( 'NONE', #36, #56, #23, .T. ) ;
#35 = ORIENTED_EDGE ( 'NONE', *, *, #34, .T. ) ;
#36 = VERTEX_POINT ( 'NONE', #84 ) ;
#37 = AXIS2_PLACEMENT_3D ( 'NONE', #8, #60, #94 ) ;
#38 = EDGE_LOOP ( 'NONE', ( #53, #110, #39, #78 ) ) ;
#39 = ORIENTED_EDGE ( 'NONE', *, *, #131, .F. ) ;
#40 = CARTESIAN_POINT ( 'NONE',  ( -22.80533563299023569, 0.000000000000000000, -3.469446951953614189E-15 ) ) ;
#41 =( NAMED_UNIT ( * ) PLANE_ANGLE_UNIT ( ) SI_UNIT ( $, .RADIAN. ) );
#42 = DIRECTION ( 'NONE',  ( 0.5000000000000002220, 0.000000000000000000, 0.8660254037844384856 ) ) ;
#43 = APPLICATION_CONTEXT ( 'automotive_design' ) ;
#44 = CARTESIAN_POINT ( 'NONE',  ( -22.80533563299023569, 40.00000000000000000, -3.469446951953614189E-15 ) ) ;
#45 = DIRECTION ( 'NONE',  ( -0.5000000000000001110, 0.000000000000000000, 0.8660254037844384856 ) ) ;
#46 =( LENGTH_UNIT ( ) NAMED_UNIT ( * ) SI_UNIT ( .MILLI., .METRE. ) );
#47 = MANIFOLD_SOLID_BREP ( 'Boss-Extrude1', #121 ) ;
#48 = VECTOR ( 'NONE', #112, 1000.000000000000000 ) ;
#49 = MECHANICAL_DESIGN_GEOMETRIC_PRESENTATION_REPRESENTATION (  '', ( #96 ), #75 ) ;
#50 = ORIENTED_EDGE ( 'NONE', *, *, #126, .F. ) ;
#51 = ORIENTED_EDGE ( 'NONE', *, *, #103, .T. ) ;
#52 = APPLICATION_PROTOCOL_DEFINITION ( 'draft international standard', 'automotive_design', 1998, #43 ) ;
#53 = ORIENTED_EDGE ( 'NONE', *, *, #24, .T. ) ;
#54 = VECTOR ( 'NONE', #132, 1000.000000000000000 ) ;
#55 = VECTOR ( 'NONE', #139, 1000.000000000000000 ) ;
#56 = VERTEX_POINT ( 'NONE', #10 ) ;
#57 = CARTESIAN_POINT ( 'NONE',  ( -22.80533563299023569, 40.00000000000000000, -3.469446951953614189E-15 ) ) ;
#58 = DIRECTION ( 'NONE',  ( -0.5000000000000001110, 0.000000000000000000, -0.8660254037844384856 ) ) ;
#59 = PRODUCT_DEFINITION_CONTEXT ( 'detailed design', #43, 'design' ) ;
#60 = DIRECTION ( 'NONE',  ( 0.000000000000000000, 1.000000000000000000, 0.000000000000000000 ) ) ;
#61 = CARTESIAN_POINT ( 'NONE',  ( 0.000000000000000000, 0.000000000000000000, -39.50000000000002842 ) ) ;
#62 = VECTOR ( 'NONE', #45, 1000.000000000000227 ) ;
#63 = EDGE_CURVE ( 'NONE', #27, #3, #31, .T. ) ;
#64 = ORIENTED_EDGE ( 'NONE', *, *, #145, .T. ) ;
#65 = ADVANCED_FACE ( 'NONE', ( #134 ), #22, .F. ) ;
#66 = ORIENTED_EDGE ( 'NONE', *, *, #145, .F. ) ;
#67 = DIRECTION ( 'NONE',  ( 1.000000000000000000, 0.000000000000000000, -1.140998429420626373E-16 ) ) ;
#68 = PRODUCT ( 'Triangle_2', 'Triangle_2', '', ( #146 ) ) ;
#69 = LINE ( 'NONE', #57, #48 ) ;
#70 = FILL_AREA_STYLE ('',( #138 ) ) ;
#71 = LINE ( 'NONE', #7, #20 ) ;
#72 = PLANE ( 'NONE',  #37 ) ;
#73 = DIRECTION ( 'NONE',  ( -0.8660254037844385966, 0.000000000000000000, 0.5000000000000003331 ) ) ;
#74 = EDGE_CURVE ( 'NONE', #25, #102, #115, .T. ) ;
#75 =( GEOMETRIC_REPRESENTATION_CONTEXT ( 3 ) GLOBAL_UNCERTAINTY_ASSIGNED_CONTEXT ( ( #108 ) ) GLOBAL_UNIT_ASSIGNED_CONTEXT ( ( #46, #41, #153 ) ) REPRESENTATION_CONTEXT ( 'NONE', 'WORKASPACE' ) );
#76 = DIRECTION ( 'NONE',  ( 1.000000000000000000, 0.000000000000000000, 0.000000000000000000 ) ) ;
#77 = ORIENTED_EDGE ( 'NONE', *, *, #2, .F. ) ;
#78 = ORIENTED_EDGE ( 'NONE', *, *, #2, .T. ) ;
#79 = DIRECTION ( 'NONE',  ( 0.000000000000000000, 1.000000000000000000, 0.000000000000000000 ) ) ;
#80 = PRODUCT_DEFINITION ( 'UNKNOWN', '', #11, #59 ) ;
#81 = COLOUR_RGB ( '',0.8941176470588234615, 0.8941176470588234615, 0.8941176470588234615 ) ;
#82 = LINE ( 'NONE', #123, #55 ) ;
#83 = SURFACE_STYLE_USAGE ( .BOTH. , #92 ) ;
#84 = CARTESIAN_POINT ( 'NONE',  ( 0.000000000000000000, 40.00000000000000000, -39.50000000000002842 ) ) ;
#85 = ORIENTED_EDGE ( 'NONE', *, *, #103, .F. ) ;
#86 = VECTOR ( 'NONE', #90, 1000.000000000000000 ) ;
#87 = ORIENTED_EDGE ( 'NONE', *, *, #34, .F. ) ;
#88 = SHAPE_DEFINITION_REPRESENTATION ( #16, #18 ) ;
#89 = ADVANCED_FACE ( 'NONE', ( #93 ), #6, .F. ) ;
#90 = DIRECTION ( 'NONE',  ( -0.000000000000000000, -1.000000000000000000, -0.000000000000000000 ) ) ;
#91 = FACE_OUTER_BOUND ( 'NONE', #154, .T. ) ;
#92 = SURFACE_SIDE_STYLE ('',( #30 ) ) ;
#93 = FACE_OUTER_BOUND ( 'NONE', #119, .T. ) ;
#94 = DIRECTION ( 'NONE',  ( 0.000000000000000000, -0.000000000000000000, 1.000000000000000000 ) ) ;
#95 = ADVANCED_FACE ( 'NONE', ( #91 ), #72, .F. ) ;
#96 = STYLED_ITEM ( 'NONE', ( #116 ), #47 ) ;
#97 = APPLICATION_CONTEXT ( 'automotive_design' ) ;
#98 = ORIENTED_EDGE ( 'NONE', *, *, #63, .T. ) ;
#99 =( NAMED_UNIT ( * ) SI_UNIT ( $, .STERADIAN. ) SOLID_ANGLE_UNIT ( ) );
#100 = CARTESIAN_POINT ( 'NONE',  ( 0.000000000000000000, 0.000000000000000000, 0.000000000000000000 ) ) ;
#101 = FACE_OUTER_BOUND ( 'NONE', #148, .T. ) ;
#102 = VERTEX_POINT ( 'NONE', #140 ) ;
#103 = EDGE_CURVE ( 'NONE', #36, #25, #82, .T. ) ;
#104 = FACE_OUTER_BOUND ( 'NONE', #129, .T. ) ;
#105 = CARTESIAN_POINT ( 'NONE',  ( 22.80533563299023569, 40.00000000000000000, -8.673617379884035472E-15 ) ) ;
#106 = DIRECTION ( 'NONE',  ( -0.5000000000000001110, 0.000000000000000000, 0.8660254037844384856 ) ) ;
#107 = CARTESIAN_POINT ( 'NONE',  ( 0.000000000000000000, 40.00000000000000000, -39.50000000000002842 ) ) ;
#108 = UNCERTAINTY_MEASURE_WITH_UNIT (LENGTH_MEASURE( 1.000000000000000082E-05 ), #46, 'distance_accuracy_value', 'NONE');
#109 =( NAMED_UNIT ( * ) PLANE_ANGLE_UNIT ( ) SI_UNIT ( $, .RADIAN. ) );
#110 = ORIENTED_EDGE ( 'NONE', *, *, #63, .F. ) ;
#111 = ORIENTED_EDGE ( 'NONE', *, *, #74, .T. ) ;
#112 = DIRECTION ( 'NONE',  ( 1.000000000000000000, 0.000000000000000000, -1.140998429420626373E-16 ) ) ;
#113 = CARTESIAN_POINT ( 'NONE',  ( 22.80533563299023569, 40.00000000000000000, -8.673617379884035472E-15 ) ) ;
#114 = AXIS2_PLACEMENT_3D ( 'NONE', #113, #73, #42 ) ;
#115 = LINE ( 'NONE', #61, #62 ) ;
#116 = PRESENTATION_STYLE_ASSIGNMENT (( #83 ) ) ;
#117 = AXIS2_PLACEMENT_3D ( 'NONE', #44, #32, #19 ) ;
#118 = DIRECTION ( 'NONE',  ( 0.000000000000000000, 0.000000000000000000, 1.000000000000000000 ) ) ;
#119 = EDGE_LOOP ( 'NONE', ( #64, #85, #50, #98 ) ) ;
#120 = LINE ( 'NONE', #13, #54 ) ;
#121 = CLOSED_SHELL ( 'NONE', ( #65, #89, #141, #9, #95 ) ) ;
#122 = DIRECTION ( 'NONE',  ( 0.000000000000000000, -0.000000000000000000, 1.000000000000000000 ) ) ;
#123 = CARTESIAN_POINT ( 'NONE',  ( 0.000000000000000000, 40.00000000000000000, -39.50000000000002842 ) ) ;
#124 =( GEOMETRIC_REPRESENTATION_CONTEXT ( 3 ) GLOBAL_UNCERTAINTY_ASSIGNED_CONTEXT ( ( #136 ) ) GLOBAL_UNIT_ASSIGNED_CONTEXT ( ( #143, #109, #99 ) ) REPRESENTATION_CONTEXT ( 'NONE', 'WORKASPACE' ) );
#125 = CARTESIAN_POINT ( 'NONE',  ( 22.80533563299023569, 40.00000000000000000, -8.673617379884035472E-15 ) ) ;
#126 = EDGE_CURVE ( 'NONE', #27, #36, #33, .T. ) ;
#127 = ORIENTED_EDGE ( 'NONE', *, *, #126, .T. ) ;
#128 = PRODUCT_RELATED_PRODUCT_CATEGORY ( 'part', '', ( #68 ) ) ;
#129 = EDGE_LOOP ( 'NONE', ( #111, #77, #87, #51 ) ) ;
#130 = ORIENTED_EDGE ( 'NONE', *, *, #74, .F. ) ;
#131 = EDGE_CURVE ( 'NONE', #56, #27, #69, .T. ) ;
#132 = DIRECTION ( 'NONE',  ( -0.000000000000000000, -1.000000000000000000, -0.000000000000000000 ) ) ;
#133 = CARTESIAN_POINT ( 'NONE',  ( 22.80533563299023569, 0.000000000000000000, -8.673617379884035472E-15 ) ) ;
#134 = FACE_OUTER_BOUND ( 'NONE', #38, .T. ) ;
#135 = DIRECTION ( 'NONE',  ( 0.8660254037844385966, -0.000000000000000000, 0.5000000000000003331 ) ) ;
#136 = UNCERTAINTY_MEASURE_WITH_UNIT (LENGTH_MEASURE( 1.000000000000000082E-05 ), #143, 'distance_accuracy_value', 'NONE');
#137 = AXIS2_PLACEMENT_3D ( 'NONE', #28, #79, #122 ) ;
#138 = FILL_AREA_STYLE_COLOUR ( '', #81 ) ;
#139 = DIRECTION ( 'NONE',  ( -0.000000000000000000, -1.000000000000000000, -0.000000000000000000 ) ) ;
#140 = CARTESIAN_POINT ( 'NONE',  ( -22.80533563299023569, 0.000000000000000000, -3.469446951953614189E-15 ) ) ;
#141 = ADVANCED_FACE ( 'NONE', ( #104 ), #150, .F. ) ;
#142 = VECTOR ( 'NONE', #106, 1000.000000000000227 ) ;
#143 =( LENGTH_UNIT ( ) NAMED_UNIT ( * ) SI_UNIT ( .MILLI., .METRE. ) );
#144 = ORIENTED_EDGE ( 'NONE', *, *, #24, .F. ) ;
#145 = EDGE_CURVE ( 'NONE', #3, #25, #71, .T. ) ;
#146 = PRODUCT_CONTEXT ( 'NONE', #97, 'mechanical' ) ;
#147 = VECTOR ( 'NONE', #17, 1000.000000000000227 ) ;
#148 = EDGE_LOOP ( 'NONE', ( #12, #127, #35 ) ) ;
#149 = PLANE ( 'NONE',  #137 ) ;
#150 = PLANE ( 'NONE',  #5 ) ;
#151 = CARTESIAN_POINT ( 'NONE',  ( 0.000000000000000000, 40.00000000000000000, -39.50000000000002842 ) ) ;
#152 = CARTESIAN_POINT ( 'NONE',  ( 0.000000000000000000, 0.000000000000000000, -39.50000000000002842 ) ) ;
#153 =( NAMED_UNIT ( * ) SI_UNIT ( $, .STERADIAN. ) SOLID_ANGLE_UNIT ( ) );
#154 = EDGE_LOOP ( 'NONE', ( #144, #130, #66 ) ) ;
ENDSEC;
END-ISO-10303-21;
