# https://github.com/mikedh/trimesh
v -0.00655819 0.00069599 0.05150140
v -0.00597720 -0.00020082 0.05159506
v -0.00439522 -0.00030759 0.05280630
v -0.00425428 0.00051159 0.05324067
v -0.00484176 0.00132323 0.05308285
v -0.00569021 0.00169923 0.05254323
v -0.00647058 0.00150148 0.05189728
v -0.00767873 -0.00074533 0.05570470
v -0.00725720 -0.00165347 0.05563577
v -0.00648957 -0.00201101 0.05626291
v -0.00578825 -0.00189764 0.05680995
v -0.00579078 -0.00100467 0.05695141
v -0.00612167 -0.00011808 0.05706721
v -0.00694329 0.00013268 0.05664206
v -0.00774641 0.00008291 0.05605803
v -0.00670959 -0.00091353 0.05639093
v -0.00499316 0.00198536 0.04701302
v -0.00455052 0.00115493 0.04697705
v -0.00302515 0.00137435 0.04764929
v -0.00303725 0.00212825 0.04788294
v -0.00354046 0.00262677 0.04782778
v -0.00415395 0.00291317 0.04762163
v -0.00482800 0.00275287 0.04728417
v -0.00353427 0.00315089 0.04279393
v -0.00316347 0.00232520 0.04285021
v -0.00163927 0.00244528 0.04324881
v -0.00158405 0.00327335 0.04328123
v -0.00201476 0.00385487 0.04316028
v -0.00261746 0.00411411 0.04302689
v -0.00329667 0.00393314 0.04288583
v -0.00448176 -0.00039690 0.05608671
v -0.00474726 -0.00152002 0.05542018
v -0.00571641 -0.00189588 0.05444240
v -0.00679260 -0.00121346 0.05373139
v -0.00750621 -0.00001136 0.05360020
v -0.00749583 0.00110521 0.05416813
v -0.00647837 0.00130599 0.05506592
v -0.00530772 0.00073514 0.05584316
v -0.00161860 0.00432130 0.03402467
v -0.00134876 0.00334343 0.03431281
v -0.00046640 0.00274630 0.03448937
v 0.00059361 0.00302247 0.03445592
v 0.00110778 0.00410336 0.03420911
v 0.00059505 0.00532889 0.03381646
v -0.00124740 0.00528499 0.03374121
v -0.00123235 0.00480926 0.02852831
v -0.00080460 0.00342752 0.02875178
v 0.00049806 0.00263110 0.02883893
v 0.00177786 0.00293353 0.02873413
v 0.00244382 0.00401891 0.02851184
v 0.00213507 0.00549619 0.02815256
v -0.00057468 0.00602302 0.02825981
v -0.00006442 0.00395323 0.03829482
v -0.00055107 0.00489295 0.03799215
v -0.00134188 0.00525821 0.03780074
v -0.00195490 0.00477653 0.03779272
v -0.00217017 0.00396613 0.03796461
v -0.00187802 0.00317872 0.03819927
v -0.00117743 0.00270750 0.03838337
v -0.00034061 0.00298857 0.03845146
v -0.00423852 0.00201612 0.05033911
v -0.00496297 0.00232498 0.05000266
v -0.00566318 0.00212298 0.04954037
v -0.00575740 0.00134295 0.04923349
v -0.00526635 0.00053925 0.04924648
v -0.00378670 0.00063367 0.05008643
v -0.00370395 0.00139845 0.05041203
v -0.00276586 0.00325463 0.04543766
v -0.00332893 0.00350768 0.04529043
v -0.00399482 0.00337151 0.04506404
v -0.00419947 0.00261128 0.04487651
v -0.00381178 0.00177547 0.04486560
v -0.00229981 0.00199903 0.04539356
v -0.00231674 0.00276778 0.04551760
v -0.00132317 0.00440975 0.04088922
v -0.00200504 0.00472996 0.04073951
v -0.00262270 0.00437805 0.04065166
v -0.00282074 0.00357206 0.04067351
v -0.00252046 0.00277338 0.04079323
v -0.00102243 0.00276482 0.04110930
v -0.00087065 0.00366230 0.04107039
v -0.00513720 -0.00092629 0.05729756
v -0.00530451 -0.00210826 0.05672729
v -0.00624496 -0.00250230 0.05583500
v -0.00736208 -0.00182940 0.05505346
v -0.00800867 -0.00055089 0.05495777
v -0.00779538 0.00051732 0.05552542
v -0.00696555 0.00086443 0.05650611
v -0.00583979 0.00028468 0.05724694
v -0.00632977 0.00022478 0.05148817
v -0.00638679 -0.00070802 0.05273046
v -0.00721692 -0.00064253 0.05358010
v -0.00704553 0.00033872 0.05261030
v -0.00555379 -0.00051551 0.05180751
v -0.00528690 -0.00101727 0.05280724
v -0.00627284 -0.00166037 0.05403081
v -0.00470722 -0.00057059 0.05245740
v -0.00457260 -0.00093256 0.05420557
v -0.00518208 -0.00183264 0.05493012
v -0.00423465 0.00007306 0.05308378
v -0.00435843 0.00003468 0.05476646
v -0.00448932 -0.00100736 0.05583887
v -0.00448284 0.00094821 0.05322767
v -0.00507582 0.00101066 0.05454388
v -0.00479809 0.00020907 0.05606435
v -0.00525247 0.00157699 0.05284419
v -0.00609497 0.00148561 0.05387159
v -0.00588005 0.00110583 0.05549460
v -0.00613025 0.00167972 0.05221145
v -0.00700443 0.00129768 0.05309410
v -0.00706598 0.00132047 0.05460449
v -0.00660918 0.00114758 0.05164917
v -0.00762088 0.00061625 0.05381479
v -0.00723135 -0.00083175 0.05605537
v -0.00746520 -0.00126985 0.05562368
v -0.00692512 -0.00185708 0.05589504
v -0.00659528 -0.00149393 0.05632726
v -0.00607340 -0.00201659 0.05660936
v -0.00575150 -0.00154387 0.05690382
v -0.00621961 -0.00097265 0.05668033
v -0.00593574 -0.00048244 0.05702341
v -0.00645475 0.00002776 0.05689940
v -0.00683548 -0.00036160 0.05651974
v -0.00745244 0.00014768 0.05634129
v -0.00779540 -0.00024802 0.05589948
v -0.00613963 0.00102552 0.05036930
v -0.00557206 0.00090565 0.04919618
v -0.00561238 0.00020177 0.05042354
v -0.00486992 0.00031836 0.04938786
v -0.00406813 0.00037453 0.04984134
v -0.00412393 0.00020268 0.05142152
v -0.00366246 0.00100247 0.05028877
v -0.00401611 0.00097107 0.05178769
v -0.00391979 0.00173913 0.05041994
v -0.00455751 0.00166997 0.05168044
v -0.00458872 0.00222104 0.05019616
v -0.00532494 0.00199780 0.05125213
v -0.00535385 0.00229905 0.04977016
v -0.00604628 0.00179323 0.05070889
v -0.00579274 0.00177649 0.04935484
v -0.00484199 0.00153131 0.04695732
v -0.00458837 0.00230451 0.04593582
v -0.00407828 0.00215951 0.04484246
v -0.00417598 0.00146789 0.04590417
v -0.00413529 0.00095410 0.04708759
v -0.00340588 0.00154628 0.04495741
v -0.00329332 0.00108541 0.04745726
v -0.00256565 0.00167899 0.04525165
v -0.00265440 0.00170505 0.04650418
v -0.00295031 0.00175249 0.04779799
v -0.00223153 0.00239015 0.04548313
v -0.00268154 0.00246133 0.04668319
v -0.00325438 0.00241006 0.04788372
v -0.00251133 0.00304735 0.04549419
v -0.00315699 0.00293983 0.04661912
v -0.00383426 0.00280724 0.04774256
v -0.00303090 0.00341538 0.04537279
v -0.00373433 0.00320848 0.04644989
v -0.00451767 0.00290628 0.04745864
v -0.00368245 0.00350961 0.04518144
v -0.00440065 0.00306541 0.04616987
v -0.00498750 0.00241922 0.04712879
v -0.00416940 0.00304367 0.04495637
v -0.00477749 -0.00072039 0.05692311
v -0.00510896 -0.00157134 0.05707346
v -0.00501040 -0.00191777 0.05625093
v -0.00571056 -0.00243195 0.05629745
v -0.00600605 -0.00232153 0.05527216
v -0.00682562 -0.00227920 0.05539106
v -0.00714614 -0.00161075 0.05449942
v -0.00776392 -0.00121969 0.05491001
v -0.00784473 -0.00031922 0.05437526
v -0.00807389 0.00007621 0.05519368
v -0.00763751 0.00098226 0.05455939
v -0.00751539 0.00082970 0.05602691
v -0.00677955 0.00110932 0.05595505
v -0.00638391 0.00067415 0.05693735
v -0.00558546 0.00049957 0.05676026
v -0.00540251 -0.00027821 0.05736123
v -0.00342102 0.00270766 0.04280254
v -0.00317901 0.00337032 0.04176789
v -0.00273312 0.00314532 0.04072355
v -0.00284417 0.00255609 0.04185227
v -0.00277746 0.00206953 0.04293444
v -0.00218369 0.00250580 0.04087684
v -0.00193574 0.00213599 0.04315603
v -0.00135956 0.00248993 0.04105172
v -0.00133046 0.00261718 0.04220455
v -0.00153281 0.00285565 0.04328893
v -0.00086158 0.00319043 0.04111346
v -0.00122843 0.00348073 0.04220357
v -0.00176069 0.00360465 0.04323055
v -0.00104330 0.00407596 0.04098628
v -0.00166706 0.00414043 0.04205842
v -0.00229829 0.00402936 0.04309386
v -0.00165396 0.00464199 0.04080731
v -0.00230662 0.00442993 0.04192125
v -0.00297848 0.00409513 0.04295503
v -0.00234575 0.00463101 0.04068476
v -0.00295855 0.00416774 0.04180710
v -0.00348737 0.00358890 0.04282692
v -0.00278249 0.00400402 0.04064872
v -0.00156720 0.00381300 0.03417624
v -0.00141256 0.00455334 0.03139335
v -0.00115160 0.00409105 0.02865102
v -0.00107962 0.00338892 0.03165826
v -0.00096311 0.00296282 0.03442207
v -0.00020963 0.00291425 0.02881773
v -0.00000439 0.00269807 0.03179677
v 0.00008526 0.00276905 0.03450005
v 0.00118328 0.00265789 0.02880545
v 0.00116782 0.00298594 0.03172472
v 0.00096040 0.00349798 0.03435875
v 0.00221364 0.00339690 0.02864182
v 0.00176688 0.00407939 0.03148088
v 0.00095786 0.00474636 0.03400766
v 0.00242159 0.00477051 0.02832755
v 0.00133654 0.00543506 0.03109492
v 0.00022122 0.00568074 0.03357438
v 0.00157236 0.00604046 0.02805056
v -0.00090378 0.00564816 0.03352879
v 0.00009459 0.00631872 0.02812257
v -0.00090747 0.00563600 0.03110717
v -0.00150313 0.00481813 0.03387037
v -0.00102852 0.00548656 0.02839648
v -0.00023529 0.00446413 0.03814536
v 0.00048432 0.00405429 0.03645578
v -0.00003240 0.00513268 0.03609625
v -0.00094153 0.00517403 0.03787558
v -0.00092378 0.00559147 0.03590933
v -0.00168735 0.00509634 0.03777263
v -0.00160167 0.00500599 0.03594860
v -0.00212149 0.00438687 0.03786247
v -0.00187630 0.00413702 0.03618852
v -0.00208395 0.00355308 0.03808192
v -0.00160615 0.00328417 0.03646350
v -0.00156753 0.00287407 0.03830149
v -0.00084749 0.00275705 0.03665140
v -0.00073265 0.00274737 0.03843962
v 0.00009105 0.00302722 0.03666831
v -0.00010870 0.00342596 0.03840002
v -0.00390023 0.00232697 0.04906134
v -0.00456806 0.00262439 0.04879918
v -0.00525297 0.00244080 0.04840322
v -0.00537905 0.00166387 0.04811348
v -0.00491318 0.00085117 0.04809442
v -0.00341151 0.00102073 0.04883621
v -0.00337785 0.00177907 0.04911816
v -0.00238308 0.00355962 0.04428570
v -0.00295743 0.00380812 0.04414969
v -0.00363446 0.00366424 0.04397043
v -0.00386126 0.00289564 0.04382967
v -0.00348014 0.00206312 0.04385114
v -0.00196192 0.00224250 0.04431012
v -0.00194886 0.00303708 0.04438475
v -0.00096625 0.00465629 0.03956176
v -0.00169288 0.00498855 0.03938838
v -0.00229169 0.00457409 0.03933697
v -0.00248473 0.00377423 0.03943268
v -0.00219060 0.00299469 0.03960903
v -0.00160925 0.00249860 0.04028358
v -0.00070212 0.00289486 0.03989503
v -0.00049937 0.00382118 0.03980027
v -0.00545247 -0.00100513 0.05723209
v -0.00557204 -0.00207393 0.05687879
v -0.00638946 -0.00237297 0.05613202
v -0.00735511 -0.00179896 0.05541231
v -0.00794559 -0.00067232 0.05536985
v -0.00778332 0.00025882 0.05587538
v -0.00700339 0.00054012 0.05668633
v -0.00600142 0.00007118 0.05725482
v -0.00677983 -0.00021012 0.05259726
v -0.00591613 -0.00109432 0.05298797
v -0.00494941 -0.00121827 0.05377506
v -0.00435667 -0.00048851 0.05456226
v -0.00463469 0.00055779 0.05473955
v -0.00557222 0.00132310 0.05424179
v -0.00661520 0.00148871 0.05347157
v -0.00713413 0.00087784 0.05279146
v -0.00706293 -0.00137677 0.05597670
v -0.00615065 -0.00153023 0.05664117
v -0.00634556 -0.00044007 0.05677513
v -0.00735790 -0.00031338 0.05621847
v -0.00593609 0.00058551 0.05034612
v -0.00521182 -0.00005714 0.05059611
v -0.00441097 -0.00005251 0.05113317
v -0.00398654 0.00056608 0.05165267
v -0.00422992 0.00135106 0.05178754
v -0.00492841 0.00189170 0.05149461
v -0.00572947 0.00196986 0.05097513
v -0.00617968 0.00145328 0.05049858
v -0.00445437 0.00184949 0.04588651
v -0.00376255 0.00125570 0.04600415
v -0.00291828 0.00139754 0.04633680
v -0.00258942 0.00208890 0.04662329
v -0.00288894 0.00273456 0.04667303
v -0.00343105 0.00310840 0.04654789
v -0.00409003 0.00320837 0.04631573
v -0.00456861 0.00273697 0.04603675
v -0.00476936 -0.00137220 0.05666441
v -0.00544976 -0.00225077 0.05576641
v -0.00659788 -0.00208043 0.05482942
v -0.00757165 -0.00099575 0.05434348
v -0.00793572 0.00033503 0.05460857
v -0.00736424 0.00109853 0.05545912
v -0.00616836 0.00090096 0.05640983
v -0.00508569 -0.00006867 0.05694320
v -0.00307934 0.00293386 0.04179531
v -0.00248137 0.00229497 0.04193433
v -0.00164671 0.00232337 0.04212978
v -0.00119781 0.00303622 0.04222728
v -0.00140197 0.00385093 0.04213898
v -0.00197232 0.00434286 0.04198682
v -0.00265883 0.00437339 0.04185872
v -0.00313535 0.00380750 0.04177431
v -0.00135255 0.00394832 0.03153536
v -0.00059940 0.00294634 0.03174997
v 0.00061291 0.00272160 0.03178503
v 0.00157566 0.00346009 0.03162585
v 0.00167194 0.00477920 0.03128233
v 0.00080644 0.00592253 0.03098338
v -0.00040359 0.00601257 0.03100077
v -0.00125398 0.00513274 0.03124433
v 0.00031492 0.00463048 0.03627402
v -0.00047244 0.00547968 0.03597460
v -0.00130496 0.00538804 0.03590070
v -0.00179961 0.00458193 0.03605294
v -0.00180924 0.00369246 0.03633022
v -0.00127473 0.00294808 0.03657391
v -0.00035694 0.00278396 0.03668590
v 0.00039059 0.00348527 0.03658938
v -0.00422207 0.00251884 0.04895205
v -0.00494444 0.00260718 0.04860406
v -0.00539545 0.00209877 0.04823322
v -0.00521096 0.00121881 0.04806359
v -0.00450773 0.00064855 0.04821694
v -0.00368608 0.00074911 0.04862072
v -0.00331252 0.00139415 0.04901185
v -0.00359629 0.00208519 0.04912568
v -0.00265222 0.00372128 0.04422199
v -0.00331581 0.00380620 0.04406190
v -0.00382053 0.00333096 0.04388701
v -0.00374392 0.00244755 0.04381632
v -0.00308157 0.00181876 0.04393814
v -0.00224009 0.00192317 0.04419401
v -0.00187836 0.00264301 0.04437294
v -0.00213287 0.00333709 0.04434781
v -0.00132287 0.00490692 0.03946169
v -0.00202810 0.00485799 0.03934505
v -0.00244683 0.00419569 0.03936961
v -0.00239662 0.00336122 0.03951607
v -0.00187480 0.00271274 0.03970084
v -0.00106086 0.00264032 0.03985828
v -0.00051230 0.00332401 0.03987288
v -0.00067121 0.00427982 0.03968559
v -0.00542031 -0.00159307 0.05710059
v -0.00592256 -0.00233554 0.05653661
v -0.00689036 -0.00218132 0.05572305
v -0.00771364 -0.00126428 0.05530244
v -0.00803059 -0.00011815 0.05559095
v -0.00752486 0.00052073 0.05629918
v -0.00647346 0.00039113 0.05702701
v -0.00565364 -0.00042232 0.05730333
v -0.00427414 0.00031906 0.04966535
v -0.00462467 0.00028342 0.04950827
v -0.00496743 -0.00011368 0.05073839
v -0.00463163 -0.00011140 0.05096370
v -0.00495534 -0.00062464 0.05224033
v -0.00528552 -0.00060273 0.05198700
v -0.00278962 0.00157834 0.04516681
v -0.00314719 0.00152118 0.04503786
v -0.00349723 0.00123908 0.04609447
v -0.00314420 0.00129969 0.04623389
v -0.00386968 0.00094008 0.04718836
v -0.00352113 0.00099553 0.04734171
v -0.00158844 0.00243756 0.04100478
v -0.00196472 0.00244550 0.04092490
v -0.00224848 0.00224293 0.04198743
v -0.00187400 0.00225580 0.04207511
v -0.00253199 0.00202471 0.04299452
v -0.00216114 0.00205497 0.04309225
v -0.00425945 0.00062287 0.04834377
v -0.00390244 0.00067654 0.04847572
v -0.00282815 0.00178386 0.04400703
v -0.00246576 0.00182846 0.04412714
v -0.00177909 0.00256498 0.04098041
v -0.00207017 0.00237167 0.04205246
v -0.00236226 0.00216135 0.04306530
v -0.00266872 0.00192669 0.04408916
v -0.00299476 0.00166936 0.04512445
v -0.00334933 0.00138843 0.04618658
v -0.00372394 0.00108672 0.04728820
v -0.00410793 0.00076853 0.04843507
v -0.00447454 0.00041953 0.04961623
v -0.00482414 0.00000413 0.05088671
v -0.00515015 -0.00050228 0.05216051
v -0.00763790 0.00010681 0.05616259
v -0.00780562 0.00036651 0.05602050
v -0.00781604 0.00063598 0.05568685
v -0.00782881 0.00076949 0.05514958
v -0.00797263 0.00040382 0.05544252
v -0.00795780 0.00013964 0.05578760
v -0.00776055 -0.00001260 0.05601225
v -0.00754418 -0.00009725 0.05615314
v -0.00769844 0.00071176 0.05581987
v -0.00771274 0.00041752 0.05611269
v -0.00759689 0.00011585 0.05620209
v -0.00745765 -0.00019763 0.05618349
v -0.00777442 -0.00010625 0.05596740
v -0.00798374 0.00004775 0.05571751
v -0.00800272 0.00030649 0.05536860
v -0.00780391 0.00082344 0.05503796
v -0.00791566 0.00053286 0.05522382
v -0.00791068 0.00056135 0.05531631
v -0.00782141 0.00069202 0.05546129
v -0.00774678 0.00076294 0.05546153
v -0.00759147 0.00000572 0.05615792
v -0.00753827 -0.00001612 0.05619426
v -0.00740787 -0.00006965 0.05628341
v -0.00765360 0.00000023 0.05610168
v -0.00765703 -0.00005310 0.05607967
v -0.00766231 -0.00013860 0.05604388
v -0.00767038 -0.00026670 0.05599063
v -0.00752993 -0.00055353 0.05594171
v -0.00716831 -0.00048187 0.05625744
v 0.00056091 0.00632986 0.02806919
v 0.00083100 0.00608428 0.02802455
v 0.00111202 0.00622998 0.02804112
v 0.00046335 0.00604732 0.03096530
v 0.00017431 0.00588122 0.03093961
v -0.00009271 0.00608278 0.03097466
v -0.00048596 0.00580706 0.03400569
v -0.00006012 0.00583375 0.03339661
v -0.00032618 0.00582084 0.03327472
v -0.00062279 0.00580719 0.03339862
v -0.00109148 0.00554571 0.03478279
v -0.00142454 0.00514549 0.03484489
v -0.00165138 0.00470003 0.03496166
v -0.00174745 0.00422916 0.03510659
v -0.00168821 0.00375273 0.03525320
v -0.00147745 0.00331380 0.03538817
v -0.00111892 0.00295545 0.03549801
v -0.00065694 0.00275168 0.03557040
v -0.00013583 0.00277650 0.03559296
v 0.00034233 0.00302485 0.03556211
v 0.00067549 0.00349163 0.03547406
v 0.00079605 0.00407883 0.03533245
v 0.00063639 0.00468843 0.03514084
v 0.00028133 0.00523078 0.03495636
v -0.00018434 0.00561626 0.03483609
v -0.00066091 0.00575664 0.03473847
v -0.00024039 0.00578903 0.03401735
v -0.00069531 0.00576590 0.03397845
v -0.00132245 0.00468130 0.02996083
v -0.00114125 0.00530965 0.02982040
v -0.00074108 0.00582951 0.02968349
v -0.00015450 0.00616565 0.02956166
v 0.00023410 0.00620632 0.02952193
v 0.00050266 0.00598275 0.02948207
v 0.00078768 0.00613865 0.02950321
v 0.00118940 0.00598149 0.02951698
v 0.00173580 0.00546562 0.02962374
v 0.00204676 0.00477485 0.02980493
v 0.00210535 0.00404915 0.02999636
v 0.00189465 0.00342849 0.03013383
v 0.00147284 0.00295973 0.03022943
v 0.00089809 0.00268974 0.03029525
v 0.00024684 0.00266459 0.03031786
v -0.00040452 0.00293030 0.03028384
v -0.00094211 0.00340822 0.03020503
v -0.00125208 0.00401969 0.03009319
v -0.00151558 0.00443732 0.03270901
v -0.00137856 0.00497544 0.03255735
v -0.00107744 0.00546050 0.03242419
v -0.00065511 0.00584683 0.03232437
v -0.00039018 0.00593415 0.03228707
v -0.00011268 0.00583127 0.03222722
v 0.00016647 0.00593195 0.03230168
v 0.00045510 0.00583768 0.03234048
v 0.00096579 0.00538198 0.03245570
v 0.00131490 0.00476278 0.03264499
v 0.00143733 0.00409138 0.03284500
v 0.00126804 0.00347903 0.03299229
v 0.00088072 0.00300420 0.03309034
v 0.00034909 0.00274532 0.03314253
v -0.00023539 0.00272219 0.03314309
v -0.00078126 0.00295458 0.03308602
v -0.00121419 0.00336617 0.03298555
v -0.00145987 0.00388066 0.03285578
v 0.00065793 0.00464778 0.02842919
f 1 90 272
f 1 272 93
f 90 2 91
f 90 91 272
f 272 91 34
f 272 34 92
f 93 272 92
f 93 92 35
f 2 94 273
f 2 273 91
f 94 369 95
f 94 95 273
f 273 95 33
f 273 33 96
f 91 273 96
f 91 96 34
f 97 3 98
f 97 98 274
f 274 98 32
f 274 32 99
f 95 274 99
f 95 99 33
f 3 100 275
f 3 275 98
f 100 4 101
f 100 101 275
f 275 101 31
f 275 31 102
f 98 275 102
f 98 102 32
f 4 103 276
f 4 276 101
f 103 5 104
f 103 104 276
f 276 104 38
f 276 38 105
f 101 276 105
f 101 105 31
f 5 106 277
f 5 277 104
f 106 6 107
f 106 107 277
f 277 107 37
f 277 37 108
f 104 277 108
f 104 108 38
f 6 109 278
f 6 278 107
f 109 7 110
f 109 110 278
f 278 110 36
f 278 36 111
f 107 278 111
f 107 111 37
f 7 112 279
f 7 279 110
f 112 1 93
f 112 93 279
f 279 93 35
f 279 35 113
f 110 279 113
f 110 113 36
f 16 114 280
f 16 280 117
f 114 8 115
f 114 115 280
f 280 115 9
f 280 9 116
f 117 280 116
f 117 116 10
f 16 117 281
f 16 281 120
f 117 10 118
f 117 118 281
f 281 118 11
f 281 11 119
f 120 281 119
f 120 119 12
f 16 120 282
f 16 282 123
f 120 12 121
f 120 121 282
f 282 121 13
f 282 13 122
f 123 282 122
f 123 122 14
f 123 14 124
f 123 124 419
f 418 419 124
f 418 124 407
f 424 425 283
f 424 283 423
f 2 90 284
f 2 284 128
f 90 1 126
f 90 126 284
f 284 126 64
f 284 64 127
f 128 284 127
f 128 127 65
f 94 2 128
f 94 128 285
f 285 128 65
f 285 65 129
f 3 97 286
f 3 286 131
f 131 286 130
f 131 130 66
f 4 100 287
f 4 287 133
f 100 3 131
f 100 131 287
f 287 131 66
f 287 66 132
f 133 287 132
f 133 132 67
f 5 103 288
f 5 288 135
f 103 4 133
f 103 133 288
f 288 133 67
f 288 67 134
f 135 288 134
f 135 134 61
f 6 106 289
f 6 289 137
f 106 5 135
f 106 135 289
f 289 135 61
f 289 61 136
f 137 289 136
f 137 136 62
f 7 109 290
f 7 290 139
f 109 6 137
f 109 137 290
f 290 137 62
f 290 62 138
f 139 290 138
f 139 138 63
f 1 112 291
f 1 291 126
f 112 7 139
f 112 139 291
f 291 139 63
f 291 63 140
f 126 291 140
f 126 140 64
f 18 141 292
f 18 292 144
f 141 17 142
f 141 142 292
f 292 142 71
f 292 71 143
f 144 292 143
f 144 143 72
f 145 18 144
f 145 144 293
f 293 144 72
f 293 72 146
f 19 147 294
f 19 294 149
f 149 294 148
f 149 148 73
f 20 150 295
f 20 295 152
f 150 19 149
f 150 149 295
f 295 149 73
f 295 73 151
f 152 295 151
f 152 151 74
f 21 153 296
f 21 296 155
f 153 20 152
f 153 152 296
f 296 152 74
f 296 74 154
f 155 296 154
f 155 154 68
f 22 156 297
f 22 297 158
f 156 21 155
f 156 155 297
f 297 155 68
f 297 68 157
f 158 297 157
f 158 157 69
f 23 159 298
f 23 298 161
f 159 22 158
f 159 158 298
f 298 158 69
f 298 69 160
f 161 298 160
f 161 160 70
f 17 162 299
f 17 299 142
f 162 23 161
f 162 161 299
f 299 161 70
f 299 70 163
f 142 299 163
f 142 163 71
f 32 102 300
f 32 300 166
f 102 31 164
f 102 164 300
f 300 164 82
f 300 82 165
f 166 300 165
f 166 165 83
f 33 99 301
f 33 301 168
f 99 32 166
f 99 166 301
f 301 166 83
f 301 83 167
f 168 301 167
f 168 167 84
f 34 96 302
f 34 302 170
f 96 33 168
f 96 168 302
f 302 168 84
f 302 84 169
f 170 302 169
f 170 169 85
f 35 92 303
f 35 303 172
f 92 34 170
f 92 170 303
f 303 170 85
f 303 85 171
f 172 303 171
f 172 171 86
f 36 113 304
f 36 304 174
f 113 35 172
f 113 172 304
f 304 172 86
f 304 86 173
f 400 414 401
f 400 401 87
f 37 111 305
f 37 305 176
f 111 36 174
f 111 174 305
f 176 305 175
f 176 175 88
f 38 108 306
f 38 306 178
f 108 37 176
f 108 176 306
f 306 176 88
f 306 88 177
f 178 306 177
f 178 177 89
f 31 105 307
f 31 307 164
f 105 38 178
f 105 178 307
f 307 178 89
f 307 89 179
f 164 307 179
f 164 179 82
f 25 180 308
f 25 308 183
f 180 24 181
f 180 181 308
f 308 181 78
f 308 78 182
f 183 308 182
f 183 182 79
f 184 25 183
f 184 183 309
f 309 183 79
f 309 79 185
f 26 186 310
f 26 310 188
f 188 310 187
f 188 187 80
f 27 189 311
f 27 311 191
f 189 26 188
f 189 188 311
f 311 188 80
f 311 80 190
f 191 311 190
f 191 190 81
f 28 192 312
f 28 312 194
f 192 27 191
f 192 191 312
f 312 191 81
f 312 81 193
f 194 312 193
f 194 193 75
f 29 195 313
f 29 313 197
f 195 28 194
f 195 194 313
f 313 194 75
f 313 75 196
f 197 313 196
f 197 196 76
f 30 198 314
f 30 314 200
f 198 29 197
f 198 197 314
f 314 197 76
f 314 76 199
f 200 314 199
f 200 199 77
f 24 201 315
f 24 315 181
f 201 30 200
f 201 200 315
f 315 200 77
f 315 77 202
f 181 315 202
f 181 202 78
f 488 489 316
f 488 316 206
f 489 472 204
f 489 204 316
f 471 454 46
f 471 46 205
f 470 471 205
f 470 205 47
f 486 487 317
f 486 317 209
f 487 488 206
f 487 206 317
f 469 470 47
f 469 47 208
f 468 469 208
f 468 208 48
f 484 485 318
f 484 318 212
f 485 486 209
f 485 209 318
f 467 468 48
f 467 48 211
f 466 467 211
f 466 211 49
f 482 483 319
f 482 319 215
f 483 484 212
f 483 212 319
f 465 466 49
f 465 49 214
f 464 465 214
f 464 214 50
f 480 481 320
f 480 320 218
f 481 482 215
f 481 215 320
f 463 464 50
f 463 50 217
f 462 463 217
f 462 217 51
f 479 480 218
f 479 218 321
f 461 462 51
f 461 51 220
f 474 475 322
f 474 322 223
f 456 457 222
f 456 222 52
f 472 473 323
f 472 323 204
f 473 474 223
f 473 223 323
f 455 456 52
f 455 52 225
f 454 455 225
f 454 225 46
f 54 226 324
f 54 324 228
f 226 53 227
f 226 227 324
f 324 227 447
f 324 447 448
f 228 324 448
f 228 448 449
f 55 229 325
f 55 325 230
f 229 54 228
f 229 228 325
f 325 228 449
f 325 449 450
f 230 325 450
f 230 450 451
f 56 231 326
f 56 326 232
f 231 55 230
f 231 230 326
f 326 230 451
f 326 451 436
f 232 326 436
f 232 436 437
f 57 233 327
f 57 327 234
f 233 56 232
f 233 232 327
f 327 232 437
f 327 437 438
f 234 327 438
f 234 438 439
f 58 235 328
f 58 328 236
f 235 57 234
f 235 234 328
f 328 234 439
f 328 439 440
f 236 328 440
f 236 440 441
f 59 237 329
f 59 329 238
f 237 58 236
f 237 236 329
f 329 236 441
f 329 441 442
f 238 329 442
f 238 442 443
f 60 239 330
f 60 330 240
f 239 59 238
f 239 238 330
f 330 238 443
f 330 443 444
f 240 330 444
f 240 444 445
f 53 241 331
f 53 331 227
f 241 60 240
f 241 240 331
f 331 240 445
f 331 445 446
f 227 331 446
f 227 446 447
f 62 136 332
f 62 332 243
f 136 61 242
f 136 242 332
f 332 242 21
f 332 21 156
f 243 332 156
f 243 156 22
f 63 138 333
f 63 333 244
f 138 62 243
f 138 243 333
f 333 243 22
f 333 22 159
f 244 333 159
f 244 159 23
f 64 140 334
f 64 334 245
f 140 63 244
f 140 244 334
f 334 244 23
f 334 23 162
f 245 334 162
f 245 162 17
f 65 127 335
f 65 335 246
f 127 64 245
f 127 245 335
f 335 245 17
f 335 17 141
f 246 335 141
f 246 141 18
f 129 65 246
f 129 246 336
f 336 246 18
f 336 18 145
f 66 130 337
f 66 337 247
f 247 337 147
f 247 147 19
f 67 132 338
f 67 338 248
f 132 66 247
f 132 247 338
f 338 247 19
f 338 19 150
f 248 338 150
f 248 150 20
f 61 134 339
f 61 339 242
f 134 67 248
f 134 248 339
f 339 248 20
f 339 20 153
f 242 339 153
f 242 153 21
f 69 157 340
f 69 340 250
f 157 68 249
f 157 249 340
f 340 249 28
f 340 28 195
f 250 340 195
f 250 195 29
f 70 160 341
f 70 341 251
f 160 69 250
f 160 250 341
f 341 250 29
f 341 29 198
f 251 341 198
f 251 198 30
f 71 163 342
f 71 342 252
f 163 70 251
f 163 251 342
f 342 251 30
f 342 30 201
f 252 342 201
f 252 201 24
f 72 143 343
f 72 343 253
f 143 71 252
f 143 252 343
f 343 252 24
f 343 24 180
f 253 343 180
f 253 180 25
f 146 72 253
f 146 253 344
f 344 253 25
f 344 25 184
f 73 148 345
f 73 345 254
f 254 345 186
f 254 186 26
f 74 151 346
f 74 346 255
f 151 73 254
f 151 254 346
f 346 254 26
f 346 26 189
f 255 346 189
f 255 189 27
f 68 154 347
f 68 347 249
f 154 74 255
f 154 255 347
f 347 255 27
f 347 27 192
f 249 347 192
f 249 192 28
f 76 196 348
f 76 348 257
f 196 75 256
f 196 256 348
f 348 256 54
f 348 54 229
f 257 348 229
f 257 229 55
f 77 199 349
f 77 349 258
f 199 76 257
f 199 257 349
f 349 257 55
f 349 55 231
f 258 349 231
f 258 231 56
f 78 202 350
f 78 350 259
f 202 77 258
f 202 258 350
f 350 258 56
f 350 56 233
f 259 350 233
f 259 233 57
f 79 182 351
f 79 351 260
f 182 78 259
f 182 259 351
f 351 259 57
f 351 57 235
f 260 351 235
f 260 235 58
f 185 79 260
f 185 260 352
f 352 260 58
f 352 58 237
f 261 352 237
f 261 237 59
f 80 187 353
f 80 353 262
f 187 376 261
f 187 261 353
f 353 261 59
f 353 59 239
f 262 353 239
f 262 239 60
f 81 190 354
f 81 354 263
f 190 80 262
f 190 262 354
f 354 262 60
f 354 60 241
f 263 354 241
f 263 241 53
f 75 193 355
f 75 355 256
f 193 81 263
f 193 263 355
f 355 263 53
f 355 53 226
f 256 355 226
f 256 226 54
f 83 165 356
f 83 356 265
f 165 82 264
f 165 264 356
f 356 264 12
f 356 12 119
f 265 356 119
f 265 119 11
f 84 167 357
f 84 357 266
f 167 83 265
f 167 265 357
f 357 265 11
f 357 11 118
f 266 357 118
f 266 118 10
f 85 169 358
f 85 358 267
f 169 84 266
f 169 266 358
f 358 266 10
f 358 10 116
f 267 358 116
f 267 116 9
f 86 171 359
f 86 359 268
f 171 85 267
f 171 267 359
f 359 267 9
f 359 9 115
f 268 359 115
f 268 115 8
f 87 401 402
f 87 402 269
f 173 86 268
f 173 268 360
f 360 268 8
f 360 8 125
f 269 402 403
f 269 403 15
f 88 175 361
f 88 361 270
f 398 399 87
f 398 87 269
f 397 398 269
f 397 269 15
f 270 361 124
f 270 124 14
f 89 177 362
f 89 362 271
f 177 88 270
f 177 270 362
f 362 270 14
f 362 14 122
f 271 362 122
f 271 122 13
f 82 179 363
f 82 363 264
f 179 89 271
f 179 271 363
f 363 271 13
f 363 13 121
f 264 363 121
f 264 121 12
f 95 368 97
f 95 97 274
f 261 377 185
f 261 185 352
f 393 394 365
f 393 365 382
f 365 394 395
f 365 395 366
f 366 395 396
f 366 396 369
f 389 390 371
f 389 371 384
f 371 390 391
f 371 391 372
f 372 391 392
f 372 392 374
f 374 392 393
f 374 393 382
f 377 386 387
f 377 387 378
f 378 387 388
f 378 388 380
f 380 388 389
f 380 389 384
f 366 369 94
f 366 94 285
f 366 285 129
f 366 129 365
f 97 368 367
f 97 367 286
f 286 367 364
f 286 364 130
f 374 145 293
f 374 293 372
f 372 293 146
f 372 146 371
f 147 375 373
f 147 373 294
f 294 373 370
f 294 370 148
f 380 184 309
f 380 309 378
f 378 309 185
f 378 185 377
f 186 381 379
f 186 379 310
f 310 379 376
f 310 376 187
f 365 129 336
f 365 336 382
f 382 336 145
f 382 145 374
f 130 364 383
f 130 383 337
f 337 383 375
f 337 375 147
f 371 146 344
f 371 344 384
f 384 344 184
f 384 184 380
f 148 370 385
f 148 385 345
f 345 385 381
f 345 381 186
f 368 95 369
f 368 369 396
f 261 376 386
f 261 386 377
f 387 386 376
f 387 376 379
f 388 387 379
f 388 379 381
f 389 388 381
f 389 381 385
f 370 390 389
f 370 389 385
f 391 390 370
f 391 370 373
f 392 391 373
f 392 373 375
f 393 392 375
f 393 375 383
f 364 394 393
f 364 393 383
f 395 394 364
f 395 364 367
f 396 395 367
f 396 367 368
f 361 406 407
f 361 407 124
f 175 405 406
f 175 406 361
f 305 174 412
f 305 412 416
f 174 304 413
f 174 413 412
f 410 411 173
f 410 173 360
f 409 410 360
f 409 360 125
f 404 420 421
f 283 408 422
f 283 422 423
f 406 405 399
f 406 399 398
f 407 406 398
f 407 398 397
f 417 418 407
f 417 407 397
f 421 422 408
f 421 408 404
f 403 402 410
f 403 410 409
f 402 401 411
f 402 411 410
f 412 413 414
f 412 414 400
f 415 416 412
f 415 412 400
f 413 304 173
f 413 173 411
f 414 413 411
f 414 411 401
f 405 416 415
f 405 415 399
f 305 416 405
f 305 405 175
f 400 87 399
f 400 399 415
f 404 417 397
f 404 397 15
f 404 15 420
f 408 418 417
f 408 417 404
f 283 419 418
f 283 418 408
f 123 419 283
f 123 283 425
f 421 420 15
f 421 15 403
f 409 422 421
f 409 421 403
f 423 422 409
f 423 409 125
f 8 424 423
f 8 423 125
f 114 425 424
f 114 424 8
f 16 123 425
f 16 425 114
f 428 427 459
f 428 459 460
f 427 426 458
f 427 458 459
f 429 478 479
f 429 479 321
f 460 461 220
f 460 220 428
f 475 476 431
f 475 431 322
f 457 458 426
f 457 426 222
f 432 452 433
f 432 433 434
f 432 434 435
f 432 435 453
f 429 430 477
f 429 477 478
f 430 431 476
f 430 476 477
f 437 436 221
f 437 221 45
f 438 437 45
f 438 45 224
f 439 438 224
f 439 224 39
f 440 439 39
f 440 39 203
f 441 440 203
f 441 203 40
f 442 441 40
f 442 40 207
f 443 442 207
f 443 207 41
f 444 443 41
f 444 41 210
f 445 444 210
f 445 210 42
f 446 445 42
f 446 42 213
f 447 446 213
f 447 213 43
f 448 447 43
f 448 43 216
f 449 448 216
f 449 216 44
f 450 449 44
f 450 44 219
f 451 450 452
f 451 452 432
f 436 451 432
f 436 432 453
f 452 450 219
f 452 219 433
f 436 453 435
f 436 435 221
f 204 323 455
f 204 455 454
f 323 223 456
f 323 456 455
f 223 322 457
f 223 457 456
f 322 431 458
f 322 458 457
f 459 458 431
f 459 431 430
f 460 459 430
f 460 430 429
f 429 321 461
f 429 461 460
f 321 218 462
f 321 462 461
f 218 320 463
f 218 463 462
f 320 215 464
f 320 464 463
f 215 319 465
f 215 465 464
f 319 212 466
f 319 466 465
f 212 318 467
f 212 467 466
f 318 209 468
f 318 468 467
f 209 317 469
f 209 469 468
f 317 206 470
f 317 470 469
f 206 316 471
f 206 471 470
f 316 204 454
f 316 454 471
f 39 224 473
f 39 473 472
f 224 45 474
f 224 474 473
f 45 221 475
f 45 475 474
f 221 435 476
f 221 476 475
f 477 476 435
f 477 435 434
f 478 477 434
f 478 434 433
f 479 478 433
f 479 433 219
f 219 44 480
f 219 480 479
f 44 216 481
f 44 481 480
f 216 43 482
f 216 482 481
f 43 213 483
f 43 483 482
f 213 42 484
f 213 484 483
f 42 210 485
f 42 485 484
f 210 41 486
f 210 486 485
f 41 207 487
f 41 487 486
f 207 40 488
f 207 488 487
f 40 203 489
f 40 489 488
f 203 39 472
f 203 472 489
f 490 205 46
f 490 47 205
f 490 208 47
f 490 48 208
f 490 211 48
f 490 49 211
f 490 214 49
f 490 50 214
f 490 217 50
f 490 51 217
f 490 220 51
f 490 428 220
f 490 427 428
f 490 426 427
f 490 222 426
f 490 52 222
f 490 225 52
f 490 46 225

