ISO-10303-21;
HEADER;
FILE_DESCRIPTION (( 'STEP AP214' ),
    '1' );
FILE_NAME ('base_link_collision.stp',
    '2026-08-17T21:00:40',
    ( '' ),
    ( '' ),
    'SwSTEP 2.0',
    'SolidWorks 2025',
    '' );
FILE_SCHEMA (( 'AUTOMOTIVE_DESIGN' ));
ENDSEC;

DATA;
#1 = ORIENTED_EDGE ( 'NONE', *, *, #780, .F. ) ;
#2 = EDGE_CURVE ( 'NONE', #801, #613, #775, .T. ) ;
#3 = VECTOR ( 'NONE', #673, 39.37007874015748143 ) ;
#4 = CARTESIAN_POINT ( 'NONE',  ( 0.3937007874015748254, 1.968503937007873850, 0.5905511811023621549 ) ) ;
#5 = ORIENTED_EDGE ( 'NONE', *, *, #742, .F. ) ;
#6 = ADVANCED_FACE ( 'NONE', ( #796 ), #153, .T. ) ;
#7 = AXIS2_PLACEMENT_3D ( 'NONE', #670, #477, #611 ) ;
#8 = CARTESIAN_POINT ( 'NONE',  ( -6.829619984160658046E-17, 1.968503937007873850, 0.5905511811023621549 ) ) ;
#9 = CARTESIAN_POINT ( 'NONE',  ( 0.000000000000000000, 0.4921259842519684624, 0.000000000000000000 ) ) ;
#10 = ORIENTED_EDGE ( 'NONE', *, *, #620, .T. ) ;
#11 = ORIENTED_EDGE ( 'NONE', *, *, #358, .T. ) ;
#12 = DIRECTION ( 'NONE',  ( -0.000000000000000000, -0.000000000000000000, -1.000000000000000000 ) ) ;
#13 = CARTESIAN_POINT ( 'NONE',  ( 0.000000000000000000, 0.9842519685039370358, 0.000000000000000000 ) ) ;
#14 = VERTEX_POINT ( 'NONE', #378 ) ;
#15 = EDGE_CURVE ( 'NONE', #666, #713, #423, .T. ) ;
#16 = DIRECTION ( 'NONE',  ( 0.000000000000000000, 0.000000000000000000, 1.000000000000000000 ) ) ;
#17 = EDGE_CURVE ( 'NONE', #101, #471, #500, .T. ) ;
#18 = DIRECTION ( 'NONE',  ( -0.000000000000000000, -1.000000000000000000, -0.000000000000000000 ) ) ;
#19 = CIRCLE ( 'NONE', #48, 1.181102362204724310 ) ;
#20 = DIRECTION ( 'NONE',  ( -0.000000000000000000, 1.000000000000000000, -0.000000000000000000 ) ) ;
#21 = EDGE_LOOP ( 'NONE', ( #655, #10, #680, #714 ) ) ;
#22 = DIRECTION ( 'NONE',  ( -0.000000000000000000, -1.000000000000000000, -0.000000000000000000 ) ) ;
#23 = DIRECTION ( 'NONE',  ( -0.000000000000000000, -1.000000000000000000, -0.000000000000000000 ) ) ;
#24 = AXIS2_PLACEMENT_3D ( 'NONE', #361, #184, #368 ) ;
#25 = CIRCLE ( 'NONE', #505, 0.09842519685039372024 ) ;
#26 = DIRECTION ( 'NONE',  ( 0.000000000000000000, -1.000000000000000000, 0.000000000000000000 ) ) ;
#27 = EDGE_LOOP ( 'NONE', ( #414, #724, #394, #403 ) ) ;
#28 = DIRECTION ( 'NONE',  ( 0.000000000000000000, 0.000000000000000000, 1.000000000000000000 ) ) ;
#29 = DIRECTION ( 'NONE',  ( 1.000000000000000000, 0.000000000000000000, 0.000000000000000000 ) ) ;
#30 = ORIENTED_EDGE ( 'NONE', *, *, #619, .T. ) ;
#31 = CARTESIAN_POINT ( 'NONE',  ( -1.181102362204724310, 1.968503937007874072, 0.1968503937007873850 ) ) ;
#32 = ORIENTED_EDGE ( 'NONE', *, *, #453, .F. ) ;
#33 = DIRECTION ( 'NONE',  ( 0.000000000000000000, 1.000000000000000000, 0.000000000000000000 ) ) ;
#34 = COLOUR_RGB ( '',0.6470588235294117974, 0.6196078431372549211, 0.5882352941176470784 ) ;
#35 = CARTESIAN_POINT ( 'NONE',  ( -1.082677165354330784, 0.5905511811023621549, 0.5905511811023621549 ) ) ;
#36 = VECTOR ( 'NONE', #337, 39.37007874015748143 ) ;
#37 = EDGE_CURVE ( 'NONE', #113, #360, #65, .T. ) ;
#38 = VERTEX_POINT ( 'NONE', #261 ) ;
#39 = CIRCLE ( 'NONE', #496, 0.3937007874015748810 ) ;
#40 = DIRECTION ( 'NONE',  ( -0.000000000000000000, 1.000000000000000000, -0.000000000000000000 ) ) ;
#41 = ORIENTED_EDGE ( 'NONE', *, *, #260, .T. ) ;
#42 = PRODUCT_DEFINITION_SHAPE ( 'NONE', 'NONE',  #839 ) ;
#43 = DIRECTION ( 'NONE',  ( -0.000000000000000000, -0.000000000000000000, 1.000000000000000000 ) ) ;
#44 = EDGE_CURVE ( 'NONE', #385, #456, #478, .T. ) ;
#45 = VERTEX_POINT ( 'NONE', #708 ) ;
#46 = EDGE_CURVE ( 'NONE', #179, #759, #72, .T. ) ;
#47 = FACE_OUTER_BOUND ( 'NONE', #603, .T. ) ;
#48 = AXIS2_PLACEMENT_3D ( 'NONE', #646, #381, #769 ) ;
#49 = ORIENTED_EDGE ( 'NONE', *, *, #797, .F. ) ;
#50 = SHAPE_REPRESENTATION_RELATIONSHIP ( 'NONE' , 'NONE' ,  #491, #111 ) ;
#51 = DIRECTION ( 'NONE',  ( -0.000000000000000000, 1.000000000000000000, -0.000000000000000000 ) ) ;
#52 = DIRECTION ( 'NONE',  ( 0.000000000000000000, 0.000000000000000000, 1.000000000000000000 ) ) ;
#53 = LENGTH_MEASURE_WITH_UNIT ( LENGTH_MEASURE( 0.02539999999999999897 ), #502 );
#54 = FACE_OUTER_BOUND ( 'NONE', #241, .T. ) ;
#55 = CYLINDRICAL_SURFACE ( 'NONE', #819, 0.09842519685039372024 ) ;
#56 = CARTESIAN_POINT ( 'NONE',  ( 1.082677165354330784, 1.968503937007874072, 0.4921259842519684624 ) ) ;
#57 = EDGE_CURVE ( 'NONE', #215, #618, #389, .T. ) ;
#58 = DIRECTION ( 'NONE',  ( 0.000000000000000000, -1.000000000000000000, 0.000000000000000000 ) ) ;
#59 = DIRECTION ( 'NONE',  ( 0.000000000000000000, 0.000000000000000000, 1.000000000000000000 ) ) ;
#60 = CIRCLE ( 'NONE', #534, 3.838582677165354617 ) ;
#61 = EDGE_CURVE ( 'NONE', #540, #247, #104, .T. ) ;
#62 = CIRCLE ( 'NONE', #178, 0.3937007874015748810 ) ;
#63 = CARTESIAN_POINT ( 'NONE',  ( -1.082677165354331006, 0.5905511811023621549, -0.5905511811023621549 ) ) ;
#64 = AXIS2_PLACEMENT_3D ( 'NONE', #659, #787, #536 ) ;
#65 = LINE ( 'NONE', #577, #371 ) ;
#66 = APPLICATION_PROTOCOL_DEFINITION ( 'draft international standard', 'automotive_design', 1998, #330 ) ;
#67 = LENGTH_MEASURE_WITH_UNIT ( LENGTH_MEASURE( 0.02539999999999999897 ), #442 );
#68 = ORIENTED_EDGE ( 'NONE', *, *, #259, .F. ) ;
#69 = CARTESIAN_POINT ( 'NONE',  ( 1.181102362204724088, 1.968503937007874072, -0.5905511811023621549 ) ) ;
#70 = ADVANCED_FACE ( 'NONE', ( #651 ), #590, .T. ) ;
#71 = CARTESIAN_POINT ( 'NONE',  ( -1.082677165354331006, 0.5905511811023621549, -0.4921259842519684624 ) ) ;
#72 = CIRCLE ( 'NONE', #202, 0.3937007874015748810 ) ;
#73 = PRODUCT_CONTEXT ( 'NONE', #374, 'mechanical' ) ;
#74 = DIRECTION ( 'NONE',  ( 0.000000000000000000, 1.000000000000000000, 0.000000000000000000 ) ) ;
#75 = VERTEX_POINT ( 'NONE', #513 ) ;
#76 = DIMENSIONAL_EXPONENTS ( 1.000000000000000000, 0.000000000000000000, 0.000000000000000000, 0.000000000000000000, 0.000000000000000000, 0.000000000000000000, 0.000000000000000000 ) ;
#77 = CIRCLE ( 'NONE', #7, 0.09842519685039372024 ) ;
#78 = CARTESIAN_POINT ( 'NONE',  ( -1.181102362204724310, 0.9842519685039370358, -0.1968503937007873850 ) ) ;
#79 = EDGE_CURVE ( 'NONE', #526, #727, #722, .T. ) ;
#80 = EDGE_LOOP ( 'NONE', ( #338, #668 ) ) ;
#81 = FACE_OUTER_BOUND ( 'NONE', #140, .T. ) ;
#82 = ORIENTED_EDGE ( 'NONE', *, *, #820, .F. ) ;
#83 = ORIENTED_EDGE ( 'NONE', *, *, #612, .T. ) ;
#84 = FACE_BOUND ( 'NONE', #80, .T. ) ;
#85 = ORIENTED_EDGE ( 'NONE', *, *, #586, .T. ) ;
#86 = DIRECTION ( 'NONE',  ( 0.000000000000000000, 0.000000000000000000, 1.000000000000000000 ) ) ;
#87 = CARTESIAN_POINT ( 'NONE',  ( 0.000000000000000000, 0.4921259842519684624, 0.000000000000000000 ) ) ;
#88 = EDGE_LOOP ( 'NONE', ( #367, #209, #85, #269 ) ) ;
#89 =( GEOMETRIC_REPRESENTATION_CONTEXT ( 3 ) GLOBAL_UNCERTAINTY_ASSIGNED_CONTEXT ( ( #782 ) ) GLOBAL_UNIT_ASSIGNED_CONTEXT ( ( #510, #263, #524 ) ) REPRESENTATION_CONTEXT ( 'NONE', 'WORKASPACE' ) );
#90 = PLANE ( 'NONE',  #508 ) ;
#91 = ORIENTED_EDGE ( 'NONE', *, *, #192, .T. ) ;
#92 = CARTESIAN_POINT ( 'NONE',  ( 0.000000000000000000, 0.000000000000000000, 0.000000000000000000 ) ) ;
#93 = CARTESIAN_POINT ( 'NONE',  ( -1.082677165354331006, 1.968503937007874072, -0.5905511811023621549 ) ) ;
#94 = VERTEX_POINT ( 'NONE', #790 ) ;
#95 = DIRECTION ( 'NONE',  ( -0.000000000000000000, -1.000000000000000000, -0.000000000000000000 ) ) ;
#96 = ADVANCED_FACE ( 'NONE', ( #216 ), #465, .F. ) ;
#97 = ORIENTED_EDGE ( 'NONE', *, *, #172, .F. ) ;
#98 = CARTESIAN_POINT ( 'NONE',  ( 0.000000000000000000, 0.5905511811023621549, 0.000000000000000000 ) ) ;
#99 = FACE_OUTER_BOUND ( 'NONE', #558, .T. ) ;
#100 = ADVANCED_FACE ( 'NONE', ( #461, #398 ), #602, .F. ) ;
#101 = VERTEX_POINT ( 'NONE', #529 ) ;
#102 = DIRECTION ( 'NONE',  ( 0.000000000000000000, 0.000000000000000000, 1.000000000000000000 ) ) ;
#103 = LINE ( 'NONE', #357, #383 ) ;
#104 = CIRCLE ( 'NONE', #207, 0.09842519685039372024 ) ;
#105 = ORIENTED_EDGE ( 'NONE', *, *, #797, .T. ) ;
#106 = SURFACE_SIDE_STYLE ('',( #830 ) ) ;
#107 = CIRCLE ( 'NONE', #688, 0.09842519685039378963 ) ;
#108 = PRODUCT_RELATED_PRODUCT_CATEGORY ( 'part', '', ( #238 ) ) ;
#109 = CARTESIAN_POINT ( 'NONE',  ( 0.3937007874015748254, 1.968503937007873850, 0.1968503937007875793 ) ) ;
#110 = ORIENTED_EDGE ( 'NONE', *, *, #578, .F. ) ;
#111 = ADVANCED_BREP_SHAPE_REPRESENTATION ( '', ( #570, #231 ), #749 ) ;
#112 = CARTESIAN_POINT ( 'NONE',  ( -1.181102362204724754, 1.968503937007874072, -0.5905511811023621549 ) ) ;
#113 = VERTEX_POINT ( 'NONE', #339 ) ;
#114 =( LENGTH_UNIT ( ) NAMED_UNIT ( * ) SI_UNIT ( $, .METRE. ) );
#115 = CYLINDRICAL_SURFACE ( 'NONE', #306, 0.3937007874015748810 ) ;
#116 = DIRECTION ( 'NONE',  ( -1.000000000000000000, 0.000000000000000000, 0.000000000000000000 ) ) ;
#117 = DIRECTION ( 'NONE',  ( 0.000000000000000000, 0.000000000000000000, -1.000000000000000000 ) ) ;
#118 = COLOUR_RGB ( '',0.6470588235294117974, 0.6196078431372549211, 0.5882352941176470784 ) ;
#119 = DIRECTION ( 'NONE',  ( 1.000000000000000000, 0.000000000000000000, -0.000000000000000000 ) ) ;
#120 = DIRECTION ( 'NONE',  ( -1.000000000000000000, 0.000000000000000000, 0.000000000000000000 ) ) ;
#121 = AXIS2_PLACEMENT_3D ( 'NONE', #123, #320, #59 ) ;
#122 = LINE ( 'NONE', #434, #142 ) ;
#123 = CARTESIAN_POINT ( 'NONE',  ( 1.082677165354330562, 1.968503937007874072, -0.4921259842519684624 ) ) ;
#124 = EDGE_CURVE ( 'NONE', #226, #709, #298, .T. ) ;
#125 = APPLICATION_PROTOCOL_DEFINITION ( 'draft international standard', 'automotive_design', 1998, #587 ) ;
#126 = DIRECTION ( 'NONE',  ( -0.000000000000000000, -1.000000000000000000, -0.000000000000000000 ) ) ;
#127 = AXIS2_PLACEMENT_3D ( 'NONE', #9, #774, #396 ) ;
#128 = DIRECTION ( 'NONE',  ( 1.000000000000000000, 0.000000000000000000, 0.000000000000000000 ) ) ;
#129 = VECTOR ( 'NONE', #20, 39.37007874015748143 ) ;
#130 = CARTESIAN_POINT ( 'NONE',  ( -1.181102362204724754, 0.5905511811023621549, -0.5905511811023621549 ) ) ;
#131 = ADVANCED_FACE ( 'NONE', ( #81 ), #589, .T. ) ;
#132 = AXIS2_PLACEMENT_3D ( 'NONE', #433, #692, #119 ) ;
#133 = ADVANCED_FACE ( 'NONE', ( #794 ), #268, .T. ) ;
#134 = DIRECTION ( 'NONE',  ( 0.000000000000000000, -0.000000000000000000, 1.000000000000000000 ) ) ;
#135 = ORIENTED_EDGE ( 'NONE', *, *, #358, .F. ) ;
#136 = ORIENTED_EDGE ( 'NONE', *, *, #402, .T. ) ;
#137 = DIRECTION ( 'NONE',  ( -1.000000000000000000, 0.000000000000000000, 0.000000000000000000 ) ) ;
#138 = LINE ( 'NONE', #527, #762 ) ;
#139 = ORIENTED_EDGE ( 'NONE', *, *, #321, .F. ) ;
#140 = EDGE_LOOP ( 'NONE', ( #730, #210, #545, #716 ) ) ;
#141 = ADVANCED_FACE ( 'NONE', ( #54 ), #828, .F. ) ;
#142 = VECTOR ( 'NONE', #635, 39.37007874015748143 ) ;
#143 = VECTOR ( 'NONE', #532, 39.37007874015748143 ) ;
#144 = LINE ( 'NONE', #384, #517 ) ;
#145 = ORIENTED_EDGE ( 'NONE', *, *, #446, .T. ) ;
#146 = EDGE_LOOP ( 'NONE', ( #41, #734, #484, #299 ) ) ;
#147 = AXIS2_PLACEMENT_3D ( 'NONE', #593, #457, #274 ) ;
#148 = EDGE_LOOP ( 'NONE', ( #150, #543, #427, #814 ) ) ;
#149 = DIRECTION ( 'NONE',  ( -0.000000000000000000, -1.000000000000000000, -0.000000000000000000 ) ) ;
#150 = ORIENTED_EDGE ( 'NONE', *, *, #321, .T. ) ;
#151 = DIRECTION ( 'NONE',  ( -1.000000000000000000, 0.000000000000000000, 0.000000000000000000 ) ) ;
#152 = DIRECTION ( 'NONE',  ( 0.000000000000000000, 0.000000000000000000, -1.000000000000000000 ) ) ;
#153 = CYLINDRICAL_SURFACE ( 'NONE', #163, 3.937007874015748143 ) ;
#154 = ORIENTED_EDGE ( 'NONE', *, *, #780, .T. ) ;
#155 = DIRECTION ( 'NONE',  ( 0.000000000000000000, -1.000000000000000000, 0.000000000000000000 ) ) ;
#156 = VERTEX_POINT ( 'NONE', #249 ) ;
#157 = LINE ( 'NONE', #535, #721 ) ;
#158 = FACE_OUTER_BOUND ( 'NONE', #520, .T. ) ;
#159 = ORIENTED_EDGE ( 'NONE', *, *, #672, .F. ) ;
#160 = EDGE_CURVE ( 'NONE', #613, #798, #503, .T. ) ;
#161 = STYLED_ITEM ( 'NONE', ( #248 ), #111 ) ;
#162 = CYLINDRICAL_SURFACE ( 'NONE', #164, 0.3937007874015748810 ) ;
#163 = AXIS2_PLACEMENT_3D ( 'NONE', #767, #696, #440 ) ;
#164 = AXIS2_PLACEMENT_3D ( 'NONE', #735, #404, #546 ) ;
#165 = ORIENTED_EDGE ( 'NONE', *, *, #57, .T. ) ;
#166 = ADVANCED_FACE ( 'NONE', ( #189, #435 ), #700, .F. ) ;
#167 = FACE_OUTER_BOUND ( 'NONE', #584, .T. ) ;
#168 = LINE ( 'NONE', #621, #359 ) ;
#169 = ORIENTED_EDGE ( 'NONE', *, *, #586, .F. ) ;
#170 = CARTESIAN_POINT ( 'NONE',  ( 0.000000000000000000, 0.5905511811023621549, 3.838582677165354617 ) ) ;
#171 = CARTESIAN_POINT ( 'NONE',  ( -0.3937007874015749365, 1.968503937007873850, -3.937007874015748143 ) ) ;
#172 = EDGE_CURVE ( 'NONE', #471, #156, #376, .T. ) ;
#173 = ORIENTED_EDGE ( 'NONE', *, *, #251, .F. ) ;
#174 =( CONVERSION_BASED_UNIT ( 'INCH', #506 ) LENGTH_UNIT ( ) NAMED_UNIT ( #76 ) );
#175 = AXIS2_PLACEMENT_3D ( 'NONE', #240, #687, #120 ) ;
#176 = CYLINDRICAL_SURFACE ( 'NONE', #773, 1.181102362204724310 ) ;
#177 = PRODUCT ( 'base_link_collision', 'base_link_collision', '', ( #443 ) ) ;
#178 = AXIS2_PLACEMENT_3D ( 'NONE', #230, #481, #739 ) ;
#179 = VERTEX_POINT ( 'NONE', #770 ) ;
#180 = SHAPE_REPRESENTATION ( 'base_link_collision', ( #462, #24 ), #256 ) ;
#181 = AXIS2_PLACEMENT_3D ( 'NONE', #297, #556, #487 ) ;
#182 = DIRECTION ( 'NONE',  ( 0.000000000000000000, 0.000000000000000000, 1.000000000000000000 ) ) ;
#183 = ORIENTED_EDGE ( 'NONE', *, *, #124, .F. ) ;
#184 = DIRECTION ( 'NONE',  ( 0.000000000000000000, -1.000000000000000000, -3.491481338843133355E-15 ) ) ;
#185 = DIRECTION ( 'NONE',  ( -1.156482317317871725E-16, 0.000000000000000000, -1.000000000000000000 ) ) ;
#186 = CARTESIAN_POINT ( 'NONE',  ( 1.082677165354330784, 1.968503937007874072, -0.5905511811023621549 ) ) ;
#187 = CARTESIAN_POINT ( 'NONE',  ( 4.761176039992171062E-16, 0.5905511811023621549, -3.838582677165354617 ) ) ;
#188 =( CONVERSION_BASED_UNIT ( 'INCH', #817 ) LENGTH_UNIT ( ) NAMED_UNIT ( #387 ) );
#189 = FACE_OUTER_BOUND ( 'NONE', #628, .T. ) ;
#190 = MECHANICAL_DESIGN_GEOMETRIC_PRESENTATION_REPRESENTATION (  '', ( #447 ), #89 ) ;
#191 = CARTESIAN_POINT ( 'NONE',  ( -6.829619984160658046E-17, 1.968503937007873850, 0.1968503937007873850 ) ) ;
#192 = EDGE_CURVE ( 'NONE', #618, #215, #39, .T. ) ;
#193 =( REPRESENTATION_RELATIONSHIP ('NONE','NONE', #180, #491 ) REPRESENTATION_RELATIONSHIP_WITH_TRANSFORMATION ( #322 )SHAPE_REPRESENTATION_RELATIONSHIP( ) );
#194 = DIRECTION ( 'NONE',  ( 0.000000000000000000, 0.000000000000000000, 1.000000000000000000 ) ) ;
#195 = VECTOR ( 'NONE', #292, 39.37007874015748143 ) ;
#196 = DIRECTION ( 'NONE',  ( -0.000000000000000000, -0.000000000000000000, 1.000000000000000000 ) ) ;
#197 = DIRECTION ( 'NONE',  ( -0.000000000000000000, -0.000000000000000000, 1.000000000000000000 ) ) ;
#198 = EDGE_CURVE ( 'NONE', #94, #759, #511, .T. ) ;
#199 = DIRECTION ( 'NONE',  ( 0.000000000000000000, 0.000000000000000000, 1.000000000000000000 ) ) ;
#200 = AXIS2_PLACEMENT_3D ( 'NONE', #254, #126, #652 ) ;
#201 = EDGE_CURVE ( 'NONE', #304, #38, #812, .T. ) ;
#202 = AXIS2_PLACEMENT_3D ( 'NONE', #203, #784, #327 ) ;
#203 = CARTESIAN_POINT ( 'NONE',  ( -6.829619984160658046E-17, 1.968503937007873850, -0.1968503937007875793 ) ) ;
#204 = ORIENTED_EDGE ( 'NONE', *, *, #192, .F. ) ;
#205 = UNCERTAINTY_MEASURE_WITH_UNIT (LENGTH_MEASURE( 1.000000000000000082E-05 ), #188, 'distance_accuracy_value', 'NONE');
#206 = ORIENTED_EDGE ( 'NONE', *, *, #289, .F. ) ;
#207 = AXIS2_PLACEMENT_3D ( 'NONE', #270, #380, #390 ) ;
#208 = DIRECTION ( 'NONE',  ( 0.000000000000000000, -1.000000000000000000, 0.000000000000000000 ) ) ;
#209 = ORIENTED_EDGE ( 'NONE', *, *, #198, .T. ) ;
#210 = ORIENTED_EDGE ( 'NONE', *, *, #620, .F. ) ;
#211 = DIRECTION ( 'NONE',  ( -2.312964634635742957E-16, -0.000000000000000000, -1.000000000000000000 ) ) ;
#212 = ORIENTED_EDGE ( 'NONE', *, *, #289, .T. ) ;
#213 = ORIENTED_EDGE ( 'NONE', *, *, #573, .F. ) ;
#214 = CIRCLE ( 'NONE', #683, 0.3937007874015748810 ) ;
#215 = VERTEX_POINT ( 'NONE', #639 ) ;
#216 = FACE_OUTER_BOUND ( 'NONE', #821, .T. ) ;
#217 = DIRECTION ( 'NONE',  ( 0.000000000000000000, -0.000000000000000000, -1.000000000000000000 ) ) ;
#218 = EDGE_LOOP ( 'NONE', ( #397, #750, #718, #689 ) ) ;
#219 = EDGE_CURVE ( 'NONE', #753, #533, #233, .T. ) ;
#220 = CARTESIAN_POINT ( 'NONE',  ( -1.082677165354330784, 0.5905511811023621549, 0.4921259842519684624 ) ) ;
#221 = CARTESIAN_POINT ( 'NONE',  ( -6.829619984160658046E-17, 1.968503937007873850, 0.4921259842519684624 ) ) ;
#222 = CARTESIAN_POINT ( 'NONE',  ( -6.829619984160658046E-17, 1.968503937007873850, -0.4921259842519684624 ) ) ;
#223 = ORIENTED_EDGE ( 'NONE', *, *, #485, .F. ) ;
#224 = DIRECTION ( 'NONE',  ( -0.000000000000000000, -1.000000000000000000, -0.000000000000000000 ) ) ;
#225 = LINE ( 'NONE', #346, #395 ) ;
#226 = VERTEX_POINT ( 'NONE', #834 ) ;
#227 = CARTESIAN_POINT ( 'NONE',  ( 1.082677165354330340, 0.5905511811023621549, -0.5905511811023621549 ) ) ;
#228 = ADVANCED_FACE ( 'NONE', ( #636 ), #631, .T. ) ;
#229 = VERTEX_POINT ( 'NONE', #187 ) ;
#230 = CARTESIAN_POINT ( 'NONE',  ( -6.829619984160658046E-17, 1.968503937007873850, -0.5905511811023621549 ) ) ;
#231 = AXIS2_PLACEMENT_3D ( 'NONE', #633, #827, #681 ) ;
#232 = CARTESIAN_POINT ( 'NONE',  ( 4.700907988853029244E-16, 0.4921259842519684624, -3.838582677165354617 ) ) ;
#233 = CIRCLE ( 'NONE', #121, 0.09842519685039372024 ) ;
#234 = ORIENTED_EDGE ( 'NONE', *, *, #453, .T. ) ;
#235 = LINE ( 'NONE', #78, #3 ) ;
#236 = FACE_OUTER_BOUND ( 'NONE', #623, .T. ) ;
#237 = EDGE_CURVE ( 'NONE', #304, #540, #441, .T. ) ;
#238 = PRODUCT ( 'ExampleBot-Base', 'ExampleBot-Base', '', ( #73 ) ) ;
#239 = EDGE_LOOP ( 'NONE', ( #649, #525, #412, #243 ) ) ;
#240 = CARTESIAN_POINT ( 'NONE',  ( -6.829619984160658046E-17, 1.968503937007873850, -0.1968503937007873850 ) ) ;
#241 = EDGE_LOOP ( 'NONE', ( #738, #277, #562, #30, #501, #5, #49, #421 ) ) ;
#242 = AXIS2_PLACEMENT_3D ( 'NONE', #693, #495, #498 ) ;
#243 = ORIENTED_EDGE ( 'NONE', *, *, #768, .F. ) ;
#244 = DIRECTION ( 'NONE',  ( 0.000000000000000000, 0.000000000000000000, 1.000000000000000000 ) ) ;
#245 = CARTESIAN_POINT ( 'NONE',  ( 1.181102362204724310, 0.9842519685039370358, -0.1968503937007873850 ) ) ;
#246 = DIRECTION ( 'NONE',  ( 0.000000000000000000, 0.000000000000000000, 1.000000000000000000 ) ) ;
#247 = VERTEX_POINT ( 'NONE', #665 ) ;
#248 = PRESENTATION_STYLE_ASSIGNMENT (( #311 ) ) ;
#249 = CARTESIAN_POINT ( 'NONE',  ( 1.181102362204724310, 1.968503937007874072, -0.1968503937007873850 ) ) ;
#250 = CARTESIAN_POINT ( 'NONE',  ( -1.082677165354330784, 1.968503937007874072, 0.5905511811023621549 ) ) ;
#251 = EDGE_CURVE ( 'NONE', #101, #281, #679, .T. ) ;
#252 =( NAMED_UNIT ( * ) PLANE_ANGLE_UNIT ( ) SI_UNIT ( $, .RADIAN. ) );
#253 = AXIS2_PLACEMENT_3D ( 'NONE', #436, #366, #831 ) ;
#254 = CARTESIAN_POINT ( 'NONE',  ( 1.082677165354330340, 0.5905511811023621549, -0.4921259842519684624 ) ) ;
#255 = DIRECTION ( 'NONE',  ( 0.000000000000000000, 0.000000000000000000, 1.000000000000000000 ) ) ;
#256 =( GEOMETRIC_REPRESENTATION_CONTEXT ( 3 ) GLOBAL_UNCERTAINTY_ASSIGNED_CONTEXT ( ( #710 ) ) GLOBAL_UNIT_ASSIGNED_CONTEXT ( ( #559, #262, #512 ) ) REPRESENTATION_CONTEXT ( 'NONE', 'WORKASPACE' ) );
#257 = CARTESIAN_POINT ( 'NONE',  ( -6.829619984160658046E-17, 1.968503937007873850, -3.937007874015748143 ) ) ;
#258 = AXIS2_PLACEMENT_3D ( 'NONE', #56, #316, #445 ) ;
#259 = EDGE_CURVE ( 'NONE', #666, #776, #157, .T. ) ;
#260 = EDGE_CURVE ( 'NONE', #530, #798, #77, .T. ) ;
#261 = CARTESIAN_POINT ( 'NONE',  ( 1.181102362204724310, 1.968503937007874072, 0.4921259842519684069 ) ) ;
#262 =( NAMED_UNIT ( * ) PLANE_ANGLE_UNIT ( ) SI_UNIT ( $, .RADIAN. ) );
#263 =( NAMED_UNIT ( * ) PLANE_ANGLE_UNIT ( ) SI_UNIT ( $, .RADIAN. ) );
#264 = ORIENTED_EDGE ( 'NONE', *, *, #446, .F. ) ;
#265 =( GEOMETRIC_REPRESENTATION_CONTEXT ( 3 ) GLOBAL_UNCERTAINTY_ASSIGNED_CONTEXT ( ( #205 ) ) GLOBAL_UNIT_ASSIGNED_CONTEXT ( ( #188, #252, #624 ) ) REPRESENTATION_CONTEXT ( 'NONE', 'WORKASPACE' ) );
#266 = SHAPE_DEFINITION_REPRESENTATION ( #356, #180 ) ;
#267 = CYLINDRICAL_SURFACE ( 'NONE', #551, 0.09842519685039372024 ) ;
#268 = TOROIDAL_SURFACE ( 'NONE', #399, 3.838582677165354617, 0.09842519685039370636 ) ;
#269 = ORIENTED_EDGE ( 'NONE', *, *, #719, .F. ) ;
#270 = CARTESIAN_POINT ( 'NONE',  ( -1.082677165354330784, 1.968503937007874072, 0.4921259842519684624 ) ) ;
#271 = LINE ( 'NONE', #69, #650 ) ;
#272 = ORIENTED_EDGE ( 'NONE', *, *, #17, .T. ) ;
#273 = CARTESIAN_POINT ( 'NONE',  ( 1.082677165354330784, 0.5905511811023621549, 0.4921259842519684069 ) ) ;
#274 = DIRECTION ( 'NONE',  ( 0.000000000000000000, 0.000000000000000000, -1.000000000000000000 ) ) ;
#275 = CARTESIAN_POINT ( 'NONE',  ( -1.181102362204724532, 0.5905511811023621549, 0.5905511811023621549 ) ) ;
#276 = DIRECTION ( 'NONE',  ( -1.000000000000000000, 0.000000000000000000, 2.312964634635743450E-16 ) ) ;
#277 = ORIENTED_EDGE ( 'NONE', *, *, #660, .T. ) ;
#278 = AXIS2_PLACEMENT_3D ( 'NONE', #690, #52, #751 ) ;
#279 = AXIS2_PLACEMENT_3D ( 'NONE', #71, #18, #537 ) ;
#280 = LINE ( 'NONE', #548, #604 ) ;
#281 = VERTEX_POINT ( 'NONE', #550 ) ;
#282 = PLANE ( 'NONE',  #181 ) ;
#283 = EDGE_LOOP ( 'NONE', ( #272, #816, #105, #154 ) ) ;
#284 = VECTOR ( 'NONE', #197, 39.37007874015748143 ) ;
#285 = EDGE_CURVE ( 'NONE', #456, #385, #576, .T. ) ;
#286 = DIRECTION ( 'NONE',  ( -1.000000000000000000, 0.000000000000000000, 0.000000000000000000 ) ) ;
#287 = VERTEX_POINT ( 'NONE', #227 ) ;
#288 = CARTESIAN_POINT ( 'NONE',  ( 1.181102362204724088, 0.5905511811023621549, -0.5905511811023621549 ) ) ;
#289 = EDGE_CURVE ( 'NONE', #156, #753, #168, .T. ) ;
#290 = ORIENTED_EDGE ( 'NONE', *, *, #430, .F. ) ;
#291 = DIRECTION ( 'NONE',  ( -0.000000000000000000, -0.000000000000000000, -1.000000000000000000 ) ) ;
#292 = DIRECTION ( 'NONE',  ( -0.000000000000000000, 1.000000000000000000, -0.000000000000000000 ) ) ;
#293 = VECTOR ( 'NONE', #444, 39.37007874015748143 ) ;
#294 = VERTEX_POINT ( 'NONE', #31 ) ;
#295 = EDGE_CURVE ( 'NONE', #226, #75, #802, .T. ) ;
#296 = DIRECTION ( 'NONE',  ( 0.000000000000000000, 0.000000000000000000, 1.000000000000000000 ) ) ;
#297 = CARTESIAN_POINT ( 'NONE',  ( -6.829619984160658046E-17, 1.968503937007873850, -0.1968503937007873850 ) ) ;
#298 = CIRCLE ( 'NONE', #483, 0.09842519685039372024 ) ;
#299 = ORIENTED_EDGE ( 'NONE', *, *, #660, .F. ) ;
#300 = CARTESIAN_POINT ( 'NONE',  ( -1.181102362204724532, 0.5905511811023621549, 0.4921259842519684069 ) ) ;
#301 = ORIENTED_EDGE ( 'NONE', *, *, #336, .T. ) ;
#302 = EDGE_CURVE ( 'NONE', #776, #727, #632, .T. ) ;
#303 = DIRECTION ( 'NONE',  ( 1.000000000000000000, 0.000000000000000000, 0.000000000000000000 ) ) ;
#304 = VERTEX_POINT ( 'NONE', #731 ) ;
#305 = CARTESIAN_POINT ( 'NONE',  ( 0.000000000000000000, 0.000000000000000000, 0.000000000000000000 ) ) ;
#306 = AXIS2_PLACEMENT_3D ( 'NONE', #307, #362, #747 ) ;
#307 = CARTESIAN_POINT ( 'NONE',  ( -6.829619984160658046E-17, 1.968503937007873850, -3.937007874015748143 ) ) ;
#308 = DIRECTION ( 'NONE',  ( -0.000000000000000000, -0.000000000000000000, 1.000000000000000000 ) ) ;
#309 = ADVANCED_FACE ( 'NONE', ( #236 ), #162, .F. ) ;
#310 = ORIENTED_EDGE ( 'NONE', *, *, #172, .T. ) ;
#311 = SURFACE_STYLE_USAGE ( .BOTH. , #106 ) ;
#312 = DIRECTION ( 'NONE',  ( 0.000000000000000000, 0.000000000000000000, -1.000000000000000000 ) ) ;
#313 = EDGE_CURVE ( 'NONE', #75, #753, #601, .T. ) ;
#314 = CARTESIAN_POINT ( 'NONE',  ( -1.181102362204724532, 1.968503937007874072, 0.1968503937007873850 ) ) ;
#315 = FACE_OUTER_BOUND ( 'NONE', #658, .T. ) ;
#316 = DIRECTION ( 'NONE',  ( -0.000000000000000000, 1.000000000000000000, 0.000000000000000000 ) ) ;
#317 = DIRECTION ( 'NONE',  ( -1.000000000000000000, 0.000000000000000000, 0.000000000000000000 ) ) ;
#318 = AXIS2_PLACEMENT_3D ( 'NONE', #514, #74, #771 ) ;
#319 = FACE_OUTER_BOUND ( 'NONE', #88, .T. ) ;
#320 = DIRECTION ( 'NONE',  ( -0.000000000000000000, 1.000000000000000000, 0.000000000000000000 ) ) ;
#321 = EDGE_CURVE ( 'NONE', #526, #666, #835, .T. ) ;
#322 = ITEM_DEFINED_TRANSFORMATION ( 'NONE', 'NONE', #24,  #231 ) ;
#323 = PLANE ( 'NONE',  #492 ) ;
#324 = VECTOR ( 'NONE', #725, 39.37007874015748143 ) ;
#325 = LINE ( 'NONE', #130, #563 ) ;
#326 = ORIENTED_EDGE ( 'NONE', *, *, #699, .F. ) ;
#327 = DIRECTION ( 'NONE',  ( 1.000000000000000000, 0.000000000000000000, 0.000000000000000000 ) ) ;
#328 = FACE_OUTER_BOUND ( 'NONE', #239, .T. ) ;
#329 = ORIENTED_EDGE ( 'NONE', *, *, #260, .F. ) ;
#330 = APPLICATION_CONTEXT ( 'automotive_design' ) ;
#331 = DIMENSIONAL_EXPONENTS ( 1.000000000000000000, 0.000000000000000000, 0.000000000000000000, 0.000000000000000000, 0.000000000000000000, 0.000000000000000000, 0.000000000000000000 ) ;
#332 = PRODUCT_DEFINITION_FORMATION_WITH_SPECIFIED_SOURCE ( 'ANY', '', #177, .NOT_KNOWN. ) ;
#333 = CARTESIAN_POINT ( 'NONE',  ( 0.000000000000000000, 0.5905511811023621549, 0.000000000000000000 ) ) ;
#334 = ORIENTED_EDGE ( 'NONE', *, *, #552, .T. ) ;
#335 = AXIS2_PLACEMENT_3D ( 'NONE', #824, #499, #757 ) ;
#336 = EDGE_CURVE ( 'NONE', #526, #229, #107, .T. ) ;
#337 = DIRECTION ( 'NONE',  ( -0.000000000000000000, -0.000000000000000000, 1.000000000000000000 ) ) ;
#338 = ORIENTED_EDGE ( 'NONE', *, *, #285, .F. ) ;
#339 = CARTESIAN_POINT ( 'NONE',  ( -1.181102362204724310, 0.9842519685039370358, -0.1968503937007873850 ) ) ;
#340 = ORIENTED_EDGE ( 'NONE', *, *, #783, .F. ) ;
#341 = CARTESIAN_POINT ( 'NONE',  ( 1.082677165354330784, 0.5905511811023621549, 0.5905511811023621549 ) ) ;
#342 = EDGE_LOOP ( 'NONE', ( #480, #676, #588, #82 ) ) ;
#343 = CARTESIAN_POINT ( 'NONE',  ( 0.000000000000000000, 0.5905511811023621549, 0.000000000000000000 ) ) ;
#344 = DIRECTION ( 'NONE',  ( 0.000000000000000000, 1.000000000000000000, 0.000000000000000000 ) ) ;
#345 = ORIENTED_EDGE ( 'NONE', *, *, #44, .T. ) ;
#346 = CARTESIAN_POINT ( 'NONE',  ( -1.181102362204724310, 0.9842519685039370358, 0.1968503937007873850 ) ) ;
#347 = DIRECTION ( 'NONE',  ( 0.000000000000000000, 1.000000000000000000, 0.000000000000000000 ) ) ;
#348 = CARTESIAN_POINT ( 'NONE',  ( -1.181102362204724754, 0.5905511811023621549, -0.4921259842519684624 ) ) ;
#349 = VERTEX_POINT ( 'NONE', #35 ) ;
#350 = DIRECTION ( 'NONE',  ( 0.000000000000000000, 0.000000000000000000, 1.000000000000000000 ) ) ;
#351 = ORIENTED_EDGE ( 'NONE', *, *, #15, .F. ) ;
#352 = LINE ( 'NONE', #401, #129 ) ;
#353 = DIRECTION ( 'NONE',  ( 1.000000000000000000, -0.000000000000000000, 1.224646799147353207E-16 ) ) ;
#354 = CIRCLE ( 'NONE', #242, 1.082677165354330562 ) ;
#355 = ORIENTED_EDGE ( 'NONE', *, *, #783, .T. ) ;
#356 = PRODUCT_DEFINITION_SHAPE ( 'NONE', 'NONE',  #707 ) ;
#357 = CARTESIAN_POINT ( 'NONE',  ( 1.082677165354330784, 1.968503937007874072, 0.5905511811023621549 ) ) ;
#358 = EDGE_CURVE ( 'NONE', #287, #613, #541, .T. ) ;
#359 = VECTOR ( 'NONE', #408, 39.37007874015748143 ) ;
#360 = VERTEX_POINT ( 'NONE', #741 ) ;
#361 = CARTESIAN_POINT ( 'NONE',  ( 0.000000000000000000, 0.000000000000000000, 0.000000000000000000 ) ) ;
#362 = DIRECTION ( 'NONE',  ( -0.000000000000000000, -0.000000000000000000, 1.000000000000000000 ) ) ;
#363 = PRODUCT_DEFINITION_CONTEXT ( 'detailed design', #488, 'design' ) ;
#364 = EDGE_LOOP ( 'NONE', ( #405, #169 ) ) ;
#365 = FILL_AREA_STYLE ('',( #422 ) ) ;
#366 = DIRECTION ( 'NONE',  ( 0.000000000000000000, 1.000000000000000000, 0.000000000000000000 ) ) ;
#367 = ORIENTED_EDGE ( 'NONE', *, *, #369, .F. ) ;
#368 = DIRECTION ( 'NONE',  ( 1.000000000000000000, 0.000000000000000000, 0.000000000000000000 ) ) ;
#369 = EDGE_CURVE ( 'NONE', #94, #45, #799, .T. ) ;
#370 = DIRECTION ( 'NONE',  ( 1.000000000000000000, 0.000000000000000000, 0.000000000000000000 ) ) ;
#371 = VECTOR ( 'NONE', #373, 39.37007874015748143 ) ;
#372 = VECTOR ( 'NONE', #411, 39.37007874015748143 ) ;
#373 = DIRECTION ( 'NONE',  ( -0.000000000000000000, 1.000000000000000000, -0.000000000000000000 ) ) ;
#374 = APPLICATION_CONTEXT ( 'automotive_design' ) ;
#375 = AXIS2_PLACEMENT_3D ( 'NONE', #694, #308, #116 ) ;
#376 = LINE ( 'NONE', #629, #608 ) ;
#377 = SURFACE_STYLE_FILL_AREA ( #627 ) ;
#378 = CARTESIAN_POINT ( 'NONE',  ( -1.181102362204724310, 0.9842519685039370358, 0.1968503937007873850 ) ) ;
#379 = FACE_OUTER_BOUND ( 'NONE', #626, .T. ) ;
#380 = DIRECTION ( 'NONE',  ( 0.000000000000000000, -1.000000000000000000, 0.000000000000000000 ) ) ;
#381 = DIRECTION ( 'NONE',  ( 0.000000000000000000, 0.000000000000000000, -1.000000000000000000 ) ) ;
#382 = FACE_BOUND ( 'NONE', #663, .T. ) ;
#383 = VECTOR ( 'NONE', #40, 39.37007874015748143 ) ;
#384 = CARTESIAN_POINT ( 'NONE',  ( -1.181102362204724754, 1.968503937007874072, -0.4921259842519684624 ) ) ;
#385 = VERTEX_POINT ( 'NONE', #416 ) ;
#386 = PRODUCT_DEFINITION_CONTEXT ( 'detailed design', #330, 'design' ) ;
#387 = DIMENSIONAL_EXPONENTS ( 1.000000000000000000, 0.000000000000000000, 0.000000000000000000, 0.000000000000000000, 0.000000000000000000, 0.000000000000000000, 0.000000000000000000 ) ;
#388 = ORIENTED_EDGE ( 'NONE', *, *, #302, .F. ) ;
#389 = CIRCLE ( 'NONE', #772, 0.3937007874015748810 ) ;
#390 = DIRECTION ( 'NONE',  ( 0.000000000000000000, 0.000000000000000000, -1.000000000000000000 ) ) ;
#391 = ORIENTED_EDGE ( 'NONE', *, *, #580, .F. ) ;
#392 = ADVANCED_FACE ( 'NONE', ( #678, #99 ), #282, .T. ) ;
#393 = CIRCLE ( 'NONE', #200, 0.09842519685039372024 ) ;
#394 = ORIENTED_EDGE ( 'NONE', *, *, #719, .T. ) ;
#395 = VECTOR ( 'NONE', #29, 39.37007874015748143 ) ;
#396 = DIRECTION ( 'NONE',  ( 0.000000000000000000, 0.000000000000000000, 1.000000000000000000 ) ) ;
#397 = ORIENTED_EDGE ( 'NONE', *, *, #237, .T. ) ;
#398 = FACE_OUTER_BOUND ( 'NONE', #218, .T. ) ;
#399 = AXIS2_PLACEMENT_3D ( 'NONE', #87, #344, #822 ) ;
#400 = ORIENTED_EDGE ( 'NONE', *, *, #815, .T. ) ;
#401 = CARTESIAN_POINT ( 'NONE',  ( -1.181102362204724310, 0.9842519685039370358, 0.1968503937007873850 ) ) ;
#402 = EDGE_CURVE ( 'NONE', #385, #215, #745, .T. ) ;
#403 = ORIENTED_EDGE ( 'NONE', *, *, #46, .T. ) ;
#404 = DIRECTION ( 'NONE',  ( -0.000000000000000000, -0.000000000000000000, 1.000000000000000000 ) ) ;
#405 = ORIENTED_EDGE ( 'NONE', *, *, #46, .F. ) ;
#406 = CARTESIAN_POINT ( 'NONE',  ( 1.082677165354330340, 1.968503937007874072, -0.5905511811023621549 ) ) ;
#407 = EDGE_LOOP ( 'NONE', ( #805, #431 ) ) ;
#408 = DIRECTION ( 'NONE',  ( 0.000000000000000000, 0.000000000000000000, -1.000000000000000000 ) ) ;
#409 = AXIS2_PLACEMENT_3D ( 'NONE', #823, #43, #303 ) ;
#410 = AXIS2_PLACEMENT_3D ( 'NONE', #566, #317, #246 ) ;
#411 = DIRECTION ( 'NONE',  ( -0.000000000000000000, -0.000000000000000000, 1.000000000000000000 ) ) ;
#412 = ORIENTED_EDGE ( 'NONE', *, *, #428, .F. ) ;
#413 = CARTESIAN_POINT ( 'NONE',  ( 1.181102362204724088, 1.968503937007874072, -0.4921259842519684624 ) ) ;
#414 = ORIENTED_EDGE ( 'NONE', *, *, #198, .F. ) ;
#415 = DIRECTION ( 'NONE',  ( 0.000000000000000000, -1.000000000000000000, 0.000000000000000000 ) ) ;
#416 = CARTESIAN_POINT ( 'NONE',  ( -0.3937007874015749365, 1.968503937007873850, 0.1968503937007875793 ) ) ;
#417 = ORIENTED_EDGE ( 'NONE', *, *, #419, .F. ) ;
#418 = DIRECTION ( 'NONE',  ( 1.224646799147349263E-16, 0.000000000000000000, -1.000000000000000000 ) ) ;
#419 = EDGE_CURVE ( 'NONE', #709, #304, #103, .T. ) ;
#420 = CIRCLE ( 'NONE', #127, 3.937007874015748143 ) ;
#421 = ORIENTED_EDGE ( 'NONE', *, *, #37, .T. ) ;
#422 = FILL_AREA_STYLE_COLOUR ( '', #118 ) ;
#423 = CIRCLE ( 'NONE', #410, 0.09842519685039378963 ) ;
#424 = AXIS2_PLACEMENT_3D ( 'NONE', #13, #415, #217 ) ;
#425 = FACE_OUTER_BOUND ( 'NONE', #27, .T. ) ;
#426 = AXIS2_PLACEMENT_3D ( 'NONE', #468, #664, #615 ) ;
#427 = ORIENTED_EDGE ( 'NONE', *, *, #302, .T. ) ;
#428 = EDGE_CURVE ( 'NONE', #349, #452, #25, .T. ) ;
#429 = DIRECTION ( 'NONE',  ( -1.000000000000000000, 0.000000000000000000, 0.000000000000000000 ) ) ;
#430 = EDGE_CURVE ( 'NONE', #713, #229, #60, .T. ) ;
#431 = ORIENTED_EDGE ( 'NONE', *, *, #820, .T. ) ;
#432 =( LENGTH_UNIT ( ) NAMED_UNIT ( * ) SI_UNIT ( $, .METRE. ) );
#433 = CARTESIAN_POINT ( 'NONE',  ( -1.181102362204724754, 1.968503937007874072, -0.5905511811023621549 ) ) ;
#434 = CARTESIAN_POINT ( 'NONE',  ( 1.181102362204724310, 1.968503937007874072, 0.4921259842519684069 ) ) ;
#435 = FACE_BOUND ( 'NONE', #489, .T. ) ;
#436 = CARTESIAN_POINT ( 'NONE',  ( 0.000000000000000000, 0.4921259842519684624, 0.000000000000000000 ) ) ;
#437 = CARTESIAN_POINT ( 'NONE',  ( -6.829619984160658046E-17, 1.968503937007873850, 0.5905511811023621549 ) ) ;
#438 = AXIS2_PLACEMENT_3D ( 'NONE', #257, #196, #486 ) ;
#439 = ADVANCED_FACE ( 'NONE', ( #47 ), #572, .T. ) ;
#440 = DIRECTION ( 'NONE',  ( 0.000000000000000000, 0.000000000000000000, -1.000000000000000000 ) ) ;
#441 = CIRCLE ( 'NONE', #375, 1.082677165354330784 ) ;
#442 =( LENGTH_UNIT ( ) NAMED_UNIT ( * ) SI_UNIT ( $, .METRE. ) );
#443 = PRODUCT_CONTEXT ( 'NONE', #587, 'mechanical' ) ;
#444 = DIRECTION ( 'NONE',  ( -0.000000000000000000, 1.000000000000000000, -0.000000000000000000 ) ) ;
#445 = DIRECTION ( 'NONE',  ( 0.000000000000000000, 0.000000000000000000, 1.000000000000000000 ) ) ;
#446 = EDGE_CURVE ( 'NONE', #798, #533, #354, .T. ) ;
#447 = STYLED_ITEM ( 'NONE', ( #638 ), #570 ) ;
#448 = PLANE ( 'NONE',  #318 ) ;
#449 = ADVANCED_FACE ( 'NONE', ( #425 ), #115, .F. ) ;
#450 = DIRECTION ( 'NONE',  ( 1.000000000000000000, 0.000000000000000000, 0.000000000000000000 ) ) ;
#451 = ADVANCED_FACE ( 'NONE', ( #625 ), #176, .T. ) ;
#452 = VERTEX_POINT ( 'NONE', #300 ) ;
#453 = EDGE_CURVE ( 'NONE', #360, #156, #715, .T. ) ;
#454 = CARTESIAN_POINT ( 'NONE',  ( -1.181102362204724532, 1.968503937007874072, 0.4921259842519684069 ) ) ;
#455 = ORIENTED_EDGE ( 'NONE', *, *, #549, .T. ) ;
#456 = VERTEX_POINT ( 'NONE', #109 ) ;
#457 = DIRECTION ( 'NONE',  ( 0.000000000000000000, -1.000000000000000000, 0.000000000000000000 ) ) ;
#458 = DIRECTION ( 'NONE',  ( -0.000000000000000000, -0.000000000000000000, 1.000000000000000000 ) ) ;
#459 = ORIENTED_EDGE ( 'NONE', *, *, #219, .T. ) ;
#460 = PRESENTATION_LAYER_ASSIGNMENT (  '', '', ( #447 ) ) ;
#461 = FACE_BOUND ( 'NONE', #661, .T. ) ;
#462 = AXIS2_PLACEMENT_3D ( 'NONE', #703, #585, #128 ) ;
#463 = ADVANCED_FACE ( 'NONE', ( #761 ), #630, .F. ) ;
#464 = ORIENTED_EDGE ( 'NONE', *, *, #2, .T. ) ;
#465 = PLANE ( 'NONE',  #656 ) ;
#466 = FACE_OUTER_BOUND ( 'NONE', #146, .T. ) ;
#467 = ORIENTED_EDGE ( 'NONE', *, *, #766, .F. ) ;
#468 = CARTESIAN_POINT ( 'NONE',  ( -6.829619984160658046E-17, 1.968503937007873850, -0.5905511811023621549 ) ) ;
#469 = CARTESIAN_POINT ( 'NONE',  ( 1.181102362204724088, 1.968503937007874072, -0.5905511811023621549 ) ) ;
#470 = AXIS2_PLACEMENT_3D ( 'NONE', #675, #95, #350 ) ;
#471 = VERTEX_POINT ( 'NONE', #245 ) ;
#472 = DIRECTION ( 'NONE',  ( 0.000000000000000000, 0.000000000000000000, 1.000000000000000000 ) ) ;
#473 = ORIENTED_EDGE ( 'NONE', *, *, #485, .T. ) ;
#474 = DIRECTION ( 'NONE',  ( 0.000000000000000000, 1.000000000000000000, 0.000000000000000000 ) ) ;
#475 = CARTESIAN_POINT ( 'NONE',  ( -1.181102362204724310, 0.9842519685039370358, 0.1968503937007873850 ) ) ;
#476 = EDGE_LOOP ( 'NONE', ( #183, #777, #720, #417 ) ) ;
#477 = DIRECTION ( 'NONE',  ( -0.000000000000000000, -1.000000000000000000, 0.000000000000000000 ) ) ;
#478 = CIRCLE ( 'NONE', #697, 0.3937007874015748810 ) ;
#479 = AXIS2_PLACEMENT_3D ( 'NONE', #662, #291, #677 ) ;
#480 = ORIENTED_EDGE ( 'NONE', *, *, #336, .F. ) ;
#481 = DIRECTION ( 'NONE',  ( 0.000000000000000000, 0.000000000000000000, 1.000000000000000000 ) ) ;
#482 = CARTESIAN_POINT ( 'NONE',  ( -1.181102362204724754, 0.5905511811023621549, -0.5905511811023621549 ) ) ;
#483 = AXIS2_PLACEMENT_3D ( 'NONE', #273, #23, #16 ) ;
#484 = ORIENTED_EDGE ( 'NONE', *, *, #2, .F. ) ;
#485 = EDGE_CURVE ( 'NONE', #753, #530, #600, .T. ) ;
#486 = DIRECTION ( 'NONE',  ( 1.000000000000000000, 0.000000000000000000, 0.000000000000000000 ) ) ;
#487 = DIRECTION ( 'NONE',  ( -1.000000000000000000, 0.000000000000000000, 0.000000000000000000 ) ) ;
#488 = APPLICATION_CONTEXT ( 'automotive_design' ) ;
#489 = EDGE_LOOP ( 'NONE', ( #400, #528 ) ) ;
#490 = CARTESIAN_POINT ( 'NONE',  ( 0.000000000000000000, 0.4921259842519684624, -3.937007874015748143 ) ) ;
#491 = SHAPE_REPRESENTATION ( 'ExampleBot-Base', ( #231 ), #749 ) ;
#492 = AXIS2_PLACEMENT_3D ( 'NONE', #333, #642, #134 ) ;
#493 = PRODUCT_DEFINITION ( 'UNKNOWN', '', #654, #363 ) ;
#494 = ORIENTED_EDGE ( 'NONE', *, *, #672, .T. ) ;
#495 = DIRECTION ( 'NONE',  ( -0.000000000000000000, -0.000000000000000000, -1.000000000000000000 ) ) ;
#496 = AXIS2_PLACEMENT_3D ( 'NONE', #437, #255, #765 ) ;
#497 = EDGE_LOOP ( 'NONE', ( #554, #388 ) ) ;
#498 = DIRECTION ( 'NONE',  ( 1.000000000000000000, 0.000000000000000000, 0.000000000000000000 ) ) ;
#499 = DIRECTION ( 'NONE',  ( -0.000000000000000000, -1.000000000000000000, -0.000000000000000000 ) ) ;
#500 = LINE ( 'NONE', #836, #737 ) ;
#501 = ORIENTED_EDGE ( 'NONE', *, *, #825, .F. ) ;
#502 =( LENGTH_UNIT ( ) NAMED_UNIT ( * ) SI_UNIT ( $, .METRE. ) );
#503 = LINE ( 'NONE', #760, #702 ) ;
#504 = DIRECTION ( 'NONE',  ( 1.156482317317871478E-16, 0.000000000000000000, 1.000000000000000000 ) ) ;
#505 = AXIS2_PLACEMENT_3D ( 'NONE', #220, #224, #86 ) ;
#506 = LENGTH_MEASURE_WITH_UNIT ( LENGTH_MEASURE( 0.02539999999999999897 ), #432 );
#507 = DIRECTION ( 'NONE',  ( 0.000000000000000000, -1.000000000000000000, 0.000000000000000000 ) ) ;
#508 = AXIS2_PLACEMENT_3D ( 'NONE', #610, #598, #286 ) ;
#509 = VECTOR ( 'NONE', #804, 39.37007874015748143 ) ;
#510 =( CONVERSION_BASED_UNIT ( 'INCH', #67 ) LENGTH_UNIT ( ) NAMED_UNIT ( #331 ) );
#511 = LINE ( 'NONE', #705, #284 ) ;
#512 =( NAMED_UNIT ( * ) SI_UNIT ( $, .STERADIAN. ) SOLID_ANGLE_UNIT ( ) );
#513 = CARTESIAN_POINT ( 'NONE',  ( 1.181102362204724088, 0.5905511811023621549, -0.4921259842519684624 ) ) ;
#514 = CARTESIAN_POINT ( 'NONE',  ( 0.000000000000000000, 0.000000000000000000, 0.000000000000000000 ) ) ;
#515 = APPLICATION_PROTOCOL_DEFINITION ( 'draft international standard', 'automotive_design', 1998, #488 ) ;
#516 = CARTESIAN_POINT ( 'NONE',  ( -6.829619984160658046E-17, 1.968503937007873850, 0.1968503937007875793 ) ) ;
#517 = VECTOR ( 'NONE', #58, 39.37007874015748143 ) ;
#518 = FACE_OUTER_BOUND ( 'NONE', #497, .T. ) ;
#519 = CLOSED_SHELL ( 'NONE', ( #561, #463, #695, #228, #6, #637, #597, #96, #166, #141, #100, #451, #729, #439, #392, #732, #449, #309, #521, #758, #706, #70, #131, #671, #133 ) ) ;
#520 = EDGE_LOOP ( 'NONE', ( #779, #173, #1, #547 ) ) ;
#521 = ADVANCED_FACE ( 'NONE', ( #315 ), #55, .T. ) ;
#522 = CONTEXT_DEPENDENT_SHAPE_REPRESENTATION ( #193, #42 ) ;
#523 = VECTOR ( 'NONE', #607, 39.37007874015748143 ) ;
#524 =( NAMED_UNIT ( * ) SI_UNIT ( $, .STERADIAN. ) SOLID_ANGLE_UNIT ( ) );
#525 = ORIENTED_EDGE ( 'NONE', *, *, #619, .F. ) ;
#526 = VERTEX_POINT ( 'NONE', #490 ) ;
#527 = CARTESIAN_POINT ( 'NONE',  ( 0.3937007874015748254, 1.968503937007873850, -3.937007874015748143 ) ) ;
#528 = ORIENTED_EDGE ( 'NONE', *, *, #369, .T. ) ;
#529 = CARTESIAN_POINT ( 'NONE',  ( 1.181102362204724310, 0.9842519685039370358, 0.1968503937007873850 ) ) ;
#530 = VERTEX_POINT ( 'NONE', #756 ) ;
#531 = CARTESIAN_POINT ( 'NONE',  ( 0.000000000000000000, 0.5905511811023621549, -3.937007874015748143 ) ) ;
#532 = DIRECTION ( 'NONE',  ( 1.000000000000000000, 0.000000000000000000, 0.000000000000000000 ) ) ;
#533 = VERTEX_POINT ( 'NONE', #186 ) ;
#534 = AXIS2_PLACEMENT_3D ( 'NONE', #343, #474, #194 ) ;
#535 = CARTESIAN_POINT ( 'NONE',  ( 4.821444091131311894E-16, 0.5905511811023621549, 3.937007874015748143 ) ) ;
#536 = DIRECTION ( 'NONE',  ( -1.000000000000000000, 0.000000000000000000, -0.000000000000000000 ) ) ;
#537 = DIRECTION ( 'NONE',  ( 0.000000000000000000, 0.000000000000000000, 1.000000000000000000 ) ) ;
#538 = AXIS2_PLACEMENT_3D ( 'NONE', #222, #472, #728 ) ;
#539 = CYLINDRICAL_SURFACE ( 'NONE', #643, 0.09842519685039372024 ) ;
#540 = VERTEX_POINT ( 'NONE', #250 ) ;
#541 = LINE ( 'NONE', #482, #324 ) ;
#542 = AXIS2_PLACEMENT_3D ( 'NONE', #92, #347, #28 ) ;
#543 = ORIENTED_EDGE ( 'NONE', *, *, #259, .T. ) ;
#544 = LINE ( 'NONE', #275, #143 ) ;
#545 = ORIENTED_EDGE ( 'NONE', *, *, #61, .F. ) ;
#546 = DIRECTION ( 'NONE',  ( 1.000000000000000000, 0.000000000000000000, 0.000000000000000000 ) ) ;
#547 = ORIENTED_EDGE ( 'NONE', *, *, #742, .T. ) ;
#548 = CARTESIAN_POINT ( 'NONE',  ( -1.082677165354330784, 1.968503937007874072, 0.5905511811023621549 ) ) ;
#549 = EDGE_CURVE ( 'NONE', #38, #226, #122, .T. ) ;
#550 = CARTESIAN_POINT ( 'NONE',  ( 1.181102362204724310, 1.968503937007874072, 0.1968503937007873850 ) ) ;
#551 = AXIS2_PLACEMENT_3D ( 'NONE', #778, #208, #712 ) ;
#552 = EDGE_CURVE ( 'NONE', #530, #360, #560, .T. ) ;
#553 = MECHANICAL_DESIGN_GEOMETRIC_PRESENTATION_REPRESENTATION (  '', ( #161 ), #265 ) ;
#554 = ORIENTED_EDGE ( 'NONE', *, *, #612, .F. ) ;
#555 = LINE ( 'NONE', #314, #583 ) ;
#556 = DIRECTION ( 'NONE',  ( 0.000000000000000000, -0.000000000000000000, 1.000000000000000000 ) ) ;
#557 = AXIS2_PLACEMENT_3D ( 'NONE', #793, #813, #151 ) ;
#558 = EDGE_LOOP ( 'NONE', ( #32, #606, #326, #310 ) ) ;
#559 =( CONVERSION_BASED_UNIT ( 'INCH', #53 ) LENGTH_UNIT ( ) NAMED_UNIT ( #647 ) );
#560 = LINE ( 'NONE', #112, #832 ) ;
#561 = ADVANCED_FACE ( 'NONE', ( #379 ), #616, .T. ) ;
#562 = ORIENTED_EDGE ( 'NONE', *, *, #578, .T. ) ;
#563 = VECTOR ( 'NONE', #582, 39.37007874015748143 ) ;
#564 = ORIENTED_EDGE ( 'NONE', *, *, #219, .F. ) ;
#565 = CARTESIAN_POINT ( 'NONE',  ( -6.829619984160658046E-17, 1.968503937007873850, -0.1968503937007873850 ) ) ;
#566 = CARTESIAN_POINT ( 'NONE',  ( 0.000000000000000000, 0.4921259842519684624, 3.838582677165354617 ) ) ;
#567 = ORIENTED_EDGE ( 'NONE', *, *, #295, .F. ) ;
#568 = CARTESIAN_POINT ( 'NONE',  ( -1.181102362204724754, 1.968503937007874072, -0.5905511811023621549 ) ) ;
#569 = CARTESIAN_POINT ( 'NONE',  ( 1.082677165354330340, 1.968503937007874072, -0.4921259842519684624 ) ) ;
#570 = MANIFOLD_SOLID_BREP ( 'Fillet1', #519 ) ;
#571 =( NAMED_UNIT ( * ) SI_UNIT ( $, .STERADIAN. ) SOLID_ANGLE_UNIT ( ) );
#572 = CYLINDRICAL_SURFACE ( 'NONE', #669, 1.181102362204724310 ) ;
#573 = EDGE_CURVE ( 'NONE', #287, #75, #393, .T. ) ;
#574 = SHAPE_DEFINITION_REPRESENTATION ( #684, #491 ) ;
#575 = CARTESIAN_POINT ( 'NONE',  ( 0.000000000000000000, 0.000000000000000000, 0.000000000000000000 ) ) ;
#576 = CIRCLE ( 'NONE', #557, 0.3937007874015748810 ) ;
#577 = CARTESIAN_POINT ( 'NONE',  ( -1.181102362204724310, 0.9842519685039370358, -0.1968503937007873850 ) ) ;
#578 = EDGE_CURVE ( 'NONE', #801, #452, #325, .T. ) ;
#579 = CARTESIAN_POINT ( 'NONE',  ( -6.829619984160658046E-17, 1.968503937007873850, -0.1968503937007875793 ) ) ;
#580 = EDGE_CURVE ( 'NONE', #38, #281, #271, .T. ) ;
#581 = ORIENTED_EDGE ( 'NONE', *, *, #57, .F. ) ;
#582 = DIRECTION ( 'NONE',  ( 1.156482317317871478E-16, 0.000000000000000000, 1.000000000000000000 ) ) ;
#583 = VECTOR ( 'NONE', #102, 39.37007874015748143 ) ;
#584 = EDGE_LOOP ( 'NONE', ( #459, #264, #329, #223 ) ) ;
#585 = DIRECTION ( 'NONE',  ( 0.000000000000000000, 0.000000000000000000, 1.000000000000000000 ) ) ;
#586 = EDGE_CURVE ( 'NONE', #759, #179, #214, .T. ) ;
#587 = APPLICATION_CONTEXT ( 'automotive_design' ) ;
#588 = ORIENTED_EDGE ( 'NONE', *, *, #15, .T. ) ;
#589 = TOROIDAL_SURFACE ( 'NONE', #622, 1.082677165354330784, 0.09842519685039370636 ) ;
#590 = CYLINDRICAL_SURFACE ( 'NONE', #147, 0.09842519685039372024 ) ;
#591 = DIRECTION ( 'NONE',  ( 0.000000000000000000, 1.000000000000000000, 0.000000000000000000 ) ) ;
#592 = ORIENTED_EDGE ( 'NONE', *, *, #573, .T. ) ;
#593 = CARTESIAN_POINT ( 'NONE',  ( 1.082677165354330784, 1.968503937007874072, 0.4921259842519684069 ) ) ;
#594 = CARTESIAN_POINT ( 'NONE',  ( 0.000000000000000000, 0.000000000000000000, -3.937007874015748143 ) ) ;
#595 = DIRECTION ( 'NONE',  ( 2.312964634635743450E-16, 0.000000000000000000, 1.000000000000000000 ) ) ;
#596 = ORIENTED_EDGE ( 'NONE', *, *, #79, .T. ) ;
#597 = ADVANCED_FACE ( 'NONE', ( #518 ), #448, .F. ) ;
#598 = DIRECTION ( 'NONE',  ( -0.000000000000000000, 0.000000000000000000, -1.000000000000000000 ) ) ;
#599 = ORIENTED_EDGE ( 'NONE', *, *, #124, .T. ) ;
#600 = CIRCLE ( 'NONE', #278, 1.181102362204724310 ) ;
#601 = LINE ( 'NONE', #413, #195 ) ;
#602 = PLANE ( 'NONE',  #64 ) ;
#603 = EDGE_LOOP ( 'NONE', ( #212, #473, #334, #234 ) ) ;
#604 = VECTOR ( 'NONE', #155, 39.37007874015748143 ) ;
#605 = LINE ( 'NONE', #406, #736 ) ;
#606 = ORIENTED_EDGE ( 'NONE', *, *, #37, .F. ) ;
#607 = DIRECTION ( 'NONE',  ( -2.312964634635742957E-16, -0.000000000000000000, -1.000000000000000000 ) ) ;
#608 = VECTOR ( 'NONE', #51, 39.37007874015748143 ) ;
#609 = UNCERTAINTY_MEASURE_WITH_UNIT (LENGTH_MEASURE( 1.000000000000000082E-05 ), #174, 'distance_accuracy_value', 'NONE');
#610 = CARTESIAN_POINT ( 'NONE',  ( -6.829619984160658046E-17, 1.968503937007873850, 0.1968503937007873850 ) ) ;
#611 = DIRECTION ( 'NONE',  ( 0.000000000000000000, 0.000000000000000000, -1.000000000000000000 ) ) ;
#612 = EDGE_CURVE ( 'NONE', #727, #776, #807, .T. ) ;
#613 = VERTEX_POINT ( 'NONE', #63 ) ;
#614 = CARTESIAN_POINT ( 'NONE',  ( -0.3937007874015749365, 1.968503937007873850, -0.1968503937007875793 ) ) ;
#615 = DIRECTION ( 'NONE',  ( 1.000000000000000000, 0.000000000000000000, 0.000000000000000000 ) ) ;
#616 = TOROIDAL_SURFACE ( 'NONE', #253, 3.838582677165354617, 0.09842519685039370636 ) ;
#617 = AXIS2_PLACEMENT_3D ( 'NONE', #98, #33, #296 ) ;
#618 = VERTEX_POINT ( 'NONE', #4 ) ;
#619 = EDGE_CURVE ( 'NONE', #452, #247, #838, .T. ) ;
#620 = EDGE_CURVE ( 'NONE', #247, #38, #19, .T. ) ;
#621 = CARTESIAN_POINT ( 'NONE',  ( 1.181102362204724310, 1.968503937007874072, -0.1968503937007873850 ) ) ;
#622 = AXIS2_PLACEMENT_3D ( 'NONE', #221, #152, #726 ) ;
#623 = EDGE_LOOP ( 'NONE', ( #743, #345, #494, #91 ) ) ;
#624 =( NAMED_UNIT ( * ) SI_UNIT ( $, .STERADIAN. ) SOLID_ANGLE_UNIT ( ) );
#625 = FACE_OUTER_BOUND ( 'NONE', #21, .T. ) ;
#626 = EDGE_LOOP ( 'NONE', ( #139, #301, #290, #351 ) ) ;
#627 = FILL_AREA_STYLE ('',( #701 ) ) ;
#628 = EDGE_LOOP ( 'NONE', ( #11, #781, #145, #355 ) ) ;
#629 = CARTESIAN_POINT ( 'NONE',  ( 1.181102362204724310, 0.9842519685039370358, -0.1968503937007873850 ) ) ;
#630 = CYLINDRICAL_SURFACE ( 'NONE', #409, 0.3937007874015748810 ) ;
#631 = CYLINDRICAL_SURFACE ( 'NONE', #335, 3.937007874015748143 ) ;
#632 = CIRCLE ( 'NONE', #542, 3.937007874015748143 ) ;
#633 = CARTESIAN_POINT ( 'NONE',  ( 0.000000000000000000, 0.000000000000000000, 0.000000000000000000 ) ) ;
#634 = DIRECTION ( 'NONE',  ( -0.000000000000000000, 1.000000000000000000, -0.000000000000000000 ) ) ;
#635 = DIRECTION ( 'NONE',  ( 0.000000000000000000, -1.000000000000000000, 0.000000000000000000 ) ) ;
#636 = FACE_OUTER_BOUND ( 'NONE', #148, .T. ) ;
#637 = ADVANCED_FACE ( 'NONE', ( #717, #382 ), #323, .T. ) ;
#638 = PRESENTATION_STYLE_ASSIGNMENT (( #704 ) ) ;
#639 = CARTESIAN_POINT ( 'NONE',  ( -0.3937007874015749365, 1.968503937007873850, 0.5905511811023621549 ) ) ;
#640 = APPLICATION_PROTOCOL_DEFINITION ( 'draft international standard', 'automotive_design', 1998, #374 ) ;
#641 = EDGE_CURVE ( 'NONE', #666, #526, #420, .T. ) ;
#642 = DIRECTION ( 'NONE',  ( 0.000000000000000000, 1.000000000000000000, 0.000000000000000000 ) ) ;
#643 = AXIS2_PLACEMENT_3D ( 'NONE', #803, #733, #744 ) ;
#644 = PRODUCT_RELATED_PRODUCT_CATEGORY ( 'part', '', ( #177 ) ) ;
#645 = VECTOR ( 'NONE', #149, 39.37007874015748143 ) ;
#646 = CARTESIAN_POINT ( 'NONE',  ( -6.829619984160658046E-17, 1.968503937007873850, 0.4921259842519684624 ) ) ;
#647 = DIMENSIONAL_EXPONENTS ( 1.000000000000000000, 0.000000000000000000, 0.000000000000000000, 0.000000000000000000, 0.000000000000000000, 0.000000000000000000, 0.000000000000000000 ) ;
#648 = CARTESIAN_POINT ( 'NONE',  ( 4.821444091131311894E-16, 0.4921259842519684624, 3.937007874015748143 ) ) ;
#649 = ORIENTED_EDGE ( 'NONE', *, *, #61, .T. ) ;
#650 = VECTOR ( 'NONE', #211, 39.37007874015748143 ) ;
#651 = FACE_OUTER_BOUND ( 'NONE', #476, .T. ) ;
#652 = DIRECTION ( 'NONE',  ( 0.000000000000000000, 0.000000000000000000, 1.000000000000000000 ) ) ;
#653 = ORIENTED_EDGE ( 'NONE', *, *, #295, .T. ) ;
#654 = PRODUCT_DEFINITION_FORMATION_WITH_SPECIFIED_SOURCE ( 'ANY', '', #238, .NOT_KNOWN. ) ;
#655 = ORIENTED_EDGE ( 'NONE', *, *, #825, .T. ) ;
#656 = AXIS2_PLACEMENT_3D ( 'NONE', #469, #276, #595 ) ;
#657 = CARTESIAN_POINT ( 'NONE',  ( 0.3937007874015748254, 1.968503937007873850, -3.937007874015748143 ) ) ;
#658 = EDGE_LOOP ( 'NONE', ( #213, #340, #564, #746 ) ) ;
#659 = CARTESIAN_POINT ( 'NONE',  ( -1.181102362204724532, 1.968503937007874072, 0.5905511811023621549 ) ) ;
#660 = EDGE_CURVE ( 'NONE', #530, #801, #144, .T. ) ;
#661 = EDGE_LOOP ( 'NONE', ( #204, #581 ) ) ;
#662 = CARTESIAN_POINT ( 'NONE',  ( -6.829619984160658046E-17, 1.968503937007873850, 0.1968503937007873850 ) ) ;
#663 = EDGE_LOOP ( 'NONE', ( #567, #599, #467, #674, #110, #464, #135, #592 ) ) ;
#664 = DIRECTION ( 'NONE',  ( 0.000000000000000000, 0.000000000000000000, 1.000000000000000000 ) ) ;
#665 = CARTESIAN_POINT ( 'NONE',  ( -1.181102362204724532, 1.968503937007874072, 0.4921259842519684624 ) ) ;
#666 = VERTEX_POINT ( 'NONE', #648 ) ;
#667 = FACE_OUTER_BOUND ( 'NONE', #283, .T. ) ;
#668 = ORIENTED_EDGE ( 'NONE', *, *, #44, .F. ) ;
#669 = AXIS2_PLACEMENT_3D ( 'NONE', #565, #312, #429 ) ;
#670 = CARTESIAN_POINT ( 'NONE',  ( -1.082677165354330784, 1.968503937007874072, -0.4921259842519684624 ) ) ;
#671 = ADVANCED_FACE ( 'NONE', ( #328 ), #267, .T. ) ;
#672 = EDGE_CURVE ( 'NONE', #456, #618, #138, .T. ) ;
#673 = DIRECTION ( 'NONE',  ( -1.000000000000000000, -0.000000000000000000, -0.000000000000000000 ) ) ;
#674 = ORIENTED_EDGE ( 'NONE', *, *, #428, .T. ) ;
#675 = CARTESIAN_POINT ( 'NONE',  ( 0.000000000000000000, 0.4921259842519684624, 0.000000000000000000 ) ) ;
#676 = ORIENTED_EDGE ( 'NONE', *, *, #641, .F. ) ;
#677 = DIRECTION ( 'NONE',  ( -1.000000000000000000, 0.000000000000000000, 0.000000000000000000 ) ) ;
#678 = FACE_BOUND ( 'NONE', #364, .T. ) ;
#679 = LINE ( 'NONE', #808, #509 ) ;
#680 = ORIENTED_EDGE ( 'NONE', *, *, #580, .T. ) ;
#681 = DIRECTION ( 'NONE',  ( 1.000000000000000000, 0.000000000000000000, 0.000000000000000000 ) ) ;
#682 = DIRECTION ( 'NONE',  ( -0.000000000000000000, -0.000000000000000000, 1.000000000000000000 ) ) ;
#683 = AXIS2_PLACEMENT_3D ( 'NONE', #579, #458, #837 ) ;
#684 = PRODUCT_DEFINITION_SHAPE ( 'NONE', 'NONE',  #493 ) ;
#685 = AXIS2_PLACEMENT_3D ( 'NONE', #305, #244, #754 ) ;
#686 = EDGE_LOOP ( 'NONE', ( #68, #786, #596, #83 ) ) ;
#687 = DIRECTION ( 'NONE',  ( 0.000000000000000000, 0.000000000000000000, -1.000000000000000000 ) ) ;
#688 = AXIS2_PLACEMENT_3D ( 'NONE', #232, #353, #418 ) ;
#689 = ORIENTED_EDGE ( 'NONE', *, *, #419, .T. ) ;
#690 = CARTESIAN_POINT ( 'NONE',  ( -6.829619984160658046E-17, 1.968503937007873850, -0.4921259842519684624 ) ) ;
#691 = ORIENTED_EDGE ( 'NONE', *, *, #251, .T. ) ;
#692 = DIRECTION ( 'NONE',  ( 0.000000000000000000, 0.000000000000000000, 1.000000000000000000 ) ) ;
#693 = CARTESIAN_POINT ( 'NONE',  ( -6.829619984160658046E-17, 1.968503937007873850, -0.5905511811023621549 ) ) ;
#694 = CARTESIAN_POINT ( 'NONE',  ( -6.829619984160658046E-17, 1.968503937007873850, 0.5905511811023621549 ) ) ;
#695 = ADVANCED_FACE ( 'NONE', ( #319 ), #833, .F. ) ;
#696 = DIRECTION ( 'NONE',  ( -0.000000000000000000, -1.000000000000000000, -0.000000000000000000 ) ) ;
#697 = AXIS2_PLACEMENT_3D ( 'NONE', #516, #12, #137 ) ;
#698 = PRESENTATION_LAYER_ASSIGNMENT (  '', '', ( #161 ) ) ;
#699 = EDGE_CURVE ( 'NONE', #471, #113, #235, .T. ) ;
#700 = PLANE ( 'NONE',  #132 ) ;
#701 = FILL_AREA_STYLE_COLOUR ( '', #34 ) ;
#702 = VECTOR ( 'NONE', #634, 39.37007874015748143 ) ;
#703 = CARTESIAN_POINT ( 'NONE',  ( 0.000000000000000000, 0.000000000000000000, 0.000000000000000000 ) ) ;
#704 = SURFACE_STYLE_USAGE ( .BOTH. , #818 ) ;
#705 = CARTESIAN_POINT ( 'NONE',  ( -0.3937007874015749365, 1.968503937007873850, -3.937007874015748143 ) ) ;
#706 = ADVANCED_FACE ( 'NONE', ( #466 ), #539, .T. ) ;
#707 = PRODUCT_DEFINITION ( 'UNKNOWN', '', #332, #386 ) ;
#708 = CARTESIAN_POINT ( 'NONE',  ( 0.3937007874015748254, 1.968503937007873850, -0.5905511811023621549 ) ) ;
#709 = VERTEX_POINT ( 'NONE', #341 ) ;
#710 = UNCERTAINTY_MEASURE_WITH_UNIT (LENGTH_MEASURE( 1.000000000000000082E-05 ), #559, 'distance_accuracy_value', 'NONE');
#711 = DIRECTION ( 'NONE',  ( 0.000000000000000000, 0.000000000000000000, 1.000000000000000000 ) ) ;
#712 = DIRECTION ( 'NONE',  ( 0.000000000000000000, 0.000000000000000000, -1.000000000000000000 ) ) ;
#713 = VERTEX_POINT ( 'NONE', #170 ) ;
#714 = ORIENTED_EDGE ( 'NONE', *, *, #748, .F. ) ;
#715 = CIRCLE ( 'NONE', #175, 1.181102362204724310 ) ;
#716 = ORIENTED_EDGE ( 'NONE', *, *, #237, .F. ) ;
#717 = FACE_OUTER_BOUND ( 'NONE', #407, .T. ) ;
#718 = ORIENTED_EDGE ( 'NONE', *, *, #766, .T. ) ;
#719 = EDGE_CURVE ( 'NONE', #45, #179, #791, .T. ) ;
#720 = ORIENTED_EDGE ( 'NONE', *, *, #201, .F. ) ;
#721 = VECTOR ( 'NONE', #22, 39.37007874015748143 ) ;
#722 = LINE ( 'NONE', #531, #645 ) ;
#723 = CARTESIAN_POINT ( 'NONE',  ( 1.181102362204724310, 1.968503937007874072, -0.4921259842519684624 ) ) ;
#724 = ORIENTED_EDGE ( 'NONE', *, *, #815, .F. ) ;
#725 = DIRECTION ( 'NONE',  ( -1.000000000000000000, -0.000000000000000000, -0.000000000000000000 ) ) ;
#726 = DIRECTION ( 'NONE',  ( -1.000000000000000000, 0.000000000000000000, 0.000000000000000000 ) ) ;
#727 = VERTEX_POINT ( 'NONE', #594 ) ;
#728 = DIRECTION ( 'NONE',  ( 1.000000000000000000, 0.000000000000000000, 0.000000000000000000 ) ) ;
#729 = ADVANCED_FACE ( 'NONE', ( #84, #158 ), #90, .T. ) ;
#730 = ORIENTED_EDGE ( 'NONE', *, *, #201, .T. ) ;
#731 = CARTESIAN_POINT ( 'NONE',  ( 1.082677165354330784, 1.968503937007874072, 0.5905511811023621549 ) ) ;
#732 = ADVANCED_FACE ( 'NONE', ( #667 ), #800, .F. ) ;
#733 = DIRECTION ( 'NONE',  ( 0.000000000000000000, -1.000000000000000000, 0.000000000000000000 ) ) ;
#734 = ORIENTED_EDGE ( 'NONE', *, *, #160, .F. ) ;
#735 = CARTESIAN_POINT ( 'NONE',  ( -6.829619984160658046E-17, 1.968503937007873850, -3.937007874015748143 ) ) ;
#736 = VECTOR ( 'NONE', #26, 39.37007874015748143 ) ;
#737 = VECTOR ( 'NONE', #117, 39.37007874015748143 ) ;
#738 = ORIENTED_EDGE ( 'NONE', *, *, #552, .F. ) ;
#739 = DIRECTION ( 'NONE',  ( 1.000000000000000000, 0.000000000000000000, 0.000000000000000000 ) ) ;
#740 = AXIS2_PLACEMENT_3D ( 'NONE', #568, #755, #185 ) ;
#741 = CARTESIAN_POINT ( 'NONE',  ( -1.181102362204724310, 1.968503937007874072, -0.1968503937007873850 ) ) ;
#742 = EDGE_CURVE ( 'NONE', #14, #294, #352, .T. ) ;
#743 = ORIENTED_EDGE ( 'NONE', *, *, #402, .F. ) ;
#744 = DIRECTION ( 'NONE',  ( 0.000000000000000000, 0.000000000000000000, -1.000000000000000000 ) ) ;
#745 = LINE ( 'NONE', #171, #752 ) ;
#746 = ORIENTED_EDGE ( 'NONE', *, *, #313, .F. ) ;
#747 = DIRECTION ( 'NONE',  ( 1.000000000000000000, 0.000000000000000000, 0.000000000000000000 ) ) ;
#748 = EDGE_CURVE ( 'NONE', #294, #281, #795, .T. ) ;
#749 =( GEOMETRIC_REPRESENTATION_CONTEXT ( 3 ) GLOBAL_UNCERTAINTY_ASSIGNED_CONTEXT ( ( #609 ) ) GLOBAL_UNIT_ASSIGNED_CONTEXT ( ( #174, #763, #571 ) ) REPRESENTATION_CONTEXT ( 'NONE', 'WORKASPACE' ) );
#750 = ORIENTED_EDGE ( 'NONE', *, *, #768, .T. ) ;
#751 = DIRECTION ( 'NONE',  ( 1.000000000000000000, 0.000000000000000000, 0.000000000000000000 ) ) ;
#752 = VECTOR ( 'NONE', #682, 39.37007874015748143 ) ;
#753 = VERTEX_POINT ( 'NONE', #723 ) ;
#754 = DIRECTION ( 'NONE',  ( 1.000000000000000000, 0.000000000000000000, 0.000000000000000000 ) ) ;
#755 = DIRECTION ( 'NONE',  ( 1.000000000000000000, 0.000000000000000000, -1.156482317317871725E-16 ) ) ;
#756 = CARTESIAN_POINT ( 'NONE',  ( -1.181102362204724754, 1.968503937007874072, -0.4921259842519684624 ) ) ;
#757 = DIRECTION ( 'NONE',  ( 0.000000000000000000, 0.000000000000000000, -1.000000000000000000 ) ) ;
#758 = ADVANCED_FACE ( 'NONE', ( #167 ), #764, .T. ) ;
#759 = VERTEX_POINT ( 'NONE', #614 ) ;
#760 = CARTESIAN_POINT ( 'NONE',  ( -1.082677165354331006, 1.968503937007874072, -0.5905511811023621549 ) ) ;
#761 = FACE_OUTER_BOUND ( 'NONE', #788, .T. ) ;
#762 = VECTOR ( 'NONE', #785, 39.37007874015748143 ) ;
#763 =( NAMED_UNIT ( * ) PLANE_ANGLE_UNIT ( ) SI_UNIT ( $, .RADIAN. ) );
#764 = TOROIDAL_SURFACE ( 'NONE', #538, 1.082677165354330784, 0.09842519685039370636 ) ;
#765 = DIRECTION ( 'NONE',  ( 1.000000000000000000, 0.000000000000000000, 0.000000000000000000 ) ) ;
#766 = EDGE_CURVE ( 'NONE', #349, #709, #544, .T. ) ;
#767 = CARTESIAN_POINT ( 'NONE',  ( 0.000000000000000000, 0.5905511811023621549, 0.000000000000000000 ) ) ;
#768 = EDGE_CURVE ( 'NONE', #540, #349, #280, .T. ) ;
#769 = DIRECTION ( 'NONE',  ( -1.000000000000000000, 0.000000000000000000, 0.000000000000000000 ) ) ;
#770 = CARTESIAN_POINT ( 'NONE',  ( 0.3937007874015748254, 1.968503937007873850, -0.1968503937007875793 ) ) ;
#771 = DIRECTION ( 'NONE',  ( 0.000000000000000000, -0.000000000000000000, 1.000000000000000000 ) ) ;
#772 = AXIS2_PLACEMENT_3D ( 'NONE', #8, #711, #450 ) ;
#773 = AXIS2_PLACEMENT_3D ( 'NONE', #191, #182, #370 ) ;
#774 = DIRECTION ( 'NONE',  ( -0.000000000000000000, -1.000000000000000000, -0.000000000000000000 ) ) ;
#775 = CIRCLE ( 'NONE', #279, 0.09842519685039372024 ) ;
#776 = VERTEX_POINT ( 'NONE', #811 ) ;
#777 = ORIENTED_EDGE ( 'NONE', *, *, #549, .F. ) ;
#778 = CARTESIAN_POINT ( 'NONE',  ( -1.082677165354330784, 1.968503937007874072, 0.4921259842519684624 ) ) ;
#779 = ORIENTED_EDGE ( 'NONE', *, *, #748, .T. ) ;
#780 = EDGE_CURVE ( 'NONE', #14, #101, #225, .T. ) ;
#781 = ORIENTED_EDGE ( 'NONE', *, *, #160, .T. ) ;
#782 = UNCERTAINTY_MEASURE_WITH_UNIT (LENGTH_MEASURE( 1.000000000000000082E-05 ), #510, 'distance_accuracy_value', 'NONE');
#783 = EDGE_CURVE ( 'NONE', #533, #287, #605, .T. ) ;
#784 = DIRECTION ( 'NONE',  ( -0.000000000000000000, -0.000000000000000000, 1.000000000000000000 ) ) ;
#785 = DIRECTION ( 'NONE',  ( -0.000000000000000000, -0.000000000000000000, 1.000000000000000000 ) ) ;
#786 = ORIENTED_EDGE ( 'NONE', *, *, #641, .T. ) ;
#787 = DIRECTION ( 'NONE',  ( 0.000000000000000000, 0.000000000000000000, -1.000000000000000000 ) ) ;
#788 = EDGE_LOOP ( 'NONE', ( #810, #136, #165, #159 ) ) ;
#789 = AXIS2_PLACEMENT_3D ( 'NONE', #575, #591, #199 ) ;
#790 = CARTESIAN_POINT ( 'NONE',  ( -0.3937007874015749365, 1.968503937007873850, -0.5905511811023621549 ) ) ;
#791 = LINE ( 'NONE', #657, #36 ) ;
#792 = ORIENTED_EDGE ( 'NONE', *, *, #313, .T. ) ;
#793 = CARTESIAN_POINT ( 'NONE',  ( -6.829619984160658046E-17, 1.968503937007873850, 0.1968503937007875793 ) ) ;
#794 = FACE_OUTER_BOUND ( 'NONE', #342, .T. ) ;
#795 = CIRCLE ( 'NONE', #479, 1.181102362204724310 ) ;
#796 = FACE_OUTER_BOUND ( 'NONE', #686, .T. ) ;
#797 = EDGE_CURVE ( 'NONE', #113, #14, #806, .T. ) ;
#798 = VERTEX_POINT ( 'NONE', #93 ) ;
#799 = CIRCLE ( 'NONE', #426, 0.3937007874015748810 ) ;
#800 = PLANE ( 'NONE',  #424 ) ;
#801 = VERTEX_POINT ( 'NONE', #348 ) ;
#802 = LINE ( 'NONE', #288, #523 ) ;
#803 = CARTESIAN_POINT ( 'NONE',  ( -1.082677165354331006, 1.968503937007874072, -0.4921259842519684624 ) ) ;
#804 = DIRECTION ( 'NONE',  ( -0.000000000000000000, 1.000000000000000000, -0.000000000000000000 ) ) ;
#805 = ORIENTED_EDGE ( 'NONE', *, *, #430, .T. ) ;
#806 = LINE ( 'NONE', #475, #372 ) ;
#807 = CIRCLE ( 'NONE', #789, 3.937007874015748143 ) ;
#808 = CARTESIAN_POINT ( 'NONE',  ( 1.181102362204724310, 0.9842519685039370358, 0.1968503937007873850 ) ) ;
#809 = CIRCLE ( 'NONE', #617, 3.838582677165354617 ) ;
#810 = ORIENTED_EDGE ( 'NONE', *, *, #285, .T. ) ;
#811 = CARTESIAN_POINT ( 'NONE',  ( 4.821444091131311894E-16, 0.000000000000000000, 3.937007874015748143 ) ) ;
#812 = CIRCLE ( 'NONE', #258, 0.09842519685039372024 ) ;
#813 = DIRECTION ( 'NONE',  ( -0.000000000000000000, -0.000000000000000000, -1.000000000000000000 ) ) ;
#814 = ORIENTED_EDGE ( 'NONE', *, *, #79, .F. ) ;
#815 = EDGE_CURVE ( 'NONE', #45, #94, #62, .T. ) ;
#816 = ORIENTED_EDGE ( 'NONE', *, *, #699, .T. ) ;
#817 = LENGTH_MEASURE_WITH_UNIT ( LENGTH_MEASURE( 0.02539999999999999897 ), #114 );
#818 = SURFACE_SIDE_STYLE ('',( #377 ) ) ;
#819 = AXIS2_PLACEMENT_3D ( 'NONE', #569, #507, #829 ) ;
#820 = EDGE_CURVE ( 'NONE', #229, #713, #809, .T. ) ;
#821 = EDGE_LOOP ( 'NONE', ( #653, #792, #206, #97, #826, #691, #391, #455 ) ) ;
#822 = DIRECTION ( 'NONE',  ( 0.000000000000000000, 0.000000000000000000, 1.000000000000000000 ) ) ;
#823 = CARTESIAN_POINT ( 'NONE',  ( -6.829619984160658046E-17, 1.968503937007873850, -3.937007874015748143 ) ) ;
#824 = CARTESIAN_POINT ( 'NONE',  ( 0.000000000000000000, 0.5905511811023621549, 0.000000000000000000 ) ) ;
#825 = EDGE_CURVE ( 'NONE', #294, #247, #555, .T. ) ;
#826 = ORIENTED_EDGE ( 'NONE', *, *, #17, .F. ) ;
#827 = DIRECTION ( 'NONE',  ( 0.000000000000000000, 0.000000000000000000, 1.000000000000000000 ) ) ;
#828 = PLANE ( 'NONE',  #740 ) ;
#829 = DIRECTION ( 'NONE',  ( 0.000000000000000000, 0.000000000000000000, -1.000000000000000000 ) ) ;
#830 = SURFACE_STYLE_FILL_AREA ( #365 ) ;
#831 = DIRECTION ( 'NONE',  ( 0.000000000000000000, 0.000000000000000000, 1.000000000000000000 ) ) ;
#832 = VECTOR ( 'NONE', #504, 39.37007874015748143 ) ;
#833 = CYLINDRICAL_SURFACE ( 'NONE', #438, 0.3937007874015748810 ) ;
#834 = CARTESIAN_POINT ( 'NONE',  ( 1.181102362204724310, 0.5905511811023621549, 0.4921259842519684069 ) ) ;
#835 = CIRCLE ( 'NONE', #470, 3.937007874015748143 ) ;
#836 = CARTESIAN_POINT ( 'NONE',  ( 1.181102362204724310, 0.9842519685039370358, 0.1968503937007873850 ) ) ;
#837 = DIRECTION ( 'NONE',  ( 1.000000000000000000, 0.000000000000000000, 0.000000000000000000 ) ) ;
#838 = LINE ( 'NONE', #454, #293 ) ;
#839 = NEXT_ASSEMBLY_USAGE_OCCURRENCE ( 'NAUO1', ' ', ' ', #707, #493, $ ) ;
ENDSEC;
END-ISO-10303-21;
