ISO-10303-21;
HEADER;
FILE_DESCRIPTION (( 'STEP AP214' ),
    '1' );
FILE_NAME ('link_1_collision.stp',
    '2026-08-17T21:00:41',
    ( '' ),
    ( '' ),
    'SwSTEP 2.0',
    'SolidWorks 2025',
    '' );
FILE_SCHEMA (( 'AUTOMOTIVE_DESIGN' ));
ENDSEC;

DATA;
#1 = ORIENTED_EDGE ( 'NONE', *, *, #844, .F. ) ;
#2 = FACE_OUTER_BOUND ( 'NONE', #723, .T. ) ;
#3 = VERTEX_POINT ( 'NONE', #1161 ) ;
#4 = DIRECTION ( 'NONE',  ( -1.387778780781445676E-17, -1.000000000000000000, 0.000000000000000000 ) ) ;
#5 = CARTESIAN_POINT ( 'NONE',  ( -0.6889763779527559029, 8.759842519685038909, -0.3937007874015748254 ) ) ;
#6 = ORIENTED_EDGE ( 'NONE', *, *, #1118, .T. ) ;
#7 = DIRECTION ( 'NONE',  ( 0.000000000000000000, -1.000000000000000000, -0.000000000000000000 ) ) ;
#8 = EDGE_LOOP ( 'NONE', ( #249, #442, #459, #681 ) ) ;
#9 = EDGE_CURVE ( 'NONE', #784, #25, #1157, .T. ) ;
#10 = CARTESIAN_POINT ( 'NONE',  ( 0.6889763779527559029, 0.000000000000000000, 0.09842519685039370636 ) ) ;
#11 = AXIS2_PLACEMENT_3D ( 'NONE', #10, #781, #1154 ) ;
#12 = AXIS2_PLACEMENT_3D ( 'NONE', #1182, #534, #66 ) ;
#13 = CIRCLE ( 'NONE', #991, 0.09842519685039370636 ) ;
#14 = DIRECTION ( 'NONE',  ( -1.000000000000000000, 0.000000000000000000, -0.000000000000000000 ) ) ;
#15 = ORIENTED_EDGE ( 'NONE', *, *, #930, .F. ) ;
#16 = VERTEX_POINT ( 'NONE', #891 ) ;
#17 = FACE_OUTER_BOUND ( 'NONE', #355, .T. ) ;
#18 = ORIENTED_EDGE ( 'NONE', *, *, #790, .F. ) ;
#19 = ORIENTED_EDGE ( 'NONE', *, *, #23, .F. ) ;
#20 = DIRECTION ( 'NONE',  ( -0.000000000000000000, -0.000000000000000000, 1.000000000000000000 ) ) ;
#21 = ORIENTED_EDGE ( 'NONE', *, *, #486, .T. ) ;
#22 = VERTEX_POINT ( 'NONE', #972 ) ;
#23 = EDGE_CURVE ( 'NONE', #1207, #100, #598, .T. ) ;
#24 = DIRECTION ( 'NONE',  ( -1.000000000000000000, 0.000000000000000000, -0.000000000000000000 ) ) ;
#25 = VERTEX_POINT ( 'NONE', #703 ) ;
#26 = EDGE_LOOP ( 'NONE', ( #771, #86, #417, #948, #439, #661 ) ) ;
#27 = PRODUCT_DEFINITION_FORMATION_WITH_SPECIFIED_SOURCE ( 'ANY', '', #390, .NOT_KNOWN. ) ;
#28 = EDGE_CURVE ( 'NONE', #769, #133, #654, .T. ) ;
#29 = CARTESIAN_POINT ( 'NONE',  ( -0.7874015748031495399, 1.377952755905512028, -0.1968503937007874127 ) ) ;
#30 = FACE_BOUND ( 'NONE', #649, .T. ) ;
#31 = EDGE_LOOP ( 'NONE', ( #200, #863, #950, #656 ) ) ;
#32 = EDGE_CURVE ( 'NONE', #54, #1002, #867, .T. ) ;
#33 = AXIS2_PLACEMENT_3D ( 'NONE', #1018, #1210, #373 ) ;
#34 = CIRCLE ( 'NONE', #507, 0.09842519685039372024 ) ;
#35 = DIRECTION ( 'NONE',  ( 0.000000000000000000, -1.000000000000000000, 0.000000000000000000 ) ) ;
#36 = CARTESIAN_POINT ( 'NONE',  ( 0.000000000000000000, 9.842519685039370358, 0.1968503937007874127 ) ) ;
#37 = CARTESIAN_POINT ( 'NONE',  ( 0.6889763779527559029, 0.000000000000000000, -0.1968503937007874127 ) ) ;
#38 = VERTEX_POINT ( 'NONE', #401 ) ;
#39 =( NAMED_UNIT ( * ) PLANE_ANGLE_UNIT ( ) SI_UNIT ( $, .RADIAN. ) );
#40 = CARTESIAN_POINT ( 'NONE',  ( -0.6889763779527560139, -1.365923996832128951E-18, 0.1968503937007874127 ) ) ;
#41 = FACE_OUTER_BOUND ( 'NONE', #1135, .T. ) ;
#42 = CIRCLE ( 'NONE', #945, 0.09842519685039372024 ) ;
#43 = CYLINDRICAL_SURFACE ( 'NONE', #233, 0.09842519685039365085 ) ;
#44 = EDGE_CURVE ( 'NONE', #158, #1014, #1062, .T. ) ;
#45 = LINE ( 'NONE', #415, #756 ) ;
#46 = ADVANCED_FACE ( 'NONE', ( #216 ), #129, .F. ) ;
#47 = DIRECTION ( 'NONE',  ( -0.000000000000000000, 1.000000000000000000, 0.000000000000000000 ) ) ;
#48 = VERTEX_POINT ( 'NONE', #707 ) ;
#49 = DIRECTION ( 'NONE',  ( -1.387778780781445676E-17, -1.000000000000000000, -0.000000000000000000 ) ) ;
#50 = VECTOR ( 'NONE', #243, 39.37007874015748143 ) ;
#51 = VECTOR ( 'NONE', #334, 39.37007874015748143 ) ;
#52 = DIRECTION ( 'NONE',  ( 1.000000000000000000, 0.000000000000000000, 0.000000000000000000 ) ) ;
#53 = DIRECTION ( 'NONE',  ( -1.000000000000000000, 0.000000000000000000, 0.000000000000000000 ) ) ;
#54 = VERTEX_POINT ( 'NONE', #134 ) ;
#55 = CARTESIAN_POINT ( 'NONE',  ( -6.829619984160658046E-17, 0.000000000000000000, 0.3937007874015748254 ) ) ;
#56 = CARTESIAN_POINT ( 'NONE',  ( 0.7874015748031493178, 1.377952755905512250, 0.3529317359869000859 ) ) ;
#57 = DIRECTION ( 'NONE',  ( 0.000000000000000000, -0.000000000000000000, 1.000000000000000000 ) ) ;
#58 = ORIENTED_EDGE ( 'NONE', *, *, #858, .T. ) ;
#59 = ADVANCED_FACE ( 'NONE', ( #413 ), #43, .T. ) ;
#60 = PRODUCT_DEFINITION ( 'UNKNOWN', '', #27, #236 ) ;
#61 = AXIS2_PLACEMENT_3D ( 'NONE', #273, #765, #294 ) ;
#62 = DIRECTION ( 'NONE',  ( 0.000000000000000000, 0.000000000000000000, 1.000000000000000000 ) ) ;
#63 = EDGE_CURVE ( 'NONE', #1127, #279, #366, .T. ) ;
#64 = CYLINDRICAL_SURFACE ( 'NONE', #1069, 0.09842519685039372024 ) ;
#65 = ORIENTED_EDGE ( 'NONE', *, *, #689, .T. ) ;
#66 = DIRECTION ( 'NONE',  ( -1.000000000000000000, 1.387778780781445676E-17, 0.000000000000000000 ) ) ;
#67 = ORIENTED_EDGE ( 'NONE', *, *, #630, .T. ) ;
#68 = FACE_OUTER_BOUND ( 'NONE', #924, .T. ) ;
#69 = CIRCLE ( 'NONE', #88, 0.09842519685039370636 ) ;
#70 = CIRCLE ( 'NONE', #895, 0.7874015748031495399 ) ;
#71 = VECTOR ( 'NONE', #500, 39.37007874015748143 ) ;
#72 = CARTESIAN_POINT ( 'NONE',  ( 0.000000000000000000, 9.842519685039370358, -0.1968503937007874127 ) ) ;
#73 = ORIENTED_EDGE ( 'NONE', *, *, #1169, .F. ) ;
#74 = ORIENTED_EDGE ( 'NONE', *, *, #32, .F. ) ;
#75 = CYLINDRICAL_SURFACE ( 'NONE', #620, 0.09842519685039372024 ) ;
#76 = SHAPE_REPRESENTATION ( 'link_1_collision', ( #1123, #655 ), #440 ) ;
#77 = EDGE_CURVE ( 'NONE', #133, #193, #1080, .T. ) ;
#78 = LINE ( 'NONE', #455, #877 ) ;
#79 = CARTESIAN_POINT ( 'NONE',  ( 0.6889763779527559029, 1.476377952755905776, 0.3937007874015748254 ) ) ;
#80 = VERTEX_POINT ( 'NONE', #779 ) ;
#81 = CARTESIAN_POINT ( 'NONE',  ( 0.2952755905511811885, 9.842519685039370358, 0.1968503937007874127 ) ) ;
#82 = EDGE_CURVE ( 'NONE', #889, #1047, #869, .T. ) ;
#83 = EDGE_CURVE ( 'NONE', #246, #100, #1173, .T. ) ;
#84 = CARTESIAN_POINT ( 'NONE',  ( -0.2952755905511811885, 9.842519685039370358, 0.000000000000000000 ) ) ;
#85 = LINE ( 'NONE', #1119, #973 ) ;
#86 = ORIENTED_EDGE ( 'NONE', *, *, #1096, .T. ) ;
#87 = ORIENTED_EDGE ( 'NONE', *, *, #702, .T. ) ;
#88 = AXIS2_PLACEMENT_3D ( 'NONE', #370, #919, #62 ) ;
#89 = DIRECTION ( 'NONE',  ( 0.000000000000000000, 0.000000000000000000, 1.000000000000000000 ) ) ;
#90 = CARTESIAN_POINT ( 'NONE',  ( -0.7874015748031495399, 8.759842519685038909, 0.3937007874015748254 ) ) ;
#91 = ORIENTED_EDGE ( 'NONE', *, *, #1202, .F. ) ;
#92 = CARTESIAN_POINT ( 'NONE',  ( 0.7874015748031495399, 8.858267716535433323, 0.2952755905511810774 ) ) ;
#93 = ORIENTED_EDGE ( 'NONE', *, *, #593, .F. ) ;
#94 = DIRECTION ( 'NONE',  ( 5.551115123125781913E-15, 0.000000000000000000, -1.000000000000000000 ) ) ;
#95 = DIRECTION ( 'NONE',  ( -1.000000000000000000, 0.000000000000000000, 0.000000000000000000 ) ) ;
#96 = VERTEX_POINT ( 'NONE', #1153 ) ;
#97 = ADVANCED_FACE ( 'NONE', ( #966 ), #123, .F. ) ;
#98 = ADVANCED_FACE ( 'NONE', ( #803 ), #926, .T. ) ;
#99 = CARTESIAN_POINT ( 'NONE',  ( -0.7874015748031496509, 0.000000000000000000, 0.09842519685039372024 ) ) ;
#100 = VERTEX_POINT ( 'NONE', #341 ) ;
#101 = PRODUCT_DEFINITION_FORMATION_WITH_SPECIFIED_SOURCE ( 'ANY', '', #493, .NOT_KNOWN. ) ;
#102 = LINE ( 'NONE', #84, #203 ) ;
#103 = FACE_OUTER_BOUND ( 'NONE', #31, .T. ) ;
#104 = ORIENTED_EDGE ( 'NONE', *, *, #660, .F. ) ;
#105 = CYLINDRICAL_SURFACE ( 'NONE', #1024, 0.09842519685039365085 ) ;
#106 = CIRCLE ( 'NONE', #1129, 0.3937007874015748254 ) ;
#107 = AXIS2_PLACEMENT_3D ( 'NONE', #55, #353, #735 ) ;
#108 = AXIS2_PLACEMENT_3D ( 'NONE', #1170, #724, #914 ) ;
#109 = CARTESIAN_POINT ( 'NONE',  ( -0.7466325233884748558, 8.817498665120758972, -0.3937007874015747699 ) ) ;
#110 = ORIENTED_EDGE ( 'NONE', *, *, #9, .T. ) ;
#111 = FACE_OUTER_BOUND ( 'NONE', #376, .T. ) ;
#112 = ORIENTED_EDGE ( 'NONE', *, *, #839, .T. ) ;
#113 = ORIENTED_EDGE ( 'NONE', *, *, #646, .F. ) ;
#114 = ADVANCED_FACE ( 'NONE', ( #441 ), #253, .T. ) ;
#115 = DIRECTION ( 'NONE',  ( 1.000000000000000000, 0.000000000000000000, 0.000000000000000000 ) ) ;
#116 = DIRECTION ( 'NONE',  ( 1.387778780781445676E-17, 1.000000000000000000, -0.000000000000000000 ) ) ;
#117 = DIRECTION ( 'NONE',  ( -0.000000000000000000, -1.000000000000000000, -0.000000000000000000 ) ) ;
#118 = ORIENTED_EDGE ( 'NONE', *, *, #408, .F. ) ;
#119 = ADVANCED_FACE ( 'NONE', ( #446 ), #809, .T. ) ;
#120 = ORIENTED_EDGE ( 'NONE', *, *, #449, .F. ) ;
#121 = AXIS2_PLACEMENT_3D ( 'NONE', #226, #229, #798 ) ;
#122 = SURFACE_STYLE_FILL_AREA ( #970 ) ;
#123 = PLANE ( 'NONE',  #274 ) ;
#124 = PRESENTATION_STYLE_ASSIGNMENT (( #420 ) ) ;
#125 = CARTESIAN_POINT ( 'NONE',  ( 0.6889763779527559029, 1.476377952755905776, 0.3937007874015748254 ) ) ;
#126 = APPLICATION_CONTEXT ( 'automotive_design' ) ;
#127 = AXIS2_PLACEMENT_3D ( 'NONE', #929, #570, #178 ) ;
#128 = AXIS2_PLACEMENT_3D ( 'NONE', #358, #266, #927 ) ;
#129 = PLANE ( 'NONE',  #773 ) ;
#130 =( LENGTH_UNIT ( ) NAMED_UNIT ( * ) SI_UNIT ( $, .METRE. ) );
#131 = DIRECTION ( 'NONE',  ( 1.000000000000000000, 0.000000000000000000, 0.000000000000000000 ) ) ;
#132 = CARTESIAN_POINT ( 'NONE',  ( 0.7874015748031495399, 8.858267716535433323, -0.2952755905511811885 ) ) ;
#133 = VERTEX_POINT ( 'NONE', #1013 ) ;
#134 = CARTESIAN_POINT ( 'NONE',  ( -0.7874015748031495399, 1.377952755905512028, -0.09842519685039372024 ) ) ;
#135 = ADVANCED_FACE ( 'NONE', ( #712, #725 ), #155, .F. ) ;
#136 = CARTESIAN_POINT ( 'NONE',  ( 0.6889763779527559029, 0.000000000000000000, -0.2952755905511811885 ) ) ;
#137 = CARTESIAN_POINT ( 'NONE',  ( -0.7874015748031496509, 8.858267716535433323, 0.1968503937007874127 ) ) ;
#138 = ORIENTED_EDGE ( 'NONE', *, *, #643, .F. ) ;
#139 = STYLED_ITEM ( 'NONE', ( #124 ), #430 ) ;
#140 = EDGE_LOOP ( 'NONE', ( #683, #1171, #834, #1055, #113, #1104, #980, #516, #775, #936, #19, #21 ) ) ;
#141 = DIRECTION ( 'NONE',  ( -0.000000000000000000, -0.000000000000000000, 1.000000000000000000 ) ) ;
#142 = DIRECTION ( 'NONE',  ( 0.000000000000000000, 0.000000000000000000, 1.000000000000000000 ) ) ;
#143 = VERTEX_POINT ( 'NONE', #79 ) ;
#144 = CARTESIAN_POINT ( 'NONE',  ( 0.000000000000000000, 9.842519685039370358, -0.09842519685039372024 ) ) ;
#145 =( CONVERSION_BASED_UNIT ( 'INCH', #616 ) LENGTH_UNIT ( ) NAMED_UNIT ( #357 ) );
#146 = CIRCLE ( 'NONE', #665, 0.2952755905511811885 ) ;
#147 = VECTOR ( 'NONE', #1122, 39.37007874015748143 ) ;
#148 = DIRECTION ( 'NONE',  ( 0.000000000000000000, -1.000000000000000000, 0.000000000000000000 ) ) ;
#149 = EDGE_LOOP ( 'NONE', ( #18, #300, #255, #464 ) ) ;
#150 = DIRECTION ( 'NONE',  ( 0.000000000000000000, 0.000000000000000000, 1.000000000000000000 ) ) ;
#151 = CARTESIAN_POINT ( 'NONE',  ( -0.7874015748031496509, 0.000000000000000000, -0.09842519685039372024 ) ) ;
#152 = EDGE_CURVE ( 'NONE', #291, #54, #42, .T. ) ;
#153 = CARTESIAN_POINT ( 'NONE',  ( -0.6889763779527559029, 9.842519685039368582, 0.1968503937007874127 ) ) ;
#154 = EDGE_LOOP ( 'NONE', ( #747, #849, #684, #496 ) ) ;
#155 = PLANE ( 'NONE',  #256 ) ;
#156 = ORIENTED_EDGE ( 'NONE', *, *, #1202, .T. ) ;
#157 = DIRECTION ( 'NONE',  ( 0.000000000000000000, -1.000000000000000000, 0.000000000000000000 ) ) ;
#158 = VERTEX_POINT ( 'NONE', #169 ) ;
#159 =( BOUNDED_CURVE ( )  B_SPLINE_CURVE ( 3, ( #531, #1001, #453, #1100 ),
 .UNSPECIFIED., .F., .F. ) 
 B_SPLINE_CURVE_WITH_KNOTS ( ( 4, 4 ),
 ( 1.570796326794896558, 3.141592653589793116 ),
 .UNSPECIFIED. ) 
 CURVE ( )  GEOMETRIC_REPRESENTATION_ITEM ( )  RATIONAL_B_SPLINE_CURVE ( ( 1.000000000000000000, 0.8047378541243649375, 0.8047378541243649375, 1.000000000000000000 ) ) 
 REPRESENTATION_ITEM ( '' )  );
#160 = DIRECTION ( 'NONE',  ( -1.000000000000000000, 3.172065784643304570E-15, 0.000000000000000000 ) ) ;
#161 = DIRECTION ( 'NONE',  ( -1.387778780781446600E-17, -1.000000000000000000, 0.000000000000000000 ) ) ;
#162 = EDGE_LOOP ( 'NONE', ( #432, #853, #280, #811 ) ) ;
#163 = FACE_OUTER_BOUND ( 'NONE', #701, .T. ) ;
#164 = VECTOR ( 'NONE', #652, 39.37007874015748143 ) ;
#165 = VECTOR ( 'NONE', #220, 39.37007874015748143 ) ;
#166 = AXIS2_PLACEMENT_3D ( 'NONE', #423, #142, #808 ) ;
#167 = LINE ( 'NONE', #710, #426 ) ;
#168 = ADVANCED_FACE ( 'NONE', ( #456 ), #998, .T. ) ;
#169 = CARTESIAN_POINT ( 'NONE',  ( 0.6889763779527559029, 8.858267716535433323, 0.1968503937007874127 ) ) ;
#170 = ORIENTED_EDGE ( 'NONE', *, *, #486, .F. ) ;
#171 = DIRECTION ( 'NONE',  ( -0.000000000000000000, -0.000000000000000000, -1.000000000000000000 ) ) ;
#172 = EDGE_CURVE ( 'NONE', #784, #1107, #541, .T. ) ;
#173 = DIRECTION ( 'NONE',  ( 1.000000000000000000, 0.000000000000000000, 0.000000000000000000 ) ) ;
#174 = CARTESIAN_POINT ( 'NONE',  ( 0.7874015748031495399, 8.858267716535433323, 0.2952755905511810774 ) ) ;
#175 = DIRECTION ( 'NONE',  ( -1.000000000000000000, 1.387778780781445676E-17, 0.000000000000000000 ) ) ;
#176 = AXIS2_PLACEMENT_3D ( 'NONE', #303, #567, #1134 ) ;
#177 = CARTESIAN_POINT ( 'NONE',  ( -0.7874015748031495399, 8.858267716535433323, -0.09842519685039372024 ) ) ;
#178 = DIRECTION ( 'NONE',  ( 0.000000000000000000, -0.000000000000000000, 1.000000000000000000 ) ) ;
#179 = VERTEX_POINT ( 'NONE', #240 ) ;
#180 = LINE ( 'NONE', #207, #214 ) ;
#181 = VECTOR ( 'NONE', #675, 39.37007874015748143 ) ;
#182 = AXIS2_PLACEMENT_3D ( 'NONE', #733, #645, #173 ) ;
#183 = CARTESIAN_POINT ( 'NONE',  ( 0.6889763779527559029, 1.377952755905512028, -0.09842519685039372024 ) ) ;
#184 = EDGE_CURVE ( 'NONE', #553, #1207, #322, .T. ) ;
#185 = ADVANCED_FACE ( 'NONE', ( #1198 ), #359, .T. ) ;
#186 = CARTESIAN_POINT ( 'NONE',  ( -0.7874015748031495399, 1.377952755905512028, 0.2952755905511810774 ) ) ;
#187 = ORIENTED_EDGE ( 'NONE', *, *, #32, .T. ) ;
#188 = DIRECTION ( 'NONE',  ( -0.000000000000000000, -0.000000000000000000, -1.000000000000000000 ) ) ;
#189 = ORIENTED_EDGE ( 'NONE', *, *, #152, .F. ) ;
#190 = LINE ( 'NONE', #177, #974 ) ;
#191 = DIRECTION ( 'NONE',  ( -0.000000000000000000, -0.000000000000000000, -1.000000000000000000 ) ) ;
#192 = EDGE_LOOP ( 'NONE', ( #943, #206, #910, #721 ) ) ;
#193 = VERTEX_POINT ( 'NONE', #235 ) ;
#194 = LINE ( 'NONE', #1148, #336 ) ;
#195 = ORIENTED_EDGE ( 'NONE', *, *, #753, .F. ) ;
#196 = EDGE_CURVE ( 'NONE', #1139, #918, #627, .T. ) ;
#197 = CARTESIAN_POINT ( 'NONE',  ( 0.6889763779527559029, 0.000000000000000000, -0.1968503937007874127 ) ) ;
#198 = ORIENTED_EDGE ( 'NONE', *, *, #752, .T. ) ;
#199 = CARTESIAN_POINT ( 'NONE',  ( 0.7874015748031495399, 8.858267716535433323, 0.3529317359869000859 ) ) ;
#200 = ORIENTED_EDGE ( 'NONE', *, *, #217, .T. ) ;
#201 = AXIS2_PLACEMENT_3D ( 'NONE', #969, #984, #520 ) ;
#202 = AXIS2_PLACEMENT_3D ( 'NONE', #1061, #47, #783 ) ;
#203 = VECTOR ( 'NONE', #740, 39.37007874015748143 ) ;
#204 = EDGE_LOOP ( 'NONE', ( #340, #802, #1035, #482 ) ) ;
#205 = ADVANCED_FACE ( 'NONE', ( #1177 ), #994, .T. ) ;
#206 = ORIENTED_EDGE ( 'NONE', *, *, #1096, .F. ) ;
#207 = CARTESIAN_POINT ( 'NONE',  ( 0.7874015748031495399, 9.842519685039370358, 0.3937007874015748254 ) ) ;
#208 = VERTEX_POINT ( 'NONE', #347 ) ;
#209 = VERTEX_POINT ( 'NONE', #1098 ) ;
#210 = DIRECTION ( 'NONE',  ( 1.000000000000000000, 0.000000000000000000, 0.000000000000000000 ) ) ;
#211 = DIRECTION ( 'NONE',  ( 0.000000000000000000, 1.000000000000000000, 0.000000000000000000 ) ) ;
#212 =( LENGTH_UNIT ( ) NAMED_UNIT ( * ) SI_UNIT ( $, .METRE. ) );
#213 = DIRECTION ( 'NONE',  ( -0.000000000000000000, -0.000000000000000000, -1.000000000000000000 ) ) ;
#214 = VECTOR ( 'NONE', #188, 39.37007874015748143 ) ;
#215 = LINE ( 'NONE', #400, #265 ) ;
#216 = FACE_OUTER_BOUND ( 'NONE', #140, .T. ) ;
#217 = EDGE_CURVE ( 'NONE', #96, #1139, #383, .T. ) ;
#218 = DIRECTION ( 'NONE',  ( 0.000000000000000000, 0.000000000000000000, 1.000000000000000000 ) ) ;
#219 = CARTESIAN_POINT ( 'NONE',  ( 0.7874015748031495399, 0.000000000000000000, -0.09842519685039372024 ) ) ;
#220 = DIRECTION ( 'NONE',  ( 0.000000000000000000, 1.000000000000000000, 0.000000000000000000 ) ) ;
#221 = EDGE_LOOP ( 'NONE', ( #706, #454, #1093, #1140 ) ) ;
#222 = AXIS2_PLACEMENT_3D ( 'NONE', #262, #171, #251 ) ;
#223 = AXIS2_PLACEMENT_3D ( 'NONE', #1025, #1043, #267 ) ;
#224 = EDGE_CURVE ( 'NONE', #54, #1006, #542, .T. ) ;
#225 = AXIS2_PLACEMENT_3D ( 'NONE', #416, #1056, #259 ) ;
#226 = CARTESIAN_POINT ( 'NONE',  ( 0.6889763779527559029, 0.000000000000000000, 0.09842519685039370636 ) ) ;
#227 = LINE ( 'NONE', #878, #50 ) ;
#228 = ORIENTED_EDGE ( 'NONE', *, *, #953, .F. ) ;
#229 = DIRECTION ( 'NONE',  ( 0.000000000000000000, 1.000000000000000000, 0.000000000000000000 ) ) ;
#230 = FACE_OUTER_BOUND ( 'NONE', #396, .T. ) ;
#231 = PLANE ( 'NONE',  #1205 ) ;
#232 = VERTEX_POINT ( 'NONE', #837 ) ;
#233 = AXIS2_PLACEMENT_3D ( 'NONE', #788, #116, #981 ) ;
#234 = AXIS2_PLACEMENT_3D ( 'NONE', #744, #622, #375 ) ;
#235 = CARTESIAN_POINT ( 'NONE',  ( 0.7874015748031495399, 8.858267716535433323, 0.09842519685039370636 ) ) ;
#236 = PRODUCT_DEFINITION_CONTEXT ( 'detailed design', #126, 'design' ) ;
#237 = DIRECTION ( 'NONE',  ( 0.000000000000000000, 1.000000000000000000, -0.000000000000000000 ) ) ;
#238 = DIRECTION ( 'NONE',  ( -0.000000000000000000, -0.000000000000000000, -1.000000000000000000 ) ) ;
#239 = ORIENTED_EDGE ( 'NONE', *, *, #536, .T. ) ;
#240 = CARTESIAN_POINT ( 'NONE',  ( 0.3937007874015748254, 0.000000000000000000, -0.1968503937007874127 ) ) ;
#241 = EDGE_CURVE ( 'NONE', #38, #1191, #244, .T. ) ;
#242 = AXIS2_PLACEMENT_3D ( 'NONE', #136, #1070, #514 ) ;
#243 = DIRECTION ( 'NONE',  ( -0.000000000000000000, -0.000000000000000000, -1.000000000000000000 ) ) ;
#244 =( BOUNDED_CURVE ( )  B_SPLINE_CURVE ( 3, ( #463, #845, #109, #5 ),
 .UNSPECIFIED., .F., .F. ) 
 B_SPLINE_CURVE_WITH_KNOTS ( ( 4, 4 ),
 ( 0.000000000000000000, 1.570796326794896558 ),
 .UNSPECIFIED. ) 
 CURVE ( )  GEOMETRIC_REPRESENTATION_ITEM ( )  RATIONAL_B_SPLINE_CURVE ( ( 1.000000000000000000, 0.8047378541243649375, 0.8047378541243649375, 1.000000000000000000 ) ) 
 REPRESENTATION_ITEM ( '' )  );
#245 = CARTESIAN_POINT ( 'NONE',  ( 0.6889763779527556808, 1.377952755905512028, 0.1968503937007874127 ) ) ;
#246 = VERTEX_POINT ( 'NONE', #174 ) ;
#247 = APPLICATION_CONTEXT ( 'automotive_design' ) ;
#248 = DIRECTION ( 'NONE',  ( -0.000000000000000000, 1.000000000000000000, 0.000000000000000000 ) ) ;
#249 = ORIENTED_EDGE ( 'NONE', *, *, #1115, .T. ) ;
#250 = ORIENTED_EDGE ( 'NONE', *, *, #643, .T. ) ;
#251 = DIRECTION ( 'NONE',  ( -1.000000000000000000, 0.000000000000000000, 0.000000000000000000 ) ) ;
#252 = CARTESIAN_POINT ( 'NONE',  ( -0.7874015748031495399, 9.842519685039368582, -0.09842519685039372024 ) ) ;
#253 = CYLINDRICAL_SURFACE ( 'NONE', #595, 0.09842519685039370636 ) ;
#254 = APPLICATION_PROTOCOL_DEFINITION ( 'draft international standard', 'automotive_design', 1998, #565 ) ;
#255 = ORIENTED_EDGE ( 'NONE', *, *, #752, .F. ) ;
#256 = AXIS2_PLACEMENT_3D ( 'NONE', #815, #899, #820 ) ;
#257 = DIRECTION ( 'NONE',  ( 0.000000000000000000, -1.000000000000000000, 0.000000000000000000 ) ) ;
#258 = EDGE_CURVE ( 'NONE', #22, #497, #70, .T. ) ;
#259 = DIRECTION ( 'NONE',  ( -1.000000000000000000, 0.000000000000000000, 0.000000000000000000 ) ) ;
#260 = DIRECTION ( 'NONE',  ( 0.000000000000000000, -0.000000000000000000, -1.000000000000000000 ) ) ;
#261 = EDGE_CURVE ( 'NONE', #749, #586, #284, .T. ) ;
#262 = CARTESIAN_POINT ( 'NONE',  ( 0.000000000000000000, 9.842519685039370358, 0.3937007874015748254 ) ) ;
#263 = AXIS2_PLACEMENT_3D ( 'NONE', #443, #157, #1196 ) ;
#264 = CIRCLE ( 'NONE', #698, 0.6889763779527560139 ) ;
#265 = VECTOR ( 'NONE', #608, 39.37007874015748143 ) ;
#266 = DIRECTION ( 'NONE',  ( -0.000000000000000000, 1.000000000000000000, 0.000000000000000000 ) ) ;
#267 = DIRECTION ( 'NONE',  ( 1.000000000000000000, 0.000000000000000000, 0.000000000000000000 ) ) ;
#268 = ORIENTED_EDGE ( 'NONE', *, *, #882, .T. ) ;
#269 = DIRECTION ( 'NONE',  ( 0.000000000000000000, 1.000000000000000000, 0.000000000000000000 ) ) ;
#270 = DIRECTION ( 'NONE',  ( -1.387778780781445676E-17, -1.000000000000000000, -0.000000000000000000 ) ) ;
#271 = LINE ( 'NONE', #1138, #1051 ) ;
#272 = ORIENTED_EDGE ( 'NONE', *, *, #732, .T. ) ;
#273 = CARTESIAN_POINT ( 'NONE',  ( 0.000000000000000000, 0.000000000000000000, 0.000000000000000000 ) ) ;
#274 = AXIS2_PLACEMENT_3D ( 'NONE', #874, #35, #260 ) ;
#275 = AXIS2_PLACEMENT_3D ( 'NONE', #435, #592, #967 ) ;
#276 = EDGE_CURVE ( 'NONE', #96, #889, #264, .T. ) ;
#277 = PRODUCT_DEFINITION ( 'UNKNOWN', '', #101, #297 ) ;
#278 = CARTESIAN_POINT ( 'NONE',  ( 0.6889763779527559029, 0.000000000000000000, -0.09842519685039370636 ) ) ;
#279 = VERTEX_POINT ( 'NONE', #488 ) ;
#280 = ORIENTED_EDGE ( 'NONE', *, *, #897, .F. ) ;
#281 = DIRECTION ( 'NONE',  ( -0.000000000000000000, -0.000000000000000000, 1.000000000000000000 ) ) ;
#282 = ADVANCED_FACE ( 'NONE', ( #946 ), #935, .T. ) ;
#283 = EDGE_LOOP ( 'NONE', ( #589, #568, #118, #386 ) ) ;
#284 = CIRCLE ( 'NONE', #33, 0.09842519685039370636 ) ;
#285 = VECTOR ( 'NONE', #1087, 39.37007874015748143 ) ;
#286 = LINE ( 'NONE', #377, #857 ) ;
#287 = DIRECTION ( 'NONE',  ( -1.000000000000000000, 0.000000000000000000, 0.000000000000000000 ) ) ;
#288 =( BOUNDED_CURVE ( )  B_SPLINE_CURVE ( 3, ( #653, #559, #508, #406 ),
 .UNSPECIFIED., .F., .F. ) 
 B_SPLINE_CURVE_WITH_KNOTS ( ( 4, 4 ),
 ( 3.141592653589793116, 4.712388980384689674 ),
 .UNSPECIFIED. ) 
 CURVE ( )  GEOMETRIC_REPRESENTATION_ITEM ( )  RATIONAL_B_SPLINE_CURVE ( ( 1.000000000000000000, 0.8047378541243649375, 0.8047378541243649375, 1.000000000000000000 ) ) 
 REPRESENTATION_ITEM ( '' )  );
#289 = ORIENTED_EDGE ( 'NONE', *, *, #883, .F. ) ;
#290 = CARTESIAN_POINT ( 'NONE',  ( 0.6889763779527559029, 8.759842519685038909, 0.3937007874015748254 ) ) ;
#291 = VERTEX_POINT ( 'NONE', #852 ) ;
#292 = CARTESIAN_POINT ( 'NONE',  ( 0.2952755905511811885, 9.842519685039370358, 0.000000000000000000 ) ) ;
#293 = ORIENTED_EDGE ( 'NONE', *, *, #1169, .T. ) ;
#294 = DIRECTION ( 'NONE',  ( 1.000000000000000000, 0.000000000000000000, 0.000000000000000000 ) ) ;
#295 = ORIENTED_EDGE ( 'NONE', *, *, #702, .F. ) ;
#296 = AXIS2_PLACEMENT_3D ( 'NONE', #574, #949, #24 ) ;
#297 = PRODUCT_DEFINITION_CONTEXT ( 'detailed design', #247, 'design' ) ;
#298 = EDGE_CURVE ( 'NONE', #586, #232, #85, .T. ) ;
#299 = CARTESIAN_POINT ( 'NONE',  ( 0.6889763779527559029, 0.000000000000000000, -0.1968503937007874127 ) ) ;
#300 = ORIENTED_EDGE ( 'NONE', *, *, #573, .F. ) ;
#301 = ORIENTED_EDGE ( 'NONE', *, *, #63, .T. ) ;
#302 = ADVANCED_FACE ( 'NONE', ( #103 ), #447, .T. ) ;
#303 = CARTESIAN_POINT ( 'NONE',  ( 0.000000000000000000, 0.000000000000000000, -0.1968503937007874127 ) ) ;
#304 = EDGE_LOOP ( 'NONE', ( #787, #389, #588, #776 ) ) ;
#305 = PRODUCT_DEFINITION_SHAPE ( 'NONE', 'NONE',  #277 ) ;
#306 = AXIS2_PLACEMENT_3D ( 'NONE', #690, #89, #933 ) ;
#307 = LINE ( 'NONE', #37, #71 ) ;
#308 = DIRECTION ( 'NONE',  ( 0.000000000000000000, 0.000000000000000000, -1.000000000000000000 ) ) ;
#309 = CARTESIAN_POINT ( 'NONE',  ( -6.829619984160658046E-17, 0.000000000000000000, -0.1968503937007874127 ) ) ;
#310 =( NAMED_UNIT ( * ) SI_UNIT ( $, .STERADIAN. ) SOLID_ANGLE_UNIT ( ) );
#311 = DIRECTION ( 'NONE',  ( -0.000000000000000000, -0.000000000000000000, 1.000000000000000000 ) ) ;
#312 = SURFACE_SIDE_STYLE ('',( #605 ) ) ;
#313 = DIRECTION ( 'NONE',  ( 1.000000000000000000, 0.000000000000000000, 0.000000000000000000 ) ) ;
#314 = EDGE_CURVE ( 'NONE', #956, #784, #1032, .T. ) ;
#315 = ADVANCED_FACE ( 'NONE', ( #830 ), #1112, .T. ) ;
#316 = CARTESIAN_POINT ( 'NONE',  ( -0.2952755905511811885, 9.842519685039370358, 0.1968503937007874127 ) ) ;
#317 = ORIENTED_EDGE ( 'NONE', *, *, #333, .T. ) ;
#318 = ORIENTED_EDGE ( 'NONE', *, *, #184, .F. ) ;
#319 = CYLINDRICAL_SURFACE ( 'NONE', #242, 0.09842519685039372024 ) ;
#320 = VERTEX_POINT ( 'NONE', #186 ) ;
#321 = AXIS2_PLACEMENT_3D ( 'NONE', #564, #1017, #1036 ) ;
#322 = CIRCLE ( 'NONE', #736, 0.09842519685039370636 ) ;
#323 = VECTOR ( 'NONE', #431, 39.37007874015748143 ) ;
#324 = CARTESIAN_POINT ( 'NONE',  ( 0.6889763779527559029, 0.000000000000000000, 0.1968503937007874127 ) ) ;
#325 = EDGE_CURVE ( 'NONE', #80, #476, #670, .T. ) ;
#326 = CARTESIAN_POINT ( 'NONE',  ( 0.6889763779527559029, 8.858267716535433323, 0.09842519685039370636 ) ) ;
#327 = LINE ( 'NONE', #1011, #759 ) ;
#328 = ORIENTED_EDGE ( 'NONE', *, *, #462, .T. ) ;
#329 = ORIENTED_EDGE ( 'NONE', *, *, #258, .T. ) ;
#330 = CARTESIAN_POINT ( 'NONE',  ( 0.000000000000000000, 0.000000000000000000, 0.000000000000000000 ) ) ;
#331 = PRODUCT_RELATED_PRODUCT_CATEGORY ( 'part', '', ( #493 ) ) ;
#332 = LINE ( 'NONE', #606, #954 ) ;
#333 = EDGE_CURVE ( 'NONE', #179, #1149, #952, .T. ) ;
#334 = DIRECTION ( 'NONE',  ( 1.000000000000000000, 0.000000000000000000, -0.000000000000000000 ) ) ;
#335 = VECTOR ( 'NONE', #692, 39.37007874015748143 ) ;
#336 = VECTOR ( 'NONE', #7, 39.37007874015748143 ) ;
#337 = DIRECTION ( 'NONE',  ( 1.000000000000000000, 0.000000000000000000, 0.000000000000000000 ) ) ;
#338 = LINE ( 'NONE', #599, #362 ) ;
#339 = LINE ( 'NONE', #658, #737 ) ;
#340 = ORIENTED_EDGE ( 'NONE', *, *, #521, .F. ) ;
#341 = CARTESIAN_POINT ( 'NONE',  ( 0.7874015748031495399, 1.377952755905512028, 0.2952755905511810774 ) ) ;
#342 = CIRCLE ( 'NONE', #223, 0.2952755905511811885 ) ;
#343 = TOROIDAL_SURFACE ( 'NONE', #1131, 0.6889763779527559029, 0.09842519685039370636 ) ;
#344 = DIRECTION ( 'NONE',  ( -0.000000000000000000, -0.000000000000000000, 1.000000000000000000 ) ) ;
#345 = EDGE_LOOP ( 'NONE', ( #666, #393, #999, #394 ) ) ;
#346 = DIRECTION ( 'NONE',  ( 1.000000000000000000, -0.000000000000000000, -0.000000000000000000 ) ) ;
#347 = CARTESIAN_POINT ( 'NONE',  ( 0.6889763779527559029, 9.842519685039370358, -0.1968503937007874127 ) ) ;
#348 = APPLICATION_PROTOCOL_DEFINITION ( 'draft international standard', 'automotive_design', 1998, #126 ) ;
#349 = ORIENTED_EDGE ( 'NONE', *, *, #261, .F. ) ;
#350 = FACE_OUTER_BOUND ( 'NONE', #1184, .T. ) ;
#351 = EDGE_CURVE ( 'NONE', #1047, #1079, #755, .T. ) ;
#352 = DIRECTION ( 'NONE',  ( 0.000000000000000000, 0.000000000000000000, -1.000000000000000000 ) ) ;
#353 = DIRECTION ( 'NONE',  ( -0.000000000000000000, -0.000000000000000000, -1.000000000000000000 ) ) ;
#354 = PRODUCT_CONTEXT ( 'NONE', #565, 'mechanical' ) ;
#355 = EDGE_LOOP ( 'NONE', ( #295, #293, #911, #523 ) ) ;
#356 = FACE_OUTER_BOUND ( 'NONE', #8, .T. ) ;
#357 = DIMENSIONAL_EXPONENTS ( 1.000000000000000000, 0.000000000000000000, 0.000000000000000000, 0.000000000000000000, 0.000000000000000000, 0.000000000000000000, 0.000000000000000000 ) ;
#358 = CARTESIAN_POINT ( 'NONE',  ( -0.6889763779527560139, 1.377952755905512028, 0.09842519685039370636 ) ) ;
#359 = CYLINDRICAL_SURFACE ( 'NONE', #107, 0.7874015748031495399 ) ;
#360 = DIRECTION ( 'NONE',  ( 1.000000000000000000, 0.000000000000000000, 0.000000000000000000 ) ) ;
#361 = FACE_OUTER_BOUND ( 'NONE', #674, .T. ) ;
#362 = VECTOR ( 'NONE', #52, 39.37007874015748143 ) ;
#363 = EDGE_CURVE ( 'NONE', #749, #38, #271, .T. ) ;
#364 = VECTOR ( 'NONE', #903, 39.37007874015748143 ) ;
#365 = CARTESIAN_POINT ( 'NONE',  ( -0.7874015748031495399, 1.377952755905512028, 0.1968503937007874127 ) ) ;
#366 =( BOUNDED_CURVE ( )  B_SPLINE_CURVE ( 3, ( #1073, #1165, #591, #513 ),
 .UNSPECIFIED., .F., .F. ) 
 B_SPLINE_CURVE_WITH_KNOTS ( ( 4, 4 ),
 ( 1.570796326794896558, 3.141592653589792672 ),
 .UNSPECIFIED. ) 
 CURVE ( )  GEOMETRIC_REPRESENTATION_ITEM ( )  RATIONAL_B_SPLINE_CURVE ( ( 1.000000000000000000, 0.8047378541243650485, 0.8047378541243650485, 1.000000000000000000 ) ) 
 REPRESENTATION_ITEM ( '' )  );
#367 = CARTESIAN_POINT ( 'NONE',  ( 0.3937007874015748254, 0.000000000000000000, 0.000000000000000000 ) ) ;
#368 = ORIENTED_EDGE ( 'NONE', *, *, #468, .T. ) ;
#369 = ORIENTED_EDGE ( 'NONE', *, *, #669, .T. ) ;
#370 = CARTESIAN_POINT ( 'NONE',  ( -0.6889763779527559029, 9.842519685039368582, 0.09842519685039370636 ) ) ;
#371 = DIRECTION ( 'NONE',  ( -1.000000000000000000, 0.000000000000000000, 0.000000000000000000 ) ) ;
#372 = EDGE_CURVE ( 'NONE', #1041, #1072, #475, .T. ) ;
#373 = DIRECTION ( 'NONE',  ( 0.000000000000000000, 0.000000000000000000, 1.000000000000000000 ) ) ;
#374 = EDGE_LOOP ( 'NONE', ( #782, #846, #628, #477 ) ) ;
#375 = DIRECTION ( 'NONE',  ( -1.000000000000000000, 0.000000000000000000, -0.000000000000000000 ) ) ;
#376 = EDGE_LOOP ( 'NONE', ( #387, #58, #626, #112 ) ) ;
#377 = CARTESIAN_POINT ( 'NONE',  ( -0.7874015748031495399, 1.377952755905512028, 0.2952755905511810774 ) ) ;
#378 = DIRECTION ( 'NONE',  ( 0.000000000000000000, 1.000000000000000000, -0.000000000000000000 ) ) ;
#379 = ORIENTED_EDGE ( 'NONE', *, *, #314, .T. ) ;
#380 = PLANE ( 'NONE',  #176 ) ;
#381 = VECTOR ( 'NONE', #1174, 39.37007874015748143 ) ;
#382 = ORIENTED_EDGE ( 'NONE', *, *, #1021, .T. ) ;
#383 = CIRCLE ( 'NONE', #524, 0.09842519685039372024 ) ;
#384 = VECTOR ( 'NONE', #1078, 39.37007874015748143 ) ;
#385 = DIRECTION ( 'NONE',  ( -0.000000000000000000, -1.000000000000000000, 0.000000000000000000 ) ) ;
#386 = ORIENTED_EDGE ( 'NONE', *, *, #669, .F. ) ;
#387 = ORIENTED_EDGE ( 'NONE', *, *, #276, .T. ) ;
#388 = DIRECTION ( 'NONE',  ( -0.000000000000000000, -0.000000000000000000, 1.000000000000000000 ) ) ;
#389 = ORIENTED_EDGE ( 'NONE', *, *, #44, .T. ) ;
#390 = PRODUCT ( 'ExampleBot-Link1', 'ExampleBot-Link1', '', ( #1178 ) ) ;
#391 = EDGE_CURVE ( 'NONE', #1041, #3, #342, .T. ) ;
#392 = CARTESIAN_POINT ( 'NONE',  ( 0.6889763779527559029, 8.858267716535433323, -0.1968503937007874127 ) ) ;
#393 = ORIENTED_EDGE ( 'NONE', *, *, #462, .F. ) ;
#394 = ORIENTED_EDGE ( 'NONE', *, *, #864, .F. ) ;
#395 = CYLINDRICAL_SURFACE ( 'NONE', #61, 0.3937007874015748254 ) ;
#396 = EDGE_LOOP ( 'NONE', ( #198, #860, #195, #104 ) ) ;
#397 = VERTEX_POINT ( 'NONE', #392 ) ;
#398 = AXIS2_PLACEMENT_3D ( 'NONE', #144, #150, #337 ) ;
#399 =( GEOMETRIC_REPRESENTATION_CONTEXT ( 3 ) GLOBAL_UNCERTAINTY_ASSIGNED_CONTEXT ( ( #1136 ) ) GLOBAL_UNIT_ASSIGNED_CONTEXT ( ( #695, #39, #900 ) ) REPRESENTATION_CONTEXT ( 'NONE', 'WORKASPACE' ) );
#400 = CARTESIAN_POINT ( 'NONE',  ( -0.7874015748031496509, 8.858267716535433323, -0.1968503937007874127 ) ) ;
#401 = CARTESIAN_POINT ( 'NONE',  ( -0.7874015748031496509, 8.858267716535433323, -0.2952755905511810774 ) ) ;
#402 = CARTESIAN_POINT ( 'NONE',  ( -0.6889763779527559029, 8.759842519685038909, -0.3937007874015748254 ) ) ;
#403 = CARTESIAN_POINT ( 'NONE',  ( 0.7874015748031495399, 8.858267716535433323, -0.1968503937007874127 ) ) ;
#404 = ORIENTED_EDGE ( 'NONE', *, *, #637, .F. ) ;
#405 = VECTOR ( 'NONE', #976, 39.37007874015748143 ) ;
#406 = CARTESIAN_POINT ( 'NONE',  ( -0.6889763779527560139, 1.476377952755905776, -0.3937007874015748254 ) ) ;
#407 = ORIENTED_EDGE ( 'NONE', *, *, #938, .T. ) ;
#408 = EDGE_CURVE ( 'NONE', #1002, #1000, #288, .T. ) ;
#409 = EDGE_CURVE ( 'NONE', #179, #1183, #1030, .T. ) ;
#410 = CARTESIAN_POINT ( 'NONE',  ( -0.6889763779527560139, 1.377952755905512028, -0.1968503937007874127 ) ) ;
#411 = LINE ( 'NONE', #132, #165 ) ;
#412 = EDGE_CURVE ( 'NONE', #1091, #279, #411, .T. ) ;
#413 = FACE_OUTER_BOUND ( 'NONE', #817, .T. ) ;
#414 = DIRECTION ( 'NONE',  ( 1.000000000000000000, 0.000000000000000000, 0.000000000000000000 ) ) ;
#415 = CARTESIAN_POINT ( 'NONE',  ( 0.6889763779527559029, 0.000000000000000000, 0.1968503937007874127 ) ) ;
#416 = CARTESIAN_POINT ( 'NONE',  ( 0.000000000000000000, 9.842519685039370358, 0.09842519685039372024 ) ) ;
#417 = ORIENTED_EDGE ( 'NONE', *, *, #363, .F. ) ;
#418 = EDGE_CURVE ( 'NONE', #1125, #1107, #511, .T. ) ;
#419 = ORIENTED_EDGE ( 'NONE', *, *, #372, .T. ) ;
#420 = SURFACE_STYLE_USAGE ( .BOTH. , #312 ) ;
#421 = FACE_OUTER_BOUND ( 'NONE', #1150, .T. ) ;
#422 = EDGE_CURVE ( 'NONE', #22, #208, #505, .T. ) ;
#423 = CARTESIAN_POINT ( 'NONE',  ( 0.000000000000000000, 9.842519685039370358, 0.1968503937007874127 ) ) ;
#424 = ORIENTED_EDGE ( 'NONE', *, *, #412, .F. ) ;
#425 = AXIS2_PLACEMENT_3D ( 'NONE', #879, #585, #691 ) ;
#426 = VECTOR ( 'NONE', #346, 39.37007874015748143 ) ;
#427 = EDGE_LOOP ( 'NONE', ( #886, #268, #766, #764 ) ) ;
#428 = DIRECTION ( 'NONE',  ( 0.000000000000000000, -1.000000000000000000, 0.000000000000000000 ) ) ;
#429 = ADVANCED_FACE ( 'NONE', ( #1155 ), #590, .T. ) ;
#430 = ADVANCED_BREP_SHAPE_REPRESENTATION ( '', ( #437, #748 ), #399 ) ;
#431 = DIRECTION ( 'NONE',  ( -0.000000000000000000, -1.000000000000000000, -0.000000000000000000 ) ) ;
#432 = ORIENTED_EDGE ( 'NONE', *, *, #422, .T. ) ;
#433 = ADVANCED_FACE ( 'NONE', ( #682 ), #786, .F. ) ;
#434 = DIRECTION ( 'NONE',  ( 1.387778780781445676E-17, 1.000000000000000000, -0.000000000000000000 ) ) ;
#435 = CARTESIAN_POINT ( 'NONE',  ( 0.000000000000000000, 0.000000000000000000, 0.000000000000000000 ) ) ;
#436 = DIRECTION ( 'NONE',  ( -1.387778780781445676E-17, -1.000000000000000000, 0.000000000000000000 ) ) ;
#437 = MANIFOLD_SOLID_BREP ( 'Fillet1', #1144 ) ;
#438 = DIRECTION ( 'NONE',  ( -1.000000000000000000, 1.387778780781445676E-17, 0.000000000000000000 ) ) ;
#439 = ORIENTED_EDGE ( 'NONE', *, *, #449, .T. ) ;
#440 =( GEOMETRIC_REPRESENTATION_CONTEXT ( 3 ) GLOBAL_UNCERTAINTY_ASSIGNED_CONTEXT ( ( #1022 ) ) GLOBAL_UNIT_ASSIGNED_CONTEXT ( ( #875, #816, #1085 ) ) REPRESENTATION_CONTEXT ( 'NONE', 'WORKASPACE' ) );
#441 = FACE_OUTER_BOUND ( 'NONE', #149, .T. ) ;
#442 = ORIENTED_EDGE ( 'NONE', *, *, #1059, .F. ) ;
#443 = CARTESIAN_POINT ( 'NONE',  ( -0.6889763779527559029, 8.858267716535433323, 0.09842519685039370636 ) ) ;
#444 = EDGE_CURVE ( 'NONE', #80, #291, #885, .T. ) ;
#445 = DIRECTION ( 'NONE',  ( -0.000000000000000000, -0.000000000000000000, 1.000000000000000000 ) ) ;
#446 = FACE_OUTER_BOUND ( 'NONE', #1038, .T. ) ;
#447 = TOROIDAL_SURFACE ( 'NONE', #876, 0.6889763779527559029, 0.09842519685039370636 ) ;
#448 = CARTESIAN_POINT ( 'NONE',  ( 0.6889763779527559029, 8.858267716535433323, 0.3937007874015748254 ) ) ;
#449 = EDGE_CURVE ( 'NONE', #586, #397, #215, .T. ) ;
#450 = CARTESIAN_POINT ( 'NONE',  ( -0.6889763779527559029, 8.858267716535433323, 0.1968503937007874127 ) ) ;
#451 = DIRECTION ( 'NONE',  ( 0.000000000000000000, 0.000000000000000000, -1.000000000000000000 ) ) ;
#452 = ORIENTED_EDGE ( 'NONE', *, *, #823, .F. ) ;
#453 = CARTESIAN_POINT ( 'NONE',  ( -0.7874015748031495399, 1.377952755905512250, 0.3529317359869000859 ) ) ;
#454 = ORIENTED_EDGE ( 'NONE', *, *, #314, .F. ) ;
#455 = CARTESIAN_POINT ( 'NONE',  ( -0.7874015748031495399, 1.377952755905512028, 0.1968503937007874127 ) ) ;
#456 = FACE_OUTER_BOUND ( 'NONE', #192, .T. ) ;
#457 = VECTOR ( 'NONE', #211, 39.37007874015748143 ) ;
#458 = VECTOR ( 'NONE', #388, 39.37007874015748143 ) ;
#459 = ORIENTED_EDGE ( 'NONE', *, *, #938, .F. ) ;
#460 = DIRECTION ( 'NONE',  ( 0.000000000000000000, 0.000000000000000000, -1.000000000000000000 ) ) ;
#461 = DIRECTION ( 'NONE',  ( -1.000000000000000000, 0.000000000000000000, 0.000000000000000000 ) ) ;
#462 = EDGE_CURVE ( 'NONE', #208, #397, #307, .T. ) ;
#463 = CARTESIAN_POINT ( 'NONE',  ( -0.7874015748031496509, 8.858267716535433323, -0.2952755905511810774 ) ) ;
#464 = ORIENTED_EDGE ( 'NONE', *, *, #325, .F. ) ;
#465 = DIRECTION ( 'NONE',  ( 1.387778780781445676E-17, 1.000000000000000000, 0.000000000000000000 ) ) ;
#466 = AXIS2_PLACEMENT_3D ( 'NONE', #833, #1200, #556 ) ;
#467 = AXIS2_PLACEMENT_3D ( 'NONE', #1003, #445, #160 ) ;
#468 = EDGE_CURVE ( 'NONE', #1000, #1191, #688, .T. ) ;
#469 = LINE ( 'NONE', #1023, #718 ) ;
#470 = CARTESIAN_POINT ( 'NONE',  ( 0.7874015748031495399, 0.000000000000000000, 0.3937007874015748254 ) ) ;
#471 = ORIENTED_EDGE ( 'NONE', *, *, #196, .T. ) ;
#472 = CARTESIAN_POINT ( 'NONE',  ( 0.7874015748031495399, 1.377952755905512250, -0.3529317359869000859 ) ) ;
#473 = VERTEX_POINT ( 'NONE', #316 ) ;
#474 = CARTESIAN_POINT ( 'NONE',  ( -0.6889763779527559029, 8.858267716535433323, 0.1968503937007874127 ) ) ;
#475 = LINE ( 'NONE', #292, #181 ) ;
#476 = VERTEX_POINT ( 'NONE', #299 ) ;
#477 = ORIENTED_EDGE ( 'NONE', *, *, #770, .T. ) ;
#478 = CARTESIAN_POINT ( 'NONE',  ( 0.7874015748031495399, 0.000000000000000000, -0.09842519685039372024 ) ) ;
#479 = EDGE_LOOP ( 'NONE', ( #832, #717 ) ) ;
#480 = LINE ( 'NONE', #474, #602 ) ;
#481 = ADVANCED_FACE ( 'NONE', ( #41 ), #915, .T. ) ;
#482 = ORIENTED_EDGE ( 'NONE', *, *, #372, .F. ) ;
#483 = FACE_BOUND ( 'NONE', #742, .T. ) ;
#484 = CIRCLE ( 'NONE', #1188, 0.09842519685039370636 ) ;
#485 = VECTOR ( 'NONE', #20, 39.37007874015748143 ) ;
#486 = EDGE_CURVE ( 'NONE', #1207, #1047, #1065, .T. ) ;
#487 = CIRCLE ( 'NONE', #584, 0.2952755905511811885 ) ;
#488 = CARTESIAN_POINT ( 'NONE',  ( 0.7874015748031495399, 8.858267716535433323, -0.2952755905511811885 ) ) ;
#489 = EDGE_LOOP ( 'NONE', ( #1114, #329, #767, #963 ) ) ;
#490 = CYLINDRICAL_SURFACE ( 'NONE', #928, 0.2952755905511811885 ) ;
#491 = VERTEX_POINT ( 'NONE', #522 ) ;
#492 = ORIENTED_EDGE ( 'NONE', *, *, #822, .F. ) ;
#493 = PRODUCT ( 'link_1_collision', 'link_1_collision', '', ( #354 ) ) ;
#494 = DIRECTION ( 'NONE',  ( -0.000000000000000000, -1.000000000000000000, -0.000000000000000000 ) ) ;
#495 = CARTESIAN_POINT ( 'NONE',  ( -0.7874015748031496509, 8.858267716535433323, 0.2952755905511810774 ) ) ;
#496 = ORIENTED_EDGE ( 'NONE', *, *, #840, .F. ) ;
#497 = VERTEX_POINT ( 'NONE', #252 ) ;
#498 = AXIS2_PLACEMENT_3D ( 'NONE', #887, #308, #977 ) ;
#499 = PRESENTATION_LAYER_ASSIGNMENT (  '', '', ( #139 ) ) ;
#500 = DIRECTION ( 'NONE',  ( -0.000000000000000000, -1.000000000000000000, 0.000000000000000000 ) ) ;
#501 = EDGE_CURVE ( 'NONE', #1006, #1079, #1167, .T. ) ;
#502 = CARTESIAN_POINT ( 'NONE',  ( 0.7874015748031495399, 1.377952755905512028, 0.1968503937007874127 ) ) ;
#503 = LENGTH_MEASURE_WITH_UNIT ( LENGTH_MEASURE( 0.02539999999999999897 ), #892 );
#504 = DIRECTION ( 'NONE',  ( 0.000000000000000000, 0.000000000000000000, 1.000000000000000000 ) ) ;
#505 = CIRCLE ( 'NONE', #202, 0.09842519685039370636 ) ;
#506 = ADVANCED_FACE ( 'NONE', ( #618 ), #1101, .T. ) ;
#507 = AXIS2_PLACEMENT_3D ( 'NONE', #1168, #805, #617 ) ;
#508 = CARTESIAN_POINT ( 'NONE',  ( -0.7466325233884748558, 1.418721807320186601, -0.3937007874015747699 ) ) ;
#509 = ORIENTED_EDGE ( 'NONE', *, *, #44, .F. ) ;
#510 = CARTESIAN_POINT ( 'NONE',  ( 0.6889763779527559029, 8.759842519685038909, 0.3937007874015748254 ) ) ;
#511 = LINE ( 'NONE', #137, #405 ) ;
#512 = VERTEX_POINT ( 'NONE', #639 ) ;
#513 = CARTESIAN_POINT ( 'NONE',  ( 0.7874015748031495399, 8.858267716535433323, -0.2952755905511811885 ) ) ;
#514 = DIRECTION ( 'NONE',  ( 0.000000000000000000, 0.000000000000000000, -1.000000000000000000 ) ) ;
#515 =( CONVERSION_BASED_UNIT ( 'INCH', #1151 ) LENGTH_UNIT ( ) NAMED_UNIT ( #635 ) );
#516 = ORIENTED_EDGE ( 'NONE', *, *, #77, .T. ) ;
#517 = DIRECTION ( 'NONE',  ( -0.000000000000000000, -1.000000000000000000, -0.000000000000000000 ) ) ;
#518 =( NAMED_UNIT ( * ) PLANE_ANGLE_UNIT ( ) SI_UNIT ( $, .RADIAN. ) );
#519 = ADVANCED_FACE ( 'NONE', ( #797 ), #231, .F. ) ;
#520 = DIRECTION ( 'NONE',  ( 0.000000000000000000, 0.000000000000000000, 1.000000000000000000 ) ) ;
#521 = EDGE_CURVE ( 'NONE', #3, #1041, #487, .T. ) ;
#522 = CARTESIAN_POINT ( 'NONE',  ( -0.3937007874015748254, 4.821444091131312140E-17, 0.1968503937007874127 ) ) ;
#523 = ORIENTED_EDGE ( 'NONE', *, *, #333, .F. ) ;
#524 = AXIS2_PLACEMENT_3D ( 'NONE', #1004, #161, #730 ) ;
#525 = AXIS2_PLACEMENT_3D ( 'NONE', #309, #213, #1117 ) ;
#526 = DIRECTION ( 'NONE',  ( 0.000000000000000000, 0.000000000000000000, 1.000000000000000000 ) ) ;
#527 = CARTESIAN_POINT ( 'NONE',  ( 0.000000000000000000, 0.000000000000000000, 0.1968503937007874127 ) ) ;
#528 = CARTESIAN_POINT ( 'NONE',  ( 0.6889763779527559029, 9.842519685039370358, 0.09842519685039372024 ) ) ;
#529 = EDGE_LOOP ( 'NONE', ( #379, #110, #711, #738 ) ) ;
#530 = CARTESIAN_POINT ( 'NONE',  ( -0.6889763779527559029, 8.759842519685038909, 0.3937007874015748254 ) ) ;
#531 = CARTESIAN_POINT ( 'NONE',  ( -0.6889763779527560139, 1.476377952755905776, 0.3937007874015748254 ) ) ;
#532 = CARTESIAN_POINT ( 'NONE',  ( -0.7874015748031496509, 1.092739197465705318E-17, 0.2952755905511810774 ) ) ;
#533 = EDGE_LOOP ( 'NONE', ( #676, #250, #619, #561, #492, #872 ) ) ;
#534 = DIRECTION ( 'NONE',  ( 1.387778780781445676E-17, 1.000000000000000000, 0.000000000000000000 ) ) ;
#535 = DIRECTION ( 'NONE',  ( 0.000000000000000000, 0.000000000000000000, 1.000000000000000000 ) ) ;
#536 = EDGE_CURVE ( 'NONE', #320, #1107, #906, .T. ) ;
#537 = EDGE_CURVE ( 'NONE', #769, #497, #1097, .T. ) ;
#538 = DIRECTION ( 'NONE',  ( -1.000000000000000000, 1.387778780781445676E-17, 0.000000000000000000 ) ) ;
#539 = ORIENTED_EDGE ( 'NONE', *, *, #537, .T. ) ;
#540 = DIRECTION ( 'NONE',  ( 1.000000000000000000, 0.000000000000000000, 0.000000000000000000 ) ) ;
#541 =( BOUNDED_CURVE ( )  B_SPLINE_CURVE ( 3, ( #530, #1084, #904, #1190 ),
 .UNSPECIFIED., .F., .T. ) 
 B_SPLINE_CURVE_WITH_KNOTS ( ( 4, 4 ),
 ( 4.712388980384689674, 6.283185307179586232 ),
 .UNSPECIFIED. ) 
 CURVE ( )  GEOMETRIC_REPRESENTATION_ITEM ( )  RATIONAL_B_SPLINE_CURVE ( ( 1.000000000000000000, 0.8047378541243649375, 0.8047378541243649375, 1.000000000000000000 ) ) 
 REPRESENTATION_ITEM ( '' )  );
#542 = LINE ( 'NONE', #1102, #641 ) ;
#543 = VERTEX_POINT ( 'NONE', #450 ) ;
#544 = VECTOR ( 'NONE', #238, 39.37007874015748143 ) ;
#545 = CARTESIAN_POINT ( 'NONE',  ( -0.7874015748031495399, 1.377952755905512028, -0.2952755905511810774 ) ) ;
#546 = ORIENTED_EDGE ( 'NONE', *, *, #790, .T. ) ;
#547 = DIRECTION ( 'NONE',  ( 0.000000000000000000, 0.000000000000000000, 1.000000000000000000 ) ) ;
#548 = DIRECTION ( 'NONE',  ( -1.000000000000000000, 1.387778780781445676E-17, 0.000000000000000000 ) ) ;
#549 = CYLINDRICAL_SURFACE ( 'NONE', #780, 0.09842519685039365085 ) ;
#550 = ADVANCED_FACE ( 'NONE', ( #985 ), #64, .T. ) ;
#551 = DIRECTION ( 'NONE',  ( -0.000000000000000000, -0.000000000000000000, -1.000000000000000000 ) ) ;
#552 = DIRECTION ( 'NONE',  ( -1.387778780781445676E-17, -1.000000000000000000, 0.000000000000000000 ) ) ;
#553 = VERTEX_POINT ( 'NONE', #245 ) ;
#554 = VECTOR ( 'NONE', #311, 39.37007874015748143 ) ;
#555 =( GEOMETRIC_REPRESENTATION_CONTEXT ( 3 ) GLOBAL_UNCERTAINTY_ASSIGNED_CONTEXT ( ( #951 ) ) GLOBAL_UNIT_ASSIGNED_CONTEXT ( ( #145, #518, #881 ) ) REPRESENTATION_CONTEXT ( 'NONE', 'WORKASPACE' ) );
#556 = DIRECTION ( 'NONE',  ( 1.000000000000000000, 0.000000000000000000, 0.000000000000000000 ) ) ;
#557 = EDGE_CURVE ( 'NONE', #133, #1014, #13, .T. ) ;
#558 = DIRECTION ( 'NONE',  ( 0.000000000000000000, 0.000000000000000000, -1.000000000000000000 ) ) ;
#559 = CARTESIAN_POINT ( 'NONE',  ( -0.7874015748031495399, 1.377952755905512250, -0.3529317359869000859 ) ) ;
#560 = AXIS2_PLACEMENT_3D ( 'NONE', #1048, #603, #115 ) ;
#561 = ORIENTED_EDGE ( 'NONE', *, *, #823, .T. ) ;
#562 = CARTESIAN_POINT ( 'NONE',  ( 0.7874015748031495399, 1.377952755905512028, 0.09842519685039370636 ) ) ;
#563 = AXIS2_PLACEMENT_3D ( 'NONE', #636, #269, #1007 ) ;
#564 = CARTESIAN_POINT ( 'NONE',  ( -0.6889763779527560139, -1.365923996832131648E-18, -0.09842519685039370636 ) ) ;
#565 = APPLICATION_CONTEXT ( 'automotive_design' ) ;
#566 = ORIENTED_EDGE ( 'NONE', *, *, #1021, .F. ) ;
#567 = DIRECTION ( 'NONE',  ( 0.000000000000000000, 0.000000000000000000, 1.000000000000000000 ) ) ;
#568 = ORIENTED_EDGE ( 'NONE', *, *, #468, .F. ) ;
#569 = CARTESIAN_POINT ( 'NONE',  ( -6.829619984160658046E-17, 0.000000000000000000, 0.09842519685039372024 ) ) ;
#570 = DIRECTION ( 'NONE',  ( 0.000000000000000000, 1.000000000000000000, 0.000000000000000000 ) ) ;
#571 = ORIENTED_EDGE ( 'NONE', *, *, #1042, .T. ) ;
#572 = ORIENTED_EDGE ( 'NONE', *, *, #689, .F. ) ;
#573 = EDGE_CURVE ( 'NONE', #1079, #1099, #327, .T. ) ;
#574 = CARTESIAN_POINT ( 'NONE',  ( 0.000000000000000000, 0.000000000000000000, 0.1968503937007874127 ) ) ;
#575 = AXIS2_PLACEMENT_3D ( 'NONE', #640, #548, #1092 ) ;
#576 = ORIENTED_EDGE ( 'NONE', *, *, #1118, .F. ) ;
#577 = CARTESIAN_POINT ( 'NONE',  ( -6.829619984160658046E-17, 0.000000000000000000, 0.1968503937007874127 ) ) ;
#578 = ORIENTED_EDGE ( 'NONE', *, *, #9, .F. ) ;
#579 = CARTESIAN_POINT ( 'NONE',  ( 0.3937007874015748254, 0.000000000000000000, 0.1968503937007874127 ) ) ;
#580 = ORIENTED_EDGE ( 'NONE', *, *, #152, .T. ) ;
#581 = AXIS2_PLACEMENT_3D ( 'NONE', #278, #1197, #1204 ) ;
#582 = ORIENTED_EDGE ( 'NONE', *, *, #890, .T. ) ;
#583 = AXIS2_PLACEMENT_3D ( 'NONE', #615, #825, #451 ) ;
#584 = AXIS2_PLACEMENT_3D ( 'NONE', #72, #729, #801 ) ;
#585 = DIRECTION ( 'NONE',  ( 1.000000000000000000, 0.000000000000000000, 0.000000000000000000 ) ) ;
#586 = VERTEX_POINT ( 'NONE', #705 ) ;
#587 = CARTESIAN_POINT ( 'NONE',  ( 0.6889763779527559029, 8.858267716535433323, -0.09842519685039372024 ) ) ;
#588 = ORIENTED_EDGE ( 'NONE', *, *, #593, .T. ) ;
#589 = ORIENTED_EDGE ( 'NONE', *, *, #241, .T. ) ;
#590 = CYLINDRICAL_SURFACE ( 'NONE', #425, 0.09842519685039372024 ) ;
#591 = CARTESIAN_POINT ( 'NONE',  ( 0.7874015748031494288, 8.858267716535435099, -0.3529317359869001414 ) ) ;
#592 = DIRECTION ( 'NONE',  ( 0.000000000000000000, 0.000000000000000000, 1.000000000000000000 ) ) ;
#593 = EDGE_CURVE ( 'NONE', #1014, #604, #1012, .T. ) ;
#594 = CARTESIAN_POINT ( 'NONE',  ( 0.000000000000000000, 0.000000000000000000, -0.1968503937007874127 ) ) ;
#595 = AXIS2_PLACEMENT_3D ( 'NONE', #916, #719, #987 ) ;
#596 = AXIS2_PLACEMENT_3D ( 'NONE', #587, #117, #868 ) ;
#597 = SURFACE_SIDE_STYLE ('',( #122 ) ) ;
#598 = LINE ( 'NONE', #502, #554 ) ;
#599 = CARTESIAN_POINT ( 'NONE',  ( -0.7874015748031496509, 8.858267716535433323, 0.1968503937007874127 ) ) ;
#600 = CIRCLE ( 'NONE', #263, 0.09842519685039370636 ) ;
#601 = VECTOR ( 'NONE', #434, 39.37007874015748143 ) ;
#602 = VECTOR ( 'NONE', #4, 39.37007874015748143 ) ;
#603 = DIRECTION ( 'NONE',  ( -0.000000000000000000, -0.000000000000000000, 1.000000000000000000 ) ) ;
#604 = VERTEX_POINT ( 'NONE', #153 ) ;
#605 = SURFACE_STYLE_FILL_AREA ( #799 ) ;
#606 = CARTESIAN_POINT ( 'NONE',  ( -0.7874015748031495399, 9.842519685039368582, 0.09842519685039370636 ) ) ;
#607 = ADVANCED_FACE ( 'NONE', ( #996 ), #613, .T. ) ;
#608 = DIRECTION ( 'NONE',  ( 1.000000000000000000, 0.000000000000000000, 0.000000000000000000 ) ) ;
#609 = DIRECTION ( 'NONE',  ( 0.000000000000000000, 0.000000000000000000, 1.000000000000000000 ) ) ;
#610 = FILL_AREA_STYLE_COLOUR ( '', #806 ) ;
#611 = EDGE_CURVE ( 'NONE', #25, #143, #167, .T. ) ;
#612 = DIRECTION ( 'NONE',  ( 0.000000000000000000, 0.000000000000000000, -1.000000000000000000 ) ) ;
#613 = CYLINDRICAL_SURFACE ( 'NONE', #896, 0.09842519685039365085 ) ;
#614 = ORIENTED_EDGE ( 'NONE', *, *, #28, .F. ) ;
#615 = CARTESIAN_POINT ( 'NONE',  ( 0.000000000000000000, 8.759842519685038909, -0.2952755905511810774 ) ) ;
#616 = LENGTH_MEASURE_WITH_UNIT ( LENGTH_MEASURE( 0.02539999999999999897 ), #130 );
#617 = DIRECTION ( 'NONE',  ( 0.000000000000000000, 0.000000000000000000, -1.000000000000000000 ) ) ;
#618 = FACE_OUTER_BOUND ( 'NONE', #529, .T. ) ;
#619 = ORIENTED_EDGE ( 'NONE', *, *, #777, .F. ) ;
#620 = AXIS2_PLACEMENT_3D ( 'NONE', #1121, #257, #460 ) ;
#621 = CARTESIAN_POINT ( 'NONE',  ( -0.7874015748031496509, 1.377952755905512028, 0.09842519685039370636 ) ) ;
#622 = DIRECTION ( 'NONE',  ( 0.000000000000000000, 0.000000000000000000, -1.000000000000000000 ) ) ;
#623 = EDGE_CURVE ( 'NONE', #473, #1072, #687, .T. ) ;
#624 = EDGE_CURVE ( 'NONE', #1107, #246, #1181, .T. ) ;
#625 = DIRECTION ( 'NONE',  ( 0.000000000000000000, 1.000000000000000000, -0.000000000000000000 ) ) ;
#626 = ORIENTED_EDGE ( 'NONE', *, *, #822, .T. ) ;
#627 = LINE ( 'NONE', #621, #601 ) ;
#628 = ORIENTED_EDGE ( 'NONE', *, *, #351, .F. ) ;
#629 = DIRECTION ( 'NONE',  ( 0.000000000000000000, 1.000000000000000000, -0.000000000000000000 ) ) ;
#630 = EDGE_CURVE ( 'NONE', #1191, #1127, #1083, .T. ) ;
#631 = CARTESIAN_POINT ( 'NONE',  ( -0.7874015748031495399, 9.842519685039368582, 0.3937007874015748254 ) ) ;
#632 = DIRECTION ( 'NONE',  ( 0.000000000000000000, 0.000000000000000000, -1.000000000000000000 ) ) ;
#633 = ORIENTED_EDGE ( 'NONE', *, *, #217, .F. ) ;
#634 = EDGE_LOOP ( 'NONE', ( #1199, #964 ) ) ;
#635 = DIMENSIONAL_EXPONENTS ( 1.000000000000000000, 0.000000000000000000, 0.000000000000000000, 0.000000000000000000, 0.000000000000000000, 0.000000000000000000, 0.000000000000000000 ) ;
#636 = CARTESIAN_POINT ( 'NONE',  ( 0.6889763779527559029, 0.000000000000000000, 0.09842519685039370636 ) ) ;
#637 = EDGE_CURVE ( 'NONE', #1139, #1006, #339, .T. ) ;
#638 = ORIENTED_EDGE ( 'NONE', *, *, #753, .T. ) ;
#639 = CARTESIAN_POINT ( 'NONE',  ( 0.6889763779527559029, 1.476377952755905776, -0.3937007874015748254 ) ) ;
#640 = CARTESIAN_POINT ( 'NONE',  ( -0.7874015748031496509, 1.092739197465705318E-17, 0.3937007874015748254 ) ) ;
#641 = VECTOR ( 'NONE', #552, 39.37007874015748143 ) ;
#642 = AXIS2_PLACEMENT_3D ( 'NONE', #1193, #547, #540 ) ;
#643 = EDGE_CURVE ( 'NONE', #100, #320, #286, .T. ) ;
#644 = DIRECTION ( 'NONE',  ( 1.000000000000000000, 0.000000000000000000, 0.000000000000000000 ) ) ;
#645 = DIRECTION ( 'NONE',  ( -0.000000000000000000, -0.000000000000000000, -1.000000000000000000 ) ) ;
#646 = EDGE_CURVE ( 'NONE', #209, #279, #745, .T. ) ;
#647 = CARTESIAN_POINT ( 'NONE',  ( 0.000000000000000000, 0.000000000000000000, -0.1968503937007874127 ) ) ;
#648 = APPLICATION_PROTOCOL_DEFINITION ( 'draft international standard', 'automotive_design', 1998, #247 ) ;
#649 = EDGE_LOOP ( 'NONE', ( #228, #842 ) ) ;
#650 = CYLINDRICAL_SURFACE ( 'NONE', #222, 0.7874015748031495399 ) ;
#651 = EDGE_CURVE ( 'NONE', #3, #473, #102, .T. ) ;
#652 = DIRECTION ( 'NONE',  ( -1.000000000000000000, 0.000000000000000000, 0.000000000000000000 ) ) ;
#653 = CARTESIAN_POINT ( 'NONE',  ( -0.7874015748031495399, 1.377952755905512028, -0.2952755905511810774 ) ) ;
#654 = CIRCLE ( 'NONE', #498, 0.7874015748031495399 ) ;
#655 = AXIS2_PLACEMENT_3D ( 'NONE', #982, #218, #414 ) ;
#656 = ORIENTED_EDGE ( 'NONE', *, *, #276, .F. ) ;
#657 = CARTESIAN_POINT ( 'NONE',  ( 0.7466325233884748558, 8.817498665120758972, 0.3937007874015747699 ) ) ;
#658 = CARTESIAN_POINT ( 'NONE',  ( -0.7874015748031496509, 0.000000000000000000, 0.3937007874015748254 ) ) ;
#659 = CARTESIAN_POINT ( 'NONE',  ( -6.829619984160658046E-17, 0.000000000000000000, 0.09842519685039372024 ) ) ;
#660 = EDGE_CURVE ( 'NONE', #476, #48, #1054, .T. ) ;
#661 = ORIENTED_EDGE ( 'NONE', *, *, #1187, .T. ) ;
#662 = PRESENTATION_LAYER_ASSIGNMENT (  '', '', ( #1186 ) ) ;
#663 = EDGE_LOOP ( 'NONE', ( #1146, #1094, #419, #917 ) ) ;
#664 = DIRECTION ( 'NONE',  ( 1.000000000000000000, 0.000000000000000000, 0.000000000000000000 ) ) ;
#665 = AXIS2_PLACEMENT_3D ( 'NONE', #36, #785, #313 ) ;
#666 = ORIENTED_EDGE ( 'NONE', *, *, #1187, .F. ) ;
#667 = CARTESIAN_POINT ( 'NONE',  ( -0.7874015748031496509, 8.858267716535433323, -0.09842519685039372024 ) ) ;
#668 = EDGE_CURVE ( 'NONE', #491, #1149, #831, .T. ) ;
#669 = EDGE_CURVE ( 'NONE', #38, #1002, #469, .T. ) ;
#670 = LINE ( 'NONE', #197, #955 ) ;
#671 = ORIENTED_EDGE ( 'NONE', *, *, #720, .T. ) ;
#672 = LINE ( 'NONE', #942, #458 ) ;
#673 =( BOUNDED_CURVE ( )  B_SPLINE_CURVE ( 3, ( #92, #199, #657, #290 ),
 .UNSPECIFIED., .F., .F. ) 
 B_SPLINE_CURVE_WITH_KNOTS ( ( 4, 4 ),
 ( 3.141592653589793116, 4.712388980384689674 ),
 .UNSPECIFIED. ) 
 CURVE ( )  GEOMETRIC_REPRESENTATION_ITEM ( )  RATIONAL_B_SPLINE_CURVE ( ( 1.000000000000000000, 0.8047378541243649375, 0.8047378541243649375, 1.000000000000000000 ) ) 
 REPRESENTATION_ITEM ( '' )  );
#674 = EDGE_LOOP ( 'NONE', ( #187, #582, #289, #546, #997, #580 ) ) ;
#675 = DIRECTION ( 'NONE',  ( -0.000000000000000000, -0.000000000000000000, 1.000000000000000000 ) ) ;
#676 = ORIENTED_EDGE ( 'NONE', *, *, #23, .T. ) ;
#677 = ORIENTED_EDGE ( 'NONE', *, *, #611, .F. ) ;
#678 = LINE ( 'NONE', #750, #680 ) ;
#679 = VECTOR ( 'NONE', #49, 39.37007874015748143 ) ;
#680 = VECTOR ( 'NONE', #856, 39.37007874015748143 ) ;
#681 = ORIENTED_EDGE ( 'NONE', *, *, #83, .F. ) ;
#682 = FACE_OUTER_BOUND ( 'NONE', #663, .T. ) ;
#683 = ORIENTED_EDGE ( 'NONE', *, *, #351, .T. ) ;
#684 = ORIENTED_EDGE ( 'NONE', *, *, #1005, .F. ) ;
#685 = DIRECTION ( 'NONE',  ( -1.000000000000000000, 1.387778780781445676E-17, 0.000000000000000000 ) ) ;
#686 = ORIENTED_EDGE ( 'NONE', *, *, #409, .T. ) ;
#687 = CIRCLE ( 'NONE', #166, 0.2952755905511811885 ) ;
#688 = LINE ( 'NONE', #1145, #1111 ) ;
#689 = EDGE_CURVE ( 'NONE', #512, #1000, #1029, .T. ) ;
#690 = CARTESIAN_POINT ( 'NONE',  ( 0.000000000000000000, 0.000000000000000000, 0.1968503937007874127 ) ) ;
#691 = DIRECTION ( 'NONE',  ( 0.000000000000000000, 0.000000000000000000, -1.000000000000000000 ) ) ;
#692 = DIRECTION ( 'NONE',  ( -0.000000000000000000, -0.000000000000000000, -1.000000000000000000 ) ) ;
#693 = FACE_OUTER_BOUND ( 'NONE', #1019, .T. ) ;
#694 = EDGE_LOOP ( 'NONE', ( #156, #1201, #743, #572 ) ) ;
#695 =( CONVERSION_BASED_UNIT ( 'INCH', #1162 ) LENGTH_UNIT ( ) NAMED_UNIT ( #1008 ) );
#696 = DIRECTION ( 'NONE',  ( 0.000000000000000000, 0.000000000000000000, 1.000000000000000000 ) ) ;
#697 = CIRCLE ( 'NONE', #1031, 0.09842519685039372024 ) ;
#698 = AXIS2_PLACEMENT_3D ( 'NONE', #577, #746, #287 ) ;
#699 = VECTOR ( 'NONE', #1071, 39.37007874015748143 ) ;
#700 = CARTESIAN_POINT ( 'NONE',  ( -0.7874015748031495399, 1.377952755905512028, -0.1968503937007874127 ) ) ;
#701 = EDGE_LOOP ( 'NONE', ( #1120, #838, #751, #509 ) ) ;
#702 = EDGE_CURVE ( 'NONE', #1183, #179, #1050, .T. ) ;
#703 = CARTESIAN_POINT ( 'NONE',  ( -0.6889763779527560139, 1.476377952755905776, 0.3937007874015748254 ) ) ;
#704 = DIRECTION ( 'NONE',  ( 1.387778780781445676E-17, 1.000000000000000000, -0.000000000000000000 ) ) ;
#705 = CARTESIAN_POINT ( 'NONE',  ( -0.6889763779527559029, 8.858267716535433323, -0.1968503937007874127 ) ) ;
#706 = ORIENTED_EDGE ( 'NONE', *, *, #172, .F. ) ;
#707 = CARTESIAN_POINT ( 'NONE',  ( -0.6889763779527560139, -1.365923996832131648E-18, -0.1968503937007874127 ) ) ;
#708 = DIRECTION ( 'NONE',  ( 1.000000000000000000, 0.000000000000000000, 0.000000000000000000 ) ) ;
#709 = CARTESIAN_POINT ( 'NONE',  ( 0.6889763779527559029, 0.000000000000000000, 0.1968503937007874127 ) ) ;
#710 = CARTESIAN_POINT ( 'NONE',  ( 0.7874015748031495399, 1.476377952755905776, 0.3937007874015748254 ) ) ;
#711 = ORIENTED_EDGE ( 'NONE', *, *, #611, .T. ) ;
#712 = FACE_OUTER_BOUND ( 'NONE', #855, .T. ) ;
#713 = CONTEXT_DEPENDENT_SHAPE_REPRESENTATION ( #835, #763 ) ;
#714 = CARTESIAN_POINT ( 'NONE',  ( 0.7466325233884748558, 1.418721807320187045, 0.3937007874015746589 ) ) ;
#715 = VECTOR ( 'NONE', #14, 39.37007874015748143 ) ;
#716 = CARTESIAN_POINT ( 'NONE',  ( 0.7874015748031495399, 0.000000000000000000, 0.09842519685039372024 ) ) ;
#717 = ORIENTED_EDGE ( 'NONE', *, *, #623, .F. ) ;
#718 = VECTOR ( 'NONE', #270, 39.37007874015748143 ) ;
#719 = DIRECTION ( 'NONE',  ( 0.000000000000000000, 1.000000000000000000, -0.000000000000000000 ) ) ;
#720 = EDGE_CURVE ( 'NONE', #232, #208, #894, .T. ) ;
#721 = ORIENTED_EDGE ( 'NONE', *, *, #630, .F. ) ;
#722 = LINE ( 'NONE', #448, #913 ) ;
#723 = EDGE_LOOP ( 'NONE', ( #452, #1176, #633, #1026 ) ) ;
#724 = DIRECTION ( 'NONE',  ( -0.000000000000000000, 0.000000000000000000, 1.000000000000000000 ) ) ;
#725 = FACE_BOUND ( 'NONE', #634, .T. ) ;
#726 = SHAPE_DEFINITION_REPRESENTATION ( #305, #76 ) ;
#727 = EDGE_LOOP ( 'NONE', ( #907, #170, #318, #1160 ) ) ;
#728 = FACE_OUTER_BOUND ( 'NONE', #1033, .T. ) ;
#729 = DIRECTION ( 'NONE',  ( -0.000000000000000000, -0.000000000000000000, 1.000000000000000000 ) ) ;
#730 = DIRECTION ( 'NONE',  ( 1.000000000000000000, -1.387778780781446600E-17, 0.000000000000000000 ) ) ;
#731 = CARTESIAN_POINT ( 'NONE',  ( -0.6889763779527560139, 9.561467977824922497E-18, -0.09842519685039372024 ) ) ;
#732 = EDGE_CURVE ( 'NONE', #497, #749, #190, .T. ) ;
#733 = CARTESIAN_POINT ( 'NONE',  ( 0.000000000000000000, 9.842519685039370358, -0.1968503937007874127 ) ) ;
#734 = CIRCLE ( 'NONE', #321, 0.09842519685039365085 ) ;
#735 = DIRECTION ( 'NONE',  ( -1.000000000000000000, 0.000000000000000000, 0.000000000000000000 ) ) ;
#736 = AXIS2_PLACEMENT_3D ( 'NONE', #1194, #248, #526 ) ;
#737 = VECTOR ( 'NONE', #551, 39.37007874015748143 ) ;
#738 = ORIENTED_EDGE ( 'NONE', *, *, #1059, .T. ) ;
#739 = PLANE ( 'NONE',  #795 ) ;
#740 = DIRECTION ( 'NONE',  ( -0.000000000000000000, -0.000000000000000000, 1.000000000000000000 ) ) ;
#741 = CARTESIAN_POINT ( 'NONE',  ( 0.000000000000000000, 9.842519685039370358, -0.09842519685039372024 ) ) ;
#742 = EDGE_LOOP ( 'NONE', ( #686, #87 ) ) ;
#743 = ORIENTED_EDGE ( 'NONE', *, *, #408, .T. ) ;
#744 = CARTESIAN_POINT ( 'NONE',  ( 0.000000000000000000, 0.000000000000000000, 0.1968503937007874127 ) ) ;
#745 = LINE ( 'NONE', #403, #147 ) ;
#746 = DIRECTION ( 'NONE',  ( -0.000000000000000000, -0.000000000000000000, 1.000000000000000000 ) ) ;
#747 = ORIENTED_EDGE ( 'NONE', *, *, #1042, .F. ) ;
#748 = AXIS2_PLACEMENT_3D ( 'NONE', #330, #1067, #708 ) ;
#749 = VERTEX_POINT ( 'NONE', #667 ) ;
#750 = CARTESIAN_POINT ( 'NONE',  ( -0.7874015748031496509, 8.858267716535433323, -0.2952755905511810774 ) ) ;
#751 = ORIENTED_EDGE ( 'NONE', *, *, #557, .T. ) ;
#752 = EDGE_CURVE ( 'NONE', #476, #1079, #829, .T. ) ;
#753 = EDGE_CURVE ( 'NONE', #48, #1006, #734, .T. ) ;
#754 = DIRECTION ( 'NONE',  ( -1.387778780781445676E-17, -1.000000000000000000, 0.000000000000000000 ) ) ;
#755 = LINE ( 'NONE', #470, #1130 ) ;
#756 = VECTOR ( 'NONE', #1179, 39.37007874015748143 ) ;
#757 = ORIENTED_EDGE ( 'NONE', *, *, #172, .T. ) ;
#758 = CARTESIAN_POINT ( 'NONE',  ( -0.6889763779527560139, 9.561467977824922497E-18, 0.09842519685039370636 ) ) ;
#759 = VECTOR ( 'NONE', #625, 39.37007874015748143 ) ;
#760 = ORIENTED_EDGE ( 'NONE', *, *, #298, .F. ) ;
#761 = DIMENSIONAL_EXPONENTS ( 1.000000000000000000, 0.000000000000000000, 0.000000000000000000, 0.000000000000000000, 0.000000000000000000, 0.000000000000000000, 0.000000000000000000 ) ;
#762 = DIRECTION ( 'NONE',  ( -0.000000000000000000, -0.000000000000000000, -1.000000000000000000 ) ) ;
#763 = PRODUCT_DEFINITION_SHAPE ( 'NONE', 'NONE',  #1211 ) ;
#764 = ORIENTED_EDGE ( 'NONE', *, *, #325, .T. ) ;
#765 = DIRECTION ( 'NONE',  ( -0.000000000000000000, -0.000000000000000000, 1.000000000000000000 ) ) ;
#766 = ORIENTED_EDGE ( 'NONE', *, *, #444, .F. ) ;
#767 = ORIENTED_EDGE ( 'NONE', *, *, #537, .F. ) ;
#768 =( LENGTH_UNIT ( ) NAMED_UNIT ( * ) SI_UNIT ( $, .METRE. ) );
#769 = VERTEX_POINT ( 'NONE', #1058 ) ;
#770 = EDGE_CURVE ( 'NONE', #1047, #1139, #1108, .T. ) ;
#771 = ORIENTED_EDGE ( 'NONE', *, *, #646, .T. ) ;
#772 = CARTESIAN_POINT ( 'NONE',  ( -0.3937007874015748254, 4.821444091131312140E-17, -0.1968503937007874127 ) ) ;
#773 = AXIS2_PLACEMENT_3D ( 'NONE', #880, #793, #609 ) ;
#774 = APPLICATION_CONTEXT ( 'automotive_design' ) ;
#775 = ORIENTED_EDGE ( 'NONE', *, *, #844, .T. ) ;
#776 = ORIENTED_EDGE ( 'NONE', *, *, #804, .T. ) ;
#777 = EDGE_CURVE ( 'NONE', #918, #320, #939, .T. ) ;
#778 = PRESENTATION_STYLE_ASSIGNMENT (( #791 ) ) ;
#779 = CARTESIAN_POINT ( 'NONE',  ( 0.6889763779527556808, 1.377952755905512028, -0.1968503937007874127 ) ) ;
#780 = AXIS2_PLACEMENT_3D ( 'NONE', #731, #1105, #175 ) ;
#781 = DIRECTION ( 'NONE',  ( 0.000000000000000000, 1.000000000000000000, 0.000000000000000000 ) ) ;
#782 = ORIENTED_EDGE ( 'NONE', *, *, #637, .T. ) ;
#783 = DIRECTION ( 'NONE',  ( 0.000000000000000000, 0.000000000000000000, 1.000000000000000000 ) ) ;
#784 = VERTEX_POINT ( 'NONE', #828 ) ;
#785 = DIRECTION ( 'NONE',  ( 0.000000000000000000, 0.000000000000000000, 1.000000000000000000 ) ) ;
#786 = CYLINDRICAL_SURFACE ( 'NONE', #560, 0.2952755905511811885 ) ;
#787 = ORIENTED_EDGE ( 'NONE', *, *, #930, .T. ) ;
#788 = CARTESIAN_POINT ( 'NONE',  ( -0.6889763779527560139, 9.561467977824922497E-18, -0.09842519685039372024 ) ) ;
#789 = VECTOR ( 'NONE', #494, 39.37007874015748143 ) ;
#790 = EDGE_CURVE ( 'NONE', #1099, #80, #697, .T. ) ;
#791 = SURFACE_STYLE_USAGE ( .BOTH. , #597 ) ;
#792 = ORIENTED_EDGE ( 'NONE', *, *, #363, .T. ) ;
#793 = DIRECTION ( 'NONE',  ( -1.000000000000000000, 0.000000000000000000, 0.000000000000000000 ) ) ;
#794 = LINE ( 'NONE', #40, #1009 ) ;
#795 = AXIS2_PLACEMENT_3D ( 'NONE', #1015, #821, #905 ) ;
#796 = AXIS2_PLACEMENT_3D ( 'NONE', #1206, #378, #859 ) ;
#797 = FACE_OUTER_BOUND ( 'NONE', #533, .T. ) ;
#798 = DIRECTION ( 'NONE',  ( 0.000000000000000000, 0.000000000000000000, 1.000000000000000000 ) ) ;
#799 = FILL_AREA_STYLE ('',( #610 ) ) ;
#800 = LINE ( 'NONE', #1076, #1166 ) ;
#801 = DIRECTION ( 'NONE',  ( 1.000000000000000000, 0.000000000000000000, 0.000000000000000000 ) ) ;
#802 = ORIENTED_EDGE ( 'NONE', *, *, #651, .T. ) ;
#803 = FACE_OUTER_BOUND ( 'NONE', #162, .T. ) ;
#804 = EDGE_CURVE ( 'NONE', #604, #543, #480, .T. ) ;
#805 = DIRECTION ( 'NONE',  ( -0.000000000000000000, -1.000000000000000000, -0.000000000000000000 ) ) ;
#806 = COLOUR_RGB ( '',0.000000000000000000, 0.000000000000000000, 0.5019607843137254832 ) ;
#807 = ADVANCED_FACE ( 'NONE', ( #850 ), #843, .T. ) ;
#808 = DIRECTION ( 'NONE',  ( 1.000000000000000000, 0.000000000000000000, 0.000000000000000000 ) ) ;
#809 = PLANE ( 'NONE',  #575 ) ;
#810 = PLANE ( 'NONE',  #466 ) ;
#811 = ORIENTED_EDGE ( 'NONE', *, *, #258, .F. ) ;
#812 = MECHANICAL_DESIGN_GEOMETRIC_PRESENTATION_REPRESENTATION (  '', ( #1186 ), #1010 ) ;
#813 = CARTESIAN_POINT ( 'NONE',  ( 0.000000000000000000, 1.476377952755905776, -0.2952755905511810774 ) ) ;
#814 = AXIS2_PLACEMENT_3D ( 'NONE', #569, #558, #461 ) ;
#815 = CARTESIAN_POINT ( 'NONE',  ( 0.000000000000000000, 0.000000000000000000, -0.1968503937007874127 ) ) ;
#816 =( NAMED_UNIT ( * ) PLANE_ANGLE_UNIT ( ) SI_UNIT ( $, .RADIAN. ) );
#817 = EDGE_LOOP ( 'NONE', ( #189, #931, #638, #979 ) ) ;
#818 = CARTESIAN_POINT ( 'NONE',  ( 0.2952755905511811885, 9.842519685039370358, -0.1968503937007874127 ) ) ;
#819 = DIRECTION ( 'NONE',  ( 0.000000000000000000, 0.000000000000000000, 1.000000000000000000 ) ) ;
#820 = DIRECTION ( 'NONE',  ( -1.000000000000000000, 0.000000000000000000, 0.000000000000000000 ) ) ;
#821 = DIRECTION ( 'NONE',  ( 0.000000000000000000, -1.000000000000000000, 0.000000000000000000 ) ) ;
#822 = EDGE_CURVE ( 'NONE', #553, #16, #78, .T. ) ;
#823 = EDGE_CURVE ( 'NONE', #918, #16, #854, .T. ) ;
#824 = DIRECTION ( 'NONE',  ( -1.000000000000000000, -0.000000000000000000, -0.000000000000000000 ) ) ;
#825 = DIRECTION ( 'NONE',  ( 1.000000000000000000, -0.000000000000000000, 0.000000000000000000 ) ) ;
#826 = CARTESIAN_POINT ( 'NONE',  ( -0.6889763779527560139, 9.561467977824922497E-18, 0.2952755905511810774 ) ) ;
#827 = SHAPE_REPRESENTATION ( 'ExampleBot-Link1', ( #748 ), #399 ) ;
#828 = CARTESIAN_POINT ( 'NONE',  ( -0.6889763779527559029, 8.759842519685038909, 0.3937007874015748254 ) ) ;
#829 = CIRCLE ( 'NONE', #581, 0.09842519685039370636 ) ;
#830 = FACE_OUTER_BOUND ( 'NONE', #345, .T. ) ;
#831 = CIRCLE ( 'NONE', #306, 0.3937007874015748254 ) ;
#832 = ORIENTED_EDGE ( 'NONE', *, *, #958, .F. ) ;
#833 = CARTESIAN_POINT ( 'NONE',  ( 0.000000000000000000, 0.000000000000000000, -0.3937007874015748254 ) ) ;
#834 = ORIENTED_EDGE ( 'NONE', *, *, #883, .T. ) ;
#835 =( REPRESENTATION_RELATIONSHIP ('NONE','NONE', #76, #827 ) REPRESENTATION_RELATIONSHIP_WITH_TRANSFORMATION ( #909 )SHAPE_REPRESENTATION_RELATIONSHIP( ) );
#836 = DIRECTION ( 'NONE',  ( -0.000000000000000000, -0.000000000000000000, 1.000000000000000000 ) ) ;
#837 = CARTESIAN_POINT ( 'NONE',  ( -0.6889763779527559029, 9.842519685039368582, -0.1968503937007874127 ) ) ;
#838 = ORIENTED_EDGE ( 'NONE', *, *, #77, .F. ) ;
#839 = EDGE_CURVE ( 'NONE', #16, #96, #794, .T. ) ;
#840 = EDGE_CURVE ( 'NONE', #1125, #769, #332, .T. ) ;
#841 = CARTESIAN_POINT ( 'NONE',  ( 0.7874015748031495399, 1.377952755905512028, -0.2952755905511811885 ) ) ;
#842 = ORIENTED_EDGE ( 'NONE', *, *, #668, .F. ) ;
#843 = CYLINDRICAL_SURFACE ( 'NONE', #11, 0.09842519685039370636 ) ;
#844 = EDGE_CURVE ( 'NONE', #193, #246, #800, .T. ) ;
#845 = CARTESIAN_POINT ( 'NONE',  ( -0.7874015748031495399, 8.858267716535433323, -0.3529317359869000859 ) ) ;
#846 = ORIENTED_EDGE ( 'NONE', *, *, #501, .T. ) ;
#847 = DIRECTION ( 'NONE',  ( 1.387778780781445676E-17, 1.000000000000000000, 0.000000000000000000 ) ) ;
#848 = PRODUCT_DEFINITION_SHAPE ( 'NONE', 'NONE',  #60 ) ;
#849 = ORIENTED_EDGE ( 'NONE', *, *, #804, .F. ) ;
#850 = FACE_OUTER_BOUND ( 'NONE', #727, .T. ) ;
#851 = ADVANCED_FACE ( 'NONE', ( #230 ), #343, .T. ) ;
#852 = CARTESIAN_POINT ( 'NONE',  ( -0.6889763779527560139, 1.377952755905512028, -0.1968503937007874127 ) ) ;
#853 = ORIENTED_EDGE ( 'NONE', *, *, #720, .F. ) ;
#854 = CIRCLE ( 'NONE', #128, 0.09842519685039370636 ) ;
#855 = EDGE_LOOP ( 'NONE', ( #120, #865, #671, #328 ) ) ;
#856 = DIRECTION ( 'NONE',  ( -1.000000000000000000, 0.000000000000000000, -0.000000000000000000 ) ) ;
#857 = VECTOR ( 'NONE', #371, 39.37007874015748143 ) ;
#858 = EDGE_CURVE ( 'NONE', #889, #553, #45, .T. ) ;
#859 = DIRECTION ( 'NONE',  ( 0.000000000000000000, 0.000000000000000000, 1.000000000000000000 ) ) ;
#860 = ORIENTED_EDGE ( 'NONE', *, *, #501, .F. ) ;
#861 = ORIENTED_EDGE ( 'NONE', *, *, #840, .T. ) ;
#862 = CARTESIAN_POINT ( 'NONE',  ( 0.7874015748031495399, 1.377952755905512028, -0.09842519685039372024 ) ) ;
#863 = ORIENTED_EDGE ( 'NONE', *, *, #770, .F. ) ;
#864 = EDGE_CURVE ( 'NONE', #209, #22, #1163, .T. ) ;
#865 = ORIENTED_EDGE ( 'NONE', *, *, #298, .T. ) ;
#866 = ADVANCED_FACE ( 'NONE', ( #421 ), #319, .T. ) ;
#867 = LINE ( 'NONE', #29, #335 ) ;
#868 = DIRECTION ( 'NONE',  ( 0.000000000000000000, 0.000000000000000000, 1.000000000000000000 ) ) ;
#869 = CIRCLE ( 'NONE', #121, 0.09842519685039370636 ) ;
#870 = CIRCLE ( 'NONE', #596, 0.09842519685039370636 ) ;
#871 = ORIENTED_EDGE ( 'NONE', *, *, #777, .T. ) ;
#872 = ORIENTED_EDGE ( 'NONE', *, *, #184, .T. ) ;
#873 =( NAMED_UNIT ( * ) PLANE_ANGLE_UNIT ( ) SI_UNIT ( $, .RADIAN. ) );
#874 = CARTESIAN_POINT ( 'NONE',  ( -0.7874015748031496509, 8.858267716535433323, 0.1968503937007874127 ) ) ;
#875 =( CONVERSION_BASED_UNIT ( 'INCH', #503 ) LENGTH_UNIT ( ) NAMED_UNIT ( #761 ) );
#876 = AXIS2_PLACEMENT_3D ( 'NONE', #659, #1037, #95 ) ;
#877 = VECTOR ( 'NONE', #824, 39.37007874015748143 ) ;
#878 = CARTESIAN_POINT ( 'NONE',  ( 0.7874015748031495399, 1.377952755905512028, -0.1968503937007874127 ) ) ;
#879 = CARTESIAN_POINT ( 'NONE',  ( -0.7874015748031495399, 1.476377952755905776, 0.2952755905511810774 ) ) ;
#880 = CARTESIAN_POINT ( 'NONE',  ( 0.7874015748031495399, 0.000000000000000000, 0.3937007874015748254 ) ) ;
#881 =( NAMED_UNIT ( * ) SI_UNIT ( $, .STERADIAN. ) SOLID_ANGLE_UNIT ( ) );
#882 = EDGE_CURVE ( 'NONE', #48, #291, #1064, .T. ) ;
#883 = EDGE_CURVE ( 'NONE', #1099, #1091, #227, .T. ) ;
#884 = CYLINDRICAL_SURFACE ( 'NONE', #934, 0.3937007874015748254 ) ;
#885 = LINE ( 'NONE', #700, #699 ) ;
#886 = ORIENTED_EDGE ( 'NONE', *, *, #660, .T. ) ;
#887 = CARTESIAN_POINT ( 'NONE',  ( 0.000000000000000000, 9.842519685039370358, 0.09842519685039372024 ) ) ;
#888 = CARTESIAN_POINT ( 'NONE',  ( -0.7874015748031495399, 1.377952755905512028, -0.2952755905511810774 ) ) ;
#889 = VERTEX_POINT ( 'NONE', #709 ) ;
#890 = EDGE_CURVE ( 'NONE', #1002, #1091, #978, .T. ) ;
#891 = CARTESIAN_POINT ( 'NONE',  ( -0.6889763779527560139, 1.377952755905512028, 0.1968503937007874127 ) ) ;
#892 =( LENGTH_UNIT ( ) NAMED_UNIT ( * ) SI_UNIT ( $, .METRE. ) );
#893 = DIRECTION ( 'NONE',  ( 1.000000000000000000, 0.000000000000000000, 0.000000000000000000 ) ) ;
#894 = CIRCLE ( 'NONE', #182, 0.6889763779527559029 ) ;
#895 = AXIS2_PLACEMENT_3D ( 'NONE', #741, #1124, #1132 ) ;
#896 = AXIS2_PLACEMENT_3D ( 'NONE', #1189, #898, #438 ) ;
#897 = EDGE_CURVE ( 'NONE', #497, #232, #34, .T. ) ;
#898 = DIRECTION ( 'NONE',  ( 1.387778780781445676E-17, 1.000000000000000000, 0.000000000000000000 ) ) ;
#899 = DIRECTION ( 'NONE',  ( 0.000000000000000000, 0.000000000000000000, 1.000000000000000000 ) ) ;
#900 =( NAMED_UNIT ( * ) SI_UNIT ( $, .STERADIAN. ) SOLID_ANGLE_UNIT ( ) );
#901 = CARTESIAN_POINT ( 'NONE',  ( 0.7874015748031495399, 1.377952755905512028, 0.2952755905511810774 ) ) ;
#902 = EDGE_CURVE ( 'NONE', #193, #158, #484, .T. ) ;
#903 = DIRECTION ( 'NONE',  ( 1.000000000000000000, -0.000000000000000000, 0.000000000000000000 ) ) ;
#904 = CARTESIAN_POINT ( 'NONE',  ( -0.7874015748031495399, 8.858267716535433323, 0.3529317359869000859 ) ) ;
#905 = DIRECTION ( 'NONE',  ( 0.000000000000000000, -0.000000000000000000, -1.000000000000000000 ) ) ;
#906 = LINE ( 'NONE', #532, #384 ) ;
#907 = ORIENTED_EDGE ( 'NONE', *, *, #82, .T. ) ;
#908 = DIRECTION ( 'NONE',  ( -0.000000000000000000, 1.000000000000000000, -0.000000000000000000 ) ) ;
#909 = ITEM_DEFINED_TRANSFORMATION ( 'NONE', 'NONE', #655,  #748 ) ;
#910 = ORIENTED_EDGE ( 'NONE', *, *, #63, .F. ) ;
#911 = ORIENTED_EDGE ( 'NONE', *, *, #668, .T. ) ;
#912 = CYLINDRICAL_SURFACE ( 'NONE', #990, 0.09842519685039365085 ) ;
#913 = VECTOR ( 'NONE', #629, 39.37007874015748143 ) ;
#914 = DIRECTION ( 'NONE',  ( 1.000000000000000000, 0.000000000000000000, 0.000000000000000000 ) ) ;
#915 = TOROIDAL_SURFACE ( 'NONE', #225, 0.6889763779527559029, 0.09842519685039370636 ) ;
#916 = CARTESIAN_POINT ( 'NONE',  ( 0.6889763779527559029, 0.000000000000000000, -0.09842519685039372024 ) ) ;
#917 = ORIENTED_EDGE ( 'NONE', *, *, #958, .T. ) ;
#918 = VERTEX_POINT ( 'NONE', #989 ) ;
#919 = DIRECTION ( 'NONE',  ( 0.000000000000000000, 1.000000000000000000, -0.000000000000000000 ) ) ;
#920 =( BOUNDED_CURVE ( )  B_SPLINE_CURVE ( 3, ( #1027, #937, #472, #841 ),
 .UNSPECIFIED., .F., .F. ) 
 B_SPLINE_CURVE_WITH_KNOTS ( ( 4, 4 ),
 ( 4.712388980384689674, 6.283185307179586232 ),
 .UNSPECIFIED. ) 
 CURVE ( )  GEOMETRIC_REPRESENTATION_ITEM ( )  RATIONAL_B_SPLINE_CURVE ( ( 1.000000000000000000, 0.8047378541243649375, 0.8047378541243649375, 1.000000000000000000 ) ) 
 REPRESENTATION_ITEM ( '' )  );
#921 = ADVANCED_FACE ( 'NONE', ( #975 ), #1082, .T. ) ;
#922 = DIRECTION ( 'NONE',  ( -0.000000000000000000, 1.000000000000000000, 0.000000000000000000 ) ) ;
#923 = CARTESIAN_POINT ( 'NONE',  ( -0.6889763779527560139, 1.377952755905512028, -0.09842519685039372024 ) ) ;
#924 = EDGE_LOOP ( 'NONE', ( #65, #368, #67, #6 ) ) ;
#925 = CARTESIAN_POINT ( 'NONE',  ( 0.000000000000000000, 0.000000000000000000, 0.000000000000000000 ) ) ;
#926 = TOROIDAL_SURFACE ( 'NONE', #398, 0.6889763779527559029, 0.09842519685039370636 ) ;
#927 = DIRECTION ( 'NONE',  ( 0.000000000000000000, 0.000000000000000000, 1.000000000000000000 ) ) ;
#928 = AXIS2_PLACEMENT_3D ( 'NONE', #1046, #281, #664 ) ;
#929 = CARTESIAN_POINT ( 'NONE',  ( -0.7874015748031496509, 8.858267716535433323, -0.1968503937007874127 ) ) ;
#930 = EDGE_CURVE ( 'NONE', #543, #158, #338, .T. ) ;
#931 = ORIENTED_EDGE ( 'NONE', *, *, #882, .F. ) ;
#932 = FACE_OUTER_BOUND ( 'NONE', #304, .T. ) ;
#933 = DIRECTION ( 'NONE',  ( 1.000000000000000000, 0.000000000000000000, 0.000000000000000000 ) ) ;
#934 = AXIS2_PLACEMENT_3D ( 'NONE', #925, #344, #644 ) ;
#935 = PLANE ( 'NONE',  #127 ) ;
#936 = ORIENTED_EDGE ( 'NONE', *, *, #83, .T. ) ;
#937 = CARTESIAN_POINT ( 'NONE',  ( 0.7466325233884748558, 1.418721807320186601, -0.3937007874015747699 ) ) ;
#938 = EDGE_CURVE ( 'NONE', #100, #143, #959, .T. ) ;
#939 = LINE ( 'NONE', #365, #1089 ) ;
#940 = DIRECTION ( 'NONE',  ( 1.387778780781445676E-17, 1.000000000000000000, -0.000000000000000000 ) ) ;
#941 = EDGE_LOOP ( 'NONE', ( #407, #677, #382, #138 ) ) ;
#942 = CARTESIAN_POINT ( 'NONE',  ( -0.3937007874015748254, 4.821444091131312140E-17, 0.000000000000000000 ) ) ;
#943 = ORIENTED_EDGE ( 'NONE', *, *, #241, .F. ) ;
#944 = DIRECTION ( 'NONE',  ( -0.000000000000000000, 1.000000000000000000, -0.000000000000000000 ) ) ;
#945 = AXIS2_PLACEMENT_3D ( 'NONE', #923, #908, #632 ) ;
#946 = FACE_OUTER_BOUND ( 'NONE', #26, .T. ) ;
#947 = ORIENTED_EDGE ( 'NONE', *, *, #902, .T. ) ;
#948 = ORIENTED_EDGE ( 'NONE', *, *, #261, .T. ) ;
#949 = DIRECTION ( 'NONE',  ( 0.000000000000000000, 0.000000000000000000, -1.000000000000000000 ) ) ;
#950 = ORIENTED_EDGE ( 'NONE', *, *, #82, .F. ) ;
#951 = UNCERTAINTY_MEASURE_WITH_UNIT (LENGTH_MEASURE( 1.000000000000000082E-05 ), #145, 'distance_accuracy_value', 'NONE');
#952 = LINE ( 'NONE', #367, #485 ) ;
#953 = EDGE_CURVE ( 'NONE', #1149, #491, #106, .T. ) ;
#954 = VECTOR ( 'NONE', #704, 39.37007874015748143 ) ;
#955 = VECTOR ( 'NONE', #385, 39.37007874015748143 ) ;
#956 = VERTEX_POINT ( 'NONE', #510 ) ;
#957 = ORIENTED_EDGE ( 'NONE', *, *, #536, .F. ) ;
#958 = EDGE_CURVE ( 'NONE', #1072, #473, #146, .T. ) ;
#959 =( BOUNDED_CURVE ( )  B_SPLINE_CURVE ( 3, ( #901, #56, #714, #125 ),
 .UNSPECIFIED., .F., .F. ) 
 B_SPLINE_CURVE_WITH_KNOTS ( ( 4, 4 ),
 ( 0.000000000000000000, 1.570796326794895892 ),
 .UNSPECIFIED. ) 
 CURVE ( )  GEOMETRIC_REPRESENTATION_ITEM ( )  RATIONAL_B_SPLINE_CURVE ( ( 1.000000000000000000, 0.8047378541243652705, 0.8047378541243652705, 1.000000000000000000 ) ) 
 REPRESENTATION_ITEM ( '' )  );
#960 = DIRECTION ( 'NONE',  ( -0.000000000000000000, -0.000000000000000000, 1.000000000000000000 ) ) ;
#961 = CARTESIAN_POINT ( 'NONE',  ( 0.7874015748031495399, 1.377952755905512028, 0.2952755905511810774 ) ) ;
#962 = CARTESIAN_POINT ( 'NONE',  ( 0.6889763779527559029, 8.759842519685038909, -0.3937007874015748254 ) ) ;
#963 = ORIENTED_EDGE ( 'NONE', *, *, #28, .T. ) ;
#964 = ORIENTED_EDGE ( 'NONE', *, *, #521, .T. ) ;
#965 = FILL_AREA_STYLE_COLOUR ( '', #1109 ) ;
#966 = FACE_OUTER_BOUND ( 'NONE', #1044, .T. ) ;
#967 = DIRECTION ( 'NONE',  ( 1.000000000000000000, 0.000000000000000000, 0.000000000000000000 ) ) ;
#968 = VECTOR ( 'NONE', #517, 39.37007874015748143 ) ;
#969 = CARTESIAN_POINT ( 'NONE',  ( -0.7874015748031496509, 8.759842519685038909, 0.2952755905511810774 ) ) ;
#970 = FILL_AREA_STYLE ('',( #965 ) ) ;
#971 = ADVANCED_FACE ( 'NONE', ( #693 ), #884, .F. ) ;
#972 = CARTESIAN_POINT ( 'NONE',  ( 0.7874015748031495399, 9.842519685039370358, -0.09842519685039372024 ) ) ;
#973 = VECTOR ( 'NONE', #940, 39.37007874015748143 ) ;
#974 = VECTOR ( 'NONE', #754, 39.37007874015748143 ) ;
#975 = FACE_OUTER_BOUND ( 'NONE', #221, .T. ) ;
#976 = DIRECTION ( 'NONE',  ( -0.000000000000000000, -0.000000000000000000, 1.000000000000000000 ) ) ;
#977 = DIRECTION ( 'NONE',  ( -1.000000000000000000, 0.000000000000000000, 0.000000000000000000 ) ) ;
#978 = LINE ( 'NONE', #888, #285 ) ;
#979 = ORIENTED_EDGE ( 'NONE', *, *, #224, .F. ) ;
#980 = ORIENTED_EDGE ( 'NONE', *, *, #1137, .F. ) ;
#981 = DIRECTION ( 'NONE',  ( -1.000000000000000000, 1.387778780781445676E-17, 0.000000000000000000 ) ) ;
#982 = CARTESIAN_POINT ( 'NONE',  ( 0.000000000000000000, 0.000000000000000000, 0.000000000000000000 ) ) ;
#983 = MECHANICAL_DESIGN_GEOMETRIC_PRESENTATION_REPRESENTATION (  '', ( #139 ), #555 ) ;
#984 = DIRECTION ( 'NONE',  ( -1.000000000000000000, 0.000000000000000000, 0.000000000000000000 ) ) ;
#985 = FACE_OUTER_BOUND ( 'NONE', #694, .T. ) ;
#986 = ORIENTED_EDGE ( 'NONE', *, *, #897, .T. ) ;
#987 = DIRECTION ( 'NONE',  ( 0.000000000000000000, 0.000000000000000000, 1.000000000000000000 ) ) ;
#988 = ADVANCED_FACE ( 'NONE', ( #361 ), #739, .T. ) ;
#989 = CARTESIAN_POINT ( 'NONE',  ( -0.7874015748031495399, 1.377952755905512028, 0.09842519685039370636 ) ) ;
#990 = AXIS2_PLACEMENT_3D ( 'NONE', #826, #465, #538 ) ;
#991 = AXIS2_PLACEMENT_3D ( 'NONE', #528, #148, #352 ) ;
#992 = CARTESIAN_POINT ( 'NONE',  ( 0.000000000000000000, 8.759842519685038909, -0.3937007874015748254 ) ) ;
#993 = ORIENTED_EDGE ( 'NONE', *, *, #732, .F. ) ;
#994 = CYLINDRICAL_SURFACE ( 'NONE', #12, 0.09842519685039365085 ) ;
#995 = CYLINDRICAL_SURFACE ( 'NONE', #563, 0.09842519685039370636 ) ;
#996 = FACE_OUTER_BOUND ( 'NONE', #283, .T. ) ;
#997 = ORIENTED_EDGE ( 'NONE', *, *, #444, .T. ) ;
#998 = CYLINDRICAL_SURFACE ( 'NONE', #583, 0.09842519685039372024 ) ;
#999 = ORIENTED_EDGE ( 'NONE', *, *, #422, .F. ) ;
#1000 = VERTEX_POINT ( 'NONE', #1192 ) ;
#1001 = CARTESIAN_POINT ( 'NONE',  ( -0.7466325233884748558, 1.418721807320186601, 0.3937007874015747699 ) ) ;
#1002 = VERTEX_POINT ( 'NONE', #545 ) ;
#1003 = CARTESIAN_POINT ( 'NONE',  ( 0.000000000000000000, 9.842519685039370358, 0.1968503937007874127 ) ) ;
#1004 = CARTESIAN_POINT ( 'NONE',  ( -0.6889763779527560139, -1.365923996832131648E-18, 0.09842519685039370636 ) ) ;
#1005 = EDGE_CURVE ( 'NONE', #769, #604, #69, .T. ) ;
#1006 = VERTEX_POINT ( 'NONE', #151 ) ;
#1007 = DIRECTION ( 'NONE',  ( 0.000000000000000000, 0.000000000000000000, 1.000000000000000000 ) ) ;
#1008 = DIMENSIONAL_EXPONENTS ( 1.000000000000000000, 0.000000000000000000, 0.000000000000000000, 0.000000000000000000, 0.000000000000000000, 0.000000000000000000, 0.000000000000000000 ) ;
#1009 = VECTOR ( 'NONE', #436, 39.37007874015748143 ) ;
#1010 =( GEOMETRIC_REPRESENTATION_CONTEXT ( 3 ) GLOBAL_UNCERTAINTY_ASSIGNED_CONTEXT ( ( #1086 ) ) GLOBAL_UNIT_ASSIGNED_CONTEXT ( ( #515, #873, #310 ) ) REPRESENTATION_CONTEXT ( 'NONE', 'WORKASPACE' ) );
#1011 = CARTESIAN_POINT ( 'NONE',  ( 0.7874015748031495399, 0.000000000000000000, -0.09842519685039372024 ) ) ;
#1012 = CIRCLE ( 'NONE', #467, 0.6889763779527559029 ) ;
#1013 = CARTESIAN_POINT ( 'NONE',  ( 0.7874015748031495399, 9.842519685039370358, 0.09842519685039372024 ) ) ;
#1014 = VERTEX_POINT ( 'NONE', #1095 ) ;
#1015 = CARTESIAN_POINT ( 'NONE',  ( -0.7874015748031495399, 1.377952755905512028, -0.1968503937007874127 ) ) ;
#1016 = ADVANCED_FACE ( 'NONE', ( #163 ), #995, .T. ) ;
#1017 = DIRECTION ( 'NONE',  ( 1.387778780781446600E-17, 1.000000000000000000, 0.000000000000000000 ) ) ;
#1018 = CARTESIAN_POINT ( 'NONE',  ( -0.6889763779527559029, 8.858267716535433323, -0.09842519685039372024 ) ) ;
#1019 = EDGE_LOOP ( 'NONE', ( #73, #1147, #317, #1143 ) ) ;
#1020 = CARTESIAN_POINT ( 'NONE',  ( 0.7874015748031495399, 0.000000000000000000, 0.09842519685039372024 ) ) ;
#1021 = EDGE_CURVE ( 'NONE', #25, #320, #159, .T. ) ;
#1022 = UNCERTAINTY_MEASURE_WITH_UNIT (LENGTH_MEASURE( 1.000000000000000082E-05 ), #875, 'distance_accuracy_value', 'NONE');
#1023 = CARTESIAN_POINT ( 'NONE',  ( -0.7874015748031496509, 1.092739197465705318E-17, -0.2952755905511811885 ) ) ;
#1024 = AXIS2_PLACEMENT_3D ( 'NONE', #758, #847, #685 ) ;
#1025 = CARTESIAN_POINT ( 'NONE',  ( 0.000000000000000000, 9.842519685039370358, -0.1968503937007874127 ) ) ;
#1026 = ORIENTED_EDGE ( 'NONE', *, *, #839, .F. ) ;
#1027 = CARTESIAN_POINT ( 'NONE',  ( 0.6889763779527559029, 1.476377952755905776, -0.3937007874015748254 ) ) ;
#1028 = ADVANCED_FACE ( 'NONE', ( #1116 ), #650, .T. ) ;
#1029 = LINE ( 'NONE', #1110, #164 ) ;
#1030 = CIRCLE ( 'NONE', #1088, 0.3937007874015748254 ) ;
#1031 = AXIS2_PLACEMENT_3D ( 'NONE', #183, #944, #94 ) ;
#1032 = LINE ( 'NONE', #90, #715 ) ;
#1033 = EDGE_LOOP ( 'NONE', ( #986, #760, #349, #993 ) ) ;
#1034 = CARTESIAN_POINT ( 'NONE',  ( -0.7874015748031495399, 8.858267716535433323, 0.09842519685039370636 ) ) ;
#1035 = ORIENTED_EDGE ( 'NONE', *, *, #623, .T. ) ;
#1036 = DIRECTION ( 'NONE',  ( -1.000000000000000000, 1.387778780781447524E-17, 0.000000000000000000 ) ) ;
#1037 = DIRECTION ( 'NONE',  ( 0.000000000000000000, 0.000000000000000000, -1.000000000000000000 ) ) ;
#1038 = EDGE_LOOP ( 'NONE', ( #74, #1052, #404, #471, #871, #239, #1142, #861, #539, #272, #792, #369 ) ) ;
#1039 = ORIENTED_EDGE ( 'NONE', *, *, #557, .F. ) ;
#1040 = PLANE ( 'NONE',  #296 ) ;
#1041 = VERTEX_POINT ( 'NONE', #818 ) ;
#1042 = EDGE_CURVE ( 'NONE', #543, #1125, #600, .T. ) ;
#1043 = DIRECTION ( 'NONE',  ( -0.000000000000000000, -0.000000000000000000, 1.000000000000000000 ) ) ;
#1044 = EDGE_LOOP ( 'NONE', ( #1133, #1164, #1, #947, #15, #571 ) ) ;
#1045 = ADVANCED_FACE ( 'NONE', ( #356 ), #75, .T. ) ;
#1046 = CARTESIAN_POINT ( 'NONE',  ( 0.000000000000000000, 9.842519685039370358, 0.000000000000000000 ) ) ;
#1047 = VERTEX_POINT ( 'NONE', #1020 ) ;
#1048 = CARTESIAN_POINT ( 'NONE',  ( 0.000000000000000000, 9.842519685039370358, 0.000000000000000000 ) ) ;
#1049 = ORIENTED_EDGE ( 'NONE', *, *, #1005, .T. ) ;
#1050 = CIRCLE ( 'NONE', #1152, 0.3937007874015748254 ) ;
#1051 = VECTOR ( 'NONE', #191, 39.37007874015748143 ) ;
#1052 = ORIENTED_EDGE ( 'NONE', *, *, #224, .T. ) ;
#1053 = CARTESIAN_POINT ( 'NONE',  ( 0.7874015748031495399, 1.377952755905512028, -0.2952755905511811885 ) ) ;
#1054 = CIRCLE ( 'NONE', #525, 0.6889763779527556808 ) ;
#1055 = ORIENTED_EDGE ( 'NONE', *, *, #412, .T. ) ;
#1056 = DIRECTION ( 'NONE',  ( 0.000000000000000000, 0.000000000000000000, -1.000000000000000000 ) ) ;
#1057 = CARTESIAN_POINT ( 'NONE',  ( -0.6889763779527560139, 9.561467977824922497E-18, 0.3937007874015748254 ) ) ;
#1058 = CARTESIAN_POINT ( 'NONE',  ( -0.7874015748031495399, 9.842519685039368582, 0.09842519685039372024 ) ) ;
#1059 = EDGE_CURVE ( 'NONE', #143, #956, #722, .T. ) ;
#1060 = PRODUCT_RELATED_PRODUCT_CATEGORY ( 'part', '', ( #390 ) ) ;
#1061 = CARTESIAN_POINT ( 'NONE',  ( 0.6889763779527559029, 9.842519685039370358, -0.09842519685039372024 ) ) ;
#1062 = LINE ( 'NONE', #324, #457 ) ;
#1063 = ADVANCED_FACE ( 'NONE', ( #350 ), #912, .T. ) ;
#1064 = LINE ( 'NONE', #410, #381 ) ;
#1065 = LINE ( 'NONE', #716, #323 ) ;
#1066 = CARTESIAN_POINT ( 'NONE',  ( 0.7874015748031495399, 0.000000000000000000, 0.09842519685039372024 ) ) ;
#1067 = DIRECTION ( 'NONE',  ( 0.000000000000000000, 0.000000000000000000, 1.000000000000000000 ) ) ;
#1068 = ADVANCED_FACE ( 'NONE', ( #728 ), #549, .T. ) ;
#1069 = AXIS2_PLACEMENT_3D ( 'NONE', #813, #53, #819 ) ;
#1070 = DIRECTION ( 'NONE',  ( 0.000000000000000000, -1.000000000000000000, 0.000000000000000000 ) ) ;
#1071 = DIRECTION ( 'NONE',  ( -1.000000000000000000, -0.000000000000000000, 0.000000000000000000 ) ) ;
#1072 = VERTEX_POINT ( 'NONE', #81 ) ;
#1073 = CARTESIAN_POINT ( 'NONE',  ( 0.6889763779527559029, 8.759842519685038909, -0.3937007874015748254 ) ) ;
#1074 = SHAPE_REPRESENTATION_RELATIONSHIP ( 'NONE' , 'NONE' ,  #827, #430 ) ;
#1075 = ADVANCED_FACE ( 'NONE', ( #68 ), #810, .T. ) ;
#1076 = CARTESIAN_POINT ( 'NONE',  ( 0.7874015748031495399, 8.858267716535433323, 0.1968503937007874127 ) ) ;
#1077 = ADVANCED_FACE ( 'NONE', ( #932, #1185 ), #1208, .F. ) ;
#1078 = DIRECTION ( 'NONE',  ( 1.387778780781445676E-17, 1.000000000000000000, 0.000000000000000000 ) ) ;
#1079 = VERTEX_POINT ( 'NONE', #478 ) ;
#1080 = LINE ( 'NONE', #1066, #968 ) ;
#1081 = ADVANCED_FACE ( 'NONE', ( #2 ), #105, .T. ) ;
#1082 = CYLINDRICAL_SURFACE ( 'NONE', #201, 0.09842519685039372024 ) ;
#1083 = LINE ( 'NONE', #992, #364 ) ;
#1084 = CARTESIAN_POINT ( 'NONE',  ( -0.7466325233884748558, 8.817498665120758972, 0.3937007874015747699 ) ) ;
#1085 =( NAMED_UNIT ( * ) SI_UNIT ( $, .STERADIAN. ) SOLID_ANGLE_UNIT ( ) );
#1086 = UNCERTAINTY_MEASURE_WITH_UNIT (LENGTH_MEASURE( 1.000000000000000082E-05 ), #515, 'distance_accuracy_value', 'NONE');
#1087 = DIRECTION ( 'NONE',  ( 1.000000000000000000, -0.000000000000000000, -0.000000000000000000 ) ) ;
#1088 = AXIS2_PLACEMENT_3D ( 'NONE', #647, #960, #210 ) ;
#1089 = VECTOR ( 'NONE', #1209, 39.37007874015748143 ) ;
#1090 = CARTESIAN_POINT ( 'NONE',  ( -0.7874015748031495399, 1.377952755905512028, 0.1968503937007874127 ) ) ;
#1091 = VERTEX_POINT ( 'NONE', #1053 ) ;
#1092 = DIRECTION ( 'NONE',  ( -1.387778780781445676E-17, -1.000000000000000000, 0.000000000000000000 ) ) ;
#1093 = ORIENTED_EDGE ( 'NONE', *, *, #1115, .F. ) ;
#1094 = ORIENTED_EDGE ( 'NONE', *, *, #391, .F. ) ;
#1095 = CARTESIAN_POINT ( 'NONE',  ( 0.6889763779527559029, 9.842519685039370358, 0.1968503937007874127 ) ) ;
#1096 = EDGE_CURVE ( 'NONE', #279, #38, #678, .T. ) ;
#1097 = LINE ( 'NONE', #631, #544 ) ;
#1098 = CARTESIAN_POINT ( 'NONE',  ( 0.7874015748031495399, 8.858267716535433323, -0.09842519685039372024 ) ) ;
#1099 = VERTEX_POINT ( 'NONE', #862 ) ;
#1100 = CARTESIAN_POINT ( 'NONE',  ( -0.7874015748031495399, 1.377952755905512028, 0.2952755905511810774 ) ) ;
#1101 = PLANE ( 'NONE',  #108 ) ;
#1102 = CARTESIAN_POINT ( 'NONE',  ( -0.7874015748031496509, 1.895600338963814870E-33, -0.09842519685039372024 ) ) ;
#1103 = CARTESIAN_POINT ( 'NONE',  ( 0.000000000000000000, 0.000000000000000000, 0.000000000000000000 ) ) ;
#1104 = ORIENTED_EDGE ( 'NONE', *, *, #864, .T. ) ;
#1105 = DIRECTION ( 'NONE',  ( 1.387778780781445676E-17, 1.000000000000000000, -0.000000000000000000 ) ) ;
#1106 = ADVANCED_FACE ( 'NONE', ( #1126 ), #490, .F. ) ;
#1107 = VERTEX_POINT ( 'NONE', #495 ) ;
#1108 = CIRCLE ( 'NONE', #814, 0.7874015748031495399 ) ;
#1109 = COLOUR_RGB ( '',0.000000000000000000, 0.000000000000000000, 0.5019607843137254832 ) ;
#1110 = CARTESIAN_POINT ( 'NONE',  ( 0.000000000000000000, 1.476377952755905776, -0.3937007874015748254 ) ) ;
#1111 = VECTOR ( 'NONE', #1159, 39.37007874015748143 ) ;
#1112 = CYLINDRICAL_SURFACE ( 'NONE', #796, 0.09842519685039370636 ) ;
#1113 = APPLICATION_PROTOCOL_DEFINITION ( 'draft international standard', 'automotive_design', 1998, #774 ) ;
#1114 = ORIENTED_EDGE ( 'NONE', *, *, #1137, .T. ) ;
#1115 = EDGE_CURVE ( 'NONE', #246, #956, #673, .T. ) ;
#1116 = FACE_OUTER_BOUND ( 'NONE', #489, .T. ) ;
#1117 = DIRECTION ( 'NONE',  ( 1.000000000000000000, 0.000000000000000000, 0.000000000000000000 ) ) ;
#1118 = EDGE_CURVE ( 'NONE', #1127, #512, #194, .T. ) ;
#1119 = CARTESIAN_POINT ( 'NONE',  ( -0.6889763779527559029, 9.842519685039368582, -0.1968503937007874127 ) ) ;
#1120 = ORIENTED_EDGE ( 'NONE', *, *, #902, .F. ) ;
#1121 = CARTESIAN_POINT ( 'NONE',  ( 0.6889763779527559029, 0.000000000000000000, 0.2952755905511810774 ) ) ;
#1122 = DIRECTION ( 'NONE',  ( -0.000000000000000000, -0.000000000000000000, -1.000000000000000000 ) ) ;
#1123 = AXIS2_PLACEMENT_3D ( 'NONE', #1103, #535, #360 ) ;
#1124 = DIRECTION ( 'NONE',  ( 0.000000000000000000, 0.000000000000000000, 1.000000000000000000 ) ) ;
#1125 = VERTEX_POINT ( 'NONE', #1034 ) ;
#1126 = FACE_OUTER_BOUND ( 'NONE', #204, .T. ) ;
#1127 = VERTEX_POINT ( 'NONE', #962 ) ;
#1128 = DIRECTION ( 'NONE',  ( 1.000000000000000000, 0.000000000000000000, 0.000000000000000000 ) ) ;
#1129 = AXIS2_PLACEMENT_3D ( 'NONE', #527, #504, #131 ) ;
#1130 = VECTOR ( 'NONE', #762, 39.37007874015748143 ) ;
#1131 = AXIS2_PLACEMENT_3D ( 'NONE', #1158, #696, #893 ) ;
#1132 = DIRECTION ( 'NONE',  ( 1.000000000000000000, 0.000000000000000000, 0.000000000000000000 ) ) ;
#1133 = ORIENTED_EDGE ( 'NONE', *, *, #418, .T. ) ;
#1134 = DIRECTION ( 'NONE',  ( -1.000000000000000000, 0.000000000000000000, 0.000000000000000000 ) ) ;
#1135 = EDGE_LOOP ( 'NONE', ( #1049, #93, #1039, #614 ) ) ;
#1136 = UNCERTAINTY_MEASURE_WITH_UNIT (LENGTH_MEASURE( 1.000000000000000082E-05 ), #695, 'distance_accuracy_value', 'NONE');
#1137 = EDGE_CURVE ( 'NONE', #133, #22, #180, .T. ) ;
#1138 = CARTESIAN_POINT ( 'NONE',  ( -0.7874015748031496509, 8.858267716535433323, -0.1968503937007874127 ) ) ;
#1139 = VERTEX_POINT ( 'NONE', #99 ) ;
#1140 = ORIENTED_EDGE ( 'NONE', *, *, #624, .F. ) ;
#1141 = FACE_OUTER_BOUND ( 'NONE', #427, .T. ) ;
#1142 = ORIENTED_EDGE ( 'NONE', *, *, #418, .F. ) ;
#1143 = ORIENTED_EDGE ( 'NONE', *, *, #953, .T. ) ;
#1144 = CLOSED_SHELL ( 'NONE', ( #1106, #1180, #119, #46, #1075, #1028, #185, #506, #97, #1077, #1172, #519, #971, #433, #282, #135, #1156, #988, #114, #851, #59, #1081, #302, #807, #315, #98, #1068, #205, #481, #1016, #168, #866, #607, #550, #921, #1045, #1063, #429 ) ) ;
#1145 = CARTESIAN_POINT ( 'NONE',  ( -0.6889763779527560139, 9.561467977824922497E-18, -0.3937007874015748254 ) ) ;
#1146 = ORIENTED_EDGE ( 'NONE', *, *, #651, .F. ) ;
#1147 = ORIENTED_EDGE ( 'NONE', *, *, #409, .F. ) ;
#1148 = CARTESIAN_POINT ( 'NONE',  ( 0.6889763779527559029, 1.377952755905512028, -0.3937007874015748254 ) ) ;
#1149 = VERTEX_POINT ( 'NONE', #579 ) ;
#1150 = EDGE_LOOP ( 'NONE', ( #301, #424, #91, #576 ) ) ;
#1151 = LENGTH_MEASURE_WITH_UNIT ( LENGTH_MEASURE( 0.02539999999999999897 ), #768 );
#1152 = AXIS2_PLACEMENT_3D ( 'NONE', #594, #836, #1128 ) ;
#1153 = CARTESIAN_POINT ( 'NONE',  ( -0.6889763779527560139, -1.365923996832131648E-18, 0.1968503937007874127 ) ) ;
#1154 = DIRECTION ( 'NONE',  ( 0.000000000000000000, 0.000000000000000000, 1.000000000000000000 ) ) ;
#1155 = FACE_OUTER_BOUND ( 'NONE', #941, .T. ) ;
#1156 = ADVANCED_FACE ( 'NONE', ( #483, #1141 ), #380, .F. ) ;
#1157 = LINE ( 'NONE', #1057, #679 ) ;
#1158 = CARTESIAN_POINT ( 'NONE',  ( -6.829619984160658046E-17, 0.000000000000000000, -0.09842519685039372024 ) ) ;
#1159 = DIRECTION ( 'NONE',  ( 1.387778780781445676E-17, 1.000000000000000000, 0.000000000000000000 ) ) ;
#1160 = ORIENTED_EDGE ( 'NONE', *, *, #858, .F. ) ;
#1161 = CARTESIAN_POINT ( 'NONE',  ( -0.2952755905511811885, 9.842519685039370358, -0.1968503937007874127 ) ) ;
#1162 = LENGTH_MEASURE_WITH_UNIT ( LENGTH_MEASURE( 0.02539999999999999897 ), #212 );
#1163 = LINE ( 'NONE', #219, #1203 ) ;
#1164 = ORIENTED_EDGE ( 'NONE', *, *, #624, .T. ) ;
#1165 = CARTESIAN_POINT ( 'NONE',  ( 0.7466325233884747448, 8.817498665120757195, -0.3937007874015748810 ) ) ;
#1166 = VECTOR ( 'NONE', #141, 39.37007874015748143 ) ;
#1167 = CIRCLE ( 'NONE', #642, 0.7874015748031495399 ) ;
#1168 = CARTESIAN_POINT ( 'NONE',  ( -0.6889763779527559029, 9.842519685039368582, -0.09842519685039372024 ) ) ;
#1169 = EDGE_CURVE ( 'NONE', #1183, #491, #672, .T. ) ;
#1170 = CARTESIAN_POINT ( 'NONE',  ( 0.000000000000000000, 0.000000000000000000, 0.3937007874015748254 ) ) ;
#1171 = ORIENTED_EDGE ( 'NONE', *, *, #573, .T. ) ;
#1172 = ADVANCED_FACE ( 'NONE', ( #30, #111 ), #1040, .F. ) ;
#1173 = LINE ( 'NONE', #961, #789 ) ;
#1174 = DIRECTION ( 'NONE',  ( 1.387778780781445676E-17, 1.000000000000000000, -0.000000000000000000 ) ) ;
#1175 = CARTESIAN_POINT ( 'NONE',  ( 0.7874015748031493178, 8.858267716535433323, 0.2952755905511810774 ) ) ;
#1176 = ORIENTED_EDGE ( 'NONE', *, *, #196, .F. ) ;
#1177 = FACE_OUTER_BOUND ( 'NONE', #154, .T. ) ;
#1178 = PRODUCT_CONTEXT ( 'NONE', #774, 'mechanical' ) ;
#1179 = DIRECTION ( 'NONE',  ( 0.000000000000000000, 1.000000000000000000, 0.000000000000000000 ) ) ;
#1180 = ADVANCED_FACE ( 'NONE', ( #17 ), #395, .F. ) ;
#1181 = LINE ( 'NONE', #1175, #51 ) ;
#1182 = CARTESIAN_POINT ( 'NONE',  ( -0.6889763779527560139, 9.561467977824922497E-18, 0.09842519685039370636 ) ) ;
#1183 = VERTEX_POINT ( 'NONE', #772 ) ;
#1184 = EDGE_LOOP ( 'NONE', ( #757, #957, #566, #578 ) ) ;
#1185 = FACE_BOUND ( 'NONE', #479, .T. ) ;
#1186 = STYLED_ITEM ( 'NONE', ( #778 ), #437 ) ;
#1187 = EDGE_CURVE ( 'NONE', #397, #209, #870, .T. ) ;
#1188 = AXIS2_PLACEMENT_3D ( 'NONE', #326, #428, #612 ) ;
#1189 = CARTESIAN_POINT ( 'NONE',  ( -0.6889763779527560139, 9.561467977824922497E-18, -0.2952755905511810774 ) ) ;
#1190 = CARTESIAN_POINT ( 'NONE',  ( -0.7874015748031496509, 8.858267716535433323, 0.2952755905511810774 ) ) ;
#1191 = VERTEX_POINT ( 'NONE', #402 ) ;
#1192 = CARTESIAN_POINT ( 'NONE',  ( -0.6889763779527560139, 1.476377952755905776, -0.3937007874015748254 ) ) ;
#1193 = CARTESIAN_POINT ( 'NONE',  ( -6.829619984160658046E-17, 0.000000000000000000, -0.09842519685039372024 ) ) ;
#1194 = CARTESIAN_POINT ( 'NONE',  ( 0.6889763779527559029, 1.377952755905512028, 0.09842519685039370636 ) ) ;
#1195 = SHAPE_DEFINITION_REPRESENTATION ( #848, #827 ) ;
#1196 = DIRECTION ( 'NONE',  ( 0.000000000000000000, 0.000000000000000000, -1.000000000000000000 ) ) ;
#1197 = DIRECTION ( 'NONE',  ( 0.000000000000000000, -1.000000000000000000, 0.000000000000000000 ) ) ;
#1198 = FACE_OUTER_BOUND ( 'NONE', #374, .T. ) ;
#1199 = ORIENTED_EDGE ( 'NONE', *, *, #391, .T. ) ;
#1200 = DIRECTION ( 'NONE',  ( 0.000000000000000000, 0.000000000000000000, -1.000000000000000000 ) ) ;
#1201 = ORIENTED_EDGE ( 'NONE', *, *, #890, .F. ) ;
#1202 = EDGE_CURVE ( 'NONE', #512, #1091, #920, .T. ) ;
#1203 = VECTOR ( 'NONE', #237, 39.37007874015748143 ) ;
#1204 = DIRECTION ( 'NONE',  ( 0.000000000000000000, 0.000000000000000000, -1.000000000000000000 ) ) ;
#1205 = AXIS2_PLACEMENT_3D ( 'NONE', #1090, #922, #57 ) ;
#1206 = CARTESIAN_POINT ( 'NONE',  ( 0.6889763779527559029, 0.000000000000000000, -0.09842519685039372024 ) ) ;
#1207 = VERTEX_POINT ( 'NONE', #562 ) ;
#1208 = PLANE ( 'NONE',  #234 ) ;
#1209 = DIRECTION ( 'NONE',  ( -0.000000000000000000, -0.000000000000000000, 1.000000000000000000 ) ) ;
#1210 = DIRECTION ( 'NONE',  ( -0.000000000000000000, -1.000000000000000000, -0.000000000000000000 ) ) ;
#1211 = NEXT_ASSEMBLY_USAGE_OCCURRENCE ( 'NAUO1', ' ', ' ', #277, #60, $ ) ;
ENDSEC;
END-ISO-10303-21;
