ISO-10303-21;
HEADER;
FILE_DESCRIPTION (( 'STEP AP214' ),
    '1' );
FILE_NAME ('link_3_collision.stp',
    '2026-08-17T21:00:44',
    ( '' ),
    ( '' ),
    'SwSTEP 2.0',
    'SolidWorks 2025',
    '' );
FILE_SCHEMA (( 'AUTOMOTIVE_DESIGN' ));
ENDSEC;

DATA;
#1 = CARTESIAN_POINT ( 'NONE',  ( 0.000000000000000000, -0.8803417234251140755, 0.000000000000000000 ) ) ;
#2 = AXIS2_PLACEMENT_3D ( 'NONE', #71, #46, #125 ) ;
#3 = PRODUCT_DEFINITION ( 'UNKNOWN', '', #162, #48 ) ;
#4 =( GEOMETRIC_REPRESENTATION_CONTEXT ( 3 ) GLOBAL_UNCERTAINTY_ASSIGNED_CONTEXT ( ( #187 ) ) GLOBAL_UNIT_ASSIGNED_CONTEXT ( ( #33, #123, #9 ) ) REPRESENTATION_CONTEXT ( 'NONE', 'WORKASPACE' ) );
#5 = ORIENTED_EDGE ( 'NONE', *, *, #18, .F. ) ;
#6 = ORIENTED_EDGE ( 'NONE', *, *, #76, .F. ) ;
#7 = CARTESIAN_POINT ( 'NONE',  ( 0.000000000000000000, -0.8803417234251140755, 0.000000000000000000 ) ) ;
#8 = ORIENTED_EDGE ( 'NONE', *, *, #22, .T. ) ;
#9 =( NAMED_UNIT ( * ) SI_UNIT ( $, .STERADIAN. ) SOLID_ANGLE_UNIT ( ) );
#10 = DIRECTION ( 'NONE',  ( 0.000000000000000000, 0.000000000000000000, 1.000000000000000000 ) ) ;
#11 = ADVANCED_FACE ( 'NONE', ( #68 ), #30, .T. ) ;
#12 = AXIS2_PLACEMENT_3D ( 'NONE', #212, #57, #21 ) ;
#13 = FILL_AREA_STYLE ('',( #124 ) ) ;
#14 = APPLICATION_PROTOCOL_DEFINITION ( 'draft international standard', 'automotive_design', 1998, #58 ) ;
#15 =( CONVERSION_BASED_UNIT ( 'INCH', #231 ) LENGTH_UNIT ( ) NAMED_UNIT ( #56 ) );
#16 =( LENGTH_UNIT ( ) NAMED_UNIT ( * ) SI_UNIT ( $, .METRE. ) );
#17 = AXIS2_PLACEMENT_3D ( 'NONE', #100, #59, #38 ) ;
#18 = EDGE_CURVE ( 'NONE', #175, #83, #168, .T. ) ;
#19 = DIMENSIONAL_EXPONENTS ( 1.000000000000000000, 0.000000000000000000, 0.000000000000000000, 0.000000000000000000, 0.000000000000000000, 0.000000000000000000, 0.000000000000000000 ) ;
#20 = DIRECTION ( 'NONE',  ( 0.000000000000000000, 0.000000000000000000, -1.000000000000000000 ) ) ;
#21 = DIRECTION ( 'NONE',  ( 0.000000000000000000, 0.000000000000000000, -1.000000000000000000 ) ) ;
#22 = EDGE_CURVE ( 'NONE', #188, #221, #132, .T. ) ;
#23 = EDGE_LOOP ( 'NONE', ( #25, #108, #6, #5, #156 ) ) ;
#24 = PRODUCT_DEFINITION_CONTEXT ( 'detailed design', #58, 'design' ) ;
#25 = ORIENTED_EDGE ( 'NONE', *, *, #215, .T. ) ;
#26 = ORIENTED_EDGE ( 'NONE', *, *, #160, .T. ) ;
#27 = ORIENTED_EDGE ( 'NONE', *, *, #206, .F. ) ;
#28 = ORIENTED_EDGE ( 'NONE', *, *, #139, .T. ) ;
#29 = VECTOR ( 'NONE', #208, 39.37007874015748143 ) ;
#30 = SPHERICAL_SURFACE ( 'NONE', #2, 1.181102362204724310 ) ;
#31 = PLANE ( 'NONE',  #72 ) ;
#32 = APPLICATION_PROTOCOL_DEFINITION ( 'draft international standard', 'automotive_design', 1998, #217 ) ;
#33 =( CONVERSION_BASED_UNIT ( 'INCH', #161 ) LENGTH_UNIT ( ) NAMED_UNIT ( #19 ) );
#34 =( NAMED_UNIT ( * ) PLANE_ANGLE_UNIT ( ) SI_UNIT ( $, .RADIAN. ) );
#35 =( CONVERSION_BASED_UNIT ( 'INCH', #185 ) LENGTH_UNIT ( ) NAMED_UNIT ( #78 ) );
#36 =( LENGTH_UNIT ( ) NAMED_UNIT ( * ) SI_UNIT ( $, .METRE. ) );
#37 = CARTESIAN_POINT ( 'NONE',  ( 9.642888182262624280E-17, -0.8803417234251140755, 0.7874015748031496509 ) ) ;
#38 = DIRECTION ( 'NONE',  ( 0.000000000000000000, 0.000000000000000000, 1.000000000000000000 ) ) ;
#39 = SHAPE_REPRESENTATION ( 'ExampleBot-Ball', ( #69 ), #199 ) ;
#40 = DIRECTION ( 'NONE',  ( 0.000000000000000000, -1.000000000000000000, 0.000000000000000000 ) ) ;
#41 = AXIS2_PLACEMENT_3D ( 'NONE', #7, #223, #178 ) ;
#42 = ORIENTED_EDGE ( 'NONE', *, *, #177, .T. ) ;
#43 =( GEOMETRIC_REPRESENTATION_CONTEXT ( 3 ) GLOBAL_UNCERTAINTY_ASSIGNED_CONTEXT ( ( #201 ) ) GLOBAL_UNIT_ASSIGNED_CONTEXT ( ( #134, #34, #164 ) ) REPRESENTATION_CONTEXT ( 'NONE', 'WORKASPACE' ) );
#44 = FILL_AREA_STYLE_COLOUR ( '', #112 ) ;
#45 = PRODUCT_DEFINITION ( 'UNKNOWN', '', #169, #24 ) ;
#46 = DIRECTION ( 'NONE',  ( -0.000000000000000000, -0.000000000000000000, -1.000000000000000000 ) ) ;
#47 = PRODUCT ( 'ExampleBot-Ball', 'ExampleBot-Ball', '', ( #200 ) ) ;
#48 = PRODUCT_DEFINITION_CONTEXT ( 'detailed design', #87, 'design' ) ;
#49 = CARTESIAN_POINT ( 'NONE',  ( -3.008570915161353342E-15, -4.123796856901345143E-15, 1.181102362204725420 ) ) ;
#50 = DIRECTION ( 'NONE',  ( 0.000000000000000000, 0.000000000000000000, 1.000000000000000000 ) ) ;
#51 =( NAMED_UNIT ( * ) SI_UNIT ( $, .STERADIAN. ) SOLID_ANGLE_UNIT ( ) );
#52 = ADVANCED_FACE ( 'NONE', ( #158 ), #192, .T. ) ;
#53 = DIRECTION ( 'NONE',  ( 1.000000000000000000, 0.000000000000000000, 0.000000000000000000 ) ) ;
#54 = LINE ( 'NONE', #137, #97 ) ;
#55 = SHAPE_DEFINITION_REPRESENTATION ( #226, #39 ) ;
#56 = DIMENSIONAL_EXPONENTS ( 1.000000000000000000, 0.000000000000000000, 0.000000000000000000, 0.000000000000000000, 0.000000000000000000, 0.000000000000000000, 0.000000000000000000 ) ;
#57 = DIRECTION ( 'NONE',  ( 0.000000000000000000, -1.000000000000000000, 0.000000000000000000 ) ) ;
#58 = APPLICATION_CONTEXT ( 'automotive_design' ) ;
#59 = DIRECTION ( 'NONE',  ( 0.000000000000000000, 1.000000000000000000, 0.000000000000000000 ) ) ;
#60 = UNCERTAINTY_MEASURE_WITH_UNIT (LENGTH_MEASURE( 1.000000000000000082E-05 ), #35, 'distance_accuracy_value', 'NONE');
#61 = MECHANICAL_DESIGN_GEOMETRIC_PRESENTATION_REPRESENTATION (  '', ( #115 ), #4 ) ;
#62 = VERTEX_POINT ( 'NONE', #180 ) ;
#63 = ORIENTED_EDGE ( 'NONE', *, *, #177, .F. ) ;
#64 = SHAPE_REPRESENTATION ( 'link_3_collision', ( #121, #216 ), #43 ) ;
#65 = DIRECTION ( 'NONE',  ( -0.000000000000000000, -0.000000000000000000, -1.000000000000000000 ) ) ;
#66 = ADVANCED_FACE ( 'NONE', ( #88 ), #31, .F. ) ;
#67 = ORIENTED_EDGE ( 'NONE', *, *, #215, .F. ) ;
#68 = FACE_OUTER_BOUND ( 'NONE', #85, .T. ) ;
#69 = AXIS2_PLACEMENT_3D ( 'NONE', #150, #50, #195 ) ;
#70 = CARTESIAN_POINT ( 'NONE',  ( 0.7874015748031495399, -0.8803417234251140755, -9.642888182262624280E-17 ) ) ;
#71 = CARTESIAN_POINT ( 'NONE',  ( 0.000000000000000000, 0.000000000000000000, 0.000000000000000000 ) ) ;
#72 = AXIS2_PLACEMENT_3D ( 'NONE', #129, #194, #227 ) ;
#73 = SURFACE_SIDE_STYLE ('',( #228 ) ) ;
#74 = FACE_OUTER_BOUND ( 'NONE', #142, .T. ) ;
#75 = CIRCLE ( 'NONE', #232, 0.7874015748031496509 ) ;
#76 = EDGE_CURVE ( 'NONE', #83, #224, #210, .T. ) ;
#77 = CLOSED_SHELL ( 'NONE', ( #220, #11, #52, #145, #66 ) ) ;
#78 = DIMENSIONAL_EXPONENTS ( 1.000000000000000000, 0.000000000000000000, 0.000000000000000000, 0.000000000000000000, 0.000000000000000000, 0.000000000000000000, 0.000000000000000000 ) ;
#79 = APPLICATION_PROTOCOL_DEFINITION ( 'draft international standard', 'automotive_design', 1998, #87 ) ;
#80 =( NAMED_UNIT ( * ) PLANE_ANGLE_UNIT ( ) SI_UNIT ( $, .RADIAN. ) );
#81 = VERTEX_POINT ( 'NONE', #70 ) ;
#82 = CYLINDRICAL_SURFACE ( 'NONE', #204, 0.7874015748031496509 ) ;
#83 = VERTEX_POINT ( 'NONE', #111 ) ;
#84 = AXIS2_PLACEMENT_3D ( 'NONE', #202, #171, #117 ) ;
#85 = EDGE_LOOP ( 'NONE', ( #27, #28, #42, #120 ) ) ;
#86 = ORIENTED_EDGE ( 'NONE', *, *, #139, .F. ) ;
#87 = APPLICATION_CONTEXT ( 'automotive_design' ) ;
#88 = FACE_OUTER_BOUND ( 'NONE', #159, .T. ) ;
#89 = ADVANCED_BREP_SHAPE_REPRESENTATION ( '', ( #106, #69 ), #199 ) ;
#90 = SURFACE_SIDE_STYLE ('',( #146 ) ) ;
#91 = STYLED_ITEM ( 'NONE', ( #165 ), #89 ) ;
#92 = SURFACE_STYLE_USAGE ( .BOTH. , #90 ) ;
#93 = DIRECTION ( 'NONE',  ( 0.000000000000000000, 0.000000000000000000, 1.000000000000000000 ) ) ;
#94 =( NAMED_UNIT ( * ) PLANE_ANGLE_UNIT ( ) SI_UNIT ( $, .RADIAN. ) );
#95 = EDGE_CURVE ( 'NONE', #221, #175, #225, .T. ) ;
#96 = LENGTH_MEASURE_WITH_UNIT ( LENGTH_MEASURE( 0.02539999999999999897 ), #16 );
#97 = VECTOR ( 'NONE', #40, 39.37007874015748143 ) ;
#98 = AXIS2_PLACEMENT_3D ( 'NONE', #144, #190, #127 ) ;
#99 = CARTESIAN_POINT ( 'NONE',  ( 0.000000000000000000, -0.8803417234251140755, -0.7874015748031496509 ) ) ;
#100 = CARTESIAN_POINT ( 'NONE',  ( 0.000000000000000000, -0.8803417234251140755, 0.000000000000000000 ) ) ;
#101 = DIRECTION ( 'NONE',  ( 0.000000000000000000, 0.000000000000000000, 1.000000000000000000 ) ) ;
#102 = ORIENTED_EDGE ( 'NONE', *, *, #160, .F. ) ;
#103 = APPLICATION_CONTEXT ( 'automotive_design' ) ;
#104 = ORIENTED_EDGE ( 'NONE', *, *, #197, .F. ) ;
#105 = DIRECTION ( 'NONE',  ( 0.000000000000000000, 1.000000000000000000, 0.000000000000000000 ) ) ;
#106 = MANIFOLD_SOLID_BREP ( 'Cut-Extrude1', #77 ) ;
#107 =( LENGTH_UNIT ( ) NAMED_UNIT ( * ) SI_UNIT ( $, .METRE. ) );
#108 = ORIENTED_EDGE ( 'NONE', *, *, #197, .T. ) ;
#109 = PRESENTATION_LAYER_ASSIGNMENT (  '', '', ( #115 ) ) ;
#110 = DIRECTION ( 'NONE',  ( -1.000000000000000000, 0.000000000000000000, 0.000000000000000000 ) ) ;
#111 = CARTESIAN_POINT ( 'NONE',  ( -0.7874015748031495399, -0.8803417234251140755, 0.000000000000000000 ) ) ;
#112 = COLOUR_RGB ( '',0.5019607843137254832, 0.000000000000000000, 0.000000000000000000 ) ;
#113 = PRODUCT_RELATED_PRODUCT_CATEGORY ( 'part', '', ( #47 ) ) ;
#114 = PRODUCT_CONTEXT ( 'NONE', #217, 'mechanical' ) ;
#115 = STYLED_ITEM ( 'NONE', ( #189 ), #106 ) ;
#116 = FACE_OUTER_BOUND ( 'NONE', #23, .T. ) ;
#117 = DIRECTION ( 'NONE',  ( 1.000000000000000000, 0.000000000000000000, 0.000000000000000000 ) ) ;
#118 = CARTESIAN_POINT ( 'NONE',  ( 0.000000000000000000, -0.7874015748031495399, 0.000000000000000000 ) ) ;
#119 = PRODUCT_RELATED_PRODUCT_CATEGORY ( 'part', '', ( #229 ) ) ;
#120 = ORIENTED_EDGE ( 'NONE', *, *, #18, .T. ) ;
#121 = AXIS2_PLACEMENT_3D ( 'NONE', #151, #131, #198 ) ;
#122 = DIMENSIONAL_EXPONENTS ( 1.000000000000000000, 0.000000000000000000, 0.000000000000000000, 0.000000000000000000, 0.000000000000000000, 0.000000000000000000, 0.000000000000000000 ) ;
#123 =( NAMED_UNIT ( * ) PLANE_ANGLE_UNIT ( ) SI_UNIT ( $, .RADIAN. ) );
#124 = FILL_AREA_STYLE_COLOUR ( '', #140 ) ;
#125 = DIRECTION ( 'NONE',  ( -1.000000000000000000, 0.000000000000000000, 0.000000000000000000 ) ) ;
#126 = AXIS2_PLACEMENT_3D ( 'NONE', #230, #214, #135 ) ;
#127 = DIRECTION ( 'NONE',  ( 0.000000000000000000, 0.000000000000000000, 1.000000000000000000 ) ) ;
#128 = AXIS2_PLACEMENT_3D ( 'NONE', #163, #105, #10 ) ;
#129 = CARTESIAN_POINT ( 'NONE',  ( 0.000000000000000000, -0.7874015748031495399, 0.000000000000000000 ) ) ;
#130 = DIRECTION ( 'NONE',  ( -1.224646799147353207E-16, 0.000000000000000000, -1.000000000000000000 ) ) ;
#131 = DIRECTION ( 'NONE',  ( 0.000000000000000000, 0.000000000000000000, 1.000000000000000000 ) ) ;
#132 = CIRCLE ( 'NONE', #128, 0.7874015748031496509 ) ;
#133 = MECHANICAL_DESIGN_GEOMETRIC_PRESENTATION_REPRESENTATION (  '', ( #91 ), #181 ) ;
#134 =( CONVERSION_BASED_UNIT ( 'INCH', #96 ) LENGTH_UNIT ( ) NAMED_UNIT ( #122 ) );
#135 = DIRECTION ( 'NONE',  ( 0.000000000000000000, 0.000000000000000000, 1.000000000000000000 ) ) ;
#136 = ITEM_DEFINED_TRANSFORMATION ( 'NONE', 'NONE', #216,  #69 ) ;
#137 = CARTESIAN_POINT ( 'NONE',  ( 9.642888182262624280E-17, -0.7874015748031495399, 0.7874015748031496509 ) ) ;
#138 = CARTESIAN_POINT ( 'NONE',  ( 0.000000000000000000, -0.7874015748031495399, -0.7874015748031496509 ) ) ;
#139 = EDGE_CURVE ( 'NONE', #62, #81, #166, .T. ) ;
#140 = COLOUR_RGB ( '',0.5019607843137254832, 0.000000000000000000, 0.000000000000000000 ) ;
#141 = AXIS2_PLACEMENT_3D ( 'NONE', #184, #93, #53 ) ;
#142 = EDGE_LOOP ( 'NONE', ( #104, #8, #174, #63, #102 ) ) ;
#143 = CARTESIAN_POINT ( 'NONE',  ( 0.000000000000000000, -0.7874015748031495399, -0.7874015748031496509 ) ) ;
#144 = CARTESIAN_POINT ( 'NONE',  ( 0.000000000000000000, -0.8803417234251140755, 0.000000000000000000 ) ) ;
#145 = ADVANCED_FACE ( 'NONE', ( #74 ), #82, .F. ) ;
#146 = SURFACE_STYLE_FILL_AREA ( #13 ) ;
#147 = CIRCLE ( 'NONE', #126, 0.7874015748031496509 ) ;
#148 = CARTESIAN_POINT ( 'NONE',  ( 0.000000000000000000, 0.000000000000000000, 0.000000000000000000 ) ) ;
#149 = DIRECTION ( 'NONE',  ( 1.000000000000000000, 0.000000000000000000, 0.000000000000000000 ) ) ;
#150 = CARTESIAN_POINT ( 'NONE',  ( 0.000000000000000000, 0.000000000000000000, 0.000000000000000000 ) ) ;
#151 = CARTESIAN_POINT ( 'NONE',  ( 0.000000000000000000, 0.000000000000000000, 0.000000000000000000 ) ) ;
#152 = DIRECTION ( 'NONE',  ( 0.000000000000000000, 1.000000000000000000, 0.000000000000000000 ) ) ;
#153 = SHAPE_REPRESENTATION_RELATIONSHIP ( 'NONE' , 'NONE' ,  #39, #89 ) ;
#154 = CARTESIAN_POINT ( 'NONE',  ( 9.642888182262624280E-17, -0.7874015748031495399, 0.7874015748031496509 ) ) ;
#155 = DIRECTION ( 'NONE',  ( 0.000000000000000000, -1.000000000000000000, 0.000000000000000000 ) ) ;
#156 = ORIENTED_EDGE ( 'NONE', *, *, #95, .F. ) ;
#157 = ORIENTED_EDGE ( 'NONE', *, *, #22, .F. ) ;
#158 = FACE_OUTER_BOUND ( 'NONE', #209, .T. ) ;
#159 = EDGE_LOOP ( 'NONE', ( #67, #157 ) ) ;
#160 = EDGE_CURVE ( 'NONE', #224, #81, #75, .T. ) ;
#161 = LENGTH_MEASURE_WITH_UNIT ( LENGTH_MEASURE( 0.02539999999999999897 ), #107 );
#162 = PRODUCT_DEFINITION_FORMATION_WITH_SPECIFIED_SOURCE ( 'ANY', '', #47, .NOT_KNOWN. ) ;
#163 = CARTESIAN_POINT ( 'NONE',  ( 0.000000000000000000, -0.7874015748031495399, 0.000000000000000000 ) ) ;
#164 =( NAMED_UNIT ( * ) SI_UNIT ( $, .STERADIAN. ) SOLID_ANGLE_UNIT ( ) );
#165 = PRESENTATION_STYLE_ASSIGNMENT (( #213 ) ) ;
#166 = CIRCLE ( 'NONE', #183, 1.181102362204724310 ) ;
#167 = SHAPE_DEFINITION_REPRESENTATION ( #193, #64 ) ;
#168 = CIRCLE ( 'NONE', #98, 0.7874015748031496509 ) ;
#169 = PRODUCT_DEFINITION_FORMATION_WITH_SPECIFIED_SOURCE ( 'ANY', '', #229, .NOT_KNOWN. ) ;
#170 = APPLICATION_PROTOCOL_DEFINITION ( 'draft international standard', 'automotive_design', 1998, #103 ) ;
#171 = DIRECTION ( 'NONE',  ( -0.000000000000000000, 0.000000000000000000, 1.000000000000000000 ) ) ;
#172 = CONTEXT_DEPENDENT_SHAPE_REPRESENTATION ( #211, #179 ) ;
#173 = PRESENTATION_LAYER_ASSIGNMENT (  '', '', ( #91 ) ) ;
#174 = ORIENTED_EDGE ( 'NONE', *, *, #95, .T. ) ;
#175 = VERTEX_POINT ( 'NONE', #99 ) ;
#176 = ORIENTED_EDGE ( 'NONE', *, *, #76, .T. ) ;
#177 = EDGE_CURVE ( 'NONE', #81, #175, #191, .T. ) ;
#178 = DIRECTION ( 'NONE',  ( 0.000000000000000000, 0.000000000000000000, 1.000000000000000000 ) ) ;
#179 = PRODUCT_DEFINITION_SHAPE ( 'NONE', 'NONE',  #235 ) ;
#180 = CARTESIAN_POINT ( 'NONE',  ( -7.232166136696967594E-17, 1.181102362204724310, 0.000000000000000000 ) ) ;
#181 =( GEOMETRIC_REPRESENTATION_CONTEXT ( 3 ) GLOBAL_UNCERTAINTY_ASSIGNED_CONTEXT ( ( #205 ) ) GLOBAL_UNIT_ASSIGNED_CONTEXT ( ( #15, #94, #51 ) ) REPRESENTATION_CONTEXT ( 'NONE', 'WORKASPACE' ) );
#182 = DIRECTION ( 'NONE',  ( 0.000000000000000000, -1.000000000000000000, -3.491481338843133355E-15 ) ) ;
#183 = AXIS2_PLACEMENT_3D ( 'NONE', #203, #130, #218 ) ;
#184 = CARTESIAN_POINT ( 'NONE',  ( 0.000000000000000000, 0.000000000000000000, 0.000000000000000000 ) ) ;
#185 = LENGTH_MEASURE_WITH_UNIT ( LENGTH_MEASURE( 0.02539999999999999897 ), #186 );
#186 =( LENGTH_UNIT ( ) NAMED_UNIT ( * ) SI_UNIT ( $, .METRE. ) );
#187 = UNCERTAINTY_MEASURE_WITH_UNIT (LENGTH_MEASURE( 1.000000000000000082E-05 ), #33, 'distance_accuracy_value', 'NONE');
#188 = VERTEX_POINT ( 'NONE', #154 ) ;
#189 = PRESENTATION_STYLE_ASSIGNMENT (( #92 ) ) ;
#190 = DIRECTION ( 'NONE',  ( 0.000000000000000000, 1.000000000000000000, 0.000000000000000000 ) ) ;
#191 = CIRCLE ( 'NONE', #17, 0.7874015748031496509 ) ;
#192 = SPHERICAL_SURFACE ( 'NONE', #233, 1.181102362204724310 ) ;
#193 = PRODUCT_DEFINITION_SHAPE ( 'NONE', 'NONE',  #45 ) ;
#194 = DIRECTION ( 'NONE',  ( 0.000000000000000000, 1.000000000000000000, 0.000000000000000000 ) ) ;
#195 = DIRECTION ( 'NONE',  ( 1.000000000000000000, 0.000000000000000000, 0.000000000000000000 ) ) ;
#196 = FILL_AREA_STYLE ('',( #44 ) ) ;
#197 = EDGE_CURVE ( 'NONE', #188, #224, #54, .T. ) ;
#198 = DIRECTION ( 'NONE',  ( 1.000000000000000000, 0.000000000000000000, 0.000000000000000000 ) ) ;
#199 =( GEOMETRIC_REPRESENTATION_CONTEXT ( 3 ) GLOBAL_UNCERTAINTY_ASSIGNED_CONTEXT ( ( #60 ) ) GLOBAL_UNIT_ASSIGNED_CONTEXT ( ( #35, #80, #219 ) ) REPRESENTATION_CONTEXT ( 'NONE', 'WORKASPACE' ) );
#200 = PRODUCT_CONTEXT ( 'NONE', #103, 'mechanical' ) ;
#201 = UNCERTAINTY_MEASURE_WITH_UNIT (LENGTH_MEASURE( 1.000000000000000082E-05 ), #134, 'distance_accuracy_value', 'NONE');
#202 = CARTESIAN_POINT ( 'NONE',  ( 0.000000000000000000, 0.000000000000000000, 0.000000000000000000 ) ) ;
#203 = CARTESIAN_POINT ( 'NONE',  ( 0.000000000000000000, 0.000000000000000000, 0.000000000000000000 ) ) ;
#204 = AXIS2_PLACEMENT_3D ( 'NONE', #118, #155, #20 ) ;
#205 = UNCERTAINTY_MEASURE_WITH_UNIT (LENGTH_MEASURE( 1.000000000000000082E-05 ), #15, 'distance_accuracy_value', 'NONE');
#206 = EDGE_CURVE ( 'NONE', #62, #83, #222, .T. ) ;
#207 = ORIENTED_EDGE ( 'NONE', *, *, #206, .T. ) ;
#208 = DIRECTION ( 'NONE',  ( 0.000000000000000000, -1.000000000000000000, 0.000000000000000000 ) ) ;
#209 = EDGE_LOOP ( 'NONE', ( #86, #207, #176, #26 ) ) ;
#210 = CIRCLE ( 'NONE', #41, 0.7874015748031496509 ) ;
#211 =( REPRESENTATION_RELATIONSHIP ('NONE','NONE', #64, #39 ) REPRESENTATION_RELATIONSHIP_WITH_TRANSFORMATION ( #136 )SHAPE_REPRESENTATION_RELATIONSHIP( ) );
#212 = CARTESIAN_POINT ( 'NONE',  ( 0.000000000000000000, -0.7874015748031495399, 0.000000000000000000 ) ) ;
#213 = SURFACE_STYLE_USAGE ( .BOTH. , #73 ) ;
#214 = DIRECTION ( 'NONE',  ( 0.000000000000000000, 1.000000000000000000, 0.000000000000000000 ) ) ;
#215 = EDGE_CURVE ( 'NONE', #221, #188, #147, .T. ) ;
#216 = AXIS2_PLACEMENT_3D ( 'NONE', #49, #182, #149 ) ;
#217 = APPLICATION_CONTEXT ( 'automotive_design' ) ;
#218 = DIRECTION ( 'NONE',  ( -1.000000000000000000, 0.000000000000000000, 1.224646799147353207E-16 ) ) ;
#219 =( NAMED_UNIT ( * ) SI_UNIT ( $, .STERADIAN. ) SOLID_ANGLE_UNIT ( ) );
#220 = ADVANCED_FACE ( 'NONE', ( #116 ), #234, .F. ) ;
#221 = VERTEX_POINT ( 'NONE', #138 ) ;
#222 = CIRCLE ( 'NONE', #84, 1.181102362204724310 ) ;
#223 = DIRECTION ( 'NONE',  ( 0.000000000000000000, 1.000000000000000000, 0.000000000000000000 ) ) ;
#224 = VERTEX_POINT ( 'NONE', #37 ) ;
#225 = LINE ( 'NONE', #143, #29 ) ;
#226 = PRODUCT_DEFINITION_SHAPE ( 'NONE', 'NONE',  #3 ) ;
#227 = DIRECTION ( 'NONE',  ( 0.000000000000000000, -0.000000000000000000, 1.000000000000000000 ) ) ;
#228 = SURFACE_STYLE_FILL_AREA ( #196 ) ;
#229 = PRODUCT ( 'link_3_collision', 'link_3_collision', '', ( #114 ) ) ;
#230 = CARTESIAN_POINT ( 'NONE',  ( 0.000000000000000000, -0.7874015748031495399, 0.000000000000000000 ) ) ;
#231 = LENGTH_MEASURE_WITH_UNIT ( LENGTH_MEASURE( 0.02539999999999999897 ), #36 );
#232 = AXIS2_PLACEMENT_3D ( 'NONE', #1, #152, #101 ) ;
#233 = AXIS2_PLACEMENT_3D ( 'NONE', #148, #65, #110 ) ;
#234 = CYLINDRICAL_SURFACE ( 'NONE', #12, 0.7874015748031496509 ) ;
#235 = NEXT_ASSEMBLY_USAGE_OCCURRENCE ( 'NAUO1', ' ', ' ', #45, #3, $ ) ;
ENDSEC;
END-ISO-10303-21;
