ISO-10303-21;
HEADER;
FILE_DESCRIPTION (( 'STEP AP214' ),
    '1' );
FILE_NAME ('link_2_collision.stp',
    '2026-08-17T21:00:43',
    ( '' ),
    ( '' ),
    'SwSTEP 2.0',
    'SolidWorks 2025',
    '' );
FILE_SCHEMA (( 'AUTOMOTIVE_DESIGN' ));
ENDSEC;

DATA;
#1 = MECHANICAL_DESIGN_GEOMETRIC_PRESENTATION_REPRESENTATION (  '', ( #348 ), #912 ) ;
#2 = DIRECTION ( 'NONE',  ( 1.000000000000000000, 0.000000000000000000, 0.000000000000000000 ) ) ;
#3 = DIRECTION ( 'NONE',  ( 1.000000000000000000, 0.000000000000000000, 0.000000000000000000 ) ) ;
#4 = VECTOR ( 'NONE', #749, 39.37007874015748143 ) ;
#5 = ORIENTED_EDGE ( 'NONE', *, *, #497, .T. ) ;
#6 = DIRECTION ( 'NONE',  ( -0.000000000000000000, -0.000000000000000000, 1.000000000000000000 ) ) ;
#7 = CYLINDRICAL_SURFACE ( 'NONE', #370, 0.09842519685039365085 ) ;
#8 = CIRCLE ( 'NONE', #542, 0.09842519685039372024 ) ;
#9 = EDGE_CURVE ( 'NONE', #429, #556, #975, .T. ) ;
#10 = ORIENTED_EDGE ( 'NONE', *, *, #814, .F. ) ;
#11 = CYLINDRICAL_SURFACE ( 'NONE', #223, 0.2952755905511810774 ) ;
#12 = DIRECTION ( 'NONE',  ( 0.000000000000000000, 0.000000000000000000, -1.000000000000000000 ) ) ;
#13 = DIRECTION ( 'NONE',  ( 0.000000000000000000, -1.000000000000000000, 0.000000000000000000 ) ) ;
#14 = ADVANCED_FACE ( 'NONE', ( #613 ), #905, .F. ) ;
#15 = VERTEX_POINT ( 'NONE', #688 ) ;
#16 = DIRECTION ( 'NONE',  ( 0.000000000000000000, 0.000000000000000000, -1.000000000000000000 ) ) ;
#17 = VERTEX_POINT ( 'NONE', #910 ) ;
#18 = ORIENTED_EDGE ( 'NONE', *, *, #888, .F. ) ;
#19 = AXIS2_PLACEMENT_3D ( 'NONE', #129, #225, #582 ) ;
#20 = DIRECTION ( 'NONE',  ( -1.000000000000000000, 0.000000000000000000, 0.000000000000000000 ) ) ;
#21 = ORIENTED_EDGE ( 'NONE', *, *, #75, .F. ) ;
#22 = TOROIDAL_SURFACE ( 'NONE', #720, 0.1968503937007874127, 0.09842519685039370636 ) ;
#23 = CARTESIAN_POINT ( 'NONE',  ( 0.4921259842519684624, 7.775590551181102761, 0.2952755905511810774 ) ) ;
#24 = SURFACE_STYLE_USAGE ( .BOTH. , #719 ) ;
#25 = DIRECTION ( 'NONE',  ( -0.000000000000000000, -0.000000000000000000, 1.000000000000000000 ) ) ;
#26 = EDGE_CURVE ( 'NONE', #712, #423, #238, .T. ) ;
#27 = EDGE_LOOP ( 'NONE', ( #430, #144 ) ) ;
#28 = CARTESIAN_POINT ( 'NONE',  ( 0.000000000000000000, 0.000000000000000000, -0.3937007874015748254 ) ) ;
#29 = AXIS2_PLACEMENT_3D ( 'NONE', #531, #549, #159 ) ;
#30 = ADVANCED_FACE ( 'NONE', ( #536 ), #838, .T. ) ;
#31 = ADVANCED_FACE ( 'NONE', ( #76 ), #392, .T. ) ;
#32 = CARTESIAN_POINT ( 'NONE',  ( -0.4921259842519712935, 7.775590551181102761, -0.2952755905511810774 ) ) ;
#33 = DIRECTION ( 'NONE',  ( 0.000000000000000000, -1.000000000000000000, -1.836970198721028701E-16 ) ) ;
#34 = CIRCLE ( 'NONE', #318, 0.09842519685039372024 ) ;
#35 = CARTESIAN_POINT ( 'NONE',  ( 0.5905511811023621549, 2.169649841009090155E-16, 0.2952755905511810774 ) ) ;
#36 = CYLINDRICAL_SURFACE ( 'NONE', #154, 0.2952755905511810774 ) ;
#37 = EDGE_CURVE ( 'NONE', #351, #722, #683, .T. ) ;
#38 = ORIENTED_EDGE ( 'NONE', *, *, #533, .F. ) ;
#39 = CARTESIAN_POINT ( 'NONE',  ( -0.4921259842519684624, -1.792775245842172799E-16, 0.3937007874015748254 ) ) ;
#40 = DIRECTION ( 'NONE',  ( 1.000000000000000000, 0.000000000000000000, 0.000000000000000000 ) ) ;
#41 = ORIENTED_EDGE ( 'NONE', *, *, #58, .F. ) ;
#42 = DIRECTION ( 'NONE',  ( 0.000000000000000000, 0.000000000000000000, 1.000000000000000000 ) ) ;
#43 = ORIENTED_EDGE ( 'NONE', *, *, #297, .F. ) ;
#44 = DIRECTION ( 'NONE',  ( 0.000000000000000000, -1.000000000000000000, 0.000000000000000000 ) ) ;
#45 = FACE_BOUND ( 'NONE', #855, .T. ) ;
#46 = CIRCLE ( 'NONE', #313, 0.5905511811023621549 ) ;
#47 = VERTEX_POINT ( 'NONE', #35 ) ;
#48 = AXIS2_PLACEMENT_3D ( 'NONE', #602, #900, #228 ) ;
#49 = CARTESIAN_POINT ( 'NONE',  ( -0.5905511811023621549, 0.000000000000000000, 0.3937007874015748254 ) ) ;
#50 = PRODUCT_DEFINITION_FORMATION_WITH_SPECIFIED_SOURCE ( 'ANY', '', #554, .NOT_KNOWN. ) ;
#51 = DIRECTION ( 'NONE',  ( 0.000000000000000000, 0.000000000000000000, -1.000000000000000000 ) ) ;
#52 = VERTEX_POINT ( 'NONE', #951 ) ;
#53 = AXIS2_PLACEMENT_3D ( 'NONE', #156, #236, #927 ) ;
#54 = CYLINDRICAL_SURFACE ( 'NONE', #226, 0.7874015748031496509 ) ;
#55 =( NAMED_UNIT ( * ) SI_UNIT ( $, .STERADIAN. ) SOLID_ANGLE_UNIT ( ) );
#56 = FACE_OUTER_BOUND ( 'NONE', #91, .T. ) ;
#57 = CARTESIAN_POINT ( 'NONE',  ( 0.000000000000000000, 7.775590551181102761, 0.4921259842519685179 ) ) ;
#58 = EDGE_CURVE ( 'NONE', #87, #460, #759, .T. ) ;
#59 = DIRECTION ( 'NONE',  ( 0.000000000000000000, 0.000000000000000000, 1.000000000000000000 ) ) ;
#60 = LINE ( 'NONE', #889, #619 ) ;
#61 = ORIENTED_EDGE ( 'NONE', *, *, #731, .F. ) ;
#62 = CARTESIAN_POINT ( 'NONE',  ( -0.5905511811023627100, 0.9842519685039370358, 0.1968503937007874127 ) ) ;
#63 = TOROIDAL_SURFACE ( 'NONE', #787, 0.1968503937007874127, 0.09842519685039370636 ) ;
#64 = CARTESIAN_POINT ( 'NONE',  ( 0.5905511811023621549, 7.775590551181102761, 0.2952755905511810774 ) ) ;
#65 = VECTOR ( 'NONE', #959, 39.37007874015748143 ) ;
#66 = AXIS2_PLACEMENT_3D ( 'NONE', #194, #746, #355 ) ;
#67 = ORIENTED_EDGE ( 'NONE', *, *, #234, .T. ) ;
#68 = EDGE_LOOP ( 'NONE', ( #10, #527 ) ) ;
#69 =( CONVERSION_BASED_UNIT ( 'INCH', #294 ) LENGTH_UNIT ( ) NAMED_UNIT ( #570 ) );
#70 = VECTOR ( 'NONE', #199, 39.37007874015748143 ) ;
#71 = CARTESIAN_POINT ( 'NONE',  ( -0.6889763779527586784, 7.775590551181102761, 0.2952755905511810774 ) ) ;
#72 = DIRECTION ( 'NONE',  ( 0.000000000000000000, -0.000000000000000000, 1.000000000000000000 ) ) ;
#73 = ORIENTED_EDGE ( 'NONE', *, *, #368, .F. ) ;
#74 = EDGE_CURVE ( 'NONE', #519, #242, #432, .T. ) ;
#75 = EDGE_CURVE ( 'NONE', #687, #642, #803, .T. ) ;
#76 = FACE_OUTER_BOUND ( 'NONE', #100, .T. ) ;
#77 = LINE ( 'NONE', #839, #266 ) ;
#78 = CARTESIAN_POINT ( 'NONE',  ( -0.5905511811023650415, 7.775590551181102761, 0.3937007874015748254 ) ) ;
#79 = CARTESIAN_POINT ( 'NONE',  ( -0.5905511811023650415, 7.775590551181102761, 0.2952755905511810774 ) ) ;
#80 = VECTOR ( 'NONE', #149, 39.37007874015748143 ) ;
#81 = ORIENTED_EDGE ( 'NONE', *, *, #676, .F. ) ;
#82 = LINE ( 'NONE', #772, #943 ) ;
#83 = CARTESIAN_POINT ( 'NONE',  ( 0.6889763779527559029, 7.775590551181102761, 0.000000000000000000 ) ) ;
#84 = EDGE_CURVE ( 'NONE', #885, #872, #279, .T. ) ;
#85 = CIRCLE ( 'NONE', #653, 0.09842519685039372024 ) ;
#86 = ADVANCED_FACE ( 'NONE', ( #173 ), #11, .F. ) ;
#87 = VERTEX_POINT ( 'NONE', #288 ) ;
#88 = DIRECTION ( 'NONE',  ( -0.000000000000000000, 0.000000000000000000, 1.000000000000000000 ) ) ;
#89 = DIRECTION ( 'NONE',  ( 1.000000000000000000, 0.000000000000000000, 0.000000000000000000 ) ) ;
#90 = EDGE_CURVE ( 'NONE', #446, #647, #576, .T. ) ;
#91 = EDGE_LOOP ( 'NONE', ( #523, #618, #417, #736 ) ) ;
#92 = DIRECTION ( 'NONE',  ( 1.000000000000000000, 0.000000000000000000, 0.000000000000000000 ) ) ;
#93 = EDGE_CURVE ( 'NONE', #885, #242, #639, .T. ) ;
#94 = FACE_OUTER_BOUND ( 'NONE', #224, .T. ) ;
#95 = PRODUCT ( 'ExampleBot-Link2', 'ExampleBot-Link2', '', ( #133 ) ) ;
#96 = ORIENTED_EDGE ( 'NONE', *, *, #273, .T. ) ;
#97 = ORIENTED_EDGE ( 'NONE', *, *, #497, .F. ) ;
#98 =( CONVERSION_BASED_UNIT ( 'INCH', #859 ) LENGTH_UNIT ( ) NAMED_UNIT ( #490 ) );
#99 = DIRECTION ( 'NONE',  ( -0.000000000000000000, 0.000000000000000000, 1.000000000000000000 ) ) ;
#100 = EDGE_LOOP ( 'NONE', ( #282, #709, #504, #747 ) ) ;
#101 = AXIS2_PLACEMENT_3D ( 'NONE', #820, #815, #526 ) ;
#102 = FACE_OUTER_BOUND ( 'NONE', #489, .T. ) ;
#103 =( CONVERSION_BASED_UNIT ( 'INCH', #328 ) LENGTH_UNIT ( ) NAMED_UNIT ( #561 ) );
#104 = EDGE_CURVE ( 'NONE', #281, #423, #462, .T. ) ;
#105 = CYLINDRICAL_SURFACE ( 'NONE', #292, 0.2952755905511810774 ) ;
#106 = EDGE_LOOP ( 'NONE', ( #251, #43, #257, #612 ) ) ;
#107 = VECTOR ( 'NONE', #735, 39.37007874015748143 ) ;
#108 = PLANE ( 'NONE',  #467 ) ;
#109 = EDGE_CURVE ( 'NONE', #47, #885, #586, .T. ) ;
#110 = DIRECTION ( 'NONE',  ( 1.000000000000000000, 0.000000000000000000, 0.000000000000000000 ) ) ;
#111 = CARTESIAN_POINT ( 'NONE',  ( 0.000000000000000000, 0.000000000000000000, 0.3937007874015748254 ) ) ;
#112 = EDGE_CURVE ( 'NONE', #556, #669, #819, .T. ) ;
#113 = CARTESIAN_POINT ( 'NONE',  ( -0.4921259842519712935, 7.775590551181102761, -0.3937007874015748254 ) ) ;
#114 = ORIENTED_EDGE ( 'NONE', *, *, #273, .F. ) ;
#115 = SHAPE_REPRESENTATION ( 'link_2_collision', ( #641, #66 ), #901 ) ;
#116 = ORIENTED_EDGE ( 'NONE', *, *, #301, .F. ) ;
#117 = DIRECTION ( 'NONE',  ( 1.000000000000000000, 0.000000000000000000, 0.000000000000000000 ) ) ;
#118 = AXIS2_PLACEMENT_3D ( 'NONE', #353, #670, #656 ) ;
#119 = EDGE_CURVE ( 'NONE', #722, #486, #85, .T. ) ;
#120 = DIRECTION ( 'NONE',  ( 1.000000000000000000, 0.000000000000000000, 0.000000000000000000 ) ) ;
#121 = ORIENTED_EDGE ( 'NONE', *, *, #929, .T. ) ;
#122 = VERTEX_POINT ( 'NONE', #879 ) ;
#123 = CARTESIAN_POINT ( 'NONE',  ( 0.000000000000000000, 8.267716535433072167, -0.7874015748031496509 ) ) ;
#124 = EDGE_CURVE ( 'NONE', #831, #861, #435, .T. ) ;
#125 = CARTESIAN_POINT ( 'NONE',  ( -0.6889763779527586784, 7.775590551181102761, 0.3937007874015748254 ) ) ;
#126 = ORIENTED_EDGE ( 'NONE', *, *, #397, .T. ) ;
#127 = ORIENTED_EDGE ( 'NONE', *, *, #220, .F. ) ;
#128 = VECTOR ( 'NONE', #425, 39.37007874015748143 ) ;
#129 = CARTESIAN_POINT ( 'NONE',  ( 0.4921259842519684624, 7.874015748031496287, 0.2952755905511810774 ) ) ;
#130 = CARTESIAN_POINT ( 'NONE',  ( 0.2952755905511810774, 0.000000000000000000, -0.3937007874015748254 ) ) ;
#131 = ORIENTED_EDGE ( 'NONE', *, *, #9, .F. ) ;
#132 = PRESENTATION_LAYER_ASSIGNMENT (  '', '', ( #348 ) ) ;
#133 = PRODUCT_CONTEXT ( 'NONE', #716, 'mechanical' ) ;
#134 = ORIENTED_EDGE ( 'NONE', *, *, #376, .F. ) ;
#135 = CARTESIAN_POINT ( 'NONE',  ( -0.4921259842519712935, 7.775590551181102761, -0.4921259842519685179 ) ) ;
#136 = EDGE_CURVE ( 'NONE', #810, #519, #34, .T. ) ;
#137 = VECTOR ( 'NONE', #141, 39.37007874015748143 ) ;
#138 = DIRECTION ( 'NONE',  ( -0.000000000000000000, -0.000000000000000000, -1.000000000000000000 ) ) ;
#139 = PRODUCT_RELATED_PRODUCT_CATEGORY ( 'part', '', ( #554 ) ) ;
#140 = VECTOR ( 'NONE', #317, 39.37007874015748143 ) ;
#141 = DIRECTION ( 'NONE',  ( -1.000000000000000000, -0.000000000000000000, -0.000000000000000000 ) ) ;
#142 = CYLINDRICAL_SURFACE ( 'NONE', #492, 0.09842519685039372024 ) ;
#143 = DIRECTION ( 'NONE',  ( -1.000000000000000000, 0.000000000000000000, 0.000000000000000000 ) ) ;
#144 = ORIENTED_EDGE ( 'NONE', *, *, #540, .F. ) ;
#145 = DIRECTION ( 'NONE',  ( -1.000000000000000000, 0.000000000000000000, 0.000000000000000000 ) ) ;
#146 = DIRECTION ( 'NONE',  ( 0.000000000000000000, 0.000000000000000000, 1.000000000000000000 ) ) ;
#147 = DIRECTION ( 'NONE',  ( 0.000000000000000000, 0.000000000000000000, 1.000000000000000000 ) ) ;
#148 = AXIS2_PLACEMENT_3D ( 'NONE', #380, #295, #808 ) ;
#149 = DIRECTION ( 'NONE',  ( 0.000000000000000000, 0.000000000000000000, -1.000000000000000000 ) ) ;
#150 = CARTESIAN_POINT ( 'NONE',  ( 0.000000000000000000, 0.000000000000000000, -0.1968503937007874127 ) ) ;
#151 = ORIENTED_EDGE ( 'NONE', *, *, #112, .F. ) ;
#152 = CARTESIAN_POINT ( 'NONE',  ( 0.000000000000000000, 1.084824920504545077E-16, 0.3937007874015748254 ) ) ;
#153 = DIRECTION ( 'NONE',  ( 3.642919299551295391E-16, -1.000000000000000000, -0.000000000000000000 ) ) ;
#154 = AXIS2_PLACEMENT_3D ( 'NONE', #28, #723, #346 ) ;
#155 = DIRECTION ( 'NONE',  ( 0.000000000000000000, 0.000000000000000000, 1.000000000000000000 ) ) ;
#156 = CARTESIAN_POINT ( 'NONE',  ( 0.4921259842519684624, 0.000000000000000000, 0.2952755905511810774 ) ) ;
#157 = EDGE_LOOP ( 'NONE', ( #780, #243, #356, #918 ) ) ;
#158 = ORIENTED_EDGE ( 'NONE', *, *, #473, .F. ) ;
#159 = DIRECTION ( 'NONE',  ( -1.000000000000000000, 0.000000000000000000, 0.000000000000000000 ) ) ;
#160 = DIRECTION ( 'NONE',  ( 0.000000000000000000, 0.000000000000000000, -1.000000000000000000 ) ) ;
#161 = ORIENTED_EDGE ( 'NONE', *, *, #848, .F. ) ;
#162 = DIRECTION ( 'NONE',  ( 1.000000000000000000, 0.000000000000000000, 0.000000000000000000 ) ) ;
#163 = DIRECTION ( 'NONE',  ( -0.000000000000000000, -0.000000000000000000, 1.000000000000000000 ) ) ;
#164 = DIRECTION ( 'NONE',  ( 0.000000000000000000, -0.000000000000000000, 1.000000000000000000 ) ) ;
#165 = AXIS2_PLACEMENT_3D ( 'NONE', #979, #458, #240 ) ;
#166 = PRODUCT_DEFINITION_SHAPE ( 'NONE', 'NONE',  #991 ) ;
#167 = AXIS2_PLACEMENT_3D ( 'NONE', #387, #752, #146 ) ;
#168 =( REPRESENTATION_RELATIONSHIP ('NONE','NONE', #115, #404 ) REPRESENTATION_RELATIONSHIP_WITH_TRANSFORMATION ( #798 )SHAPE_REPRESENTATION_RELATIONSHIP( ) );
#169 = ORIENTED_EDGE ( 'NONE', *, *, #284, .F. ) ;
#170 = DIRECTION ( 'NONE',  ( 3.642919299551295391E-16, -1.000000000000000000, 0.000000000000000000 ) ) ;
#171 = CARTESIAN_POINT ( 'NONE',  ( 0.000000000000000000, 1.084824920504545077E-16, -0.3937007874015748254 ) ) ;
#172 = VERTEX_POINT ( 'NONE', #661 ) ;
#173 = FACE_OUTER_BOUND ( 'NONE', #776, .T. ) ;
#174 = CARTESIAN_POINT ( 'NONE',  ( 0.000000000000000000, 0.000000000000000000, -0.3937007874015748254 ) ) ;
#175 = ORIENTED_EDGE ( 'NONE', *, *, #90, .T. ) ;
#176 = EDGE_CURVE ( 'NONE', #831, #15, #212, .T. ) ;
#177 = CARTESIAN_POINT ( 'NONE',  ( -0.2952755905511810774, 3.616083068348483797E-17, 0.3937007874015748254 ) ) ;
#178 = CARTESIAN_POINT ( 'NONE',  ( -0.2952755905511810774, 3.616083068348483797E-17, -0.1968503937007874127 ) ) ;
#179 = AXIS2_PLACEMENT_3D ( 'NONE', #681, #298, #906 ) ;
#180 = ORIENTED_EDGE ( 'NONE', *, *, #58, .T. ) ;
#181 = ADVANCED_FACE ( 'NONE', ( #362 ), #54, .T. ) ;
#182 = VECTOR ( 'NONE', #235, 39.37007874015748143 ) ;
#183 = LINE ( 'NONE', #791, #107 ) ;
#184 = DIMENSIONAL_EXPONENTS ( 1.000000000000000000, 0.000000000000000000, 0.000000000000000000, 0.000000000000000000, 0.000000000000000000, 0.000000000000000000, 0.000000000000000000 ) ;
#185 = DIRECTION ( 'NONE',  ( 0.000000000000000000, 1.000000000000000000, 0.000000000000000000 ) ) ;
#186 =( GEOMETRIC_REPRESENTATION_CONTEXT ( 3 ) GLOBAL_UNCERTAINTY_ASSIGNED_CONTEXT ( ( #205 ) ) GLOBAL_UNIT_ASSIGNED_CONTEXT ( ( #98, #643, #260 ) ) REPRESENTATION_CONTEXT ( 'NONE', 'WORKASPACE' ) );
#187 = DIRECTION ( 'NONE',  ( -1.000000000000000000, 0.000000000000000000, -0.000000000000000000 ) ) ;
#188 = CIRCLE ( 'NONE', #923, 0.09842519685039372024 ) ;
#189 = FACE_OUTER_BOUND ( 'NONE', #308, .T. ) ;
#190 = ORIENTED_EDGE ( 'NONE', *, *, #934, .F. ) ;
#191 = EDGE_CURVE ( 'NONE', #647, #519, #441, .T. ) ;
#192 = DIRECTION ( 'NONE',  ( -0.000000000000000000, -0.000000000000000000, -1.000000000000000000 ) ) ;
#193 = ORIENTED_EDGE ( 'NONE', *, *, #916, .F. ) ;
#194 = CARTESIAN_POINT ( 'NONE',  ( 0.000000000000000000, 0.000000000000000000, 0.000000000000000000 ) ) ;
#195 = ORIENTED_EDGE ( 'NONE', *, *, #93, .T. ) ;
#196 = DIRECTION ( 'NONE',  ( 0.000000000000000000, 0.000000000000000000, 1.000000000000000000 ) ) ;
#197 = ADVANCED_FACE ( 'NONE', ( #730 ), #283, .T. ) ;
#198 = AXIS2_PLACEMENT_3D ( 'NONE', #125, #967, #598 ) ;
#199 = DIRECTION ( 'NONE',  ( 1.000000000000000000, -0.000000000000000000, 0.000000000000000000 ) ) ;
#200 = ORIENTED_EDGE ( 'NONE', *, *, #306, .T. ) ;
#201 = EDGE_CURVE ( 'NONE', #534, #172, #866, .T. ) ;
#202 = EDGE_LOOP ( 'NONE', ( #937, #968, #434, #765, #420, #622, #963, #961 ) ) ;
#203 = DIRECTION ( 'NONE',  ( -1.836970198721029194E-16, 1.000000000000000000, -1.805949100830265211E-16 ) ) ;
#204 = AXIS2_PLACEMENT_3D ( 'NONE', #675, #203, #802 ) ;
#205 = UNCERTAINTY_MEASURE_WITH_UNIT (LENGTH_MEASURE( 1.000000000000000082E-05 ), #98, 'distance_accuracy_value', 'NONE');
#206 = PRODUCT_DEFINITION_FORMATION_WITH_SPECIFIED_SOURCE ( 'ANY', '', #95, .NOT_KNOWN. ) ;
#207 = CARTESIAN_POINT ( 'NONE',  ( 0.2952755905511810774, 0.000000000000000000, -0.3937007874015748254 ) ) ;
#208 = ORIENTED_EDGE ( 'NONE', *, *, #201, .T. ) ;
#209 = AXIS2_PLACEMENT_3D ( 'NONE', #645, #488, #261 ) ;
#210 = DIRECTION ( 'NONE',  ( 0.000000000000000000, 0.000000000000000000, 1.000000000000000000 ) ) ;
#211 = ORIENTED_EDGE ( 'NONE', *, *, #220, .T. ) ;
#212 = LINE ( 'NONE', #275, #4 ) ;
#213 = CARTESIAN_POINT ( 'NONE',  ( -0.5905511811023621549, 0.000000000000000000, 0.3937007874015748254 ) ) ;
#214 = ADVANCED_FACE ( 'NONE', ( #395 ), #568, .T. ) ;
#215 = ORIENTED_EDGE ( 'NONE', *, *, #569, .F. ) ;
#216 = CARTESIAN_POINT ( 'NONE',  ( 0.000000000000000000, 0.000000000000000000, 0.000000000000000000 ) ) ;
#217 = VERTEX_POINT ( 'NONE', #64 ) ;
#218 = CIRCLE ( 'NONE', #393, 0.2952755905511810774 ) ;
#219 = DIRECTION ( 'NONE',  ( 0.000000000000000000, -0.000000000000000000, -1.000000000000000000 ) ) ;
#220 = EDGE_CURVE ( 'NONE', #647, #217, #899, .T. ) ;
#221 = EDGE_CURVE ( 'NONE', #17, #861, #603, .T. ) ;
#222 = CYLINDRICAL_SURFACE ( 'NONE', #493, 0.09842519685039372024 ) ;
#223 = AXIS2_PLACEMENT_3D ( 'NONE', #483, #343, #92 ) ;
#224 = EDGE_LOOP ( 'NONE', ( #513, #237, #816, #208 ) ) ;
#225 = DIRECTION ( 'NONE',  ( -0.000000000000000000, -1.000000000000000000, -0.000000000000000000 ) ) ;
#226 = AXIS2_PLACEMENT_3D ( 'NONE', #665, #373, #600 ) ;
#227 = AXIS2_PLACEMENT_3D ( 'NONE', #637, #487, #162 ) ;
#228 = DIRECTION ( 'NONE',  ( 0.000000000000000000, 0.000000000000000000, 1.000000000000000000 ) ) ;
#229 = ORIENTED_EDGE ( 'NONE', *, *, #319, .F. ) ;
#230 = DIRECTION ( 'NONE',  ( 1.000000000000000000, 0.000000000000000000, 0.000000000000000000 ) ) ;
#231 = EDGE_CURVE ( 'NONE', #47, #593, #846, .T. ) ;
#232 = DIRECTION ( 'NONE',  ( 1.000000000000000000, -0.000000000000000000, 0.000000000000000000 ) ) ;
#233 =( NAMED_UNIT ( * ) PLANE_ANGLE_UNIT ( ) SI_UNIT ( $, .RADIAN. ) );
#234 = EDGE_CURVE ( 'NONE', #810, #988, #316, .T. ) ;
#235 = DIRECTION ( 'NONE',  ( -0.000000000000000000, -0.000000000000000000, -1.000000000000000000 ) ) ;
#236 = DIRECTION ( 'NONE',  ( 0.000000000000000000, -1.000000000000000000, 0.000000000000000000 ) ) ;
#237 = ORIENTED_EDGE ( 'NONE', *, *, #888, .T. ) ;
#238 = LINE ( 'NONE', #377, #604 ) ;
#239 = DIRECTION ( 'NONE',  ( 1.000000000000000000, 0.000000000000000000, 0.000000000000000000 ) ) ;
#240 = DIRECTION ( 'NONE',  ( 1.000000000000000000, 0.000000000000000000, 0.000000000000000000 ) ) ;
#241 = DIRECTION ( 'NONE',  ( 0.000000000000000000, 0.000000000000000000, 1.000000000000000000 ) ) ;
#242 = VERTEX_POINT ( 'NONE', #610 ) ;
#243 = ORIENTED_EDGE ( 'NONE', *, *, #124, .F. ) ;
#244 = ORIENTED_EDGE ( 'NONE', *, *, #848, .T. ) ;
#245 = CIRCLE ( 'NONE', #950, 0.2952755905511810774 ) ;
#246 = CIRCLE ( 'NONE', #887, 0.2952755905511810774 ) ;
#247 = CARTESIAN_POINT ( 'NONE',  ( 0.000000000000000000, 0.000000000000000000, 0.1968503937007873850 ) ) ;
#248 = EDGE_LOOP ( 'NONE', ( #805, #684, #877, #663 ) ) ;
#249 = CARTESIAN_POINT ( 'NONE',  ( 0.4921259842519684624, 1.988845687591665934E-16, -0.2952755905511810774 ) ) ;
#250 = DIRECTION ( 'NONE',  ( 0.000000000000000000, 0.000000000000000000, -1.000000000000000000 ) ) ;
#251 = ORIENTED_EDGE ( 'NONE', *, *, #583, .T. ) ;
#252 = FACE_BOUND ( 'NONE', #202, .T. ) ;
#253 = DIRECTION ( 'NONE',  ( 0.000000000000000000, 1.000000000000000000, 0.000000000000000000 ) ) ;
#254 = AXIS2_PLACEMENT_3D ( 'NONE', #965, #806, #520 ) ;
#255 = ORIENTED_EDGE ( 'NONE', *, *, #270, .T. ) ;
#256 = PLANE ( 'NONE',  #764 ) ;
#257 = ORIENTED_EDGE ( 'NONE', *, *, #93, .F. ) ;
#258 = CIRCLE ( 'NONE', #510, 0.09842519685039372024 ) ;
#259 = ORIENTED_EDGE ( 'NONE', *, *, #829, .F. ) ;
#260 =( NAMED_UNIT ( * ) SI_UNIT ( $, .STERADIAN. ) SOLID_ANGLE_UNIT ( ) );
#261 = DIRECTION ( 'NONE',  ( 0.000000000000000000, 0.000000000000000000, 1.000000000000000000 ) ) ;
#262 = VERTEX_POINT ( 'NONE', #830 ) ;
#263 = AXIS2_PLACEMENT_3D ( 'NONE', #833, #930, #768 ) ;
#264 = DIRECTION ( 'NONE',  ( 0.000000000000000000, 1.836970198721028455E-16, -1.000000000000000000 ) ) ;
#265 = CARTESIAN_POINT ( 'NONE',  ( -0.2952755905511810774, 3.616083068348483797E-17, -0.3937007874015748254 ) ) ;
#266 = VECTOR ( 'NONE', #153, 39.37007874015748143 ) ;
#267 = VECTOR ( 'NONE', #44, 39.37007874015748143 ) ;
#268 = CARTESIAN_POINT ( 'NONE',  ( 0.5905511811023621549, 2.731847993664263218E-16, 0.1968503937007874127 ) ) ;
#269 = SHAPE_DEFINITION_REPRESENTATION ( #411, #404 ) ;
#270 = EDGE_CURVE ( 'NONE', #861, #530, #907, .T. ) ;
#271 = AXIS2_PLACEMENT_3D ( 'NONE', #847, #695, #834 ) ;
#272 = FACE_OUTER_BOUND ( 'NONE', #335, .T. ) ;
#273 = EDGE_CURVE ( 'NONE', #903, #530, #744, .T. ) ;
#274 = EDGE_LOOP ( 'NONE', ( #851, #312 ) ) ;
#275 = CARTESIAN_POINT ( 'NONE',  ( -0.5905511811023627100, 0.9842519685039370358, -0.1968503937007874127 ) ) ;
#276 = LINE ( 'NONE', #579, #386 ) ;
#277 = APPLICATION_PROTOCOL_DEFINITION ( 'draft international standard', 'automotive_design', 1998, #431 ) ;
#278 = ORIENTED_EDGE ( 'NONE', *, *, #84, .F. ) ;
#279 = LINE ( 'NONE', #49, #507 ) ;
#280 = LINE ( 'NONE', #949, #591 ) ;
#281 = VERTEX_POINT ( 'NONE', #633 ) ;
#282 = ORIENTED_EDGE ( 'NONE', *, *, #306, .F. ) ;
#283 = CYLINDRICAL_SURFACE ( 'NONE', #948, 0.09842519685039372024 ) ;
#284 = EDGE_CURVE ( 'NONE', #429, #359, #476, .T. ) ;
#285 = LINE ( 'NONE', #213, #835 ) ;
#286 = CIRCLE ( 'NONE', #842, 0.2952755905511810774 ) ;
#287 = ORIENTED_EDGE ( 'NONE', *, *, #533, .T. ) ;
#288 = CARTESIAN_POINT ( 'NONE',  ( -0.4921259842519684624, 3.585550491684345474E-17, -0.3937007874015748254 ) ) ;
#289 = EDGE_CURVE ( 'NONE', #562, #593, #82, .T. ) ;
#290 = FACE_OUTER_BOUND ( 'NONE', #502, .T. ) ;
#291 = VERTEX_POINT ( 'NONE', #757 ) ;
#292 = AXIS2_PLACEMENT_3D ( 'NONE', #174, #559, #422 ) ;
#293 = CARTESIAN_POINT ( 'NONE',  ( 0.000000000000000000, 1.084824920504545077E-16, 0.2952755905511810774 ) ) ;
#294 = LENGTH_MEASURE_WITH_UNIT ( LENGTH_MEASURE( 0.02539999999999999897 ), #974 );
#295 = DIRECTION ( 'NONE',  ( 0.000000000000000000, 0.000000000000000000, -1.000000000000000000 ) ) ;
#296 = ORIENTED_EDGE ( 'NONE', *, *, #880, .T. ) ;
#297 = EDGE_CURVE ( 'NONE', #242, #446, #345, .T. ) ;
#298 = DIRECTION ( 'NONE',  ( 0.000000000000000000, 1.000000000000000000, 0.000000000000000000 ) ) ;
#299 = AXIS2_PLACEMENT_3D ( 'NONE', #57, #232, #760 ) ;
#300 = CARTESIAN_POINT ( 'NONE',  ( 0.5905511811023621549, 2.169649841009090155E-16, 0.2952755905511810774 ) ) ;
#301 = EDGE_CURVE ( 'NONE', #593, #872, #597, .T. ) ;
#302 = ORIENTED_EDGE ( 'NONE', *, *, #485, .F. ) ;
#303 = DIRECTION ( 'NONE',  ( -0.000000000000000000, -0.000000000000000000, 1.000000000000000000 ) ) ;
#304 = CARTESIAN_POINT ( 'NONE',  ( 0.5905511811023621549, 2.169649841009090155E-16, 0.3937007874015748254 ) ) ;
#305 = FACE_OUTER_BOUND ( 'NONE', #674, .T. ) ;
#306 = EDGE_CURVE ( 'NONE', #562, #831, #694, .T. ) ;
#307 = ORIENTED_EDGE ( 'NONE', *, *, #231, .T. ) ;
#308 = EDGE_LOOP ( 'NONE', ( #381, #845, #691, #215 ) ) ;
#309 = DIRECTION ( 'NONE',  ( 0.000000000000000000, -1.000000000000000000, 0.000000000000000000 ) ) ;
#310 = DIRECTION ( 'NONE',  ( -0.000000000000000000, -1.000000000000000000, -0.000000000000000000 ) ) ;
#311 = FACE_OUTER_BOUND ( 'NONE', #954, .T. ) ;
#312 = ORIENTED_EDGE ( 'NONE', *, *, #796, .F. ) ;
#313 = AXIS2_PLACEMENT_3D ( 'NONE', #457, #303, #677 ) ;
#314 = ORIENTED_EDGE ( 'NONE', *, *, #84, .T. ) ;
#315 = ORIENTED_EDGE ( 'NONE', *, *, #676, .T. ) ;
#316 = LINE ( 'NONE', #78, #621 ) ;
#317 = DIRECTION ( 'NONE',  ( 1.000000000000000000, 0.000000000000000000, 0.000000000000000000 ) ) ;
#318 = AXIS2_PLACEMENT_3D ( 'NONE', #590, #734, #357 ) ;
#319 = EDGE_CURVE ( 'NONE', #351, #740, #528, .T. ) ;
#320 = AXIS2_PLACEMENT_3D ( 'NONE', #575, #42, #360 ) ;
#321 = ORIENTED_EDGE ( 'NONE', *, *, #74, .T. ) ;
#322 = AXIS2_PLACEMENT_3D ( 'NONE', #769, #13, #250 ) ;
#323 = ADVANCED_FACE ( 'NONE', ( #384 ), #762, .F. ) ;
#324 = DIRECTION ( 'NONE',  ( 1.836970198721028701E-16, -1.000000000000000000, 0.000000000000000000 ) ) ;
#325 = CARTESIAN_POINT ( 'NONE',  ( -0.6889763779527586784, 7.874015748031496287, 0.2952755905511810774 ) ) ;
#326 = EDGE_CURVE ( 'NONE', #810, #740, #893, .T. ) ;
#327 = ORIENTED_EDGE ( 'NONE', *, *, #136, .T. ) ;
#328 = LENGTH_MEASURE_WITH_UNIT ( LENGTH_MEASURE( 0.02539999999999999897 ), #865 );
#329 = CARTESIAN_POINT ( 'NONE',  ( 0.5905511811023621549, 2.169649841009090155E-16, 0.3937007874015748254 ) ) ;
#330 = DIRECTION ( 'NONE',  ( 1.000000000000000000, -0.000000000000000000, -0.000000000000000000 ) ) ;
#331 = ORIENTED_EDGE ( 'NONE', *, *, #289, .T. ) ;
#332 = SURFACE_STYLE_FILL_AREA ( #707 ) ;
#333 = AXIS2_PLACEMENT_3D ( 'NONE', #960, #138, #143 ) ;
#334 = LINE ( 'NONE', #638, #128 ) ;
#335 = EDGE_LOOP ( 'NONE', ( #255, #287, #941, #558, #307, #551, #200, #660 ) ) ;
#336 = PRODUCT_DEFINITION_SHAPE ( 'NONE', 'NONE',  #601 ) ;
#337 = CLOSED_SHELL ( 'NONE', ( #181, #323, #552, #984, #971, #655, #30, #548, #897, #649, #500, #453, #31, #394, #86, #626, #758, #774, #799, #844, #577, #214, #809, #448, #14, #197, #902, #727, #363, #466, #718 ) ) ;
#338 = ORIENTED_EDGE ( 'NONE', *, *, #934, .T. ) ;
#339 = CARTESIAN_POINT ( 'NONE',  ( 0.000000000000000000, 0.000000000000000000, -0.1968503937007874127 ) ) ;
#340 = EDGE_LOOP ( 'NONE', ( #195, #875, #698, #843 ) ) ;
#341 = VECTOR ( 'NONE', #16, 39.37007874015748143 ) ;
#342 = DIRECTION ( 'NONE',  ( 0.000000000000000000, 1.000000000000000000, 0.000000000000000000 ) ) ;
#343 = DIRECTION ( 'NONE',  ( -0.000000000000000000, -0.000000000000000000, 1.000000000000000000 ) ) ;
#344 = LINE ( 'NONE', #567, #970 ) ;
#345 = CIRCLE ( 'NONE', #263, 0.4921259842519684624 ) ;
#346 = DIRECTION ( 'NONE',  ( 1.000000000000000000, 0.000000000000000000, 0.000000000000000000 ) ) ;
#347 = CARTESIAN_POINT ( 'NONE',  ( -0.5905511811023621549, -2.151330295010607161E-16, 0.3937007874015748254 ) ) ;
#348 = STYLED_ITEM ( 'NONE', ( #761 ), #857 ) ;
#349 = AXIS2_PLACEMENT_3D ( 'NONE', #293, #219, #117 ) ;
#350 = CARTESIAN_POINT ( 'NONE',  ( 0.5905511811023621549, 0.000000000000000000, 0.3937007874015748254 ) ) ;
#351 = VERTEX_POINT ( 'NONE', #840 ) ;
#352 =( CONVERSION_BASED_UNIT ( 'INCH', #739 ) LENGTH_UNIT ( ) NAMED_UNIT ( #184 ) );
#353 = CARTESIAN_POINT ( 'NONE',  ( -0.4921259842519712935, 7.874015748031496287, -0.2952755905511810774 ) ) ;
#354 = CARTESIAN_POINT ( 'NONE',  ( 0.5905511811023621549, 0.9842519685039370358, 0.1968503937007874127 ) ) ;
#355 = DIRECTION ( 'NONE',  ( 1.000000000000000000, 0.000000000000000000, 0.000000000000000000 ) ) ;
#356 = ORIENTED_EDGE ( 'NONE', *, *, #176, .T. ) ;
#357 = DIRECTION ( 'NONE',  ( 0.000000000000000000, 0.000000000000000000, 1.000000000000000000 ) ) ;
#358 = DIRECTION ( 'NONE',  ( 0.000000000000000000, 0.000000000000000000, 1.000000000000000000 ) ) ;
#359 = VERTEX_POINT ( 'NONE', #479 ) ;
#360 = DIRECTION ( 'NONE',  ( 1.000000000000000000, 0.000000000000000000, 0.000000000000000000 ) ) ;
#361 = EDGE_LOOP ( 'NONE', ( #180, #190, #161, #134 ) ) ;
#362 = FACE_OUTER_BOUND ( 'NONE', #399, .T. ) ;
#363 = ADVANCED_FACE ( 'NONE', ( #623 ), #651, .F. ) ;
#364 = CIRCLE ( 'NONE', #179, 0.7874015748031496509 ) ;
#365 = AXIS2_PLACEMENT_3D ( 'NONE', #942, #33, #264 ) ;
#366 = CARTESIAN_POINT ( 'NONE',  ( -0.2952755905511810774, 3.616083068348483797E-17, -0.3937007874015748254 ) ) ;
#367 = EDGE_LOOP ( 'NONE', ( #259, #73 ) ) ;
#368 = EDGE_CURVE ( 'NONE', #733, #262, #218, .T. ) ;
#369 = DIRECTION ( 'NONE',  ( -0.000000000000000000, -1.000000000000000000, -0.000000000000000000 ) ) ;
#370 = AXIS2_PLACEMENT_3D ( 'NONE', #83, #72, #89 ) ;
#371 = PLANE ( 'NONE',  #148 ) ;
#372 = ORIENTED_EDGE ( 'NONE', *, *, #755, .F. ) ;
#373 = DIRECTION ( 'NONE',  ( -0.000000000000000000, -1.000000000000000000, -0.000000000000000000 ) ) ;
#374 = CARTESIAN_POINT ( 'NONE',  ( 0.5905511811023621549, 2.731847993664263218E-16, -0.1968503937007874127 ) ) ;
#375 = DIRECTION ( 'NONE',  ( 1.000000000000000000, -0.000000000000000000, 0.000000000000000000 ) ) ;
#376 = EDGE_CURVE ( 'NONE', #87, #486, #344, .T. ) ;
#377 = CARTESIAN_POINT ( 'NONE',  ( 0.000000000000000000, 7.874015748031496287, 0.4921259842519685179 ) ) ;
#378 = CARTESIAN_POINT ( 'NONE',  ( -0.5905511811023621549, 0.000000000000000000, 0.2952755905511810774 ) ) ;
#379 = EDGE_CURVE ( 'NONE', #15, #17, #334, .T. ) ;
#380 = CARTESIAN_POINT ( 'NONE',  ( 0.000000000000000000, 0.000000000000000000, -0.3937007874015748254 ) ) ;
#381 = ORIENTED_EDGE ( 'NONE', *, *, #829, .T. ) ;
#382 = CARTESIAN_POINT ( 'NONE',  ( 0.4921259842519684624, 7.775590551181102761, -0.2952755905511811885 ) ) ;
#383 = AXIS2_PLACEMENT_3D ( 'NONE', #955, #969, #596 ) ;
#384 = FACE_OUTER_BOUND ( 'NONE', #818, .T. ) ;
#385 = ORIENTED_EDGE ( 'NONE', *, *, #658, .F. ) ;
#386 = VECTOR ( 'NONE', #506, 39.37007874015748143 ) ;
#387 = CARTESIAN_POINT ( 'NONE',  ( 0.000000000000000000, 8.267716535433072167, 0.000000000000000000 ) ) ;
#388 = DIRECTION ( 'NONE',  ( 0.000000000000000000, 0.000000000000000000, 1.000000000000000000 ) ) ;
#389 = DIRECTION ( 'NONE',  ( -0.000000000000000000, -0.000000000000000000, 1.000000000000000000 ) ) ;
#390 = CARTESIAN_POINT ( 'NONE',  ( 0.4921259842519684624, 7.775590551181102761, -0.4921259842519685179 ) ) ;
#391 = ORIENTED_EDGE ( 'NONE', *, *, #742, .F. ) ;
#392 = PLANE ( 'NONE',  #555 ) ;
#393 = AXIS2_PLACEMENT_3D ( 'NONE', #777, #545, #145 ) ;
#394 = ADVANCED_FACE ( 'NONE', ( #789 ), #105, .F. ) ;
#395 = FACE_OUTER_BOUND ( 'NONE', #106, .T. ) ;
#396 = DIRECTION ( 'NONE',  ( -0.000000000000000000, 0.000000000000000000, 1.000000000000000000 ) ) ;
#397 = EDGE_CURVE ( 'NONE', #465, #52, #726, .T. ) ;
#398 = AXIS2_PLACEMENT_3D ( 'NONE', #347, #704, #170 ) ;
#399 = EDGE_LOOP ( 'NONE', ( #131, #891, #928, #151 ) ) ;
#400 = EDGE_CURVE ( 'NONE', #903, #87, #437, .T. ) ;
#401 = DIRECTION ( 'NONE',  ( 0.000000000000000000, -1.000000000000000000, 0.000000000000000000 ) ) ;
#402 = DIRECTION ( 'NONE',  ( 0.000000000000000000, 1.000000000000000000, 0.000000000000000000 ) ) ;
#403 = STYLED_ITEM ( 'NONE', ( #565 ), #607 ) ;
#404 = SHAPE_REPRESENTATION ( 'ExampleBot-Link2', ( #227 ), #495 ) ;
#405 = ORIENTED_EDGE ( 'NONE', *, *, #26, .F. ) ;
#406 = FACE_OUTER_BOUND ( 'NONE', #508, .T. ) ;
#407 = AXIS2_PLACEMENT_3D ( 'NONE', #634, #616, #164 ) ;
#408 = CARTESIAN_POINT ( 'NONE',  ( 0.4921259842519684624, 7.775590551181102761, 0.2952755905511810774 ) ) ;
#409 = CARTESIAN_POINT ( 'NONE',  ( -0.4921259842519712935, 7.775590551181102761, -0.2952755905511810774 ) ) ;
#410 = EDGE_CURVE ( 'NONE', #642, #465, #862, .T. ) ;
#411 = PRODUCT_DEFINITION_SHAPE ( 'NONE', 'NONE',  #587 ) ;
#412 = ORIENTED_EDGE ( 'NONE', *, *, #112, .T. ) ;
#413 = FILL_AREA_STYLE_COLOUR ( '', #701 ) ;
#414 = FACE_OUTER_BOUND ( 'NONE', #932, .T. ) ;
#415 = ORIENTED_EDGE ( 'NONE', *, *, #671, .F. ) ;
#416 = EDGE_CURVE ( 'NONE', #291, #217, #936, .T. ) ;
#417 = ORIENTED_EDGE ( 'NONE', *, *, #742, .T. ) ;
#418 = CIRCLE ( 'NONE', #635, 0.09842519685039372024 ) ;
#419 = CARTESIAN_POINT ( 'NONE',  ( 0.4921259842519684624, 7.874015748031496287, 0.4921259842519685179 ) ) ;
#420 = ORIENTED_EDGE ( 'NONE', *, *, #104, .F. ) ;
#421 = DIRECTION ( 'NONE',  ( 0.000000000000000000, 0.000000000000000000, -1.000000000000000000 ) ) ;
#422 = DIRECTION ( 'NONE',  ( 1.000000000000000000, 0.000000000000000000, 0.000000000000000000 ) ) ;
#423 = VERTEX_POINT ( 'NONE', #419 ) ;
#424 = DIRECTION ( 'NONE',  ( -1.000000000000000000, 0.000000000000000000, 0.000000000000000000 ) ) ;
#425 = DIRECTION ( 'NONE',  ( 0.000000000000000000, -1.000000000000000000, 0.000000000000000000 ) ) ;
#426 = AXIS2_PLACEMENT_3D ( 'NONE', #249, #324, #470 ) ;
#427 = CARTESIAN_POINT ( 'NONE',  ( 0.000000000000000000, 8.267716535433072167, 0.000000000000000000 ) ) ;
#428 = DIRECTION ( 'NONE',  ( 0.000000000000000000, 0.000000000000000000, 1.000000000000000000 ) ) ;
#429 = VERTEX_POINT ( 'NONE', #714 ) ;
#430 = ORIENTED_EDGE ( 'NONE', *, *, #481, .F. ) ;
#431 = APPLICATION_CONTEXT ( 'automotive_design' ) ;
#432 = LINE ( 'NONE', #39, #881 ) ;
#433 = CARTESIAN_POINT ( 'NONE',  ( 0.6889763779527559029, 7.775590551181102761, 0.2952755905511810774 ) ) ;
#434 = ORIENTED_EDGE ( 'NONE', *, *, #678, .F. ) ;
#435 = LINE ( 'NONE', #737, #267 ) ;
#436 = UNCERTAINTY_MEASURE_WITH_UNIT (LENGTH_MEASURE( 1.000000000000000082E-05 ), #352, 'distance_accuracy_value', 'NONE');
#437 = CIRCLE ( 'NONE', #560, 0.4921259842519684624 ) ;
#438 = DIRECTION ( 'NONE',  ( -0.000000000000000000, -0.000000000000000000, 1.000000000000000000 ) ) ;
#439 = ORIENTED_EDGE ( 'NONE', *, *, #929, .F. ) ;
#440 = ORIENTED_EDGE ( 'NONE', *, *, #410, .F. ) ;
#441 = LINE ( 'NONE', #822, #137 ) ;
#442 = CIRCLE ( 'NONE', #566, 0.2952755905511810774 ) ;
#443 = CYLINDRICAL_SURFACE ( 'NONE', #333, 0.5905511811023621549 ) ;
#444 = APPLICATION_PROTOCOL_DEFINITION ( 'draft international standard', 'automotive_design', 1998, #511 ) ;
#445 = VECTOR ( 'NONE', #689, 39.37007874015748143 ) ;
#446 = VERTEX_POINT ( 'NONE', #708 ) ;
#447 = DIRECTION ( 'NONE',  ( 0.000000000000000000, 0.000000000000000000, -1.000000000000000000 ) ) ;
#448 = ADVANCED_FACE ( 'NONE', ( #94 ), #672, .F. ) ;
#449 = AXIS2_PLACEMENT_3D ( 'NONE', #690, #700, #3 ) ;
#450 = FACE_OUTER_BOUND ( 'NONE', #837, .T. ) ;
#451 = EDGE_LOOP ( 'NONE', ( #474, #158, #973, #372 ) ) ;
#452 = CARTESIAN_POINT ( 'NONE',  ( -0.4921259842519684624, -1.792775245842172799E-16, -0.2952755905511810774 ) ) ;
#453 = ADVANCED_FACE ( 'NONE', ( #725, #414 ), #256, .T. ) ;
#454 = CARTESIAN_POINT ( 'NONE',  ( -0.4921259842519712935, 7.874015748031496287, 0.4921259842519685179 ) ) ;
#455 = ORIENTED_EDGE ( 'NONE', *, *, #880, .F. ) ;
#456 = EDGE_CURVE ( 'NONE', #281, #172, #940, .T. ) ;
#457 = CARTESIAN_POINT ( 'NONE',  ( 0.000000000000000000, 1.084824920504545077E-16, -0.2952755905511811885 ) ) ;
#458 = DIRECTION ( 'NONE',  ( -0.000000000000000000, 0.000000000000000000, 1.000000000000000000 ) ) ;
#459 = CIRCLE ( 'NONE', #666, 0.09842519685039372024 ) ;
#460 = VERTEX_POINT ( 'NONE', #783 ) ;
#461 = SURFACE_STYLE_USAGE ( .BOTH. , #685 ) ;
#462 = CIRCLE ( 'NONE', #19, 0.1968503937007874405 ) ;
#463 = DIRECTION ( 'NONE',  ( 1.000000000000000000, 0.000000000000000000, 0.000000000000000000 ) ) ;
#464 = DIRECTION ( 'NONE',  ( -1.000000000000000000, 0.000000000000000000, 0.000000000000000000 ) ) ;
#465 = VERTEX_POINT ( 'NONE', #178 ) ;
#466 = ADVANCED_FACE ( 'NONE', ( #499 ), #22, .F. ) ;
#467 = AXIS2_PLACEMENT_3D ( 'NONE', #350, #424, #358 ) ;
#468 = DIRECTION ( 'NONE',  ( -0.000000000000000000, -0.000000000000000000, -1.000000000000000000 ) ) ;
#469 = CARTESIAN_POINT ( 'NONE',  ( -0.5905511811023627100, 1.084824920504545077E-16, 0.1968503937007874127 ) ) ;
#470 = DIRECTION ( 'NONE',  ( 1.000000000000000000, 1.836970198721028455E-16, 0.000000000000000000 ) ) ;
#471 = LINE ( 'NONE', #624, #824 ) ;
#472 = ORIENTED_EDGE ( 'NONE', *, *, #9, .T. ) ;
#473 = EDGE_CURVE ( 'NONE', #486, #636, #781, .T. ) ;
#474 = ORIENTED_EDGE ( 'NONE', *, *, #849, .T. ) ;
#475 = AXIS2_PLACEMENT_3D ( 'NONE', #71, #389, #913 ) ;
#476 = LINE ( 'NONE', #985, #515 ) ;
#477 = CARTESIAN_POINT ( 'NONE',  ( 0.5905511811023621549, 0.9842519685039370358, -0.1968503937007874405 ) ) ;
#478 = ORIENTED_EDGE ( 'NONE', *, *, #713, .T. ) ;
#479 = CARTESIAN_POINT ( 'NONE',  ( 9.642888182262624280E-17, 7.874015748031496287, 0.7874015748031496509 ) ) ;
#480 = AXIS2_PLACEMENT_3D ( 'NONE', #408, #926, #155 ) ;
#481 = EDGE_CURVE ( 'NONE', #122, #977, #246, .T. ) ;
#482 = ORIENTED_EDGE ( 'NONE', *, *, #90, .F. ) ;
#483 = CARTESIAN_POINT ( 'NONE',  ( 0.000000000000000000, 0.000000000000000000, -0.3937007874015748254 ) ) ;
#484 = CARTESIAN_POINT ( 'NONE',  ( -0.5905511811023627100, 0.9842519685039370358, 0.1968503937007874127 ) ) ;
#485 = EDGE_CURVE ( 'NONE', #647, #423, #258, .T. ) ;
#486 = VERTEX_POINT ( 'NONE', #113 ) ;
#487 = DIRECTION ( 'NONE',  ( 0.000000000000000000, 0.000000000000000000, 1.000000000000000000 ) ) ;
#488 = DIRECTION ( 'NONE',  ( 0.000000000000000000, 1.000000000000000000, 0.000000000000000000 ) ) ;
#489 = EDGE_LOOP ( 'NONE', ( #5, #863, #302, #211 ) ) ;
#490 = DIMENSIONAL_EXPONENTS ( 1.000000000000000000, 0.000000000000000000, 0.000000000000000000, 0.000000000000000000, 0.000000000000000000, 0.000000000000000000, 0.000000000000000000 ) ;
#491 = CARTESIAN_POINT ( 'NONE',  ( -0.5905511811023650415, 7.775590551181102761, -0.2952755905511810774 ) ) ;
#492 = AXIS2_PLACEMENT_3D ( 'NONE', #452, #828, #978 ) ;
#493 = AXIS2_PLACEMENT_3D ( 'NONE', #751, #375, #679 ) ;
#494 = ORIENTED_EDGE ( 'NONE', *, *, #75, .T. ) ;
#495 =( GEOMETRIC_REPRESENTATION_CONTEXT ( 3 ) GLOBAL_UNCERTAINTY_ASSIGNED_CONTEXT ( ( #836 ) ) GLOBAL_UNIT_ASSIGNED_CONTEXT ( ( #103, #632, #856 ) ) REPRESENTATION_CONTEXT ( 'NONE', 'WORKASPACE' ) );
#496 = DIRECTION ( 'NONE',  ( 0.000000000000000000, 0.000000000000000000, 1.000000000000000000 ) ) ;
#497 = EDGE_CURVE ( 'NONE', #217, #281, #966, .T. ) ;
#498 = COLOUR_RGB ( '',0.000000000000000000, 0.5019607843137254832, 0.000000000000000000 ) ;
#499 = FACE_OUTER_BOUND ( 'NONE', #544, .T. ) ;
#500 = ADVANCED_FACE ( 'NONE', ( #657, #662 ), #732, .T. ) ;
#501 = EDGE_CURVE ( 'NONE', #733, #977, #183, .T. ) ;
#502 = EDGE_LOOP ( 'NONE', ( #659, #296, #895, #627 ) ) ;
#503 = DIRECTION ( 'NONE',  ( -0.000000000000000000, -1.000000000000000000, -0.000000000000000000 ) ) ;
#504 = ORIENTED_EDGE ( 'NONE', *, *, #563, .F. ) ;
#505 = DIRECTION ( 'NONE',  ( 3.642919299551295391E-16, -1.000000000000000000, 0.000000000000000000 ) ) ;
#506 = DIRECTION ( 'NONE',  ( 0.000000000000000000, 1.000000000000000000, 0.000000000000000000 ) ) ;
#507 = VECTOR ( 'NONE', #892, 39.37007874015748143 ) ;
#508 = EDGE_LOOP ( 'NONE', ( #67, #338, #415, #801, #790, #858, #278, #547 ) ) ;
#509 = DIRECTION ( 'NONE',  ( 0.000000000000000000, -0.000000000000000000, -1.000000000000000000 ) ) ;
#510 = AXIS2_PLACEMENT_3D ( 'NONE', #654, #864, #496 ) ;
#511 = APPLICATION_CONTEXT ( 'automotive_design' ) ;
#512 = LINE ( 'NONE', #745, #958 ) ;
#513 = ORIENTED_EDGE ( 'NONE', *, *, #825, .T. ) ;
#514 = DIRECTION ( 'NONE',  ( -3.642919299551294898E-16, 1.000000000000000000, -0.000000000000000000 ) ) ;
#515 = VECTOR ( 'NONE', #310, 39.37007874015748143 ) ;
#516 = DIRECTION ( 'NONE',  ( -0.000000000000000000, -0.000000000000000000, -1.000000000000000000 ) ) ;
#517 = ORIENTED_EDGE ( 'NONE', *, *, #191, .T. ) ;
#518 =( NAMED_UNIT ( * ) PLANE_ANGLE_UNIT ( ) SI_UNIT ( $, .RADIAN. ) );
#519 = VERTEX_POINT ( 'NONE', #564 ) ;
#520 = DIRECTION ( 'NONE',  ( -1.000000000000000000, -3.642919299551293419E-16, 0.000000000000000000 ) ) ;
#521 = CARTESIAN_POINT ( 'NONE',  ( 0.4921259842519684624, 7.775590551181102761, 0.3937007874015748254 ) ) ;
#522 = AXIS2_PLACEMENT_3D ( 'NONE', #741, #369, #196 ) ;
#523 = ORIENTED_EDGE ( 'NONE', *, *, #376, .T. ) ;
#524 = DIRECTION ( 'NONE',  ( 1.000000000000000000, 0.000000000000000000, 0.000000000000000000 ) ) ;
#525 = CIRCLE ( 'NONE', #964, 0.2952755905511810774 ) ;
#526 = DIRECTION ( 'NONE',  ( 0.000000000000000000, 0.000000000000000000, 1.000000000000000000 ) ) ;
#527 = ORIENTED_EDGE ( 'NONE', *, *, #397, .F. ) ;
#528 = LINE ( 'NONE', #538, #987 ) ;
#529 = PRODUCT_DEFINITION_CONTEXT ( 'detailed design', #511, 'design' ) ;
#530 = VERTEX_POINT ( 'NONE', #952 ) ;
#531 = CARTESIAN_POINT ( 'NONE',  ( 0.000000000000000000, 1.084824920504545077E-16, 0.1968503937007874127 ) ) ;
#532 = CARTESIAN_POINT ( 'NONE',  ( 0.000000000000000000, 7.874015748031496287, 0.000000000000000000 ) ) ;
#533 = EDGE_CURVE ( 'NONE', #530, #291, #276, .T. ) ;
#534 = VERTEX_POINT ( 'NONE', #874 ) ;
#535 = CIRCLE ( 'NONE', #101, 0.1968503937007874405 ) ;
#536 = FACE_OUTER_BOUND ( 'NONE', #821, .T. ) ;
#537 = CARTESIAN_POINT ( 'NONE',  ( 0.4921259842519684624, 1.988845687591665934E-16, -0.3937007874015748254 ) ) ;
#538 = CARTESIAN_POINT ( 'NONE',  ( -0.6889763779527586784, 7.874015748031496287, 0.000000000000000000 ) ) ;
#539 = CYLINDRICAL_SURFACE ( 'NONE', #53, 0.09842519685039372024 ) ;
#540 = EDGE_CURVE ( 'NONE', #977, #122, #286, .T. ) ;
#541 = ORIENTED_EDGE ( 'NONE', *, *, #326, .T. ) ;
#542 = AXIS2_PLACEMENT_3D ( 'NONE', #409, #402, #550 ) ;
#543 = AXIS2_PLACEMENT_3D ( 'NONE', #804, #585, #868 ) ;
#544 = EDGE_LOOP ( 'NONE', ( #620, #244, #939, #811 ) ) ;
#545 = DIRECTION ( 'NONE',  ( 0.000000000000000000, 0.000000000000000000, -1.000000000000000000 ) ) ;
#546 = CYLINDRICAL_SURFACE ( 'NONE', #322, 0.09842519685039372024 ) ;
#547 = ORIENTED_EDGE ( 'NONE', *, *, #646, .T. ) ;
#548 = ADVANCED_FACE ( 'NONE', ( #272 ), #108, .F. ) ;
#549 = DIRECTION ( 'NONE',  ( 0.000000000000000000, 0.000000000000000000, -1.000000000000000000 ) ) ;
#550 = DIRECTION ( 'NONE',  ( 0.000000000000000000, 0.000000000000000000, 1.000000000000000000 ) ) ;
#551 = ORIENTED_EDGE ( 'NONE', *, *, #289, .F. ) ;
#552 = ADVANCED_FACE ( 'NONE', ( #189 ), #36, .F. ) ;
#553 = DIRECTION ( 'NONE',  ( 0.000000000000000000, 0.000000000000000000, 1.000000000000000000 ) ) ;
#554 = PRODUCT ( 'link_2_collision', 'link_2_collision', '', ( #729 ) ) ;
#555 = AXIS2_PLACEMENT_3D ( 'NONE', #693, #989, #509 ) ;
#556 = VERTEX_POINT ( 'NONE', #573 ) ;
#557 = DIRECTION ( 'NONE',  ( -3.642919299551295391E-16, 1.000000000000000000, 0.000000000000000000 ) ) ;
#558 = ORIENTED_EDGE ( 'NONE', *, *, #658, .T. ) ;
#559 = DIRECTION ( 'NONE',  ( -0.000000000000000000, -0.000000000000000000, 1.000000000000000000 ) ) ;
#560 = AXIS2_PLACEMENT_3D ( 'NONE', #171, #795, #20 ) ;
#561 = DIMENSIONAL_EXPONENTS ( 1.000000000000000000, 0.000000000000000000, 0.000000000000000000, 0.000000000000000000, 0.000000000000000000, 0.000000000000000000, 0.000000000000000000 ) ;
#562 = VERTEX_POINT ( 'NONE', #354 ) ;
#563 = EDGE_CURVE ( 'NONE', #15, #782, #280, .T. ) ;
#564 = CARTESIAN_POINT ( 'NONE',  ( -0.4921259842519712935, 7.775590551181102761, 0.3937007874015748254 ) ) ;
#565 = PRESENTATION_STYLE_ASSIGNMENT (( #24 ) ) ;
#566 = AXIS2_PLACEMENT_3D ( 'NONE', #904, #147, #239 ) ;
#567 = CARTESIAN_POINT ( 'NONE',  ( -0.4921259842519684624, -1.792775245842172799E-16, -0.3937007874015748254 ) ) ;
#568 = TOROIDAL_SURFACE ( 'NONE', #775, 0.4921259842519684624, 0.09842519685039370636 ) ;
#569 = EDGE_CURVE ( 'NONE', #262, #122, #883, .T. ) ;
#570 = DIMENSIONAL_EXPONENTS ( 1.000000000000000000, 0.000000000000000000, 0.000000000000000000, 0.000000000000000000, 0.000000000000000000, 0.000000000000000000, 0.000000000000000000 ) ;
#571 = FACE_OUTER_BOUND ( 'NONE', #706, .T. ) ;
#572 = VECTOR ( 'NONE', #986, 39.37007874015748143 ) ;
#573 = CARTESIAN_POINT ( 'NONE',  ( 0.000000000000000000, 8.267716535433072167, -0.7874015748031496509 ) ) ;
#574 = EDGE_LOOP ( 'NONE', ( #715, #405, #640, #871 ) ) ;
#575 = CARTESIAN_POINT ( 'NONE',  ( 0.000000000000000000, 0.000000000000000000, 0.000000000000000000 ) ) ;
#576 = LINE ( 'NONE', #896, #65 ) ;
#577 = ADVANCED_FACE ( 'NONE', ( #102 ), #63, .F. ) ;
#578 = APPLICATION_CONTEXT ( 'automotive_design' ) ;
#579 = CARTESIAN_POINT ( 'NONE',  ( 0.5905511811023621549, 7.874015748031496287, -0.2952755905511811885 ) ) ;
#580 = SHAPE_DEFINITION_REPRESENTATION ( #336, #115 ) ;
#581 = ORIENTED_EDGE ( 'NONE', *, *, #630, .T. ) ;
#582 = DIRECTION ( 'NONE',  ( 0.000000000000000000, 0.000000000000000000, 1.000000000000000000 ) ) ;
#583 = EDGE_CURVE ( 'NONE', #47, #446, #584, .T. ) ;
#584 = CIRCLE ( 'NONE', #365, 0.09842519685039372024 ) ;
#585 = DIRECTION ( 'NONE',  ( -0.000000000000000000, 0.000000000000000000, 1.000000000000000000 ) ) ;
#586 = CIRCLE ( 'NONE', #349, 0.5905511811023621549 ) ;
#587 = PRODUCT_DEFINITION ( 'UNKNOWN', '', #206, #710 ) ;
#588 = MECHANICAL_DESIGN_GEOMETRIC_PRESENTATION_REPRESENTATION (  '', ( #403 ), #186 ) ;
#589 = ORIENTED_EDGE ( 'NONE', *, *, #410, .T. ) ;
#590 = CARTESIAN_POINT ( 'NONE',  ( -0.4921259842519712935, 7.775590551181102761, 0.2952755905511810774 ) ) ;
#591 = VECTOR ( 'NONE', #652, 39.37007874015748143 ) ;
#592 = CARTESIAN_POINT ( 'NONE',  ( 0.4921259842519684624, 7.775590551181102761, -0.3937007874015748254 ) ) ;
#593 = VERTEX_POINT ( 'NONE', #268 ) ;
#594 =( NAMED_UNIT ( * ) SI_UNIT ( $, .STERADIAN. ) SOLID_ANGLE_UNIT ( ) );
#595 = ORIENTED_EDGE ( 'NONE', *, *, #456, .F. ) ;
#596 = DIRECTION ( 'NONE',  ( 1.000000000000000000, 0.000000000000000000, 0.000000000000000000 ) ) ;
#597 = CIRCLE ( 'NONE', #29, 0.5905511811023621549 ) ;
#598 = DIRECTION ( 'NONE',  ( -1.000000000000000000, 0.000000000000000000, 0.000000000000000000 ) ) ;
#599 = EDGE_LOOP ( 'NONE', ( #478, #771, #668, #327 ) ) ;
#600 = DIRECTION ( 'NONE',  ( 0.000000000000000000, 0.000000000000000000, -1.000000000000000000 ) ) ;
#601 = PRODUCT_DEFINITION ( 'UNKNOWN', '', #50, #529 ) ;
#602 = CARTESIAN_POINT ( 'NONE',  ( 0.000000000000000000, 8.267716535433072167, 0.000000000000000000 ) ) ;
#603 = CIRCLE ( 'NONE', #165, 0.5905511811023621549 ) ;
#604 = VECTOR ( 'NONE', #680, 39.37007874015748143 ) ;
#605 = ORIENTED_EDGE ( 'NONE', *, *, #825, .F. ) ;
#606 = FILL_AREA_STYLE ('',( #753 ) ) ;
#607 = ADVANCED_BREP_SHAPE_REPRESENTATION ( '', ( #857, #227 ), #495 ) ;
#608 = ORIENTED_EDGE ( 'NONE', *, *, #231, .F. ) ;
#609 = FACE_OUTER_BOUND ( 'NONE', #361, .T. ) ;
#610 = CARTESIAN_POINT ( 'NONE',  ( -0.4921259842519684624, 3.585550491684345474E-17, 0.3937007874015748254 ) ) ;
#611 = CARTESIAN_POINT ( 'NONE',  ( -0.5905511811023627100, 0.9842519685039370358, 0.1968503937007874127 ) ) ;
#612 = ORIENTED_EDGE ( 'NONE', *, *, #109, .F. ) ;
#613 = FACE_OUTER_BOUND ( 'NONE', #574, .T. ) ;
#614 = FACE_OUTER_BOUND ( 'NONE', #703, .T. ) ;
#615 = CARTESIAN_POINT ( 'NONE',  ( 0.5905511811023621549, 0.9842519685039370358, 0.1968503937007874127 ) ) ;
#616 = DIRECTION ( 'NONE',  ( 0.000000000000000000, 1.000000000000000000, 0.000000000000000000 ) ) ;
#617 = AXIS2_PLACEMENT_3D ( 'NONE', #382, #898, #59 ) ;
#618 = ORIENTED_EDGE ( 'NONE', *, *, #473, .T. ) ;
#619 = VECTOR ( 'NONE', #667, 39.37007874015748143 ) ;
#620 = ORIENTED_EDGE ( 'NONE', *, *, #119, .T. ) ;
#621 = VECTOR ( 'NONE', #12, 39.37007874015748143 ) ;
#622 = ORIENTED_EDGE ( 'NONE', *, *, #456, .T. ) ;
#623 = FACE_OUTER_BOUND ( 'NONE', #599, .T. ) ;
#624 = CARTESIAN_POINT ( 'NONE',  ( 0.4921259842519684624, 2.169649841009090155E-16, -0.3937007874015748254 ) ) ;
#625 = CIRCLE ( 'NONE', #449, 0.09842519685039365085 ) ;
#626 = ADVANCED_FACE ( 'NONE', ( #571 ), #797, .T. ) ;
#627 = ORIENTED_EDGE ( 'NONE', *, *, #221, .F. ) ;
#628 = DIRECTION ( 'NONE',  ( 0.000000000000000000, 1.000000000000000000, 0.000000000000000000 ) ) ;
#629 = LINE ( 'NONE', #841, #572 ) ;
#630 = EDGE_CURVE ( 'NONE', #351, #988, #418, .T. ) ;
#631 = ORIENTED_EDGE ( 'NONE', *, *, #814, .T. ) ;
#632 =( NAMED_UNIT ( * ) PLANE_ANGLE_UNIT ( ) SI_UNIT ( $, .RADIAN. ) );
#633 = CARTESIAN_POINT ( 'NONE',  ( 0.6889763779527559029, 7.874015748031496287, 0.2952755905511810774 ) ) ;
#634 = CARTESIAN_POINT ( 'NONE',  ( 0.000000000000000000, 8.267716535433072167, 0.000000000000000000 ) ) ;
#635 = AXIS2_PLACEMENT_3D ( 'NONE', #870, #192, #800 ) ;
#636 = VERTEX_POINT ( 'NONE', #592 ) ;
#637 = CARTESIAN_POINT ( 'NONE',  ( 0.000000000000000000, 0.000000000000000000, 0.000000000000000000 ) ) ;
#638 = CARTESIAN_POINT ( 'NONE',  ( -0.5905511811023627100, 0.9842519685039370358, -0.1968503937007874127 ) ) ;
#639 = CIRCLE ( 'NONE', #204, 0.09842519685039372024 ) ;
#640 = ORIENTED_EDGE ( 'NONE', *, *, #713, .F. ) ;
#641 = AXIS2_PLACEMENT_3D ( 'NONE', #216, #210, #953 ) ;
#642 = VERTEX_POINT ( 'NONE', #366 ) ;
#643 =( NAMED_UNIT ( * ) PLANE_ANGLE_UNIT ( ) SI_UNIT ( $, .RADIAN. ) );
#644 = VECTOR ( 'NONE', #25, 39.37007874015748143 ) ;
#645 = CARTESIAN_POINT ( 'NONE',  ( 0.4921259842519684624, 7.775590551181102761, -0.2952755905511811885 ) ) ;
#646 = EDGE_CURVE ( 'NONE', #885, #810, #60, .T. ) ;
#647 = VERTEX_POINT ( 'NONE', #521 ) ;
#648 = DIRECTION ( 'NONE',  ( 0.000000000000000000, 0.000000000000000000, 1.000000000000000000 ) ) ;
#649 = ADVANCED_FACE ( 'NONE', ( #56, #45 ), #371, .T. ) ;
#650 = DIRECTION ( 'NONE',  ( 0.000000000000000000, 0.000000000000000000, -1.000000000000000000 ) ) ;
#651 = TOROIDAL_SURFACE ( 'NONE', #813, 0.1968503937007874127, 0.09842519685039370636 ) ;
#652 = DIRECTION ( 'NONE',  ( -0.000000000000000000, -0.000000000000000000, 1.000000000000000000 ) ) ;
#653 = AXIS2_PLACEMENT_3D ( 'NONE', #135, #524, #447 ) ;
#654 = CARTESIAN_POINT ( 'NONE',  ( 0.4921259842519684624, 7.775590551181102761, 0.4921259842519685179 ) ) ;
#655 = ADVANCED_FACE ( 'NONE', ( #290 ), #443, .T. ) ;
#656 = DIRECTION ( 'NONE',  ( 0.000000000000000000, 0.000000000000000000, 1.000000000000000000 ) ) ;
#657 = FACE_BOUND ( 'NONE', #68, .T. ) ;
#658 = EDGE_CURVE ( 'NONE', #217, #47, #976, .T. ) ;
#659 = ORIENTED_EDGE ( 'NONE', *, *, #671, .T. ) ;
#660 = ORIENTED_EDGE ( 'NONE', *, *, #124, .T. ) ;
#661 = CARTESIAN_POINT ( 'NONE',  ( 0.6889763779527559029, 7.874015748031496287, -0.2952755905511811885 ) ) ;
#662 = FACE_OUTER_BOUND ( 'NONE', #157, .T. ) ;
#663 = ORIENTED_EDGE ( 'NONE', *, *, #481, .T. ) ;
#664 = ORIENTED_EDGE ( 'NONE', *, *, #234, .F. ) ;
#665 = CARTESIAN_POINT ( 'NONE',  ( 0.000000000000000000, 8.267716535433072167, 0.000000000000000000 ) ) ;
#666 = AXIS2_PLACEMENT_3D ( 'NONE', #754, #826, #51 ) ;
#667 = DIRECTION ( 'NONE',  ( -3.642919299551295391E-16, 1.000000000000000000, 0.000000000000000000 ) ) ;
#668 = ORIENTED_EDGE ( 'NONE', *, *, #326, .F. ) ;
#669 = VERTEX_POINT ( 'NONE', #738 ) ;
#670 = DIRECTION ( 'NONE',  ( -0.000000000000000000, -1.000000000000000000, -0.000000000000000000 ) ) ;
#671 = EDGE_CURVE ( 'NONE', #17, #460, #285, .T. ) ;
#672 = TOROIDAL_SURFACE ( 'NONE', #209, 0.1968503937007874127, 0.09842519685039370636 ) ;
#673 = CYLINDRICAL_SURFACE ( 'NONE', #198, 0.09842519685039365085 ) ;
#674 = EDGE_LOOP ( 'NONE', ( #924, #385, #127, #482 ) ) ;
#675 = CARTESIAN_POINT ( 'NONE',  ( -0.4921259842519684624, 1.808041534174241898E-17, 0.2952755905511810774 ) ) ;
#676 = EDGE_CURVE ( 'NONE', #687, #52, #512, .T. ) ;
#677 = DIRECTION ( 'NONE',  ( -1.000000000000000000, 0.000000000000000000, 0.000000000000000000 ) ) ;
#678 = EDGE_CURVE ( 'NONE', #712, #740, #535, .T. ) ;
#679 = DIRECTION ( 'NONE',  ( 0.000000000000000000, 0.000000000000000000, -1.000000000000000000 ) ) ;
#680 = DIRECTION ( 'NONE',  ( 1.000000000000000000, -0.000000000000000000, 0.000000000000000000 ) ) ;
#681 = CARTESIAN_POINT ( 'NONE',  ( 0.000000000000000000, 7.874015748031496287, 0.000000000000000000 ) ) ;
#682 = DIRECTION ( 'NONE',  ( -0.000000000000000000, -1.000000000000000000, -0.000000000000000000 ) ) ;
#683 = CIRCLE ( 'NONE', #118, 0.1968503937007874127 ) ;
#684 = ORIENTED_EDGE ( 'NONE', *, *, #368, .T. ) ;
#685 = SURFACE_SIDE_STYLE ('',( #832 ) ) ;
#686 = CARTESIAN_POINT ( 'NONE',  ( 0.000000000000000000, 1.084824920504545077E-16, 0.2952755905511810774 ) ) ;
#687 = VERTEX_POINT ( 'NONE', #130 ) ;
#688 = CARTESIAN_POINT ( 'NONE',  ( -0.5905511811023627100, 0.9842519685039370358, -0.1968503937007874127 ) ) ;
#689 = DIRECTION ( 'NONE',  ( -0.000000000000000000, -0.000000000000000000, -1.000000000000000000 ) ) ;
#690 = CARTESIAN_POINT ( 'NONE',  ( 0.6889763779527559029, 7.775590551181102761, -0.2952755905511811885 ) ) ;
#691 = ORIENTED_EDGE ( 'NONE', *, *, #540, .T. ) ;
#692 = AXIS2_PLACEMENT_3D ( 'NONE', #920, #163, #2 ) ;
#693 = CARTESIAN_POINT ( 'NONE',  ( 0.000000000000000000, 0.9842519685039370358, 0.000000000000000000 ) ) ;
#694 = LINE ( 'NONE', #615, #80 ) ;
#695 = DIRECTION ( 'NONE',  ( 0.000000000000000000, 0.000000000000000000, -1.000000000000000000 ) ) ;
#696 = CIRCLE ( 'NONE', #617, 0.09842519685039372024 ) ;
#697 = VECTOR ( 'NONE', #812, 39.37007874015748143 ) ;
#698 = ORIENTED_EDGE ( 'NONE', *, *, #136, .F. ) ;
#699 = CARTESIAN_POINT ( 'NONE',  ( -0.4921259842519712935, 7.775590551181102761, 0.2952755905511810774 ) ) ;
#700 = DIRECTION ( 'NONE',  ( 0.000000000000000000, -0.000000000000000000, 1.000000000000000000 ) ) ;
#701 = COLOUR_RGB ( '',0.000000000000000000, 0.5019607843137254832, 0.000000000000000000 ) ;
#702 = CIRCLE ( 'NONE', #792, 0.7874015748031496509 ) ;
#703 = EDGE_LOOP ( 'NONE', ( #175, #517, #321, #756 ) ) ;
#704 = DIRECTION ( 'NONE',  ( -1.000000000000000000, -3.642919299551295391E-16, 0.000000000000000000 ) ) ;
#705 = FACE_OUTER_BOUND ( 'NONE', #909, .T. ) ;
#706 = EDGE_LOOP ( 'NONE', ( #169, #61, #412, #957 ) ) ;
#707 = FILL_AREA_STYLE ('',( #413 ) ) ;
#708 = CARTESIAN_POINT ( 'NONE',  ( 0.4921259842519684624, 1.988845687591665934E-16, 0.3937007874015748254 ) ) ;
#709 = ORIENTED_EDGE ( 'NONE', *, *, #748, .F. ) ;
#710 = PRODUCT_DEFINITION_CONTEXT ( 'detailed design', #578, 'design' ) ;
#711 = AXIS2_PLACEMENT_3D ( 'NONE', #427, #503, #728 ) ;
#712 = VERTEX_POINT ( 'NONE', #454 ) ;
#713 = EDGE_CURVE ( 'NONE', #519, #712, #459, .T. ) ;
#714 = CARTESIAN_POINT ( 'NONE',  ( 9.642888182262624280E-17, 8.267716535433072167, 0.7874015748031496509 ) ) ;
#715 = ORIENTED_EDGE ( 'NONE', *, *, #485, .T. ) ;
#716 = APPLICATION_CONTEXT ( 'automotive_design' ) ;
#717 = CARTESIAN_POINT ( 'NONE',  ( 0.000000000000000000, 0.000000000000000000, 0.3937007874015748254 ) ) ;
#718 = ADVANCED_FACE ( 'NONE', ( #450 ), #673, .F. ) ;
#719 = SURFACE_SIDE_STYLE ('',( #332 ) ) ;
#720 = AXIS2_PLACEMENT_3D ( 'NONE', #32, #253, #553 ) ;
#721 = DIRECTION ( 'NONE',  ( -0.000000000000000000, -0.000000000000000000, 1.000000000000000000 ) ) ;
#722 = VERTEX_POINT ( 'NONE', #894 ) ;
#723 = DIRECTION ( 'NONE',  ( -0.000000000000000000, -0.000000000000000000, 1.000000000000000000 ) ) ;
#724 = SHAPE_REPRESENTATION_RELATIONSHIP ( 'NONE' , 'NONE' ,  #404, #607 ) ;
#725 = FACE_BOUND ( 'NONE', #367, .T. ) ;
#726 = CIRCLE ( 'NONE', #850, 0.2952755905511810774 ) ;
#727 = ADVANCED_FACE ( 'NONE', ( #972 ), #222, .F. ) ;
#728 = DIRECTION ( 'NONE',  ( 0.000000000000000000, 0.000000000000000000, -1.000000000000000000 ) ) ;
#729 = PRODUCT_CONTEXT ( 'NONE', #431, 'mechanical' ) ;
#730 = FACE_OUTER_BOUND ( 'NONE', #340, .T. ) ;
#731 = EDGE_CURVE ( 'NONE', #556, #429, #915, .T. ) ;
#732 = PLANE ( 'NONE',  #543 ) ;
#733 = VERTEX_POINT ( 'NONE', #854 ) ;
#734 = DIRECTION ( 'NONE',  ( 0.000000000000000000, 1.000000000000000000, 0.000000000000000000 ) ) ;
#735 = DIRECTION ( 'NONE',  ( -0.000000000000000000, -0.000000000000000000, 1.000000000000000000 ) ) ;
#736 = ORIENTED_EDGE ( 'NONE', *, *, #400, .T. ) ;
#737 = CARTESIAN_POINT ( 'NONE',  ( 0.5905511811023621549, 0.9842519685039370358, -0.1968503937007874127 ) ) ;
#738 = CARTESIAN_POINT ( 'NONE',  ( 0.000000000000000000, 7.874015748031496287, -0.7874015748031496509 ) ) ;
#739 = LENGTH_MEASURE_WITH_UNIT ( LENGTH_MEASURE( 0.02539999999999999897 ), #817 );
#740 = VERTEX_POINT ( 'NONE', #325 ) ;
#741 = CARTESIAN_POINT ( 'NONE',  ( 0.4921259842519684624, 7.874015748031496287, -0.2952755905511811885 ) ) ;
#742 = EDGE_CURVE ( 'NONE', #636, #903, #471, .T. ) ;
#743 = VECTOR ( 'NONE', #309, 39.37007874015748143 ) ;
#744 = CIRCLE ( 'NONE', #426, 0.09842519685039372024 ) ;
#745 = CARTESIAN_POINT ( 'NONE',  ( 0.2952755905511810774, 0.000000000000000000, -0.3937007874015748254 ) ) ;
#746 = DIRECTION ( 'NONE',  ( 0.000000000000000000, 0.000000000000000000, 1.000000000000000000 ) ) ;
#747 = ORIENTED_EDGE ( 'NONE', *, *, #176, .F. ) ;
#748 = EDGE_CURVE ( 'NONE', #782, #562, #931, .T. ) ;
#749 = DIRECTION ( 'NONE',  ( -1.000000000000000000, -0.000000000000000000, -0.000000000000000000 ) ) ;
#750 = TOROIDAL_SURFACE ( 'NONE', #271, 0.4921259842519684624, 0.09842519685039370636 ) ;
#751 = CARTESIAN_POINT ( 'NONE',  ( 0.000000000000000000, 7.775590551181102761, -0.4921259842519685179 ) ) ;
#752 = DIRECTION ( 'NONE',  ( 0.000000000000000000, 1.000000000000000000, 0.000000000000000000 ) ) ;
#753 = FILL_AREA_STYLE_COLOUR ( '', #498 ) ;
#754 = CARTESIAN_POINT ( 'NONE',  ( -0.4921259842519712935, 7.775590551181102761, 0.4921259842519685179 ) ) ;
#755 = EDGE_CURVE ( 'NONE', #534, #722, #629, .T. ) ;
#756 = ORIENTED_EDGE ( 'NONE', *, *, #297, .T. ) ;
#757 = CARTESIAN_POINT ( 'NONE',  ( 0.5905511811023621549, 7.775590551181102761, -0.2952755905511811885 ) ) ;
#758 = ADVANCED_FACE ( 'NONE', ( #311 ), #921, .T. ) ;
#759 = CIRCLE ( 'NONE', #254, 0.09842519685039372024 ) ;
#760 = DIRECTION ( 'NONE',  ( 0.000000000000000000, 0.000000000000000000, -1.000000000000000000 ) ) ;
#761 = PRESENTATION_STYLE_ASSIGNMENT (( #461 ) ) ;
#762 = CYLINDRICAL_SURFACE ( 'NONE', #692, 0.2952755905511810774 ) ;
#763 = FACE_OUTER_BOUND ( 'NONE', #982, .T. ) ;
#764 = AXIS2_PLACEMENT_3D ( 'NONE', #484, #650, #187 ) ;
#765 = ORIENTED_EDGE ( 'NONE', *, *, #26, .T. ) ;
#766 = DIRECTION ( 'NONE',  ( -1.000000000000000000, 0.000000000000000000, 0.000000000000000000 ) ) ;
#767 = DIRECTION ( 'NONE',  ( -0.000000000000000000, 0.000000000000000000, 1.000000000000000000 ) ) ;
#768 = DIRECTION ( 'NONE',  ( 1.000000000000000000, 0.000000000000000000, 0.000000000000000000 ) ) ;
#769 = CARTESIAN_POINT ( 'NONE',  ( 0.4921259842519684624, 0.000000000000000000, -0.2952755905511811885 ) ) ;
#770 = ORIENTED_EDGE ( 'NONE', *, *, #731, .T. ) ;
#771 = ORIENTED_EDGE ( 'NONE', *, *, #678, .T. ) ;
#772 = CARTESIAN_POINT ( 'NONE',  ( 0.5905511811023621549, 0.9842519685039370358, 0.1968503937007874127 ) ) ;
#773 = DIRECTION ( 'NONE',  ( 0.000000000000000000, -1.000000000000000000, -0.000000000000000000 ) ) ;
#774 = ADVANCED_FACE ( 'NONE', ( #305 ), #539, .T. ) ;
#775 = AXIS2_PLACEMENT_3D ( 'NONE', #686, #88, #463 ) ;
#776 = EDGE_LOOP ( 'NONE', ( #440, #21, #315, #631 ) ) ;
#777 = CARTESIAN_POINT ( 'NONE',  ( 0.000000000000000000, 0.000000000000000000, 0.1968503937007873850 ) ) ;
#778 = DIRECTION ( 'NONE',  ( 1.000000000000000000, 0.000000000000000000, 0.000000000000000000 ) ) ;
#779 = UNCERTAINTY_MEASURE_WITH_UNIT (LENGTH_MEASURE( 1.000000000000000082E-05 ), #69, 'distance_accuracy_value', 'NONE');
#780 = ORIENTED_EDGE ( 'NONE', *, *, #221, .T. ) ;
#781 = LINE ( 'NONE', #945, #70 ) ;
#782 = VERTEX_POINT ( 'NONE', #611 ) ;
#783 = CARTESIAN_POINT ( 'NONE',  ( -0.5905511811023621549, 0.000000000000000000, -0.2952755905511811885 ) ) ;
#784 = ORIENTED_EDGE ( 'NONE', *, *, #109, .T. ) ;
#785 = AXIS2_PLACEMENT_3D ( 'NONE', #983, #767, #230 ) ;
#786 = DIRECTION ( 'NONE',  ( -0.000000000000000000, -0.000000000000000000, 1.000000000000000000 ) ) ;
#787 = AXIS2_PLACEMENT_3D ( 'NONE', #23, #342, #947 ) ;
#788 = PLANE ( 'NONE',  #398 ) ;
#789 = FACE_OUTER_BOUND ( 'NONE', #248, .T. ) ;
#790 = ORIENTED_EDGE ( 'NONE', *, *, #563, .T. ) ;
#791 = CARTESIAN_POINT ( 'NONE',  ( -0.2952755905511810774, 3.616083068348483797E-17, -0.3937007874015748254 ) ) ;
#792 = AXIS2_PLACEMENT_3D ( 'NONE', #532, #914, #241 ) ;
#793 =( LENGTH_UNIT ( ) NAMED_UNIT ( * ) SI_UNIT ( $, .METRE. ) );
#794 = VECTOR ( 'NONE', #721, 39.37007874015748143 ) ;
#795 = DIRECTION ( 'NONE',  ( 0.000000000000000000, 0.000000000000000000, -1.000000000000000000 ) ) ;
#796 = EDGE_CURVE ( 'NONE', #359, #669, #702, .T. ) ;
#797 = CYLINDRICAL_SURFACE ( 'NONE', #711, 0.7874015748031496509 ) ;
#798 = ITEM_DEFINED_TRANSFORMATION ( 'NONE', 'NONE', #66,  #227 ) ;
#799 = ADVANCED_FACE ( 'NONE', ( #705 ), #546, .T. ) ;
#800 = DIRECTION ( 'NONE',  ( 1.000000000000000000, 0.000000000000000000, 0.000000000000000000 ) ) ;
#801 = ORIENTED_EDGE ( 'NONE', *, *, #379, .F. ) ;
#802 = DIRECTION ( 'NONE',  ( -1.000000000000000000, -1.836970198721028701E-16, 0.000000000000000000 ) ) ;
#803 = CIRCLE ( 'NONE', #383, 0.2952755905511810774 ) ;
#804 = CARTESIAN_POINT ( 'NONE',  ( -0.5905511811023627100, 0.9842519685039370358, -0.1968503937007874127 ) ) ;
#805 = ORIENTED_EDGE ( 'NONE', *, *, #501, .F. ) ;
#806 = DIRECTION ( 'NONE',  ( -3.642919299551294405E-16, 1.000000000000000000, 0.000000000000000000 ) ) ;
#807 = AXIS2_PLACEMENT_3D ( 'NONE', #433, #421, #956 ) ;
#808 = DIRECTION ( 'NONE',  ( 1.000000000000000000, 0.000000000000000000, 0.000000000000000000 ) ) ;
#809 = ADVANCED_FACE ( 'NONE', ( #908 ), #750, .T. ) ;
#810 = VERTEX_POINT ( 'NONE', #79 ) ;
#811 = ORIENTED_EDGE ( 'NONE', *, *, #37, .T. ) ;
#812 = DIRECTION ( 'NONE',  ( -0.000000000000000000, -1.000000000000000000, -0.000000000000000000 ) ) ;
#813 = AXIS2_PLACEMENT_3D ( 'NONE', #699, #628, #853 ) ;
#814 = EDGE_CURVE ( 'NONE', #52, #465, #245, .T. ) ;
#815 = DIRECTION ( 'NONE',  ( -0.000000000000000000, -1.000000000000000000, -0.000000000000000000 ) ) ;
#816 = ORIENTED_EDGE ( 'NONE', *, *, #849, .F. ) ;
#817 =( LENGTH_UNIT ( ) NAMED_UNIT ( * ) SI_UNIT ( $, .METRE. ) );
#818 = EDGE_LOOP ( 'NONE', ( #439, #589, #126, #81 ) ) ;
#819 = LINE ( 'NONE', #123, #697 ) ;
#820 = CARTESIAN_POINT ( 'NONE',  ( -0.4921259842519712935, 7.874015748031496287, 0.2952755905511810774 ) ) ;
#821 = EDGE_LOOP ( 'NONE', ( #608, #784, #314, #116 ) ) ;
#822 = CARTESIAN_POINT ( 'NONE',  ( 0.000000000000000000, 7.775590551181102761, 0.3937007874015748254 ) ) ;
#823 = FACE_BOUND ( 'NONE', #27, .T. ) ;
#824 = VECTOR ( 'NONE', #773, 39.37007874015748143 ) ;
#825 = EDGE_CURVE ( 'NONE', #172, #291, #625, .T. ) ;
#826 = DIRECTION ( 'NONE',  ( 1.000000000000000000, -0.000000000000000000, 0.000000000000000000 ) ) ;
#827 = ORIENTED_EDGE ( 'NONE', *, *, #748, .T. ) ;
#828 = DIRECTION ( 'NONE',  ( -3.642919299551294898E-16, 1.000000000000000000, 0.000000000000000000 ) ) ;
#829 = EDGE_CURVE ( 'NONE', #262, #733, #525, .T. ) ;
#830 = CARTESIAN_POINT ( 'NONE',  ( 0.2952755905511810774, 0.000000000000000000, 0.1968503937007873850 ) ) ;
#831 = VERTEX_POINT ( 'NONE', #477 ) ;
#832 = SURFACE_STYLE_FILL_AREA ( #606 ) ;
#833 = CARTESIAN_POINT ( 'NONE',  ( 0.000000000000000000, 1.084824920504545077E-16, 0.3937007874015748254 ) ) ;
#834 = DIRECTION ( 'NONE',  ( -1.000000000000000000, 0.000000000000000000, 0.000000000000000000 ) ) ;
#835 = VECTOR ( 'NONE', #516, 39.37007874015748143 ) ;
#836 = UNCERTAINTY_MEASURE_WITH_UNIT (LENGTH_MEASURE( 1.000000000000000082E-05 ), #103, 'distance_accuracy_value', 'NONE');
#837 = EDGE_LOOP ( 'NONE', ( #541, #229, #581, #664 ) ) ;
#838 = CYLINDRICAL_SURFACE ( 'NONE', #935, 0.5905511811023621549 ) ;
#839 = CARTESIAN_POINT ( 'NONE',  ( -0.5905511811023621549, -2.151330295010607161E-16, -0.2952755905511811885 ) ) ;
#840 = CARTESIAN_POINT ( 'NONE',  ( -0.6889763779527586784, 7.874015748031496287, -0.2952755905511810774 ) ) ;
#841 = CARTESIAN_POINT ( 'NONE',  ( 0.000000000000000000, 7.874015748031496287, -0.4921259842519685179 ) ) ;
#842 = AXIS2_PLACEMENT_3D ( 'NONE', #717, #648, #120 ) ;
#843 = ORIENTED_EDGE ( 'NONE', *, *, #646, .F. ) ;
#844 = ADVANCED_FACE ( 'NONE', ( #763 ), #7, .F. ) ;
#845 = ORIENTED_EDGE ( 'NONE', *, *, #501, .T. ) ;
#846 = LINE ( 'NONE', #304, #445 ) ;
#847 = CARTESIAN_POINT ( 'NONE',  ( 0.000000000000000000, 1.084824920504545077E-16, -0.2952755905511811885 ) ) ;
#848 = EDGE_CURVE ( 'NONE', #486, #988, #8, .T. ) ;
#849 = EDGE_CURVE ( 'NONE', #534, #636, #188, .T. ) ;
#850 = AXIS2_PLACEMENT_3D ( 'NONE', #339, #99, #110 ) ;
#851 = ORIENTED_EDGE ( 'NONE', *, *, #922, .F. ) ;
#852 = CARTESIAN_POINT ( 'NONE',  ( 0.000000000000000000, 7.874015748031496287, 0.000000000000000000 ) ) ;
#853 = DIRECTION ( 'NONE',  ( 0.000000000000000000, 0.000000000000000000, 1.000000000000000000 ) ) ;
#854 = CARTESIAN_POINT ( 'NONE',  ( -0.2952755905511810774, 3.616083068348483797E-17, 0.1968503937007873850 ) ) ;
#855 = EDGE_LOOP ( 'NONE', ( #494, #121 ) ) ;
#856 =( NAMED_UNIT ( * ) SI_UNIT ( $, .STERADIAN. ) SOLID_ANGLE_UNIT ( ) );
#857 = MANIFOLD_SOLID_BREP ( 'Fillet1', #337 ) ;
#858 = ORIENTED_EDGE ( 'NONE', *, *, #916, .T. ) ;
#859 = LENGTH_MEASURE_WITH_UNIT ( LENGTH_MEASURE( 0.02539999999999999897 ), #793 );
#860 = CARTESIAN_POINT ( 'NONE',  ( 0.6889763779527559029, 7.874015748031496287, -0.3937007874015748254 ) ) ;
#861 = VERTEX_POINT ( 'NONE', #374 ) ;
#862 = LINE ( 'NONE', #265, #794 ) ;
#863 = ORIENTED_EDGE ( 'NONE', *, *, #104, .T. ) ;
#864 = DIRECTION ( 'NONE',  ( 1.000000000000000000, -0.000000000000000000, -0.000000000000000000 ) ) ;
#865 =( LENGTH_UNIT ( ) NAMED_UNIT ( * ) SI_UNIT ( $, .METRE. ) );
#866 = CIRCLE ( 'NONE', #522, 0.1968503937007874127 ) ;
#867 = CARTESIAN_POINT ( 'NONE',  ( 0.5905511811023621549, 7.775590551181102761, 0.3937007874015748254 ) ) ;
#868 = DIRECTION ( 'NONE',  ( 1.000000000000000000, 0.000000000000000000, 0.000000000000000000 ) ) ;
#869 = PRODUCT_RELATED_PRODUCT_CATEGORY ( 'part', '', ( #95 ) ) ;
#870 = CARTESIAN_POINT ( 'NONE',  ( -0.6889763779527586784, 7.775590551181102761, -0.2952755905511810774 ) ) ;
#871 = ORIENTED_EDGE ( 'NONE', *, *, #191, .F. ) ;
#872 = VERTEX_POINT ( 'NONE', #469 ) ;
#873 = DIRECTION ( 'NONE',  ( -1.000000000000000000, -3.642919299551293419E-16, 0.000000000000000000 ) ) ;
#874 = CARTESIAN_POINT ( 'NONE',  ( 0.4921259842519684624, 7.874015748031496287, -0.4921259842519685179 ) ) ;
#875 = ORIENTED_EDGE ( 'NONE', *, *, #74, .F. ) ;
#876 = CONTEXT_DEPENDENT_SHAPE_REPRESENTATION ( #168, #166 ) ;
#877 = ORIENTED_EDGE ( 'NONE', *, *, #569, .T. ) ;
#878 = VECTOR ( 'NONE', #682, 39.37007874015748143 ) ;
#879 = CARTESIAN_POINT ( 'NONE',  ( 0.2952755905511810774, 0.000000000000000000, 0.3937007874015748254 ) ) ;
#880 = EDGE_CURVE ( 'NONE', #460, #530, #46, .T. ) ;
#881 = VECTOR ( 'NONE', #505, 39.37007874015748143 ) ;
#882 = PRESENTATION_LAYER_ASSIGNMENT (  '', '', ( #403 ) ) ;
#883 = LINE ( 'NONE', #207, #938 ) ;
#884 = APPLICATION_PROTOCOL_DEFINITION ( 'draft international standard', 'automotive_design', 1998, #716 ) ;
#885 = VERTEX_POINT ( 'NONE', #378 ) ;
#886 = CARTESIAN_POINT ( 'NONE',  ( -0.4921259842519684624, -1.792775245842172799E-16, 0.2952755905511810774 ) ) ;
#887 = AXIS2_PLACEMENT_3D ( 'NONE', #111, #428, #40 ) ;
#888 = EDGE_CURVE ( 'NONE', #291, #636, #696, .T. ) ;
#889 = CARTESIAN_POINT ( 'NONE',  ( -0.5905511811023621549, -2.151330295010607161E-16, 0.2952755905511810774 ) ) ;
#890 = ORIENTED_EDGE ( 'NONE', *, *, #416, .F. ) ;
#891 = ORIENTED_EDGE ( 'NONE', *, *, #284, .T. ) ;
#892 = DIRECTION ( 'NONE',  ( -0.000000000000000000, -0.000000000000000000, -1.000000000000000000 ) ) ;
#893 = CIRCLE ( 'NONE', #475, 0.09842519685039365085 ) ;
#894 = CARTESIAN_POINT ( 'NONE',  ( -0.4921259842519712935, 7.874015748031496287, -0.4921259842519685179 ) ) ;
#895 = ORIENTED_EDGE ( 'NONE', *, *, #270, .F. ) ;
#896 = CARTESIAN_POINT ( 'NONE',  ( 0.4921259842519684624, 7.874015748031496287, 0.3937007874015748254 ) ) ;
#897 = ADVANCED_FACE ( 'NONE', ( #614, #823 ), #990, .T. ) ;
#898 = DIRECTION ( 'NONE',  ( 0.000000000000000000, 1.000000000000000000, 0.000000000000000000 ) ) ;
#899 = CIRCLE ( 'NONE', #480, 0.09842519685039372024 ) ;
#900 = DIRECTION ( 'NONE',  ( 0.000000000000000000, 1.000000000000000000, 0.000000000000000000 ) ) ;
#901 =( GEOMETRIC_REPRESENTATION_CONTEXT ( 3 ) GLOBAL_UNCERTAINTY_ASSIGNED_CONTEXT ( ( #436 ) ) GLOBAL_UNIT_ASSIGNED_CONTEXT ( ( #352, #518, #594 ) ) REPRESENTATION_CONTEXT ( 'NONE', 'WORKASPACE' ) );
#902 = ADVANCED_FACE ( 'NONE', ( #609 ), #142, .T. ) ;
#903 = VERTEX_POINT ( 'NONE', #537 ) ;
#904 = CARTESIAN_POINT ( 'NONE',  ( 0.000000000000000000, 0.000000000000000000, -0.3937007874015748254 ) ) ;
#905 = CYLINDRICAL_SURFACE ( 'NONE', #299, 0.09842519685039372024 ) ;
#906 = DIRECTION ( 'NONE',  ( 0.000000000000000000, 0.000000000000000000, 1.000000000000000000 ) ) ;
#907 = LINE ( 'NONE', #329, #182 ) ;
#908 = FACE_OUTER_BOUND ( 'NONE', #917, .T. ) ;
#909 = EDGE_LOOP ( 'NONE', ( #18, #38, #114, #391 ) ) ;
#910 = CARTESIAN_POINT ( 'NONE',  ( -0.5905511811023627100, 1.365923996832131609E-16, -0.1968503937007874127 ) ) ;
#911 = LINE ( 'NONE', #62, #743 ) ;
#912 =( GEOMETRIC_REPRESENTATION_CONTEXT ( 3 ) GLOBAL_UNCERTAINTY_ASSIGNED_CONTEXT ( ( #779 ) ) GLOBAL_UNIT_ASSIGNED_CONTEXT ( ( #69, #233, #55 ) ) REPRESENTATION_CONTEXT ( 'NONE', 'WORKASPACE' ) );
#913 = DIRECTION ( 'NONE',  ( -1.000000000000000000, 0.000000000000000000, 0.000000000000000000 ) ) ;
#914 = DIRECTION ( 'NONE',  ( 0.000000000000000000, 1.000000000000000000, 0.000000000000000000 ) ) ;
#915 = CIRCLE ( 'NONE', #48, 0.7874015748031496509 ) ;
#916 = EDGE_CURVE ( 'NONE', #782, #872, #911, .T. ) ;
#917 = EDGE_LOOP ( 'NONE', ( #96, #455, #41, #981 ) ) ;
#918 = ORIENTED_EDGE ( 'NONE', *, *, #379, .T. ) ;
#919 = ORIENTED_EDGE ( 'NONE', *, *, #301, .T. ) ;
#920 = CARTESIAN_POINT ( 'NONE',  ( 0.000000000000000000, 0.000000000000000000, -0.3937007874015748254 ) ) ;
#921 = PLANE ( 'NONE',  #407 ) ;
#922 = EDGE_CURVE ( 'NONE', #669, #359, #364, .T. ) ;
#923 = AXIS2_PLACEMENT_3D ( 'NONE', #390, #330, #388 ) ;
#924 = ORIENTED_EDGE ( 'NONE', *, *, #583, .F. ) ;
#925 = FACE_OUTER_BOUND ( 'NONE', #274, .T. ) ;
#926 = DIRECTION ( 'NONE',  ( 0.000000000000000000, 1.000000000000000000, 0.000000000000000000 ) ) ;
#927 = DIRECTION ( 'NONE',  ( 0.000000000000000000, 0.000000000000000000, -1.000000000000000000 ) ) ;
#928 = ORIENTED_EDGE ( 'NONE', *, *, #796, .T. ) ;
#929 = EDGE_CURVE ( 'NONE', #642, #687, #442, .T. ) ;
#930 = DIRECTION ( 'NONE',  ( -0.000000000000000000, 0.000000000000000000, 1.000000000000000000 ) ) ;
#931 = LINE ( 'NONE', #980, #140 ) ;
#932 = EDGE_LOOP ( 'NONE', ( #919, #193, #827, #331 ) ) ;
#933 = PLANE ( 'NONE',  #946 ) ;
#934 = EDGE_CURVE ( 'NONE', #988, #460, #77, .T. ) ;
#935 = AXIS2_PLACEMENT_3D ( 'NONE', #152, #468, #766 ) ;
#936 = LINE ( 'NONE', #867, #644 ) ;
#937 = ORIENTED_EDGE ( 'NONE', *, *, #37, .F. ) ;
#938 = VECTOR ( 'NONE', #786, 39.37007874015748143 ) ;
#939 = ORIENTED_EDGE ( 'NONE', *, *, #630, .F. ) ;
#940 = LINE ( 'NONE', #860, #341 ) ;
#941 = ORIENTED_EDGE ( 'NONE', *, *, #416, .T. ) ;
#942 = CARTESIAN_POINT ( 'NONE',  ( 0.4921259842519684624, 2.169649841009090155E-16, 0.2952755905511810774 ) ) ;
#943 = VECTOR ( 'NONE', #401, 39.37007874015748143 ) ;
#944 = DIRECTION ( 'NONE',  ( 0.000000000000000000, -0.000000000000000000, 1.000000000000000000 ) ) ;
#945 = CARTESIAN_POINT ( 'NONE',  ( 0.000000000000000000, 7.775590551181102761, -0.3937007874015748254 ) ) ;
#946 = AXIS2_PLACEMENT_3D ( 'NONE', #852, #185, #944 ) ;
#947 = DIRECTION ( 'NONE',  ( 0.000000000000000000, 0.000000000000000000, 1.000000000000000000 ) ) ;
#948 = AXIS2_PLACEMENT_3D ( 'NONE', #886, #514, #873 ) ;
#949 = CARTESIAN_POINT ( 'NONE',  ( -0.5905511811023627100, 0.9842519685039370358, 0.1968503937007874127 ) ) ;
#950 = AXIS2_PLACEMENT_3D ( 'NONE', #150, #396, #778 ) ;
#951 = CARTESIAN_POINT ( 'NONE',  ( 0.2952755905511810774, 0.000000000000000000, -0.1968503937007874127 ) ) ;
#952 = CARTESIAN_POINT ( 'NONE',  ( 0.5905511811023621549, 2.169649841009090155E-16, -0.2952755905511811885 ) ) ;
#953 = DIRECTION ( 'NONE',  ( 1.000000000000000000, 0.000000000000000000, 0.000000000000000000 ) ) ;
#954 = EDGE_LOOP ( 'NONE', ( #770, #472 ) ) ;
#955 = CARTESIAN_POINT ( 'NONE',  ( 0.000000000000000000, 0.000000000000000000, -0.3937007874015748254 ) ) ;
#956 = DIRECTION ( 'NONE',  ( -1.000000000000000000, 0.000000000000000000, 0.000000000000000000 ) ) ;
#957 = ORIENTED_EDGE ( 'NONE', *, *, #922, .T. ) ;
#958 = VECTOR ( 'NONE', #438, 39.37007874015748143 ) ;
#959 = DIRECTION ( 'NONE',  ( 0.000000000000000000, 1.000000000000000000, -0.000000000000000000 ) ) ;
#960 = CARTESIAN_POINT ( 'NONE',  ( 0.000000000000000000, 1.084824920504545077E-16, 0.3937007874015748254 ) ) ;
#961 = ORIENTED_EDGE ( 'NONE', *, *, #755, .T. ) ;
#962 = APPLICATION_PROTOCOL_DEFINITION ( 'draft international standard', 'automotive_design', 1998, #578 ) ;
#963 = ORIENTED_EDGE ( 'NONE', *, *, #201, .F. ) ;
#964 = AXIS2_PLACEMENT_3D ( 'NONE', #247, #160, #464 ) ;
#965 = CARTESIAN_POINT ( 'NONE',  ( -0.4921259842519684624, 3.585550491684345474E-17, -0.2952755905511810774 ) ) ;
#966 = CIRCLE ( 'NONE', #807, 0.09842519685039372024 ) ;
#967 = DIRECTION ( 'NONE',  ( 0.000000000000000000, 0.000000000000000000, -1.000000000000000000 ) ) ;
#968 = ORIENTED_EDGE ( 'NONE', *, *, #319, .T. ) ;
#969 = DIRECTION ( 'NONE',  ( 0.000000000000000000, 0.000000000000000000, 1.000000000000000000 ) ) ;
#970 = VECTOR ( 'NONE', #557, 39.37007874015748143 ) ;
#971 = ADVANCED_FACE ( 'NONE', ( #406 ), #788, .T. ) ;
#972 = FACE_OUTER_BOUND ( 'NONE', #451, .T. ) ;
#973 = ORIENTED_EDGE ( 'NONE', *, *, #119, .F. ) ;
#974 =( LENGTH_UNIT ( ) NAMED_UNIT ( * ) SI_UNIT ( $, .METRE. ) );
#975 = CIRCLE ( 'NONE', #167, 0.7874015748031496509 ) ;
#976 = LINE ( 'NONE', #300, #878 ) ;
#977 = VERTEX_POINT ( 'NONE', #177 ) ;
#978 = DIRECTION ( 'NONE',  ( -1.000000000000000000, -3.642919299551293419E-16, 0.000000000000000000 ) ) ;
#979 = CARTESIAN_POINT ( 'NONE',  ( 0.000000000000000000, 1.084824920504545077E-16, -0.1968503937007873850 ) ) ;
#980 = CARTESIAN_POINT ( 'NONE',  ( -0.5905511811023627100, 0.9842519685039370358, 0.1968503937007874127 ) ) ;
#981 = ORIENTED_EDGE ( 'NONE', *, *, #400, .F. ) ;
#982 = EDGE_LOOP ( 'NONE', ( #605, #595, #97, #890 ) ) ;
#983 = CARTESIAN_POINT ( 'NONE',  ( 0.000000000000000000, 0.000000000000000000, 0.3937007874015748254 ) ) ;
#984 = ADVANCED_FACE ( 'NONE', ( #925, #252 ), #933, .F. ) ;
#985 = CARTESIAN_POINT ( 'NONE',  ( 9.642888182262624280E-17, 8.267716535433072167, 0.7874015748031496509 ) ) ;
#986 = DIRECTION ( 'NONE',  ( -1.000000000000000000, 0.000000000000000000, -0.000000000000000000 ) ) ;
#987 = VECTOR ( 'NONE', #6, 39.37007874015748143 ) ;
#988 = VERTEX_POINT ( 'NONE', #491 ) ;
#989 = DIRECTION ( 'NONE',  ( 0.000000000000000000, -1.000000000000000000, 0.000000000000000000 ) ) ;
#990 = PLANE ( 'NONE',  #785 ) ;
#991 = NEXT_ASSEMBLY_USAGE_OCCURRENCE ( 'NAUO1', ' ', ' ', #601, #587, $ ) ;
ENDSEC;
END-ISO-10303-21;
