ISO-10303-21;
HEADER;
FILE_DESCRIPTION (( 'STEP AP214' ),
    '1' );
FILE_NAME ('Chain_link_10_5_2.STEP',
    '2026-07-13T20:00:42',
    ( '' ),
    ( '' ),
    'SwSTEP 2.0',
    'SolidWorks 2026',
    '' );
FILE_SCHEMA (( 'AUTOMOTIVE_DESIGN' ));
ENDSEC;

DATA;
#1 = CARTESIAN_POINT ( 'NONE',  ( -0.005000000000000000971, -0.002500000000000000052, -0.001000000000000000021 ) ) ;
#2 = ORIENTED_EDGE ( 'NONE', *, *, #311, .T. ) ;
#3 = CARTESIAN_POINT ( 'NONE',  ( 0.005000000000000000104, 0.000000000000000000, -1.224646799147353144E-19 ) ) ;
#4 = VERTEX_POINT ( 'NONE', #381 ) ;
#5 = ORIENTED_EDGE ( 'NONE', *, *, #71, .T. ) ;
#6 = EDGE_CURVE ( 'NONE', #397, #4, #176, .T. ) ;
#7 = ORIENTED_EDGE ( 'NONE', *, *, #276, .F. ) ;
#8 = CARTESIAN_POINT ( 'NONE',  ( 0.005000000000000000104, 0.001500000000000000031, -1.224646799147353144E-19 ) ) ;
#9 = ADVANCED_FACE ( 'NONE', ( #207 ), #11, .T. ) ;
#10 = DIRECTION ( 'NONE',  ( 0.000000000000000000, 0.000000000000000000, 1.000000000000000000 ) ) ;
#11 = CYLINDRICAL_SURFACE ( 'NONE', #305, 0.001000000000000000021 ) ;
#12 =( NAMED_UNIT ( * ) SI_UNIT ( $, .STERADIAN. ) SOLID_ANGLE_UNIT ( ) );
#13 = DIRECTION ( 'NONE',  ( 0.000000000000000000, 0.000000000000000000, 1.000000000000000000 ) ) ;
#14 = TOROIDAL_SURFACE ( 'NONE', #230, 0.002500000000000000052, 0.001000000000000000021 ) ;
#15 = CARTESIAN_POINT ( 'NONE',  ( 0.007499999999999999722, 0.000000000000000000, 0.000000000000000000 ) ) ;
#16 = DIRECTION ( 'NONE',  ( 0.000000000000000000, 0.000000000000000000, -1.000000000000000000 ) ) ;
#17 = TOROIDAL_SURFACE ( 'NONE', #167, 0.002500000000000000052, 0.001000000000000000021 ) ;
#18 = VERTEX_POINT ( 'NONE', #177 ) ;
#19 = VECTOR ( 'NONE', #317, 1.000000000000000000 ) ;
#20 = EDGE_CURVE ( 'NONE', #333, #261, #135, .T. ) ;
#21 = DIRECTION ( 'NONE',  ( 0.000000000000000000, 0.000000000000000000, 1.000000000000000000 ) ) ;
#22 = CARTESIAN_POINT ( 'NONE',  ( 0.005000000000000000104, 0.002500000000000000052, 0.000000000000000000 ) ) ;
#23 = FACE_OUTER_BOUND ( 'NONE', #69, .T. ) ;
#24 = CARTESIAN_POINT ( 'NONE',  ( 0.000000000000000000, 0.000000000000000000, 0.000000000000000000 ) ) ;
#25 = FACE_OUTER_BOUND ( 'NONE', #200, .T. ) ;
#26 = DIRECTION ( 'NONE',  ( 0.000000000000000000, 0.000000000000000000, -1.000000000000000000 ) ) ;
#27 = EDGE_CURVE ( 'NONE', #359, #35, #409, .T. ) ;
#28 = CARTESIAN_POINT ( 'NONE',  ( 0.005000000000000000104, 0.002500000000000000052, 0.000000000000000000 ) ) ;
#29 = SURFACE_STYLE_FILL_AREA ( #105 ) ;
#30 = CARTESIAN_POINT ( 'NONE',  ( -0.005000000000000000971, -0.001500000000000000031, -1.224646799147353144E-19 ) ) ;
#31 = EDGE_LOOP ( 'NONE', ( #376, #411, #175, #362, #78, #234 ) ) ;
#32 = VECTOR ( 'NONE', #79, 1.000000000000000000 ) ;
#33 = STYLED_ITEM ( 'NONE', ( #369 ), #300 ) ;
#34 = AXIS2_PLACEMENT_3D ( 'NONE', #146, #274, #408 ) ;
#35 = VERTEX_POINT ( 'NONE', #245 ) ;
#36 = UNCERTAINTY_MEASURE_WITH_UNIT (LENGTH_MEASURE( 1.000000000000000082E-05 ), #314, 'distance_accuracy_value', 'NONE');
#37 = AXIS2_PLACEMENT_3D ( 'NONE', #211, #287, #61 ) ;
#38 = ORIENTED_EDGE ( 'NONE', *, *, #27, .T. ) ;
#39 = ADVANCED_FACE ( 'NONE', ( #142 ), #308, .T. ) ;
#40 = VERTEX_POINT ( 'NONE', #80 ) ;
#41 = EDGE_CURVE ( 'NONE', #96, #40, #89, .T. ) ;
#42 = VERTEX_POINT ( 'NONE', #371 ) ;
#43 = FILL_AREA_STYLE_COLOUR ( '', #217 ) ;
#44 = ADVANCED_BREP_SHAPE_REPRESENTATION ( 'Chain_link_10_5_2', ( #300, #406 ), #185 ) ;
#45 = EDGE_LOOP ( 'NONE', ( #148, #114, #205, #229, #301 ) ) ;
#46 = VERTEX_POINT ( 'NONE', #74 ) ;
#47 = CARTESIAN_POINT ( 'NONE',  ( 0.005000000000000000104, 0.002500000000000000052, 0.000000000000000000 ) ) ;
#48 = VECTOR ( 'NONE', #285, 1.000000000000000000 ) ;
#49 = ORIENTED_EDGE ( 'NONE', *, *, #402, .F. ) ;
#50 = AXIS2_PLACEMENT_3D ( 'NONE', #170, #302, #107 ) ;
#51 = DIRECTION ( 'NONE',  ( 0.000000000000000000, 0.000000000000000000, -1.000000000000000000 ) ) ;
#52 = EDGE_CURVE ( 'NONE', #397, #96, #363, .T. ) ;
#53 = CARTESIAN_POINT ( 'NONE',  ( 0.005000000000000000104, 0.002500000000000000052, 0.000000000000000000 ) ) ;
#54 = CIRCLE ( 'NONE', #290, 0.001000000000000000021 ) ;
#55 = DIRECTION ( 'NONE',  ( 0.000000000000000000, 0.000000000000000000, 1.000000000000000000 ) ) ;
#56 = CARTESIAN_POINT ( 'NONE',  ( -0.005000000000000000104, 0.002500000000000000052, -0.001000000000000000021 ) ) ;
#57 = PRODUCT ( 'Chain_link_10_5_2', 'Chain_link_10_5_2', '', ( #77 ) ) ;
#58 = LINE ( 'NONE', #315, #99 ) ;
#59 = DIRECTION ( 'NONE',  ( 0.000000000000000000, 0.000000000000000000, 1.000000000000000000 ) ) ;
#60 = DIRECTION ( 'NONE',  ( 0.000000000000000000, 0.000000000000000000, -1.000000000000000000 ) ) ;
#61 = DIRECTION ( 'NONE',  ( 0.000000000000000000, 0.000000000000000000, -1.000000000000000000 ) ) ;
#62 = ORIENTED_EDGE ( 'NONE', *, *, #27, .F. ) ;
#63 = EDGE_LOOP ( 'NONE', ( #169, #307, #97, #260, #415, #364 ) ) ;
#64 = MECHANICAL_DESIGN_GEOMETRIC_PRESENTATION_REPRESENTATION (  '', ( #33 ), #361 ) ;
#65 = AXIS2_PLACEMENT_3D ( 'NONE', #53, #309, #16 ) ;
#66 = ORIENTED_EDGE ( 'NONE', *, *, #236, .T. ) ;
#67 = PRODUCT_DEFINITION_CONTEXT ( 'detailed design', #295, 'design' ) ;
#68 = AXIS2_PLACEMENT_3D ( 'NONE', #392, #283, #225 ) ;
#69 = EDGE_LOOP ( 'NONE', ( #373, #360, #2, #7, #182 ) ) ;
#70 =( LENGTH_UNIT ( ) NAMED_UNIT ( * ) SI_UNIT ( $, .METRE. ) );
#71 = EDGE_CURVE ( 'NONE', #72, #227, #271, .T. ) ;
#72 = VERTEX_POINT ( 'NONE', #385 ) ;
#73 = CARTESIAN_POINT ( 'NONE',  ( 0.005000000000000000104, 0.000000000000000000, 0.000000000000000000 ) ) ;
#74 = CARTESIAN_POINT ( 'NONE',  ( 0.004999999999999998369, -0.002500000000000000052, 0.001000000000000000021 ) ) ;
#75 = DIRECTION ( 'NONE',  ( 1.000000000000000000, 0.000000000000000000, 0.000000000000000000 ) ) ;
#76 = ORIENTED_EDGE ( 'NONE', *, *, #180, .T. ) ;
#77 = PRODUCT_CONTEXT ( 'NONE', #324, 'mechanical' ) ;
#78 = ORIENTED_EDGE ( 'NONE', *, *, #391, .T. ) ;
#79 = DIRECTION ( 'NONE',  ( -1.000000000000000000, -0.000000000000000000, -0.000000000000000000 ) ) ;
#80 = CARTESIAN_POINT ( 'NONE',  ( -0.005000000000000000971, -0.002500000000000000052, 0.001000000000000000021 ) ) ;
#81 = EDGE_CURVE ( 'NONE', #166, #46, #293, .T. ) ;
#82 = LINE ( 'NONE', #179, #19 ) ;
#83 = DIRECTION ( 'NONE',  ( -1.000000000000000000, -0.000000000000000000, -0.000000000000000000 ) ) ;
#84 = EDGE_CURVE ( 'NONE', #4, #72, #109, .T. ) ;
#85 = CARTESIAN_POINT ( 'NONE',  ( 0.004999999999999998369, -0.002500000000000000052, 0.000000000000000000 ) ) ;
#86 = CARTESIAN_POINT ( 'NONE',  ( -0.005000000000000000971, -0.002500000000000000052, 0.000000000000000000 ) ) ;
#87 = CIRCLE ( 'NONE', #327, 0.001500000000000000465 ) ;
#88 = CARTESIAN_POINT ( 'NONE',  ( -0.005000000000000000971, -0.003500000000000000073, 0.000000000000000000 ) ) ;
#89 = CIRCLE ( 'NONE', #387, 0.001000000000000000021 ) ;
#90 = CARTESIAN_POINT ( 'NONE',  ( 0.000000000000000000, 0.002500000000000000052, 0.000000000000000000 ) ) ;
#91 = AXIS2_PLACEMENT_3D ( 'NONE', #3, #193, #395 ) ;
#92 = DIRECTION ( 'NONE',  ( 1.000000000000000000, 0.000000000000000000, 0.000000000000000000 ) ) ;
#93 = DIRECTION ( 'NONE',  ( 0.000000000000000000, 0.000000000000000000, 1.000000000000000000 ) ) ;
#94 = PRODUCT_DEFINITION ( 'UNKNOWN', '', #203, #67 ) ;
#95 = DIRECTION ( 'NONE',  ( 0.000000000000000000, 0.000000000000000000, -1.000000000000000000 ) ) ;
#96 = VERTEX_POINT ( 'NONE', #88 ) ;
#97 = ORIENTED_EDGE ( 'NONE', *, *, #201, .T. ) ;
#98 = ORIENTED_EDGE ( 'NONE', *, *, #311, .F. ) ;
#99 = VECTOR ( 'NONE', #151, 1.000000000000000000 ) ;
#100 = ORIENTED_EDGE ( 'NONE', *, *, #157, .T. ) ;
#101 = ADVANCED_FACE ( 'NONE', ( #25 ), #122, .T. ) ;
#102 = FACE_OUTER_BOUND ( 'NONE', #164, .T. ) ;
#103 = CIRCLE ( 'NONE', #344, 0.001000000000000000021 ) ;
#104 = ORIENTED_EDGE ( 'NONE', *, *, #236, .F. ) ;
#105 = FILL_AREA_STYLE ('',( #43 ) ) ;
#106 = ORIENTED_EDGE ( 'NONE', *, *, #126, .F. ) ;
#107 = DIRECTION ( 'NONE',  ( 1.000000000000000000, 0.000000000000000000, 0.000000000000000000 ) ) ;
#108 = DIRECTION ( 'NONE',  ( 0.000000000000000000, 0.000000000000000000, -1.000000000000000000 ) ) ;
#109 = CIRCLE ( 'NONE', #143, 0.001000000000000000021 ) ;
#110 = CARTESIAN_POINT ( 'NONE',  ( 0.000000000000000000, 0.002500000000000000052, 0.000000000000000000 ) ) ;
#111 = CIRCLE ( 'NONE', #365, 0.001000000000000000021 ) ;
#112 = EDGE_LOOP ( 'NONE', ( #98, #38, #367, #129, #231 ) ) ;
#113 = CARTESIAN_POINT ( 'NONE',  ( -0.005000000000000000104, 0.003500000000000000073, 0.000000000000000000 ) ) ;
#114 = ORIENTED_EDGE ( 'NONE', *, *, #375, .T. ) ;
#115 = DIRECTION ( 'NONE',  ( 0.000000000000000000, 0.000000000000000000, -1.000000000000000000 ) ) ;
#116 = ORIENTED_EDGE ( 'NONE', *, *, #214, .T. ) ;
#117 = ADVANCED_FACE ( 'NONE', ( #423 ), #178, .T. ) ;
#118 = DIRECTION ( 'NONE',  ( 1.000000000000000000, 0.000000000000000000, 0.000000000000000000 ) ) ;
#119 = PRODUCT_RELATED_PRODUCT_CATEGORY ( 'part', '', ( #57 ) ) ;
#120 = CIRCLE ( 'NONE', #407, 0.001000000000000000021 ) ;
#121 = LINE ( 'NONE', #253, #48 ) ;
#122 = TOROIDAL_SURFACE ( 'NONE', #284, 0.002500000000000000052, 0.001000000000000000021 ) ;
#123 = CARTESIAN_POINT ( 'NONE',  ( 0.000000000000000000, 0.002500000000000000052, 0.001000000000000000021 ) ) ;
#124 = CIRCLE ( 'NONE', #389, 0.001000000000000000021 ) ;
#125 = DIRECTION ( 'NONE',  ( 0.000000000000000000, 0.000000000000000000, -1.000000000000000000 ) ) ;
#126 = EDGE_CURVE ( 'NONE', #166, #359, #422, .T. ) ;
#127 = CARTESIAN_POINT ( 'NONE',  ( 0.005000000000000000104, 0.000000000000000000, -1.224646799147353144E-19 ) ) ;
#128 = CIRCLE ( 'NONE', #306, 0.001000000000000000021 ) ;
#129 = ORIENTED_EDGE ( 'NONE', *, *, #20, .T. ) ;
#130 = ORIENTED_EDGE ( 'NONE', *, *, #345, .T. ) ;
#131 = ORIENTED_EDGE ( 'NONE', *, *, #276, .T. ) ;
#132 = ORIENTED_EDGE ( 'NONE', *, *, #41, .T. ) ;
#133 = EDGE_LOOP ( 'NONE', ( #62, #194, #130, #398, #116 ) ) ;
#134 = CYLINDRICAL_SURFACE ( 'NONE', #163, 0.001000000000000000021 ) ;
#135 = CIRCLE ( 'NONE', #65, 0.001000000000000000021 ) ;
#136 = ORIENTED_EDGE ( 'NONE', *, *, #368, .T. ) ;
#137 = ADVANCED_FACE ( 'NONE', ( #23 ), #14, .T. ) ;
#138 = CARTESIAN_POINT ( 'NONE',  ( -0.005000000000000000971, -0.002500000000000000052, 0.000000000000000000 ) ) ;
#139 = ORIENTED_EDGE ( 'NONE', *, *, #355, .F. ) ;
#140 = CIRCLE ( 'NONE', #252, 0.001000000000000000021 ) ;
#141 = DIRECTION ( 'NONE',  ( 0.000000000000000000, 0.000000000000000000, -1.000000000000000000 ) ) ;
#142 = FACE_OUTER_BOUND ( 'NONE', #112, .T. ) ;
#143 = AXIS2_PLACEMENT_3D ( 'NONE', #251, #353, #125 ) ;
#144 = DIRECTION ( 'NONE',  ( -1.000000000000000000, 3.469446951953614189E-16, 0.000000000000000000 ) ) ;
#145 = AXIS2_PLACEMENT_3D ( 'NONE', #304, #299, #372 ) ;
#146 = CARTESIAN_POINT ( 'NONE',  ( 0.005000000000000000104, 0.000000000000000000, 0.000000000000000000 ) ) ;
#147 = DIRECTION ( 'NONE',  ( 1.000000000000000000, 0.000000000000000000, 0.000000000000000000 ) ) ;
#148 = ORIENTED_EDGE ( 'NONE', *, *, #214, .F. ) ;
#149 = EDGE_CURVE ( 'NONE', #40, #46, #121, .T. ) ;
#150 = DIRECTION ( 'NONE',  ( -1.000000000000000000, 0.000000000000000000, 0.000000000000000000 ) ) ;
#151 = DIRECTION ( 'NONE',  ( -1.000000000000000000, -0.000000000000000000, -0.000000000000000000 ) ) ;
#152 =( NAMED_UNIT ( * ) PLANE_ANGLE_UNIT ( ) SI_UNIT ( $, .RADIAN. ) );
#153 = CARTESIAN_POINT ( 'NONE',  ( 0.005000000000000000104, 0.000000000000000000, 0.000000000000000000 ) ) ;
#154 = DIRECTION ( 'NONE',  ( 0.000000000000000000, 0.000000000000000000, 1.000000000000000000 ) ) ;
#155 = CARTESIAN_POINT ( 'NONE',  ( -0.005000000000000000104, 0.000000000000000000, 0.000000000000000000 ) ) ;
#156 = FACE_OUTER_BOUND ( 'NONE', #401, .T. ) ;
#157 = EDGE_CURVE ( 'NONE', #333, #198, #58, .T. ) ;
#158 = DIRECTION ( 'NONE',  ( 1.000000000000000000, 0.000000000000000000, 0.000000000000000000 ) ) ;
#159 = CARTESIAN_POINT ( 'NONE',  ( 0.005000000000000000104, 0.002500000000000000052, 0.001000000000000000021 ) ) ;
#160 = ADVANCED_FACE ( 'NONE', ( #321 ), #388, .T. ) ;
#161 = CIRCLE ( 'NONE', #349, 0.001000000000000000021 ) ;
#162 = CARTESIAN_POINT ( 'NONE',  ( 0.000000000000000000, 0.002500000000000000052, 0.000000000000000000 ) ) ;
#163 = AXIS2_PLACEMENT_3D ( 'NONE', #138, #75, #95 ) ;
#164 = EDGE_LOOP ( 'NONE', ( #106, #328, #247, #131, #136 ) ) ;
#165 = AXIS2_PLACEMENT_3D ( 'NONE', #221, #188, #223 ) ;
#166 = VERTEX_POINT ( 'NONE', #354 ) ;
#167 = AXIS2_PLACEMENT_3D ( 'NONE', #73, #10, #202 ) ;
#168 = ORIENTED_EDGE ( 'NONE', *, *, #6, .T. ) ;
#169 = ORIENTED_EDGE ( 'NONE', *, *, #180, .F. ) ;
#170 = CARTESIAN_POINT ( 'NONE',  ( -0.005000000000000000104, 0.000000000000000000, -1.224646799147353144E-19 ) ) ;
#171 = EDGE_CURVE ( 'NONE', #261, #204, #286, .T. ) ;
#172 = ORIENTED_EDGE ( 'NONE', *, *, #297, .T. ) ;
#173 = ORIENTED_EDGE ( 'NONE', *, *, #357, .T. ) ;
#174 = DIRECTION ( 'NONE',  ( 0.000000000000000000, -1.000000000000000000, 0.000000000000000000 ) ) ;
#175 = ORIENTED_EDGE ( 'NONE', *, *, #379, .F. ) ;
#176 = CIRCLE ( 'NONE', #399, 0.001000000000000000021 ) ;
#177 = CARTESIAN_POINT ( 'NONE',  ( 0.000000000000000000, 0.002500000000000000052, -0.001000000000000000021 ) ) ;
#178 = TOROIDAL_SURFACE ( 'NONE', #197, 0.002500000000000000052, 0.001000000000000000021 ) ;
#179 = CARTESIAN_POINT ( 'NONE',  ( 0.000000000000000000, 0.002500000000000000052, 0.001000000000000000021 ) ) ;
#180 = EDGE_CURVE ( 'NONE', #40, #296, #103, .T. ) ;
#181 = CIRCLE ( 'NONE', #50, 0.001500000000000000031 ) ;
#182 = ORIENTED_EDGE ( 'NONE', *, *, #201, .F. ) ;
#183 = LINE ( 'NONE', #275, #32 ) ;
#184 = DIRECTION ( 'NONE',  ( -1.000000000000000000, 0.000000000000000000, 0.000000000000000000 ) ) ;
#185 =( GEOMETRIC_REPRESENTATION_CONTEXT ( 3 ) GLOBAL_UNCERTAINTY_ASSIGNED_CONTEXT ( ( #36 ) ) GLOBAL_UNIT_ASSIGNED_CONTEXT ( ( #314, #152, #249 ) ) REPRESENTATION_CONTEXT ( 'NONE', 'WORKASPACE' ) );
#186 = AXIS2_PLACEMENT_3D ( 'NONE', #86, #244, #347 ) ;
#187 = CARTESIAN_POINT ( 'NONE',  ( 0.008500000000000000611, 0.000000000000000000, 0.000000000000000000 ) ) ;
#188 = DIRECTION ( 'NONE',  ( 1.000000000000000000, 0.000000000000000000, 0.000000000000000000 ) ) ;
#189 = DIRECTION ( 'NONE',  ( 0.000000000000000000, 0.000000000000000000, 1.000000000000000000 ) ) ;
#190 = DIRECTION ( 'NONE',  ( 1.000000000000000000, 0.000000000000000000, 0.000000000000000000 ) ) ;
#191 = CLOSED_SHELL ( 'NONE', ( #39, #101, #137, #425, #248, #288, #192, #160, #117, #394, #224, #9 ) ) ;
#192 = ADVANCED_FACE ( 'NONE', ( #156 ), #348, .T. ) ;
#193 = DIRECTION ( 'NONE',  ( 0.000000000000000000, 0.000000000000000000, 1.000000000000000000 ) ) ;
#194 = ORIENTED_EDGE ( 'NONE', *, *, #368, .F. ) ;
#195 = AXIS2_PLACEMENT_3D ( 'NONE', #110, #242, #60 ) ;
#196 = ORIENTED_EDGE ( 'NONE', *, *, #375, .F. ) ;
#197 = AXIS2_PLACEMENT_3D ( 'NONE', #155, #59, #282 ) ;
#198 = VERTEX_POINT ( 'NONE', #123 ) ;
#199 = CIRCLE ( 'NONE', #91, 0.001500000000000000465 ) ;
#200 = EDGE_LOOP ( 'NONE', ( #396, #313, #132, #76, #104, #341 ) ) ;
#201 = EDGE_CURVE ( 'NONE', #46, #303, #256, .T. ) ;
#202 = DIRECTION ( 'NONE',  ( 1.000000000000000000, 0.000000000000000000, 0.000000000000000000 ) ) ;
#203 = PRODUCT_DEFINITION_FORMATION_WITH_SPECIFIED_SOURCE ( 'ANY', '', #57, .NOT_KNOWN. ) ;
#204 = VERTEX_POINT ( 'NONE', #390 ) ;
#205 = ORIENTED_EDGE ( 'NONE', *, *, #322, .T. ) ;
#206 = DIRECTION ( 'NONE',  ( 0.000000000000000000, 0.000000000000000000, -1.000000000000000000 ) ) ;
#207 = FACE_OUTER_BOUND ( 'NONE', #209, .T. ) ;
#208 = APPLICATION_PROTOCOL_DEFINITION ( 'draft international standard', 'automotive_design', 1998, #295 ) ;
#209 = EDGE_LOOP ( 'NONE', ( #196, #400, #292, #100, #172 ) ) ;
#210 = CARTESIAN_POINT ( 'NONE',  ( 0.004999999999999998369, -0.002500000000000000052, 0.000000000000000000 ) ) ;
#211 = CARTESIAN_POINT ( 'NONE',  ( 0.004999999999999998369, -0.002500000000000000052, 0.000000000000000000 ) ) ;
#212 = DIRECTION ( 'NONE',  ( 1.000000000000000000, 0.000000000000000000, 0.000000000000000000 ) ) ;
#213 = ORIENTED_EDGE ( 'NONE', *, *, #71, .F. ) ;
#214 = EDGE_CURVE ( 'NONE', #204, #35, #124, .T. ) ;
#215 = DIRECTION ( 'NONE',  ( 0.000000000000000000, 0.000000000000000000, -1.000000000000000000 ) ) ;
#216 = PRODUCT_DEFINITION_SHAPE ( 'NONE', 'NONE',  #94 ) ;
#217 = COLOUR_RGB ( '',0.8941176470588234615, 0.8941176470588234615, 0.8941176470588234615 ) ;
#218 = CYLINDRICAL_SURFACE ( 'NONE', #237, 0.001000000000000000021 ) ;
#219 = CARTESIAN_POINT ( 'NONE',  ( -0.005000000000000000104, 0.000000000000000000, 0.000000000000000000 ) ) ;
#220 = AXIS2_PLACEMENT_3D ( 'NONE', #239, #272, #378 ) ;
#221 = CARTESIAN_POINT ( 'NONE',  ( -0.005000000000000000104, 0.002500000000000000052, 0.000000000000000000 ) ) ;
#222 = AXIS2_PLACEMENT_3D ( 'NONE', #28, #158, #320 ) ;
#223 = DIRECTION ( 'NONE',  ( 0.000000000000000000, 0.000000000000000000, -1.000000000000000000 ) ) ;
#224 = ADVANCED_FACE ( 'NONE', ( #419 ), #17, .T. ) ;
#225 = DIRECTION ( 'NONE',  ( 0.000000000000000000, 0.000000000000000000, 1.000000000000000000 ) ) ;
#226 = CARTESIAN_POINT ( 'NONE',  ( 0.007499999999999999722, 0.000000000000000000, 0.000000000000000000 ) ) ;
#227 = VERTEX_POINT ( 'NONE', #56 ) ;
#228 = ORIENTED_EDGE ( 'NONE', *, *, #264, .T. ) ;
#229 = ORIENTED_EDGE ( 'NONE', *, *, #157, .F. ) ;
#230 = AXIS2_PLACEMENT_3D ( 'NONE', #153, #421, #279 ) ;
#231 = ORIENTED_EDGE ( 'NONE', *, *, #345, .F. ) ;
#232 = EDGE_CURVE ( 'NONE', #35, #333, #111, .T. ) ;
#233 = DIRECTION ( 'NONE',  ( 0.000000000000000000, 0.000000000000000000, -1.000000000000000000 ) ) ;
#234 = ORIENTED_EDGE ( 'NONE', *, *, #81, .T. ) ;
#235 = CARTESIAN_POINT ( 'NONE',  ( 0.004999999999999998369, -0.002500000000000000052, -0.001000000000000000021 ) ) ;
#236 = EDGE_CURVE ( 'NONE', #72, #296, #181, .T. ) ;
#237 = AXIS2_PLACEMENT_3D ( 'NONE', #416, #147, #374 ) ;
#238 = CIRCLE ( 'NONE', #195, 0.001000000000000000021 ) ;
#239 = CARTESIAN_POINT ( 'NONE',  ( 0.005000000000000000104, 0.000000000000000000, 0.000000000000000000 ) ) ;
#240 = CARTESIAN_POINT ( 'NONE',  ( 0.005000000000000000104, 0.002500000000000000052, 0.000000000000000000 ) ) ;
#241 = DIRECTION ( 'NONE',  ( -1.000000000000000000, 3.469446951953614189E-16, 0.000000000000000000 ) ) ;
#242 = DIRECTION ( 'NONE',  ( 1.000000000000000000, 0.000000000000000000, 0.000000000000000000 ) ) ;
#243 = CARTESIAN_POINT ( 'NONE',  ( -0.005000000000000000104, 0.002500000000000000052, 0.000000000000000000 ) ) ;
#244 = DIRECTION ( 'NONE',  ( -1.000000000000000000, 3.469446951953614189E-16, 0.000000000000000000 ) ) ;
#245 = CARTESIAN_POINT ( 'NONE',  ( 0.005000000000000000104, 0.003500000000000000073, 0.000000000000000000 ) ) ;
#246 = DIRECTION ( 'NONE',  ( 0.000000000000000000, 0.000000000000000000, 1.000000000000000000 ) ) ;
#247 = ORIENTED_EDGE ( 'NONE', *, *, #257, .F. ) ;
#248 = ADVANCED_FACE ( 'NONE', ( #102 ), #352, .T. ) ;
#249 =( NAMED_UNIT ( * ) SI_UNIT ( $, .STERADIAN. ) SOLID_ANGLE_UNIT ( ) );
#250 = DIRECTION ( 'NONE',  ( 0.000000000000000000, 0.000000000000000000, -1.000000000000000000 ) ) ;
#251 = CARTESIAN_POINT ( 'NONE',  ( -0.005000000000000000104, 0.002500000000000000052, 0.000000000000000000 ) ) ;
#252 = AXIS2_PLACEMENT_3D ( 'NONE', #310, #212, #51 ) ;
#253 = CARTESIAN_POINT ( 'NONE',  ( -0.005000000000000000971, -0.002500000000000000052, 0.001000000000000000021 ) ) ;
#254 = AXIS2_PLACEMENT_3D ( 'NONE', #339, #13, #319 ) ;
#255 = DIRECTION ( 'NONE',  ( 0.000000000000000000, 0.000000000000000000, -1.000000000000000000 ) ) ;
#256 = CIRCLE ( 'NONE', #312, 0.001000000000000000021 ) ;
#257 = EDGE_CURVE ( 'NONE', #303, #269, #412, .T. ) ;
#258 = DIRECTION ( 'NONE',  ( -1.000000000000000000, 3.469446951953614189E-16, 0.000000000000000000 ) ) ;
#259 = ORIENTED_EDGE ( 'NONE', *, *, #379, .T. ) ;
#260 = ORIENTED_EDGE ( 'NONE', *, *, #257, .T. ) ;
#261 = VERTEX_POINT ( 'NONE', #8 ) ;
#262 = ORIENTED_EDGE ( 'NONE', *, *, #402, .T. ) ;
#263 = ORIENTED_EDGE ( 'NONE', *, *, #84, .T. ) ;
#264 = EDGE_CURVE ( 'NONE', #18, #227, #325, .T. ) ;
#265 = SURFACE_STYLE_USAGE ( .BOTH. , #291 ) ;
#266 = ORIENTED_EDGE ( 'NONE', *, *, #322, .F. ) ;
#267 = DIRECTION ( 'NONE',  ( 1.000000000000000000, 0.000000000000000000, 0.000000000000000000 ) ) ;
#268 = VECTOR ( 'NONE', #410, 1.000000000000000000 ) ;
#269 = VERTEX_POINT ( 'NONE', #235 ) ;
#270 = CARTESIAN_POINT ( 'NONE',  ( -0.005000000000000000971, -0.002500000000000000052, -0.001000000000000000021 ) ) ;
#271 = CIRCLE ( 'NONE', #165, 0.001000000000000000021 ) ;
#272 = DIRECTION ( 'NONE',  ( 0.000000000000000000, 0.000000000000000000, 1.000000000000000000 ) ) ;
#273 = VECTOR ( 'NONE', #358, 1.000000000000000000 ) ;
#274 = DIRECTION ( 'NONE',  ( 0.000000000000000000, 0.000000000000000000, 1.000000000000000000 ) ) ;
#275 = CARTESIAN_POINT ( 'NONE',  ( 0.005000000000000000104, 0.002500000000000000052, -0.001000000000000000021 ) ) ;
#276 = EDGE_CURVE ( 'NONE', #303, #42, #199, .T. ) ;
#277 = ORIENTED_EDGE ( 'NONE', *, *, #52, .F. ) ;
#278 = DIRECTION ( 'NONE',  ( 0.000000000000000000, 0.000000000000000000, -1.000000000000000000 ) ) ;
#279 = DIRECTION ( 'NONE',  ( 1.000000000000000000, 0.000000000000000000, 0.000000000000000000 ) ) ;
#280 = CARTESIAN_POINT ( 'NONE',  ( 0.004999999999999998369, -0.002500000000000000052, 0.000000000000000000 ) ) ;
#281 = DIRECTION ( 'NONE',  ( 0.000000000000000000, 0.000000000000000000, -1.000000000000000000 ) ) ;
#282 = DIRECTION ( 'NONE',  ( 1.000000000000000000, 0.000000000000000000, 0.000000000000000000 ) ) ;
#283 = DIRECTION ( 'NONE',  ( -1.000000000000000000, -0.000000000000000000, -0.000000000000000000 ) ) ;
#284 = AXIS2_PLACEMENT_3D ( 'NONE', #219, #93, #190 ) ;
#285 = DIRECTION ( 'NONE',  ( 1.000000000000000000, 0.000000000000000000, 0.000000000000000000 ) ) ;
#286 = CIRCLE ( 'NONE', #222, 0.001000000000000000021 ) ;
#287 = DIRECTION ( 'NONE',  ( -1.000000000000000000, 0.000000000000000000, 0.000000000000000000 ) ) ;
#288 = ADVANCED_FACE ( 'NONE', ( #334 ), #134, .T. ) ;
#289 = CIRCLE ( 'NONE', #335, 0.001000000000000000021 ) ;
#290 = AXIS2_PLACEMENT_3D ( 'NONE', #15, #377, #281 ) ;
#291 = SURFACE_SIDE_STYLE ('',( #29 ) ) ;
#292 = ORIENTED_EDGE ( 'NONE', *, *, #20, .F. ) ;
#293 = CIRCLE ( 'NONE', #329, 0.001000000000000000021 ) ;
#294 = ORIENTED_EDGE ( 'NONE', *, *, #264, .F. ) ;
#295 = APPLICATION_CONTEXT ( 'automotive_design' ) ;
#296 = VERTEX_POINT ( 'NONE', #30 ) ;
#297 = EDGE_CURVE ( 'NONE', #198, #18, #120, .T. ) ;
#298 = ORIENTED_EDGE ( 'NONE', *, *, #297, .F. ) ;
#299 = DIRECTION ( 'NONE',  ( 0.000000000000000000, 0.000000000000000000, 1.000000000000000000 ) ) ;
#300 = MANIFOLD_SOLID_BREP ( 'Sweep1', #191 ) ;
#301 = ORIENTED_EDGE ( 'NONE', *, *, #232, .F. ) ;
#302 = DIRECTION ( 'NONE',  ( 0.000000000000000000, 0.000000000000000000, 1.000000000000000000 ) ) ;
#303 = VERTEX_POINT ( 'NONE', #405 ) ;
#304 = CARTESIAN_POINT ( 'NONE',  ( 0.005000000000000000104, 0.000000000000000000, 0.000000000000000000 ) ) ;
#305 = AXIS2_PLACEMENT_3D ( 'NONE', #47, #83, #346 ) ;
#306 = AXIS2_PLACEMENT_3D ( 'NONE', #226, #174, #141 ) ;
#307 = ORIENTED_EDGE ( 'NONE', *, *, #149, .T. ) ;
#308 = TOROIDAL_SURFACE ( 'NONE', #220, 0.002500000000000000052, 0.001000000000000000021 ) ;
#309 = DIRECTION ( 'NONE',  ( 1.000000000000000000, 0.000000000000000000, 0.000000000000000000 ) ) ;
#310 = CARTESIAN_POINT ( 'NONE',  ( -0.005000000000000000104, 0.002500000000000000052, 0.000000000000000000 ) ) ;
#311 = EDGE_CURVE ( 'NONE', #359, #42, #128, .T. ) ;
#312 = AXIS2_PLACEMENT_3D ( 'NONE', #280, #383, #255 ) ;
#313 = ORIENTED_EDGE ( 'NONE', *, *, #52, .T. ) ;
#314 =( LENGTH_UNIT ( ) NAMED_UNIT ( * ) SI_UNIT ( $, .METRE. ) );
#315 = CARTESIAN_POINT ( 'NONE',  ( 0.005000000000000000104, 0.002500000000000000052, 0.001000000000000000021 ) ) ;
#316 = EDGE_CURVE ( 'NONE', #336, #269, #323, .T. ) ;
#317 = DIRECTION ( 'NONE',  ( -1.000000000000000000, -0.000000000000000000, -0.000000000000000000 ) ) ;
#318 = CARTESIAN_POINT ( 'NONE',  ( 0.005000000000000000104, 0.000000000000000000, 0.000000000000000000 ) ) ;
#319 = DIRECTION ( 'NONE',  ( 1.000000000000000000, 0.000000000000000000, 0.000000000000000000 ) ) ;
#320 = DIRECTION ( 'NONE',  ( 0.000000000000000000, 0.000000000000000000, -1.000000000000000000 ) ) ;
#321 = FACE_OUTER_BOUND ( 'NONE', #326, .T. ) ;
#322 = EDGE_CURVE ( 'NONE', #18, #198, #238, .T. ) ;
#323 = LINE ( 'NONE', #270, #268 ) ;
#324 = APPLICATION_CONTEXT ( 'automotive_design' ) ;
#325 = LINE ( 'NONE', #366, #273 ) ;
#326 = EDGE_LOOP ( 'NONE', ( #294, #298, #262, #263, #5 ) ) ;
#327 = AXIS2_PLACEMENT_3D ( 'NONE', #127, #55, #384 ) ;
#328 = ORIENTED_EDGE ( 'NONE', *, *, #391, .F. ) ;
#329 = AXIS2_PLACEMENT_3D ( 'NONE', #85, #184, #250 ) ;
#330 = ORIENTED_EDGE ( 'NONE', *, *, #355, .T. ) ;
#331 = AXIS2_PLACEMENT_3D ( 'NONE', #90, #417, #189 ) ;
#332 = UNCERTAINTY_MEASURE_WITH_UNIT (LENGTH_MEASURE( 1.000000000000000082E-05 ), #70, 'distance_accuracy_value', 'NONE');
#333 = VERTEX_POINT ( 'NONE', #159 ) ;
#334 = FACE_OUTER_BOUND ( 'NONE', #63, .T. ) ;
#335 = AXIS2_PLACEMENT_3D ( 'NONE', #418, #144, #115 ) ;
#336 = VERTEX_POINT ( 'NONE', #1 ) ;
#337 =( NAMED_UNIT ( * ) PLANE_ANGLE_UNIT ( ) SI_UNIT ( $, .RADIAN. ) );
#338 = CARTESIAN_POINT ( 'NONE',  ( -0.005000000000000000971, -0.002500000000000000052, 0.000000000000000000 ) ) ;
#339 = CARTESIAN_POINT ( 'NONE',  ( -0.005000000000000000104, 0.000000000000000000, 0.000000000000000000 ) ) ;
#340 = SHAPE_DEFINITION_REPRESENTATION ( #216, #44 ) ;
#341 = ORIENTED_EDGE ( 'NONE', *, *, #84, .F. ) ;
#342 = EDGE_LOOP ( 'NONE', ( #277, #139, #213, #66, #173, #259 ) ) ;
#343 = DIRECTION ( 'NONE',  ( -1.000000000000000000, -0.000000000000000000, -0.000000000000000000 ) ) ;
#344 = AXIS2_PLACEMENT_3D ( 'NONE', #424, #258, #26 ) ;
#345 = EDGE_CURVE ( 'NONE', #42, #261, #87, .T. ) ;
#346 = DIRECTION ( 'NONE',  ( 0.000000000000000000, 0.000000000000000000, 1.000000000000000000 ) ) ;
#347 = DIRECTION ( 'NONE',  ( 0.000000000000000000, 0.000000000000000000, -1.000000000000000000 ) ) ;
#348 = CYLINDRICAL_SURFACE ( 'NONE', #68, 0.001000000000000000021 ) ;
#349 = AXIS2_PLACEMENT_3D ( 'NONE', #210, #150, #278 ) ;
#350 = APPLICATION_PROTOCOL_DEFINITION ( 'draft international standard', 'automotive_design', 1998, #324 ) ;
#351 = AXIS2_PLACEMENT_3D ( 'NONE', #318, #21, #92 ) ;
#352 = TOROIDAL_SURFACE ( 'NONE', #145, 0.002500000000000000052, 0.001000000000000000021 ) ;
#353 = DIRECTION ( 'NONE',  ( 1.000000000000000000, 0.000000000000000000, 0.000000000000000000 ) ) ;
#354 = CARTESIAN_POINT ( 'NONE',  ( 0.004999999999999998369, -0.003500000000000000073, 0.000000000000000000 ) ) ;
#355 = EDGE_CURVE ( 'NONE', #227, #397, #140, .T. ) ;
#356 = CARTESIAN_POINT ( 'NONE',  ( 0.005000000000000000104, 0.002500000000000000052, 0.000000000000000000 ) ) ;
#357 = EDGE_CURVE ( 'NONE', #296, #336, #370, .T. ) ;
#358 = DIRECTION ( 'NONE',  ( -1.000000000000000000, -0.000000000000000000, -0.000000000000000000 ) ) ;
#359 = VERTEX_POINT ( 'NONE', #187 ) ;
#360 = ORIENTED_EDGE ( 'NONE', *, *, #126, .T. ) ;
#361 =( GEOMETRIC_REPRESENTATION_CONTEXT ( 3 ) GLOBAL_UNCERTAINTY_ASSIGNED_CONTEXT ( ( #332 ) ) GLOBAL_UNIT_ASSIGNED_CONTEXT ( ( #70, #337, #12 ) ) REPRESENTATION_CONTEXT ( 'NONE', 'WORKASPACE' ) );
#362 = ORIENTED_EDGE ( 'NONE', *, *, #316, .T. ) ;
#363 = CIRCLE ( 'NONE', #254, 0.003500000000000000073 ) ;
#364 = ORIENTED_EDGE ( 'NONE', *, *, #357, .F. ) ;
#365 = AXIS2_PLACEMENT_3D ( 'NONE', #240, #403, #233 ) ;
#366 = CARTESIAN_POINT ( 'NONE',  ( 0.000000000000000000, 0.002500000000000000052, -0.001000000000000000021 ) ) ;
#367 = ORIENTED_EDGE ( 'NONE', *, *, #232, .T. ) ;
#368 = EDGE_CURVE ( 'NONE', #42, #359, #54, .T. ) ;
#369 = PRESENTATION_STYLE_ASSIGNMENT (( #265 ) ) ;
#370 = CIRCLE ( 'NONE', #186, 0.001000000000000000021 ) ;
#371 = CARTESIAN_POINT ( 'NONE',  ( 0.006499999999999999702, 0.000000000000000000, -1.224646799147354347E-19 ) ) ;
#372 = DIRECTION ( 'NONE',  ( 1.000000000000000000, 0.000000000000000000, 0.000000000000000000 ) ) ;
#373 = ORIENTED_EDGE ( 'NONE', *, *, #81, .F. ) ;
#374 = DIRECTION ( 'NONE',  ( 0.000000000000000000, 0.000000000000000000, -1.000000000000000000 ) ) ;
#375 = EDGE_CURVE ( 'NONE', #204, #18, #183, .T. ) ;
#376 = ORIENTED_EDGE ( 'NONE', *, *, #149, .F. ) ;
#377 = DIRECTION ( 'NONE',  ( 0.000000000000000000, -1.000000000000000000, 0.000000000000000000 ) ) ;
#378 = DIRECTION ( 'NONE',  ( 1.000000000000000000, 0.000000000000000000, 0.000000000000000000 ) ) ;
#379 = EDGE_CURVE ( 'NONE', #336, #96, #289, .T. ) ;
#380 = FACE_OUTER_BOUND ( 'NONE', #31, .T. ) ;
#381 = CARTESIAN_POINT ( 'NONE',  ( -0.005000000000000000104, 0.002500000000000000052, 0.001000000000000000021 ) ) ;
#382 = CYLINDRICAL_SURFACE ( 'NONE', #393, 0.001000000000000000021 ) ;
#383 = DIRECTION ( 'NONE',  ( -1.000000000000000000, 0.000000000000000000, 0.000000000000000000 ) ) ;
#384 = DIRECTION ( 'NONE',  ( 1.000000000000000000, 0.000000000000000000, 0.000000000000000000 ) ) ;
#385 = CARTESIAN_POINT ( 'NONE',  ( -0.005000000000000000104, 0.001500000000000000031, -1.224646799147353144E-19 ) ) ;
#386 = PRESENTATION_LAYER_ASSIGNMENT (  '', '', ( #33 ) ) ;
#387 = AXIS2_PLACEMENT_3D ( 'NONE', #338, #241, #404 ) ;
#388 = CYLINDRICAL_SURFACE ( 'NONE', #331, 0.001000000000000000021 ) ;
#389 = AXIS2_PLACEMENT_3D ( 'NONE', #356, #118, #215 ) ;
#390 = CARTESIAN_POINT ( 'NONE',  ( 0.005000000000000000104, 0.002500000000000000052, -0.001000000000000000021 ) ) ;
#391 = EDGE_CURVE ( 'NONE', #269, #166, #161, .T. ) ;
#392 = CARTESIAN_POINT ( 'NONE',  ( 0.000000000000000000, 0.002500000000000000052, 0.000000000000000000 ) ) ;
#393 = AXIS2_PLACEMENT_3D ( 'NONE', #22, #343, #246 ) ;
#394 = ADVANCED_FACE ( 'NONE', ( #380 ), #218, .T. ) ;
#395 = DIRECTION ( 'NONE',  ( 1.000000000000000000, 0.000000000000000000, 0.000000000000000000 ) ) ;
#396 = ORIENTED_EDGE ( 'NONE', *, *, #6, .F. ) ;
#397 = VERTEX_POINT ( 'NONE', #113 ) ;
#398 = ORIENTED_EDGE ( 'NONE', *, *, #171, .T. ) ;
#399 = AXIS2_PLACEMENT_3D ( 'NONE', #243, #414, #108 ) ;
#400 = ORIENTED_EDGE ( 'NONE', *, *, #171, .F. ) ;
#401 = EDGE_LOOP ( 'NONE', ( #266, #228, #330, #168, #49 ) ) ;
#402 = EDGE_CURVE ( 'NONE', #198, #4, #82, .T. ) ;
#403 = DIRECTION ( 'NONE',  ( 1.000000000000000000, 0.000000000000000000, 0.000000000000000000 ) ) ;
#404 = DIRECTION ( 'NONE',  ( 0.000000000000000000, 0.000000000000000000, -1.000000000000000000 ) ) ;
#405 = CARTESIAN_POINT ( 'NONE',  ( 0.004999999999999998369, -0.001500000000000000031, -1.224646799147353144E-19 ) ) ;
#406 = AXIS2_PLACEMENT_3D ( 'NONE', #24, #154, #420 ) ;
#407 = AXIS2_PLACEMENT_3D ( 'NONE', #162, #267, #206 ) ;
#408 = DIRECTION ( 'NONE',  ( 1.000000000000000000, 0.000000000000000000, 0.000000000000000000 ) ) ;
#409 = CIRCLE ( 'NONE', #34, 0.003500000000000000507 ) ;
#410 = DIRECTION ( 'NONE',  ( 1.000000000000000000, 0.000000000000000000, 0.000000000000000000 ) ) ;
#411 = ORIENTED_EDGE ( 'NONE', *, *, #41, .F. ) ;
#412 = CIRCLE ( 'NONE', #37, 0.001000000000000000021 ) ;
#413 = FACE_OUTER_BOUND ( 'NONE', #45, .T. ) ;
#414 = DIRECTION ( 'NONE',  ( 1.000000000000000000, 0.000000000000000000, 0.000000000000000000 ) ) ;
#415 = ORIENTED_EDGE ( 'NONE', *, *, #316, .F. ) ;
#416 = CARTESIAN_POINT ( 'NONE',  ( -0.005000000000000000971, -0.002500000000000000052, 0.000000000000000000 ) ) ;
#417 = DIRECTION ( 'NONE',  ( -1.000000000000000000, -0.000000000000000000, -0.000000000000000000 ) ) ;
#418 = CARTESIAN_POINT ( 'NONE',  ( -0.005000000000000000971, -0.002500000000000000052, 0.000000000000000000 ) ) ;
#419 = FACE_OUTER_BOUND ( 'NONE', #133, .T. ) ;
#420 = DIRECTION ( 'NONE',  ( 1.000000000000000000, 0.000000000000000000, 0.000000000000000000 ) ) ;
#421 = DIRECTION ( 'NONE',  ( 0.000000000000000000, 0.000000000000000000, 1.000000000000000000 ) ) ;
#422 = CIRCLE ( 'NONE', #351, 0.003500000000000000507 ) ;
#423 = FACE_OUTER_BOUND ( 'NONE', #342, .T. ) ;
#424 = CARTESIAN_POINT ( 'NONE',  ( -0.005000000000000000971, -0.002500000000000000052, 0.000000000000000000 ) ) ;
#425 = ADVANCED_FACE ( 'NONE', ( #413 ), #382, .T. ) ;
ENDSEC;
END-ISO-10303-21;
